<svg width="20" height="20" viewBox="0 0 20 20" fill="none" xmlns="http://www.w3.org/2000/svg">
<path fill-rule="evenodd" clip-rule="evenodd" d="M10 18.5C5.313 18.5 1.5 14.687 1.5 10C1.5 5.313 5.313 1.5 10 1.5C14.687 1.5 18.5 5.313 18.5 10C18.5 14.687 14.687 18.5 10 18.5ZM10 0C4.4775 0 0 4.4775 0 10C0 15.523 4.4775 20 10 20C15.523 20 20 15.523 20 10C20 4.4775 15.523 0 10 0Z" fill="#99B1E6"/>
<rect x="9.16663" y="5" width="1.66667" height="6.66667" rx="0.5" fill="#99B1E6"/>
<rect x="9.16663" y="13.3333" width="1.66667" height="1.66667" rx="0.5" fill="#99B1E6"/>
</svg>
