<svg width="80" height="80" viewBox="0 0 80 80" fill="none" xmlns="http://www.w3.org/2000/svg">
<path fill-rule="evenodd" clip-rule="evenodd" d="M39.9998 74C21.2518 74 5.9998 58.748 5.9998 40C5.9998 21.252 21.2518 6 39.9998 6C58.7478 6 73.9998 21.252 73.9998 40C73.9998 58.748 58.7478 74 39.9998 74ZM40 0C17.91 0 0 17.91 0 40C0 62.092 17.91 80 40 80C62.092 80 80 62.092 80 40C80 17.91 62.092 0 40 0Z" fill="#C9D8FA"/>
<path fill-rule="evenodd" clip-rule="evenodd" d="M53.2747 27.7137C52.8527 27.3077 52.1687 27.3077 51.7467 27.7137L36.8887 42.0237L30.5687 35.9377C30.1487 35.5317 29.4627 35.5317 29.0407 35.9377L25.4747 39.3737C25.0527 39.7797 25.0527 40.4397 25.4747 40.8457L36.1247 51.1037C36.3347 51.3077 36.6127 51.4097 36.8887 51.4097C37.1647 51.4097 37.4407 51.3077 37.6527 51.1037L56.8407 32.6217C57.0447 32.4257 57.1567 32.1617 57.1567 31.8857C57.1567 31.6097 57.0447 31.3437 56.8407 31.1497L53.2747 27.7137Z" fill="#C9D8FA"/>
</svg>
