<svg width="64" height="64" viewBox="0 0 64 64" fill="none" xmlns="http://www.w3.org/2000/svg">
<mask id="mask0" mask-type="alpha" maskUnits="userSpaceOnUse" x="0" y="0" width="64" height="64">
<path d="M32 0C14.306 0 0 14.306 0 32C0 49.694 14.306 64 32 64C49.694 64 64 49.694 64 32C64 14.306 49.694 0 32 0Z" fill="white"/>
</mask>
<g mask="url(#mask0)">
<circle cx="32" cy="33" r="32" fill="white"/>
<path d="M42.1668 16.6667H22.6214C22.1668 16.6667 21.8638 16.3637 21.8638 15.9091V10.7576C21.8638 10.303 22.1668 10 22.6214 10H42.0912C42.5458 10 42.8488 10.303 42.8488 10.7576V15.9092C42.9245 16.288 42.5457 16.6667 42.1668 16.6667ZM23.3789 15.1516H41.3335V11.5152H23.3789V15.1516Z" fill="#DDB7A0"/>
<path d="M44.5149 15.9092H20.2725V53.2578H44.5149V15.9092Z" fill="#CC9675"/>
<path d="M42 11H23V15.5H42V11Z" fill="#DDB7A0"/>
<path d="M44.5153 54.0154H20.2728C19.8182 54.0154 19.5151 53.7124 19.5151 53.2578V15.9092C19.5151 15.4546 19.8182 15.1516 20.2728 15.1516H44.5152C44.9698 15.1516 45.2728 15.4546 45.2728 15.9092V53.2578C45.2728 53.7124 44.9698 54.0154 44.5153 54.0154ZM21.0304 52.5002H43.7577V16.6668H21.0304V52.5002Z" fill="#CC9675"/>
<path d="M35.1592 47.3108H29.7046V53.2957H35.1592V47.3108Z" fill="#F8FAFF"/>
<path d="M48.1052 55H15.8948C15.3579 55 15 54.6 15 54C15 53.4 15.3579 53 15.8948 53H48.1052C48.6421 53 49 53.4 49 54C49 54.6 48.642 55 48.1052 55Z" fill="#496A9A"/>
<path d="M26.637 18.9395H23.3037V22.2728H26.637V18.9395Z" fill="#F8FAFF"/>
<path d="M31.5613 18.9395H28.228V22.2728H31.5613V18.9395Z" fill="#F8FAFF"/>
<path d="M36.5613 18.9395H33.228V22.2728H36.5613V18.9395Z" fill="#F8FAFF"/>
<path d="M41.4852 18.9395H38.1519V22.2728H41.4852V18.9395Z" fill="#F8FAFF"/>
<path d="M26.637 23.4092H23.3037V26.7426H26.637V23.4092Z" fill="#F8FAFF"/>
<path d="M31.5613 23.4092H28.228V26.7426H31.5613V23.4092Z" fill="#F8FAFF"/>
<path d="M36.5613 23.4092H33.228V26.7426H36.5613V23.4092Z" fill="#F8FAFF"/>
<path d="M41.4852 23.4092H38.1519V26.7426H41.4852V23.4092Z" fill="#F8FAFF"/>
<path d="M26.637 27.8788H23.3037V31.2122H26.637V27.8788Z" fill="#F8FAFF"/>
<path d="M31.5613 27.8788H28.228V31.2122H31.5613V27.8788Z" fill="#F8FAFF"/>
<path d="M36.5613 27.8788H33.228V31.2122H36.5613V27.8788Z" fill="#F8FAFF"/>
<path d="M41.4852 27.8788H38.1519V31.2122H41.4852V27.8788Z" fill="#F8FAFF"/>
<path d="M26.637 32.2728H23.3037V35.6061H26.637V32.2728Z" fill="#F8FAFF"/>
<path d="M31.5613 32.2728H28.228V35.6061H31.5613V32.2728Z" fill="#F8FAFF"/>
<path d="M36.5613 32.2728H33.228V35.6061H36.5613V32.2728Z" fill="#F8FAFF"/>
<path d="M41.4852 32.2728H38.1519V35.6061H41.4852V32.2728Z" fill="#F8FAFF"/>
<path d="M26.637 36.7426H23.3037V40.0759H26.637V36.7426Z" fill="#F8FAFF"/>
<path d="M31.5613 36.7426H28.228V40.0759H31.5613V36.7426Z" fill="#F8FAFF"/>
<path d="M36.5613 36.7426H33.228V40.0759H36.5613V36.7426Z" fill="#F8FAFF"/>
<path d="M41.4852 36.7426H38.1519V40.0759H41.4852V36.7426Z" fill="#F8FAFF"/>
<path d="M26.637 41.2123H23.3037V44.5457H26.637V41.2123Z" fill="#F8FAFF"/>
<path d="M31.5613 41.2123H28.228V44.5457H31.5613V41.2123Z" fill="#F8FAFF"/>
<path d="M36.5613 41.2123H33.228V44.5457H36.5613V41.2123Z" fill="#F8FAFF"/>
<path d="M41.4852 41.2123H38.1519V44.5457H41.4852V41.2123Z" fill="#F8FAFF"/>
<path d="M28.1514 12.5758H26.6362V14.0909H28.1514V12.5758Z" fill="#496A9A"/>
<path d="M33.1514 12.5757H31.6362V14.0909H33.1514V12.5757Z" fill="#496A9A"/>
<path d="M38.1514 12.5757H36.6362V14.0909H38.1514V12.5757Z" fill="#496A9A"/>
</g>
<path d="M32 0C14.306 0 0 14.306 0 32C0 49.694 14.306 64 32 64C49.694 64 64 49.694 64 32C64 14.306 49.694 0 32 0ZM32 62.118C15.341 62.118 1.882 48.658 1.882 32C1.882 15.341 15.342 1.882 32 1.882C48.659 1.882 62.118 15.342 62.118 32C62.118 48.659 48.658 62.118 32 62.118V62.118Z" fill="#E7ECF7"/>
<path d="M32 0C14.306 0 0 14.306 0 32C0 49.694 14.306 64 32 64C49.694 64 64 49.694 64 32C64 14.306 49.694 0 32 0ZM32 62.118C15.341 62.118 1.882 48.658 1.882 32C1.882 15.341 15.342 1.882 32 1.882C48.659 1.882 62.118 15.342 62.118 32C62.118 48.659 48.658 62.118 32 62.118V62.118Z" fill="#F3F5FB"/>
</svg>
