<svg width="64" height="64" viewBox="0 0 64 64" fill="none" xmlns="http://www.w3.org/2000/svg">
<mask id="mask0" mask-type="alpha" maskUnits="userSpaceOnUse" x="0" y="0" width="64" height="64">
<path d="M32 0C14.306 0 0 14.306 0 32C0 49.694 14.306 64 32 64C49.694 64 64 49.694 64 32C64 14.306 49.694 0 32 0Z" fill="white"/>
</mask>
<g mask="url(#mask0)">
<circle cx="32" cy="32" r="32" fill="white"/>
<path d="M15.1566 23.4506H48.8434C49.1501 23.4506 49.4443 23.5696 49.6612 23.7815C49.8781 23.9934 50 24.2807 50 24.5804V30.0313C50 30.699 49.8654 31.36 49.6038 31.9768C49.3422 32.5936 48.9589 33.1541 48.4755 33.6262C47.9922 34.0982 47.4185 34.4727 46.787 34.7282C46.1555 34.9837 45.4787 35.1152 44.7952 35.1152H19.2048C18.5213 35.1152 17.8445 34.9837 17.213 34.7282C16.5815 34.4727 16.0078 34.0982 15.5245 33.6262C15.0411 33.1541 14.6578 32.5936 14.3962 31.9768C14.1346 31.36 14 30.699 14 30.0313V24.5804C14 24.2807 14.1219 23.9934 14.3388 23.7815C14.5557 23.5696 14.8499 23.4506 15.1566 23.4506V23.4506Z" fill="#CC9675"/>
<path d="M44.7952 35.1152H19.2048C18.5213 35.1152 17.8445 34.9837 17.213 34.7282C16.5815 34.4727 16.0078 34.0983 15.5245 33.6262C15.0411 33.1541 14.6578 32.5937 14.3962 31.9769C14.1346 31.3601 14 30.699 14 30.0314V45.8703C14 46.1699 14.1219 46.4573 14.3388 46.6691C14.5557 46.881 14.8499 47 15.1566 47H48.8434C49.1501 47 49.4443 46.881 49.6612 46.6691C49.8781 46.4573 50 46.1699 50 45.8703V30.0314C50 30.699 49.8654 31.3601 49.6038 31.9769C49.3422 32.5937 48.9589 33.1541 48.4755 33.6262C47.9922 34.0983 47.4185 34.4727 46.787 34.7282C46.1555 34.9837 45.4787 35.1152 44.7952 35.1152Z" fill="#DDB7A0"/>
<path d="M21.6445 35.1152H25.3313V38.4903C25.3313 38.715 25.2399 38.9305 25.0772 39.0894C24.9145 39.2483 24.6939 39.3376 24.4638 39.3376H22.512C22.2819 39.3376 22.0613 39.2483 21.8986 39.0894C21.7359 38.9305 21.6445 38.715 21.6445 38.4903V35.1152V35.1152Z" fill="white"/>
<path d="M41.488 39.3375H39.5362C39.3061 39.3375 39.0855 39.2483 38.9228 39.0894C38.7601 38.9305 38.6687 38.7149 38.6687 38.4902V35.1151H42.3555V38.4902C42.3555 38.7149 42.2641 38.9305 42.1014 39.0894C41.9387 39.2483 41.7181 39.3375 41.488 39.3375V39.3375Z" fill="white"/>
<path d="M23.6912 23.4506L24.3048 20.5175C24.4399 19.8804 24.7953 19.3081 25.3113 18.8967C25.8273 18.4853 26.4725 18.2598 27.1386 18.2581H36.8629C37.529 18.2598 38.1742 18.4853 38.6902 18.8967C39.2062 19.3081 39.5616 19.8804 39.6966 20.5175L40.3097 23.4506H42.6703L41.9625 20.0659C41.7191 18.9196 41.0795 17.8899 40.151 17.1496C39.2224 16.4092 38.0615 16.0034 36.8629 16H27.138C25.9392 16.0034 24.7782 16.4094 23.8496 17.15C22.9211 17.8905 22.2816 18.9205 22.0384 20.0671L21.3306 23.4506H23.6912Z" fill="#496A9A"/>
</g>
<path d="M32 0C14.306 0 0 14.306 0 32C0 49.694 14.306 64 32 64C49.694 64 64 49.694 64 32C64 14.306 49.694 0 32 0ZM32 62.118C15.341 62.118 1.882 48.658 1.882 32C1.882 15.341 15.342 1.882 32 1.882C48.659 1.882 62.118 15.342 62.118 32C62.118 48.659 48.658 62.118 32 62.118V62.118Z" fill="#E7ECF7"/>
<path d="M32 0C14.306 0 0 14.306 0 32C0 49.694 14.306 64 32 64C49.694 64 64 49.694 64 32C64 14.306 49.694 0 32 0ZM32 62.118C15.341 62.118 1.882 48.658 1.882 32C1.882 15.341 15.342 1.882 32 1.882C48.659 1.882 62.118 15.342 62.118 32C62.118 48.659 48.658 62.118 32 62.118V62.118Z" fill="#F3F5FB"/>
</svg>
