<svg width="64" height="64" viewBox="0 0 64 64" fill="none" xmlns="http://www.w3.org/2000/svg">
<mask id="mask0" mask-type="alpha" maskUnits="userSpaceOnUse" x="0" y="0" width="64" height="64">
<path d="M32 0C14.306 0 0 14.306 0 32C0 49.694 14.306 64 32 64C49.694 64 64 49.694 64 32C64 14.306 49.694 0 32 0Z" fill="white"/>
</mask>
<g mask="url(#mask0)">
<circle cx="32" cy="33" r="32" fill="white"/>
<path fill-rule="evenodd" clip-rule="evenodd" d="M44.4654 48.2895C42.9781 47.5954 39.8608 46.6172 39.5476 44.2787C39.4217 43.3134 39.3571 42.3409 39.3542 41.3673C39.3542 40.0956 39.3542 38.7913 39.4924 37.431C37.8117 40.6033 35.0305 42.6297 30.9922 42.5552C28.1603 42.4946 25.6691 40.1189 24.0529 36.9652C24.2577 38.5587 24.3822 40.1616 24.4259 41.7679C24.4259 41.8378 24.4259 42.3455 24.3937 42.8859C24.3154 45.215 21.769 46.892 19.5127 47.6839C25.2962 57.8716 38.2261 58.0719 44.4654 48.2895Z" fill="#FED9C0"/>
<path fill-rule="evenodd" clip-rule="evenodd" d="M40.0395 45.7078C32.7894 46.6659 25.2462 41.2674 23.9409 36.9883H23.9684L24.0096 37.0666H24.0417C24.0417 37.0666 24.0417 37.1081 24.0737 37.1311L24.1058 37.191H24.1333L24.1745 37.2601V37.2831L24.2066 37.3384H24.234C24.2519 37.3612 24.2673 37.3859 24.2798 37.4121H24.3165L24.3531 37.472L24.3898 37.5319H24.4218L24.4539 37.5825H24.4859L24.518 37.6332H24.7882L24.8248 37.6839H24.8661L24.8981 37.7345H24.9348L24.9806 37.799L25.0126 37.8451L25.0447 37.8865H25.2462L25.2737 37.928V37.951H25.3057L25.3515 38.0063V38.0293L25.3836 38.0708H25.434L25.4615 38.103L25.4935 38.1445L25.5256 38.1813L25.5576 38.2136H25.5943L25.6309 38.255V38.2827H25.6767L25.7088 38.3195V38.3472H25.75L25.7775 38.3794L25.805 38.407H26.1622L26.1897 38.4347H26.2217L26.2538 38.4669L26.2859 38.5038L26.3179 38.5314H26.3546L26.3912 38.5636H26.4141L26.4416 38.5913H26.4874L26.5194 38.6189H26.5469L26.579 38.6465H26.6019L26.6339 38.6742H26.6843L26.721 38.7064H26.7576H26.8171H26.84H26.9041H26.927L26.9591 38.7295H26.9912H27.0186H27.0461L27.0782 38.7525L27.1194 38.7847H27.1927L27.2385 38.8124H27.266H27.2934H27.3301H27.3621H27.4446H27.4721H27.5637H27.5911H27.6598H27.6873H27.724H27.7743H27.8064H27.8385H27.8659H27.898H27.9346H27.9667H27.9942H28.0217H28.0537H28.9102H28.956H28.9926H29.043H29.1208H29.1666H29.1941H29.2262H29.2811H29.3498H29.3911H29.4277H29.4643H29.4964H29.5285H29.5743H29.6292H29.6659H29.6933H29.7575H29.8216H29.8949H29.9498H30.0094H30.0781H30.2017H30.2842H30.3254H30.4536H30.7192C34.7359 38.8999 37.5022 36.8962 39.1739 33.7456C39.0594 35.0906 39.2196 35.7878 39.2288 37.0453C39.2316 38.008 39.2036 37.8863 39.2036 39.0638C39.2036 39.7367 39.2036 40.9142 39.2288 43.4374L39.3708 44.6148L40.0395 45.7078Z" fill="#EFC2A2"/>
<path fill-rule="evenodd" clip-rule="evenodd" d="M30.8199 42.5961C34.9393 42.6788 37.7684 40.6804 39.4856 37.5427C40.0952 36.4024 40.5586 35.1927 40.865 33.941C40.865 33.252 41.0809 32.1586 41.1794 30.6885C41.2294 29.6935 41.3867 28.7065 41.6486 27.7438V27.7438L41.5453 27.8678C41.2792 24.8375 40.7518 21.8346 39.9689 18.8912C39.0305 18.1378 37.8857 16.5942 28.0799 16.8745C26.9679 16.5391 23.8244 18.8683 23.7868 18.928C23.2193 19.9247 22.8425 21.0145 22.6749 22.1437C21.7365 27.4268 22.2057 25.943 21.8867 27.877C21.7575 27.7631 21.6367 27.6403 21.5254 27.5095C21.5254 27.6335 21.5488 27.7576 21.5629 27.8816C21.7764 28.7745 21.9037 29.685 21.943 30.6012C21.9899 31.4006 22.0743 32.0851 22.14 32.6547C22.4738 34.1942 23.015 35.6834 23.7493 37.0833C25.4008 40.198 27.9391 42.5455 30.8199 42.5961V42.5961Z" fill="#FED9C0"/>
<path fill-rule="evenodd" clip-rule="evenodd" d="M21.4553 27.227L21.5623 27.3416C21.6727 27.4721 21.7924 27.5947 21.9205 27.7084C22.2322 25.7781 21.753 27.2499 22.7021 21.9863C22.8683 20.8592 23.2419 19.7715 23.8047 18.7768C24.4513 17.768 39.5942 20.5833 39.6221 20.6108C40.0362 21.8212 40.841 25.2737 41.4039 27.6855L41.5063 27.5617C41.8273 26.5163 42.2972 25.8606 42.9345 25.9019C42.9962 25.9075 43.057 25.9198 43.1159 25.9386C43.2864 23.6803 43.3035 21.4133 43.1671 19.1527C43.2416 12.3577 35.5282 9.68922 29.9967 10.0285C20.283 10.6291 18.4779 17.1766 19.9806 25.9248C20.8645 25.9248 21.246 26.553 21.4739 27.227H21.4553Z" fill="#545A71"/>
<path fill-rule="evenodd" clip-rule="evenodd" d="M22.64 32.5714C22.5752 32.0217 22.4806 31.3612 22.4358 30.5898C22.3916 29.7059 22.2565 28.8274 22.0323 27.9654C21.9825 27.8014 21.9327 27.6462 21.8779 27.4955C21.5492 26.6089 21.076 26.0725 20.4484 26.0991C20.2896 26.109 20.1366 26.1565 20.0051 26.2365C19.1186 26.7596 18.7799 28.7146 19.5071 30.5588C20.3289 32.6823 20.827 34.6062 22.0273 34.5486C22.8442 34.5043 22.7994 33.826 22.64 32.5714Z" fill="#FED9C0"/>
<path fill-rule="evenodd" clip-rule="evenodd" d="M43.0826 26.1373C43.0274 26.1182 42.9703 26.1057 42.9125 26.1C42.3149 26.058 41.8743 26.7252 41.5733 27.7889C41.3298 28.7666 41.1836 29.769 41.1371 30.7796C41.0455 32.2725 40.8317 33.3829 40.8448 34.0828C40.8448 34.624 41.0106 34.9179 41.4686 34.9506C42.5243 35.0206 42.978 33.005 43.7195 30.7516C44.4 28.6987 44.0118 26.4453 43.0826 26.1373Z" fill="#FED9C0"/>
<path d="M60.2 54.3383C59.1387 53.27 57.8258 52.4438 56.3355 51.963L44.484 48.1392L32.3943 53.2895L18.5857 48.1392L6.73418 51.963C2.72484 53.2567 0 57.0484 0 61.3341V64.6337C7.59493 72.8123 18.2206 78.038 30.0451 78.4444C43.2934 75.4457 54.3157 66.4212 60.2 54.3383Z" fill="#496A9A"/>
<path d="M31.6898 77.984C34.272 72.7042 45.9421 57.8574 44.0247 48.4928L31.6898 55L21.6181 49.0185C19.6416 58.672 27.5956 73.6348 29.9814 78.4444C30.5553 78.3026 31.1249 78.149 31.6898 77.984Z" fill="#E4F6FF"/>
<path d="M37.5464 70.6268L34.0736 58H30.0106L26.5464 70.5923L30.8301 75C31.9176 74.7698 32.99 74.5029 34.0458 74.201L37.5464 70.6268Z" fill="#E28086"/>
<path d="M23.8237 45L18.0132 49.4313L24.9613 55.4928C25.7025 56.1702 26.8692 56.2118 27.6632 55.5893L32.2456 51.9966L23.8237 45Z" fill="#FEFFFF"/>
<path d="M39.6837 45L32.2368 51.9747L36.5 55.5C37.227 56.1397 38.3072 56.1075 38.997 55.4256L45.0401 49.4768L39.6837 45Z" fill="#FEFFFF"/>
<path d="M23.3935 45L14.9686 49.1308C14.3272 49.4452 14.0696 50.224 14.3971 50.8578L16.0477 54.0516C16.4755 54.8792 16.3176 55.8877 15.6574 56.5455C15.3175 56.884 14.9494 57.2507 14.6304 57.5685C14.0595 58.1373 13.8544 58.9777 14.1058 59.7428C16.0987 65.8056 25.6898 75.0765 29.3196 78.4308C29.5636 78.4373 29.8082 78.4417 30.0533 78.4444C27.4211 73.3348 18.0936 53.9224 23.3935 45V45Z" fill="#36527D"/>
<path d="M47.3957 56.5468C46.7352 55.8888 46.5775 54.8802 47.0053 54.0525L48.6562 50.8583C48.9837 50.2244 48.7261 49.4456 48.0846 49.1311L39.6585 45C44.9578 53.9211 35.6355 73.3277 33 78.4444C33.2477 78.4402 33.4949 78.434 33.7416 78.4258C37.3793 75.0635 46.9562 65.8027 48.9475 59.7447C49.199 58.9796 48.9938 58.1391 48.4228 57.5703C48.1038 57.2522 47.7356 56.8853 47.3957 56.5468V56.5468Z" fill="#36527D"/>
<path d="M32.2583 52L27.5977 55.3878L29.9723 58H34.2228L36.5977 55.2337L32.2583 52Z" fill="#DD636E"/>
</g>
<path d="M32 0C14.306 0 0 14.306 0 32C0 49.694 14.306 64 32 64C49.694 64 64 49.694 64 32C64 14.306 49.694 0 32 0ZM32 62.118C15.341 62.118 1.882 48.658 1.882 32C1.882 15.341 15.342 1.882 32 1.882C48.659 1.882 62.118 15.342 62.118 32C62.118 48.659 48.658 62.118 32 62.118V62.118Z" fill="#E7ECF7"/>
<path d="M32 0C14.306 0 0 14.306 0 32C0 49.694 14.306 64 32 64C49.694 64 64 49.694 64 32C64 14.306 49.694 0 32 0ZM32 62.118C15.341 62.118 1.882 48.658 1.882 32C1.882 15.341 15.342 1.882 32 1.882C48.659 1.882 62.118 15.342 62.118 32C62.118 48.659 48.658 62.118 32 62.118V62.118Z" fill="#F3F5FB"/>
</svg>
