<svg width="80" height="80" viewBox="0 0 80 80" fill="none" xmlns="http://www.w3.org/2000/svg">
<path d="M45.95 39.45L51.55 33.85C53.35 32.05 53.35 29.15 51.55 27.35C49.75 25.55 46.85 25.55 45.05 27.35L39.45 32.95L33.85 27.35C32.05 25.55 29.15 25.55 27.35 27.35C25.55 29.15 25.55 32.05 27.35 33.85L32.95 39.45L27.35 45.05C25.55 46.85 25.55 49.75 27.35 51.55C29.15 53.35 32.05 53.35 33.85 51.55L39.45 45.95L45.05 51.55C46.85 53.35 49.75 53.35 51.55 51.55C53.35 49.75 53.35 46.85 51.55 45.05L45.95 39.45Z" fill="#EA405A"/>
<path d="M40 0C17.9 0 0 17.8765 0 40C0 62.1235 17.9 80 40 80C62.1 80 80 62.1235 80 40C80 17.8765 62.1 0 40 0ZM40 72.0988C22.4 72.0988 8 57.679 8 40C8 22.321 22.4 7.90123 40 7.90123C57.6 7.90123 72 22.321 72 40C72 57.679 57.6 72.0988 40 72.0988Z" fill="#E6EBEC"/>
</svg>
