<svg width="88" height="88" viewBox="0 0 88 88" fill="none" xmlns="http://www.w3.org/2000/svg">
<g filter="url(#filter0_d)">
<rect x="12" y="6" width="64" height="64" rx="16" fill="#344061"/>
</g>
<path d="M60.6623 39.8184C60.5591 39.8016 60.4535 39.8068 60.3525 39.8337C60.2514 39.8606 60.1572 39.9085 60.0759 39.9743C59.8856 40.1186 59.6668 40.2211 59.4339 40.2748C59.2011 40.3285 58.9596 40.3323 58.7252 40.286L56.6173 39.8852C56.2245 39.8087 55.871 39.5966 55.6187 39.2859C55.3664 38.9752 55.2312 38.5858 55.2369 38.1856C55.2369 37.9778 55.2369 37.77 55.2369 37.5622C55.2239 37.156 55.3555 36.7585 55.6083 36.4404C55.8612 36.1223 56.2188 35.9044 56.6173 35.8254H56.7064C57.1352 35.737 57.5816 35.8167 57.9533 36.0481C58.0698 36.1229 58.2109 36.1495 58.3466 36.1223C58.7252 36.0481 58.933 35.536 58.8216 34.9793C58.7103 34.4227 58.3095 34.0294 57.931 34.111C57.7974 34.14 57.6803 34.2199 57.6045 34.3336C57.3517 34.6887 56.9762 34.9374 56.5506 35.0313H56.4541C56.0589 35.1107 55.6484 35.0477 55.2952 34.8534C54.942 34.6592 54.669 34.3462 54.5244 33.97C54.4502 33.777 54.3685 33.584 54.2869 33.3985C54.1215 33.0335 54.0904 32.6219 54.199 32.2362C54.3077 31.8506 54.5491 31.5157 54.8806 31.2907L56.6173 30.0883C56.8172 29.9526 57.0433 29.86 57.281 29.8165C57.5187 29.7731 57.7628 29.7797 57.9978 29.836C58.0986 29.8644 58.2043 29.8712 58.3079 29.8558C58.4116 29.8405 58.5107 29.8034 58.599 29.7469C59.022 29.4575 59.022 28.7227 58.599 28.0993C58.1759 27.4758 57.4931 27.2012 57.0701 27.4833C56.985 27.5446 56.9139 27.6233 56.8614 27.7141C56.809 27.8049 56.7764 27.9059 56.7658 28.0102C56.7303 28.2475 56.646 28.4749 56.5183 28.678C56.3906 28.8811 56.2221 29.0555 56.0236 29.1903L54.2423 30.3926C53.9121 30.6187 53.5124 30.7203 53.1143 30.6796C52.7161 30.6388 52.3454 30.4582 52.0677 30.17C51.9193 30.0215 51.7783 29.8731 51.6224 29.7321C51.328 29.4581 51.1397 29.089 51.0908 28.6898C51.042 28.2906 51.1356 27.887 51.3552 27.5501L51.4072 27.4684C51.6478 27.0991 52.0189 26.8341 52.4463 26.7262C52.5811 26.6955 52.7 26.6162 52.7802 26.5036C52.9881 26.1844 52.7802 25.6649 52.3052 25.3532C51.8302 25.0415 51.2736 25.0489 51.0658 25.3532C51.0262 25.4112 50.9992 25.4767 50.9864 25.5457C50.9736 25.6148 50.9754 25.6857 50.9916 25.754C51.0644 26.1827 50.9715 26.6231 50.7318 26.986L50.6873 27.0676C50.462 27.4031 50.1259 27.6486 49.7378 27.7612C49.3498 27.8738 48.9345 27.8463 48.5646 27.6837C48.3791 27.5946 48.1861 27.5204 47.9931 27.4462C47.6377 27.2961 47.3433 27.0307 47.1574 26.6926C46.9716 26.3546 46.9052 25.9637 46.9689 25.5833L47.3771 23.4754C47.4232 23.2413 47.5176 23.0194 47.6544 22.8239C47.7911 22.6283 47.9672 22.4635 48.1713 22.3399C48.2631 22.2887 48.3431 22.2185 48.4058 22.1341C48.4685 22.0496 48.5125 21.9528 48.5349 21.8501C48.6314 21.3454 48.1119 20.8258 47.3697 20.6848C46.6275 20.5438 45.9521 20.8333 45.8853 21.3379C45.8685 21.4411 45.8738 21.5467 45.9006 21.6478C45.9275 21.7488 45.9754 21.843 46.0412 21.9243C46.1856 22.1147 46.288 22.3335 46.3417 22.5663C46.3954 22.7991 46.3993 23.0407 46.3529 23.2751L45.8853 25.3829C45.8088 25.7757 45.5967 26.1292 45.286 26.3815C44.9754 26.6338 44.5859 26.769 44.1857 26.7633H43.5623C43.1562 26.7764 42.7586 26.6447 42.4405 26.3919C42.1225 26.139 41.9045 25.7815 41.8256 25.3829V25.2938C41.7371 24.865 41.8168 24.4186 42.0482 24.0469C42.123 23.9304 42.1496 23.7894 42.1224 23.6536C42.0482 23.2751 41.5361 23.0672 40.9795 23.1786C40.4228 23.2899 40.0295 23.6907 40.1111 24.0692C40.1401 24.2028 40.22 24.3199 40.3338 24.3958C40.695 24.6557 40.9443 25.0429 41.0314 25.4794V25.5758C41.1108 25.971 41.0478 26.3815 40.8536 26.7347C40.6593 27.0879 40.3464 27.361 39.9701 27.5055L39.3986 27.743C39.0337 27.9084 38.622 27.9395 38.2363 27.8309C37.8507 27.7222 37.5158 27.4808 37.2908 27.1493L36.0885 25.3829C35.9527 25.183 35.8601 24.957 35.8166 24.7193C35.7732 24.4816 35.7798 24.2374 35.8361 24.0024C35.8645 23.9016 35.8713 23.7959 35.8559 23.6923C35.8406 23.5887 35.8035 23.4895 35.7471 23.4012C35.4576 22.9782 34.7228 22.9782 34.0994 23.4012C33.476 23.8243 33.2013 24.5071 33.4834 24.9301C33.5447 25.0152 33.6234 25.0863 33.7142 25.1388C33.8051 25.1912 33.906 25.2238 34.0103 25.2344C34.2476 25.2699 34.475 25.3542 34.6781 25.4819C34.8812 25.6097 35.0556 25.7781 35.1904 25.9766L36.3928 27.7579C36.6188 28.0881 36.7204 28.4878 36.6797 28.886C36.6389 29.2841 36.4584 29.6549 36.1701 29.9325C36.0217 30.0809 35.8732 30.2219 35.7322 30.3778C35.4583 30.6722 35.0891 30.8605 34.6899 30.9094C34.2907 30.9583 33.8871 30.8646 33.5502 30.645L33.4834 30.5782C33.1141 30.3376 32.849 29.9665 32.7412 29.5391C32.7104 29.4043 32.6312 29.2854 32.5185 29.2051C32.1994 28.9973 31.6799 29.2051 31.3681 29.6801C31.0564 30.1551 31.0639 30.7118 31.3681 30.9196C31.4261 30.9591 31.4917 30.9862 31.5607 30.999C31.6297 31.0117 31.7006 31.01 31.7689 30.9938C32.1977 30.921 32.6381 31.0139 33.001 31.2536L33.0826 31.2981C33.418 31.5234 33.6635 31.8595 33.7761 32.2475C33.8887 32.6356 33.8613 33.0509 33.6986 33.4208C33.6096 33.6063 33.5353 33.7993 33.4611 33.9922C33.3171 34.366 33.0467 34.6776 32.6969 34.8728C32.3471 35.068 31.94 35.1346 31.5463 35.061L29.4385 34.6528C29.2043 34.6067 28.9824 34.5123 28.7869 34.3756C28.5913 34.2388 28.4265 34.0627 28.3029 33.8586C28.2517 33.7668 28.1815 33.6868 28.0971 33.6242C28.0126 33.5615 27.9158 33.5174 27.8131 33.495C27.3084 33.3985 26.7889 33.918 26.6478 34.6602C26.5068 35.4024 26.7963 36.0778 27.301 36.1446C27.4042 36.1614 27.5097 36.1562 27.6108 36.1293C27.7118 36.1024 27.8061 36.0545 27.8873 35.9887C28.0777 35.8443 28.2965 35.7419 28.5293 35.6882C28.7621 35.6345 29.0037 35.6307 29.2381 35.677L31.3459 36.0778C31.7387 36.1543 32.0922 36.3664 32.3445 36.6771C32.5968 36.9878 32.732 37.3772 32.7263 37.7774C32.7263 37.9852 32.7263 38.193 32.7263 38.4008C32.75 38.808 32.6277 39.2102 32.3815 39.5353C32.1353 39.8604 31.7813 40.0871 31.383 40.1747H31.2939C30.8651 40.2631 30.4187 40.1834 30.0471 39.952C29.9305 39.8772 29.7895 39.8506 29.6537 39.8778C29.2752 39.952 29.0674 40.4641 29.1787 41.0208C29.29 41.5774 29.6908 41.9708 30.0693 41.8891C30.2029 41.8601 30.32 41.7802 30.3959 41.6665C30.6558 41.3052 31.043 41.0559 31.4795 40.9688H31.576C31.9711 40.8894 32.3817 40.9524 32.7348 41.1467C33.088 41.3409 33.3611 41.6539 33.5056 42.0301C33.5799 42.2231 33.6615 42.4161 33.7431 42.6016C33.9085 42.9666 33.9396 43.3782 33.831 43.7639C33.7223 44.1495 33.4809 44.4844 33.1494 44.7094L31.383 45.9118C31.1839 46.043 30.9598 46.1318 30.7249 46.1727C30.49 46.2135 30.2491 46.2056 30.0174 46.1493C29.9166 46.1208 29.8109 46.1141 29.7072 46.1294C29.6036 46.1448 29.5044 46.1819 29.4162 46.2383C28.9931 46.5278 28.9931 47.2625 29.4162 47.886C29.8392 48.5094 30.5221 48.784 30.9451 48.502C31.0302 48.4407 31.1013 48.362 31.1537 48.2711C31.2062 48.1803 31.2388 48.0794 31.2494 47.975C31.2849 47.7377 31.3691 47.5104 31.4969 47.3073C31.6246 47.1042 31.7931 46.9297 31.9916 46.795L33.7728 45.5926C34.1031 45.3666 34.5028 45.2649 34.9009 45.3057C35.299 45.3465 35.6698 45.527 35.9474 45.8153C36.0959 45.9637 36.2369 46.1122 36.3928 46.2532C36.6872 46.5271 36.8755 46.8963 36.9243 47.2955C36.9732 47.6947 36.8796 48.0983 36.6599 48.4352L36.608 48.5168C36.3674 48.8862 35.9963 49.1512 35.5689 49.259C35.4341 49.2898 35.3152 49.369 35.2349 49.4817C35.0271 49.8008 35.2349 50.3204 35.7099 50.6321C36.1849 50.9438 36.7416 50.9364 36.9494 50.6321C36.989 50.5741 37.016 50.5085 37.0288 50.4395C37.0415 50.3705 37.0398 50.2996 37.0236 50.2313C36.9508 49.8025 37.0437 49.3621 37.2834 48.9993L37.3279 48.9176C37.5532 48.5822 37.8893 48.3367 38.2774 48.2241C38.6654 48.1115 39.0807 48.1389 39.4506 48.3016C39.6361 48.3907 39.8291 48.4649 40.022 48.5391C40.3958 48.6832 40.7074 48.9535 40.9026 49.3033C41.0978 49.6531 41.1644 50.0602 41.0908 50.454L40.6826 52.5618C40.6365 52.7959 40.5421 53.0178 40.4054 53.2133C40.2686 53.4089 40.0926 53.5737 39.8885 53.6973C39.7966 53.7485 39.7167 53.8187 39.654 53.9031C39.5913 53.9876 39.5472 54.0844 39.5248 54.1872C39.4283 54.6918 39.9478 55.2114 40.69 55.3524C41.4322 55.4934 42.1076 55.2039 42.1744 54.6993C42.1912 54.5961 42.186 54.4905 42.1591 54.3894C42.1322 54.2884 42.0843 54.1942 42.0185 54.1129C41.8742 53.9226 41.7717 53.7037 41.718 53.4709C41.6643 53.2381 41.6605 52.9966 41.7068 52.7622L42.115 50.6172C42.1915 50.2244 42.4037 49.8709 42.7143 49.6186C43.025 49.3663 43.4144 49.2311 43.8146 49.2368H44.4381C44.8442 49.2237 45.2417 49.3554 45.5598 49.6082C45.8779 49.8611 46.0958 50.2186 46.1748 50.6172V50.7063C46.2632 51.1351 46.1835 51.5815 45.9521 51.9532C45.8774 52.0697 45.8507 52.2107 45.8779 52.3465C45.9521 52.725 46.4642 52.9329 47.0209 52.8215C47.5775 52.7102 47.9709 52.3094 47.8892 51.9309C47.8602 51.7973 47.7804 51.6802 47.6666 51.6043C47.3053 51.3444 47.056 50.9572 46.9689 50.5207V50.4243C46.8895 50.0291 46.9525 49.6186 47.1468 49.2654C47.341 48.9122 47.654 48.6391 48.0302 48.4946L48.6017 48.2571C48.9667 48.0917 49.3783 48.0606 49.764 48.1692C50.1497 48.2779 50.4846 48.5193 50.7095 48.8508L51.9119 50.6172C52.0477 50.8171 52.1402 51.0431 52.1837 51.2808C52.2271 51.5185 52.2205 51.7627 52.1642 51.9977C52.1358 52.0985 52.1291 52.2042 52.1444 52.3078C52.1598 52.4114 52.1969 52.5106 52.2533 52.5989C52.5427 53.0219 53.2775 53.0219 53.9009 52.5989C54.5244 52.1758 54.799 51.493 54.517 51.07C54.4556 50.9849 54.3769 50.9138 54.2861 50.8613C54.1953 50.8089 54.0944 50.7763 53.99 50.7657C53.7527 50.7302 53.5253 50.6459 53.3222 50.5182C53.1191 50.3904 52.9447 50.222 52.8099 50.0235L51.6076 48.2422C51.3816 47.912 51.2799 47.5123 51.3207 47.1142C51.3614 46.716 51.542 46.3452 51.8302 46.0676C51.9787 45.9192 52.1271 45.7782 52.2681 45.6223C52.5421 45.3279 52.9112 45.1396 53.3104 45.0907C53.7096 45.0418 54.1133 45.1355 54.4502 45.3551L54.5318 45.4071C54.9011 45.6477 55.1662 46.0187 55.274 46.4461C55.3047 46.581 55.384 46.6999 55.4966 46.7801C55.8158 46.9879 56.3353 46.7801 56.647 46.3051C56.9588 45.8301 56.9513 45.2735 56.647 45.0657C56.5891 45.0261 56.5235 44.9991 56.4545 44.9863C56.3855 44.9735 56.3145 44.9753 56.2463 44.9915C55.8175 45.0643 55.3771 44.9714 55.0142 44.7317L54.8806 44.6797C54.5452 44.4544 54.2997 44.1183 54.1871 43.7303C54.0745 43.3422 54.1019 42.9269 54.2646 42.5571C54.3537 42.3715 54.4279 42.1786 54.5021 41.9856C54.6553 41.6214 54.9295 41.3214 55.2784 41.1361C55.6273 40.9508 56.0295 40.8917 56.417 40.9688L58.5248 41.377C58.7589 41.4231 58.9808 41.5175 59.1763 41.6542C59.3719 41.791 59.5367 41.967 59.6603 42.1711C59.7115 42.263 59.7817 42.3429 59.8661 42.4056C59.9506 42.4683 60.0474 42.5124 60.1502 42.5348C60.6548 42.6313 61.1744 42.1118 61.3154 41.3696C61.4564 40.6274 61.167 39.9149 60.6623 39.8184Z" fill="#E8EFF4"/>
<path d="M44 17.2187C48.1101 17.2187 52.128 18.4375 55.5454 20.721C58.9629 23.0045 61.6265 26.2501 63.1994 30.0474C64.7723 33.8446 65.1838 38.023 64.3819 42.0542C63.5801 46.0854 61.6009 49.7882 58.6946 52.6946C55.7883 55.6009 52.0854 57.5801 48.0542 58.3819C44.0231 59.1838 39.8446 58.7722 36.0474 57.1994C32.2501 55.6265 29.0045 52.9629 26.721 49.5454C24.4376 46.128 23.2188 42.1101 23.2188 38C23.2188 32.4885 25.4082 27.2027 29.3054 23.3054C33.2027 19.4082 38.4885 17.2187 44 17.2187ZM44 14.25C39.3027 14.25 34.7109 15.6429 30.8052 18.2526C26.8995 20.8623 23.8555 24.5715 22.0579 28.9113C20.2603 33.251 19.79 38.0263 20.7064 42.6334C21.6228 47.2404 23.8847 51.4723 27.2062 54.7938C30.5277 58.1153 34.7596 60.3772 39.3666 61.2936C43.9737 62.21 48.749 61.7397 53.0887 59.9421C57.4285 58.1445 61.1377 55.1005 63.7474 51.1948C66.3571 47.2891 67.75 42.6973 67.75 38C67.75 31.7011 65.2478 25.6602 60.7938 21.2062C56.3398 16.7522 50.2989 14.25 44 14.25Z" fill="#FF3B30"/>
<path d="M58.8437 54.3281C58.4517 54.3284 58.0755 54.1737 57.7972 53.8976L27.8499 23.9504C27.5714 23.6718 27.4149 23.2941 27.4149 22.9002C27.4149 22.5063 27.5714 22.1285 27.8499 21.85C28.1284 21.5714 28.5062 21.415 28.9001 21.415C29.294 21.415 29.6718 21.5714 29.9503 21.85L59.905 51.8047C60.1097 52.0135 60.2481 52.2781 60.303 52.5654C60.3578 52.8526 60.3266 53.1496 60.2132 53.4192C60.0998 53.6888 59.9094 53.9188 59.6657 54.0805C59.4221 54.2422 59.1361 54.3283 58.8437 54.3281Z" fill="#FF3B30"/>
<defs>
<filter id="filter0_d" x="0" y="0" width="88" height="88" filterUnits="userSpaceOnUse" color-interpolation-filters="sRGB">
<feFlood flood-opacity="0" result="BackgroundImageFix"/>
<feColorMatrix in="SourceAlpha" type="matrix" values="0 0 0 0 0 0 0 0 0 0 0 0 0 0 0 0 0 0 127 0"/>
<feOffset dy="6"/>
<feGaussianBlur stdDeviation="6"/>
<feColorMatrix type="matrix" values="0 0 0 0 0.341176 0 0 0 0 0.443137 0 0 0 0 0.560784 0 0 0 0.12 0"/>
<feBlend mode="normal" in2="BackgroundImageFix" result="effect1_dropShadow"/>
<feBlend mode="normal" in="SourceGraphic" in2="effect1_dropShadow" result="shape"/>
</filter>
</defs>
</svg>
