<svg width="24" height="24" viewBox="0 0 24 24" fill="none" xmlns="http://www.w3.org/2000/svg">
<path d="M12 20.0953C7.53631 20.0953 3.90479 16.4637 3.90479 12C3.90479 7.53631 7.53631 3.90479 12 3.90479C16.4637 3.90479 20.0953 7.53631 20.0953 12C20.0953 16.4637 16.4637 20.0953 12 20.0953ZM12 5.11907C8.20579 5.11907 5.11907 8.20579 5.11907 12C5.11907 15.7943 8.20579 18.881 12 18.881C15.7943 18.881 18.881 15.7943 18.881 12C18.881 8.20579 15.7943 5.11907 12 5.11907Z" fill="#0D4CD3"/>
<path d="M12.0001 5.80952C11.7373 5.80952 11.5239 5.55352 11.5239 5.2381V2.57143C11.5239 2.256 11.7373 2 12.0001 2C12.263 2 12.4763 2.256 12.4763 2.57143V5.2381C12.4763 5.55352 12.263 5.80952 12.0001 5.80952Z" fill="#0D4CD3"/>
<path d="M21.4285 12.4763H18.7619C18.4464 12.4763 18.1904 12.263 18.1904 12.0001C18.1904 11.7373 18.4464 11.5239 18.7619 11.5239H21.4285C21.744 11.5239 22 11.7373 22 12.0001C22 12.263 21.744 12.4763 21.4285 12.4763Z" fill="#0D4CD3"/>
<path d="M12.0001 22C11.7373 22 11.5239 21.744 11.5239 21.4285V18.7619C11.5239 18.4464 11.7373 18.1904 12.0001 18.1904C12.263 18.1904 12.4763 18.4464 12.4763 18.7619V21.4285C12.4763 21.744 12.263 22 12.0001 22Z" fill="#0D4CD3"/>
<path d="M5.2381 12.4763H2.57143C2.256 12.4763 2 12.263 2 12.0001C2 11.7373 2.256 11.5239 2.57143 11.5239H5.2381C5.55352 11.5239 5.80952 11.7373 5.80952 12.0001C5.80952 12.263 5.55352 12.4763 5.2381 12.4763Z" fill="#0D4CD3"/>
<path d="M12.0001 14.381C10.6874 14.381 9.61914 13.3128 9.61914 12.0001C9.61914 10.6874 10.6874 9.61914 12.0001 9.61914C13.3128 9.61914 14.381 10.6874 14.381 12.0001C14.381 13.3128 13.3128 14.381 12.0001 14.381ZM12.0001 10.8096C11.3437 10.8096 10.8096 11.3437 10.8096 12.0001C10.8096 12.6564 11.3437 13.1906 12.0001 13.1906C12.6564 13.1906 13.1906 12.6564 13.1906 12.0001C13.1906 11.3437 12.6564 10.8096 12.0001 10.8096Z" fill="#0D4CD3"/>
</svg>
