<svg viewBox="0 0 24 24" fill="none" xmlns="http://www.w3.org/2000/svg">
<path fill-rule="evenodd" clip-rule="evenodd" d="M1.65339 10.5228L6.61847 5.64197C6.81302 5.45072 7.12495 5.45072 7.3195 5.64197L8.31713 6.62268L2.68739 12.2524L1.65339 11.236C1.45408 11.04 1.45408 10.7188 1.65339 10.5228ZM3.75712 13.304L9.04215 18.4994C10.2918 19.7278 12.2573 19.8428 13.6416 18.7685L16.2152 16.7711C16.9326 16.2144 16.9947 15.153 16.3471 14.5165L15.2934 13.4806C15.024 13.2468 14.6439 13.1705 14.2979 13.2957L10.887 14.5295C10.1785 14.7857 9.38585 14.6127 8.84857 14.0846C8.06814 13.3174 8.06814 12.0594 8.84856 11.2922L10.9579 9.21867L9.38687 7.67427L3.75712 13.304ZM12.0278 8.16696L8.37105 4.57228C7.59286 3.80729 6.34511 3.80729 5.56692 4.57228L0.60184 9.45314C-0.195405 10.2369 -0.195405 11.5219 0.60184 12.3057L7.9906 19.5691C9.77579 21.324 12.5837 21.4883 14.5613 19.9535L17.1349 17.9561C17.2947 17.8321 17.4383 17.6956 17.5654 17.549L17.5528 17.6233L23.3519 12.3037C24.1957 11.5296 24.2186 10.2064 23.402 9.40365L18.4879 4.57295C17.7097 3.80796 16.462 3.80796 15.6838 4.57295L12.0278 8.16696ZM18.2314 14.9653L20.1473 13.2078L14.641 7.7015L9.90011 12.3619C9.71762 12.5413 9.71762 12.8355 9.90011 13.0149C10.0258 13.1384 10.2111 13.1788 10.3768 13.1189L13.7876 11.8851C14.7061 11.5529 15.7208 11.7885 16.3981 12.4604L16.3967 12.4618L17.3987 13.4468C17.8386 13.8792 18.1147 14.4097 18.2314 14.9653ZM21.2537 12.1929L15.7107 6.64991L16.7353 5.64264C16.9299 5.45139 17.2418 5.4514 17.4364 5.64264L22.3504 10.4733C22.5546 10.674 22.5489 11.0048 22.3379 11.1984L21.2537 12.1929Z" fill="#66727F"/>
</svg>
