<svg viewBox="0 0 25 24" fill="none" xmlns="http://www.w3.org/2000/svg">
  <path
    d="M12.4939 12.9879C16.0804 12.9879 18.9878 10.0804 18.9878 6.49393C18.9878 2.90738 16.0804 0 12.4939 0C8.90741 0 6 2.90743 6 6.49393C6.0044 10.0786 8.90927 12.9835 12.4939 12.9879ZM12.4939 2.9972C14.4251 2.9972 15.9906 4.56273 15.9906 6.49393C15.9906 8.42521 14.4251 9.99073 12.4939 9.99073C10.5627 9.99073 8.99717 8.42521 8.99717 6.49393C8.99717 4.56273 10.5627 2.9972 12.4939 2.9972Z"
    fill="#0D4CD3"/>
  <path
    d="M18.8542 16.0649C19.5599 15.6001 19.9852 14.8119 19.9861 13.9669C19.996 13.2655 19.6002 12.6215 18.9701 12.3134C18.3227 11.99 17.5477 12.0628 16.9719 12.5012C14.3034 14.4467 10.6839 14.4467 8.0153 12.5012C7.43864 12.0651 6.66506 11.9924 6.01717 12.3134C5.38734 12.6214 4.99138 13.2647 5.00014 13.9658C5.00164 14.8108 5.42672 15.5986 6.1321 16.0639C7.03706 16.6657 8.02256 17.1366 9.05936 17.4626C9.23522 17.5172 9.41672 17.5678 9.60386 17.6144L6.58472 20.5667C5.79271 21.3352 5.77356 22.6001 6.542 23.3921C7.31048 24.1841 8.5754 24.2033 9.36746 23.4349C9.38396 23.4188 9.40016 23.4026 9.41612 23.386L12.4932 20.201L15.5764 23.392C16.3441 24.1846 17.6092 24.2048 18.4018 23.437C19.1944 22.6692 19.2145 21.4042 18.4467 20.6116C18.4307 20.5949 18.4143 20.5787 18.3977 20.5627L15.3835 17.6134C15.5707 17.5655 15.7528 17.5145 15.93 17.4605C16.9657 17.1358 17.9502 16.6659 18.8542 16.0649Z"
    fill="#0D4CD3"/>
</svg>
