<svg width="32" height="32" viewBox="0 0 32 32" fill="none" xmlns="http://www.w3.org/2000/svg">
<path d="M29.7378 23.0032C28.7933 22.0589 27.2128 21.2347 24.7212 19.9884C23.4652 19.3604 21.3747 18.3156 20.868 17.8371C22.9902 15.2286 24.222 12.2823 24.222 9.70333C24.222 7.95331 24.222 5.77555 23.2425 3.83328C22.3595 2.08402 20.3862 0 16.0007 0C11.6141 0 9.64088 2.08402 8.75887 3.83303C7.77811 5.77555 7.77811 7.95306 7.77811 9.70308C7.77811 12.2831 9.00887 15.2286 11.1324 17.8369C10.6244 18.3164 8.53412 19.3614 7.27811 19.9882C4.78734 21.2342 3.20683 22.0584 2.26157 23.0029C0.169304 25.0967 0.0110533 28.6095 0.000303183 29.293C-0.0104469 30.006 0.265055 30.6952 0.767059 31.205C1.26706 31.7127 1.95282 32 2.66582 32H29.3333C30.0483 32 30.7323 31.713 31.2333 31.205C31.7343 30.6952 32.0108 30.0057 32 29.292C31.9893 28.6097 31.8298 25.0969 29.7378 23.0032ZM29.809 29.801C29.682 29.929 29.513 30.0002 29.3333 30.0002H2.66582C2.48907 30.0002 2.31632 29.928 2.19207 29.801C2.06807 29.675 1.99782 29.5012 1.99957 29.3235C2.00532 28.9885 2.09732 25.9972 3.67583 24.4182C4.40459 23.6897 5.9301 22.8997 8.17287 21.7774C10.5669 20.5812 11.8944 19.8682 12.5059 19.2902L13.8557 18.0139L12.6837 16.5744C10.8376 14.3069 9.77788 11.8018 9.77788 9.70333C9.77788 8.08506 9.77788 6.25205 10.5436 4.73454C11.4606 2.92002 13.2949 2.00002 16.0007 2.00002C18.7042 2.00002 20.5405 2.92002 21.4567 4.73354C22.2225 6.25205 22.2225 8.08506 22.2225 9.70333C22.2225 11.8011 21.1637 14.3059 19.3155 16.5744L18.1434 18.0149L19.4935 19.2904C20.1047 19.8677 21.4312 20.5804 23.8262 21.7777C26.069 22.8987 27.5945 23.6889 28.3233 24.4184C29.6078 25.7027 29.9818 28.106 29.9993 29.3237C30.0025 29.5012 29.933 29.675 29.809 29.801Z" fill="#515A63"/>
</svg>
