<svg width="64" height="64" viewBox="0 0 64 64" fill="none" xmlns="http://www.w3.org/2000/svg">
<path d="M32 59C46.9117 59 59 46.9117 59 32C59 17.0883 46.9117 5 32 5C17.0883 5 5 17.0883 5 32C5 46.9117 17.0883 59 32 59ZM32 64C14.3269 64 0 49.6731 0 32C0 14.3269 14.3269 0 32 0C49.6731 0 64 14.3269 64 32C64 49.6731 49.6731 64 32 64Z" fill="#D1D5DF"/>
<path fill-rule="evenodd" clip-rule="evenodd" d="M37.3333 28.4444C37.3333 33.4162 33.2655 37.3333 28.4444 37.3333C23.4727 37.3333 19.5556 33.2655 19.5556 28.4444C19.5556 23.6234 23.4727 19.5556 28.4444 19.5556C33.4162 19.5556 37.3333 23.6234 37.3333 28.4444ZM38.6351 35.4471C40.0697 33.3748 40.8667 30.9838 40.8667 28.4334C40.8667 21.5791 35.2877 16 28.4334 16C21.5791 16 16 21.5791 16 28.4334C16 35.2877 21.5791 40.8667 28.4334 40.8667C30.9838 40.8667 33.5342 40.0697 35.4471 38.6351L44.6924 47.8804C44.8518 48.0398 45.1706 48.0398 45.33 47.8804L47.8804 45.33C48.0398 45.1706 48.0398 44.8518 47.8804 44.6924L38.6351 35.4471Z" fill="#D1D5DF"/>
</svg>
