<svg width="22" height="22" viewBox="0 0 22 22" fill="none" xmlns="http://www.w3.org/2000/svg">
<path fill-rule="evenodd" clip-rule="evenodd" d="M11 20.625C16.3157 20.625 20.625 16.3157 20.625 11C20.625 5.68426 16.3157 1.375 11 1.375C5.68426 1.375 1.375 5.68426 1.375 11C1.375 16.3157 5.68426 20.625 11 20.625ZM11 22C17.0751 22 22 17.0751 22 11C22 4.92487 17.0751 0 11 0C4.92487 0 0 4.92487 0 11C0 17.0751 4.92487 22 11 22Z" fill="#99B1E6"/>
<path d="M12.5557 8.89536L11.6463 16.5H9.40234L10.3117 8.89536H12.5557ZM12.981 6.81269C12.981 6.99358 12.9419 7.16469 12.8637 7.32603C12.7855 7.48247 12.6828 7.6218 12.5557 7.74403C12.4286 7.86136 12.2819 7.95669 12.1157 8.03003C11.9543 8.09847 11.7881 8.13269 11.617 8.13269C11.4459 8.13269 11.2821 8.09847 11.1257 8.03003C10.9692 7.95669 10.8299 7.86136 10.7077 7.74403C10.5903 7.6218 10.495 7.48247 10.4217 7.32603C10.3483 7.16469 10.3117 6.99358 10.3117 6.81269C10.3117 6.6318 10.3483 6.46069 10.4217 6.29936C10.495 6.13803 10.5928 5.99625 10.715 5.87403C10.8421 5.7518 10.9839 5.65647 11.1403 5.58803C11.2968 5.51469 11.4606 5.47803 11.6317 5.47803C11.8077 5.47803 11.9763 5.51225 12.1377 5.58069C12.299 5.64914 12.4408 5.74447 12.563 5.86669C12.6901 5.98892 12.7903 6.13069 12.8637 6.29203C12.9419 6.45336 12.981 6.62692 12.981 6.81269Z" fill="#99B1E6"/>
</svg>
