<svg width="48" height="48" viewBox="0 0 48 48" fill="none" xmlns="http://www.w3.org/2000/svg">
  <circle cx="24" cy="24" r="24" transform="rotate(-180 24 24)" fill="white" fill-opacity="0.2"/>
  <path d="M25.7893 16.3938C26.295 15.8687 27.115 15.8687 27.6207 16.3938C28.1264 16.9189 28.1264 17.7703 27.6207 18.2954L21.2107 24.9508C20.705 25.4759 19.885 25.4759 19.3793 24.9508C18.8736 24.4257 18.8736 23.5743 19.3793 23.0492L25.7893 16.3938Z" fill="#0D4CD3"/>
  <path d="M27.6205 29.7046C28.1262 30.2297 28.1262 31.0811 27.6205 31.6062C27.1148 32.1313 26.2948 32.1313 25.7891 31.6062L19.3793 24.9508C18.8736 24.4257 18.8736 23.5743 19.3793 23.0492C19.885 22.5241 20.7048 22.5241 21.2105 23.0492L27.6205 29.7046Z" fill="#0D4CD3"/>
</svg>
