<svg width="46" height="46" viewBox="0 0 46 46" fill="none" xmlns="http://www.w3.org/2000/svg">
<g opacity="0.4">
<path d="M12.5255 23.034L12.526 23.0345L18.3497 28.5357C18.3695 28.5544 18.4037 28.5714 18.4511 28.5713C18.4985 28.5712 18.5324 28.5541 18.552 28.5354M12.5255 23.034L18.552 28.5354M12.5255 23.034L12.515 23.0241M12.5255 23.034L12.515 23.0241M18.552 28.5354C18.5622 28.5256 18.5652 28.5192 18.566 28.5173C18.5671 28.5147 18.5674 28.5128 18.5674 28.5113C18.5674 28.5099 18.5671 28.5079 18.566 28.5053C18.5651 28.5033 18.5621 28.4968 18.5518 28.4871M18.552 28.5354L18.5518 28.4871M18.5518 28.4871C18.5517 28.4871 18.5517 28.487 18.5517 28.487M18.5518 28.4871L18.5517 28.487M18.5517 28.487L14.6344 24.7867M18.5517 28.487L14.6344 24.7867M12.515 23.0241C12.5052 23.0148 12.5023 23.0085 12.5014 23.0064C12.5002 23.0037 12.4999 23.0015 12.4999 22.9997C12.4999 22.9979 12.5002 22.9959 12.5013 22.9933C12.5021 22.9914 12.505 22.9851 12.5151 22.9755L12.525 22.9662L12.5254 22.9657L18.3496 17.464C18.3694 17.4453 18.4036 17.4283 18.4511 17.4284C18.4985 17.4285 18.5324 17.4457 18.5519 17.4643L18.552 17.4643C18.5622 17.4741 18.5652 17.4805 18.566 17.4825C18.5671 17.485 18.5673 17.4869 18.5673 17.4884C18.5673 17.4899 18.5671 17.4918 18.5659 17.4944C18.5651 17.4964 18.562 17.5029 18.5517 17.5127C18.5517 17.5127 18.5517 17.5127 18.5517 17.5127L14.6344 21.213L12.8063 22.9399L15.3211 22.94L34.2047 22.94C34.2538 22.94 34.2874 22.9582 34.3058 22.9757C34.3149 22.9843 34.3188 22.9913 34.3201 22.9943C34.3211 22.9964 34.3213 22.9975 34.3213 22.9999C34.3213 23.0023 34.3211 23.0033 34.3201 23.0054C34.3188 23.0084 34.3149 23.0154 34.3058 23.024C34.2874 23.0416 34.2538 23.0598 34.2047 23.0598L15.3211 23.0598L12.8062 23.0598M12.515 23.0241L12.8062 23.0598M12.8062 23.0598L14.6344 24.7867M12.8062 23.0598L14.6344 24.7867" fill="#1D5DEB" stroke="#1D5DEB" stroke-width="2"/>
<circle cx="23" cy="23" r="22" transform="rotate(-180 23 23)" stroke="#1D5DEB" stroke-width="2"/>
</g>
</svg>
