<?xml version="1.0" encoding="UTF-8"?>
<!-- Generator: Adobe Illustrator 21.0.0, SVG Export Plug-In . SVG Version: 6.00 Build 0)  -->
<svg version="1.1" id="Слой_1" xmlns="http://www.w3.org/2000/svg" xmlns:xlink="http://www.w3.org/1999/xlink" x="0px" y="0px" viewBox="0 0 120 120" style="enable-background:new 0 0 120 120;" xml:space="preserve">
<style type="text/css">
	.st0{fill:#001C85;}
</style>
<g>
	<path class="st0" d="M35.4,64.3l1-2.1L35.7,62l-1.3,1.7l0.2,0.7L35.4,64.3z M40.2,64.9l0-2l-0.7-0.1l-0.5,1.9l0.5,0.6L40.2,64.9z    M79.6,65.3l0.5-0.6l-0.5-1.9l-0.7,0.1l0,2L79.6,65.3z M84.6,64.4l0.2-0.7L83.4,62l-0.6,0.3l1,2.1L84.6,64.4z M87.6,61.3l-0.2-0.7   l-2.1-0.9L85,60.3l1.9,1.3L87.6,61.3z M31.3,51.8l0.2,0.8l2.1,0.8l0.3-0.6l-1.9-1.2L31.3,51.8z M33.3,56.2L31,55.9l-0.6,0.5   l0.5,0.7l2.3-0.2L33.3,56.2z M31.9,60.5l-0.2,0.7l0.8,0.3l1.9-1.3L34,59.7L31.9,60.5z M87.8,52.6l0.2-0.8l-0.7-0.2l-1.9,1.2   l0.3,0.6L87.8,52.6z M112.6,53.5c0,0-1.3-0.7-2.2-0.8c-1.1-0.2-1.8-0.2-2.6-0.2c0.6-0.2,1.2-0.5,1.7-0.8c2.8-1.7,3.1-4.9,3.1-4.9   s-1.7-0.2-2.6-0.2c-1.6,0-2.7,0.1-3.1,0.2c1.2-0.6,1.7-0.9,2.6-1.8c2.2-2.1,1.8-5.2,1.8-5.2s-0.8-0.3-2-0.2c-1,0.1-1.4,0.2-1.9,0.5   c1.9-2.1,2.1-3.4,2.3-4.8c0.3-2.1-0.4-3.7-0.6-3.8c0,0-0.9,0.2-2.2,1.2c-1.4,1.1-3.4,2.9-3.4,2.9s0.5-0.6,1.1-1.8   c2.4-5,2.2-8.9,1.5-10.1c-0.7-1.3-2.1-1.4-2.7-0.4c-0.5,0.7-1.9,3.7-3,5.8c-1.8,3.4-4.1,6.7-5.1,7.8c-0.5-1.1-1-0.3-1-0.3   s-0.8,1.3-1.7,2.8c-0.8,1.4-1.9,2.4-2.5,3c-0.8-1-1.6-1.3-1.6-1.3l-0.2,0.2c0,0-5.8,6.1-7.6,8.4c-1.8,2.4-0.4,3.5,0.9,5.4   c1.3,1.9,0.7,4.2-2,5.2c-2.3,0.9-3.9,0.1-4.6-1.1c1.7-0.7,3.4-2.4,3.4-4.8c0-0.4,0-0.8-0.1-1.2c-0.5-2.6-2.6-4.1-5-4.1   c-0.8,0-1.6,0.2-2.5,0.6c-0.5,0.2-0.7,0.4-1.1,0.7c0,0-0.1,0.1-0.2,0.2c-1.1-2-1-3.6,0.3-6.1c1.4-2.8,3.9-4,3.9-4l0.6,0.4   c0,0,0-0.2,1.2-0.7c1.2-0.5,2.4-0.4,3.4,0.7c0.8,1,0.8,2.3,0.8,2.3s0.8-0.7,1-1.5c0.2-0.8-0.1-1.5-0.1-1.5s1,0.4,2,0.8   c1,0.4,2.7,1,4.2-0.3c1.5-1.3,1.2-3.2,1.2-3.2s-0.8,1.3-2.6,1.7c-1.3,0.3-2.7-0.5-3.8-0.9c-1-0.4-2.4-0.6-2.4-0.6s1.2-1.1,3.4-0.4   c1.6,0.5,1.8,1.1,1.8,1.1s0.8-0.6,1.3-1.8c0.5-1.3,0.2-2.4-0.7-3.3c-0.9-0.9-2.8-1.4-2.8-1.4s0.3-0.5-0.3-0.7   c-0.6-0.2-1.1-0.3-1.1-0.3s0.4-1.5-1.1-2.2c-2.4-1.1-6.3,0.9-10.6,1.5c-2.9,0.4-4.1-0.5-4.1-0.5s0.2,0.6,0.8,1.2   c1.1,1.1,1.9,1.5,1.9,1.5s-0.8,0.1-1.5,0c-0.7-0.1-1.9-0.4-1.9-0.4s0.4,0.6,1.1,1.2c0.7,0.6,1.5,0.9,1.5,0.9s-1.6,0.8-2.9,1.2   c-1.3,0.4-3.5,0.4-3.5,0.4s0.7,0.7,1.7,1.1c1,0.4,1.5,0.4,1.5,0.4s-0.9,1.1-1.9,3c-0.7,1.3-1.8,3.8-2.4,5.2   c-0.6-1.4-1.7-3.9-2.4-5.2c-1-1.9-1.9-3-1.9-3s0.5,0,1.5-0.4c1-0.4,1.7-1.1,1.7-1.1s-2.2,0-3.5-0.4c-1.3-0.4-2.9-1.2-2.9-1.2   s0.8-0.3,1.5-0.9c0.8-0.5,1.1-1.2,1.1-1.2s-1.2,0.3-1.9,0.4c-0.7,0.1-1.5,0-1.5,0s0.8-0.4,1.9-1.5c0.6-0.6,0.8-1.2,0.8-1.2   s-1.2,0.9-4.1,0.5c-4.2-0.6-8.1-2.7-10.6-1.5c-1.5,0.7-1,2.2-1,2.2s-0.6,0.1-1.1,0.3c-0.6,0.2-0.3,0.7-0.3,0.7s-1.9,0.5-2.8,1.4   c-0.9,0.9-1.3,2-0.7,3.3c0.5,1.2,1.3,1.8,1.3,1.8s0.2-0.6,1.8-1.1c2.1-0.7,3.4,0.4,3.4,0.4s-1.4,0.2-2.4,0.6   c-1,0.4-2.5,1.2-3.8,0.9c-1.8-0.3-2.6-1.7-2.6-1.7s-0.3,1.9,1.2,3.2c1.5,1.3,3.3,0.7,4.2,0.3c1.1-0.4,2-0.8,2-0.8s-0.3,0.7-0.1,1.5   c0.2,0.8,1,1.5,1,1.5s-0.1-1.3,0.8-2.3c0.9-1.1,2.2-1.2,3.4-0.7c1.2,0.5,1.2,0.7,1.2,0.7l0.5-0.4c0,0,2.5,1.2,3.9,4   c1.3,2.6,1.5,4.1,0.4,6.1c0,0-0.1-0.1-0.1-0.1c-0.4-0.3-0.8-0.5-1.4-0.8c-0.8-0.4-1.7-0.6-2.5-0.6c-2.3,0-4.4,1.5-5,4.1   c-0.1,0.4-0.1,0.8-0.1,1.2c0,2.5,1.7,4.2,3.5,4.8c-0.7,1.1-2.3,2-4.6,1.1c-2.7-1.1-3.3-3.3-2-5.2c1.3-1.9,2.6-3.1,0.8-5.4   c-1.8-2.4-7.6-8.4-7.6-8.4l-0.2-0.2c0,0-0.8,0.4-1.6,1.3c-0.6-0.6-1.7-1.6-2.5-3c-0.9-1.5-1.7-2.8-1.7-2.8s-0.5-0.8-1,0.3   c-1-1.2-3.3-4.4-5.1-7.8c-1.1-2.1-2.5-5.1-3-5.8c-0.6-0.9-2-0.9-2.7,0.4c-0.6,1.2-0.9,5.1,1.5,10.1c0.6,1.2,1.1,1.8,1.1,1.8   s-2-1.8-3.3-2.9c-1.3-1-2.2-1.2-2.2-1.2c-0.2,0.1-0.9,1.6-0.6,3.8c0.2,1.4,0.5,2.7,2.3,4.8c-0.5-0.3-0.9-0.4-1.9-0.5   c-1.2-0.1-2,0.2-2,0.2S7.6,43,9.8,45.1c0.9,0.8,1.4,1.2,2.6,1.8c-0.4-0.1-1.6-0.2-3.1-0.2c-0.9,0-2.6,0.2-2.6,0.2S7,50,9.8,51.7   c0.5,0.3,1.1,0.6,1.7,0.8c-0.8,0-1.5,0-2.6,0.2c-0.9,0.2-2.2,0.8-2.2,0.8s1.1,2.9,4,4c0.5,0.2,0.8,0.3,1.4,0.4   c-0.3,0-1.3,0.4-2.5,0.9c-0.8,0.4-1.8,1.2-1.8,1.2s1.5,2.7,4.1,3.2c0,0,0.2,0,0.4,0.1c-0.4,0.3-1.2,0.9-2,1.6   c-0.7,0.7-1.3,1.9-1.3,1.9s2.2,2.3,5.5,2c-0.3,0.3-0.5,0.7-0.8,1.1c-0.7,1.1-0.9,2.6-0.9,2.6s2.5,1.3,5.2,0.4   c-0.2,0.3-0.3,0.6-0.4,1c-0.2,0.9-0.3,2.7-0.3,2.7s3,0.9,5.6-1c-0.2,0.4-0.3,0.9-0.3,1.5c-0.1,0.9,0.1,2.7,0.1,2.7s3.2,0.4,5.5-2   c0.1-0.1,0.1-0.1,0.2-0.2c0,0.2-0.1,0.5,0,0.8c0,0.9,0.5,2.7,0.5,2.7s3.2-0.1,5.2-2.8c0.2-0.2,0.3-0.5,0.5-0.7   c0,0.4,0.1,1.2,0.4,1.8c0.2,0.8,0.9,1.8,0.9,1.8s2.7-0.8,3.6-3.5c0.4-1.2,0.6-2.7,0.6-4.1c0.2,0.2,0.3,0.3,0.3,0.3s0.9-0.2,1.7-1.1   c-0.6,2.2-1,4.5-1,6.9c0,0.6,0,1.2,0.1,1.8c0.1,1.4,0.2,2,0.5,3c0,0-0.5,0.9-0.9,1.4c-0.2,0.2-0.9,0.9-0.8,2c0.1,0.9,0.9,1,0.9,1   s-0.1,1,0.2,1.5c0.3,0.5,0.8,0.7,1.1,0.7c0.2,0.1,0.8,0.2,0.8,0.2s0.2,1.1,0.5,1.4c0.5,0.3,1.6,0.7,1.6,0.7   c0.3,0.1,0.8,0.5,1.1,0.6c0.5,0.2,1.2,0.1,1.9-0.2c0.5-0.3,0.5-1,0.5-1.1c0.2,0.1,0.3,0.1,0.5,0.2c0.7,0.3,1.3,0.6,1.3,0.7   c0.3,0.6,0.6,2,0.7,3c0.1,0.4,0,1,0.3,1.6c0,0,0.1,0.1,0.1,0.1c-0.1,0-0.1,0.1-0.2,0.1c-0.7,0.3-1.7,0.7-2.6,1.3   c-0.9,0.7-2.1,2.5-3.5,2.8c-1.3,0.3-2.2-0.3-2.3-1.1c-0.1-0.8-0.1-1.2-0.1-1.2s-1.7,1-1.8,2.2c-0.2,1.6,1.2,2.3,1.2,2.3   s-2.3,2.2-1.6,4.1c0.6,1.6,1,2.3,1.1,2.9c0.1,0.6-0.2,1-0.2,1s1.1,0.1,1.4-1.4c0.2-1,0.4-1.5,0.7-1.7c0.2-0.3,0.2-0.4,0.2-0.4   s-0.1,1.4,0.2,2.5c0.3,1.1,1.6,2.1,3.3,2.3c1.6,0.1,3-0.8,3-0.8s1.3,1.8,3.1,2c1.9,0.3,3-0.2,3.6-0.3c0,0,0.5,0.9,0.9,1.5   c0.2,0.3,0.6,0.7,1.1,1.1l0.6,0.3c0,0,0.7-0.7,1.1-1.2c0.4-0.6,1.1-1.9,1.1-1.9s2,0.7,3.8,0.4c1.8-0.4,3-1.6,3-1.6s1.1,1.2,2.8,1.1   c1.7-0.1,3-1.7,3.3-2.7c0.3-1.1,0.2-2.4,0.2-2.4s0.1,0.1,0.4,0.3c0.3,0.2,0.5,0.3,0.7,1.5c0.3,1.6,1.1,1.6,1.1,1.6   s-0.1-0.8,0.2-1.6c0.2-0.6,0.7-1.2,1.1-2.7c0.7-2.6-1.6-3.7-1.6-3.7s1.3-0.7,1.2-2.1c-0.1-1.8-2.1-2.4-2.1-2.4s0.2,0.2,0,1   c-0.1,0.8-0.9,1.6-2.4,1.2c-0.8-0.2-2.2-2-3.2-2.7c-1-0.7-2.3-1.3-2.8-1.5c0,0-0.1,0-0.2-0.1c0,0,0,0,0-0.1   c0.3-0.6,0.3-1.2,0.3-1.6c0.1-0.9,0.3-2.1,0.6-2.7c0.2-0.4,0.7-0.7,1.5-1c0.2-0.1,0.2-0.1,0.5-0.2c0,0.2,0.1,0.9,0.5,1.1   c0.7,0.4,1.4,0.5,1.9,0.2c0.3-0.2,0.8-0.5,1.1-0.6c0,0,1.1-0.3,1.6-0.7c0.4-0.3,0.5-1.4,0.5-1.4s0.5-0.1,0.8-0.2   c0.2-0.1,0.7-0.3,1.1-0.7c0.3-0.5,0.2-1.5,0.2-1.5s0.9-0.1,0.9-1c0.1-1.1-0.6-1.8-0.8-2c-0.5-0.6-0.9-1.4-0.9-1.4   c0.3-1,0.4-1.7,0.5-3c0.1-0.6,0.1-1.2,0.1-1.8c0-2.4-0.4-4.8-1-6.9c0.9,0.9,1.7,1.1,1.7,1.1s0.1-0.1,0.3-0.3c0,1.4,0.2,2.9,0.6,4.1   c1,2.7,3.6,3.5,3.6,3.5s0.7-1,0.9-1.8c0.2-0.6,0.4-1.5,0.3-1.8c0.2,0.3,0.3,0.5,0.5,0.7c1.9,2.7,5.2,2.8,5.2,2.8s0.5-1.8,0.5-2.7   c0-0.3,0-0.6,0-0.8c0.1,0.1,0.1,0.1,0.2,0.2c2.3,2.4,5.5,2,5.5,2s0.2-1.8,0.1-2.7c-0.1-0.6-0.2-1.1-0.3-1.5c2.6,1.9,5.6,1,5.6,1   s0-1.8-0.3-2.7c-0.1-0.4-0.3-0.7-0.4-1c2.7,0.9,5.2-0.4,5.2-0.4s-0.2-1.5-0.9-2.6c-0.3-0.4-0.5-0.8-0.8-1.1c3.2,0.4,5.5-2,5.5-2   s-0.7-1.3-1.3-1.9c-0.7-0.7-1.5-1.3-2-1.6c0.2,0,0.4-0.1,0.4-0.1c2.7-0.5,4.1-3.2,4.1-3.2s-0.9-0.8-1.8-1.2   c-1.2-0.6-2.2-0.9-2.5-0.9c0.6-0.1,0.9-0.2,1.4-0.4C111.4,56.4,112.6,53.5,112.6,53.5 M109,47.6c1.3,0,2,0.1,2.1,0.2   c-1.1,1.4-2.4,2.4-5.8,3.4c-4.4,1.3-7,1.1-8,1.2c2.3-1.5,2.8-2.4,2.8-2.4s0-0.2-0.9-0.5c0.8-0.2,2.2-0.6,3.3-0.9   c0.8-0.3,1.2-0.4,2.1-0.8C105.1,47.8,107.5,47.6,109,47.6 M83.2,67c0.1,0.6,0.7,1.7,1,2.3c-0.1,0.3-0.2,0.8-0.4,1.2   c-0.4,0.7-0.8,0.9-0.8,0.9s-1.3-0.3-2.1-1.7c-0.5-0.9-0.5-2-0.5-2.6c0.3-0.2,0.5-0.5,0.7-0.6c0.4-0.4,0.7-1.2,0.7-1.2   s0.4,0.3,1.1,0.5C83.1,66.2,83.1,66.6,83.2,67C83.2,67,83.2,67,83.2,67C83.2,67,83.2,67,83.2,67 M84,66.3c0.6,0.2,1,0.3,1.2,0.3   c0.2-0.1,0.5-0.5,0.5-0.6c0.4,0.3,0.6,0.8,2.5,2c0,0.2,0.1,0.9,0,1.5c-0.1,0.8-0.2,1.2-0.2,1.2s-1.3-0.2-2.3-1.3   C84.5,68.1,84.3,66.9,84,66.3 M86.5,65.4c0.1-0.1,0.1-0.2,0.2-0.3c0.5-0.9,0.4-1.8,0.4-1.8s2.2,1.4,4.1,1.9   c0.1,0.2,0.2,0.8,0.4,1.3c0.2,0.8,0.1,1.3,0.1,1.3s-1.2-0.1-2.9-0.8C87.2,66.2,86.8,65.6,86.5,65.4 M90.1,63.6   c-0.4-0.1-1.1-0.5-1.3-0.6c1-0.4,1.6-1,1.6-1s0-0.3-0.2-0.5c0.7,0.1,1.3,0.3,2.5,0.2c0,0,0.3,0,0.3,0c0.2,0.2,1.1,0.6,1.6,1.2   c0.7,0.7,0.9,1.3,0.9,1.6C94.3,64.4,92.3,64.4,90.1,63.6 M92.6,60.4c-1.6,0-2.4-0.2-3.2-0.3c-0.2-0.2-0.4-0.5-0.7-0.8   c0.2-0.1,0.7-0.4,1.1-0.8c1.1,0.1,3.6,0.1,5.6-0.6c0.1,0,0.2-0.1,0.3-0.1c0.3,0.1,0.6,0.3,1.1,0.5c0.9,0.4,1.3,0.9,1.5,1.2   C97.6,59.8,94.9,60.5,92.6,60.4 M93.3,57.1c-1.1,0.1-2.2,0.2-2.6,0c0,0,0.2-0.3,0.4-0.8c-0.1-0.4-0.5-0.8-1.3-1.4   c-0.1,0-0.1-0.1-0.2-0.1c0.8-0.1,2.8-0.3,4.7-0.8c0.2,0,0.7,0,1.9,0.5c1.4,0.5,1.8,1,2,1.2C97.3,55.9,95.6,56.9,93.3,57.1    M93.9,52.6c-2.6,0.7-4,0.8-4.6,0.8c0.2-0.3,0.6-0.8,0.8-1.6c0.9-0.3,3.2-1.2,4.9-2.4c0.3,0,0.9,0,1.6,0.1c1.3,0.1,1.9,0.5,2.2,0.7   C98.1,51.1,96.1,52,93.9,52.6 M108.6,40.6c1.2-0.2,1.7,0,1.8,0c-0.6,1.2-2.3,3.1-6,5.2c-3.5,1.9-5.6,2.7-6.5,3   c-1-0.2-1.9-0.2-1.9-0.2c0.7-0.7,1.3-1.4,1.6-1.9c1.3-0.5,5.5-2.2,8.7-5.4c0,0,0.1-0.1,0.2-0.1C106.9,41,107.9,40.7,108.6,40.6    M95.8,37.9c0,0,1.6-1.9,3.3-4.6c1.5-2.4,3.4-6.5,4.7-9c0.6-1.2,1.8-0.7,1.8,1.1c0,2.7-2,7-3.7,9.2c-3.4,4.3-5,5.3-6.3,6.2   C95.7,40.7,96.2,39.4,95.8,37.9 M101.5,38.3c0.8-0.8,3.8-3,5.7-4.8c0.8-0.8,1.7-1.1,1.7-1.1c0.2,1.4-0.6,3.3-1.3,4.5   c-1.1,1.7-2.9,3.5-4.1,4.4c-4,2.8-4.3,2.9-5,3.2c-0.1,0-2.1-0.8-4.2,0c0.2-0.2,0.2-0.4,0.2-0.4S98.3,41.6,101.5,38.3 M92.5,41.1   c1-1.4,1.5-2.4,1.8-2.8c0.5-0.9,1-0.7,0.9,0.2c0,1.7-0.9,3.5-2,5c-1,1.3-2,1.9-2.5,2.2c0.1-0.3,0.4-1.6-0.1-2.5   C90.9,42.8,91.8,42.2,92.5,41.1 M93.6,45.4c0.3-0.1,0.9-0.2,1.7-0.3c1.3-0.2,2.2,0,2.5,0.2c-0.7,0.7-2.6,2.3-4.6,3.4   c-1.8,1-3.2,1.6-3.8,1.8C88.4,50,87.6,50,87.6,50s0.5-0.5,1.4-1.4C89.9,48.2,91.8,47.4,93.6,45.4 M76.3,61.7   c3.3,0.6,5.6-1.1,6.4-2.4c0.8-1.4,0.7-2.9-0.7-4.9c-1.4-2-2.2-2.4,1.6-6.6c3.8-4.1,5.2-5.3,5.2-5.3s1.4,0.5,1.3,2.6   c-0.1,1.3-2.4,3.6-3,4.3c-0.7,0.7-1.3,1.3-1.3,1.3s0.9,0,2.2,0.2c0.9,0.1,1.4,0.5,1.4,0.5s-0.3,1.3-0.7,1.8   c-0.4,0.5-1.2,1.3-1.2,1.3s1,0.4,1.7,1c0.6,0.6,0.9,1.1,0.9,1.1s-0.4,1.1-1.1,1.7c-0.7,0.6-1.7,1.1-1.7,1.1s0.9,0.6,1.5,1.3   c0.4,0.5,0.5,1,0.5,1s-0.6,0.5-1.4,0.7c-0.4,0.1-0.8,0.2-1.1,0.2c0,0,0,0,0,0l0,0c-0.3,0-0.6,0-0.6,0s0,1.1-0.3,1.8   c-0.3,0.7-1,1.2-1,1.2s-1.3-0.1-1.9-0.4c-0.7-0.3-1.4-0.9-1.4-0.9s-0.6,1.2-1,1.5c-0.5,0.4-1,0.7-1,0.7s-0.7-0.3-1.3-0.7   c-0.4-0.2-0.9-0.7-0.9-0.7l-2,1.4c0,0-0.9-0.3-2-2.3c0,0,0-0.1-0.1-0.1c-0.9-1.9-1.3-3.1-1.5-3.9C73.1,60.8,75.3,61.5,76.3,61.7    M73.5,50.5c2.7,0.1,4.9,3.2,3.4,6c-1.5,2.8-4.3,2.4-4.9,1.6c-0.6-0.8-0.4-2.1,0.4-2.7c0.8-0.6,2.1,0,2.1,0l-0.1-0.1   c0,0-1.2-1.8-2.9-0.2c-0.4,0.4-0.6,0.7-0.7,1.4h-3.1c0-0.4,0.1-0.5,0.1-0.8C68.3,52.6,70.8,50.5,73.5,50.5 M56,51.1   c0-0.6,0.5-1.1,1.1-1.1c0.6,0,1.1,0.5,1.1,1.1c0,0.5-0.3,0.9-0.7,1v4.4h-0.9v-4.4C56.3,52,56,51.6,56,51.1 M58,49.2   c-0.2-0.1-0.9-0.3-1.5-0.1c-0.6,0.2-1.2,0.7-1.4,1.4c-0.2,0-0.3-0.1-0.5-0.1c-0.4,0-1,0.1-1.5,0.6c-0.4,0.4-0.6,0.9-0.6,1.4   c0,0.7,0.3,1.2,0.8,1.6v1.3h-0.7c-0.1-0.6-0.5-1.9-1.2-2.9c0.3-0.4,1.5-1.8,2-3.6c0.3-1.1,0.6-2.1,0.7-3.2c0.2,0.2,0.4,0.5,0.6,0.8   c0.4,0.7,0.8,1.4,0.8,1.4l0.4,0.8l0.3-0.9c0,0,0.3-0.9,0.5-2.1c0.1-0.5,0.1-0.9,0.2-1.3c0.3,0.3,0.6,0.8,0.9,1.3   c0.4,0.7,0.7,1.5,0.8,1.8c0.1,0.2,0.2,0.5,0.2,0.7C58.5,48.6,58.3,48.9,58,49.2 M53.5,52.6c0-0.6,0.5-1.1,1.1-1.1   c0.6,0,1.1,0.5,1.1,1.1c0,0.5-0.3,0.9-0.7,1v2.9h-0.9v-2.9C53.8,53.5,53.5,53.1,53.5,52.6 M70.7,57.3l0.1,1.2l-22.3,0l0-1.3H70.7z    M64.2,50.5c-0.1-0.6-0.4-1.2-1.4-1.5c-0.9-0.4-1.8,0.1-1.8,0.1s-0.2-0.3-0.6-0.6c0.1-0.2,0.2-0.6,0.2-0.8c0.1-0.3,0.4-1.1,0.8-1.8   c0.3-0.5,0.6-1,0.9-1.3c0,0.4,0.1,0.8,0.2,1.3c0.2,1.2,0.5,2.1,0.5,2.1l0.3,0.9l0.4-0.8c0,0,0.3-0.7,0.8-1.4   c0.2-0.3,0.4-0.6,0.6-0.8c0.1,1.1,0.3,2.1,0.7,3.2c0.5,1.7,1.6,3,2,3.5c-0.8,1.2-1.1,2.4-1.2,3H66v-1.3c0.5-0.4,0.8-1,0.8-1.6   C66.8,51.4,65.9,50.4,64.2,50.5 M63.6,52.6c0-0.6,0.5-1.1,1.1-1.1c0.6,0,1.1,0.5,1.1,1.1c0,0.5-0.3,0.9-0.7,1v2.9h-0.9v-2.9   C63.9,53.5,63.6,53.1,63.6,52.6 M61.1,51c0-0.6,0.5-1.1,1.1-1.1c0.6,0,1.1,0.5,1.1,1.1c0,0.5-0.3,0.9-0.8,1.1v4.5h-0.9V52   C61.4,51.8,61.1,51.5,61.1,51 M80,41.3c0,0-0.3-0.7-1.4-1.4c-1.1-0.7-1.6-0.6-1.6-0.6s0.6-0.6,1.5-0.2c0.9,0.4,1.2,0.7,1.4,1.2   C80.1,40.9,80,41.3,80,41.3 M80.3,38.5c0.9,0.3,2.8,1,3.4,1.3c1.7,0.7,3.3-0.2,3.3-0.2s-0.6,1.5-2.7,1.2c-1.4-0.2-2.9-1-3.6-1.4   c-1-0.6-1.9-0.8-1.9-0.8S79.7,38.3,80.3,38.5 M81.8,32.7c0,0,1.4,0.1,2.3,0.9c0.9,0.8,1.3,1.4,1.1,2.3c-0.2,0.9-0.7,1.1-0.7,1.1   s-0.9-0.8-2.5-0.8c-0.9,0-2.8,0.2-3.7,1c-0.2,0.2-0.3,0-0.2-0.2c0.3-0.3,0.5-0.5,0.9-1.1c0.7-0.9,0.9-1.3,1.5-2   C81.2,33.4,81.8,32.7,81.8,32.7 M66.7,33.1c0,0,0.9,0,1.7,0c0.8-0.1,1.7-0.2,2.6-0.2c0.9,0,1.9-0.3,3.6,0.3c1.7,0.7,2.6,1,2.6,1   s0.7-0.5,1.1-1.1c0.4-0.5,0.6-1.1,0.6-1.1S78.5,32.1,78,32c-0.5-0.1-1.8-0.6-3.4-0.4c-1.6,0.2-3.5,0.4-5.3,0.1   c-1.8-0.3-2.2-0.8-2.2-0.8s0.9,0.2,4-0.3c3.8-0.7,7.7-2.5,8.8-1c0.3,0.5,0.1,1.1-0.1,1.7c-0.2,0.5-1.1,2.1-2,3   c-0.7,0.7-1.3,1.3-1.8,1.7c-0.4,0.2-1.6,1-2.5,1.3c-0.9,0.3-1.8,0.6-2.5,0.7l2.6-4.3L72.8,34c0,0-1.7,0.4-3.4,1.3   c-0.5,0.3-1.2,0.7-1.7,1.1c0.1-0.4,0.1-0.9,0.2-1.1c0.2-0.6,0.4-1,0.5-1.1c0-0.1,0.2-0.2,0.3-0.2l0.3-0.2c-0.2,0-0.5-0.1-1-0.2   C67.3,33.4,66.7,33.1,66.7,33.1 M75.1,32.4c0.6,0.1,0.7,0.1,0.7,0.1c0,0-0.1,0.4-0.1,0.4s0,0-0.6-0.2c-0.6-0.2-0.5-0.2-0.5-0.2   S74.6,32.3,75.1,32.4 M76.8,33.3c0,0,0.1,0,0.2-0.1c0.3-0.3,0.3-0.4,0.3-0.4l0.5,0.1l-0.5,0.7L76.8,33.3z M61,44.6   c0.4-0.9,0.7-1.8,1.1-2.6c0.8-1.1,1.7-1.9,2.3-2.4c0,0.2-0.1,0.4-0.1,0.6c-0.1,0.7-0.2,1.5-0.2,2c0,0.3,0,0.6,0,0.6l0.1,1.3   l0.6-1.2c0,0,0.6-1.1,1.3-1.9c0.5-0.5,1-1,1.4-1.3c-0.2,0.5-0.3,1-0.4,1.4C67,41.8,67,42.4,67,42.9c0,0.8,0.1,1.4,0.1,1.4l0.1,0.9   l0.6-0.7c0,0,1.1-1.4,1.8-2.2c0.7-0.7,1.4-1.3,2-1.7c0.6-0.4,1-0.6,1-0.7l-0.4-0.7c0,0-1.7,1-3.1,2.5c-0.4,0.4-0.9,1-1.2,1.5   c0-0.1,0-0.2,0-0.3c0-0.5,0-1,0.1-1.6c0.1-0.4,0.2-1,0.4-1.5c0.2-0.5,0.3-0.9,0.3-0.9l0.4-1l-0.9,0.5c0,0-1.4,0.7-2.5,2.1   c-0.2,0.3-0.5,0.6-0.7,0.9c0-0.4,0.1-0.7,0.1-1.1c0.2-0.9,0.4-1.6,0.4-1.6l0.2-0.9l-0.8,0.5c0,0-0.5,0.3-1.2,0.9   c0.1-0.2,0.2-0.3,0.3-0.5c0.6-0.9,1.4-1.9,1.4-1.9s-1.1-0.4-1.4-0.4c-0.3,0-0.8-0.1-0.8-0.1s1-0.3,2-0.6c0.7-0.2,1.7-0.8,2.1-1   c0,0.1-0.1,0.2-0.1,0.3c-0.2,0.6-0.4,2.1-0.4,2.1l-0.1,0.9l0.7-0.6c0,0,1.5-1.2,2.3-1.6c0.8-0.4,1.6-0.7,2.2-0.9c0,0,0.1,0,0.1,0   l-2.5,4.1l0.8-0.1c0,0,1.9-0.2,3.5-0.8l0.4-0.2c1.4-0.5,2.4-1.4,2.4-1.4c0.9-0.7,1.7-1.5,2.2-2.2c1-1.5,1.9-2.7,1.9-2.7   s0.2,0,0.4,0c0.1,0.1,0.3,0.2,0.3,0.2s-0.6,0.6-1,1c-0.4,0.5-1.4,1.9-2.1,2.9c-0.7,1.1-1.9,2.5-2.6,2.9c-0.7,0.5-1.3,0.9-1.3,0.9   l-0.8,0.1c0,0-2,0.5-4,3.7c-2.1,3.2-1.8,5.8-1.2,7c0.1,0.2,0.4,0.6,0.5,0.9c-0.2,0.2-0.4,0.3-0.5,0.5c-0.1-0.2-0.3-0.4-0.5-0.7   c-0.4-0.6-0.9-1.5-1.2-2.4c-0.4-1.4-0.6-2.4-0.7-3.9l-0.1-0.9l-0.6,0.7c0,0-0.7,0.8-1.2,1.6c-0.1,0.2-0.3,0.4-0.4,0.6   c-0.1-0.3-0.2-0.7-0.2-1.1c-0.2-1.2-0.3-2.1-0.3-2.1l0-0.9l-0.6,0.6c0,0-0.9,0.9-1.6,2.1c-0.2,0.3-0.3,0.5-0.4,0.8   C60.6,45.8,60.8,45.1,61,44.6 M59.7,49.4c0.6,0,1.1,0.5,1.1,1.1c0,0.5-0.3,0.9-0.7,1v5h-0.9v-5c-0.4-0.2-0.7-0.6-0.7-1   C58.6,49.9,59.1,49.4,59.7,49.4 M39.5,29.7c1.1-1.5,5,0.4,8.8,1c3.1,0.5,4,0.3,4,0.3s-0.4,0.6-2.2,0.8c-1.8,0.3-3.7,0.1-5.3-0.1   c-1.7-0.3-3,0.3-3.4,0.4c-0.5,0.1-0.9-0.1-0.9-0.1s0.2,0.6,0.6,1.1c0.4,0.5,1.1,1.1,1.1,1.1s0.9-0.3,2.6-1c1.7-0.7,2.6-0.3,3.6-0.3   c0.9,0,1.8,0.1,2.6,0.2c0.8,0.1,1.7,0,1.7,0s-0.5,0.3-1.2,0.5c-0.5,0.1-0.9,0.2-1,0.2l0.3,0.2c0.1,0.1,0.2,0.2,0.3,0.2   c0.1,0.1,0.4,0.5,0.5,1.1c0.1,0.2,0.1,0.7,0.2,1.1c-0.5-0.4-1.2-0.9-1.7-1.1c-1.7-0.9-3.4-1.3-3.4-1.3l-0.9-0.2l2.6,4.3   c-0.7-0.1-1.6-0.4-2.5-0.7c-0.9-0.3-2.1-1.1-2.5-1.3c-0.5-0.4-1.1-0.9-1.8-1.7c-0.9-0.9-1.7-2.5-2-3C39.3,30.8,39.1,30.1,39.5,29.7    M44.7,32.4c0,0,0.1,0-0.5,0.2c-0.6,0.2-0.6,0.2-0.6,0.2s-0.1-0.4-0.1-0.4c0.1,0,0.2-0.1,0.7-0.1C44.8,32.3,44.7,32.4,44.7,32.4    M42.6,33.3l-0.5,0.1l-0.5-0.7l0.5-0.1c0,0,0.1,0.2,0.3,0.4C42.4,33.2,42.6,33.3,42.6,33.3 M37.4,36.3c-1.7,0.1-2.5,0.8-2.5,0.8   s-0.4-0.2-0.7-1.1c-0.3-0.9,0.1-1.5,1.1-2.3c0.9-0.8,2.3-0.9,2.3-0.9s0.7,0.6,1.3,1.3c0.6,0.7,0.9,1.1,1.5,2   c0.4,0.6,0.7,0.8,0.9,1.1c0.1,0.1,0,0.3-0.2,0.2C40.2,36.4,38.2,36.2,37.4,36.3 M38.7,39.4c-0.7,0.4-2.2,1.1-3.6,1.4   c-2.1,0.3-2.7-1.2-2.7-1.2s1.5,0.9,3.3,0.2c0.7-0.3,2.5-1,3.5-1.3c0.6-0.2,1.5,0.1,1.5,0.1S39.7,38.7,38.7,39.4 M40.7,39.9   c-1.1,0.7-1.4,1.4-1.4,1.4s-0.1-0.4,0.1-1c0.2-0.6,0.5-0.8,1.4-1.2c0.9-0.4,1.5,0.2,1.5,0.2S41.8,39.2,40.7,39.9 M51,50.4   c0.6-1.2,0.9-3.8-1.2-7c-2.1-3.2-4-3.7-4-3.7L45,39.6c0,0-0.5-0.4-1.3-0.9c-0.7-0.4-1.9-1.9-2.6-2.9c-0.7-1-1.7-2.4-2.1-2.9   c-0.4-0.5-1-1-1-1s0.2-0.1,0.3-0.2c0.1-0.1,0.4,0,0.4,0s0.9,1.2,1.9,2.7c0.5,0.7,1.3,1.5,2.2,2.2h0c0,0,1,0.9,2.4,1.4l0.4,0.2   C47.1,38.8,49,39,49,39l0.8,0.1L47.3,35c0,0,0.1,0,0.1,0c0.6,0.2,1.4,0.5,2.2,0.9c0.8,0.4,2.3,1.6,2.3,1.6l0.7,0.6l-0.1-0.9   c0,0-0.2-1.5-0.4-2.1c0-0.1-0.1-0.2-0.1-0.3c0.4,0.3,1.4,0.8,2.1,1c1,0.3,2,0.6,2,0.6s-0.4,0.1-0.8,0.1c-0.3,0-1.4,0.4-1.4,0.4   s0.9,0.9,1.4,1.9c0.1,0.1,0.2,0.3,0.3,0.5c-0.7-0.6-1.2-0.9-1.2-0.9l-0.8-0.5l0.2,0.9c0,0,0.2,0.7,0.4,1.6c0.1,0.3,0.1,0.7,0.1,1.1   c-0.2-0.3-0.4-0.6-0.6-0.9c-1.2-1.4-2.5-2.1-2.6-2.1L50.3,38l0.4,1c0,0,0.2,0.4,0.3,0.9c0.2,0.5,0.4,1.1,0.4,1.5   c0.1,0.6,0.1,1.1,0.1,1.6c0,0.1,0,0.2,0,0.3c-0.4-0.5-0.8-1-1.2-1.5c-1.4-1.5-3.1-2.5-3.1-2.5l-0.4,0.7c0,0,0.4,0.2,1,0.7   c0.6,0.4,1.3,1,2,1.7c0.7,0.8,1.8,2.2,1.8,2.2l0.6,0.7l0.1-0.9c0,0,0.1-0.6,0.1-1.4c0-0.5,0-1.1-0.1-1.7c-0.1-0.4-0.2-1-0.4-1.4   c0.4,0.3,0.9,0.7,1.4,1.3c0.7,0.8,1.3,1.9,1.3,1.9l0.6,1.2l0.1-1.3c0,0,0-0.2,0-0.6c0-0.5,0-1.3-0.2-2c0-0.2-0.1-0.4-0.1-0.6   c0.6,0.5,1.5,1.3,2.3,2.4c0.4,0.8,0.8,1.7,1.1,2.6c0.2,0.5,0.4,1.2,0.6,1.8c-0.1-0.2-0.3-0.5-0.4-0.8c-0.7-1.2-1.6-2.1-1.6-2.1   l-0.6-0.6l0,0.9c0,0,0,0.9-0.3,2.1c-0.1,0.4-0.2,0.8-0.2,1.1c-0.1-0.2-0.2-0.4-0.4-0.6c-0.6-0.9-1.2-1.6-1.2-1.6l-0.6-0.7l-0.1,0.9   c-0.1,1.5-0.3,2.6-0.7,3.9c-0.3,0.9-0.8,1.8-1.2,2.4c-0.2,0.3-0.4,0.6-0.5,0.7c-0.2-0.2-0.3-0.4-0.5-0.6C50.6,51,50.9,50.6,51,50.4    M42.5,56.5c-1.5-2.8,0.7-5.9,3.4-6c2.7-0.1,5.2,2.1,5.7,5.2c0.1,0.4,0.1,0.4,0.1,0.8l-3.2,0c-0.1-0.7-0.2-1.2-0.5-1.6   c-1.6-1.8-3.3-0.2-3.3-0.2s-0.4,0.6-0.2,0.8c0.2,0.2,0.7,0.1,0.7,0.1s0.9-0.7,1.7-0.1c0.8,0.6,1,1.6,0.4,2.4   C46.8,58.9,44,59.3,42.5,56.5 M30.4,42.5c0,0,1.4,1.1,5.2,5.3c3.8,4.1,3,4.6,1.6,6.6c-1.4,1.9-1.5,3.5-0.7,4.9   c0.8,1.4,3.1,3.1,6.4,2.4c1-0.2,3.3-0.8,4.4-1.6c-0.2,0.8-0.6,2-1.5,3.9c0,0,0,0.1-0.1,0.1c-1.1,2-2,2.3-2,2.3l-2-1.4   c0,0-0.6,0.5-0.9,0.7c-0.6,0.4-1.3,0.7-1.3,0.7s-0.5-0.2-0.9-0.7c-0.4-0.4-1-1.5-1-1.5s-0.7,0.6-1.4,0.9c-0.6,0.3-1.9,0.4-1.9,0.4   s-0.7-0.5-1-1.2C33,63.7,33,62.5,33,62.5s-0.2,0-0.6,0l0,0c0,0,0,0,0,0c-0.3,0-0.7-0.1-1.1-0.2c-0.8-0.2-1.4-0.7-1.4-0.7   s0.1-0.5,0.5-1c0.6-0.7,1.5-1.3,1.5-1.3s-1-0.6-1.7-1.1c-0.7-0.6-1.1-1.7-1.1-1.7s0.3-0.5,0.9-1.1c0.7-0.7,1.7-1,1.7-1   s-0.7-0.8-1.2-1.3c-0.4-0.5-0.7-1.8-0.7-1.8s0.5-0.4,1.4-0.5c1.2-0.2,2.2-0.2,2.2-0.2s-0.6-0.6-1.3-1.3c-0.7-0.7-2.9-3-3-4.3   C29,43,30.4,42.5,30.4,42.5 M25.1,53.9c1.9,0.5,3.9,0.7,4.6,0.8c-0.1,0-0.1,0.1-0.2,0.1c-0.8,0.6-1.2,1-1.3,1.4   c0.2,0.5,0.4,0.8,0.4,0.8c-0.4,0.1-1.5,0.1-2.6,0c-2.4-0.2-4-1.2-4.8-1.5c0.2-0.2,0.6-0.6,2-1.2C24.4,54,24.9,54,25.1,53.9    M20.3,50.1c0.3-0.2,0.9-0.6,2.2-0.7c0.8-0.1,1.3-0.1,1.6-0.1c1.7,1.2,4,2.1,4.9,2.4c0.3,0.8,0.6,1.3,0.9,1.6   c-0.6,0-1.9-0.1-4.6-0.8C23.1,52,21.2,51.1,20.3,50.1 M23.9,57.9c2,0.7,4.5,0.7,5.6,0.6c0.3,0.4,0.9,0.7,1.1,0.8   c-0.3,0.2-0.6,0.6-0.7,0.8c-0.8,0.1-1.6,0.3-3.2,0.3c-2.3,0.1-5-0.6-5.6-0.9c0.2-0.2,0.6-0.7,1.5-1.2c0.4-0.2,0.8-0.4,1.1-0.5   C23.7,57.9,23.8,57.9,23.9,57.9 M26.6,61.7c1.2,0.1,1.8-0.1,2.5-0.2c-0.2,0.2-0.2,0.5-0.2,0.5s0.6,0.7,1.6,1   c-0.3,0.1-1,0.5-1.3,0.6c-2.1,0.8-4.2,0.9-5.4,0.9c0.1-0.3,0.3-0.8,0.9-1.6c0.6-0.6,1.4-1,1.6-1.2C26.3,61.8,26.6,61.7,26.6,61.7    M27.7,66.5c0.1-0.5,0.3-1.1,0.4-1.3c1.9-0.5,4.1-1.9,4.1-1.9s0,0.8,0.4,1.8c0.1,0.1,0.1,0.2,0.2,0.3c-0.3,0.3-0.7,0.9-2.4,1.6   c-1.7,0.7-2.9,0.8-2.9,0.8S27.5,67.3,27.7,66.5 M31,68c1.9-1.2,2.1-1.7,2.5-2c0.1,0.1,0.4,0.5,0.5,0.6c0.3,0,0.7-0.1,1.2-0.3   c-0.2,0.6-0.5,1.8-1.7,3.1c-1,1.1-2.3,1.3-2.3,1.3s-0.2-0.5-0.2-1.2C30.9,68.8,30.9,68.2,31,68 M36,67C36,67,36,67,36,67   C36,67,36,67,36,67c0.1-0.4,0.2-0.8,0.2-1c0.7-0.2,1.1-0.5,1.1-0.5s0.3,0.7,0.7,1.2c0.2,0.2,0.4,0.4,0.7,0.6c0,0.6,0,1.7-0.5,2.6   c-0.7,1.4-2.1,1.7-2.1,1.7s-0.4-0.3-0.8-0.9c-0.3-0.5-0.4-0.9-0.4-1.2C35.3,68.7,35.9,67.6,36,67 M30.3,48.6   c0.9,0.9,1.4,1.4,1.4,1.4s-0.9,0.1-1.8,0.5c-0.6-0.2-2-0.8-3.8-1.8c-2-1.1-3.9-2.7-4.6-3.4c0.3-0.1,1.2-0.4,2.5-0.2   c0.8,0.1,1.3,0.3,1.7,0.3C27.5,47.4,29.4,48.2,30.3,48.6 M25,38.3c0.2,0.4,0.8,1.5,1.8,2.8c0.7,1,1.6,1.7,1.9,2   c-0.5,1-0.2,2.2-0.1,2.5c-0.5-0.3-1.5-0.9-2.5-2.2c-1.1-1.4-2-3.2-2-5C24,37.6,24.5,37.4,25,38.3 M13.6,25.4c0-1.8,1.3-2.3,1.8-1.1   c1.3,2.5,3.2,6.6,4.7,9c1.7,2.7,3.3,4.6,3.3,4.6c-0.3,1.5,0.2,2.7,0.2,2.9c-1.3-0.9-2.9-1.9-6.3-6.2C15.6,32.5,13.5,28.1,13.6,25.4    M11.7,36.9c-0.7-1.2-1.6-3.1-1.3-4.5c0,0,0.9,0.4,1.7,1.1c1.9,1.8,5,4,5.7,4.8c3.1,3.3,7,5.8,7,5.8s0.1,0.2,0.2,0.4   c-2.1-0.8-4.1,0-4.2,0c-0.6-0.3-1-0.3-5-3.2C14.6,40.4,12.8,38.7,11.7,36.9 M8.9,40.7c0.2,0,0.6-0.2,1.8,0c0.6,0.1,1.6,0.4,2.1,0.5   c0,0,0.1,0.1,0.2,0.1c3.2,3.2,7.4,4.9,8.7,5.4c0.4,0.6,0.9,1.3,1.6,1.9c0,0-0.9,0-1.9,0.2c-0.9-0.3-3-1-6.5-3   C11.2,43.8,9.5,41.9,8.9,40.7 M8.2,47.7c0.2,0,0.9-0.2,2.1-0.2c1.4,0,3.9,0.2,4.2,0.3c0.8,0.4,1.3,0.5,2.1,0.8   c1.1,0.4,2.6,0.7,3.3,0.9c-0.8,0.3-0.9,0.5-0.9,0.5s0.6,0.9,2.8,2.4c-1-0.1-3.6,0.1-8-1.2C10.5,50.2,9.3,49.1,8.2,47.7 M8.3,53.9   c0.3-0.1,0.9-0.4,1.9-0.6c1.3-0.2,2.7-0.2,3.4-0.2c1.7,0.6,2.9,0.6,4.2,0.7c2,0.1,3.7,0,4.9,0c0,0-0.7,0.1-1.8,0.9   c-0.6,0.4-0.9,1-0.9,1c0,0.1,0.4,0.4,0.5,0.5c-0.9,0.2-3.1,0.4-6.9-0.1C10.5,55.6,9,54.5,8.3,53.9 M9.3,60.2   c0.1-0.1,0.9-0.6,2.1-1.2c0.8-0.4,2.3-0.8,3.1-0.9c2,0.1,3.5,0,4.8-0.3c1.6-0.3,2.5-0.5,2.9-0.7c0,0,0.5,0.3,0.7,0.4   c-0.5,0.1-1.4,0.4-2,1c-0.7,0.7-0.9,1.1-0.9,1.2c0.2,0.3,1.1,0.7,1.1,0.7c-1.4,0.5-3,0.7-5.3,0.8C11.2,61.4,10,60.7,9.3,60.2    M10.6,66.6c0-0.2,0.5-0.9,1.5-1.9c0.6-0.5,1.5-1.2,1.9-1.3c3.3-0.1,5.4-0.7,6.9-1.3c1.3-0.5,1.9-0.8,2.1-1c1.2,0.4,2,0.5,2.2,0.5   c-0.8,0.3-2.5,2-7.1,3.9C13.9,67.3,12.2,67,10.6,66.6 M14.1,71.7c0,0,0.2-1.4,1.6-3.2c2.4-0.5,5.2-2.2,6.5-3.1   c0.2-0.2,0.3-0.1,0.6-0.3c0.7,0.3,2.1,0.3,2.7,0.3c-0.9,0.8-4.3,3.9-7,5.1C15.6,71.8,14.1,71.7,14.1,71.7 M22.3,73.9   c-2.1,1.5-3.8,1.7-3.8,1.7s-0.1-0.6,0.1-1.3c0.2-1.2,0.5-1.8,0.5-1.8c2.5-1.1,5.1-4,6.1-5.3c0.2-0.3,1.1-1.3,1.4-1.8   c0.2,0,0.4,0,0.6-0.1c-0.1,0.2-0.3,0.8-0.4,1.5c-0.1,1,0,1.9,0,1.9s0.2,0.1,0.4,0.1C26.5,69.5,24.6,72.3,22.3,73.9 M27.1,76.4   c-1.9,1.8-3.6,1.8-3.6,1.8s-0.1-0.7,0-1.4c0.1-0.6,0.3-1.8,0.4-1.9c2.1-1.8,3.4-4.5,4.2-6c0.6,0,1.3-0.1,2.1-0.4   c0,0.3-0.1,0.8,0,1.5c0.1,0.5,0.2,1.1,0.3,1.5C30,72.6,29,74.4,27.1,76.4 M32.9,77.1c-1.6,2-3.3,2.6-3.3,2.6s-0.5-0.4-0.5-2.9   c1.3-1.7,2.1-3.6,2.6-5.2c0.8-0.2,1.8-0.6,2.7-1.5c0.1,0.2,0.2,0.7,0.5,1.3c0.1,0.1,0.4,0.7,0.5,0.8C34.7,74.3,33.9,75.7,32.9,77.1    M38.1,77.4c-0.8,2.1-2.1,2.3-2.1,2.3s-0.6-1.3-0.7-3.4c0.5-1.3,0.8-2.1,1.1-3.6c0.5-0.2,1.3-0.7,2-1.5c0,0.1,0.4,1,0.7,1.4   C38.9,74.8,38.6,76.1,38.1,77.4 M40.4,72.5c0,0-0.3-0.2-0.7-0.9c-0.3-0.5-0.6-1-0.6-1.3c0-0.1,0.2-0.5,0.3-0.9   c0.2-0.8,0.3-1.5,0.2-2.1c0,0,0.4-0.2,1-0.6c0.7-0.4,1.1-0.8,1.1-0.8l1.3,1c0,0.4,0,1.7-0.7,3.1C41.6,71.7,40.4,72.5,40.4,72.5    M40.9,88.3c-0.2-0.6-0.1-0.9,0.2-1.3c0.3-0.4,0.6-1.2,0.8-1.1c0.2,0.1,0.1,0.5-0.1,0.7c-0.1,0.3-0.6,0.7-0.5,0.9   c0.1,0.2,0.6-0.1,0.6-0.1S41.7,88,42,88.1c0.3,0.1,0.4-0.3,0.6-0.3c0.2,0,0.5,0.7,0.9,0.7c0.4,0.1,0.9-0.5,0.9-0.5l0.8,0.2   c0,0,0.5,0.9-0.3,1.3c-0.7,0.3-1.2,0-1.8-0.5C42.5,88.5,41.1,88.9,40.9,88.3 M45,87.5c-0.1-0.2,0.2-0.4,0.2-0.4s0.1-0.3,0.2,0   c0.1,0.3,0.2,0.6,0,0.7C45.3,87.8,45,87.7,45,87.5 M44.7,92.6c-0.1-0.2-0.6,0.2-0.7-0.4c-0.1-0.5,0.2-0.5,0.7-0.2   c0.5,0.3,0.7,0.4,0.6,0.7C45.1,92.9,44.8,92.8,44.7,92.6 M45.7,91.4c-0.7,0.1-1.3-0.5-1.9-0.6c-0.6-0.2-1.2,0.1-1.7-0.5   c-0.5-0.6-0.1-0.9,0.1-0.9c0.2,0,0,0.3,0.2,0.4c0.2,0.1,0.3-0.2,0.4-0.1c0.1,0.1-0.1,0.4,0.1,0.5c0.2,0.1,0.1-0.3,0.4-0.2   c0.2,0.1,0.9,0.4,1.2,0.3c0.3-0.1,0.9-0.7,1.3-0.1C46.3,90.8,46.4,91.3,45.7,91.4 M46.5,89.4c0,0,0.7-0.5,0.5,0.1   c-0.1,0.6-0.2,1-0.6,0.4C45.9,89.5,46.5,89.4,46.5,89.4 M47,93.3c-0.6,0-0.9-0.1-0.8-0.8c0.1-0.7,0.1-0.3,0.7-0.4   c0.5-0.1,1-0.1,1,0.4C47.9,93.1,47.6,93.3,47,93.3 M47.9,91.8c-0.3-0.2-0.2-0.5-0.1-0.6c0.2-0.2,0.4-0.2,0.4,0.3   C48.3,92,48.2,92,47.9,91.8 M50.1,112.7c-1,0.7-2.2,0.8-3.2,0.6c-1.3-0.3-1.8-1-2.1-1.8c-0.4-1-0.2-2.7-0.2-3.4   c0-0.2,0.6-2.2,0.6-2.6c0.1-0.3,0.2-0.6-0.1-0.6c-0.5,0.1,0.1,0.5-1.4,1.3c-1.1,0.6-1.7,1.9-1.6,3.3c0.2,1.4,0.1,1.7,0.1,1.7   c0-0.1-0.1-0.5-0.3-1c-0.1-0.3-0.3-0.6-0.6-1.7c-0.3-1.1,0.3-1.8,0.9-2.7c0.6-0.8,1.4-1.5,1.4-1.5s-0.7-0.1-1.1-0.4   c-0.5-0.3-0.9-0.7-0.9-1.4c0-0.6,0.6-1.1,0.6-1.1s-0.1,0.7,0.3,1.3c0.3,0.4,1.2,0.8,2.1,0.8c0.9,0,2.5-1,3.2-1.8   c0.7-0.8,1.5-1.5,2.2-1.9c0.9-0.6,1.3-0.6,2-0.8c0.4,0,0.5,0,0.8,0c-1.6,0.8-4.1,2.9-5.7,5.8c-1.1,2-1.2,3.7-0.8,4.7   c0.4,1.1,1.2,1.6,1.9,1.6c0.8,0.1,1.4-0.1,2.1-0.2c0.6-0.1,1.2,0.1,1.5,0.4c0.5,0.4,0.4,0.7,0.4,0.7S51.2,112,50.1,112.7    M48.8,85.1l0.9-1l1.6,2.3L51,86.8L48.8,85.1z M50.4,87.4l-0.3,0.4l-2.2-1.5l0.3-0.3l0.1-0.2L50.4,87.4z M52,86.6l0.4,0.1l-1.6,1.9   l-0.1-0.3L52,86.6z M52.6,87.6l2.3,2.4l-0.8,0.9l-2.5-2.1L52.6,87.6z M55.5,90.5l0.2,0.2l-0.8,1.1l-0.3-0.2L55.5,90.5z M56.2,91.1   l14.5,14.8l-0.3,0.3L55.4,91.9L56.2,91.1z M70.3,86.9c0.7,0,0.8,0.2,0.2,0.7c-0.6,0.5-3.4,1.3-3.4,1.3s1.2,0.1,1.8,0.2   c0.7,0.1,0.9,0.2,0.5,0.7c-0.5,0.5-3.7,1-3.7,1s1.1,0.2,1.7,0.4c0.3,0.1,0.6,0.3-0.1,0.8c-0.7,0.5-3,1-3,1s1.4,0.5,0.6,1   c-0.9,0.5-2.9,0.9-2.9,0.9s1.2,0.4,1,0.8c-0.1,0.1-0.5,0.2-0.9,0.4l-2.2-2.3c4.1-4,7.5-7,10.1-8.3c2.6-1.3,2.8-1.1,1.8-0.1   c-1.1,1-3,1.5-3,1.5S69.6,86.9,70.3,86.9 M69.1,106.4l0.7,0.7c0,0,0,0,0,0h0c-1.6,0.3-1.6-0.3-1.6-0.3S68.6,106.8,69.1,106.4    M67.8,106.3c0,0-0.8-0.8-1.8-2.2c-0.6-0.9-1.1-1.5-1.8-2.5l4.4,4.3C68.2,106.3,67.8,106.3,67.8,106.3 M69.2,109.3   c0.6-0.8,0.4-1.3,0.4-1.3s0.4,0.1,1,0c0.3,0,0.6-0.2,0.6-0.2s0.3,0.7-0.2,1.3c-0.4,0.7-0.9,0.6-1.7,0.7c-0.6,0.1-0.8,0-0.8,0   S68.8,109.7,69.2,109.3 M59.9,97.3c0,0,0,0.1-0.1,0.1c-0.4,0.5-4.1,1.2-4.1,1.2l-7.3,6.9c0,0,0.1-0.8,1.2-2.1   c1.9-2.1,5.7-5.4,8.3-8L59.9,97.3z M49.4,109.8c0,0-0.6,0.1-1.1-0.4c-0.6-0.6-0.4-1.7-0.4-1.7s0.3,0.3,0.9,0.3c0.3,0,0.7,0,0.7,0   s-0.2,0.4-0.2,0.8C49.3,109.3,49.4,109.8,49.4,109.8 M49.2,107.4c-0.4-0.1-0.7-0.3-0.9-0.4l0.9-1c0.2,0.1,0.4,0.3,0.7,0.4   c0.7,0.3,1.5,0.2,1.5,0.2S51,107.7,49.2,107.4 M51.2,106c0,0-0.7-0.1-0.9-1l6-5.7c0,0,0.1,0,0.2,0c-0.1,0.3-0.2,0.6-0.4,0.9   c-0.9,1.6-1.9,2.5-2.7,3.3C52.6,104.3,51.2,106,51.2,106 M53,114.4c-1.1-0.3-1.9-1.3-1.9-1.3s0.5-0.1,1-0.1c0.5,0,1.1,0.3,1.1,0.3   s0-0.2-0.1-0.7c-0.1-0.4-0.1-0.8-0.7-1.5c-0.8-1-1.7-0.8-2-1c0,0-0.2-0.3-0.2-0.7c-0.1-0.4,0.1-0.7,0.3-0.9c0.2-0.2,0.9-0.4,1.4-1   c0.5-0.5,0.8-1.1,0.8-1.1h-0.5c0,0,1.2-1.5,2.7-3.2c1.3-1.5,2-3.1,2.3-3.8c0.2,0,0.1,0,0.3,0c-0.1,0.5-0.4,1.5-0.8,2.2   c-0.4,1-1.3,2.2-2,3.7c-0.9,1.8-1.7,3.4-1.6,4.8c0.2,3.2,3.9,4.4,3.9,4.4C57,114.4,55.1,115,53,114.4 M56.9,106.1   c-0.2,0.9-0.5,2.4-0.6,4c-0.1,1.8,0.2,3.1,0.2,3.1s-1.8-0.9-1.8-3c0-1.2,0.5-2.7,1-3.9c0.5-1.2,2.6-7,2.6-7l0.3,0   C58.2,100.9,57.1,105.4,56.9,106.1 M57.5,113.8c-0.3-0.1-0.4-3.1-0.3-4.4c0.2-2,0.7-4.3,1.3-7c0.2-1.1,0.4-2.2,0.6-3.1   c0.2,0,0.2-0.1,0.3-0.1c0,1.9,0.1,4.6,0,6.8c-0.1,0-0.7,1.3-0.8,1.7c-0.1,0.4-0.6,1.7-0.6,3.3c-0.1,1.5,0.2,2.5,0.2,2.5   S57.8,114,57.5,113.8 M59.7,117.1l-0.3-0.3c0,0-0.5-0.6-0.8-1c-0.5-0.6-0.6-1.1-0.6-1.1l0.5-0.2c0,0,0.3,0.6,0.6,1.2   c0.1,0.2,0.4,0.5,0.5,0.6L59.7,117.1z M59.7,115.3l-0.1-3c0-1.2-0.1-4.3-0.1-5.1c0,0,1.5,1.1,1.4,4.3   C60.9,113.6,60.2,114.5,59.7,115.3 M60.4,99.3c0.2,0,0.3,0.1,0.4,0.1c0,0,0,0,0,0s2.4,6,2.8,7.2c0.5,1.2,1,2.6,1,3.5   c0,2.7-2.4,3.8-2.4,3.8s0.8-1.6,0.8-3.7C63,107.8,60.8,100.7,60.4,99.3 M66.9,111.9c-0.8,2.4-3.3,2.5-4,2.4c0,0,1.8-0.7,2.3-2.6   c0.5-1.6,0.5-3.1-0.8-5.8c-1.1-2.3-2.5-5.7-2.8-6.7c0.2,0,0.2,0,0.3,0l0.1,0.1c0.3,0.5,1.1,1.9,2,3.8c1.2,2.4,1.8,3.3,2.3,4.4   C67.3,109.5,67.3,110.9,66.9,111.9 M68.5,100.3c0.3,0.2,0.7,0.6,1.1,1c0.7,0.6,2.5,2,3.8,2.3c1.6,0.3,2.9-0.1,3.3-0.8   c0.3-0.5,0.2-1,0.2-1s0.3,0.2,0.4,0.6c0.2,0.7-0.3,1.4-0.9,1.8c-0.8,0.4-1.8,0.5-2.7,0.3c-0.9,0-0.2,0.4,0.4,0.7   c1.4,1,3.2,1.3,3.3,2.6c0.1,1,0,1-0.2,2.1c-0.2,0.8-0.4,0.4-0.4,0.4s-0.1-0.5-0.3-0.8c-0.6-0.8-1.3-1-1.9-1.9   c-0.5-0.8-1.3-2.2-1.7-1.8c-0.3,0.1,2.1,3.5,0.4,5.7c-1.9,2.5-3.4,0.6-4.4,0.7c-0.5,0-1.4,0.6-1.4,0.6s0.2-1.3,0.6-1.7   c0.3-0.3,0.8-0.4,1.6-0.5c0.8-0.1,2.3-0.3,2.4-2.3c0-0.8-0.6-1.8-0.8-2.1l0.4-0.5l-6.4-6.5c0.2,0,0.2,0,0.3,0   C66,99.3,67.5,99.5,68.5,100.3 M70.4,91.5c-0.5,0.2-0.8,0.4-1.1,0.5c-0.2,0.1-0.4,0.1-0.6,0.2c-1.5,0.6-1.6,2.2-1.9,4.3   c-0.3,2.1-0.7,1.7-1.4,1.7c-0.1,0-0.6,0-1.3,0l-1.6-1.6c0.3-0.1,0.5-0.2,0.7-0.3c0.6-0.5,0.2-1,0.2-1s1.2-0.2,2.2-0.8   c1-0.6,0.4-1.2,0.4-1.2s1.3-0.4,2.1-1c1-0.7,0.3-1.4,0.3-1.4s1.1-0.1,1.7-0.8c1.2-1.2-0.2-1.4-0.2-1.4s1-0.3,1.6-0.9   c0.9-0.9-0.1-1.2-0.1-1.2s1.7-1.2,1.7-2.2c0-0.8-1-0.7-1.7-0.4c-0.9,0.3-2.3,1-4.3,2.4c-1.7,1.2-5.2,4.2-7.9,6.9l-2.8-2.9l-3.9-4.2   L52,86l-2.5-3l-2.9,3.2l3.1,2.3l0.1,0.3l4.5,3.5l3,2.8c-1.1,1.2-2,2.1-3.2,3.2c-0.3,0-0.2,0-0.3,0c-0.7,0-1.1,0.3-1.4-1.7   c-0.3-2.1-0.4-3.7-1.9-4.3c-0.5-0.2-0.9-0.4-1.7-0.8c0.2-0.8-0.3-1.3-0.6-1.2c-0.1,0-0.5,0.1-0.7,0.5c-0.1-0.1-0.1,0-0.2-0.1   c0,0,0.2-0.4,0.2-0.4c0.3-0.5,0.3-1.4-0.4-1.6c-0.5-0.1-0.7,0.1-0.7,0.1s-0.1,0.2-0.2-0.1c-0.1-0.3-0.1-0.4-0.1-0.6   c0-0.3,0-0.7-0.2-1.3c-0.2-0.7-0.8-0.7-1.2-0.4c-0.3,0.3-0.1,0.6-0.4,1c0,0-0.1,0-0.1,0c-0.3-0.5-0.5-0.8-0.8-1.4   c-2-4.5-0.7-10.3-0.1-12.7c0.6-2.4,2.6-6.7,3.6-8.9c0.5-1,1-2.1,1.3-3.8l3.4-0.9c-0.2,1.8-0.7,3.9-1.2,5.4c-0.7,2.4-2,6.1-2.5,8   c-0.5,1.9-0.9,6.2,0.9,8.8c1.6,2.2,3.6,3.5,5.3,4.1V60.2l0.9-0.7v26.7c0.6,0.2,1.1,0.3,1.7,0.4V60.2l0.9-0.7v27.3   c0.5,0.1,1.1,0.1,1.7,0.1V60.2l0.9-0.7v27.4c0.6,0,1.1-0.1,1.7-0.1V60.2l0.9-0.7v27.1c0.5-0.1,1.1-0.3,1.7-0.4v-26l0.9-0.7v26.4   c1.7-0.6,3.8-1.9,5.3-4.1c1.8-2.6,1.4-6.9,0.9-8.8c-0.5-1.9-1.8-5.6-2.5-8c-0.4-1.4-0.8-2.7-1.1-4.6l3.2-0.8c0,0.3,0.1,0.5,0.1,0.7   l0,0.1c0.3,1.4,0.7,2.4,1.1,3.3c0.1,0.2,0.2,0.4,0.2,0.5c1,2.1,2.9,6.4,3.6,8.9c0.6,2.4,1.9,8.2-0.1,12.7c-0.1,0.2-0.2,0.4-0.3,0.6   c-0.2,0.3-0.3,0.5-0.5,0.9c0,0-0.1,0-0.1,0c-0.3-0.3-0.1-0.7-0.4-1c-0.4-0.3-0.9-0.2-1.2,0.4c-0.2,0.7-0.3,1.1-0.2,1.3   c0,0.3,0,0.4-0.1,0.6c-0.1,0.3-0.2,0.1-0.2,0.1s-0.2-0.3-0.7-0.1c-0.7,0.2-0.6,1.1-0.4,1.6c0,0,0.2,0.4,0.2,0.4   c-0.1,0.1-0.1,0-0.2,0.1c-0.3-0.4-0.6-0.4-0.7-0.5C70.7,90.2,70.3,90.7,70.4,91.5 M74.3,87.5c-0.1,0.2-0.3,0.3-0.4,0.3   c-0.1,0-0.1-0.3,0-0.7c0.1-0.3,0.2,0,0.2,0S74.4,87.3,74.3,87.5 M72.9,90c-0.4,0.5-0.5,0.1-0.6-0.4c-0.1-0.6,0.5-0.1,0.5-0.1   S73.3,89.5,72.9,90 M71,91.5c0.1-0.5,0.3-0.5,0.4-0.3c0.2,0.2,0.3,0.4-0.1,0.6C71,92,70.9,92,71,91.5 M72.3,93.3   c-0.6,0-0.9-0.2-0.9-0.8c0-0.6,0.5-0.5,1-0.4c0.5,0.1,0.5-0.3,0.7,0.4C73.2,93.2,72.9,93.3,72.3,93.3 M74.6,92.6   c-0.1,0.2-0.5,0.3-0.6,0.1c-0.1-0.2,0.1-0.4,0.6-0.7c0.5-0.3,0.8-0.3,0.7,0.2C75.2,92.7,74.7,92.4,74.6,92.6 M77.2,90.3   c-0.5,0.6-1,0.3-1.7,0.5c-0.6,0.2-1.2,0.7-1.9,0.6c-0.7-0.1-0.7-0.6-0.2-1.2c0.5-0.6,1,0,1.4,0.1c0.3,0.1,1-0.2,1.2-0.3   c0.2-0.1,0.2,0.2,0.4,0.2c0.2-0.1,0-0.4,0.1-0.5c0.1-0.1,0.2,0.2,0.4,0.1c0.2-0.1,0.1-0.3,0.2-0.4C77.3,89.4,77.7,89.6,77.2,90.3    M77.2,88.1c0.3-0.1,0.1-0.7,0.1-0.7s0.5,0.3,0.6,0.1c0.1-0.2-0.4-0.6-0.5-0.9c-0.1-0.3-0.3-0.7-0.1-0.7c0.2-0.1,0.5,0.7,0.8,1.1   c0.3,0.4,0.4,0.7,0.2,1.3c-0.2,0.6-1.6,0.2-2.3,0.7c-0.7,0.5-1.1,0.9-1.8,0.5c-0.7-0.3-0.3-1.3-0.3-1.3l0.8-0.2   c0,0,0.5,0.6,0.9,0.5c0.4-0.1,0.7-0.7,0.9-0.7C76.8,87.8,76.9,88.2,77.2,88.1 M79.6,71.6c-0.4,0.7-0.7,0.9-0.7,0.9   s-1.2-0.8-1.9-2.5c-0.7-1.4-0.7-2.7-0.7-3.1l1.3-1c0,0,0.4,0.3,1.1,0.8c0.7,0.4,1,0.6,1,0.6c-0.1,0.6,0.1,1.3,0.2,2.1   c0.1,0.4,0.3,0.9,0.3,0.9C80.2,70.6,79.9,71.2,79.6,71.6 M83.3,79.7c0,0-1.3-0.2-2.1-2.3c-0.5-1.3-0.8-2.6-1-4.8   c0.2-0.4,0.6-1.3,0.7-1.4c0.7,0.8,1.5,1.3,2,1.5c0.4,1.5,0.6,2.3,1.1,3.6C83.9,78.3,83.3,79.7,83.3,79.7 M89.7,79.7   c0,0-1.7-0.6-3.3-2.6c-1-1.3-1.7-2.7-2.5-4.9c0.1-0.1,0.4-0.7,0.5-0.8c0.3-0.6,0.4-1,0.5-1.3c0.9,0.8,1.9,1.3,2.7,1.5   c0.6,1.6,1.3,3.6,2.6,5.2C90.1,79.3,89.7,79.7,89.7,79.7 M95.8,78.2c0,0-1.7,0-3.6-1.8c-2-1.9-2.9-3.8-3.4-5c0.1-0.3,0.3-1,0.3-1.5   c0.1-0.7,0-1.3,0-1.5c0.7,0.3,1.5,0.4,2.1,0.4c0.8,1.6,2.1,4.2,4.2,6c0,0.2,0.3,1.3,0.4,1.9C95.8,77.5,95.8,78.2,95.8,78.2    M100.8,75.6c0,0-1.7-0.2-3.8-1.7c-2.4-1.7-4.2-4.4-4.8-5.2c0.3,0,0.4-0.1,0.4-0.1s0.1-0.9,0-1.9c-0.1-0.7-0.3-1.3-0.4-1.5   c0.2,0,0.4,0,0.5,0.1c0.4,0.5,1.2,1.6,1.4,1.8c1,1.3,3.6,4.2,6.1,5.3c0,0,0.3,0.6,0.5,1.8C100.9,75.1,100.8,75.6,100.8,75.6    M105.2,71.7c0,0-1.5,0.1-4.4-1.2c-2.7-1.2-6.1-4.3-7-5.1c0.6,0,2.1,0,2.7-0.3c0.3,0.2,0.3,0.2,0.6,0.3c1.3,0.9,4.2,2.6,6.5,3.1   C105,70.3,105.2,71.7,105.2,71.7 M107.2,64.7c1,0.9,1.4,1.7,1.5,1.9c-1.6,0.4-3.3,0.7-7.6-1c-4.6-1.9-6.3-3.6-7.1-3.9   c0.2,0,1-0.1,2.2-0.5c0.3,0.2,0.8,0.5,2.1,1c1.5,0.6,3.7,1.2,6.9,1.3C105.7,63.5,106.7,64.2,107.2,64.7 M107.9,59   c1.2,0.6,2,1.1,2.1,1.2c-0.7,0.5-1.9,1.2-6.5,1c-2.3-0.1-3.9-0.3-5.3-0.8c0,0,0.9-0.4,1.1-0.7c-0.1-0.1-0.2-0.6-0.9-1.2   c-0.6-0.6-1.5-0.8-2-1c0.2-0.1,0.7-0.4,0.7-0.4c0.4,0.1,1.3,0.4,2.9,0.7c1.3,0.2,2.8,0.4,4.8,0.3C105.6,58.2,107.2,58.5,107.9,59    M105.7,56c-3.9,0.5-6,0.3-6.9,0.1c0.1-0.1,0.5-0.4,0.5-0.5c0,0-0.3-0.6-0.9-1c-1.1-0.8-1.8-0.9-1.8-0.9c1.2,0,2.9,0.1,4.9,0   c1.3-0.1,2.4-0.1,4.2-0.7c0.8,0,2.2,0,3.4,0.2c1,0.2,1.5,0.5,1.9,0.6C110.3,54.5,108.7,55.6,105.7,56 M86,56.9l2.3,0.2l0.5-0.7   l-0.6-0.5L86,56.2L86,56.9z M36.6,35.2c0,0,0-0.2,0-0.4c0-0.3,0-0.6,0-0.6s-0.7,0.6-0.9,1.2c-0.2,0.7-0.2,0.8-0.2,0.8   s0.1-0.3,0.8-0.4c0.7-0.2,1.6-0.1,1.6-0.1l0.2-0.4c0,0-0.3-0.2-0.8-0.2C36.9,35.2,36.6,35.2,36.6,35.2 M83,35.9   c0.7,0.2,0.8,0.4,0.8,0.4s0-0.2-0.2-0.8c-0.2-0.7-0.9-1.2-0.9-1.2s0,0.3,0,0.6c0,0.2,0,0.4,0,0.4s-0.3-0.1-0.8,0   c-0.5,0-0.8,0.2-0.8,0.2l0.2,0.4C81.4,35.8,82.3,35.7,83,35.9 M63.2,15.5c0.3,0.5,0.6,1,0.8,1.4c0.2-0.1,0.3-0.3,0.5-0.5   c0.1-0.1,0.3-0.3,0.4-0.4c-0.2-0.4-0.5-0.9-0.8-1.4C63.8,15,63.4,15.4,63.2,15.5 M64.3,13.6c0.3-0.4,0.6-0.6,0.8-0.9   c-0.1-0.2-0.2-0.3-0.4-0.5c-0.2-0.2-0.3-0.3-0.4-0.5c-0.1,0.1-0.3,0.3-0.4,0.4c-0.2,0.2-0.3,0.3-0.5,0.4c0.3,0.3,0.6,0.6,0.8,0.9   C64.2,13.5,64.2,13.5,64.3,13.6 M54.8,13.5c0.2-0.3,0.5-0.6,0.8-0.9c-0.2-0.2-0.3-0.2-0.5-0.4c-0.2-0.2-0.3-0.3-0.4-0.4   c-0.1,0.2-0.3,0.3-0.4,0.5c-0.2,0.2-0.3,0.3-0.4,0.5c0.3,0.3,0.5,0.5,0.8,0.9C54.7,13.5,54.7,13.5,54.8,13.5 M45.7,21.6   c-0.1-0.2-0.3-0.4-0.5-0.7l-0.7,0.7c0.2,0.2,0.3,0.4,0.5,0.7C45.2,22.2,45.5,21.8,45.7,21.6 M55.7,15.6c-0.2-0.2-0.6-0.5-0.9-0.9   c-0.3,0.5-0.6,1-0.8,1.4c0.1,0.1,0.3,0.3,0.4,0.4c0.2,0.2,0.4,0.3,0.5,0.5C55.1,16.5,55.4,16,55.7,15.6 M75,21.8l-0.7-0.7   c-0.2,0.2-0.4,0.5-0.5,0.7c0.2,0.2,0.5,0.6,0.7,0.8C74.7,22.3,74.8,22.1,75,21.8 M22.9,27.4c0.8-0.3,1.2-0.2,1.9,0   c0.8,0.2,1.7-0.1,1.7-0.1s-0.9,0.5-1.2,1.3c-0.3,0.8,0.1,2.1,1.2,2.3c1.2,0.2,1.6,0.1,2.1,0.2c0.5,0.1,1.2,0.1,1.2,0.1   s-0.5-0.6-0.9-0.9c-0.4-0.3-1-0.6-0.8-1.2c0.2-0.5,1.2-1.2,2-1.9c0.9-0.8,0.8-2,0.2-2.8c-0.7-0.9-1.1-1.6-1.8-2.5c-0.7-1,0-2,0-2   s1.2-0.1,2.3-0.3c1-0.2,1.6-0.5,1.6-0.5s-0.1,1.1-0.2,2c-0.1,0.7-0.7,2.5,0.3,3.9c0.8,1.2,3.2,2,3.9,2.1c0.9,0.2,1.6,0.3,2.6,0.3   l0.1,0c0.8,0.1,1.7,0.1,4.3,0.1c2.6,0,4.6-0.2,6.1-0.4c1.5-0.2,2.5-0.4,3.1-0.6c2.9-0.9,4.6-2.9,4.6-2.9s1.1,0.5,2.3,0.5   c1,0,2.1-0.4,2.1-0.4s1.9,1.9,3.5,2.6c1.4,0.5,2.9,0.9,4.5,1.1l0.2,0c1.5,0.2,3.4,0.4,6,0.4c2.5,0,3.5,0,4.3-0.1l0.1,0   c0.9-0.1,1.7-0.1,2.6-0.3c0.8-0.2,3.2-0.9,3.9-2.1c1-1.5,0.4-3.2,0.3-3.9c-0.2-1-0.2-2-0.2-2s0.5,0.3,1.6,0.5   c1,0.2,2.3,0.3,2.3,0.3s0.8,1.1,0.1,2c-0.7,0.9-1.2,1.6-1.8,2.5c-0.6,0.8-0.7,2,0.2,2.8c0.8,0.7,1.8,1.4,2,1.9   c0.2,0.6-0.4,0.9-0.8,1.2c-0.4,0.3-0.9,0.9-0.9,0.9s0.7,0,1.2-0.1c0.5-0.1,0.9,0,2.1-0.2c1.2-0.2,1.5-1.5,1.2-2.3   c-0.3-0.8-1.2-1.3-1.2-1.3s1,0.3,1.7,0.1c0.8-0.2,1.2-0.3,1.9,0c0.8,0.3,0.8,0.7,0.8,0.7s0.4-0.9,0.3-1.7c-0.2-0.9-1.3-1.4-2.5-1.5   c-1.2-0.1-0.5-0.9,0-1.3c0.5-0.5,1.8-1.4,1.4-2.9c-0.3-1.5-1.7-2-3.5-2.4c-1.8-0.5-2-2-2.9-2.7c-1.6-1.3-3-0.3-3.6,0.1   c-0.5,0.4-1.4,0.4-2,0.6c-0.6,0.2-1.1,0.6-1.8,1.7c-0.9,1.7,0.4,3.4,1,5.2c0.6,1.8-0.2,3.1-2.3,3.6c-0.8,0.2-1.5,0.2-1.6,0.2   c0-0.2,0.1-0.4,0.1-0.5c0.1-0.2,0.3-1,0.7-1.8c0.4-0.8,0.9-2.3,0.9-2.3c0.1-1.1-0.6-1.8-1-2c-0.4-0.2-0.9-0.3-1.7-0.6   c-0.6-0.2-0.9-0.4-1.1-0.5c0.1-0.2,0.1-0.4,0.1-0.6c0-0.2-0.1-0.5-0.2-0.7h0.2l0-0.1l-0.8-1.2l1.2,0.3l0-1.3l-1.3,0.3l0.3-1.3   l-1.4,0l0.3,1.4l-1.2-0.4l0,1.3l1.1-0.3l-0.7,1.3l0,0.1h0.2c0,0,0,0,0,0.1c-0.1,0.2-0.2,0.4-0.2,0.6c0,0.2,0.1,0.4,0.1,0.6   c-0.1,0.1-0.4,0.4-1.1,0.5c-0.8,0.2-1.4,0.4-1.7,0.6c-0.4,0.2-1.1,0.9-1,2c0.1,1.1,0.4,1.5,0.9,2.3c0.4,0.8,0.7,1.6,0.7,1.8   c0,0.1,0,0.2,0.1,0.4c-0.1,0-0.6,0-0.7,0C72.2,26.6,71,26.5,70,26l0,0c-2.2-1-4-2.7-4.7-3.7c-0.7-1.2-0.7-1.8-0.6-2.2   c0.1-0.5,0.3-1.2,0.3-1.2c0.2-0.6,0.5-1.2,0.9-2.1c0.7-1.3,1.2-2.1,1.2-3.4c0-1.7-0.6-2.6-1.5-3.1c-0.6-0.4-1.4-0.5-2.7-0.9   c-1-0.3-1.7-0.8-1.9-1c0.1-0.3,0.3-0.5,0.3-0.8c0-0.3-0.1-0.7-0.3-0.9C61,6.6,61,6.5,61,6.5h0.2l0-0.2L60,4.8L61.7,5l-0.1-1.7   l-1.5,0.4L60.6,2h-2.1l0.4,1.6l-1.7-0.3v1.9L59,4.8l-1.3,1.6l0,0.2h0.2c-0.2,0.3-0.3,0.7-0.3,1.1c0,0.3,0.1,0.7,0.3,1   c-0.2,0.2-0.7,0.5-1.8,0.8c-1.3,0.3-2.1,0.4-2.8,0.9c-0.8,0.5-1.4,1.5-1.3,3.3c0.1,1.5,1,2.8,1.7,4.1c0.7,1.3,0.7,1.9,0.8,2.3   c0.1,0.3,0,0.8,0,1.1c-0.1,0.5-0.1,0.8-0.6,1.4c-0.9,1.2-2.1,2.2-4.3,3.3c-1.2,0.6-2.4,0.9-2.9,0.9c-0.1,0-0.6,0-0.7,0   c0-0.2,0.1-0.3,0.1-0.4c0-0.2,0.3-1,0.7-1.8c0.4-0.8,0.8-1.2,0.9-2.3c0.1-1.1-0.6-1.8-1-2c-0.4-0.2-0.9-0.3-1.7-0.6   c-0.6-0.2-1-0.4-1.1-0.6c0.1-0.2,0.1-0.4,0.1-0.6c0-0.2-0.1-0.4-0.2-0.6c0,0,0-0.1,0-0.1h0.2l0-0.1l-0.7-1.3l1.1,0.3l0-1.3   l-1.2,0.4l0.3-1.4l-1.4,0l0.3,1.3l-1.3-0.3l0,1.3l1.2-0.3l-0.8,1.2l0,0.1h0.2c-0.1,0.2-0.2,0.4-0.2,0.7c0,0.2,0.1,0.4,0.2,0.6   c-0.1,0.1-0.4,0.4-1.1,0.5c-0.8,0.2-1.4,0.4-1.7,0.6c-0.4,0.2-1.1,0.9-1,2c0.1,1.1,0.4,1.5,0.9,2.3c0.4,0.8,0.7,1.6,0.7,1.8   c0,0.2,0.1,0.4,0.1,0.5c-0.1,0-0.8,0-1.6-0.2c-2.1-0.4-2.9-1.8-2.3-3.6c0.7-1.8,2-3.5,1-5.2c-0.6-1.1-1.2-1.5-1.8-1.7   c-0.6-0.2-1.4-0.1-2-0.6c-0.5-0.4-2-1.4-3.6-0.1c-0.9,0.7-1.1,2.3-2.9,2.7c-1.8,0.5-3.2,0.9-3.5,2.4c-0.3,1.5,1,2.5,1.4,2.9   c0.5,0.5,1.1,1.3,0,1.3c-1.2,0.1-2.3,0.6-2.5,1.5c-0.2,0.9,0.3,1.7,0.3,1.7S22.1,27.7,22.9,27.4 M85.5,17c0.7-0.1,1-0.3,1.7-0.6   c0.7-0.4,1.3-0.9,2.1-0.5c0.7,0.3,1.1,1,1.7,1.7c0.5,0.7,1.2,1.2,1.7,1.4c0.5,0.2,1.7,0.3,2.3,0.7c1,0.5,1.2,1.6,0.4,2.8   c-0.9,1.3-1.7,1.7-1.6,2.3c0.2,0.6,0.9,1,1.6,1c1.8,0.2,1.8,1.2,1.8,1.2s-0.7-0.7-2-0.3c-0.5,0.1-1.4,0.3-1.9,0.2   c-0.5-0.1-0.9-0.5-0.9-0.5s-0.4,0.6-0.2,0.9c0.3,0.4,0.6,0.5,0.9,1c0.4,0.4,0.9,1.2-0.2,1.8c-0.7,0.4-1.4,0.3-1.4,0.3   s1-0.3,0.7-1.3c-0.2-0.7-1.2-1.4-1.8-1.8c-1-0.7-0.9-1.6-0.4-2.5c0.5-0.8,1.4-1.8,2.1-3c0.6-1,0.1-1.5,0.1-1.5s2.3-0.4,2,1.4   c-0.1,0.7,0,1.4,0.4,0.9c0.4-0.5,0.8-1.6,0.1-2.2c-0.7-0.6-1.5-0.7-2.6-0.9c-1.1-0.2-2.9-0.2-4.2-0.8c-1.4-0.6-1.1-0.6-1.8-0.8   c-1.3-0.5-2.2,0.3-2.2,0.3S84.4,17.2,85.5,17 M84,20.8c-0.4-1,0.3-1.7,1.2-1.9c0.5-0.1,0.9,0.2,0.9,0.2s0,0.5,0,0.7   c0,0.2,0.2,1.2,0.4,2.3c0.4,1.7-0.2,2.6-1.3,3.6c-0.6,0.5-1.2,0.7-1.2,0.7s0.3-0.3,0.6-0.8c0.4-0.8,0.6-1.4,0.3-2.3   C84.6,22.3,84.4,21.8,84,20.8 M79.5,26.6c0,0.2,0,0.3,0,0.3s-0.9-0.2-2.6-0.3c-1.7,0-2.7,0.2-2.7,0.2v-0.2c0-0.1,0-0.3,0-0.3   s1.2-0.4,2.6-0.4c1.4,0,2.7,0.5,2.7,0.5S79.5,26.4,79.5,26.6 M74.8,24.6c0,0,0.6-0.2,0.9,0c0.4,0.2,0.7,0.9,0.7,0.9s-0.7,0.1-1-0.1   C75.1,25.2,74.8,24.6,74.8,24.6 M76.9,25.2c0,0-0.3-0.5-0.3-1c0-0.6,0.4-1,0.4-1s0.4,0.6,0.3,1.1C77.2,24.7,76.9,25.2,76.9,25.2    M78.1,24.7c0.4-0.2,0.9,0,0.9,0s-0.2,0.5-0.6,0.6c-0.3,0.2-1.2,0.2-1.2,0.2S77.7,24.9,78.1,24.7 M78.2,20.1l0.1,0.1   c0,0,0,0.4-0.1,1c0,0,0.1,0.1,0.1,0.1l0.7-0.6c-0.2-0.3-0.4-0.4-0.4-0.4l0.5,0.1l0.5,0.1c0,0,0.2,0.1,0.7,0.8   c0.2-0.2,0.3-0.4,0.3-0.4s0.2,0.1,0.3,0.3c0.1,0.2,0.1,0.3,0.1,0.3c-0.1,0.1-0.2,0.3-0.3,0.4c0.3,0.6,0.4,0.7,0.4,0.7   c0,0-0.1,0.2-0.2,0.4c-0.1,0.3-0.2,0.3-0.2,0.3s-0.2-0.5-0.4-1c-0.2,0.2-0.4,0.6-0.6,0.8c0.4,0.8,0.5,1.2,0.5,1.2   c0,0,0,0.1-0.2,0.3c-0.2,0.3-0.3,0.6-0.3,0.6c0,0-0.1-0.8-0.6-1.6c-0.4,0.3-0.6,0.5-0.6,0.5l-0.6-0.5c0,0,0.4-0.2,0.8-0.7   c-0.3-0.4-0.6-0.8-0.7-0.9c-0.2,1-0.3,1.5-0.3,1.5l-0.6-0.3c0,0,0.1-0.6,0.2-1.7c0.1-0.9,0.1-1.8,0.1-1.8L78.2,20.1z M76.9,18   c0.3,0,0.6,0.3,0.6,0.6c0,0.3-0.3,0.6-0.6,0.6s-0.6-0.3-0.6-0.6C76.3,18.2,76.6,18,76.9,18 M73.5,22.4c-0.2,0.5-0.4,1-0.4,1   s-0.1-0.1-0.2-0.3c-0.1-0.3-0.2-0.4-0.2-0.4c0,0,0.1-0.1,0.4-0.7c-0.1-0.1-0.2-0.3-0.3-0.4c0,0,0-0.1,0.1-0.3   c0.1-0.2,0.3-0.3,0.3-0.3s0.1,0.1,0.3,0.4c0.5-0.7,0.7-0.8,0.7-0.8l0.5-0.1l0.5-0.1c0,0-0.2,0.2-0.4,0.4l0.7,0.6   c0,0,0.1-0.1,0.1-0.1c-0.1-0.6-0.1-1-0.1-1l0.1,0l0.7-0.3c0,0,0,0.9,0.2,1.8c0.1,1.1,0.1,1.5,0.1,1.5L76,23.5c0,0-0.1-0.6-0.3-1.5   c-0.1,0.2-0.4,0.5-0.7,0.9c0.5,0.5,0.8,0.7,0.8,0.7l-0.6,0.5c0,0-0.2-0.2-0.6-0.5c-0.5,0.8-0.6,1.6-0.6,1.6c0,0-0.1-0.3-0.3-0.6   c-0.1-0.2-0.2-0.3-0.2-0.3c0,0,0.1-0.4,0.5-1.2C73.9,23,73.7,22.6,73.5,22.4 M59.4,23c-1,0-1.7-0.3-1.7-0.3l0.7-0.9   c0,0,0.4,0.5,1,0.5c0.6,0,0.9-0.6,0.9-0.6l0.7,0.9C61.1,22.7,60.4,23,59.4,23 M59.6,20.6c-2.8,0.1-4.4,0.4-4.4,0.4s0-0.3,0-0.5   c0-0.2-0.1-0.4-0.1-0.4s2.2-0.9,4.5-0.8c2.4,0.1,4.4,0.7,4.4,0.7s0,0.4,0,0.5V21C64,21,62.4,20.5,59.6,20.6 M59.5,12.9   c-0.3,0-0.6-0.3-0.6-0.6c0-0.3,0.3-0.6,0.6-0.6c0.3,0,0.6,0.3,0.6,0.6C60.1,12.6,59.8,12.9,59.5,12.9 M59.9,13.9   c0,0.2-0.2,0.4-0.4,0.4c-0.2,0-0.4-0.2-0.4-0.4c0-0.2,0.2-0.4,0.4-0.4C59.7,13.5,59.9,13.7,59.9,13.9 M59.5,14.9   c0,0,0.6,0.7,0.6,1.7c0,0.9-0.5,1.7-0.5,1.7s-0.5-0.8-0.6-1.6C58.9,15.8,59.5,14.9,59.5,14.9 M59.5,11.2c-0.5,0-0.9-0.4-0.9-0.9   c0-0.5,0.4-0.9,0.9-0.9c0.5,0,0.9,0.4,0.9,0.9C60.4,10.8,60,11.2,59.5,11.2 M55.8,17.3c0,0,1.2-0.1,1.8,0.2   c0.6,0.3,1.2,1.3,1.2,1.3s-1.4,0.1-1.9-0.2C56.4,18.3,55.8,17.3,55.8,17.3 M60.2,18.8c0,0,0.7-1.1,1.3-1.4c0.6-0.3,1.6-0.3,1.6-0.3   s-0.6,1-1.1,1.3C61.4,18.7,60.2,18.8,60.2,18.8 M65.2,23.9c1.6,1.4,3.8,2.4,3.8,2.4s-2.7-0.6-4.6-1.9c-1.8-1.2-2.6-2.6-2.6-2.6   l1.7,0.1C63.5,21.9,63.9,22.8,65.2,23.9 M62.1,12.9c0,0,0.1-0.1,0.3-0.3c-0.1-0.1-0.2-0.3-0.2-0.3l0.1-1c0,0,0.3,0.4,0.6,0.7   c0.1-0.1,0,0,0.1-0.1c0.3-0.3,0.5-0.6,0.7-0.8c-0.7-0.8-1.2-1.2-1.2-1.2l0.6,0.1l0.7,0.2c0,0,0.1,0,0.4,0.3   c0.1-0.1,0.1-0.1,0.1-0.1l0.6,0.3c0,0,0,0.1-0.2,0.4c0.2,0.2,0.3,0.4,0.5,0.6c0.1,0.1,0.2,0.2,0.3,0.3c0.3-0.4,0.4-0.6,0.4-0.6   l0.3,0.7c0,0-0.1,0.1-0.3,0.4c0.3,0.7,0.5,1.1,0.5,1.1l-0.3,0.8c0,0-0.2-0.6-0.7-1.4c-0.2,0.3-0.5,0.5-0.8,0.9   c0.4,0.5,0.7,1,0.8,1.3c0.3-0.4,0.5-0.6,0.5-0.6l-0.5,0.9c0,0,0,0,0,0l-0.4,0.8c0,0-0.2,0.2-0.3,0.3c-0.1,0.1-0.3,0.3-0.5,0.5   c0.1,0.3,0.2,0.5,0.2,0.5l-0.3,1.1c0,0-0.7-1.7-1.3-2.6c-0.7-1-1.2-1.6-1.2-1.6l0.2-0.8c0,0,0.3,0.2,1,1.1c0.2-0.2,0.5-0.5,0.9-0.9   c0,0,0,0,0,0c-0.3-0.4-0.6-0.8-0.9-1c-0.5,0.4-0.9,0.8-0.9,0.8L62.1,12.9z M61.1,9.3l0.7,0.4l0.2,0c0,0-0.1,1.3-0.4,2.9   c-0.3,1.7-0.6,2.8-0.6,2.8l-0.6-0.3c0,0,0.1-0.9,0.3-2.7C60.9,10.9,61.1,9.3,61.1,9.3 M59.4,6.4c0.6,0,1.2,0.5,1.2,1.2   c0,0.6-0.5,1.2-1.2,1.2c-0.6,0-1.2-0.5-1.2-1.2C58.3,6.9,58.8,6.4,59.4,6.4 M57.3,9.8l0.7-0.4c0,0,0.2,1.6,0.3,3.1   c0.2,1.7,0.3,2.7,0.3,2.7l-0.6,0.3c0,0-0.3-1-0.6-2.8c-0.3-1.6-0.4-2.9-0.4-2.9L57.3,9.8z M54.1,17c-0.1-0.1-0.3-0.3-0.3-0.3   l-0.4-0.8c0,0,0,0,0,0l-0.5-0.9c0,0,0.2,0.2,0.5,0.6c0.2-0.3,0.5-0.8,0.8-1.3c-0.3-0.4-0.5-0.6-0.8-0.9c-0.5,0.8-0.7,1.4-0.7,1.4   l-0.3-0.8c0,0,0.2-0.4,0.5-1.1c-0.2-0.3-0.3-0.4-0.3-0.4l0.3-0.7c0,0,0.1,0.2,0.4,0.6c0.1-0.1,0.2-0.2,0.3-0.3   c0.2-0.2,0.4-0.4,0.5-0.6c-0.3-0.3-0.2-0.4-0.2-0.4l0.6-0.3c0,0,0,0,0.1,0.1c0.3-0.3,0.4-0.3,0.4-0.3l0.7-0.2l0.6-0.1   c0,0-0.5,0.4-1.2,1.2c0.2,0.2,0.5,0.5,0.7,0.8c0.1,0.1,0.1,0,0.1,0.1c0.3-0.3,0.6-0.7,0.6-0.7l0.1,1c0,0-0.1,0.1-0.2,0.3   c0.2,0.2,0.3,0.3,0.3,0.3l0.2,0.9c0,0-0.4-0.4-0.9-0.8c-0.2,0.3-0.5,0.6-0.9,1c0,0,0,0,0,0c0.4,0.4,0.7,0.7,0.9,0.9   c0.7-0.9,1-1.1,1-1.1l0.2,0.8c0,0-0.6,0.6-1.2,1.6c-0.6,0.9-1.3,2.6-1.3,2.6l-0.3-1c0,0,0.1-0.2,0.2-0.5   C54.4,17.3,54.3,17.1,54.1,17 M53.8,23.9c1.3-1.1,1.7-2,1.7-2l1.7-0.1c0,0-0.8,1.4-2.6,2.6c-1.9,1.3-4.6,1.9-4.6,1.9   S52.1,25.3,53.8,23.9 M45.4,26.4v0.2c0,0-1-0.3-2.7-0.2c-1.7,0-2.6,0.3-2.6,0.3s0-0.1,0-0.3c0-0.1,0-0.2,0-0.2s1.3-0.5,2.7-0.5   c1.4,0,2.6,0.4,2.6,0.4S45.4,26.3,45.4,26.4 M42.4,25.4c0,0-0.9,0-1.2-0.2c-0.3-0.2-0.5-0.6-0.5-0.6s0.5-0.2,0.8,0   C41.9,24.7,42.4,25.4,42.4,25.4 M42.3,24.1c-0.1-0.5,0.3-1.1,0.3-1.1s0.3,0.4,0.4,1c0,0.6-0.3,1-0.3,1S42.4,24.6,42.3,24.1    M43.1,25.3c0,0,0.3-0.7,0.7-0.9c0.4-0.2,0.9,0,0.9,0s-0.4,0.6-0.7,0.8C43.8,25.4,43.1,25.3,43.1,25.3 M44,19.9L44,19.9   c0.1,0,0.1,0.4,0,1.1c0,0,0.1,0.1,0.1,0.1l0.7-0.6c-0.2-0.3-0.4-0.4-0.4-0.4l0.5,0.1l0.5,0.1c0,0,0.2,0.1,0.7,0.8   c0.2-0.2,0.3-0.4,0.3-0.4s0.2,0.1,0.3,0.3c0.1,0.2,0.1,0.3,0.1,0.3c-0.1,0.1-0.2,0.3-0.3,0.4c0.3,0.6,0.4,0.7,0.4,0.7   c0,0-0.1,0.2-0.2,0.4c-0.1,0.3-0.2,0.3-0.2,0.3s-0.2-0.6-0.5-1c-0.2,0.2-0.4,0.6-0.6,0.8c0.4,0.8,0.5,1.2,0.5,1.2   c0,0,0,0.1-0.2,0.3c-0.2,0.3-0.3,0.6-0.3,0.6s-0.1-0.8-0.6-1.6c-0.4,0.3-0.6,0.5-0.6,0.5l-0.6-0.5c0,0,0.4-0.2,0.8-0.7   c-0.3-0.4-0.6-0.8-0.7-0.9c-0.2,1-0.3,1.5-0.3,1.5L43,23c0,0,0-0.5,0.2-1.5c0.1-0.9,0.1-1.8,0.1-1.8L44,19.9z M42.7,17.8   c0.3,0,0.6,0.3,0.6,0.6c0,0.3-0.3,0.6-0.6,0.6c-0.3,0-0.6-0.3-0.6-0.6C42.1,18.1,42.3,17.8,42.7,17.8 M39.4,24.2   c0,0,0.1-0.4,0.5-1.2c-0.2-0.2-0.4-0.6-0.6-0.8c-0.2,0.5-0.4,1-0.4,1s-0.1-0.1-0.2-0.3c-0.1-0.3-0.2-0.4-0.2-0.4   c0,0,0.1-0.1,0.4-0.7c-0.1-0.1-0.2-0.3-0.3-0.4c0,0,0-0.1,0.1-0.3c0.1-0.2,0.3-0.3,0.3-0.3s0.1,0.2,0.3,0.4   c0.5-0.7,0.7-0.8,0.7-0.8l0.5-0.1L41,20c0,0-0.2,0.2-0.4,0.4l0.7,0.6c0,0,0.1-0.1,0.1-0.1c-0.1-0.6-0.1-1-0.1-1l0.1-0.1l0.7-0.3   c0,0,0,0.9,0.1,1.8c0.1,1,0.2,1.7,0.2,1.7l-0.6,0.3c0,0-0.1-0.6-0.3-1.5c-0.1,0.2-0.4,0.5-0.7,0.9c0.5,0.5,0.8,0.7,0.8,0.7L41,23.9   c0,0-0.2-0.2-0.6-0.5c-0.5,0.8-0.6,1.6-0.6,1.6s-0.1-0.3-0.3-0.6C39.4,24.3,39.4,24.2,39.4,24.2 M35.6,20.6   c-0.4,1.1-0.7,1.6-0.9,2.4c-0.3,0.9-0.1,1.6,0.3,2.3c0.3,0.5,0.6,0.8,0.6,0.8s-0.6-0.2-1.2-0.7c-1.1-0.9-1.7-1.9-1.3-3.6   c0.2-1,0.4-2,0.4-2.3c0-0.2,0-0.7,0-0.7s0.4-0.3,0.9-0.2C35.3,18.9,36,19.6,35.6,20.6 M24.2,25.7c0.6-0.1,1.4-0.4,1.6-1   c0.2-0.6-0.7-1-1.6-2.3c-0.8-1.3-0.6-2.3,0.4-2.8c0.7-0.4,1.8-0.5,2.3-0.7c0.5-0.2,1.1-0.7,1.7-1.4c0.5-0.7,1-1.4,1.7-1.7   c0.8-0.3,1.4,0.2,2.1,0.5c0.7,0.4,1,0.5,1.7,0.6c1.1,0.2,1.7,1.1,1.7,1.1s-0.8-0.8-2.1-0.3c-0.7,0.3-0.4,0.2-1.8,0.8   c-1.4,0.6-3.2,0.6-4.2,0.8c-1.1,0.2-1.8,0.3-2.5,0.9c-0.7,0.6-0.3,1.7,0.1,2.2c0.4,0.5,0.5-0.2,0.4-0.9c-0.3-1.8,2-1.4,2-1.4   s-0.5,0.4,0.1,1.5c0.7,1.1,1.6,2.1,2.1,3c0.5,0.8,0.7,1.8-0.4,2.5c-0.7,0.5-1.7,1.1-1.8,1.8c-0.2,1,0.7,1.3,0.7,1.3   s-0.8,0.1-1.5-0.2c-1.2-0.7-0.6-1.4-0.2-1.8c0.3-0.4,0.6-0.6,0.9-1c0.3-0.3-0.2-0.9-0.2-0.9s-0.4,0.3-1,0.5   c-0.5,0.1-1.5-0.1-1.9-0.2c-1.3-0.4-2,0.4-2,0.4S22.5,25.9,24.2,25.7 M40.8,21.7l-0.7-0.7c-0.2,0.3-0.4,0.5-0.5,0.7   c0.2,0.2,0.5,0.6,0.7,0.8C40.5,22.1,40.6,21.9,40.8,21.7 M79.9,21.7c-0.1-0.2-0.3-0.4-0.5-0.7l-0.7,0.7c0.2,0.2,0.3,0.4,0.5,0.7   C79.4,22.4,79.7,22,79.9,21.7"/>
</g>
</svg>