<svg width="485" height="312" viewBox="0 0 485 312" fill="none" xmlns="http://www.w3.org/2000/svg">
<path d="M6.00501 311.113C6.00501 311.108 6.00501 311.099 6.00501 311.094V311.091C6.00501 311.091 5.99099 310.791 5.96577 310.267C5.94336 309.76 5.91534 309.023 5.89852 308.134C5.88171 307.246 5.8761 306.212 5.89572 305.102C5.90413 304.548 5.92655 303.976 5.94336 303.39C5.97699 302.81 5.9938 302.216 6.04424 301.628C6.06665 301.333 6.08908 301.036 6.1115 300.742C6.14232 300.448 6.17034 300.156 6.20117 299.868C6.25161 299.285 6.34408 298.722 6.41413 298.17C6.501 297.623 6.59628 297.094 6.69436 296.595C6.7504 296.348 6.80644 296.107 6.85969 295.875C6.91013 295.639 6.96617 295.415 7.03342 295.205C7.16513 294.782 7.26321 294.381 7.40893 294.053C7.47618 293.885 7.53782 293.725 7.59387 293.58C7.64711 293.431 7.70596 293.299 7.77041 293.187C8.0142 292.722 8.15431 292.456 8.15431 292.456C8.15431 292.456 7.96657 292.691 7.63871 293.106C7.55184 293.207 7.47057 293.33 7.38651 293.468C7.30244 293.602 7.20997 293.751 7.10909 293.907C6.89612 294.218 6.72518 294.597 6.50941 295.003C6.39732 295.205 6.29924 295.423 6.20397 295.648C6.10309 295.875 6.0022 296.107 5.89572 296.348C5.69956 296.836 5.50061 297.351 5.30726 297.892C5.12792 298.436 4.92615 298.996 4.76362 299.574C4.67676 299.862 4.59268 300.154 4.50582 300.445C4.42735 300.739 4.34889 301.034 4.26762 301.328C4.10229 301.919 3.97339 302.513 3.82488 303.099C3.69317 303.684 3.56147 304.262 3.44657 304.825C3.21399 305.946 3.02063 306.999 2.86651 307.905C2.71239 308.807 2.5975 309.566 2.51904 310.107C2.44618 310.631 2.40414 310.928 2.40414 310.928C2.39574 310.987 2.39014 311.051 2.39014 311.113H6.00501Z" fill="#BDD0FB"/>
<path d="M7.24891 256.498C7.46468 256.733 7.69726 257.016 7.96628 257.327C8.09798 257.484 8.24369 257.644 8.38381 257.821C8.51831 258.003 8.65842 258.196 8.80414 258.395C9.09557 258.793 9.41783 259.219 9.71207 259.706C10.0175 260.188 10.3538 260.69 10.6564 261.256C10.9703 261.814 11.3065 262.394 11.6092 263.027C11.7661 263.341 11.9258 263.66 12.0884 263.985C12.2481 264.313 12.3938 264.655 12.5507 265C12.7048 265.345 12.8618 265.695 13.0215 266.051C13.17 266.412 13.3185 266.779 13.4698 267.152C14.0807 268.637 14.6468 270.234 15.2044 271.893C15.4734 272.726 15.7397 273.577 16.0031 274.438C16.2497 275.306 16.5187 276.178 16.7513 277.069C16.9895 277.957 17.2332 278.851 17.449 279.759C17.6788 280.661 17.8918 281.572 18.0963 282.483C19.7609 289.772 20.8369 297.189 21.3693 302.732C21.501 304.116 21.6047 305.386 21.6692 306.504C21.7392 307.622 21.77 308.586 21.7813 309.368C21.7785 309.751 21.7785 310.09 21.7757 310.388C21.7644 310.629 21.7532 310.83 21.7448 310.998C21.742 311.038 21.7364 311.074 21.7336 311.111H26.3909C26.3853 310.878 26.3797 310.612 26.3741 310.309C26.3489 309.967 26.3209 309.572 26.2872 309.132C26.206 308.269 26.0911 307.235 25.9258 306.072C25.766 304.906 25.5559 303.603 25.3093 302.191C24.3145 296.545 22.6359 289.121 20.3689 281.866C20.0887 280.959 19.8001 280.053 19.4946 279.159C19.2032 278.26 18.8838 277.372 18.5727 276.492C18.2673 275.609 17.9226 274.746 17.6059 273.886C17.2697 273.034 16.9334 272.193 16.5943 271.369C15.8966 269.73 15.196 268.155 14.459 266.698C14.2769 266.334 14.0948 265.975 13.9154 265.619C13.7249 265.272 13.5371 264.927 13.355 264.591C13.1672 264.254 12.9935 263.921 12.8057 263.602C12.6152 263.285 12.4274 262.971 12.2425 262.668C11.8866 262.052 11.4971 261.489 11.1356 260.951C10.7881 260.404 10.4014 259.919 10.0567 259.457C9.72047 258.986 9.36178 258.58 9.03392 258.202C8.8714 258.011 8.71447 257.832 8.56595 257.658C8.41183 257.49 8.2493 257.339 8.10639 257.193C7.81215 256.901 7.55435 256.635 7.32177 256.417C7.07517 256.212 6.865 256.038 6.69406 255.895C6.35499 255.612 6.17285 255.464 6.17285 255.464C6.17285 255.464 6.34098 255.629 6.65763 255.935C6.82296 256.089 7.01912 256.276 7.24891 256.498Z" fill="#BDD0FB"/>
<path d="M35.9639 311.113C35.9611 310.945 35.9583 310.749 35.9555 310.519C35.9527 309.746 35.9499 308.566 35.9751 307.064C36.0171 304.066 36.1432 299.764 36.4347 294.605C36.572 292.025 36.7737 289.234 37.0007 286.28C37.2501 283.329 37.5219 280.216 37.8806 277.005C38.2197 273.791 38.6484 270.478 39.108 267.116C39.6012 263.759 40.1196 260.348 40.7473 256.958C40.9042 256.108 41.0583 255.262 41.2153 254.413C41.3834 253.57 41.5543 252.726 41.7225 251.883C42.0447 250.196 42.4426 248.531 42.7985 246.872C43.1768 245.216 43.586 243.585 43.9811 241.968C44.1968 241.164 44.4098 240.366 44.6228 239.572C44.8385 238.779 45.0375 237.989 45.2757 237.216C45.5055 236.44 45.7325 235.672 45.9566 234.91C46.0715 234.528 46.178 234.147 46.2957 233.775C46.4162 233.402 46.5395 233.029 46.66 232.659C47.142 231.18 47.6015 229.728 48.1228 228.341C48.375 227.643 48.6216 226.957 48.8682 226.279C49.1176 225.603 49.395 224.95 49.65 224.3C49.9106 223.653 50.1628 223.017 50.415 222.389C50.6784 221.77 50.953 221.17 51.2136 220.576C51.477 219.985 51.7348 219.405 51.987 218.839C52.242 218.273 52.5251 217.74 52.7829 217.208C53.3181 216.157 53.7833 215.134 54.3157 214.226C54.8313 213.307 55.3133 212.447 55.7588 211.651C56.2436 210.88 56.692 210.172 57.0955 209.53C57.2973 209.21 57.4878 208.905 57.6671 208.622C57.8633 208.347 58.0454 208.089 58.2164 207.851C58.5583 207.372 58.8497 206.966 59.0879 206.635C59.5614 205.974 59.8137 205.623 59.8137 205.623C59.8137 205.623 59.5446 205.963 59.043 206.601C58.7908 206.921 58.4798 207.313 58.1155 207.776C57.9334 208.008 57.7372 208.258 57.5298 208.524C57.3365 208.801 57.1319 209.095 56.9133 209.406C56.479 210.029 55.997 210.721 55.473 211.472C54.9882 212.248 54.4642 213.091 53.9037 213.988C53.3237 214.876 52.8081 215.88 52.2224 216.914C51.9394 217.435 51.6255 217.962 51.3425 218.517C51.0623 219.074 50.7765 219.646 50.4822 220.229C50.1908 220.812 49.8854 221.406 49.5911 222.017C49.3109 222.633 49.0223 223.264 48.7308 223.905C48.4422 224.547 48.134 225.194 47.8509 225.864C47.5735 226.537 47.2905 227.217 47.0047 227.907C46.4134 229.283 45.8838 230.723 45.3261 232.194C45.186 232.561 45.0487 232.931 44.9058 233.304C44.7685 233.677 44.6424 234.055 44.5107 234.433C44.2473 235.19 43.9839 235.955 43.7149 236.728C43.4374 237.496 43.202 238.283 42.947 239.074C42.6948 239.864 42.4426 240.66 42.1876 241.461C41.7141 243.072 41.2237 244.703 40.7641 246.354C40.3269 248.01 39.845 249.675 39.4415 251.359C39.2313 252.199 39.0211 253.043 38.811 253.889C38.6148 254.735 38.4186 255.584 38.2197 256.433C37.4267 259.827 36.7429 263.243 36.0872 266.611C35.4651 269.982 34.8766 273.309 34.3862 276.537C33.8734 279.765 33.4531 282.892 33.0608 285.863C32.6909 288.836 32.3602 291.649 32.0968 294.252C31.5588 299.456 31.2281 303.808 31.0432 306.868C30.9479 308.398 30.8919 309.6 30.8554 310.449C30.847 310.707 30.8386 310.923 30.833 311.105H35.9639V311.113Z" fill="#BDD0FB"/>
<path d="M27.0525 187.137C27.6325 188.109 28.2714 189.152 28.8935 190.304C29.5268 191.447 30.2134 192.657 30.9111 193.944C31.5837 195.247 32.2898 196.614 33.0268 198.043C33.7358 199.484 34.4419 201.002 35.1929 202.563C35.9075 204.141 36.6109 205.783 37.3479 207.467C37.6897 208.319 38.0344 209.185 38.3847 210.062C38.7322 210.939 39.0992 211.816 39.4159 212.73C39.7438 213.635 40.0744 214.551 40.4107 215.476C40.4948 215.706 40.5788 215.938 40.6629 216.171L40.8927 216.877C41.0468 217.348 41.2009 217.821 41.3551 218.298C42.6217 222.092 43.7033 226.085 44.6617 230.165C44.8915 231.188 45.1184 232.214 45.351 233.245C45.55 234.282 45.7489 235.319 45.9507 236.361C46.1637 237.398 46.315 238.451 46.4887 239.5C46.6597 240.548 46.839 241.596 46.9651 242.652C47.5732 246.861 47.9515 251.101 48.2037 255.279C48.3438 257.366 48.4026 259.446 48.4755 261.494C48.5091 263.548 48.554 265.574 48.5371 267.572C48.5287 271.565 48.4251 275.427 48.2597 279.095C48.1056 282.76 47.9039 286.232 47.7049 289.441C47.4975 292.655 47.307 295.6 47.1388 298.212C46.9707 300.829 46.8222 303.11 46.7157 305.004C46.6008 306.901 46.528 308.375 46.4775 309.381C46.4271 310.387 46.3991 310.923 46.3991 310.923C46.3963 310.965 46.3963 311.024 46.3963 311.066C46.3963 311.082 46.3991 311.096 46.3991 311.113H52.6508C52.6508 311.108 52.6508 311.102 52.6508 311.096C52.6508 311.096 52.6536 310.558 52.6592 309.552C52.6648 308.544 52.6704 307.064 52.6985 305.206C52.7181 303.345 52.7629 301.062 52.8105 298.45C52.861 295.83 52.917 292.874 52.9787 289.645C53.0319 286.414 53.0796 282.906 53.0656 279.187C53.0628 275.472 52.9899 271.543 52.8134 267.483C52.7377 265.451 52.6004 263.386 52.4687 261.298C52.2977 259.21 52.1408 257.097 51.9026 254.971C51.4487 250.72 50.8686 246.413 50.0532 242.145C49.8738 241.074 49.6412 240.012 49.4199 238.953C49.1929 237.894 48.9911 236.829 48.7249 235.781C48.4727 234.73 48.2205 233.682 47.9711 232.637C47.6881 231.6 47.4079 230.566 47.1276 229.535C45.9647 225.427 44.6813 221.428 43.2241 217.642C43.0448 217.169 42.8682 216.695 42.6889 216.224L42.4227 215.521C42.3274 215.291 42.2321 215.058 42.1369 214.829C41.7558 213.91 41.3775 212.999 41.0048 212.097C40.6433 211.191 40.2314 210.317 39.8418 209.448C39.4495 208.58 39.06 207.725 38.6789 206.879C37.8607 205.214 37.0732 203.589 36.283 202.034C35.4564 200.495 34.6773 199.004 33.8983 197.587C33.0913 196.185 32.3207 194.843 31.5865 193.568C30.8271 192.307 30.0817 191.125 29.3951 190.007C28.7198 188.883 28.0333 187.866 27.4056 186.918C26.7807 185.971 26.2062 185.103 25.685 184.318C23.5189 181.241 22.2803 179.484 22.2803 179.484C22.2803 179.484 23.4348 181.294 25.458 184.464C25.9372 185.274 26.4696 186.165 27.0525 187.137Z" fill="#BDD0FB"/>
<path d="M39.1704 237.832C39.4534 238.146 39.7869 238.499 40.1315 238.922C41.5411 240.578 43.284 243.168 44.9598 246.485C46.6467 249.798 48.2664 253.833 49.7208 258.246C51.1751 262.66 52.4642 267.452 53.5626 272.285C55.7652 281.953 57.1971 291.786 57.9005 299.136C58.2564 302.81 58.4245 305.867 58.4469 307.935C58.4581 308.969 58.4329 309.751 58.3937 310.222C58.3656 310.528 58.3096 310.948 58.3124 310.925C58.3068 310.987 58.3068 311.049 58.304 311.11H64.5558C64.5614 310.948 64.567 310.724 64.5726 310.407C64.5726 309.709 64.5249 308.773 64.4213 307.624C64.2139 305.329 63.788 302.168 63.1266 298.422C61.8096 290.934 59.579 281.093 56.5806 271.47C55.0842 266.659 53.3973 261.909 51.573 257.551C49.7488 253.197 47.7872 249.232 45.8117 246.009C43.8501 242.778 41.8801 240.298 40.3305 238.74C39.9522 238.342 39.5851 238.014 39.2769 237.72C38.9546 237.443 38.6856 237.199 38.4586 237.014C37.999 236.652 37.7524 236.459 37.7524 236.459C37.7524 236.459 37.9822 236.672 38.411 237.067C38.6267 237.269 38.8733 237.532 39.1704 237.832Z" fill="#BDD0FB"/>
<path d="M59.1267 258.535C59.2836 258.787 59.4657 259.073 59.6451 259.412C59.83 259.746 60.0346 260.113 60.256 260.516C60.4773 260.917 60.6847 261.368 60.9257 261.842C61.0406 262.08 61.1695 262.321 61.2844 262.576C61.3993 262.834 61.517 263.097 61.6374 263.369C61.7579 263.641 61.8812 263.918 62.0073 264.201C62.1278 264.487 62.2427 264.787 62.3632 265.087C62.4837 265.389 62.607 265.695 62.7303 266.009C62.8536 266.322 62.9629 266.65 63.0806 266.978C63.1983 267.306 63.3188 267.642 63.4393 267.981C63.5486 268.326 63.6607 268.673 63.7756 269.029C64.0109 269.733 64.2211 270.467 64.4313 271.218C64.6555 271.963 64.8348 272.742 65.0394 273.524C65.2327 274.309 65.4093 275.113 65.5914 275.926C65.7511 276.744 65.9361 277.565 66.0762 278.403C66.3872 280.073 66.6366 281.78 66.8664 283.489C67.0822 285.201 67.2727 286.913 67.41 288.606C67.5586 290.295 67.6623 291.966 67.7463 293.58C67.9088 296.811 67.9621 299.834 67.9705 302.429C67.9817 305.027 67.9537 307.199 67.9509 308.745C67.9537 309.533 67.9565 310.152 67.9593 310.572C67.9621 310.827 67.9649 311.007 67.9677 311.108H73.7991C73.7963 311.01 73.7907 310.911 73.7795 310.813V310.808C73.7795 310.808 73.7543 310.592 73.7039 310.183C73.6618 309.788 73.5974 309.208 73.5189 308.471C73.3648 306.966 73.163 304.78 72.8772 302.149C72.5942 299.518 72.2159 296.446 71.7087 293.168C71.4509 291.528 71.1678 289.839 70.8344 288.127C70.5121 286.414 70.1338 284.683 69.7331 282.959C69.3156 281.239 68.8812 279.524 68.3824 277.851C68.1498 277.013 67.8724 276.192 67.623 275.376C67.3512 274.567 67.0878 273.765 66.8048 272.986C66.5133 272.21 66.2471 271.439 65.9389 270.702C65.6446 269.963 65.3532 269.24 65.0394 268.547C64.8852 268.2 64.7367 267.858 64.5882 267.522C64.4285 267.188 64.2716 266.863 64.1174 266.541C63.9605 266.222 63.8148 265.902 63.6579 265.597C63.4981 265.291 63.3412 264.994 63.1871 264.7C63.033 264.408 62.8873 264.12 62.7331 263.842C62.5762 263.568 62.4221 263.302 62.2708 263.041C62.1194 262.78 61.9737 262.528 61.8336 262.279C61.6879 262.035 61.5366 261.802 61.3937 261.575C61.1022 261.124 60.8472 260.696 60.5838 260.314C60.3176 259.936 60.0766 259.586 59.8552 259.272C59.6423 258.955 59.4293 258.684 59.2472 258.451C59.065 258.216 58.9109 258.017 58.7848 257.854C58.5326 257.532 58.4009 257.358 58.4009 257.358C58.4009 257.358 58.5158 257.543 58.7315 257.893C58.838 258.07 58.9697 258.283 59.1267 258.535Z" fill="#BDD0FB"/>
<path d="M56.0248 186.162C56.3778 186.77 56.7954 187.459 57.1961 188.269C57.6108 189.071 58.0732 189.959 58.572 190.926C58.6981 191.167 58.8242 191.413 58.9559 191.666C59.0764 191.923 59.1969 192.184 59.3202 192.45C59.5668 192.983 59.8246 193.535 60.088 194.106C60.3514 194.675 60.626 195.264 60.9062 195.869C61.1865 196.474 61.4359 197.116 61.7105 197.766C61.9823 198.416 62.2597 199.083 62.5456 199.767C62.6885 200.109 62.8314 200.453 62.9771 200.804C63.1116 201.157 63.2461 201.515 63.3834 201.877C63.6552 202.6 63.9326 203.34 64.2157 204.091C64.4959 204.844 64.7985 205.604 65.0563 206.397C65.3254 207.184 65.5972 207.989 65.8746 208.801C66.1464 209.617 66.4491 210.435 66.6985 211.287C66.9591 212.133 67.2253 212.991 67.4915 213.859C67.7577 214.728 68.0407 215.602 68.2817 216.499C68.5339 217.393 68.7861 218.298 69.0439 219.212C69.1728 219.668 69.3017 220.128 69.4306 220.587C69.5511 221.05 69.6716 221.515 69.7921 221.983C70.2629 223.858 70.7785 225.749 71.21 227.688C71.4342 228.655 71.6612 229.63 71.8882 230.608C72.118 231.586 72.3113 232.578 72.5271 233.567C72.7373 234.559 72.9474 235.554 73.1576 236.552C73.3509 237.555 73.5471 238.558 73.7404 239.567C74.144 241.576 74.4858 243.608 74.8473 245.637C75.2116 247.663 75.5114 249.7 75.8449 251.723C76.1476 253.752 76.4502 255.772 76.7276 257.779C77.2713 261.794 77.7729 265.751 78.182 269.59C78.6107 273.426 78.9526 277.142 79.2636 280.664C79.5551 284.19 79.8129 287.524 80.0062 290.604C80.2136 293.684 80.3593 296.508 80.4882 299.013C80.6087 301.519 80.7012 303.701 80.7656 305.503C80.8301 307.311 80.8805 308.731 80.9142 309.701C80.9366 310.231 80.9618 310.735 80.9786 310.993C80.9814 311.041 80.9842 311.08 80.987 311.116H86.8213C86.8185 311.013 86.8128 310.909 86.8016 310.805L86.782 310.654C86.782 310.654 86.768 310.525 86.7372 310.278C86.7204 310.071 86.6923 309.763 86.6559 309.362C86.5803 308.395 86.4654 306.977 86.3225 305.175C86.1767 303.365 85.9862 301.165 85.7536 298.643C85.5126 296.121 85.2408 293.277 84.8961 290.181C84.5626 287.081 84.1563 283.73 83.7052 280.191C83.2344 276.652 82.7272 272.922 82.1247 269.074C81.5419 265.224 80.8609 261.259 80.1351 257.235C79.7652 255.226 79.3701 253.203 78.975 251.171C78.5491 249.145 78.1568 247.108 77.7 245.082C77.246 243.056 76.8117 241.024 76.3157 239.018C76.0747 238.012 75.8337 237.008 75.5955 236.008C75.3377 235.01 75.0827 234.018 74.8277 233.029C74.5671 232.04 74.3289 231.054 74.0515 230.079C73.7797 229.103 73.5079 228.134 73.2388 227.167C72.7176 225.234 72.1152 223.348 71.5575 221.484C71.4146 221.019 71.2745 220.557 71.1316 220.094C70.9802 219.635 70.8317 219.181 70.6804 218.727C70.3806 217.819 70.0863 216.919 69.7949 216.031C69.5119 215.14 69.1868 214.271 68.8814 213.408C68.5731 212.548 68.2677 211.696 67.9679 210.855C67.6792 210.012 67.3374 209.199 67.0291 208.392C66.7153 207.585 66.4042 206.792 66.0988 206.01C65.8045 205.226 65.4655 204.472 65.1516 203.726C64.835 202.981 64.5211 202.252 64.2157 201.538C64.0615 201.182 63.9102 200.826 63.7617 200.479C63.5992 200.134 63.4395 199.792 63.2825 199.456C62.9659 198.783 62.6576 198.125 62.355 197.483C62.0496 196.844 61.7721 196.211 61.4639 195.617C61.1556 195.02 60.8558 194.443 60.5644 193.882C60.2729 193.322 59.9927 192.778 59.7209 192.257C59.5836 191.996 59.4519 191.738 59.3202 191.486C59.1773 191.24 59.04 190.999 58.9027 190.76C58.359 189.813 57.8574 188.945 57.4063 188.16C56.9691 187.367 56.5179 186.694 56.1396 186.103C55.7585 185.512 55.4363 185.01 55.1729 184.601C54.6489 183.786 54.3687 183.351 54.3687 183.351C54.3687 183.351 54.6293 183.797 55.1168 184.635C55.3718 185.038 55.6717 185.557 56.0248 186.162Z" fill="#BDD0FB"/>
<path d="M95.5358 311.113C95.5246 311.004 95.4965 310.746 95.4573 310.351C95.4517 310.147 95.4377 309.897 95.4209 309.597C95.4181 309.23 95.4181 308.81 95.4153 308.336C95.4321 307.37 95.4685 306.181 95.5554 304.8C95.6339 303.421 95.7628 301.855 95.9253 300.143C96.0878 298.431 96.298 296.575 96.5446 294.614C96.7996 292.652 97.0826 290.584 97.4245 288.452C97.7551 286.316 98.1447 284.117 98.5594 281.883C98.9909 279.656 99.4505 277.391 99.9661 275.144L100.353 273.457C100.49 272.897 100.627 272.339 100.765 271.781C101.034 270.663 101.334 269.559 101.628 268.461C101.914 267.359 102.247 266.286 102.55 265.213C102.875 264.148 103.203 263.1 103.536 262.069C104.225 260.02 104.923 258.045 105.677 256.212C105.865 255.753 106.05 255.301 106.232 254.853C106.428 254.413 106.621 253.982 106.812 253.556C107.005 253.132 107.187 252.709 107.384 252.303C107.585 251.9 107.782 251.507 107.978 251.121C108.35 250.339 108.768 249.621 109.155 248.935C109.527 248.237 109.945 247.618 110.32 247.021C110.514 246.727 110.682 246.427 110.881 246.166C111.074 245.9 111.262 245.645 111.441 245.398C111.621 245.152 111.794 244.916 111.96 244.689C112.133 244.471 112.313 244.275 112.475 244.079C112.806 243.697 113.095 243.347 113.361 243.056C113.644 242.781 113.885 242.548 114.078 242.358C114.47 241.977 114.678 241.775 114.678 241.775C114.678 241.775 114.454 241.96 114.033 242.307C113.823 242.481 113.563 242.697 113.257 242.952C112.968 243.224 112.652 243.552 112.287 243.91C112.108 244.093 111.912 244.277 111.719 244.485C111.534 244.698 111.34 244.922 111.141 245.157C110.94 245.393 110.729 245.637 110.514 245.889C110.29 246.138 110.099 246.427 109.88 246.707C109.454 247.279 108.978 247.876 108.549 248.551C108.104 249.218 107.625 249.913 107.185 250.672C106.958 251.048 106.725 251.434 106.49 251.827C106.257 252.222 106.041 252.634 105.812 253.048C105.585 253.466 105.355 253.889 105.119 254.318C104.898 254.755 104.677 255.198 104.45 255.649C103.539 257.448 102.676 259.39 101.813 261.416C101.392 262.43 100.978 263.47 100.563 264.524C100.171 265.583 99.7475 266.65 99.3692 267.741C98.9853 268.828 98.5902 269.923 98.2315 271.036C98.0494 271.591 97.8644 272.146 97.6795 272.703L97.1527 274.382C96.4493 276.621 95.8048 278.874 95.1911 281.102C94.5942 283.332 94.0198 285.532 93.5154 287.676C92.997 289.816 92.5458 291.896 92.1283 293.874C91.7192 295.852 91.3577 297.733 91.0522 299.479C90.7468 301.224 90.4862 302.83 90.29 304.27C90.0854 305.708 89.9453 306.983 89.8445 308.048C89.8052 308.591 89.7688 309.076 89.738 309.499C89.7268 309.993 89.7184 310.413 89.71 310.755C89.7128 310.889 89.7156 311.007 89.7184 311.111H95.5358V311.113Z" fill="#E0E8FE"/>
<path d="M100.664 299.313C100.706 301.742 100.739 303.861 100.77 305.604C100.795 307.336 100.801 308.712 100.807 309.65C100.812 310.589 100.815 311.088 100.815 311.088C100.815 311.094 100.815 311.102 100.815 311.11H106.635C106.635 311.049 106.638 310.987 106.635 310.925C106.635 310.925 106.61 310.427 106.562 309.488C106.515 308.552 106.448 307.179 106.341 305.413C106.232 303.659 106.1 301.53 105.946 299.089C105.789 296.656 105.613 293.913 105.419 290.923C105.234 287.936 105.044 284.705 104.901 281.289C104.749 277.873 104.651 274.278 104.643 270.559C104.626 268.699 104.668 266.813 104.699 264.899C104.769 262.99 104.822 261.054 104.954 259.112C105.192 255.223 105.542 251.274 106.109 247.354C106.229 246.37 106.394 245.395 106.554 244.417C106.717 243.442 106.857 242.461 107.056 241.495C107.241 240.525 107.428 239.558 107.613 238.594C107.826 237.636 108.042 236.68 108.255 235.728C109.146 231.928 110.155 228.212 111.335 224.678C111.887 222.899 112.531 221.181 113.139 219.494C113.434 218.645 113.778 217.827 114.1 217.012C114.426 216.196 114.748 215.392 115.064 214.596C115.748 213.03 116.407 211.497 117.071 210.028C117.769 208.577 118.424 207.162 119.086 205.819C119.772 204.488 120.431 203.216 121.056 202.003C121.706 200.803 122.345 199.677 122.936 198.612C123.516 197.542 124.11 196.569 124.651 195.664C125.192 194.759 125.688 193.927 126.139 193.179C128.022 190.228 129.098 188.541 129.098 188.541C129.098 188.541 127.946 190.177 125.929 193.041C125.447 193.773 124.911 194.58 124.329 195.462C123.746 196.342 123.107 197.292 122.476 198.337C121.837 199.377 121.145 200.478 120.436 201.652C119.753 202.841 119.032 204.09 118.284 205.396C117.558 206.713 116.833 208.106 116.065 209.535C115.328 210.984 114.596 212.494 113.834 214.044C113.478 214.831 113.117 215.63 112.75 216.437C112.386 217.247 112.002 218.06 111.665 218.903C110.97 220.582 110.242 222.288 109.6 224.065C108.241 227.59 107.047 231.317 105.966 235.139C105.705 236.097 105.444 237.061 105.181 238.028C104.948 239.001 104.713 239.979 104.478 240.957C104.231 241.932 104.04 242.924 103.83 243.91C103.623 244.899 103.407 245.886 103.242 246.883C102.482 250.857 101.942 254.867 101.518 258.824C101.294 260.802 101.151 262.769 100.992 264.714C100.871 266.659 100.742 268.581 100.672 270.472C100.51 274.255 100.442 277.912 100.44 281.37C100.426 284.831 100.47 288.098 100.518 291.108C100.563 294.118 100.616 296.872 100.664 299.313Z" fill="#E0E8FE"/>
<path d="M90.3571 306.248H82.0289L67.1322 249.509C66.3448 246.51 62.0854 246.51 61.298 249.509L46.4014 306.248H38.0731C36.8149 306.248 35.7949 307.268 35.7949 308.527V308.571C35.7949 309.83 36.8149 310.85 38.0731 310.85H90.3571C91.6153 310.85 92.6353 309.83 92.6353 308.571V308.527C92.6353 307.268 91.6153 306.248 90.3571 306.248Z" fill="#D83A21"/>
<path d="M61.298 241.303L46.4014 298.043H82.0261L67.1295 241.303C66.3448 238.302 62.0855 238.302 61.298 241.303Z" fill="white"/>
<path d="M71.2569 257.012L67.132 241.303C66.3445 238.304 62.0852 238.304 61.2977 241.303L57.1729 257.012H71.2569Z" fill="#E1473D"/>
<path d="M51.7783 277.561H76.6509L74.283 268.546H54.1462L51.7783 277.561Z" fill="#E1473D"/>
<path d="M48.7693 289.028L46.4014 298.043H82.0289L79.661 289.028H48.7693Z" fill="#E1473D"/>
<path d="M90.3571 298.043H38.0731C36.8149 298.043 35.7949 299.063 35.7949 300.321V300.366C35.7949 301.624 36.8149 302.644 38.0731 302.644H90.3571C91.6153 302.644 92.6353 301.624 92.6353 300.366V300.321C92.6353 299.063 91.6153 298.043 90.3571 298.043Z" fill="#E1473D"/>
<path d="M396 32H76V311H396V32Z" fill="url(#paint0_linear)"/>
<path d="M396.35 13.9746H76.2319V32.0378H396.35V13.9746Z" fill="#BDD0FB"/>
<path d="M90.9039 25.8895C92.4937 25.2329 93.2529 23.4055 92.5995 21.8079C91.9461 20.2103 90.1277 19.4474 88.5378 20.104C86.948 20.7605 86.1888 22.5879 86.8422 24.1855C87.4956 25.7832 89.314 26.546 90.9039 25.8895Z" fill="white"/>
<path d="M107.461 23.6054C107.794 21.9107 106.697 20.2658 105.01 19.9314C103.324 19.5969 101.687 20.6997 101.354 22.3944C101.021 24.0891 102.119 25.734 103.805 26.0684C105.491 26.4028 107.128 25.3001 107.461 23.6054Z" fill="#4F52FF"/>
<path d="M120.25 25.8895C121.839 25.2329 122.599 23.4055 121.945 21.8079C121.292 20.2103 119.473 19.4474 117.884 20.104C116.294 20.7605 115.535 22.5879 116.188 24.1855C116.841 25.7832 118.66 26.546 120.25 25.8895Z" fill="#E1473D"/>
<path d="M404 14H396V311H404V14Z" fill="#2E353D"/>
<path d="M283.177 58.0329C283.007 58.0329 282.837 58.0329 282.667 58.0329C244.636 57.8507 220.448 46.5774 197.058 35.6767C173.67 24.776 151.576 14.1948 116.689 13.9734C116.332 13.9706 115.682 13.9734 115.682 13.9734C115.685 13.6175 115.978 12.9674 116.694 12.9674H116.697C132.483 13.0683 147.215 15.3045 161.732 19.8077C174.685 23.8261 186.336 29.254 197.599 34.5026C220.864 45.3444 244.921 56.5561 282.672 56.7382C282.84 56.7382 283.013 56.7382 283.18 56.7382C316.788 56.7382 338.806 40.6843 356.519 27.7716C367.868 19.4994 376.831 12.9646 385.707 12.9646C386.064 12.9646 386.702 13.2841 386.702 13.9706C386.702 13.9706 386.061 13.9706 385.707 13.9706C377.246 13.9706 368.435 20.682 357.275 28.8196C348.441 35.2592 338.427 42.559 326.269 48.2811C312.329 54.8411 298.224 58.0329 283.177 58.0329Z" fill="#4F52FF"/>
<path d="M339.96 164.602C327.922 164.602 316.667 161.589 306.246 155.559C280.466 140.64 265.402 110.306 257.302 87.4845C246.872 58.1031 243.573 29.512 243.919 13.9568C243.928 13.5981 244.22 13.3151 244.577 13.3235C244.934 13.3319 245.216 13.629 245.208 13.9848C244.867 29.4307 248.147 57.8341 258.517 87.0501C266.543 109.667 281.45 139.715 306.891 154.435C317.099 160.342 328.145 163.296 339.963 163.296C357.124 163.296 375.919 157.075 396.177 144.647C396.481 144.462 396.877 144.557 397.061 144.863C397.248 145.168 397.151 145.566 396.847 145.754C376.376 158.314 357.352 164.602 339.96 164.602Z" fill="#4F52FF"/>
<path d="M356.454 164.663C343.9 164.663 330.922 161.69 318.262 155.716C297.596 145.964 279.019 128.856 264.535 106.242C256.761 94.1059 250.199 80.4283 245.032 65.5877C239.544 49.8335 235.526 32.2804 233.211 14.1388C233.167 13.7829 233.415 13.4606 233.769 13.4158C234.123 13.3681 234.444 13.6203 234.488 13.9762C243.021 80.899 274.585 133.676 318.809 154.547C345.521 167.152 374.003 165.977 396.348 151.734V153.281C384.318 160.855 370.659 164.663 356.454 164.663Z" fill="#190E8E"/>
<path d="M205.954 32.283C187.911 31.1119 166.953 26.3723 145.537 14.4117C145.224 14.2371 145.107 13.8421 145.277 13.5304C145.446 13.2186 145.837 13.1064 146.149 13.2811C180.304 32.3556 213.286 32.8964 234.939 29.9905C259.102 26.7479 277.531 18.0163 281.957 14.1074C282.223 13.872 282.765 13.7725 283.036 14.0848C283.314 14.4031 283.213 14.7446 283.213 14.7446C279.146 18.3372 260.995 27.8027 235.126 31.2741C226.858 32.3851 216.948 32.9965 205.954 32.283Z" fill="#190E8E"/>
<path d="M124.868 295.495C125.989 298.564 131.221 303.871 129.87 305.88L122.61 302.63L124.868 295.495Z" fill="#E1473D"/>
<path d="M114.856 299.567C113.127 301.332 109.343 303.869 110.697 305.878L117.958 302.627L114.856 299.567Z" fill="#E1473D"/>
<path d="M124.381 139.865C116.067 132.069 126.463 129.514 128.649 121.793L124.381 139.865Z" fill="#D83A21"/>
<path d="M154.026 69.0977C153.833 69.0977 153.642 69.0108 153.513 68.8483C153.295 68.5653 153.345 68.1589 153.628 67.9404C168.138 56.6698 166.869 45.3768 165.751 35.4149C165.098 29.6087 164.481 24.1219 167.224 19.5207C167.407 19.2124 167.805 19.1143 168.113 19.2965C168.421 19.4786 168.519 19.8765 168.337 20.1848C165.818 24.4105 166.381 29.4433 167.037 35.2692C167.592 40.2039 168.219 45.7971 166.81 51.4969C165.193 58.0289 161.141 63.7426 154.424 68.9604C154.306 69.0556 154.166 69.0977 154.026 69.0977Z" fill="#190E8E"/>
<path d="M162.623 55.0755C164.444 57.1828 177.649 62.0195 179.176 64.1744C182.222 68.473 199.781 96.6298 199.781 96.6298L175.25 101.141L165.902 69.8265L162.623 55.0755Z" fill="#E1473D"/>
<path d="M160.033 80.0712C160.033 80.0712 153.7 90.1732 153.72 95.5843C153.768 107.511 152.232 123.276 149.477 140.215C149.477 140.215 134.46 141.042 124.313 139.865C129.1 119.496 131.221 97.602 129.755 85.9923C129.755 85.9923 119.02 63.0953 119.351 61.1366C119.679 59.1778 142.024 51.1186 142.024 51.1186L152.148 58.8023L160.033 80.0712Z" fill="#E1473D"/>
<path d="M119.35 61.1392C117.532 60.9543 92.9899 110.918 99.0007 118.501C106.362 127.79 128.951 130.181 128.951 130.181L132.117 114.796C132.117 114.796 117.75 112.182 117.75 105.709C120.2 101.141 129.755 85.9922 129.755 85.9922C129.755 85.9922 126.407 63.0587 119.35 61.1392Z" fill="#E1473D"/>
<path d="M132.12 114.796C129.36 117.201 120.062 125.03 124.568 129.536C128.483 131.495 132.003 128.55 131.989 126.815C131.975 125.078 136.301 116.455 132.12 114.796Z" fill="#2E353D"/>
<path d="M128.65 128.146L123.376 127.048C123.163 123.169 127.17 119.423 129.359 117.276L132.651 118.01L128.65 128.146Z" fill="#CE5F49"/>
<path d="M118.04 104.765C120.377 105.659 120.971 109.022 116.692 109.778C112.415 110.532 118.04 104.765 118.04 104.765Z" fill="#D83A21"/>
<path d="M136.598 47.7948C138.862 45.3849 143.368 46.4638 147.09 47.0046C150.811 47.5454 140.087 59.7351 140.087 59.7351L136.598 51.4826V47.7948Z" fill="#2E353D"/>
<path d="M140.3 35.0256C140.3 35.0256 140.275 35.0256 140.23 35.0284C140.208 35.0284 140.18 35.0284 140.146 35.0312C140.129 35.0312 140.112 35.0312 140.093 35.034C140.079 35.034 140.082 35.034 140.076 35.0312C140.068 35.0284 140.054 35.0256 140.04 35.02C140.031 35.0172 140.026 35.0116 140.014 35.0116C139.992 35.0144 139.972 35.02 139.95 35.0228C139.86 35.0368 139.757 35.0536 139.63 35.0873C139.14 35.2078 138.439 35.46 137.764 35.7683C137.422 35.9196 137.091 36.0906 136.783 36.2587C136.475 36.4297 136.197 36.6034 135.967 36.766C135.858 36.8501 135.746 36.9229 135.662 36.9986C135.578 37.0743 135.497 37.1387 135.441 37.1976C135.326 37.3209 135.261 37.3909 135.261 37.3909C135.261 37.3909 135.295 37.2985 135.351 37.1387C135.382 37.0574 135.429 36.9678 135.483 36.8557C135.533 36.7436 135.609 36.6315 135.682 36.4997C135.839 36.2447 136.038 35.9589 136.267 35.6618C136.497 35.3675 136.752 35.0592 137.027 34.765C137.296 34.4679 137.582 34.182 137.859 33.9158C138.002 33.7869 138.134 33.658 138.274 33.543C138.411 33.4253 138.543 33.316 138.675 33.2152C138.801 33.1143 138.935 33.0246 139.053 32.9461C139.084 32.9265 139.112 32.9069 139.14 32.8873C139.182 32.8648 139.221 32.8452 139.26 32.8256C139.342 32.7864 139.415 32.7527 139.482 32.7191C139.661 32.6378 139.762 32.5902 139.762 32.5902C140.401 32.2987 141.158 32.5818 141.449 33.2208C141.741 33.8597 141.458 34.6164 140.819 34.9079C140.662 34.9808 140.496 35.0172 140.334 35.0228L140.3 35.0256Z" fill="#2E353D"/>
<path d="M140.553 34.9663C140.553 34.9663 140.516 35.014 140.452 35.1036C140.418 35.1485 140.379 35.2017 140.334 35.2634C140.295 35.3166 140.25 35.3782 140.202 35.4483C140.001 35.7453 139.706 36.2021 139.435 36.7822C139.16 37.3622 138.899 38.0684 138.77 38.8418C138.709 39.2285 138.684 39.6264 138.712 40.0243C138.742 40.4223 138.818 40.823 138.975 41.1957C139.129 41.5684 139.351 41.9186 139.625 42.2325C139.897 42.5491 140.236 42.8042 140.578 43.0423C140.934 43.2609 141.298 43.4515 141.665 43.6C142.029 43.7541 142.391 43.8634 142.724 43.9671C143.063 44.0455 143.377 44.1408 143.66 44.1856C143.943 44.2361 144.19 44.2921 144.394 44.3145C144.806 44.3706 145.042 44.4014 145.042 44.4014C145.042 44.4014 144.804 44.4098 144.389 44.421C144.179 44.4322 143.927 44.4182 143.635 44.4154C143.341 44.4182 143.016 44.3762 142.652 44.351C142.293 44.3033 141.901 44.2501 141.489 44.152C141.077 44.0596 140.648 43.9194 140.208 43.7401C139.779 43.5383 139.334 43.3058 138.93 42.9723C138.529 42.6444 138.16 42.2381 137.871 41.7729C137.579 41.3106 137.381 40.7893 137.254 40.2709C137.128 39.7497 137.075 39.2257 137.072 38.7269C137.072 37.7237 137.249 36.8158 137.462 36.062C137.568 35.6837 137.686 35.3446 137.801 35.0448C137.916 34.7449 138.025 34.4927 138.126 34.277C138.179 34.1677 138.227 34.0696 138.269 33.9827C138.305 33.9099 138.339 33.8454 138.364 33.795C138.415 33.6969 138.443 33.6437 138.443 33.6437C138.759 33.03 139.513 32.789 140.127 33.1056C140.74 33.4223 140.981 34.1761 140.665 34.7898C140.631 34.8514 140.592 34.9159 140.553 34.9663Z" fill="#2E353D"/>
<path d="M163.637 50.8636C163.931 52.0461 164.699 55.8739 165.733 57.956C165.601 59.9148 165.61 62.8935 164.965 64.2302C164.049 66.1301 161.849 58.6229 161.959 58.5837L161.788 51.2026L163.637 50.8636Z" fill="#2E353D"/>
<path d="M155.788 48.0443C155.788 48.0443 161.914 49.3193 163.637 50.8605C162.278 52.0486 162.939 56.6919 163.377 58.3368C163.564 59.0458 164.884 64.8604 166.299 72.6478L160.373 76.1674L155.948 62.1927L155.788 48.0443Z" fill="#FE7062"/>
<path d="M159.431 58.0734C158.036 53.3208 159.549 50.0758 160.034 49.1735C158.68 48.7336 157.313 48.3945 156.511 48.2068L156.161 53.3825C156.158 53.3825 160.827 62.826 159.431 58.0734Z" fill="#2E353D"/>
<path d="M168.773 28.6838C168.759 28.6838 168.745 28.6838 168.731 28.6838L160.201 28.1065C159.856 28.0841 159.598 27.7871 159.62 27.4424C159.643 27.0977 159.943 26.8371 160.285 26.8623L168.815 27.4396C169.159 27.462 169.417 27.7591 169.395 28.1037C169.369 28.4316 169.098 28.6838 168.773 28.6838Z" fill="#0B61DD"/>
<path d="M141.777 30.3344C142.108 31.3264 135.094 36.3901 139.412 40.9241C144.232 45.9849 151.106 36.2527 151.106 36.2527L141.777 30.3344Z" fill="#2E353D"/>
<path d="M142.309 35.9779C140.356 35.737 131.431 28.6165 138.209 22.6337C133.056 13.2519 153.509 1.50214 160.493 3.5926C166.932 5.52053 167.002 13.0081 167.002 13.0081L169.521 19.8904C174.114 22.701 171.312 28.5212 166.865 29.701L147.115 28.5156L142.309 35.9779Z" fill="#2E353D"/>
<path d="M140.084 56.8575C140.084 56.8575 145.352 46.5369 143.657 31.5898L158.422 47.9436C156.357 56.1177 164.169 66.7998 164.217 72.054L160.033 80.074C158.943 76.6889 154.269 64.2918 151.825 57.9588L140.084 56.8575Z" fill="#FFAD94"/>
<path d="M158.422 47.9437L148.511 36.9674L144.327 35.7961C145.115 39.2933 149.366 53.4361 159.084 56.9641C158.173 53.8649 157.713 50.7404 158.422 47.9437Z" fill="#CE5F49"/>
<path d="M143.742 31.0883C143.632 32.6856 144.543 38.9262 146.398 41.3081C148.606 44.1439 154.46 49.0926 159.986 47.8989C167.914 46.1867 167.628 18.4082 166.496 16.3906L148.284 11.9491C148.281 11.9491 144.759 16.0319 143.742 31.0883Z" fill="#FFAD94"/>
<path d="M152.936 27.6358C152.922 27.6358 152.908 27.6358 152.892 27.633L143.899 27.0249C143.543 26.9997 143.274 26.6914 143.297 26.3356C143.322 25.9797 143.633 25.7107 143.986 25.7331L152.978 26.3412C153.334 26.3664 153.603 26.6746 153.581 27.0305C153.558 27.3752 153.273 27.6358 152.936 27.6358Z" fill="#190E8E"/>
<path d="M167.03 25.3883C167.042 25.3827 167.053 25.3855 167.064 25.3855C167.168 20.7618 166.879 17.0769 166.492 16.3903L164.601 15.9308L149.211 16.8807L149.948 19.8931C151.733 19.1393 154.546 19.4252 157.536 20.7618C161.286 25.0268 164.718 26.5793 167.03 25.3883Z" fill="#CE5F49"/>
<path d="M167.266 21.8968C167.652 24.6233 163.197 24.4552 158.215 18.5845C153.333 21.1009 147.748 16.2279 147.872 25.7835C147.88 28.6053 147.659 30.6565 147.179 31.2926C147.757 28.6838 147.151 24.9064 143.352 24.9092L145.974 13.1118L154.779 8.63101L167.033 15.0817L167.266 21.8968Z" fill="#2E353D"/>
<path d="M150.78 13.2548C150.78 13.2548 150.848 13.2576 150.971 13.266C151.038 13.2716 151.122 13.2772 151.22 13.2828C151.372 13.2968 151.548 13.3136 151.742 13.3417C152.089 13.4005 152.434 13.4902 152.818 13.6247C153.199 13.7564 153.591 13.9273 153.997 14.1291C155.606 14.9417 157.315 16.2588 158.985 17.5562C159.82 18.2007 160.647 18.8453 161.44 19.4085C161.838 19.6915 162.225 19.9577 162.6 20.1931C162.976 20.4341 163.337 20.6415 163.682 20.8208C164.027 20.9946 164.349 21.1459 164.643 21.2524C164.937 21.3645 165.204 21.4373 165.425 21.4878C165.537 21.5102 165.638 21.527 165.725 21.5438C165.812 21.555 165.887 21.5578 165.949 21.5662C166.072 21.5774 166.14 21.583 166.14 21.583C166.14 21.583 166.075 21.5914 165.952 21.6082C165.89 21.6167 165.814 21.6279 165.722 21.6363C165.632 21.6391 165.526 21.6419 165.408 21.6475C165.173 21.6475 164.887 21.6335 164.559 21.5858C164.231 21.5438 163.867 21.4625 163.475 21.3616C163.082 21.2552 162.662 21.1235 162.228 20.9665C161.79 20.8124 161.336 20.6303 160.871 20.4341C159.941 20.0418 158.977 19.5878 158.019 19.1395C157.06 18.6911 156.113 18.2484 155.23 17.8757C154.79 17.6935 154.365 17.5226 153.967 17.3881C153.569 17.2452 153.199 17.1387 152.865 17.0518C152.535 16.9734 152.24 16.9173 151.999 16.8949C151.764 16.8697 151.554 16.8725 151.445 16.8865C151.408 16.8977 151.377 16.9061 151.352 16.9061C151.274 16.9173 151.204 16.9285 151.15 16.9369C151.027 16.9566 150.963 16.9678 150.963 16.9678H150.957C149.937 17.1303 148.981 16.4325 148.819 15.4153C148.656 14.3953 149.354 13.4398 150.371 13.2772C150.506 13.252 150.649 13.2464 150.78 13.2548Z" fill="#2E353D"/>
<path d="M144.245 11.5348C144.245 11.5348 144.276 11.5179 144.329 11.4899C144.377 11.4619 144.341 11.4927 144.388 11.4787C144.472 11.4199 144.576 11.3554 144.696 11.2629C144.817 11.1732 144.954 11.0723 145.103 10.9518C145.251 10.8369 145.408 10.7024 145.576 10.5595C145.745 10.4193 145.91 10.2568 146.089 10.0971C146.257 9.9289 146.442 9.75795 146.613 9.57298C146.782 9.38801 146.966 9.20305 147.126 9.00407L147.376 8.707C147.451 8.6061 147.527 8.5024 147.603 8.40151C147.762 8.19973 147.889 7.98954 148.017 7.78496C148.158 7.58317 148.242 7.37018 148.354 7.174C148.457 6.97502 148.516 6.77604 148.595 6.59387C148.668 6.41171 148.693 6.23515 148.738 6.07821C148.785 5.92127 148.794 5.78394 148.802 5.66623C148.822 5.43082 148.836 5.2963 148.836 5.2963C148.836 5.2963 148.867 5.42801 148.917 5.66062C148.942 5.77833 148.982 5.92406 148.984 6.09222C148.99 6.26037 149.021 6.45655 149.007 6.66394C148.99 6.87133 148.99 7.10674 148.951 7.34495C148.903 7.58037 148.881 7.84661 148.805 8.09884C148.738 8.35667 148.67 8.62852 148.575 8.88916C148.53 9.02088 148.483 9.1554 148.438 9.28992L148.278 9.68508C148.174 9.95413 148.048 10.2064 147.928 10.4614C147.807 10.7164 147.673 10.9546 147.549 11.1956C147.415 11.4255 147.292 11.6553 147.16 11.8627C147.031 12.0728 146.908 12.2718 146.784 12.4512C146.667 12.6334 146.549 12.7959 146.442 12.9416C146.342 13.0874 146.232 13.2163 146.154 13.3228C146.03 13.4657 145.86 13.6227 145.806 13.6731C145.761 13.7179 145.739 13.7432 145.739 13.7432C145.215 14.2785 144.355 14.2869 143.819 13.7628C143.284 13.2387 143.276 12.3783 143.8 11.843C143.898 11.7422 144.01 11.6609 144.128 11.5964L144.245 11.5348Z" fill="#2E353D"/>
<path d="M156.118 35.2075C156.011 35.2075 155.902 35.2047 155.796 35.1963C154.473 35.1066 153.268 34.4817 152.399 33.4393C151.542 32.4052 151.119 31.0798 151.211 29.7095C151.402 26.8876 153.756 24.7075 156.491 24.8897C157.813 24.9793 159.021 25.6042 159.887 26.6467C160.744 27.6807 161.168 29.0061 161.075 30.3764C160.89 33.0862 158.713 35.2075 156.118 35.2075ZM156.168 26.1731C154.252 26.1731 152.643 27.7647 152.503 29.7964C152.433 30.8332 152.75 31.8336 153.394 32.6126C154.03 33.3804 154.916 33.84 155.88 33.9044C157.897 34.0417 159.638 32.4024 159.78 30.2896C159.85 29.2527 159.534 28.2523 158.889 27.4733C158.253 26.7055 157.368 26.2459 156.404 26.1815C156.325 26.1759 156.247 26.1731 156.168 26.1731Z" fill="#190E8E"/>
<path d="M165.968 35.4569C165.895 35.4569 165.825 35.4541 165.752 35.4485C163.586 35.3027 161.972 32.9657 162.157 30.2391C162.336 27.5714 164.189 25.5818 166.408 25.7303C168.611 25.8789 170.197 28.0926 170.014 30.7687C169.838 33.4 168.059 35.4569 165.968 35.4569ZM166.175 27.0194C164.749 27.0194 163.575 28.4429 163.449 30.3288C163.312 32.3436 164.385 34.0614 165.839 34.1594C167.285 34.2547 168.591 32.663 168.723 30.6847C168.854 28.7315 167.801 27.1258 166.321 27.025C166.273 27.0222 166.223 27.0194 166.175 27.0194Z" fill="#190E8E"/>
<path d="M162.853 30.2278C162.839 30.2278 162.825 30.2278 162.808 30.225L160.356 30.0597C160 30.0345 159.731 29.7262 159.753 29.3703C159.778 29.0143 160.087 28.7453 160.443 28.7677L162.895 28.9331C163.251 28.9583 163.52 29.2666 163.497 29.6225C163.475 29.9672 163.189 30.2278 162.853 30.2278Z" fill="#190E8E"/>
<path d="M149.534 15.1882C149.534 15.1882 149.596 15.1966 149.71 15.2134C149.767 15.2219 149.839 15.2331 149.921 15.2443C150.008 15.2583 150.089 15.2667 150.226 15.2919C150.481 15.3395 150.803 15.3928 151.123 15.4853C151.288 15.5273 151.462 15.5721 151.641 15.6338C151.821 15.6926 152.011 15.7487 152.202 15.8271C152.392 15.9 152.594 15.9756 152.793 16.0681C152.995 16.155 153.199 16.2503 153.404 16.3568C153.819 16.5613 154.23 16.8079 154.648 17.0685C155.475 17.6037 156.287 18.237 157.044 18.904C158.566 20.235 159.908 21.6726 161.051 22.5833C161.334 22.8159 161.606 23.0064 161.853 23.1718C161.979 23.2474 162.099 23.3203 162.208 23.3875C162.323 23.4464 162.427 23.5024 162.522 23.5501C162.718 23.6341 162.873 23.7042 162.985 23.735C163.094 23.7714 163.153 23.7911 163.153 23.7911C163.153 23.7911 163.091 23.7827 162.976 23.763C162.859 23.7518 162.693 23.7098 162.48 23.6566C162.377 23.6229 162.259 23.5865 162.136 23.5445C162.012 23.4968 161.881 23.4436 161.738 23.3875C161.457 23.2642 161.144 23.1129 160.819 22.928C159.496 22.1994 157.901 20.9888 156.248 19.9772C155.424 19.4672 154.584 19.0217 153.782 18.677C153.379 18.5117 152.992 18.3603 152.619 18.2511C152.434 18.1894 152.252 18.1418 152.078 18.0997C151.905 18.0521 151.734 18.0213 151.571 17.9877C151.409 17.9512 151.252 17.9344 151.106 17.912C150.957 17.8868 150.817 17.8756 150.686 17.8672C150.417 17.8363 150.215 17.8447 150.041 17.8391C149.965 17.8335 149.853 17.8419 149.772 17.8419C149.688 17.8447 149.618 17.8475 149.559 17.8475C149.444 17.8503 149.383 17.8531 149.383 17.8531C148.643 17.8728 148.026 17.2899 148.004 16.5473C147.984 15.8075 148.567 15.191 149.31 15.1686C149.383 15.1742 149.464 15.1798 149.534 15.1882Z" fill="#2E353D"/>
<path d="M160.033 80.0714C160.033 80.0714 161.49 68.473 159.43 58.0739L163.067 59.5927L165.816 71.7964L160.033 80.0714Z" fill="#D83A21"/>
<path d="M152.65 18.0662C152.65 18.0662 176.449 11.6547 177.713 15.7348C178.977 19.8148 169.522 19.8877 169.522 19.8877C167.642 18.1895 161.41 16.6427 152.65 18.0662Z" fill="#190E8E"/>
<path d="M168.364 14.1067C167.014 5.19837 158.697 -0.927294 149.788 0.42338C140.88 1.77405 134.754 10.0911 136.105 18.9993L168.364 14.1067Z" fill="#4F52FF"/>
<path d="M153.322 14.751C143.803 14.95 139.79 7.74548 140.471 5.2543L140.468 5.25711L138.82 7.27751C136.537 10.5785 135.458 14.7174 136.105 18.9992L156.253 15.9448C155.906 15.1742 155.012 14.7174 153.322 14.751Z" fill="#190E8E"/>
<path d="M135.405 20.4565C134.939 20.2324 134.589 19.7896 134.508 19.2404C134.373 18.3577 134.981 17.5338 135.864 17.3993L168.121 12.5066C169.003 12.3721 169.827 12.9802 169.962 13.8629C170.096 14.7456 169.488 15.5694 168.605 15.704L136.349 20.5966C136.015 20.6471 135.688 20.5938 135.405 20.4565Z" fill="#190E8E"/>
<path d="M143.985 39.6769C143.766 39.6769 143.553 39.5676 143.432 39.3659C138.921 31.9708 137.335 24.0517 139.294 18.6966C139.417 18.3604 139.787 18.1866 140.123 18.3099C140.459 18.4332 140.63 18.8031 140.51 19.1394C138.711 24.0573 140.291 31.7298 144.537 38.6905C144.721 38.996 144.626 39.3939 144.321 39.5788C144.214 39.6461 144.099 39.6769 143.985 39.6769Z" fill="#190E8E"/>
<path d="M147.367 29.8526C147.572 28.8662 147.437 27.8406 146.989 26.9383C146.173 25.2934 144.655 22.9367 142.71 23.0964C135.584 23.6765 140.042 34.5856 144.01 35.7233C145.282 36.0876 146.269 35.1656 146.269 35.1656L147.367 29.8526Z" fill="#E27960"/>
<path d="M145.773 28.9669C144.702 27.0191 143.083 27.1901 142.685 28.4456C142.175 30.0543 144.419 33.8994 146.558 32.6578L145.773 28.9669Z" fill="#CE5F49"/>
<path d="M143.021 24.8421C141.698 23.951 139.95 24.5395 139.249 25.3858C139.731 24.1416 140.807 22.931 142.816 22.9506C144.755 22.9703 146.221 25.3073 147.006 26.9326C147.443 27.8405 147.569 28.8689 147.364 29.8581L146.619 33.4646C146.224 31.0183 145.823 27.1736 143.021 24.8421Z" fill="#FFAD94"/>
<path d="M144.011 35.7235C142.394 35.2583 140.693 33.1704 139.732 30.8219C141.775 35.5946 145.564 34.1765 146.623 33.4619L146.836 35.1126C146.836 35.1126 145.284 36.0879 144.011 35.7235Z" fill="#FFAD94"/>
<path d="M151.823 57.9559C153.953 58.4406 149.893 67.7973 146.065 73.9173L146.569 57.4683L151.823 57.9559Z" fill="#2E353D"/>
<path d="M133.468 57.149C133.468 57.149 136.369 49.0758 136.598 47.7952C137.7 56.2551 151.826 57.9532 151.826 57.9532C147.079 57.6982 150.66 66.8503 146.067 73.9147C140.084 69.6554 133.468 57.149 133.468 57.149Z" fill="#FE7062"/>
<path d="M143.201 73.0741C142.991 73.0741 142.786 72.9732 142.663 72.7854C132.95 58.2335 137.941 48.9273 142.769 39.9265C146.275 33.3889 149.901 26.6299 148.222 17.646C148.158 17.2957 148.388 16.9567 148.741 16.8922C149.091 16.8278 149.43 17.0575 149.495 17.4106C151.257 26.8429 147.522 33.8064 143.91 40.5402C139.048 49.6026 134.458 58.1634 143.739 72.0681C143.938 72.3651 143.856 72.7686 143.559 72.9648C143.45 73.0405 143.324 73.0741 143.201 73.0741Z" fill="#190E8E"/>
<path d="M143.1 73.7725C142.562 73.7725 142.035 73.5034 141.73 73.0158L139.401 69.3136C138.924 68.5569 139.151 67.5592 139.908 67.0828C140.665 66.6063 141.662 66.8334 142.139 67.59L144.468 71.2922C144.944 72.0489 144.717 73.0466 143.96 73.523C143.691 73.694 143.394 73.7725 143.1 73.7725Z" fill="#190E8E"/>
<path d="M117.189 286.744L115.917 300.194L124.184 299.113L126.159 288.672L117.189 286.744Z" fill="#FFAD94"/>
<path d="M155.57 290.202V298.625L160.149 301.523L164.954 298.625V289.465L155.57 290.202Z" fill="#FFAD94"/>
<path d="M129.47 288.12C134.797 264.522 152.86 165.144 152.86 165.144H153.681V288.84C153.681 288.84 164.41 291.835 169.244 287.002C171.539 266.363 178.792 157.925 176.23 143.146L124.316 139.865L116.218 286.996C116.218 286.996 123.537 290.546 129.47 288.12Z" fill="#4F52FF"/>
<path d="M155.884 281.753C155.873 281.753 155.861 281.753 155.853 281.753C155.497 281.736 155.22 281.434 155.237 281.075C155.542 274.72 155.368 261.162 155.164 245.464C154.78 215.651 154.301 178.547 156.68 165.032C156.741 164.679 157.075 164.443 157.431 164.508C157.784 164.57 158.019 164.906 157.955 165.256C155.595 178.651 156.074 215.688 156.458 245.447C156.66 261.165 156.837 274.742 156.528 281.139C156.512 281.484 156.226 281.753 155.884 281.753Z" fill="#190E8E"/>
<path d="M114.557 299.959C116.429 298.009 116.317 294.475 117.485 294.206C118.654 293.934 124.595 294.052 124.595 294.052C124.595 294.052 123.973 296.734 125.172 299.471L114.557 299.959Z" fill="#D83A21"/>
<path d="M161.709 165.144L153.678 220.875V165.404L161.709 165.144Z" fill="#190E8E"/>
<path d="M116.067 287.422C116.064 287.422 116.061 287.422 116.056 287.422C115.697 287.416 115.414 287.122 115.42 286.766C116.022 246.554 130.437 146.845 130.582 145.842C130.633 145.489 130.961 145.243 131.317 145.296C131.67 145.346 131.916 145.677 131.863 146.03C131.717 147.03 117.317 246.658 116.714 286.786C116.709 287.139 116.42 287.422 116.067 287.422Z" fill="#190E8E"/>
<path d="M153.891 165.791H152.655C152.296 165.791 152.008 165.503 152.008 165.144C152.008 164.785 152.296 164.497 152.655 164.497H153.891C154.846 164.497 155.623 163.721 155.623 162.765V146.097C155.623 145.739 155.911 145.45 156.27 145.45C156.629 145.45 156.917 145.739 156.917 146.097V162.765C156.917 164.432 155.561 165.791 153.891 165.791Z" fill="#190E8E"/>
<path d="M146.089 175.495C145.876 175.495 145.669 175.392 145.546 175.198C145.352 174.898 145.436 174.498 145.736 174.304C147.605 173.094 150.946 167.069 152.075 164.85C152.237 164.53 152.627 164.404 152.946 164.567C153.266 164.729 153.392 165.119 153.229 165.438C153.058 165.777 148.981 173.747 146.44 175.394C146.333 175.462 146.21 175.495 146.089 175.495Z" fill="#190E8E"/>
<path d="M109.223 306.917L115.013 299.365C117.588 296.005 122.668 296.058 125.171 299.471L130.632 306.917H109.223Z" fill="#D83A21"/>
<path d="M119.69 304.734C113.817 304.734 108.748 305.104 108.748 306.917V310.199H130.633V306.917C130.633 305.104 125.561 304.734 119.69 304.734Z" fill="white"/>
<path d="M123.972 145.938H176.522C176.541 144.761 176.23 143.149 176.23 143.149L124.316 139.868L123.972 145.938Z" fill="#0B61DD"/>
<path d="M159.804 290.734C157.727 290.734 155.415 290.32 152.921 289.224C152.593 289.081 152.445 288.697 152.591 288.372C152.734 288.044 153.118 287.896 153.443 288.041C159.498 290.704 164.385 289.033 167.117 287.489C163.396 288.089 157.088 288.588 153.302 286.057C152.997 285.853 152.86 285.603 152.888 285.309C152.933 284.867 153.316 284.712 153.543 284.62C154.09 284.399 155.222 283.939 155.256 281.103C155.258 280.747 155.55 280.464 155.903 280.464C155.906 280.464 155.909 280.464 155.911 280.464C156.27 280.467 156.556 280.761 156.55 281.12C156.519 283.788 155.575 284.909 154.796 285.433C160.084 288.089 169.69 285.662 169.794 285.637C170.077 285.564 170.374 285.69 170.519 285.945C170.662 286.2 170.617 286.52 170.41 286.724C170.351 286.772 166.218 290.734 159.804 290.734Z" fill="#190E8E"/>
<path d="M147.3 182.708C147.21 182.708 147.121 182.688 147.034 182.649C146.709 182.504 146.563 182.12 146.709 181.792C150.032 174.422 151.932 165.928 152.008 165.085C152.039 164.729 152.353 164.466 152.708 164.496C153.064 164.527 153.328 164.841 153.297 165.197C153.216 166.108 151.338 174.68 147.889 182.324C147.782 182.565 147.547 182.708 147.3 182.708Z" fill="#190E8E"/>
<path d="M123.689 289.807C123.044 289.807 122.394 289.781 121.761 289.725C119.637 289.538 116.829 288.941 115.521 287.161C115.308 286.873 115.372 286.469 115.658 286.256C115.946 286.043 116.35 286.108 116.563 286.394C117.322 287.425 119.085 288.139 121.531 288.403C124.998 288.775 128.318 288.12 128.733 287.753C128.996 287.52 129.408 287.534 129.647 287.792C129.885 288.052 129.879 288.448 129.624 288.691C128.926 289.355 126.357 289.807 123.689 289.807Z" fill="#190E8E"/>
<path d="M153.771 148.462C154.249 148.462 154.637 148.075 154.637 147.596C154.637 147.118 154.249 146.73 153.771 146.73C153.293 146.73 152.905 147.118 152.905 147.596C152.905 148.075 153.293 148.462 153.771 148.462Z" fill="#0B61DD"/>
<path d="M114.007 299.995C109.137 299.995 106.626 298.261 105.937 296.467C105.41 295.094 105.889 293.69 107.162 292.889C109.381 291.488 114.013 292.009 119.766 298.079C120.013 298.339 120.001 298.748 119.741 298.995C119.547 299.18 119.267 299.219 119.035 299.118C118.967 299.351 118.774 299.536 118.522 299.578C116.838 299.867 115.336 299.995 114.007 299.995ZM109.653 293.542C108.868 293.542 108.263 293.727 107.854 293.985C107.12 294.45 106.848 295.223 107.148 296.002C107.711 297.465 110.67 299.592 118.197 298.32C114.487 294.618 111.55 293.542 109.653 293.542Z" fill="#190E8E"/>
<path d="M133.367 307.315C133.218 307.315 133.067 307.264 132.947 307.158C132.675 306.925 132.644 306.516 132.877 306.244C133.387 305.65 133.751 304.429 133.426 303.33C133.179 302.501 132.61 301.949 131.73 301.694C130.422 301.31 128.589 301.195 126.647 301.071C123.772 300.889 120.51 300.685 118.131 299.516C117.809 299.359 117.677 298.97 117.834 298.65C117.991 298.328 118.381 298.196 118.7 298.353C120.849 299.407 123.971 299.603 126.728 299.78C128.743 299.906 130.646 300.026 132.092 300.449C133.381 300.828 134.297 301.719 134.664 302.96C135.079 304.353 134.746 306.048 133.857 307.085C133.728 307.239 133.549 307.315 133.367 307.315Z" fill="#190E8E"/>
<path d="M161.709 165.791H142.477C142.119 165.791 141.83 165.503 141.83 165.144C141.83 164.785 142.119 164.497 142.477 164.497H161.709C162.068 164.497 162.356 164.785 162.356 165.144C162.356 165.503 162.065 165.791 161.709 165.791Z" fill="#190E8E"/>
<path d="M154.887 165.57C154.531 165.57 154.239 165.281 154.239 164.923C154.239 164.564 154.528 164.275 154.887 164.275C154.94 164.275 160.211 164.236 162.441 161.546C162.668 161.271 163.077 161.232 163.352 161.462C163.627 161.689 163.666 162.098 163.436 162.373C160.816 165.533 155.128 165.57 154.887 165.57Z" fill="#190E8E"/>
<path d="M123.495 303.277H117.184C116.825 303.277 116.537 302.988 116.537 302.63C116.537 302.271 116.825 301.982 117.184 301.982H123.495C123.854 301.982 124.143 302.271 124.143 302.63C124.143 302.988 123.854 303.277 123.495 303.277Z" fill="#190E8E"/>
<path d="M123.495 299.878H117.184C116.825 299.878 116.537 299.589 116.537 299.231C116.537 298.872 116.825 298.583 117.184 298.583H123.495C123.854 298.583 124.143 298.872 124.143 299.231C124.143 299.589 123.854 299.878 123.495 299.878Z" fill="#190E8E"/>
<path d="M151.955 306.799C151.955 306.799 151.669 307.049 151.63 307.276C151.59 307.503 152.008 310.26 152.008 310.26C152.008 310.26 187.932 311.294 191.088 310C191.088 310 192.399 306.799 191.83 306.572C191.261 306.345 151.955 306.799 151.955 306.799Z" fill="white"/>
<path d="M151.954 306.799C151.954 306.799 179.85 307.645 191.83 306.572C191.791 304.053 175.084 307.329 166.125 292.536C166.125 292.536 164.903 291.488 164.435 293.357C163.973 295.201 163.443 301.111 158.469 300.018C153.498 298.925 154.656 296.153 154.656 296.153C154.656 296.153 150.251 299.816 151.954 306.799Z" fill="#D83A21"/>
<path d="M151.581 302.8C151.73 298.109 155.524 294.478 155.524 294.478C155.524 294.478 155.546 299.163 159.085 299.471C163.886 299.889 163.729 295.627 164.331 293.668C166.043 296.308 171.583 300.659 174.304 302.461C170.252 304.479 171.67 306.3 173.206 307.079C173.206 307.079 165.634 307.079 162.356 307.032C160.419 301.503 151.696 302.786 151.581 302.8Z" fill="#E1473D"/>
<path d="M170.637 302.902C170.539 302.902 170.441 302.879 170.348 302.835C170.029 302.675 169.897 302.285 170.057 301.966C171.178 299.715 173.271 299.292 173.678 299.23C174.034 299.18 174.361 299.421 174.415 299.774C174.468 300.127 174.224 300.458 173.871 300.511C173.574 300.556 172.049 300.867 171.214 302.543C171.105 302.77 170.875 302.902 170.637 302.902Z" fill="#190E8E"/>
<path d="M167.104 299.25C166.978 299.25 166.852 299.214 166.743 299.138C166.445 298.939 166.37 298.536 166.569 298.239C167.241 297.246 168.878 296.425 169.59 296.414C169.946 296.409 170.243 296.694 170.249 297.05C170.254 297.406 169.971 297.7 169.615 297.709C169.327 297.731 168.105 298.283 167.642 298.964C167.516 299.152 167.311 299.25 167.104 299.25Z" fill="#190E8E"/>
<path d="M167.09 294.019C166.63 293.338 165.902 292.298 165.54 290.916C164.377 290.933 164.335 293.671 164.335 293.671L167.09 294.019Z" fill="#D83A21"/>
<path d="M168.812 297.953C168.801 297.953 168.79 297.953 168.778 297.953C168.423 297.936 168.148 297.63 168.165 297.275C168.493 290.751 171.558 288.159 174.083 287.921C175.781 287.761 177.208 288.644 177.552 290.07C177.785 291.031 177.917 294.425 169.838 297.667C169.675 297.731 169.501 297.726 169.35 297.664C169.235 297.838 169.036 297.953 168.812 297.953ZM174.47 289.196C174.383 289.196 174.293 289.199 174.204 289.207C172.309 289.384 170.023 291.387 169.527 296.392C175.047 294.142 176.628 291.749 176.294 290.373C176.123 289.658 175.392 289.196 174.47 289.196Z" fill="#190E8E"/>
<path d="M186.795 301.71C186.565 301.71 186.341 301.587 186.223 301.369C182.527 294.489 171.24 297.061 169.852 297.658C169.525 297.798 169.144 297.647 169.003 297.319C168.863 296.991 169.015 296.61 169.342 296.47C170.934 295.786 183.157 292.934 187.364 300.758C187.532 301.071 187.414 301.464 187.1 301.635C187.005 301.685 186.898 301.71 186.795 301.71Z" fill="#190E8E"/>
<path d="M252.297 100.345L245.244 99.9558C244.372 99.9082 243.702 99.1628 243.75 98.2885C243.795 97.4954 244.414 96.8734 245.182 96.8005L252.213 96.1364C253.373 96.0271 254.401 96.879 254.511 98.0391C254.62 99.1992 253.768 100.228 252.608 100.337C252.51 100.348 252.395 100.351 252.297 100.345Z" fill="#FFAD94"/>
<path d="M252.78 104.389L238.399 103.125C237.531 103.049 236.889 102.281 236.965 101.416C237.037 100.589 237.744 99.9668 238.559 99.9752L252.993 100.191C254.156 100.208 255.084 101.163 255.067 102.326C255.05 103.489 254.095 104.417 252.932 104.4C252.884 104.394 252.831 104.392 252.78 104.389Z" fill="#FFAD94"/>
<path d="M252.122 108.388L237.304 106.412C236.441 106.297 235.833 105.504 235.948 104.638C236.057 103.814 236.791 103.223 237.61 103.271L252.529 104.201C253.689 104.274 254.572 105.272 254.499 106.432C254.426 107.592 253.428 108.474 252.268 108.402C252.221 108.399 252.17 108.396 252.122 108.388Z" fill="#FFAD94"/>
<path d="M250.229 111.341L242.155 109.34C241.449 109.166 241.018 108.452 241.194 107.746C241.357 107.096 241.976 106.678 242.626 106.754L250.887 107.72C251.899 107.838 252.622 108.755 252.504 109.766C252.386 110.778 251.47 111.501 250.458 111.383C250.383 111.372 250.299 111.358 250.229 111.341Z" fill="#FFAD94"/>
<path d="M144.24 110.674C144.24 110.674 141.516 112.434 138.223 112.381C137.607 112.37 133.46 115.508 132.454 116.158C131.537 116.75 129.102 122.32 129.102 122.32L130.736 124.935L139.014 117.31L139.655 115.018C139.655 115.018 142.438 114.597 143.612 113.874C144.775 113.157 145.574 111.252 144.24 110.674Z" fill="#CE5F49"/>
<path d="M267.17 63.8883C268.114 61.5961 264.281 57.1714 261.641 57.1714C260.913 65.1017 252.498 78.4515 252.498 78.4515C252.498 78.4515 263.182 73.5728 267.17 63.8883Z" fill="#BDD0FB"/>
<path d="M152.543 65.2723C198.937 77.8067 256.601 80.7182 267.171 63.888C258.81 87.0288 241.926 116.48 242.055 138.438C190.685 184.93 164.209 152.461 125.115 150.354C142.525 116.04 145.482 75.4332 152.543 65.2723Z" fill="url(#paint1_linear)"/>
<path d="M133.592 114.933L144.397 120.944C145.159 121.367 145.434 122.328 145.008 123.091C144.607 123.811 143.719 124.094 142.982 123.763L131.706 118.694C130.646 118.218 130.173 116.971 130.649 115.911C131.126 114.852 132.373 114.379 133.432 114.855C133.485 114.877 133.541 114.905 133.592 114.933Z" fill="#FFAD94"/>
<path d="M131.148 118.254L144.29 124.226C145.083 124.588 145.434 125.523 145.075 126.316C144.73 127.073 143.859 127.426 143.091 127.143L129.548 122.144C128.458 121.74 127.9 120.533 128.304 119.44C128.707 118.35 129.918 117.792 131.008 118.196C131.053 118.215 131.103 118.235 131.148 118.254Z" fill="#FFAD94"/>
<path d="M129.854 122.085L141.887 126.955C142.694 127.283 143.086 128.202 142.758 129.009C142.447 129.774 141.598 130.164 140.822 129.923L128.436 126.044C127.326 125.697 126.71 124.517 127.057 123.408C127.405 122.298 128.585 121.681 129.694 122.029C129.747 122.046 129.804 122.065 129.854 122.085Z" fill="#FFAD94"/>
<path d="M129.784 125.955L136.809 128.146C137.504 128.362 137.891 129.102 137.675 129.797C137.476 130.43 136.845 130.808 136.206 130.705L128.94 129.536C127.934 129.373 127.251 128.426 127.413 127.42C127.576 126.414 128.523 125.731 129.529 125.893C129.613 125.907 129.705 125.93 129.784 125.955Z" fill="#FFAD94"/>
<path d="M415.479 176.145H410.793V290.737H415.479V176.145Z" fill="#BDD0FB"/>
<path d="M415.48 176.145H414.277V290.737H415.48V176.145Z" fill="#E0E8FE"/>
<path d="M415.479 210.38H410.793V216.731H415.479V210.38Z" fill="#2E353D"/>
<path d="M415.479 258.217H410.793V264.568H415.479V258.217Z" fill="#2E353D"/>
<path d="M418.27 290.737H408V311.006H418.27V290.737Z" fill="#BDD0FB"/>
<path d="M416.92 174.433H409.353V176.146H416.92V174.433Z" fill="#BDD0FB"/>
<path d="M416.791 159.369H409.48L407.86 172.903H418.413L416.791 159.369Z" fill="#4F52FF"/>
<path d="M419.31 172.903H406.963V174.436H419.31V172.903Z" fill="#BDD0FB"/>
<path d="M416.791 159.369L418.413 172.903H414.263V159.369H416.791Z" fill="#4F52FF"/>
<path d="M418.273 290.737H414.277V311.006H418.273V290.737Z" fill="#E0E8FE"/>
<path d="M272.285 176.145H267.6V290.737H272.285V176.145Z" fill="#BDD0FB"/>
<path d="M272.282 176.145H271.08V290.737H272.282V176.145Z" fill="#E0E8FE"/>
<path d="M444.216 226.866H238.86V258.217H444.216V226.866Z" fill="#F2F8FC"/>
<path d="M444.216 179.029H238.86V210.381H444.216V179.029Z" fill="#F2F8FC"/>
<path d="M272.286 210.38H267.6V216.731H272.286V210.38Z" fill="#2E353D"/>
<path d="M272.286 258.217H267.6V264.568H272.286V258.217Z" fill="#2E353D"/>
<path d="M275.076 290.737H264.806V311.006H275.076V290.737Z" fill="#BDD0FB"/>
<path d="M273.724 174.433H266.157V176.146H273.724V174.433Z" fill="#BDD0FB"/>
<path d="M273.597 159.369H266.286L264.664 172.903H275.22L273.597 159.369Z" fill="#4F52FF"/>
<path d="M276.112 172.903H263.766V174.436H276.112V172.903Z" fill="#BDD0FB"/>
<path d="M273.596 159.369L275.219 172.903H271.066V159.369H273.596Z" fill="#4F52FF"/>
<path d="M275.076 290.737H271.08V311.006H275.076V290.737Z" fill="#E0E8FE"/>
<path d="M271.713 159.369H270.418V172.903H271.713V159.369Z" fill="white"/>
<path d="M414.91 159.369H413.615V172.903H414.91V159.369Z" fill="white"/>
<path d="M451.692 214.791C452.225 219.863 452.931 224.994 453.752 230.105C454.579 235.214 455.506 240.305 456.498 245.299C457.487 250.293 458.524 255.191 459.558 259.921C461.624 269.381 463.647 278.175 465.199 285.716C465.978 289.487 466.642 292.942 467.164 296.005C467.685 299.068 468.063 301.733 468.301 303.919C468.539 306.102 468.646 307.822 468.691 308.926C468.708 309.198 468.708 309.481 468.713 309.708C468.719 309.938 468.722 310.131 468.724 310.288C468.73 310.599 468.733 310.762 468.733 310.762V310.776C468.733 310.798 468.733 310.821 468.736 310.846C468.738 310.902 468.747 310.955 468.752 311.011H473.861C473.878 310.874 473.883 310.734 473.878 310.591C473.878 310.591 473.869 310.431 473.855 310.117C473.836 309.798 473.824 309.361 473.777 308.722C473.687 307.413 473.511 305.597 473.191 303.305C472.869 301.013 472.393 298.267 471.762 295.151C471.132 292.035 470.347 288.551 469.445 284.771C467.64 277.214 465.342 268.482 462.991 259.117C461.814 254.434 460.629 249.592 459.491 244.66C458.348 239.728 457.272 234.701 456.294 229.66C455.321 224.616 454.464 219.549 453.78 214.545C453.11 209.537 452.584 204.588 452.323 199.788C452.054 194.988 452.001 190.333 452.236 185.931C452.469 181.531 452.934 177.379 453.679 173.607C454.413 169.829 455.383 166.427 456.473 163.494C457.56 160.56 458.76 158.096 459.858 156.132C460.985 154.185 461.977 152.713 462.691 151.741C463.42 150.777 463.806 150.261 463.806 150.261C463.806 150.261 463.403 150.763 462.644 151.705C461.898 152.655 460.859 154.098 459.665 156.017C458.499 157.954 457.216 160.394 456.027 163.317C454.837 166.24 453.749 169.644 452.889 173.436C452.015 177.227 451.412 181.405 451.04 185.847C450.661 190.288 450.569 194.993 450.689 199.85C450.796 204.709 451.174 209.719 451.692 214.791Z" fill="#E0E8FE"/>
<path d="M252.922 279.912C253.043 280.313 253.16 280.713 253.281 281.117C253.39 281.523 253.499 281.93 253.609 282.339C253.836 283.151 254.023 283.981 254.222 284.805C254.418 285.628 254.584 286.464 254.763 287.287C254.917 288.12 255.091 288.943 255.228 289.767C255.368 290.591 255.511 291.407 255.626 292.217C255.752 293.024 255.862 293.828 255.962 294.615C256.17 296.193 256.33 297.72 256.464 299.172C256.59 300.623 256.697 301.996 256.761 303.263C256.904 305.796 256.935 307.906 256.91 309.352C256.907 309.716 256.896 310.036 256.884 310.308C256.879 310.439 256.876 310.585 256.868 310.675C256.862 310.77 256.854 310.857 256.848 310.933C256.848 310.955 256.845 310.983 256.842 311.008H260.878C260.878 310.93 260.878 310.849 260.878 310.759C260.878 310.599 260.869 310.476 260.866 310.316C260.858 310.005 260.841 309.655 260.816 309.265C260.726 307.71 260.53 305.535 260.191 302.941C260.029 301.643 259.813 300.245 259.575 298.771C259.328 297.297 259.048 295.747 258.714 294.153C258.549 293.354 258.378 292.544 258.187 291.729C258.008 290.911 257.801 290.087 257.593 289.257C257.392 288.428 257.153 287.598 256.932 286.763C256.685 285.934 256.453 285.096 256.189 284.269C255.923 283.443 255.671 282.613 255.374 281.798C255.231 281.389 255.088 280.982 254.948 280.576C254.794 280.173 254.643 279.772 254.489 279.374C253.883 277.774 253.202 276.233 252.51 274.759C252.146 274.03 251.787 273.313 251.42 272.621C251.227 272.279 251.036 271.942 250.848 271.606C250.661 271.273 250.479 270.942 250.274 270.628C249.868 270 249.512 269.37 249.091 268.804C248.682 268.232 248.31 267.666 247.889 267.167C247.477 266.663 247.11 266.161 246.696 265.735C246.497 265.517 246.3 265.304 246.11 265.099C246.015 264.996 245.922 264.895 245.83 264.794C245.734 264.696 245.633 264.606 245.538 264.516C245.154 264.155 244.796 263.819 244.462 263.508C244.106 263.225 243.778 262.964 243.484 262.729C243.336 262.611 243.198 262.502 243.067 262.395C242.932 262.297 242.795 262.216 242.674 262.132C242.431 261.972 242.223 261.835 242.052 261.725C241.716 261.504 241.537 261.386 241.537 261.386C241.537 261.386 241.708 261.518 242.027 261.762C242.187 261.885 242.383 262.034 242.613 262.213C242.728 262.303 242.854 262.392 242.983 262.502C243.106 262.614 243.235 262.734 243.372 262.863C243.647 263.118 243.949 263.398 244.28 263.704C244.583 264.035 244.913 264.393 245.264 264.777C245.35 264.872 245.443 264.968 245.527 265.071C245.611 265.178 245.695 265.284 245.779 265.391C245.95 265.607 246.124 265.831 246.306 266.058C246.682 266.503 247.007 267.024 247.371 267.546C247.746 268.061 248.069 268.644 248.424 269.23C248.792 269.807 249.097 270.454 249.447 271.093C249.624 271.413 249.778 271.749 249.938 272.088C250.097 272.427 250.257 272.769 250.42 273.117C250.728 273.817 251.025 274.543 251.328 275.277C251.896 276.762 252.448 278.309 252.922 279.912Z" fill="#E0E8FE"/>
<path d="M260.743 310.975C260.743 310.986 260.746 310.997 260.746 311.006H264.702C264.677 310.86 264.652 310.703 264.627 310.529C264.425 309.249 264.176 307.379 263.935 305.121C263.455 300.601 262.993 294.528 262.873 288.445C262.836 286.923 262.833 285.404 262.842 283.905C262.859 282.409 262.892 280.935 262.962 279.511C262.999 278.8 263.029 278.099 263.086 277.415C263.111 277.073 263.133 276.734 263.158 276.401C263.189 276.067 263.22 275.737 263.251 275.414C263.369 274.114 263.537 272.89 263.713 271.766C263.806 271.203 263.915 270.67 264.007 270.157C264.125 269.653 264.232 269.171 264.344 268.723C264.473 268.28 264.587 267.86 264.708 267.479C264.842 267.1 264.969 266.756 265.081 266.442C265.355 265.836 265.56 265.352 265.759 265.055C265.941 264.746 266.036 264.581 266.036 264.581C266.036 264.581 265.927 264.738 265.72 265.032C265.495 265.315 265.246 265.78 264.918 266.372C264.778 266.677 264.624 267.016 264.456 267.386C264.302 267.762 264.153 268.173 263.982 268.613C263.831 269.056 263.682 269.535 263.52 270.037C263.383 270.544 263.226 271.077 263.086 271.637C262.811 272.758 262.539 273.983 262.309 275.286C262.25 275.611 262.192 275.941 262.133 276.278C262.08 276.614 262.026 276.953 261.973 277.295C261.861 277.981 261.771 278.685 261.673 279.399C261.485 280.831 261.326 282.314 261.183 283.821C261.048 285.329 260.922 286.864 260.833 288.4C260.443 294.545 260.395 300.705 260.499 305.339C260.549 307.66 260.642 309.599 260.743 310.975Z" fill="#E0E8FE"/>
<path d="M278.711 311.008C278.708 310.969 278.705 310.891 278.702 310.767C278.7 310.58 278.694 310.302 278.688 309.949C278.683 309.235 278.686 308.206 278.725 306.973C278.761 305.737 278.831 304.297 278.96 302.756C279.027 301.985 279.1 301.189 279.201 300.385C279.294 299.578 279.411 298.765 279.546 297.95C279.678 297.137 279.837 296.33 280.011 295.54C280.193 294.753 280.389 293.979 280.616 293.245C280.728 292.878 280.843 292.516 280.975 292.169C281.039 291.995 281.101 291.822 281.163 291.653C281.233 291.488 281.3 291.323 281.367 291.16C281.636 290.507 281.942 289.916 282.253 289.386C282.567 288.86 282.9 288.403 283.228 288.024C283.382 287.823 283.567 287.68 283.716 287.52C283.864 287.36 284.027 287.245 284.172 287.133C284.318 287.027 284.439 286.915 284.565 286.85C284.688 286.78 284.792 286.721 284.879 286.674C285.049 286.579 285.142 286.525 285.142 286.525C285.142 286.525 285.047 286.565 284.865 286.64C284.772 286.677 284.66 286.724 284.528 286.777C284.394 286.828 284.259 286.926 284.097 287.016C283.937 287.108 283.755 287.209 283.584 287.352C283.413 287.495 283.2 287.624 283.018 287.809C282.631 288.156 282.23 288.588 281.838 289.095C281.449 289.602 281.056 290.179 280.698 290.818C280.608 290.978 280.515 291.141 280.423 291.303C280.339 291.471 280.252 291.639 280.165 291.813C279.986 292.155 279.823 292.514 279.661 292.878C279.333 293.607 279.036 294.377 278.75 295.165C278.473 295.955 278.209 296.765 277.971 297.58C277.733 298.396 277.511 299.217 277.315 300.032C277.114 300.845 276.937 301.649 276.774 302.428C276.449 303.989 276.2 305.452 276.007 306.713C275.816 307.974 275.682 309.03 275.598 309.775C275.558 310.154 275.527 310.448 275.505 310.652C275.488 310.868 275.477 310.983 275.477 310.983C275.477 310.989 275.477 310.994 275.477 311H278.711V311.008Z" fill="#E0E8FE"/>
<path d="M238.86 179.265V200.738L260.648 179.029H239.096L238.86 179.265Z" fill="#BDD0FB"/>
<path d="M251.526 210.381H273.078L304.542 179.029H282.99L251.526 210.381Z" fill="#BDD0FB"/>
<path d="M295.42 210.381H316.972L348.436 179.029H326.884L295.42 210.381Z" fill="#BDD0FB"/>
<path d="M339.315 210.381H360.867L392.333 179.029H370.781L339.315 210.381Z" fill="#BDD0FB"/>
<path d="M383.209 210.381H404.761L436.227 179.029H414.675L383.209 210.381Z" fill="#BDD0FB"/>
<path d="M444.217 210.38V193.329L427.104 210.38H444.217Z" fill="#BDD0FB"/>
<path d="M256.716 226.866H238.86V244.655L256.716 226.866Z" fill="#BDD0FB"/>
<path d="M269.144 258.217L300.611 226.866H279.059L247.595 258.217H269.144Z" fill="#BDD0FB"/>
<path d="M313.041 258.217L344.504 226.866H322.952L291.489 258.217H313.041Z" fill="#BDD0FB"/>
<path d="M356.934 258.217L388.398 226.866H366.849L335.382 258.217H356.934Z" fill="#BDD0FB"/>
<path d="M400.829 258.217L432.293 226.866H410.744L379.277 258.217H400.829Z" fill="#BDD0FB"/>
<path d="M444.216 258.217V237.248L423.171 258.217H444.216Z" fill="#BDD0FB"/>
<path d="M408.279 243.035C408.545 243.326 408.834 243.677 409.165 244.058C409.327 244.251 409.507 244.447 409.68 244.669C409.846 244.896 410.019 245.131 410.199 245.377C410.378 245.624 410.566 245.879 410.759 246.145C410.958 246.406 411.126 246.706 411.32 247C411.695 247.597 412.113 248.213 412.485 248.914C412.872 249.603 413.287 250.318 413.662 251.1C413.856 251.486 414.055 251.881 414.256 252.282C414.453 252.686 414.632 253.109 414.828 253.535C415.019 253.961 415.212 254.392 415.408 254.832C415.59 255.278 415.775 255.732 415.963 256.191C416.717 258.024 417.414 259.997 418.104 262.048C418.437 263.076 418.765 264.127 419.09 265.192C419.393 266.265 419.726 267.339 420.012 268.44C420.306 269.538 420.606 270.64 420.875 271.76C421.013 272.318 421.15 272.879 421.287 273.436L421.674 275.123C422.192 277.371 422.649 279.635 423.081 281.862C423.495 284.096 423.888 286.296 424.215 288.431C424.557 290.563 424.84 292.634 425.095 294.593C425.342 296.555 425.552 298.41 425.715 300.122C425.877 301.831 426.006 303.4 426.085 304.779C426.171 306.161 426.208 307.349 426.225 308.316C426.222 308.789 426.219 309.209 426.219 309.577C426.199 309.876 426.188 310.126 426.183 310.33C426.149 310.653 426.124 310.882 426.11 311.017H431.916C431.919 310.93 431.922 310.84 431.924 310.737C431.916 310.395 431.908 309.977 431.896 309.481C431.866 309.058 431.829 308.573 431.79 308.03C431.689 306.965 431.549 305.69 431.344 304.252C431.148 302.812 430.888 301.206 430.582 299.46C430.277 297.715 429.915 295.837 429.506 293.856C429.089 291.878 428.637 289.798 428.119 287.658C427.615 285.517 427.043 283.314 426.443 281.083C425.83 278.856 425.185 276.603 424.482 274.364L423.955 272.685C423.77 272.13 423.588 271.573 423.403 271.018C423.041 269.908 422.649 268.813 422.265 267.722C421.887 266.632 421.464 265.568 421.071 264.506C420.657 263.452 420.242 262.415 419.822 261.398C418.958 259.375 418.098 257.43 417.185 255.631C416.958 255.18 416.736 254.737 416.515 254.3C416.28 253.868 416.05 253.445 415.823 253.03C415.593 252.616 415.377 252.204 415.145 251.809C414.909 251.416 414.677 251.032 414.45 250.654C414.01 249.892 413.531 249.197 413.085 248.533C412.656 247.857 412.18 247.261 411.754 246.689C411.535 246.409 411.345 246.12 411.121 245.871C410.902 245.618 410.695 245.375 410.493 245.139C410.291 244.907 410.098 244.683 409.916 244.467C409.725 244.259 409.526 244.074 409.347 243.892C408.983 243.534 408.666 243.206 408.377 242.934C408.072 242.682 407.811 242.466 407.601 242.289C407.181 241.942 406.957 241.757 406.957 241.757C406.957 241.757 407.164 241.959 407.556 242.34C407.755 242.528 407.996 242.76 408.279 243.035Z" fill="#E0E8FE"/>
<path d="M434.512 278.222C434.54 279.996 434.571 281.764 434.621 283.519C434.742 287.024 434.893 290.476 435.125 293.808C435.336 297.143 435.619 300.363 435.902 303.414C436.165 306.088 436.434 308.632 436.717 311.006H441.212C440.789 308.498 440.368 305.791 439.951 302.93C439.531 299.931 439.102 296.767 438.743 293.486C438.359 290.205 438.051 286.806 437.771 283.35C437.642 281.621 437.527 279.878 437.418 278.127C437.376 277.25 437.331 276.373 437.289 275.493C437.244 274.613 437.199 273.733 437.179 272.853C437.132 271.093 437.062 269.331 437.062 267.577C437.053 266.7 437.048 265.822 437.039 264.951C437.051 264.077 437.065 263.208 437.076 262.342C437.095 261.476 437.09 260.61 437.126 259.753C437.16 258.895 437.196 258.041 437.23 257.192C437.278 255.491 437.426 253.818 437.53 252.17C437.561 251.758 437.58 251.346 437.619 250.94C437.659 250.534 437.701 250.127 437.74 249.724C437.821 248.917 437.9 248.115 437.978 247.325C438.045 246.532 438.166 245.756 438.264 244.985C438.368 244.214 438.468 243.452 438.569 242.701C438.656 241.947 438.81 241.216 438.925 240.49C439.049 239.765 439.172 239.05 439.292 238.347C439.399 237.64 439.57 236.959 439.707 236.287C439.853 235.614 439.993 234.953 440.133 234.306C440.203 233.984 440.268 233.661 440.343 233.347C440.424 233.034 440.506 232.725 440.587 232.42C440.747 231.806 440.906 231.209 441.058 230.626C441.22 230.046 441.344 229.469 441.526 228.926C441.699 228.382 441.868 227.852 442.03 227.339C442.193 226.827 442.352 226.331 442.504 225.851C442.582 225.613 442.649 225.375 442.733 225.148C442.82 224.921 442.904 224.7 442.988 224.481C443.322 223.61 443.627 222.811 443.905 222.088C444.163 221.357 444.471 220.737 444.717 220.188C444.967 219.642 445.18 219.177 445.351 218.798C445.695 218.042 445.88 217.638 445.88 217.638C445.88 217.638 445.679 218.033 445.298 218.77C445.107 219.14 444.874 219.597 444.597 220.132C444.325 220.67 443.986 221.278 443.695 221.996C443.384 222.707 443.039 223.495 442.663 224.352C442.571 224.568 442.473 224.787 442.378 225.011C442.282 225.235 442.204 225.47 442.114 225.706C441.938 226.179 441.755 226.673 441.568 227.18C441.38 227.687 441.184 228.211 440.985 228.752C440.778 229.29 440.626 229.861 440.436 230.439C440.254 231.019 440.066 231.613 439.875 232.224C439.78 232.529 439.682 232.837 439.584 233.148C439.491 233.462 439.413 233.782 439.326 234.104C439.155 234.749 438.981 235.407 438.805 236.08C438.634 236.752 438.429 237.433 438.289 238.136C438.135 238.84 437.978 239.554 437.818 240.28C437.667 241.009 437.477 241.74 437.353 242.494C437.216 243.248 437.079 244.01 436.938 244.783C436.804 245.557 436.644 246.336 436.538 247.134C436.42 247.93 436.302 248.734 436.185 249.544C436.126 249.951 436.064 250.357 436.005 250.769C435.949 251.178 435.907 251.593 435.857 252.007C435.675 253.666 435.445 255.353 435.316 257.065C435.24 257.923 435.165 258.783 435.089 259.649C435.011 260.515 434.974 261.387 434.915 262.264C434.862 263.138 434.809 264.018 434.756 264.901C434.722 265.783 434.688 266.669 434.652 267.554C434.568 269.328 434.554 271.11 434.52 272.892C434.498 273.784 434.501 274.675 434.503 275.566C434.509 276.446 434.509 277.334 434.512 278.222Z" fill="#E0E8FE"/>
<path d="M447.214 249.466L432.317 306.228H467.942L453.045 249.466C452.258 246.466 448.001 246.466 447.214 249.466Z" fill="white"/>
<path d="M457.169 265.181L453.044 249.466C452.257 246.466 447.997 246.466 447.21 249.466L443.085 265.181H457.169Z" fill="#E1473D"/>
<path d="M437.694 285.738H462.564L460.199 276.723H440.059L437.694 285.738Z" fill="#E1473D"/>
<path d="M434.685 297.21L432.317 306.228H467.942L465.577 297.21H434.685Z" fill="#E1473D"/>
<path d="M476.269 306.228H423.985C422.727 306.228 421.707 307.249 421.707 308.508V308.552C421.707 309.811 422.727 310.832 423.985 310.832H476.269C477.527 310.832 478.547 309.811 478.547 308.552V308.508C478.55 307.249 477.53 306.228 476.269 306.228Z" fill="#E1473D"/>
<path d="M484.397 311.345H1.23478C0.900679 311.345 0.631836 311.149 0.631836 310.905C0.631836 310.662 0.900679 310.466 1.23478 310.466H484.397C484.731 310.466 485 310.662 485 310.905C485 311.149 484.731 311.345 484.397 311.345Z" fill="#E0E8FE"/>
<path d="M77.6651 311.008C77.6679 310.907 77.6679 310.728 77.6735 310.473C77.6763 310.05 77.6763 309.433 77.6819 308.646C77.6791 307.099 77.651 304.927 77.6623 302.33C77.6707 299.732 77.7239 296.711 77.8864 293.48C77.9705 291.866 78.0742 290.196 78.2227 288.506C78.36 286.814 78.5534 285.102 78.7663 283.389C78.9961 281.68 79.2455 279.974 79.5566 278.303C79.6967 277.466 79.8816 276.644 80.0413 275.826C80.2235 275.014 80.3972 274.209 80.5934 273.425C80.798 272.643 80.9773 271.864 81.2015 271.119C81.4144 270.368 81.6218 269.633 81.8572 268.93C81.9721 268.577 82.0842 268.227 82.1935 267.882C82.3139 267.543 82.4345 267.207 82.5521 266.879C82.6726 266.551 82.7819 266.223 82.9024 265.909C83.0285 265.595 83.149 265.287 83.2695 264.987C83.39 264.687 83.5049 264.388 83.6254 264.102C83.7515 263.819 83.8748 263.538 83.9953 263.269C84.1158 262.998 84.2335 262.734 84.3484 262.476C84.4661 262.221 84.5922 261.98 84.7071 261.742C84.9452 261.271 85.1526 260.818 85.3768 260.417C85.5982 260.016 85.8027 259.646 85.9877 259.313C86.167 258.976 86.3464 258.688 86.5061 258.436C86.663 258.183 86.7947 257.97 86.904 257.797C87.1198 257.449 87.2347 257.261 87.2347 257.261C87.2347 257.261 87.1002 257.435 86.8508 257.757C86.7247 257.92 86.5705 258.119 86.3884 258.354C86.2034 258.59 85.9933 258.859 85.7803 259.175C85.5617 259.489 85.3179 259.84 85.0517 260.218C84.7855 260.596 84.5305 261.028 84.2419 261.479C84.099 261.706 83.9477 261.936 83.8019 262.182C83.659 262.429 83.5133 262.684 83.3648 262.944C83.2135 263.205 83.0593 263.474 82.9024 263.746C82.7483 264.023 82.6026 264.312 82.4485 264.603C82.2943 264.898 82.1374 265.195 81.9777 265.5C81.8208 265.805 81.675 266.125 81.5181 266.444C81.364 266.767 81.2071 267.094 81.0473 267.425C80.8988 267.761 80.7475 268.103 80.5962 268.451C80.2823 269.143 79.9909 269.866 79.6967 270.606C79.3884 271.343 79.125 272.113 78.8308 272.89C78.5506 273.669 78.2843 274.47 78.0125 275.28C77.7631 276.095 77.4857 276.916 77.2531 277.754C76.7571 279.424 76.32 281.139 75.9025 282.863C75.5017 284.586 75.1234 286.318 74.8012 288.03C74.4677 289.742 74.1847 291.432 73.9269 293.071C73.4169 296.35 73.0414 299.424 72.7584 302.052C72.4725 304.684 72.2708 306.869 72.1166 308.374C72.0354 309.111 71.9737 309.691 71.9317 310.086C71.8841 310.493 71.856 310.711 71.856 310.711V310.72C71.8448 310.815 71.8392 310.913 71.8364 311.011H77.6651V311.008Z" fill="#E0E8FE"/>
<path d="M81.3055 286.856C81.3644 286.976 81.4316 287.116 81.5101 287.27C81.5886 287.425 81.6642 287.598 81.7427 287.792C81.824 287.982 81.9108 288.19 81.9893 288.417C82.1574 288.865 82.3284 289.378 82.4825 289.947C83.1326 292.214 83.581 295.332 83.7939 298.462C84.0153 301.595 84.0321 304.739 83.9845 307.091C83.9621 308.267 83.9256 309.245 83.8948 309.926C83.8612 310.61 83.8416 311.002 83.8416 311.002H88.6306C88.6278 310.935 88.6222 310.865 88.6138 310.795C88.6138 310.795 88.5577 310.394 88.4596 309.688C88.3588 308.982 88.2046 307.979 88.0029 306.78C87.5966 304.381 86.9773 301.197 86.1478 298.065C85.3296 294.929 84.2703 291.846 83.1774 289.672C82.9112 289.128 82.6394 288.641 82.3844 288.218C82.2611 288.005 82.1322 287.811 82.0145 287.635C81.8996 287.455 81.7903 287.296 81.6811 287.155C81.5746 287.015 81.4821 286.889 81.4008 286.78C81.314 286.676 81.2383 286.587 81.1766 286.517C81.0561 286.374 80.9917 286.298 80.9917 286.298C80.9917 286.298 81.0421 286.385 81.1318 286.547C81.1823 286.637 81.2411 286.738 81.3055 286.856Z" fill="#E0E8FE"/>
<path d="M113.44 144.659C113.271 145.027 113.086 145.424 112.888 145.859C112.689 146.29 112.478 146.755 112.251 147.251C112.038 147.753 111.811 148.286 111.573 148.849C111.08 149.967 110.609 151.239 110.066 152.609C109.564 153.996 109.001 155.484 108.48 157.107C107.404 160.335 106.319 164.02 105.319 168.083C103.307 176.21 101.656 185.849 100.583 196.246C100.042 201.444 99.633 206.83 99.3724 212.311C99.1062 217.792 98.9661 223.363 98.9464 228.936C98.9296 234.51 99.0277 240.084 99.2155 245.565C99.4116 251.046 99.6946 256.44 100.045 261.65C100.751 272.074 101.721 281.778 102.713 290.07C103.707 298.362 104.918 306.059 105.694 310.848L97.6154 311.117C97.0493 306.197 96.346 299.177 95.7295 290.742C95.113 282.308 94.589 272.461 94.3676 261.902C94.2583 256.622 94.2247 251.167 94.2835 245.624C94.3508 240.081 94.5133 234.451 94.7907 228.827C95.071 223.203 95.4745 217.585 96.0013 212.067C96.5225 206.549 97.1866 201.133 97.9769 195.915C99.5461 185.477 101.662 175.834 104.069 167.747C105.265 163.701 106.529 160.044 107.759 156.849C108.359 155.246 108.995 153.775 109.561 152.408C110.169 151.057 110.702 149.807 111.248 148.706C111.514 148.154 111.764 147.63 112.002 147.137C112.251 146.652 112.487 146.195 112.705 145.772C112.924 145.349 113.126 144.956 113.313 144.598C113.498 144.239 113.686 143.922 113.843 143.634C114.482 142.488 114.824 141.874 114.824 141.874C114.824 141.874 114.513 142.502 113.927 143.676C113.779 143.97 113.608 144.295 113.44 144.659Z" fill="#E0E8FE"/>
<defs>
<linearGradient id="paint0_linear" x1="88.7451" y1="288.627" x2="369.586" y2="53.8442" gradientUnits="userSpaceOnUse">
<stop stop-color="#F6FAFF"/>
<stop offset="0.0001" stop-color="#F2F8FC"/>
<stop offset="1" stop-color="white"/>
</linearGradient>
<linearGradient id="paint1_linear" x1="250.05" y1="142.756" x2="173.34" y2="99.9599" gradientUnits="userSpaceOnUse">
<stop stop-color="#CFE4FF"/>
<stop offset="1" stop-color="white"/>
</linearGradient>
</defs>
</svg>
