<svg width="64" height="56" viewBox="0 0 64 56" fill="none" xmlns="http://www.w3.org/2000/svg">
  <path fill-rule="evenodd" clip-rule="evenodd" d="M1.29038 42.0238L23.6327 4.66911C25.3017 1.87906 28.4226 0 32.0001 0C35.5775 0 38.6984 1.87906 40.3674 4.66911L62.7096 42.0238C63.5289 43.3937 64.0001 44.9818 64.0001 46.6772C64.0001 51.8258 59.6761 56 54.342 56H32.0001H32H9.65802C4.32401 56 0 51.8258 0 46.6772C0 44.9818 0.471126 43.3937 1.29038 42.0238Z" fill="#B6C6E8"/>
  <path fill-rule="evenodd" clip-rule="evenodd" d="M51.275 52.2713C51.2748 52.2713 51.2745 52.2713 51.2743 52.2713H9.65755C6.46267 52.2713 3.86279 49.7617 3.86279 46.6777C3.86279 45.6982 4.13067 44.7336 4.63542 43.8884L26.9775 6.53401C28.0128 4.80373 29.9367 3.72852 31.9996 3.72852C32.055 3.72852 32.1103 3.72972 32.1657 3.73226C32.1702 3.73243 32.1748 3.7326 32.1793 3.73279C34.1742 3.79166 36.0176 4.85349 37.0224 6.53418L59.3644 43.8885C59.8693 44.7337 60.1372 45.6983 60.1372 46.6778C60.1372 49.7619 57.5373 52.2715 54.3424 52.2715H51.2751L51.275 52.2713Z" fill="#FFE799"/>
  <path fill-rule="evenodd" clip-rule="evenodd" d="M32.0145 36.1123C32.0097 36.1128 32.0048 36.1131 31.9999 36.1131C30.2216 36.1131 28.7806 34.7209 28.7806 33.0054V16.2246C28.7806 14.5081 30.2212 13.1173 31.9993 13.117V13.1162C33.7777 13.1162 35.2187 14.5072 35.2187 16.2238V33.0047C35.2187 34.7152 33.7859 36.1044 32.0145 36.1123ZM32.0188 39.8419C32.0125 39.841 32.0061 39.8405 31.9997 39.8405C30.2213 39.8405 28.7803 41.2315 28.7803 42.9481C28.7803 44.6647 30.2211 46.0556 31.9993 46.0558V46.0569C33.7777 46.0569 35.2187 44.6659 35.2187 42.9493C35.2187 41.2391 33.7882 39.852 32.0188 39.8419Z" fill="#6D8CD1"/>
</svg>
