<svg width="375" height="437" viewBox="0 0 375 437" fill="none" xmlns="http://www.w3.org/2000/svg">
<path opacity="0.5" d="M196.049 436.41C294.881 436.41 375 430.272 375 422.701C375 415.13 294.881 408.992 196.049 408.992C97.2164 408.992 17.0972 415.13 17.0972 422.701C17.0972 430.272 97.2164 436.41 196.049 436.41Z" fill="#CCCCCC" fill-opacity="0.5"/>
<path d="M269.976 176.437L263.495 178.735C262.878 178.958 262.381 179.109 261.838 179.285L260.227 179.799C259.15 180.152 258.095 180.467 257.036 180.786C255.978 181.104 254.919 181.429 253.876 181.714L250.734 182.62L247.617 183.501L244.5 184.349C242.423 184.915 240.353 185.45 238.285 185.991L232.082 187.572L225.882 189.103L219.636 190.603L216.189 191.429C214.663 191.787 213.074 191.771 211.556 191.382C210.038 190.992 208.637 190.241 207.47 189.193C206.68 188.478 205.819 187.717 204.98 186.978L202.437 184.748C200.734 183.263 214.497 163.096 214.497 163.096L215.593 162.493L220.991 159.474L226.357 156.421C228.135 155.391 229.912 154.37 231.668 153.328L234.301 151.781L236.912 150.219L239.486 148.644C240.35 148.122 241.18 147.59 242.019 147.061C242.859 146.532 243.704 146.009 244.507 145.474L245.722 144.682C246.118 144.419 246.559 144.144 246.883 143.903L248.972 142.427L251.552 140.627L251.598 140.593C256.014 137.509 261.471 136.309 266.768 137.257C269.392 137.727 271.897 138.71 274.141 140.15C276.386 141.59 278.325 143.459 279.848 145.65C281.372 147.842 282.45 150.312 283.021 152.921C283.592 155.53 283.645 158.226 283.176 160.855C282.708 163.484 281.727 165.995 280.29 168.245C278.854 170.494 276.989 172.438 274.803 173.965C273.306 174.993 271.684 175.824 269.976 176.437Z" fill="#E27960"/>
<path d="M126.938 348.637L120.424 409.534H195.995L186.151 348.637H126.938Z" fill="url(#paint0_linear)"/>
<path d="M3.79831e-07 198.608V338.078C0.000388496 343.595 2.06797 348.894 5.76203 352.844C9.45608 356.795 14.4844 359.086 19.7751 359.227C68.642 360.543 239.555 363.726 286.083 363.011C289.932 362.951 293.609 361.345 296.348 358.527C299.088 355.709 300.678 351.897 300.786 347.887C301.685 315.488 303.141 237.576 297.749 201.404C297.201 197.712 295.432 194.336 292.749 191.86C290.065 189.384 286.636 187.964 283.054 187.845C242.111 186.479 60.9313 182.151 14.4353 183.233C10.5782 183.319 6.90684 184.976 4.20836 187.85C1.50989 190.724 -0.000874572 194.586 3.79831e-07 198.608Z" fill="url(#paint1_linear)"/>
<path d="M8.38916 197.925V330.436C8.3924 333.653 9.60881 336.74 11.7759 339.03C13.943 341.321 16.8871 342.631 19.9729 342.679L279.374 346.022C280.887 346.045 282.39 345.755 283.795 345.168C285.2 344.582 286.48 343.711 287.56 342.606C288.641 341.501 289.5 340.183 290.089 338.73C290.677 337.276 290.984 335.715 290.99 334.137L291.438 202.822C291.446 200.539 290.595 198.344 289.068 196.707C287.542 195.07 285.461 194.122 283.271 194.067L17.6785 188.475C16.4694 188.444 15.2666 188.665 14.141 189.127C13.0153 189.588 11.9895 190.279 11.1239 191.159C10.2583 192.04 9.57041 193.092 9.10076 194.254C8.63111 195.416 8.38916 196.664 8.38916 197.925Z" fill="#F9FBFF"/>
<path d="M292.942 351.505L8.38809 346.451C8.33346 346.451 8.2795 346.439 8.22937 346.416C8.17924 346.393 8.13393 346.361 8.09607 346.32C8.0582 346.278 8.02854 346.23 8.00881 346.177C7.98908 346.124 7.97965 346.067 7.9811 346.01C7.98466 345.896 8.03093 345.788 8.11002 345.708C8.18911 345.629 8.29477 345.585 8.40448 345.586L292.947 350.651C293.045 350.668 293.133 350.72 293.197 350.798C293.26 350.876 293.295 350.976 293.295 351.078C293.295 351.181 293.26 351.28 293.197 351.358C293.133 351.437 293.045 351.489 292.947 351.505H292.942Z" fill="#7D97F4"/>
<path d="M212.271 421.991H101.67C98.6656 421.991 96.4095 419.761 96.9885 417.367L98.4088 411.516C98.8349 409.756 100.692 408.466 102.899 408.384L209.524 404.916C211.826 404.842 213.866 406.117 214.369 407.945L216.928 417.264C217.592 419.693 215.325 421.991 212.271 421.991Z" fill="#DBE4FE"/>
<path d="M161.208 410.037C161.111 410.02 161.023 409.968 160.959 409.89C160.895 409.811 160.86 409.712 160.86 409.609C160.86 409.507 160.895 409.408 160.959 409.329C161.023 409.251 161.111 409.199 161.208 409.182L165.778 409.111C165.887 409.113 165.992 409.158 166.07 409.237C166.148 409.317 166.194 409.424 166.199 409.538C166.2 409.595 166.19 409.652 166.17 409.705C166.15 409.758 166.12 409.807 166.082 409.848C166.044 409.889 165.998 409.922 165.948 409.944C165.898 409.967 165.844 409.979 165.789 409.98L161.219 410.048L161.208 410.037Z" fill="#7D97F4"/>
<path d="M101.086 418.825H101.018C100.909 418.807 100.812 418.745 100.747 418.652C100.683 418.559 100.656 418.443 100.674 418.33L101.326 414.059C101.496 412.94 102.039 411.919 102.861 411.177C103.683 410.435 104.73 410.02 105.817 410.005L154.279 409.267C154.389 409.269 154.493 409.314 154.572 409.393C154.65 409.473 154.696 409.58 154.7 409.694C154.701 409.751 154.691 409.808 154.671 409.86C154.65 409.913 154.62 409.961 154.582 410.002C154.544 410.043 154.499 410.075 154.449 410.098C154.399 410.12 154.345 410.132 154.29 410.133L105.83 410.873C104.939 410.886 104.081 411.226 103.407 411.834C102.733 412.442 102.286 413.278 102.146 414.196L101.496 418.467C101.479 418.567 101.429 418.658 101.354 418.724C101.279 418.79 101.184 418.826 101.086 418.825Z" fill="#7D97F4"/>
<path d="M245.873 95.3676C245.873 95.3676 243.796 86.5551 247.086 85.9334C250.376 85.3117 253.354 96.7842 253.354 96.7842L245.873 95.3676Z" fill="#CE5F49"/>
<path d="M230.789 80.9163C230.224 80.9035 229.687 80.6717 229.29 80.2696C228.893 79.8676 228.667 79.3267 228.659 78.761C228.652 78.1952 228.864 77.6488 229.251 77.2367C229.638 76.8246 230.169 76.5791 230.733 76.5519L247.031 76.1126C247.598 76.1131 248.143 76.3356 248.55 76.7327C248.956 77.1299 249.192 77.6704 249.207 78.2392C249.222 78.8079 249.015 79.3601 248.63 79.7781C248.244 80.196 247.712 80.4468 247.145 80.4771L230.847 80.904L230.789 80.9163Z" fill="#E27960"/>
<path d="M248.747 83.1712C248.493 83.1709 248.241 83.1259 248.003 83.0381L233.301 77.6808C232.758 77.4826 232.316 77.0764 232.071 76.5514C231.827 76.0265 231.801 75.4257 231.999 74.8814C232.196 74.3371 232.602 73.8938 233.125 73.649C233.649 73.4042 234.248 73.378 234.791 73.5761L249.494 78.9366C249.974 79.1129 250.378 79.4531 250.633 79.8975C250.888 80.342 250.979 80.8624 250.89 81.3675C250.801 81.8726 250.538 82.3301 250.146 82.6599C249.754 82.9897 249.259 83.1707 248.747 83.1712Z" fill="#EF8C78"/>
<path d="M248.747 86.1902C248.335 86.1904 247.931 86.0723 247.583 85.8499L238.075 79.8244C237.829 79.6733 237.615 79.4746 237.446 79.2398C237.276 79.005 237.156 78.7389 237.09 78.4568C237.024 78.1748 237.016 77.8825 237.064 77.5969C237.112 77.3114 237.216 77.0383 237.371 76.7936C237.525 76.5489 237.727 76.3374 237.964 76.1715C238.201 76.0056 238.468 75.8886 238.75 75.8272C239.033 75.7659 239.324 75.7614 239.609 75.8141C239.893 75.8668 240.163 75.9757 240.405 76.1343L249.913 82.1691C250.309 82.4236 250.611 82.7994 250.776 83.2404C250.941 83.6814 250.959 84.164 250.828 84.6162C250.697 85.0684 250.423 85.466 250.048 85.7496C249.673 86.0333 249.217 86.1878 248.747 86.1902Z" fill="#FFAD94"/>
<path d="M221.327 317.352C230.057 335.055 248.348 316.598 248.348 316.598C249.716 295.945 253.755 276.779 258.147 261.14C266.686 214.743 273.543 173.105 271.547 164.751C261.341 151.394 242.093 148.047 236.674 157.049C231.255 166.05 213.476 249.866 221.327 317.352Z" fill="#FA6142"/>
<path d="M240.553 237.375C240.553 237.375 233.165 270.259 237.022 291.766L240.895 295.787H311.422L329.63 266.151L285.662 146.535L275.722 124.787C265.782 125.671 256.613 136.835 254.039 157.265C251.465 177.695 240.553 237.375 240.553 237.375Z" fill="#D83A21"/>
<path d="M349.597 422.92H345.239L326.655 251.31H331.012L349.597 422.92Z" fill="#4F52FF"/>
<path d="M353.801 422.92H349.446L331.013 251.31H335.37L353.801 422.92Z" fill="#7D97F4"/>
<path d="M273.2 296.238H267.01L267.01 422.103H273.201L273.2 296.238Z" fill="#120878"/>
<path d="M222.527 422.103H226.881L232.125 288.169H227.771L222.527 422.103Z" fill="#120878"/>
<path d="M293.831 298.679H226.465V288.169H293.482L293.831 298.679Z" fill="#4F52FF"/>
<path d="M298.013 394.24H222.743V386.658H297.621L298.013 394.24Z" fill="#4F52FF"/>
<path d="M302.198 422.92H297.84L293.482 288.169H297.84L302.198 422.92Z" fill="#4F52FF"/>
<path d="M306.549 422.92H302.194L297.84 288.169H302.194L306.549 422.92Z" fill="#7D97F4"/>
<path d="M219.056 422.103H223.413L227.771 288.169H223.413L219.056 422.103Z" fill="#4F52FF"/>
<path d="M347.6 394.24H303.543V386.658H347.208L347.6 394.24Z" fill="#7D97F4"/>
<path d="M336.27 339.971L339.98 335.243L334.163 280.825H329.809L336.27 339.971Z" fill="#120878"/>
<path d="M298.013 327.918H222.743V320.337H297.621L298.013 327.918Z" fill="#4F52FF"/>
<path d="M339.197 327.918H300.855V320.337H338.388L339.197 327.918Z" fill="#7D97F4"/>
<path d="M336.95 298.679H302.194V288.169H336.073L336.95 298.679Z" fill="#7D97F4"/>
<path d="M270.093 126.442C267.007 127.351 255.724 133.937 253.354 139.693L266.442 135.749L270.093 126.442Z" fill="#FF9688"/>
<path d="M257.684 103.843C257.684 103.843 257.598 104.124 257.44 104.653C257.36 104.919 257.261 105.244 257.147 105.628C257.088 105.819 257.027 106.024 256.962 106.246C256.897 106.469 256.786 106.75 256.687 107.026C256.49 107.576 256.274 108.189 256.036 108.854C255.798 109.519 255.53 110.156 255.246 110.886C255.104 111.245 254.962 111.619 254.805 111.996C254.647 112.374 254.496 112.754 254.314 113.15C253.978 113.942 253.626 114.777 253.228 115.625C244 136.934 225.999 170.779 224.678 172.474C224.006 173.328 201.891 180.133 197.086 174.479C193.623 170.402 194.984 159.526 197.743 153.754C198.598 151.97 204.359 147.082 206.902 144.784C208.177 143.64 209.547 142.39 210.985 141.072C212.423 139.755 213.936 138.322 215.479 136.841C217.022 135.359 218.605 133.816 220.2 132.235C221.796 130.654 223.388 129.031 224.962 127.391C226.536 125.752 228.091 124.094 229.591 122.442C229.968 122.028 230.341 121.619 230.712 121.205L231.801 119.968C232.529 119.154 233.227 118.337 233.912 117.536C236.655 114.329 239.078 111.257 241.01 108.566C241.507 107.898 241.936 107.248 242.374 106.633L242.991 105.73C243.189 105.42 243.368 105.148 243.55 104.873C243.901 104.322 244.263 103.784 244.546 103.326L245.315 102.07L245.648 101.526L245.957 100.96L246.438 100.063L246.836 99.3175C247.529 98.0286 248.674 97.0432 250.049 96.5522C251.425 96.0612 252.934 96.0997 254.283 96.6601C255.632 97.2205 256.726 98.2629 257.352 99.5854C257.978 100.908 258.092 102.416 257.672 103.818L257.684 103.843Z" fill="url(#paint2_linear)"/>
<path d="M233.279 170.846C230.908 169.999 225.031 167.977 221.837 168.028C218.642 168.079 188.907 170.433 188.058 172.572C187.854 173.083 187.419 174.244 187.466 175.706C187.514 177.209 187.874 178.975 188.282 180.948C188.282 183.061 188.771 185.426 189.097 187.147C189.6 189.804 190.208 191.28 190.698 191.765C196.843 194.094 222.896 180.56 222.896 180.56L233.279 170.846Z" fill="#FFAD94"/>
<path d="M279.24 165.864L271.525 130.794C265.782 129.049 239.473 148.632 239.473 148.632C251.2 159.511 252.298 181.045 252.298 181.045C252.298 181.045 278.407 166.699 279.24 165.864Z" fill="#91B3FA"/>
<path d="M310.691 144.314L277.549 153.761L272.312 132.52L281.564 126.222L310.691 144.314Z" fill="#FFAD94"/>
<path d="M296.828 105.022C298.423 106.732 300.972 108.656 305.524 110.899C310.076 113.141 309.16 139.532 288.066 151.06C288.181 134.097 276.188 128.499 276.188 128.499L296.467 105.015" fill="#FFAD94"/>
<path d="M287.178 148.224C300.574 148.385 307.14 118.845 307.14 113.596L322.183 143.909L323.186 189.855L333.29 246.302C301.723 252.702 291.106 226.24 271.306 229.404C268.812 226.905 279.589 223.997 279.842 210.845C280.185 193.137 252.604 177.287 251.219 153.312C250.601 142.888 278.163 126.204 278.163 126.204C278.163 126.204 273.781 148.06 287.178 148.224Z" fill="#BDD0FB"/>
<path d="M284.021 166.916L281.564 181.135L256.119 187.993L252.222 179.904L284.021 166.916Z" fill="#84B8FF"/>
<path d="M231.798 79.0171C231.412 78.4294 229.227 77.4705 228.807 78.2995C228.388 79.1285 226.505 88.2657 226.798 90.2825C226.872 90.7867 228.869 93.1375 228.869 93.1375L231.798 79.0171Z" fill="#E27960"/>
<path d="M243.003 105.761C242.399 105.415 241.921 104.885 241.638 104.248C241.355 103.611 241.282 102.9 241.43 102.219C237.708 100.363 232.344 96.871 229.323 93.7221C228.87 93.2441 228.551 92.6555 228.396 92.0151C228.241 91.3747 228.256 90.7048 228.44 90.0722C229.949 84.7736 231.406 74.7888 232.326 74.297C232.875 73.9877 234.56 75.194 234.56 75.194C234.56 75.194 235.007 73.9413 235.372 73.8516C237.047 73.4309 244.809 78.6213 244.975 79.3358C245.142 80.0503 243.664 83.0878 243.664 83.0878C243.664 83.0878 245.34 85.0458 245.117 85.5623C244.895 86.0789 240.538 88.3462 240.538 88.3462C240.538 88.3462 253.697 95.2749 255.487 97.3566C257.277 99.4383 243.003 105.761 243.003 105.761Z" fill="#FFAD94"/>
<path d="M228.347 91.7271C228.175 90.3413 234.56 75.1848 234.56 75.1848L234.192 74.9435C233.665 74.6094 232.714 74.0774 232.341 74.2877C231.415 74.7888 229.983 84.5478 228.489 89.8742C228.295 90.4717 228.247 91.1069 228.347 91.7271Z" fill="#EF8C78"/>
<path d="M236.347 94.0529C236.347 94.0529 233.625 93.3383 233.375 92.6671C233.125 91.9959 237.059 79.317 238.232 79.1067C239.405 78.8963 245.256 83.5144 245.117 85.5312C244.978 87.5479 243.469 89.9049 243.469 89.9049L236.347 94.0529Z" fill="#FFAD94"/>
<path d="M285.101 137.797C285.101 137.797 282.182 131.648 277.296 129.934C277.219 128.388 276.759 128.323 276.759 128.323L285.231 118.304L296.103 111.771C296.501 128.864 285.101 137.797 285.101 137.797Z" fill="#CE5F49"/>
<path d="M297.92 95.3799C299.219 90.7742 302.197 79.1686 294.967 67.8228C289.455 59.1619 280.184 52.2301 269.013 55.1408C259.699 57.5689 263.72 67.6805 263.72 67.6805C263.72 67.6805 258.079 62.7593 253.906 65.8463C248.456 69.8674 253.906 75.0701 253.906 75.0701C251.778 75.7739 249.878 77.0402 248.407 78.7355C240.112 88.4821 258.128 103.001 258.128 103.001L297.92 95.3799Z" fill="#2E353D"/>
<path d="M295.452 97.0687C296.266 99.5247 297.374 109.658 295.452 114.137C293.152 119.469 286.021 129.587 276.91 129.962C263.841 130.5 253.043 86.9231 253.996 83.3072L280.623 68.9703C280.623 68.9703 287.752 73.9287 295.452 97.0687Z" fill="#FFAD94"/>
<path d="M256.777 97.6069C256.759 97.6025 256.739 97.6025 256.721 97.6069C254.688 90.4122 253.635 84.5321 253.972 83.2979L256.749 81.8101L286.474 80.9657C278.861 81.2812 269.467 100.369 256.777 97.6069Z" fill="#CE5F49"/>
<path d="M254.993 92.2373C263.326 99.4692 285.15 70.1335 286.845 90.4495C287.184 94.5386 287.153 97.3905 288.323 99.7723C288.654 100.426 289.192 100.953 289.852 101.27C290.511 101.588 291.257 101.679 291.974 101.529L297.134 100.478C296.208 99.8744 293.544 87.248 293.544 87.248L284.675 69.852L269.118 66.4155L252.604 81.4823L254.993 92.2373Z" fill="#2E353D"/>
<path d="M288.354 83.8144L288.026 83.8423L287.634 83.8763C287.551 83.8763 287.477 83.901 287.378 83.9072C287.238 83.9184 287.1 83.9443 286.965 83.9845C286.881 84.0062 286.792 84.0186 286.699 84.0464L286.406 84.1423C286.181 84.2115 285.959 84.293 285.743 84.3867C285.508 84.4733 285.255 84.6063 284.993 84.7269C284.73 84.8475 284.453 85.0146 284.166 85.1692C283.879 85.3239 283.579 85.5064 283.277 85.7105C282.66 86.0941 282.042 86.5488 281.367 87.0344C280.043 88.015 278.648 89.1625 277.237 90.3194C275.827 91.4762 274.398 92.6516 272.994 93.6847C272.297 94.2044 271.596 94.6807 270.926 95.12C270.257 95.5592 269.596 95.9335 268.967 96.2459L268.507 96.4779L268.059 96.6758C267.772 96.8119 267.485 96.914 267.22 97.013C266.972 97.1072 266.72 97.1887 266.464 97.2574L266.131 97.3563L265.822 97.4213C265.624 97.4615 265.452 97.5048 265.297 97.5296L264.902 97.576L264.594 97.6131L264.902 97.511L265.273 97.3904C265.418 97.3378 265.581 97.2605 265.757 97.1862L266.044 97.0625L266.353 96.9047C266.581 96.7914 266.804 96.6665 267.019 96.5305C267.251 96.3882 267.498 96.2397 267.742 96.0572L268.124 95.7881L268.51 95.4788C269.038 95.0705 269.575 94.5818 270.13 94.059C270.686 93.5363 271.241 92.9455 271.803 92.3176C272.932 91.0803 274.074 89.6822 275.228 88.2717C276.383 86.8612 277.549 85.4291 278.737 84.1114C279.336 83.4556 279.928 82.8215 280.543 82.2369C280.851 81.9276 281.16 81.6647 281.468 81.3925C281.777 81.1203 282.086 80.8666 282.394 80.6285C282.703 80.3903 283.011 80.1614 283.32 79.9603C283.629 79.7593 283.919 79.5582 284.221 79.3943L284.653 79.1499C284.798 79.0726 284.943 79.0076 285.082 78.9396C285.35 78.8035 285.626 78.6857 285.909 78.587C286.193 78.4849 286.459 78.3952 286.675 78.3271L287.051 78.2189L287.36 78.1261C288.078 77.9684 288.829 78.0904 289.461 78.4673C290.093 78.8442 290.559 79.4478 290.763 80.1558C290.968 80.8638 290.896 81.6232 290.562 82.2802C290.229 82.9371 289.659 83.4425 288.968 83.6938C288.788 83.7457 288.604 83.7799 288.418 83.7959L288.354 83.8144Z" fill="#2E353D"/>
<path d="M291.6 66.1866V66.0752C291.6 66.0103 291.572 65.7659 291.569 65.5803C291.566 65.3947 291.569 65.2122 291.6 64.9957C291.631 64.7792 291.646 64.5348 291.683 64.275C291.721 64.0152 291.779 63.7399 291.844 63.4491C291.909 63.1583 291.992 62.8583 292.094 62.5521C292.196 62.2459 292.313 61.9335 292.433 61.6241C292.554 61.3148 292.714 61.0055 292.875 60.7147C293.035 60.4217 293.211 60.1378 293.402 59.8641L293.683 59.4713C293.782 59.3445 293.89 59.2269 293.992 59.1094L294.3 58.766L294.609 58.4567C294.708 58.3608 294.807 58.2711 294.918 58.1814C295.029 58.0917 295.121 58.0206 295.226 57.9464C295.421 57.801 295.59 57.6649 295.748 57.5566L296.177 57.2999L296.547 57.0803L296.239 57.3896L295.911 57.7484C295.794 57.8938 295.674 58.0577 295.538 58.2526C295.47 58.3454 295.396 58.4351 295.331 58.5433C295.266 58.6516 295.208 58.7568 295.143 58.8526L294.945 59.196L294.776 59.5703C294.72 59.7002 294.658 59.8239 294.606 59.9569C294.554 60.0899 294.516 60.226 294.47 60.3621C294.377 60.6366 294.301 60.9166 294.242 61.2004C294.183 61.4819 294.14 61.7664 294.106 62.0448C294.072 62.3232 294.05 62.5985 294.057 62.8676C294.063 63.1367 294.057 63.3872 294.057 63.6285C294.057 63.8698 294.1 64.0925 294.125 64.2966C294.149 64.5008 294.186 64.6864 294.223 64.8441C294.26 65.0019 294.294 65.1318 294.322 65.237C294.35 65.3421 294.353 65.2865 294.381 65.3638C294.408 65.4411 294.421 65.469 294.421 65.469L294.439 65.5184C294.508 65.698 294.54 65.8893 294.534 66.0813C294.529 66.2734 294.486 66.4625 294.408 66.6378C294.329 66.8132 294.217 66.9714 294.078 67.1033C293.938 67.2352 293.774 67.3384 293.595 67.4068C293.416 67.4753 293.225 67.5077 293.034 67.5022C292.842 67.4967 292.653 67.4535 292.478 67.3749C292.304 67.2964 292.146 67.184 292.014 67.0444C291.882 66.9047 291.78 66.7404 291.711 66.5608C291.658 66.4415 291.621 66.3157 291.6 66.1866Z" fill="#2E353D"/>
<path d="M296.272 110.623C295.087 109.528 293.127 107.481 292.482 106.237L296.467 105.022C296.548 106.891 296.483 108.764 296.272 110.623Z" fill="#CE5F49"/>
<path d="M229.477 370.249L204.893 298.178C203.974 295.248 204.234 292.074 205.617 289.333C207 286.593 209.397 284.502 212.296 283.508C215.196 282.514 218.368 282.695 221.136 284.012C223.904 285.33 226.049 287.679 227.113 290.559C227.251 290.966 227.367 291.379 227.462 291.797L243.982 366.129C244.376 368.007 244.043 369.965 243.051 371.607C242.06 373.249 240.483 374.452 238.639 374.972C236.796 375.493 234.824 375.292 233.123 374.41C231.422 373.529 230.119 372.032 229.477 370.224V370.249Z" fill="#FFAD94"/>
<path d="M238.263 375.185C239.231 374.969 240.147 374.564 240.958 373.994C241.77 373.423 242.462 372.697 242.994 371.859C243.526 371.02 243.887 370.084 244.058 369.105C244.23 368.126 244.207 367.123 243.991 366.153L240.383 349.92C237.14 353.83 225.021 357.186 225.021 357.186L229.477 370.249C230.085 372.006 231.315 373.48 232.934 374.39C234.554 375.299 236.449 375.582 238.263 375.185Z" fill="white"/>
<path d="M225.021 372.303C225.734 369.225 225.949 366.052 225.656 362.905C227.816 360.74 231.699 363.963 232.915 366.645C232.919 369.002 232.599 371.348 231.964 373.617L225.021 372.303Z" fill="#4042E2"/>
<path d="M252.864 378.56C253.135 378.646 253.378 378.804 253.567 379.018C253.749 379.302 255.564 384.387 255.564 384.387C255.564 384.387 206.847 404.372 201.866 404.403C201.866 404.403 198.302 400.834 198.944 400.209C199.585 399.584 252.864 378.56 252.864 378.56Z" fill="#DBE4FE"/>
<path d="M252.864 378.56C252.864 378.56 215.5 395.755 198.959 400.212C195.481 391.285 223.876 392.789 225.808 367.347C225.808 367.347 226.687 365.389 228.536 367.499C230.385 369.608 233.079 376.123 239.143 371.851C245.207 367.579 242.951 361.761 242.951 361.761C242.951 361.761 252.021 369.964 252.864 378.56Z" fill="#120878"/>
<path d="M225.796 367.344C225.043 377.242 220.293 383.048 214.97 386.992C223.818 389.81 229.329 374.236 229.86 369.315C229.36 368.606 228.934 367.947 228.524 367.496C226.675 365.386 225.796 367.344 225.796 367.344Z" fill="#4042E2"/>
<path d="M226.079 383.828C225.967 383.828 225.859 383.791 225.77 383.723C223.758 382.176 220.472 382.148 220.438 382.148C220.304 382.148 220.176 382.095 220.082 382.001C219.988 381.906 219.935 381.778 219.935 381.644C219.935 381.51 219.988 381.382 220.082 381.288C220.176 381.193 220.304 381.14 220.438 381.14C220.586 381.14 224.098 381.162 226.384 382.925C226.468 382.989 226.529 383.078 226.559 383.179C226.589 383.28 226.587 383.387 226.553 383.487C226.519 383.587 226.455 383.673 226.369 383.734C226.283 383.795 226.181 383.828 226.076 383.828H226.079Z" fill="white"/>
<path d="M228.566 380.137C228.455 380.138 228.346 380.101 228.258 380.032C226.239 378.486 222.956 378.458 222.925 378.458C222.791 378.458 222.664 378.405 222.569 378.31C222.475 378.216 222.422 378.087 222.422 377.954C222.422 377.82 222.475 377.692 222.569 377.597C222.664 377.503 222.791 377.449 222.925 377.449C223.073 377.449 226.585 377.471 228.872 379.234C228.955 379.299 229.016 379.387 229.046 379.488C229.076 379.589 229.074 379.697 229.04 379.797C229.006 379.896 228.942 379.983 228.856 380.044C228.771 380.105 228.668 380.138 228.563 380.137H228.566Z" fill="white"/>
<path d="M230.082 375.278C229.984 375.278 229.888 375.249 229.807 375.195C227.684 373.8 224.403 374.026 224.369 374.029C224.237 374.037 224.108 373.993 224.008 373.906C223.909 373.819 223.847 373.696 223.837 373.564C223.827 373.432 223.869 373.302 223.954 373.2C224.039 373.099 224.161 373.036 224.292 373.024C224.44 373.024 227.943 372.767 230.359 374.354C230.451 374.413 230.521 374.5 230.559 374.603C230.596 374.705 230.6 374.818 230.569 374.922C230.537 375.027 230.473 375.119 230.385 375.183C230.297 375.248 230.191 375.283 230.082 375.282V375.278Z" fill="white"/>
<path d="M241.976 377.576C238.936 377.576 234.609 376.373 228.875 373.175C228.44 373.432 227.996 373.701 227.545 373.991C227.433 374.061 227.298 374.083 227.169 374.053C227.04 374.024 226.928 373.944 226.857 373.833C226.787 373.721 226.762 373.586 226.79 373.456C226.818 373.327 226.895 373.214 227.005 373.141C237.72 366.314 244.241 368.582 246.404 371C247.741 372.488 247.907 374.403 246.824 375.77C245.941 376.846 244.349 377.576 241.976 377.576ZM229.888 372.581C238.637 377.341 244.284 377.31 246.022 375.127C246.802 374.149 246.639 372.788 245.642 371.659C243.846 369.655 238.615 367.83 229.888 372.581Z" fill="white"/>
<path d="M235.069 395.6C234.97 395.6 234.873 395.57 234.792 395.514C234.681 395.44 234.604 395.326 234.578 395.195C234.551 395.065 234.577 394.929 234.65 394.818C236.899 391.415 234.89 386.194 232.798 382.405C230.409 378.053 227.339 374.527 226.959 374.258C226.851 374.181 226.777 374.064 226.754 373.933C226.731 373.803 226.76 373.668 226.836 373.559C226.872 373.504 226.919 373.458 226.974 373.421C227.029 373.385 227.09 373.361 227.154 373.349C227.218 373.336 227.285 373.337 227.349 373.351C227.413 373.365 227.473 373.391 227.527 373.429C228.323 373.973 240.374 387.966 235.474 395.39C235.427 395.454 235.367 395.507 235.296 395.543C235.226 395.58 235.148 395.6 235.069 395.6Z" fill="white"/>
<path d="M222.249 349.057C227.357 346.666 236.013 340.901 237.828 338.417L219.62 341.389L222.249 349.057Z" fill="#CE5F49"/>
<path d="M182.989 259.486C178.782 241.254 185.831 233.432 197.009 233.481C205.11 233.518 272.985 240.75 274.605 240.858C298.507 242.467 299.754 252.585 302.071 263.748C304.389 274.911 303.584 287.064 286.101 288.169C255.953 290.074 224.287 279.242 224.287 279.242C224.287 279.242 226.465 281.945 228.894 288.169C231.363 294.475 239.297 321.405 240.874 333.378L216.864 341.39C205.233 314.405 185.423 270.036 182.989 259.486Z" fill="#120878"/>
<path d="M213.778 337.597C213.778 337.597 233.711 331.568 240.371 324.126L244.173 333.378C237.412 341.875 216.519 345.59 216.519 345.59L213.778 337.597Z" fill="#0B61DD"/>
<path d="M303.012 271.688C294.649 261.932 282.792 248.755 273.287 240.731C270.775 240.478 259.597 239.494 259.597 239.494C265.152 266.946 274.38 286.99 277.416 288.385C280.305 288.416 283.209 288.351 286.1 288.168C299.442 287.327 303.071 280.049 303.012 271.688Z" fill="#06004A"/>
<path d="M290.109 199.592C291.177 206.045 316.742 220.904 321.424 240.858L340.817 207.362L321.418 173.938C319.989 177.303 290.109 199.592 290.109 199.592Z" fill="#84B8FF"/>
<path d="M282.919 295.004C282.215 294.364 280.188 293.86 278.108 294.537C275.947 295.242 270.809 299.666 270.809 299.666L278.28 308.079L283.169 303.328L284.024 298.261L282.919 295.004Z" fill="#232A2B"/>
<path d="M281.564 262.631C288.971 307.628 385.621 293.384 334.645 218.043C334.645 218.043 333.629 220.539 328.713 222.173C324.291 223.657 318.597 223.348 318.597 223.348C318.597 223.348 296.994 192.512 285.098 183.461L281.564 262.631Z" fill="#120878"/>
<path d="M285.829 184.065C290.909 189.357 302.947 231.353 293.952 281.951C287.678 277.726 282.987 271.292 281.564 262.631L284.977 185.859L285.795 184.043L285.829 184.065Z" fill="#09015D"/>
<path d="M280.842 301.815C277.697 288.883 305.753 191.302 279.111 181.701C256.181 173.439 252.604 195.311 254.015 213.084C254.94 224.579 267.158 301.815 267.158 301.815H280.842Z" fill="#FFAD94"/>
<path d="M281.564 304.565L267.158 301.815L264.189 282.879C267.788 281.187 274.96 281.818 282.209 284.565C281.888 288.744 280.873 301.726 281.564 304.565Z" fill="white"/>
<path d="M257.857 241.396C267.952 247.298 282.752 256.074 286.224 258.808C286.19 259.034 286.082 259.736 286.045 259.962C274.503 256.952 264.473 258.016 260.582 259.485C259.653 253.37 258.727 247.193 257.857 241.396Z" fill="#CE5F49"/>
<path d="M281.564 181.135C300.389 190.532 291.156 227.106 286.119 259.485C286.119 259.485 269.525 252.989 259.847 254.654C257.045 236.181 254.558 218.154 254.015 213.084C251.543 189.882 260.616 170.68 281.564 181.135Z" fill="#4042E2"/>
<path d="M348.68 264.227C338.428 246.104 318.597 223.348 318.597 223.348C333.629 219.803 335.493 213.193 335.493 213.193C348.634 232.649 351.017 252.85 348.68 264.227Z" fill="#0B61DD"/>
<path d="M259.499 252.346C259.19 250.388 259.27 250.868 258.986 248.944C263.134 248.532 276.719 246.621 287.715 249.736C287.715 249.736 287.233 252.594 287.125 253.249C282.57 254.279 267.782 253.116 259.499 252.346Z" fill="#0B61DD"/>
<path d="M286.863 259.962C286.863 259.962 268.164 254.734 258.625 257.651L257.082 248.659C267.266 244.892 288.634 251.697 288.634 251.697L286.863 259.962Z" fill="#4385F5"/>
<path d="M262.202 295.629C259.32 294.392 256.462 309.951 247.278 312.991C247.361 315.794 260.104 314.723 260.104 314.723C260.104 314.723 264.017 296.402 262.202 295.629Z" fill="#120878"/>
<path d="M278.991 301.02C278.991 301.02 280.055 290.414 277.824 289.885C275.593 289.356 264.245 289.591 264.245 289.591C264.245 289.591 258.78 308.654 251.034 312.966C255.663 317.327 276.475 315.181 276.475 315.181L278.991 301.02Z" fill="#4042E2"/>
<path d="M264.992 314.312C271.145 306.499 273.299 296.653 275.028 295.901C276.756 295.15 279.379 302.948 280.428 302.914C281.478 302.88 283.693 298.008 282.919 295.004C285.434 297.123 286.687 313.891 286.687 313.891C286.687 313.891 275.879 315.447 264.992 314.312Z" fill="#120878"/>
<path d="M270.145 314.423C268.75 314.324 236.094 302.443 236.563 314.992L270.145 314.423Z" fill="#120878"/>
<path d="M248.17 312.598C256.193 313.118 267.739 315.469 286.687 313.891L286.817 318.221C286.83 318.736 286.65 319.238 286.311 319.625C285.973 320.013 285.501 320.258 284.99 320.312L236.736 320.353L236.575 315.008C238.143 313.31 243.084 312.267 248.17 312.598Z" fill="#DBE4FE"/>
<path d="M273.95 320.325H236.735C240.324 315.58 271.071 320.034 273.95 320.325Z" fill="#06004A"/>
<path d="M269.288 309.254C269.227 309.255 269.168 309.243 269.112 309.22C257.076 304.698 255.533 308.088 255.533 308.122C255.484 308.244 255.39 308.342 255.27 308.396C255.15 308.449 255.015 308.454 254.891 308.41C254.769 308.367 254.669 308.279 254.611 308.163C254.554 308.048 254.543 307.914 254.583 307.791C254.61 307.711 254.891 306.987 256.011 306.452C257.743 305.632 261.48 305.286 269.461 308.289C269.57 308.331 269.661 308.41 269.718 308.513C269.775 308.615 269.795 308.734 269.774 308.849C269.753 308.964 269.693 309.069 269.604 309.144C269.514 309.22 269.402 309.262 269.285 309.263L269.288 309.254Z" fill="white"/>
<path d="M271.803 305.069C271.742 305.07 271.681 305.059 271.624 305.038C259.588 300.516 258.045 303.903 258.045 303.937C257.996 304.06 257.901 304.159 257.781 304.213C257.661 304.267 257.524 304.273 257.4 304.228C257.279 304.184 257.18 304.096 257.122 303.98C257.065 303.865 257.054 303.732 257.091 303.609C257.119 303.529 257.4 302.802 258.52 302.27C260.252 301.447 263.992 301.101 271.973 304.104C272.082 304.146 272.172 304.225 272.23 304.328C272.287 304.43 272.307 304.549 272.286 304.664C272.265 304.779 272.205 304.884 272.116 304.959C272.026 305.035 271.913 305.077 271.797 305.078L271.803 305.069Z" fill="white"/>
<path d="M274.262 300.349C274.202 300.349 274.143 300.339 274.086 300.318C262.05 295.796 260.507 299.183 260.507 299.217C260.458 299.34 260.364 299.439 260.243 299.492C260.123 299.546 259.986 299.55 259.862 299.505C259.741 299.462 259.64 299.374 259.582 299.258C259.525 299.143 259.514 299.009 259.554 298.886C259.582 298.806 259.862 298.079 260.983 297.547C262.714 296.727 266.451 296.378 274.435 299.381C274.544 299.423 274.635 299.503 274.692 299.605C274.75 299.708 274.769 299.827 274.748 299.943C274.727 300.058 274.666 300.162 274.576 300.238C274.486 300.313 274.373 300.355 274.256 300.355L274.262 300.349Z" fill="white"/>
<path d="M257.431 298.744C252.626 298.744 250.024 297.228 249.185 295.341C248.466 293.752 249.096 291.939 250.756 290.819C253.444 289.01 260.323 288.413 269.041 297.661C269.133 297.759 269.182 297.888 269.178 298.022C269.174 298.156 269.118 298.282 269.021 298.374C268.924 298.466 268.794 298.516 268.661 298.512C268.528 298.508 268.401 298.451 268.309 298.354C267.941 297.964 267.577 297.592 267.217 297.238H267.198C263.251 298.305 260.02 298.741 257.431 298.744ZM254.86 290.723C253.613 290.679 252.381 291.002 251.314 291.651C250.061 292.499 249.583 293.779 250.098 294.921C251.25 297.466 256.718 298.883 266.362 296.418C261.653 292.069 257.681 290.723 254.86 290.723Z" fill="white"/>
<path d="M269.528 298.669C269.402 298.668 269.281 298.62 269.188 298.535C269.095 298.449 269.037 298.332 269.025 298.205C268.982 297.745 267.445 293.324 264.859 289.09C262.603 285.403 259.073 281.048 255.011 281.357C254.944 281.364 254.876 281.358 254.811 281.338C254.746 281.318 254.686 281.286 254.634 281.242C254.582 281.198 254.54 281.145 254.509 281.084C254.478 281.024 254.46 280.957 254.456 280.89C254.451 280.822 254.46 280.754 254.483 280.69C254.505 280.626 254.54 280.567 254.585 280.517C254.631 280.466 254.686 280.426 254.748 280.397C254.809 280.369 254.876 280.354 254.944 280.352C263.785 279.733 269.951 297.175 270.028 298.141C270.034 298.206 270.026 298.273 270.006 298.336C269.986 298.398 269.954 298.457 269.911 298.507C269.868 298.557 269.816 298.599 269.757 298.629C269.698 298.659 269.634 298.677 269.569 298.682L269.528 298.669Z" fill="white"/>
<path d="M273.451 41.8465C271.497 41.8465 270.584 40.9495 270.164 40.1916C269.05 38.1842 269.951 34.5899 272.633 30.3306C274.898 26.7425 275.426 23.4885 274.198 20.6582C273.789 19.7368 273.23 18.89 272.544 18.1528C270.535 19.6561 266.989 20.7912 260.776 19.2632C255.589 17.9826 254.113 15.7989 254.465 14.178C254.848 12.4118 257.57 11.0601 262.032 11.9015C265.637 12.5789 269.803 14.1749 272.608 16.7949C273.066 16.3427 273.449 15.8207 273.744 15.2483C275.21 12.3809 274.324 8.3938 271.729 6.17291C271.675 6.13124 271.63 6.07903 271.597 6.01943C271.563 5.95983 271.543 5.89409 271.536 5.82619C271.528 5.75829 271.535 5.68965 271.555 5.62442C271.575 5.5592 271.609 5.49876 271.653 5.44676C271.697 5.39476 271.751 5.35229 271.812 5.32192C271.873 5.29155 271.94 5.27391 272.008 5.27008C272.076 5.26625 272.144 5.2763 272.208 5.29963C272.272 5.32296 272.33 5.35908 272.38 5.4058C275.367 7.95767 276.336 12.3871 274.639 15.7092C274.293 16.377 273.841 16.9848 273.303 17.5094C274.057 18.3207 274.671 19.252 275.12 20.2654C276.488 23.4204 275.938 26.99 273.482 30.8812C271.025 34.7724 270.118 38.0604 271.034 39.7091C271.46 40.4762 272.287 40.8629 273.503 40.8474C273.637 40.8474 273.765 40.9005 273.859 40.9951C273.953 41.0896 274.006 41.2178 274.006 41.3516C274.006 41.4853 273.953 41.6135 273.859 41.7081C273.765 41.8026 273.637 41.8558 273.503 41.8558L273.451 41.8465ZM259.474 12.6562C257.156 12.6562 255.669 13.4171 255.462 14.3915C255.212 15.5452 256.851 17.2527 261.017 18.2858C265.711 19.4426 269.482 19.1209 271.837 17.4444C269.201 15.0225 265.263 13.5347 261.85 12.8913C261.067 12.7393 260.272 12.6606 259.474 12.6562Z" fill="#BDD0FB"/>
<path d="M269.652 4.04173C269.541 4.04376 269.432 4.00896 269.343 3.94275C269.315 3.92419 266.603 1.96002 263.859 0.988767C263.793 0.969797 263.732 0.937537 263.679 0.893965C263.626 0.850393 263.583 0.796429 263.551 0.735384C263.52 0.674339 263.501 0.6075 263.496 0.538971C263.492 0.470443 263.501 0.401669 263.524 0.336869C263.546 0.272069 263.582 0.212612 263.629 0.162144C263.675 0.111677 263.731 0.0712644 263.794 0.0433867C263.857 0.015509 263.924 0.000754353 263.993 2.81784e-05C264.061 -0.000697996 264.129 0.0126183 264.193 0.0391625C267.078 1.05991 269.818 3.04573 269.933 3.13234C270.026 3.1922 270.096 3.2811 270.134 3.38529C270.171 3.48948 270.174 3.60316 270.14 3.70877C270.107 3.81437 270.04 3.90603 269.949 3.96957C269.859 4.0331 269.75 4.06499 269.639 4.06029L269.652 4.04173Z" fill="#BDD0FB"/>
<path d="M288.567 206.236C286.971 206.02 282.86 200.474 284.113 194.687C285.366 188.899 295.55 189.564 295.55 189.564L288.567 206.236Z" fill="#84B8FF"/>
<g style="mix-blend-mode:multiply" opacity="0.32">
<path d="M345.054 153.751C344.625 155.331 336.678 161.561 327.639 164.295L325.898 156.912L345.054 153.751Z" fill="#FA6142"/>
</g>
<path d="M295.186 65.5587C295.186 65.5587 295.304 65.6267 295.529 65.7474L295.942 65.9732C296.137 66.0938 296.365 66.2454 296.615 66.4093C296.877 66.5844 297.127 66.7756 297.365 66.9816C297.645 67.2052 297.911 67.4459 298.161 67.7023C298.445 67.9621 298.689 68.2807 298.973 68.5962C299.112 68.757 299.229 68.9364 299.365 69.1127C299.501 69.2891 299.636 69.4654 299.751 69.6633C300.278 70.4776 300.73 71.3391 301.099 72.2369C301.489 73.2196 301.798 74.2323 302.025 75.2651C302.246 76.3513 302.386 77.4524 302.445 78.5593C302.548 80.8104 302.341 83.0651 301.828 85.2591C301.772 85.5293 301.707 85.7953 301.633 86.0572L301.42 86.8428C301.247 87.3532 301.112 87.8667 300.917 88.3554L300.646 89.0792C300.553 89.3205 300.448 89.5494 300.337 89.7813C300.149 90.2453 299.93 90.6845 299.72 91.1114C299.322 91.91 298.883 92.6875 298.405 93.4406C297.958 94.1365 297.529 94.7583 297.115 95.2965C296.702 95.8347 296.325 96.2677 296.019 96.6358C295.714 97.0039 295.439 97.2545 295.266 97.4493L294.998 97.7339L295.239 97.4246C295.393 97.2204 295.631 96.9328 295.908 96.5461C296.186 96.1595 296.526 95.6893 296.859 95.1202C297.192 94.551 297.578 93.9107 297.948 93.1931C298.341 92.4165 298.694 91.6206 299.007 90.8083C299.167 90.3752 299.337 89.9329 299.476 89.4689C299.547 89.24 299.627 89.0081 299.692 88.7699C299.757 88.5317 299.822 88.2935 299.886 88.0492C300.025 87.5697 300.109 87.0655 300.226 86.5644L300.355 85.8004C300.402 85.5468 300.439 85.287 300.467 85.0271C300.602 83.9831 300.671 82.9312 300.67 81.8783C300.663 80.8361 300.587 79.7955 300.442 78.7635C300.291 77.7787 300.07 76.806 299.781 75.8528C299.505 74.9846 299.158 74.1405 298.745 73.3287C298.373 72.6287 297.94 71.9641 297.448 71.3429C297.343 71.1945 297.214 71.0738 297.103 70.9439C296.992 70.814 296.884 70.6872 296.763 70.5789C296.55 70.3614 296.325 70.1549 296.09 69.9603C295.895 69.7909 295.689 69.6349 295.473 69.4932C295.301 69.3687 295.119 69.257 294.93 69.1591L294.52 68.9364L294.084 68.7509L293.727 68.5962C293.357 68.3959 293.076 68.0645 292.937 67.6671C292.799 67.2696 292.814 66.8347 292.979 66.4475C293.144 66.0604 293.447 65.7489 293.829 65.5742C294.211 65.3995 294.644 65.3741 295.044 65.503L295.186 65.5587Z" fill="#2E353D"/>
<path d="M306.475 142.566C307.091 141.967 307.743 141.405 308.425 140.883C312.542 137.784 317.718 136.45 322.815 137.175C327.913 137.9 332.514 140.625 335.608 144.75C342.048 153.34 336.182 175.295 335.478 175.827C334.774 176.359 300.855 199.679 288.569 206.236C294.183 189.121 286.835 168.088 282.786 165.753C286.866 161.861 290.699 158.103 294.032 154.837L306.475 142.566Z" fill="#DBE4FE"/>
<path d="M309.647 112.729C319.94 121.097 327.899 120.58 338.888 130.964C353.427 144.704 367.299 164.834 367.299 164.834C367.299 164.834 377.483 258.597 360.843 324.463C349.865 340.857 334.154 320.133 334.154 320.133C337.598 267.787 322.736 222.63 322.736 222.63L309.647 112.729Z" fill="#D83A21"/>
<path d="M360.839 324.463C349.862 340.857 334.15 320.133 334.15 320.133C335.508 299.48 334.018 279.95 331.719 263.868C329.345 216.734 323.059 184.03 331.101 166.551C342.97 154.654 359.126 155.972 367.304 164.819C367.295 164.834 377.482 258.61 360.839 324.463Z" fill="#E1473D"/>
<path d="M305.944 111.183C313.477 111.183 321.893 132.835 345.064 153.761C339.817 158.289 328.42 162.245 328.42 162.245C328.42 162.245 336.169 169.291 343.851 175.834C333.735 191.299 319.816 197.176 322.76 222.646C317.147 205.871 313.468 121.323 305.944 111.183Z" fill="#FF9688"/>
<path d="M291.045 98.5317C290.646 96.9751 290.78 95.3295 291.424 93.858C292.597 91.1762 294.819 87.3035 297.939 87.4087C309.321 87.7922 303.053 105.519 296.828 107.638C294.834 108.315 293.196 106.92 293.196 106.92L291.045 98.5317Z" fill="#E27960"/>
<path d="M293.513 96.9977C295.057 93.8117 297.658 93.9602 298.386 95.9306C299.312 98.4577 296.041 104.755 292.544 102.94L293.513 96.9977Z" fill="#CE5F49"/>
<path d="M297.575 90.2144C299.612 88.6925 302.439 89.4999 303.614 90.7928C302.753 88.8472 300.951 86.9975 297.751 87.18C294.665 87.3563 292.505 91.2011 291.394 93.8489C290.765 95.3308 290.642 96.9787 291.042 98.5381L292.501 104.23C292.949 100.304 293.291 94.1458 297.575 90.2144Z" fill="#FFAD94"/>
<path d="M296.828 107.638C299.364 106.775 301.907 103.308 303.262 99.497C300.377 107.261 294.241 105.291 292.504 104.23L292.291 106.877C292.291 106.877 294.834 108.316 296.828 107.638Z" fill="#FFAD94"/>
<path d="M231.418 281.379C232.428 283.043 232.962 286.782 229.301 285.851C226.076 285.029 216.272 274.011 216.272 274.011L231.418 281.379Z" fill="#0B61DD"/>
<path d="M243.47 89.9112C242.485 89.5277 239.979 88.2811 239.973 87.2789C239.986 87.0867 240.04 86.8994 240.13 86.7294C240.221 86.5593 240.346 86.4103 240.498 86.2922L243.47 89.9112Z" fill="#EF8C78"/>
<path d="M223.546 181.045C217.065 178.262 213.016 172.217 205.532 171.886C206.165 166.541 226.126 171.395 226.126 171.395L223.546 181.045Z" fill="#FFAD94"/>
<path d="M284.002 166.891L281.376 169.239L276.747 173.319L272.071 177.377L271.099 178.184C269.39 177.772 267.681 177.369 265.973 176.975C263.71 176.449 261.447 175.934 259.184 175.428L255.789 174.677L252.395 173.937C250.117 173.458 247.846 172.972 245.562 172.515C244.42 172.289 243.284 172.051 242.136 171.831L238.668 171.166L235.22 170.547C234.079 170.334 232.924 170.136 231.767 169.929C230.61 169.721 229.471 169.527 228.305 169.353L224.827 168.818C223.415 168.598 221.972 168.897 220.765 169.661C219.557 170.425 218.666 171.601 218.257 172.973C217.848 174.344 217.949 175.818 218.54 177.121C219.132 178.423 220.175 179.467 221.475 180.059L221.605 180.121L224.66 181.516C225.675 181.974 226.694 182.475 227.706 182.951C228.718 183.427 229.733 183.91 230.743 184.414L233.773 185.902L236.794 187.424C237.804 187.925 238.807 188.451 239.81 188.97C241.819 189.997 243.821 191.058 245.821 192.104L248.815 193.7L251.805 195.305C253.797 196.377 255.782 197.462 257.761 198.559C259.74 199.656 261.716 200.756 263.687 201.86L266.631 203.524C267.6 204.077 268.597 204.647 269.516 205.185C270.871 205.974 272.395 206.424 273.96 206.496C275.526 206.568 277.085 206.261 278.506 205.599L281.712 204.09L287.527 201.349L290.011 200.158C292.251 186.159 287.576 171.358 284.002 166.891Z" fill="#FFAD94"/>
<path d="M290.017 200.171C292.177 186.737 287.943 172.558 284.44 167.482C289.326 176.236 290.026 193.836 285.906 202.126C287.289 201.439 288.73 200.799 290.017 200.171Z" fill="#E27960"/>
<defs>
<linearGradient id="paint0_linear" x1="168.646" y1="348.256" x2="140.622" y2="424.228" gradientUnits="userSpaceOnUse">
<stop stop-color="#FBFCFF"/>
<stop offset="1" stop-color="#DBE4FE"/>
</linearGradient>
<linearGradient id="paint1_linear" x1="477854" y1="103793" x2="322462" y2="288265" gradientUnits="userSpaceOnUse">
<stop stop-color="#FAFAFB"/>
<stop offset="1" stop-color="#E3EAFF"/>
</linearGradient>
<linearGradient id="paint2_linear" x1="256.878" y1="108.681" x2="151.311" y2="233.734" gradientUnits="userSpaceOnUse">
<stop stop-color="#FFAD94"/>
<stop offset="1" stop-color="#E27960"/>
</linearGradient>
</defs>
</svg>
