<svg width="548" height="207" viewBox="0 0 548 207" fill="none" xmlns="http://www.w3.org/2000/svg">
  <path d="M515.065 53.557C488.61 46.7717 445.712 54.7272 425.816 44.6621C406.45 34.8619 438.194 22.8245 421.525 13.591C396.79 -0.109574 283.612 2.3926 213.294 22.4222C192.148 28.4446 183.916 33.4784 160.001 35.7082C108.645 40.4942 78.098 23.6733 52.6947 26.8746C-4.49243 34.0818 -52.4823 144.938 119.39 189.42C199.666 210.193 315.581 213.303 403.613 194.741C562.698 161.197 574.428 68.7786 515.065 53.557Z" fill="#F3F5FB"/>
  <ellipse cx="274.499" cy="189.5" rx="157.712" ry="6.5" fill="#CED9F0"/>
  <path fill-rule="evenodd" clip-rule="evenodd" d="M327.316 18.957H139.387C134.627 18.957 130.761 22.3096 130.761 26.4188V150.943C130.761 155.031 134.627 158.37 139.387 158.37H208.298C205.09 179.034 186.425 191 186.425 191H280.278C262.881 182.012 257.47 169.212 256.514 158.37H327.316C332.062 158.37 335.949 155.031 335.949 150.943V26.4188C335.949 22.3096 332.062 18.957 327.316 18.957Z" fill="#6D8CD1"/>
  <path fill-rule="evenodd" clip-rule="evenodd" d="M139.766 148.152H326.946V29.1738H139.766V148.152Z" fill="#E7ECF7"/>
  <path fill-rule="evenodd" clip-rule="evenodd" d="M155.375 152.865H311.322V0H155.375V152.865Z" fill="#6D8CD1"/>
  <path fill-rule="evenodd" clip-rule="evenodd" d="M159.2 145.927H307.497V9.73438H159.2V145.927Z" fill="white"/>
  <path fill-rule="evenodd" clip-rule="evenodd" d="M172.685 52H192.648V32H172.685V52Z" fill="#9DB3E1"/>
  <path fill-rule="evenodd" clip-rule="evenodd" d="M260.524 87H293.464V32H260.524V87Z" fill="#9DB3E1"/>
  <path fill-rule="evenodd" clip-rule="evenodd" d="M260.524 122H293.464V95H260.524V122Z" fill="#E7ECF7"/>
  <path fill-rule="evenodd" clip-rule="evenodd" d="M243.427 34.226H205.76C205.132 34.226 204.626 33.7283 204.626 33.1163C204.626 32.4976 205.132 32 205.76 32H243.427C244.055 32 244.554 32.4976 244.554 33.1163C244.554 33.7283 244.055 34.226 243.427 34.226ZM243.427 43.1163H205.76C205.132 43.1163 204.626 42.612 204.626 42C204.626 41.388 205.132 40.8904 205.76 40.8904H243.427C244.055 40.8904 244.554 41.388 244.554 42C244.554 42.612 244.055 43.1163 243.427 43.1163ZM243.427 52H205.76C205.132 52 204.626 51.5024 204.626 50.8837C204.626 50.2717 205.132 49.774 205.76 49.774H243.427C244.055 49.774 244.554 50.2717 244.554 50.8837C244.554 51.5024 244.055 52 243.427 52Z" fill="#E7ECF7"/>
  <path fill-rule="evenodd" clip-rule="evenodd" d="M172.685 87H192.648V67H172.685V87Z" fill="#9DB3E1"/>
  <path fill-rule="evenodd" clip-rule="evenodd" d="M243.427 69.226H205.76C205.132 69.226 204.626 68.7283 204.626 68.1163C204.626 67.4976 205.132 67 205.76 67H243.427C244.055 67 244.554 67.4976 244.554 68.1163C244.554 68.7283 244.055 69.226 243.427 69.226ZM243.427 78.1163H205.76C205.132 78.1163 204.626 77.612 204.626 77C204.626 76.388 205.132 75.8904 205.76 75.8904H243.427C244.055 75.8904 244.554 76.388 244.554 77C244.554 77.612 244.055 78.1163 243.427 78.1163ZM243.427 87H205.76C205.132 87 204.626 86.5024 204.626 85.8837C204.626 85.2717 205.132 84.774 205.76 84.774H243.427C244.055 84.774 244.554 85.2717 244.554 85.8837C244.554 86.5024 244.055 87 243.427 87Z" fill="#E7ECF7"/>
  <path fill-rule="evenodd" clip-rule="evenodd" d="M172.685 122H192.648V102H172.685V122Z" fill="#9DB3E1"/>
  <path fill-rule="evenodd" clip-rule="evenodd" d="M243.427 104.226H205.76C205.132 104.226 204.626 103.728 204.626 103.116C204.626 102.498 205.132 102 205.76 102H243.427C244.055 102 244.554 102.498 244.554 103.116C244.554 103.728 244.055 104.226 243.427 104.226ZM243.427 113.116H205.76C205.132 113.116 204.626 112.612 204.626 112C204.626 111.388 205.132 110.89 205.76 110.89H243.427C244.055 110.89 244.554 111.388 244.554 112C244.554 112.612 244.055 113.116 243.427 113.116ZM243.427 122H205.76C205.132 122 204.626 121.502 204.626 120.884C204.626 120.272 205.132 119.774 205.76 119.774H243.427C244.055 119.774 244.554 120.272 244.554 120.884C244.554 121.502 244.055 122 243.427 122Z" fill="#E7ECF7"/>
  <g clip-path="url(#clip0)">
    <path fill-rule="evenodd" clip-rule="evenodd" d="M273.96 162.693L316.472 88.9256C319.648 83.4158 325.586 79.7051 332.393 79.7051C339.2 79.7051 345.139 83.4158 348.315 88.9256L390.827 162.693C392.386 165.399 393.282 168.535 393.282 171.883C393.282 182.05 385.055 190.294 374.905 190.294H332.393H289.881C279.732 190.294 271.504 182.05 271.504 171.883C271.504 168.535 272.401 165.399 273.96 162.693Z" fill="#B6C6E8"/>
    <path fill-rule="evenodd" clip-rule="evenodd" d="M369.069 182.93H289.882C283.802 182.93 278.855 177.974 278.855 171.884C278.855 169.95 279.365 168.045 280.326 166.376L322.837 92.6086C324.808 89.1917 328.468 87.0684 332.393 87.0684C332.499 87.0684 332.604 87.0707 332.71 87.0757C332.722 87.0762 332.735 87.0768 332.747 87.0773C336.538 87.1981 340.04 89.294 341.949 92.6091L384.461 166.376C385.422 168.045 385.932 169.95 385.932 171.885C385.932 177.975 380.985 182.931 374.905 182.931H369.069L369.069 182.93Z" fill="#FFE799"/>
    <path fill-rule="evenodd" clip-rule="evenodd" d="M332.393 151.02C329.009 151.02 326.268 148.271 326.268 144.883V111.744C326.268 108.354 329.009 105.607 332.393 105.607C332.393 105.607 332.393 105.607 332.393 105.607C335.777 105.607 338.519 108.354 338.519 111.744V144.883C338.519 148.271 335.777 151.02 332.393 151.02ZM332.393 158.383C329.009 158.383 326.268 161.13 326.268 164.52C326.268 167.91 329.009 170.657 332.393 170.657L332.405 170.656C335.783 170.65 338.519 167.906 338.519 164.519C338.519 161.13 335.777 158.383 332.393 158.383Z" fill="#6D8CD1"/>
  </g>
  <defs>
    <clipPath id="clip0">
      <rect x="271.504" y="74" width="121.778" height="122" fill="white"/>
    </clipPath>
  </defs>
</svg>
