<svg width="515" height="331" viewBox="0 0 515 331" fill="none" xmlns="http://www.w3.org/2000/svg">
<g clip-path="url(#clip0)">
<path d="M201.528 119.596L201.842 120.137C202.048 120.498 202.357 121.023 202.741 121.731C203.513 123.135 204.588 125.228 205.832 127.953C207.076 130.677 208.474 134.03 209.917 137.944C211.359 141.859 212.856 146.319 214.296 151.25C215.735 156.182 217.108 161.577 218.303 167.343C218.453 168.064 218.6 168.79 218.752 169.521C218.904 170.252 219.03 170.992 219.171 171.733C219.463 173.217 219.707 174.726 219.973 176.25C220.459 179.304 220.931 182.43 221.291 185.629C221.495 187.225 221.634 188.84 221.806 190.468C221.873 191.281 221.94 192.099 222.007 192.919L222.108 194.15L222.185 195.389C222.237 196.215 222.286 197.047 222.337 197.879C222.389 198.711 222.407 199.545 222.44 200.382C222.474 201.219 222.497 202.061 222.512 202.903C222.528 203.745 222.553 204.59 222.553 205.437C222.553 207.129 222.553 208.829 222.502 210.533C222.45 212.238 222.376 213.948 222.293 215.661C222.247 216.518 222.17 217.373 222.11 218.236L222.015 219.523C221.979 219.951 221.933 220.378 221.891 220.811L221.634 223.386L221.307 225.961C220.838 229.381 220.276 232.791 219.504 236.151C219.159 237.841 218.698 239.499 218.285 241.168L217.575 243.64C217.453 244.049 217.34 244.461 217.211 244.871L216.815 246.089C215.78 249.316 214.576 252.486 213.209 255.586L212.16 257.87C211.993 258.251 211.805 258.622 211.614 258.993L211.05 260.105C210.324 261.596 209.487 263.018 208.691 264.447C202.661 274.836 194.421 283.774 184.556 290.629L182.943 291.726C182.41 292.089 181.89 292.457 181.349 292.777C180.277 293.433 179.234 294.085 178.207 294.7L175.144 296.395C174.652 296.678 174.15 296.923 173.658 297.167L172.2 297.891L170.791 298.589C170.325 298.813 169.856 299.009 169.403 299.212L166.768 300.376C165.92 300.739 165.091 301.043 164.305 301.357L162.054 302.233L158.19 303.562C157.631 303.765 157.103 303.912 156.622 304.059L155.311 304.45L152.907 305.171C152.242 305.353 151.532 305.267 150.929 304.933C150.326 304.598 149.878 304.041 149.68 303.381C149.482 302.72 149.55 302.009 149.869 301.398C150.189 300.787 150.735 300.325 151.39 300.111L151.439 300.095L151.55 300.064L153.868 299.431L155.133 299.086C155.597 298.957 156.107 298.828 156.645 298.648L160.364 297.469L162.53 296.696C163.288 296.413 164.089 296.142 164.905 295.818L167.44 294.77C167.878 294.584 168.329 294.409 168.777 294.208L170.134 293.575L171.535 292.921C172.012 292.699 172.496 292.481 172.97 292.223L175.917 290.678C176.906 290.117 177.91 289.522 178.943 288.922C179.458 288.633 179.974 288.293 180.489 287.964L182.034 286.959C186.517 283.989 190.686 280.571 194.478 276.759C198.697 272.467 202.422 267.716 205.584 262.596C206.38 261.246 207.217 259.902 207.949 258.475L208.516 257.42C208.709 257.069 208.899 256.717 209.069 256.353L210.128 254.18C211.523 251.215 212.761 248.179 213.837 245.084L214.254 243.913C214.386 243.521 214.512 243.122 214.633 242.726C214.884 241.932 215.134 241.138 215.383 240.341C215.82 238.732 216.31 237.127 216.686 235.489C217.51 232.232 218.146 228.91 218.687 225.572L219.071 223.067L219.388 220.548C219.437 220.128 219.496 219.711 219.54 219.289L219.666 218.03C219.743 217.188 219.839 216.348 219.906 215.506C220.027 213.824 220.163 212.158 220.23 210.464C220.297 208.769 220.359 207.116 220.405 205.44C220.426 204.605 220.405 203.771 220.423 202.939C220.441 202.107 220.423 201.276 220.423 200.449C220.423 199.622 220.395 198.793 220.382 197.969C220.369 197.145 220.32 196.324 220.292 195.505L220.246 194.279C220.222 193.869 220.197 193.463 220.173 193.056C220.127 192.242 220.081 191.432 220.034 190.625C219.903 189.01 219.805 187.406 219.643 185.819C219.362 182.642 218.968 179.528 218.558 176.484C218.332 174.965 218.126 173.459 217.873 171.978C217.75 171.239 217.636 170.5 217.505 169.771C217.374 169.042 217.247 168.313 217.113 167.595C216.065 161.834 214.811 156.434 213.507 151.487C212.204 146.54 210.813 142.057 209.469 138.122C208.124 134.187 206.808 130.806 205.638 128.058C204.469 125.311 203.446 123.194 202.71 121.775C202.349 121.059 202.045 120.526 201.849 120.16L201.528 119.596Z" fill="#190E8E"/>
<path d="M227.303 160.029C227.303 160.029 227.599 160.544 228.15 161.52L229.181 163.323C229.379 163.676 229.595 164.054 229.825 164.458L230.515 165.772L232.127 168.836L233.918 172.503C235.162 175.138 236.511 178.138 237.859 181.462C238.029 181.877 238.209 182.294 238.374 182.719C238.539 183.144 238.703 183.579 238.868 184.007L239.899 186.672C240.076 187.122 240.239 187.581 240.398 188.047L240.888 189.45C241.215 190.396 241.56 191.351 241.884 192.327L242.832 195.309C242.992 195.824 243.154 196.318 243.314 196.828C243.474 197.338 243.613 197.858 243.762 198.373C244.061 199.403 244.363 200.453 244.669 201.523C244.957 202.589 245.225 203.668 245.511 204.757C245.65 205.302 245.791 205.847 245.934 206.395C246.075 206.944 246.191 207.5 246.322 208.056C246.577 209.169 246.834 210.284 247.095 211.404C247.324 212.539 247.555 213.679 247.788 214.826L248.136 216.552L248.437 218.295C249.292 222.93 249.903 227.71 250.397 232.489L250.722 236.079C250.815 237.277 250.879 238.474 250.959 239.684C250.992 240.282 251.039 240.879 251.067 241.487L251.129 243.277C251.153 243.874 251.174 244.47 251.193 245.064C251.214 245.656 251.242 246.251 251.24 246.843C251.24 248.028 251.248 249.207 251.265 250.382C251.265 250.971 251.265 251.556 251.247 252.14C251.229 252.725 251.224 253.307 251.211 253.889C251.198 254.471 251.185 255.05 251.175 255.627C251.165 256.204 251.121 256.778 251.095 257.353C251.035 258.498 250.977 259.636 250.92 260.767C250.831 261.895 250.745 263.011 250.663 264.115C250.614 264.669 250.583 265.222 250.518 265.768C250.454 266.314 250.397 266.86 250.335 267.401C250.274 267.942 250.214 268.483 250.155 269.018C250.096 269.554 250.044 270.087 249.959 270.612C249.81 271.668 249.658 272.711 249.511 273.741C249.364 274.771 249.176 275.778 248.996 276.775C248.907 277.272 248.821 277.766 248.739 278.255C248.648 278.745 248.571 279.231 248.46 279.71C248.258 280.668 248.058 281.613 247.86 282.543C247.757 283.007 247.675 283.468 247.559 283.918L247.224 285.255C247.004 286.137 246.789 287.002 246.577 287.85C246.346 288.69 246.101 289.506 245.872 290.305C245.642 291.103 245.431 291.886 245.184 292.622C244.937 293.359 244.695 294.098 244.46 294.801C244.344 295.154 244.228 295.501 244.115 295.831C244.058 296.001 244.004 296.171 243.948 296.346C243.891 296.521 243.824 296.676 243.765 296.838L243.056 298.718L242.402 300.448C242.173 300.992 241.951 301.512 241.743 301.993C241.318 302.974 240.97 303.863 240.612 304.615L239.698 306.523C239.2 307.553 238.925 308.115 238.925 308.115C238.639 308.693 238.136 309.136 237.526 309.347C236.915 309.558 236.246 309.52 235.664 309.241C235.082 308.962 234.632 308.465 234.414 307.858C234.196 307.25 234.225 306.581 234.497 305.995L234.528 305.936L234.582 305.828L235.355 304.347L236.277 302.565C236.635 301.859 236.998 301.02 237.434 300.106C237.646 299.642 237.872 299.155 238.111 298.646C238.327 298.131 238.554 297.579 238.788 297.01C239.023 296.441 239.27 295.849 239.522 295.236C239.587 295.082 239.649 294.927 239.713 294.77L239.891 294.288C240.009 293.964 240.13 293.637 240.254 293.302C240.499 292.633 240.754 291.942 241.014 291.242C241.274 290.542 241.495 289.782 241.748 289.022C242 288.262 242.263 287.477 242.505 286.676C242.747 285.875 242.969 285.038 243.211 284.191C243.329 283.769 243.453 283.341 243.574 282.904C243.695 282.466 243.796 282.028 243.909 281.585L244.579 278.866C244.7 278.405 244.792 277.933 244.893 277.46C244.993 276.986 245.094 276.512 245.194 276.03C245.39 275.067 245.619 274.096 245.782 273.097C245.944 272.098 246.137 271.089 246.317 270.066C246.415 269.551 246.48 269.036 246.557 268.521C246.634 268.006 246.706 267.491 246.783 266.95C246.861 266.41 246.935 265.895 247.013 265.361C247.09 264.828 247.139 264.29 247.203 263.752C247.327 262.67 247.451 261.58 247.574 260.481C247.665 259.378 247.758 258.262 247.852 257.134C247.894 256.572 247.953 256.011 247.984 255.444C248.015 254.878 248.043 254.311 248.074 253.742C248.105 253.173 248.133 252.601 248.164 252.027C248.195 251.453 248.228 250.881 248.236 250.304C248.264 249.147 248.293 247.988 248.324 246.825C248.344 246.243 248.324 245.659 248.324 245.074C248.324 244.49 248.324 243.903 248.324 243.318V241.554C248.324 240.964 248.29 240.377 248.275 239.787C248.234 238.608 248.208 237.426 248.156 236.241C248.105 235.057 248.02 233.877 247.95 232.693C247.613 227.965 247.162 223.237 246.464 218.614C246.382 218.036 246.301 217.458 246.222 216.881C246.143 216.304 246.047 215.732 245.934 215.164C245.741 214.02 245.549 212.884 245.357 211.754C245.135 210.63 244.916 209.514 244.7 208.406C244.586 207.853 244.488 207.296 244.367 206.748C244.246 206.199 244.123 205.653 243.999 205.11C243.742 204.023 243.52 202.942 243.268 201.878C243.015 200.815 242.734 199.764 242.469 198.724L242.075 197.179C241.931 196.664 241.787 196.156 241.645 195.657C241.36 194.647 241.078 193.65 240.8 192.664C240.506 191.686 240.195 190.725 239.901 189.777L239.458 188.366C239.316 187.898 239.167 187.434 239.005 186.981C238.69 186.073 238.382 185.179 238.08 184.3C237.927 183.861 237.777 183.425 237.629 182.994C237.477 182.564 237.31 182.145 237.155 181.728C235.919 178.38 234.672 175.344 233.516 172.678L231.849 168.965C231.301 167.832 230.797 166.796 230.337 165.857L229.691 164.525L229.085 163.366C228.707 162.651 228.385 162.04 228.125 161.543L227.303 160.029Z" fill="#190E8E"/>
<path d="M90.4633 115.247C95.2156 115.504 98.8216 119.916 95.4731 121.427C90.2778 123.791 75.6398 124.378 67.0007 128.182C50.0676 135.634 39.4967 149.206 35.834 164.306C47.6104 154.135 58.9051 153.341 58.1169 157.611C56.5894 165.918 28.0784 169.869 31.1822 198.005C33.8532 222.24 48.2054 240.946 48.2054 240.946C57.2978 234.336 71.7529 230.295 76.634 222.974C67.7348 203.882 72.554 191.776 80.5234 190.053C92.9721 187.365 89.639 210.291 87.3775 217.074C94.9425 213.011 107.43 204.389 111.536 196.823C114.84 190.73 107.25 175.32 107.96 163.207C109.184 142.273 128.654 146.298 126.923 159.434C125.264 172.032 119.842 191.366 122.779 198.214C132.461 192.842 146.947 183.669 150.473 173.103C152.771 166.243 137.285 137.136 155.262 132.117C169.495 128.136 171.793 152.131 157.92 172.223C174.698 159.025 192.803 144.089 204.541 122.035C204.544 122.027 147.71 95.0471 90.4633 115.247ZM72.1599 187.148C65.6716 186.705 68.1263 167.193 73.8857 167.193C80.4693 167.193 78.6483 187.591 72.1599 187.148ZM94.5278 184.393C86.2699 188.665 78.486 154.974 92.7583 152.651C101.212 151.271 102.783 180.118 94.5278 184.393Z" fill="#BDD0FB"/>
<path d="M48.2079 240.964C57.3003 234.354 71.7555 230.313 76.6366 222.992C67.7373 203.9 72.5565 191.794 80.5259 190.071C92.9746 187.383 89.6416 210.309 87.3801 217.092C94.9451 213.029 107.432 204.407 111.538 196.841C114.843 190.748 107.252 175.338 107.963 163.225C109.186 142.291 128.657 146.316 126.926 159.452C125.267 172.05 119.845 191.384 122.781 198.232C132.464 192.86 146.95 183.687 150.476 173.121C152.771 166.243 137.285 137.136 155.262 132.117C169.495 128.135 171.793 152.131 157.92 172.223C174.698 159.025 204.541 152.455 204.541 122.035C64.4661 103.71 36.7045 206.207 48.2079 240.964ZM72.1625 187.143C65.6741 186.7 68.1288 167.188 73.8882 167.188C80.4693 167.193 78.6482 187.591 72.1599 187.148L72.1625 187.143ZM94.5278 184.393C86.2699 188.665 78.486 154.974 92.7582 152.651C101.212 151.271 102.783 180.118 94.5278 184.393Z" fill="#E0E8FE"/>
<path d="M48.7205 149.7C48.7205 149.7 48.9137 149.497 49.2846 149.128C49.6555 148.76 50.2119 148.227 50.9357 147.583C51.6595 146.939 52.5635 146.154 53.6273 145.299C54.6911 144.444 55.9275 143.53 57.3055 142.569C58.6836 141.609 60.2161 140.615 61.8826 139.641C63.5492 138.668 65.3419 137.71 67.2377 136.796C69.1334 135.882 71.1271 135.006 73.198 134.221C74.2283 133.809 75.2818 133.448 76.3378 133.082C76.853 132.889 77.4042 132.737 77.9399 132.567C78.4757 132.397 79.0089 132.22 79.5498 132.068L81.1751 131.615L81.9865 131.388L82.8055 131.19L84.436 130.791C84.9769 130.654 85.523 130.559 86.0665 130.44L87.6866 130.103L89.3016 129.822C89.8374 129.732 90.368 129.632 90.8986 129.552L92.4827 129.336C92.9978 129.266 93.513 129.186 94.0281 129.127L95.5736 128.97L97.0727 128.818L98.5434 128.715C100.475 128.558 102.309 128.53 103.999 128.473H106.428H107.553C107.919 128.473 108.275 128.496 108.617 128.509L110.541 128.581L111.399 128.615L112.172 128.671L115.263 128.898C115.421 128.904 115.576 128.942 115.72 129.009C115.863 129.077 115.991 129.172 116.097 129.29C116.202 129.408 116.283 129.546 116.334 129.696C116.385 129.846 116.405 130.005 116.394 130.163C116.382 130.321 116.339 130.474 116.266 130.615C116.194 130.756 116.094 130.881 115.972 130.982C115.851 131.084 115.71 131.159 115.558 131.205C115.407 131.251 115.248 131.266 115.09 131.249H115.057H115.013L111.989 130.935L111.229 130.852L110.395 130.793L108.512 130.659C108.177 130.639 107.829 130.608 107.481 130.59L106.379 130.548L103.999 130.463C102.34 130.463 100.542 130.435 98.6413 130.528L97.1989 130.579L95.7204 130.68L94.211 130.785C93.6959 130.827 93.1807 130.888 92.6655 130.94L91.1021 131.102C90.5869 131.164 90.0537 131.244 89.5257 131.316L87.9287 131.537L86.324 131.815C85.7883 131.916 85.2448 131.991 84.7065 132.109L83.0915 132.446L82.2775 132.616L81.4713 132.812L79.8563 133.209C79.318 133.34 78.7874 133.502 78.2516 133.646C77.7158 133.791 77.1801 133.932 76.6572 134.105C75.6037 134.44 74.5451 134.751 73.5199 135.135C71.4593 135.835 69.4554 136.652 67.5442 137.483C65.633 138.315 63.8325 139.227 62.1351 140.126C60.4377 141.024 58.8973 141.967 57.4987 142.871C56.1001 143.775 54.838 144.653 53.751 145.466C52.664 146.28 51.7367 147.012 50.9923 147.653C50.2479 148.294 49.6761 148.796 49.2949 149.157C48.9137 149.517 48.7205 149.7 48.7205 149.7Z" fill="#F2F5FF"/>
<path d="M114.583 131.208H114.441C114.359 131.208 114.183 131.208 113.962 131.208L112.368 131.182C111.02 131.164 109.101 131.161 106.799 131.318C105.65 131.388 104.406 131.517 103.095 131.676C101.784 131.836 100.403 132.06 98.9736 132.338C97.544 132.616 96.1016 132.949 94.6412 133.368C93.1807 133.788 91.7074 134.241 90.2495 134.746C89.5283 135.019 88.8019 135.287 88.0884 135.573L87.0272 136.018L86.5121 136.24L85.9969 136.476C85.3066 136.798 84.6137 137.1 83.9543 137.447C83.2949 137.795 82.6278 138.112 81.9967 138.477C81.3657 138.843 80.7346 139.165 80.1422 139.536C79.5498 139.907 78.9496 140.239 78.401 140.615C77.8523 140.991 77.296 141.328 76.7834 141.689L75.3075 142.742C74.8336 143.082 74.4034 143.437 73.9836 143.772C73.5637 144.107 73.1593 144.4 72.8039 144.712L71.7916 145.567C71.4773 145.824 71.1889 146.082 70.9442 146.306L69.3678 147.751L70.8926 146.252C71.1296 145.994 71.4078 145.755 71.7143 145.479L72.6983 144.588C73.0434 144.261 73.4401 143.947 73.847 143.602C74.254 143.257 74.6764 142.894 75.1349 142.536L76.5799 141.423C77.0951 141.042 77.6231 140.677 78.1666 140.285C78.7101 139.894 79.2948 139.528 79.882 139.139C80.4693 138.75 81.0875 138.367 81.716 138.004C82.3445 137.64 83.0039 137.264 83.6555 136.899C84.3072 136.533 84.9975 136.196 85.6852 135.846L86.2004 135.588L86.7155 135.343L87.7768 134.857C88.4877 134.54 89.2115 134.241 89.9352 133.94C91.3957 133.373 92.8665 132.827 94.3449 132.395C95.8234 131.962 97.289 131.54 98.7237 131.2C100.158 130.86 101.557 130.595 102.889 130.373C104.22 130.152 105.488 129.987 106.662 129.874C109.011 129.616 110.982 129.562 112.352 129.534L113.918 129.503C114.068 129.503 114.176 129.503 114.271 129.485H114.413H114.438C114.672 129.463 114.905 129.535 115.085 129.685C115.266 129.834 115.38 130.05 115.402 130.283C115.424 130.517 115.352 130.749 115.202 130.93C115.052 131.111 114.837 131.224 114.603 131.246L114.583 131.208Z" fill="#F2F5FF"/>
<path d="M67.3742 164.85L67.2686 164.968L67.1372 165.115L67.0522 165.21L66.9286 165.321C66.7258 165.513 66.5135 165.694 66.2924 165.864L65.9034 166.168C65.7617 166.269 65.6124 166.374 65.4552 166.49C64.1983 167.394 62.3643 168.571 60.229 170.052C59.1626 170.798 58.0061 171.597 56.8187 172.508C56.2185 172.949 55.6235 173.43 55.0157 173.907C54.4078 174.383 53.7793 174.896 53.1689 175.431C51.9196 176.461 50.6987 177.623 49.4726 178.81L48.5788 179.727L48.1281 180.19L47.6928 180.666C47.4043 180.989 47.1141 181.309 46.8222 181.627L45.9851 182.621C45.4158 183.273 44.9084 183.978 44.3752 184.655C44.1176 184.998 43.8755 185.358 43.6257 185.706C43.3758 186.054 43.1105 186.399 42.8967 186.765L42.2141 187.838C42.1034 188.019 41.9823 188.194 41.8793 188.377L41.5676 188.923L40.9546 190.007C40.7537 190.37 40.5837 190.741 40.3982 191.104C40.2128 191.467 40.0325 191.825 39.865 192.188L39.3963 193.277C39.2469 193.64 39.0743 193.988 38.9506 194.348L38.5643 195.415C38.4432 195.767 38.3067 196.107 38.2011 196.457L37.8972 197.488C37.7993 197.822 37.6963 198.152 37.6087 198.482C37.5211 198.811 37.4593 199.136 37.3846 199.452C37.06 200.717 36.9106 201.904 36.7329 202.949C36.6659 203.465 36.6273 203.98 36.5784 204.428C36.5294 204.876 36.4831 205.303 36.465 205.682C36.4161 207.206 36.3852 208.077 36.3852 208.077C36.3852 208.077 36.3852 207.206 36.4161 205.679C36.4161 205.298 36.4702 204.878 36.5011 204.42C36.532 203.962 36.5681 203.465 36.6247 202.937C36.7819 201.886 36.9055 200.688 37.2043 199.414C37.2713 199.092 37.3408 198.765 37.4078 198.43C37.4747 198.095 37.5881 197.766 37.6653 197.426C37.7426 197.086 37.8534 196.738 37.9487 196.396C38.044 196.053 38.1779 195.698 38.2913 195.34C38.4046 194.982 38.5359 194.624 38.6596 194.258C38.7832 193.893 38.9429 193.535 39.0846 193.166L39.5353 192.059C39.695 191.688 39.8779 191.325 40.0505 190.954C40.2231 190.583 40.3931 190.205 40.5888 189.834L41.1838 188.727C41.2843 188.541 41.3847 188.353 41.4878 188.168C41.5908 187.983 41.7041 187.802 41.8123 187.619L42.482 186.517C42.6984 186.144 42.956 185.796 43.1929 185.433C43.4299 185.07 43.672 184.704 43.9296 184.354C44.4447 183.656 44.9599 182.933 45.5163 182.261L46.3405 181.23L47.2008 180.242L47.631 179.747L48.0766 179.271L48.9626 178.323C50.1758 177.097 51.389 175.905 52.6279 174.826C53.2332 174.272 53.8617 173.765 54.4619 173.247C55.062 172.73 55.6673 172.253 56.2649 171.795C57.4446 170.86 58.5831 170.021 59.652 169.246C61.7745 167.7 63.5878 166.488 64.7855 165.584C65.2357 165.261 65.6658 164.911 66.0734 164.536L66.1661 164.456L66.246 164.36L66.3748 164.211L66.4778 164.09C66.5803 163.971 66.7258 163.898 66.8823 163.886C67.0388 163.875 67.1935 163.926 67.3123 164.028C67.4312 164.131 67.5045 164.276 67.5161 164.433C67.5277 164.589 67.4766 164.744 67.3742 164.863V164.85Z" fill="#F2F5FF"/>
<path d="M203.119 124.072L200.76 123.838C199.214 123.686 196.986 123.467 194.132 123.24C191.278 123.013 187.809 122.782 183.829 122.63C179.85 122.478 175.345 122.388 170.435 122.473C165.526 122.558 160.22 122.807 154.62 123.304C151.826 123.562 148.954 123.868 146.03 124.28L144.933 124.427L143.83 124.592L141.61 124.932C140.129 125.189 138.627 125.424 137.126 125.723C134.112 126.279 131.073 126.961 128.01 127.713L125.715 128.305C124.942 128.504 124.185 128.73 123.418 128.944C121.872 129.359 120.358 129.858 118.82 130.324C112.626 132.305 106.598 134.767 100.789 137.689C99.3213 138.4 97.9046 139.214 96.4674 139.986C95.759 140.391 95.061 140.81 94.3578 141.22L93.3043 141.841L92.274 142.492L90.2134 143.8L88.2095 145.175L87.2101 145.863L86.2364 146.584L84.2969 148.026C74.596 155.492 66.4717 164.807 60.3938 175.431C57.7566 180.031 55.4755 184.827 53.5707 189.775C53.3543 190.352 53.1397 190.923 52.9267 191.487L52.6099 192.329L52.4528 192.749L52.3137 193.169L51.2267 196.45C51.1391 196.707 51.0438 196.983 50.9691 197.248C50.8944 197.513 50.8172 197.778 50.7399 198.041L50.2917 199.586C50.0032 200.616 49.689 201.597 49.4675 202.576C48.9961 204.525 48.5016 206.338 48.1796 208.046C47.8576 209.753 47.4738 211.303 47.2575 212.73C47.0411 214.157 46.8016 215.418 46.6161 216.523L46.2349 219.356C46.0288 220.901 45.9207 221.704 45.9207 221.704C45.9207 221.704 46.0134 220.886 46.1782 219.351C46.2658 218.578 46.374 217.636 46.5002 216.518C46.6264 215.4 46.8505 214.136 47.0617 212.709C47.2729 211.283 47.5769 209.712 47.886 207.999C48.1951 206.287 48.6304 204.453 49.0631 202.488C49.2666 201.502 49.5602 200.506 49.8358 199.47C49.9715 198.955 50.1106 198.432 50.2531 197.9C50.3226 197.642 50.3948 197.364 50.4669 197.096C50.539 196.828 50.6291 196.56 50.709 196.29C51.0404 195.21 51.3838 194.104 51.7393 192.971L51.8732 192.543L52.0201 192.121L52.3214 191.266C52.5258 190.694 52.7301 190.116 52.9344 189.53C54.7507 184.502 56.949 179.62 59.5104 174.926C65.4574 164.01 73.5119 154.382 83.2073 146.599L85.152 145.09L86.1257 144.336L87.1302 143.612L89.1445 142.168L91.2051 140.792L92.2354 140.105L93.294 139.451C94.0023 139.018 94.7055 138.575 95.4216 138.148C96.8666 137.331 98.2962 136.471 99.7772 135.714C105.633 132.611 111.724 129.973 117.993 127.824C119.538 127.309 121.084 126.773 122.647 126.317C123.42 126.083 124.193 125.836 124.966 125.617L127.284 124.968C130.375 124.134 133.466 123.374 136.52 122.746C138.043 122.408 139.565 122.14 141.069 121.844L143.32 121.453L144.438 121.26L145.554 121.087C148.516 120.606 151.429 120.245 154.267 119.913C159.95 119.287 165.343 118.909 170.325 118.731C175.306 118.553 179.878 118.53 183.927 118.605C187.976 118.679 191.508 118.839 194.408 119.007C197.308 119.174 199.588 119.349 201.133 119.467L203.495 119.653C203.791 119.667 204.081 119.741 204.348 119.869C204.615 119.997 204.853 120.178 205.049 120.4C205.244 120.622 205.394 120.881 205.487 121.162C205.581 121.443 205.617 121.74 205.594 122.035C205.571 122.33 205.489 122.618 205.353 122.88C205.217 123.143 205.029 123.376 204.801 123.565C204.573 123.754 204.309 123.895 204.026 123.981C203.742 124.066 203.445 124.093 203.15 124.062L203.119 124.072Z" fill="#F2F5FF"/>
<path d="M514.964 208.205C514.238 188.816 494.51 189.004 492.637 183.524C491.674 180.692 498.891 176.602 507.899 182.314C503.896 172.443 495.885 167.811 483.656 164.46C477.41 162.75 468.822 160.961 465.061 159.879C462.638 159.184 462.73 155.192 465.924 154.536C425.08 146.596 379.18 174.447 379.18 174.447C389.36 188.219 411.12 196.078 425.923 199.941C414.497 187.712 414.159 174.704 424.212 175.992C436.903 177.594 429.33 198.883 431.579 203.315C435.033 210.126 445.777 214.887 452.881 217.555C454.184 212.611 449.12 200.003 446.727 191.631C444.231 182.899 454.109 177.643 457.046 191.713C458.746 199.856 455.096 208.967 458.903 214.318C462.318 219.129 471.648 222.641 478.26 223.28C476.044 218.902 473.518 208.625 480.709 207.777C484.228 207.363 490.252 212.359 486.139 226.2C489.055 232.319 500.911 235.471 507.742 239.03C507.742 239.027 515.59 224.905 514.964 208.205ZM431.868 159.516C431.968 155.854 455.856 154.6 457.164 158.506C458.473 162.413 431.752 163.721 431.868 159.516ZM470.125 201.823C464.098 199.763 462.967 182.857 468.747 182.427C477.572 181.773 476.153 203.891 470.125 201.823ZM485.58 201.445C481.227 202.398 478.285 190.4 482.746 189.738C486.641 189.161 489.923 200.492 485.567 201.445H485.58Z" fill="#F2F8FC"/>
<path d="M514.444 204.698C513.717 185.309 493.99 185.5 492.117 180.02C491.154 177.2 498.891 176.603 507.899 182.315C503.896 172.444 495.365 164.306 483.135 160.959C476.892 159.249 466.908 160.323 463.153 159.241C460.729 158.546 462.73 155.195 465.924 154.539C425.08 146.599 389.262 170.605 389.262 170.605C399.441 184.38 413.216 192.685 425.923 199.947C414.496 187.717 413.641 171.218 423.692 172.488C436.383 174.089 428.81 195.378 431.059 199.81C434.513 206.622 445.256 211.383 452.36 214.051C453.664 209.107 448.043 196.54 445.65 188.178C443.154 179.446 455.953 174.759 458.887 188.827C460.587 196.97 456.991 208.18 459.845 211.978C463.39 216.696 472.724 221.287 478.259 223.28C476.044 218.903 471.48 203.709 480.189 204.271C485.765 204.639 490.252 212.359 486.139 226.201C490.185 230.671 500.39 231.959 507.221 235.525C507.221 235.523 515.07 221.401 514.444 204.698ZM429.186 158.479C429.286 154.814 455.974 153.522 457.29 157.428C458.606 161.335 429.078 162.684 429.191 158.479H429.186ZM470.12 201.824C464.093 199.764 462.256 180.043 468.126 180.126C478.043 180.272 476.152 203.892 470.125 201.824H470.12ZM485.575 201.446C481.222 202.398 477.935 188.75 482.399 188.088C486.296 187.509 489.923 200.493 485.567 201.446H485.575Z" fill="#E0E8FE"/>
<path d="M379.788 173.698C398.019 190.215 413.137 193.689 425.923 199.944C414.497 187.715 413.641 171.216 423.692 172.485C436.383 174.087 428.81 195.376 431.059 199.808C434.513 206.619 445.256 211.381 452.36 214.048C453.664 209.104 448.043 196.537 445.65 188.176C443.154 179.443 455.953 174.756 458.887 188.825C460.587 196.967 456.991 208.177 459.845 211.975C463.39 216.693 472.724 221.285 478.259 223.278C476.044 218.9 471.48 203.707 480.189 204.268C485.765 204.636 490.252 212.357 486.139 226.198C490.185 230.669 500.39 231.956 507.221 235.523C511.523 210.801 472.917 147.197 379.788 173.698ZM482.383 188.088C486.288 187.509 489.915 200.493 485.559 201.446C481.204 202.398 477.927 188.75 482.383 188.088ZM468.124 180.126C478.035 180.265 476.145 203.892 470.117 201.824C464.09 199.756 462.261 180.043 468.132 180.126H468.124Z" fill="#BDD0FB"/>
<path d="M497.694 173.698L497.243 173.384C496.947 173.178 496.506 172.889 495.94 172.537C494.365 171.569 492.731 170.704 491.046 169.946C490.002 169.475 488.851 169.009 487.623 168.553C486.394 168.097 485.075 167.682 483.697 167.304C482.319 166.925 480.882 166.58 479.408 166.312C478.674 166.163 477.927 166.055 477.178 165.934C476.428 165.813 475.674 165.736 474.919 165.648C473.404 165.501 471.89 165.391 470.393 165.354L469.278 165.329H468.173C467.807 165.329 467.444 165.329 467.081 165.344L466.007 165.391C465.651 165.409 465.298 165.419 464.951 165.439L463.92 165.522L462.908 165.602L461.924 165.712C460.636 165.841 459.41 166.042 458.287 166.207L456.682 166.503L455.938 166.642C455.696 166.691 455.464 166.745 455.24 166.794L453.975 167.075L453.416 167.198L452.901 167.33L450.884 167.845H450.856C450.649 167.898 450.429 167.867 450.244 167.759C450.059 167.65 449.926 167.473 449.872 167.265C449.818 167.058 449.849 166.838 449.958 166.653C450.067 166.469 450.244 166.335 450.452 166.282H450.477L452.553 165.818L453.069 165.7L453.646 165.591L454.933 165.349C455.165 165.308 455.405 165.259 455.652 165.218L456.425 165.102L458.071 164.845C459.225 164.716 460.469 164.551 461.795 164.461L462.802 164.384L463.833 164.337L464.889 164.288C465.244 164.288 465.602 164.288 465.965 164.273L467.06 164.26C467.426 164.26 467.797 164.275 468.17 164.283L469.293 164.312L470.427 164.376C471.944 164.456 473.479 164.633 475.006 164.827C475.779 164.94 476.531 165.056 477.286 165.192C478.041 165.329 478.793 165.47 479.532 165.648C481.013 165.967 482.45 166.372 483.831 166.791C485.212 167.211 486.518 167.698 487.746 168.182C488.975 168.666 490.111 169.199 491.154 169.714C492.82 170.529 494.431 171.45 495.978 172.472C496.535 172.846 496.965 173.15 497.253 173.363L497.694 173.698Z" fill="white"/>
<path d="M487.102 185.237L487.185 185.31L487.285 185.397L487.352 185.454L487.422 185.5C487.735 185.712 488.06 185.905 488.395 186.079C489.299 186.571 490.652 187.22 492.246 188.047C493.042 188.467 493.905 188.92 494.798 189.435C495.249 189.692 495.7 189.965 496.166 190.238C496.632 190.511 497.101 190.81 497.57 191.124C498.518 191.732 499.461 192.412 500.403 193.125C500.862 193.499 501.341 193.854 501.789 194.251L502.474 194.835L503.136 195.445C503.584 195.845 503.994 196.285 504.424 196.705C504.635 196.916 504.828 197.142 505.032 197.361C505.235 197.58 505.439 197.794 505.624 198.026C505.995 198.484 506.397 198.919 506.724 199.393C506.897 199.625 507.069 199.857 507.239 200.083C507.409 200.31 507.556 200.557 507.716 200.789C507.876 201.021 508.03 201.252 508.177 201.487L508.592 202.192C508.878 202.653 509.107 203.127 509.349 203.586C509.591 204.044 509.789 204.5 509.985 204.943C510.08 205.167 510.181 205.383 510.268 205.599L510.505 206.243C510.835 207.08 511.041 207.878 511.252 208.574C511.422 209.282 511.567 209.902 511.67 210.412L511.927 212.035L511.631 210.42C511.515 209.905 511.373 209.297 511.178 208.594C510.948 207.904 510.729 207.114 510.382 206.277L510.124 205.638C510.031 205.427 509.928 205.213 509.828 204.994C509.627 204.556 509.424 204.103 509.169 203.658C508.914 203.212 508.684 202.743 508.396 202.293L507.968 201.603C507.819 201.373 507.654 201.149 507.497 200.92C507.34 200.691 507.18 200.457 507.01 200.233L506.495 199.558C506.152 199.1 505.753 198.675 505.377 198.229C505.189 198.005 504.975 197.802 504.777 197.585C504.579 197.369 504.375 197.153 504.161 196.947C503.731 196.542 503.319 196.115 502.873 195.731L502.206 195.142L501.519 194.578C501.068 194.196 500.586 193.857 500.125 193.496C499.175 192.814 498.232 192.157 497.292 191.578C496.826 191.276 496.346 191.008 495.888 190.73C495.43 190.452 494.968 190.215 494.518 189.958C493.621 189.466 492.756 189.033 491.957 188.634C490.355 187.846 489 187.231 488.055 186.744C487.669 186.555 487.296 186.34 486.94 186.1C486.882 186.065 486.828 186.026 486.778 185.982L486.675 185.894L486.59 185.825C486.516 185.754 486.472 185.658 486.466 185.556C486.46 185.454 486.493 185.353 486.558 185.275C486.624 185.196 486.716 185.145 486.818 185.132C486.919 185.119 487.022 185.145 487.105 185.204L487.102 185.237Z" fill="white"/>
<path d="M389.725 168.9L391.31 168.537C392.34 168.3 393.872 167.953 395.822 167.546C399.722 166.737 405.327 165.684 412.124 164.937C415.519 164.559 419.215 164.273 423.128 164.126C425.085 164.064 427.097 164.018 429.155 164.046C430.185 164.046 431.216 164.087 432.272 164.108C433.328 164.129 434.381 164.185 435.448 164.263C439.837 164.52 444.206 165.046 448.53 165.839C452.994 166.667 457.386 167.844 461.666 169.359C462.748 169.724 463.802 170.162 464.865 170.572C465.381 170.788 465.914 171.017 466.439 171.241L467.212 171.579L467.985 171.939L469.53 172.665L471.04 173.438L471.794 173.827L472.531 174.241L474.002 175.071C477.792 177.306 481.352 179.911 484.629 182.848C487.669 185.6 490.444 188.631 492.921 191.899C495.129 194.823 497.109 197.912 498.845 201.139C500.312 203.86 501.62 206.664 502.763 209.537C503.252 210.824 503.747 212.019 504.115 213.155C504.483 214.29 504.888 215.313 505.145 216.263C505.403 217.213 505.689 218.066 505.918 218.792C506.147 219.518 506.284 220.164 506.418 220.677L506.837 222.245L506.387 220.7C506.24 220.185 506.057 219.562 505.846 218.825C505.635 218.089 505.331 217.257 505.027 216.317C504.723 215.377 504.339 214.352 503.932 213.227C503.525 212.102 503.025 210.909 502.508 209.647C501.312 206.813 499.952 204.05 498.435 201.373C496.645 198.21 494.617 195.189 492.367 192.335C487.176 185.741 480.729 180.24 473.399 176.152L471.938 175.38L471.207 174.988L470.46 174.622L468.961 173.891L467.444 173.191L466.671 172.853L465.898 172.539C465.383 172.331 464.868 172.117 464.353 171.913C463.299 171.535 462.259 171.141 461.19 170.791C456.96 169.394 452.627 168.33 448.231 167.61C443.969 166.917 439.668 166.487 435.352 166.323C434.304 166.269 433.263 166.263 432.233 166.235C431.203 166.207 430.173 166.215 429.168 166.235C427.146 166.251 425.17 166.338 423.244 166.439C419.398 166.665 415.774 167.021 412.438 167.469C405.767 168.344 400.273 169.495 396.451 170.373C394.537 170.814 393.04 171.187 392.015 171.442L390.442 171.839C390.249 171.887 390.048 171.897 389.851 171.868C389.654 171.839 389.465 171.772 389.294 171.67C389.123 171.568 388.974 171.433 388.856 171.273C388.737 171.114 388.651 170.932 388.602 170.739C388.554 170.546 388.544 170.346 388.573 170.149C388.602 169.952 388.669 169.763 388.771 169.592C388.874 169.421 389.008 169.272 389.168 169.154C389.328 169.035 389.509 168.949 389.702 168.9H389.725Z" fill="white"/>
<path d="M218.368 187.344C210.944 199.617 145.922 271.189 145.922 271.189L114.065 247.814L173.462 151.67C175.373 148.468 177.896 145.674 180.888 143.447C183.879 141.22 187.28 139.603 190.896 138.69C194.512 137.777 198.272 137.585 201.963 138.125C205.653 138.665 209.201 139.926 212.403 141.837C215.606 143.748 218.401 146.27 220.629 149.261C222.856 152.251 224.473 155.651 225.386 159.267C226.3 162.882 226.492 166.642 225.952 170.331C225.412 174.021 224.15 177.568 222.239 180.77C221.459 182.096 218.368 187.344 218.368 187.344Z" fill="#E1473D"/>
<path d="M35.287 157.108C35.9422 153.032 33.1681 149.196 29.0908 148.541C25.0134 147.886 21.1768 150.66 20.5216 154.736C19.8663 158.812 22.6404 162.648 26.7178 163.303C30.7951 163.958 34.6317 161.185 35.287 157.108Z" fill="#E0E8FE"/>
<path d="M341.625 327.523C346.26 322.889 346.26 315.375 341.625 310.741C336.99 306.107 329.475 306.107 324.839 310.741C320.204 315.375 320.204 322.889 324.839 327.523C329.475 332.157 336.99 332.157 341.625 327.523Z" fill="#BDD0FB"/>
<path d="M176.967 45.9438C182.706 51.6813 193.056 83.6778 179.043 81.0975C164.277 78.3781 172.862 51.6839 168.97 44.6124C165.165 37.7007 153.417 34.2268 144.114 32.746C159.741 48.3696 158.28 64.5469 151.403 63.1331C136.446 60.0429 151.305 35.7822 118.948 31.7855C112.978 31.049 106.564 32.9907 99.7797 34.2577C108.967 34.2577 132.834 51.9156 124.448 56.8677C109.614 65.6233 91.478 44.5197 91.478 36.0886C56.8186 45.2099 47.2625 68.8474 56.0098 87.1904C62.2509 80.9507 80.4615 71.9582 83.5988 77.5232C86.9009 83.3843 75.0086 91.2385 61.4086 91.2385C63.9843 98.1915 69.378 103.02 72.948 104.581C98.6566 115.821 133.625 83.58 141.911 90.4505C147.302 94.921 142.112 102.08 102.832 115.247C107.752 119.761 113.606 123.155 120.172 122.715C140.644 121.299 157.739 101.508 165.557 108.479C172.792 114.935 164.952 120.044 144.977 123.454C149.87 140.937 193.898 121.757 213.945 150.813C213.945 150.8 220.851 78.0176 176.967 45.9438ZM83.7688 59.1725C82.0147 61.7991 69.6871 57.6505 72.7187 52.9766C75.6293 48.4881 86.0586 55.7372 83.7688 59.1725ZM83.0269 47.5842C88.0368 40.7934 103.118 56.2702 97.4512 58.6574C91.6403 61.0935 80.1962 51.4238 83.0269 47.5868V47.5842ZM94.4247 89.7552C90.6563 83.3173 120.79 71.8475 125.849 79.6503C130.908 87.453 98.3888 96.5176 94.4247 89.7552Z" fill="#F2F5FF"/>
<path d="M176.967 45.9438C183.953 52.4203 196.484 84.1284 182.469 81.5481C167.705 78.8313 174.788 50.1464 170.894 43.075C167.087 36.1658 155.352 33.5263 144.106 32.746C160.506 45.591 159.962 65.0412 153.095 63.6172C138.138 60.527 153.229 34.2319 120.865 30.2352C114.897 29.4987 106.441 31.8576 99.7745 34.2447C108.962 34.2447 136.149 50.4477 127.763 55.3972C112.931 64.1528 93.3892 42.972 93.3892 34.5383C58.7427 43.6725 49.2021 67.1709 57.9493 85.5061C64.1904 79.2665 84.9948 70.4336 88.1475 76.0037C91.4471 81.8648 75.0112 91.2359 61.4086 91.2359C63.5609 94.1202 66.0964 96.6976 68.9452 98.897C70.8359 100.367 72.6106 102.152 74.8695 103.053C97.3404 112.015 137.764 81.373 146.051 88.2436C151.447 92.7166 142.125 102.08 102.832 115.247C109.058 117.104 115.378 120.317 121.944 119.864C142.416 118.448 159.663 99.958 167.478 106.929C174.716 113.385 164.952 120.031 144.977 123.441C176.715 127.407 204.155 127.888 205.641 137.275L213.945 150.8C213.945 150.8 220.851 78.0175 176.967 45.9438ZM83.7687 59.1724C82.0146 61.7991 68.7443 57.017 71.776 52.3431C74.6866 47.8545 86.0586 55.7371 83.7687 59.1724ZM82.0842 46.5798C87.0941 39.7891 103.115 56.2728 97.4435 58.6574C91.6403 61.0935 79.2534 50.4168 82.0842 46.5798ZM94.4247 89.7552C90.6563 83.3172 122.516 70.8508 127.57 78.6536C132.623 86.4564 98.3887 96.5176 94.4247 89.7552Z" fill="#E0E8FE"/>
<path d="M212.75 137.267C184.932 65.1906 93.536 58.7604 55.7239 65.4198C54.0857 72.1951 54.9228 79.1635 57.9493 85.5062C64.1904 79.2665 84.9948 70.4337 88.1475 76.0038C91.4471 81.8649 75.0112 91.2359 61.4086 91.2359C63.5609 94.1202 66.0965 96.6977 68.9453 98.8971C70.8359 100.368 72.6106 102.152 74.8695 103.053C97.3404 112.015 137.764 81.373 146.051 88.2436C151.447 92.7167 142.125 102.08 102.832 115.247C108.697 118.651 115.378 120.317 121.944 119.864C142.416 118.448 159.663 99.958 167.478 106.929C174.716 113.385 164.952 120.032 144.977 123.441C151.82 135.158 193.772 122.184 213.945 150.8C213.945 150.8 214.313 147.71 214.527 142.51C214.046 140.85 213.454 139.102 212.75 137.267ZM94.4247 89.7552C90.6563 83.3173 122.516 70.8509 127.57 78.6536C132.623 86.4564 98.3888 96.5176 94.4247 89.7552Z" fill="#BDD0FB"/>
<path d="M132.412 58.029C132.412 58.029 132.556 58.3818 132.824 58.9896C133.092 59.5973 133.499 60.46 134.048 61.4592C134.673 62.5944 135.366 63.6909 136.124 64.7425C136.541 65.3142 136.984 65.8988 137.463 66.4653C137.942 67.0318 138.447 67.5932 138.972 68.134C139.23 68.3915 139.488 68.6697 139.779 68.922L140.186 69.3032L140.605 69.6688C141.162 70.1555 141.734 70.6036 142.298 71.0208C142.578 71.232 142.867 71.4199 143.14 71.6157C143.413 71.8114 143.702 71.9762 143.972 72.1513C144.518 72.4835 145.043 72.7874 145.541 73.0423L145.901 73.2354L146.246 73.4028L146.898 73.7144C147.318 73.8895 147.671 74.0492 147.98 74.1677L148.935 74.5256H148.964C149.14 74.5919 149.282 74.7253 149.36 74.8965C149.437 75.0677 149.443 75.2627 149.377 75.4385C149.311 75.6144 149.178 75.7567 149.006 75.8342C148.835 75.9118 148.64 75.9181 148.464 75.8518L148.428 75.8364L147.444 75.4012C147.132 75.257 146.764 75.0664 146.337 74.8578L145.672 74.4947C145.556 74.4278 145.435 74.3634 145.314 74.2964L144.946 74.0724C144.43 73.7762 143.915 73.426 143.364 73.0423C143.094 72.844 142.813 72.6483 142.535 72.4346C142.257 72.2208 141.973 72.0019 141.695 71.7676C141.136 71.3015 140.572 70.8071 140.028 70.2714L139.622 69.8697L139.222 69.4525C138.965 69.177 138.707 68.8834 138.45 68.5976C137.934 68.013 137.458 67.4155 137.01 66.7949C136.562 66.1743 136.139 65.5717 135.75 64.9666C135.049 63.8693 134.415 62.7307 133.852 61.557C133.357 60.5269 133.002 59.6359 132.767 59.0102C132.533 58.3844 132.412 58.029 132.412 58.029Z" fill="#F2F5FF"/>
<path d="M99.8828 76.6914L100.372 76.457C100.532 76.3798 100.728 76.2819 100.962 76.1789L101.776 75.839C102.392 75.5815 103.144 75.324 104.025 75.0356C104.905 74.7471 105.902 74.4716 107.002 74.1909C107.551 74.0493 108.13 73.9334 108.725 73.784C109.32 73.6347 109.941 73.5265 110.58 73.4055C111.219 73.2844 111.868 73.148 112.55 73.0527L113.581 72.8827L114.611 72.7308C116.015 72.5248 117.47 72.3496 118.954 72.1977C120.437 72.0458 121.947 71.9222 123.459 71.832C124.213 71.7805 124.971 71.7548 125.725 71.7162C126.48 71.6775 127.23 71.6569 127.977 71.6492C129.468 71.6131 130.939 71.6209 132.355 71.6492C133.772 71.6775 135.155 71.7419 136.459 71.8398L137.422 71.9119L138.357 72.002C138.97 72.0561 139.562 72.1359 140.132 72.2029C140.701 72.2698 141.242 72.3677 141.759 72.4424L143.225 72.7127C143.681 72.8158 144.111 72.9059 144.513 73.0037L145.597 73.2947C146.249 73.5033 146.759 73.6656 147.102 73.8098L147.632 74.0158C147.725 74.045 147.81 74.0929 147.884 74.1565C147.957 74.2201 148.016 74.2981 148.058 74.3856C148.1 74.4731 148.123 74.5683 148.127 74.6653C148.131 74.7623 148.114 74.8589 148.079 74.9493C148.043 75.0396 147.99 75.1218 147.921 75.1906C147.853 75.2593 147.771 75.3133 147.681 75.3492C147.591 75.3851 147.494 75.402 147.397 75.399C147.3 75.396 147.205 75.3731 147.117 75.3317H147.102L147.055 75.3111L146.579 75.1077C146.275 74.966 145.806 74.8012 145.201 74.5926L144.17 74.2862C143.794 74.1806 143.398 74.0853 142.947 73.972L141.535 73.6604C141.02 73.5729 140.505 73.4647 139.956 73.3823C139.408 73.2999 138.826 73.2046 138.226 73.1248L137.309 73.0115L136.361 72.911C135.073 72.7771 133.723 72.6818 132.317 72.6046C130.91 72.5273 129.455 72.4861 127.974 72.4784C127.232 72.4629 126.488 72.4784 125.738 72.4784C124.989 72.4784 124.237 72.499 123.484 72.5299C121.978 72.5737 120.473 72.6561 118.995 72.7591C117.516 72.8621 116.064 72.9986 114.66 73.1634L113.63 73.2844L112.599 73.4235C111.924 73.5085 111.268 73.6192 110.629 73.7171C109.99 73.8149 109.369 73.9359 108.769 74.0415C108.169 74.1471 107.595 74.2707 107.043 74.3969C105.938 74.6544 104.934 74.8913 104.05 75.1514C103.167 75.4115 102.407 75.6665 101.789 75.8828L100.965 76.1995C100.728 76.2974 100.532 76.3901 100.37 76.457L99.8828 76.6914Z" fill="#F2F5FF"/>
<path d="M115.36 91.975L115.968 91.7484C116.365 91.6042 116.942 91.3801 117.674 91.0891C119.139 90.5123 121.215 89.6419 123.714 88.6118C126.212 87.5818 129.149 86.4152 132.368 85.3517C133.978 84.8212 135.66 84.3216 137.388 83.8864C139.117 83.4512 140.899 83.0855 142.692 82.792C144.485 82.4984 146.298 82.3233 148.101 82.2074C148.997 82.1739 149.886 82.1198 150.767 82.1353C151.207 82.1353 151.645 82.1353 152.078 82.1353L153.366 82.1868C153.796 82.1868 154.218 82.2331 154.638 82.2666L155.882 82.3671C156.701 82.4675 157.505 82.5525 158.283 82.6683L159.429 82.8589C159.805 82.9207 160.179 82.9774 160.539 83.0598C161.261 83.2169 161.966 83.343 162.631 83.5104L164.542 83.9971L166.245 84.5122C166.783 84.6641 167.275 84.8469 167.728 85.0014L168.983 85.4341L171.327 86.3508C171.576 86.4482 171.777 86.6407 171.885 86.886C171.993 87.1313 171.998 87.4094 171.901 87.659C171.804 87.9086 171.611 88.1094 171.366 88.2171C171.12 88.3248 170.842 88.3306 170.593 88.2333L170.564 88.2204L170.52 88.2024L168.285 87.2367L167.087 86.7783C166.649 86.6135 166.183 86.4178 165.668 86.2633L164.04 85.7122L162.216 85.1688C161.58 84.9809 160.902 84.8366 160.207 84.6538C159.859 84.5637 159.501 84.4967 159.141 84.422L158.036 84.2006C157.286 84.0615 156.511 83.9431 155.717 83.8246L154.512 83.6855C154.105 83.6392 153.696 83.5877 153.281 83.5645L152.024 83.4718C151.604 83.4409 151.176 83.4383 150.749 83.4203C149.891 83.3765 149.023 83.3997 148.147 83.3997C146.396 83.4512 144.616 83.5594 142.844 83.786C141.072 84.0126 139.307 84.301 137.587 84.6821C135.866 85.0633 134.182 85.4856 132.567 85.9568C129.337 86.8994 126.372 87.9629 123.84 88.9028C121.308 89.8428 119.201 90.6565 117.704 91.1716C116.96 91.4291 116.375 91.6377 115.976 91.769L115.36 91.975Z" fill="#F2F5FF"/>
<path d="M76.6209 63.4704C76.6209 63.4704 77.3086 63.3957 78.6068 63.3082C79.905 63.2206 81.8085 63.1176 84.2349 63.0635C86.6612 63.0095 89.6105 63.0095 92.9924 63.1125C96.3744 63.2155 100.184 63.4395 104.326 63.8387C108.468 64.2378 112.952 64.8069 117.658 65.6413C122.364 66.4756 127.291 67.534 132.34 68.8886C137.52 70.294 142.617 71.9868 147.609 73.9591C150.164 74.9557 152.696 76.0759 155.215 77.2476C156.464 77.8528 157.724 78.4451 158.958 79.0966C159.576 79.4185 160.202 79.7249 160.812 80.0623L162.649 81.0692C163.267 81.3988 163.864 81.7593 164.467 82.0992C165.07 82.4392 165.678 82.7971 166.27 83.1602L168.047 84.2649C168.341 84.4504 168.64 84.6281 168.931 84.8212L169.804 85.398L171.543 86.5491L173.243 87.7492C174.389 88.5217 175.473 89.3896 176.591 90.211C180.871 93.5035 184.891 97.1193 188.617 101.027C192.11 104.685 195.329 108.595 198.251 112.723C200.866 116.427 203.248 120.291 205.383 124.291C205.641 124.757 205.87 125.215 206.112 125.671C206.354 126.127 206.596 126.578 206.807 127.033C207.249 127.94 207.678 128.826 208.095 129.691C208.312 130.121 208.497 130.554 208.688 130.979C208.878 131.404 209.061 131.828 209.247 132.246C209.607 133.077 209.983 133.878 210.277 134.677C210.906 136.268 211.534 137.744 212.016 139.144C212.497 140.545 213.002 141.807 213.36 142.981L214.37 146.103L215.04 148.42C215.403 149.685 215.599 150.357 215.599 150.357C215.709 150.785 215.648 151.24 215.429 151.624C215.209 152.009 214.848 152.292 214.423 152.415C213.997 152.537 213.541 152.489 213.151 152.28C212.76 152.071 212.467 151.718 212.332 151.297V151.274L212.314 151.212C212.314 151.212 212.139 150.55 211.799 149.311L211.191 147.027C210.934 146.139 210.612 145.114 210.264 143.968C209.916 142.822 209.491 141.57 209.025 140.2C208.559 138.83 207.995 137.368 207.413 135.823C207.132 135.05 206.779 134.252 206.442 133.433C206.272 133.023 206.097 132.611 205.927 132.189C205.757 131.767 205.576 131.342 205.375 130.919L204.173 128.308C203.974 127.857 203.745 127.417 203.518 126.969C203.292 126.521 203.065 126.068 202.833 125.609C200.827 121.671 198.579 117.861 196.1 114.201C193.325 110.12 190.255 106.247 186.915 102.613C183.339 98.717 179.469 95.1011 175.339 91.7973C174.271 90.9707 173.22 90.108 172.112 89.3174L170.464 88.1071L168.774 86.9431L167.929 86.3586C167.646 86.1654 167.355 85.9826 167.069 85.7946L165.34 84.6744C164.761 84.3036 164.168 83.9559 163.581 83.5954C162.994 83.2349 162.412 82.8718 161.812 82.537L160.009 81.5069C159.414 81.1619 158.8 80.8503 158.205 80.5181C157 79.8537 155.766 79.2459 154.543 78.6227C152.078 77.4176 149.597 76.2639 147.086 75.2287C142.177 73.1778 137.156 71.4033 132.049 69.9135C127.072 68.4714 122.194 67.2997 117.524 66.4061C112.854 65.5125 108.406 64.843 104.279 64.364C100.153 63.885 96.3564 63.5915 92.9847 63.4266C89.613 63.2618 86.669 63.2 84.2426 63.2103C81.8162 63.2206 79.9127 63.2799 78.6171 63.3468C77.3215 63.4138 76.6209 63.4704 76.6209 63.4704Z" fill="#F2F5FF"/>
<path d="M222.396 47.6897C218.342 60.4136 194.763 87.1104 199.606 105.999C202.122 115.816 219.285 115.715 242.456 94.3801L222.396 47.6897Z" fill="#4F52FF"/>
<path d="M222.746 57.2899C218.692 70.0164 195.088 88.6092 199.93 107.506C202.449 117.325 219.287 122.828 242.459 101.49L222.746 57.2899Z" fill="#190E8E"/>
<path d="M266.743 114.364C266.743 114.364 276.593 116.939 279.266 119.573C276.964 121.394 277.662 128.991 278.236 131.7C278.811 134.409 287.061 182.173 285.085 210.533L265.854 137.362L266.743 114.364Z" fill="#FE7062"/>
<path d="M271.851 130.948C269.965 123.117 272.691 117.964 273.548 116.527C271.385 115.703 269.193 115.041 267.902 114.67L266.916 123.05C266.916 123.05 273.747 138.781 271.851 130.948Z" fill="#2E353D"/>
<path d="M222.386 118.891C224.016 114.796 232.946 112.968 235.612 113.3L234.489 132.143L222.383 124.232L222.386 118.891Z" fill="#2E353D"/>
<path d="M230.296 79.5833L230.098 80.5799C230.077 80.7189 230.008 80.961 229.943 81.1953C229.879 81.4297 229.802 81.6846 229.724 81.9679C229.646 82.238 229.55 82.5029 229.438 82.7611L229.098 83.5903C228.964 83.8709 228.818 84.1542 228.668 84.4504L228.439 84.8959C228.362 85.0478 228.264 85.1894 228.181 85.3388L227.628 86.2453C227.422 86.5414 227.205 86.8376 226.989 87.1388C226.881 87.2882 226.775 87.4427 226.659 87.5921C226.543 87.7414 226.42 87.8831 226.299 88.0298C226.041 88.3183 225.819 88.6221 225.554 88.9028L224.756 89.7423C224.624 89.8857 224.485 90.0215 224.338 90.1492L223.911 90.5432C223.354 91.0814 222.728 91.5398 222.144 92.0136C221.835 92.2351 221.523 92.4437 221.219 92.6549L220.768 92.9639L220.3 93.2394L219.398 93.7467C219.094 93.9064 218.788 94.0455 218.497 94.1897C217.951 94.4595 217.39 94.6976 216.817 94.903C216.339 95.0865 215.852 95.243 215.357 95.3717C215.138 95.4335 214.937 95.4979 214.746 95.5442L214.216 95.6472L213.216 95.8378L214.159 95.4592L214.648 95.2635C214.826 95.1837 215.009 95.0807 215.207 94.9828C215.654 94.767 216.089 94.5272 216.511 94.2644C217.012 93.9679 217.495 93.642 217.958 93.2883C218.216 93.1004 218.473 92.9175 218.713 92.7167L219.455 92.0651L219.833 91.7304L220.191 91.3647C220.431 91.1072 220.678 90.8754 220.915 90.6231C221.363 90.0848 221.842 89.5724 222.244 88.9904L222.556 88.5681C222.665 88.4316 222.765 88.2879 222.855 88.138L223.411 87.2676C223.594 86.9792 223.741 86.6727 223.906 86.3843C223.985 86.2401 224.065 86.0959 224.143 85.9517C224.22 85.8075 224.279 85.6555 224.349 85.5113C224.48 85.2203 224.606 84.9345 224.738 84.6564L225.047 83.822C225.093 83.6855 225.152 83.5645 225.188 83.4229C225.224 83.2812 225.263 83.1654 225.299 83.0289C225.371 82.7714 225.446 82.5138 225.508 82.2924C225.57 82.0709 225.595 81.8288 225.637 81.6125C225.683 81.4214 225.713 81.2267 225.727 81.0305C225.742 80.8589 225.755 80.7043 225.765 80.567C225.786 80.4237 225.796 80.2791 225.796 80.1344C225.796 79.488 225.796 79.1198 225.796 79.1198C225.819 78.5295 226.071 77.9713 226.498 77.563C226.925 77.1547 227.494 76.9283 228.084 76.9317C228.675 76.935 229.242 77.1678 229.664 77.5809C230.086 77.994 230.331 78.555 230.348 79.1455C230.344 79.2927 230.327 79.4393 230.296 79.5833Z" fill="#232A2B"/>
<path d="M227.952 78.3446C227.952 78.3446 229.183 90.4479 220.707 100.234C227.445 103.937 237.567 105.07 242.763 98.3151L227.952 78.3446Z" fill="#232A2B"/>
<path d="M232.519 69.764C232.519 69.764 227.64 58.8736 221.747 59.8496C207.598 62.1982 218.327 83.2477 226.448 84.8649C229.049 85.3799 230.868 83.3739 230.868 83.3739L232.519 69.764Z" fill="#E27960"/>
<path d="M228.22 71.559C226.087 68.3503 223.326 68.8756 222.811 71.1032C222.159 73.959 226.592 80.2785 230.111 77.827L228.22 71.559Z" fill="#CE5F49"/>
<path d="M227.347 70.7298C227.347 70.7298 211.717 40.3891 217.08 30.091C220.477 23.5681 225.294 27.4926 225.294 27.4926C225.294 27.4926 226.932 5.76588 251.075 6.53844C297.268 8.01659 285.257 67.8739 285.257 67.8739L227.347 70.7298Z" fill="#5B181B"/>
<path d="M231.118 85.125C234.273 97.509 230.062 127.414 233.871 139.204C266.782 158.947 276.657 139.204 276.657 139.204C276.657 139.204 269.324 127.86 268.595 110.856C267.894 94.5553 231.118 85.125 231.118 85.125Z" fill="#FFAD94"/>
<path d="M270.805 125.022C269.543 120.393 268.801 115.637 268.592 110.843C267.892 94.5553 231.339 85.6452 231.339 85.6452C235.257 99.613 248.504 123.495 270.805 125.022Z" fill="#CE5F49"/>
<path d="M229.253 79.7996C229.83 82.6787 233.959 92.521 237.683 96.4558C241.05 100.015 250.755 112.54 267.129 111.08C280.062 109.924 283.828 87.1749 284.583 78.3755C285.185 71.3608 286.934 48.6735 282.141 38.8595C277.347 29.0455 235.43 24.5441 235.43 24.5441C217.08 38.8646 229.253 79.7996 229.253 79.7996Z" fill="#FFAD94"/>
<path d="M241.872 43.6879C254.312 44.2905 263.25 60.684 285.374 58.8659C285.374 58.8659 285.518 46.0235 282.141 38.8646C278.687 31.5433 254.634 27.2325 242.474 25.4737L238.196 26.2462L241.872 43.6879Z" fill="#CE5F49"/>
<path d="M247.147 42.7866C242.173 51.6529 237.691 59.0102 229.979 65.5331L223.115 57.5372L238.031 40.2397L247.147 42.7866Z" fill="#2E353D"/>
<path d="M233.642 81.525L230.157 82.7096C230.487 83.598 230.888 84.5972 231.342 85.6452C232.565 84.919 233.583 82.331 233.642 81.525Z" fill="#CE5F49"/>
<path d="M244.002 41.6329C271.137 22.3526 280.639 66.7177 296.346 38.2466C289.07 41.3059 277.716 23.053 264.59 22.5869C251.464 22.1208 242.897 33.5597 244.002 41.6329Z" fill="#2E353D"/>
<path d="M256.332 32.5915L258.034 36.6036C273.948 36.7556 283.993 61.5519 296.352 38.2466C283.931 52.0083 270.043 25.0256 256.332 32.5915Z" fill="#232A2B"/>
<path d="M284.256 33.1246C283.395 28.3734 272.94 23.053 259.08 31.2473L256.131 25.0514C256.131 25.0514 274.934 19.2469 282.545 27.0497C283.949 28.4532 284.256 33.1246 284.256 33.1246Z" fill="#190E8E"/>
<path d="M277.914 12.6133C280.802 12.3017 283.344 13.6047 283.552 15.0108C283.975 17.8435 280.704 21.9638 275.923 22.5406C271.143 23.1174 277.914 12.6133 277.914 12.6133Z" fill="#2E353D"/>
<path d="M278.576 12.5695C278.993 13.1773 279.903 17.2049 278.148 20.6118H275.472L278.576 12.5695Z" fill="#232A2B"/>
<path d="M267.539 10.445C269.507 8.33591 274.215 5.67319 277.141 8.21746C279.552 10.3136 278.772 19.265 275.931 22.3371C273.09 25.4093 265.46 17.264 265.46 17.264L267.539 10.445Z" fill="#2E353D"/>
<path d="M222.314 16.337C222.44 13.2056 226.435 8.01148 233.093 11.9077L222.314 16.337Z" fill="#190E8E"/>
<path d="M267.616 10.2364C267.616 10.2364 262.493 -0.463459 256.043 0.015523C248.249 0.592362 245.568 5.6809 236.468 9.6647C226.35 14.1094 214.831 18.1422 212.943 25.8574C209.265 40.7677 220.003 50.3524 221.621 60.3956L226.417 63.3983C226.417 63.3983 240.365 39.5238 259.07 31.2472C253.532 17.2306 259.42 7.1436 267.616 10.2364Z" fill="#4F52FF"/>
<path d="M223.867 61.6626C223.743 61.6631 223.621 61.634 223.511 61.5776C223.421 61.5311 223.341 61.4672 223.275 61.3895C223.209 61.3119 223.16 61.222 223.129 61.1251C223.098 61.0282 223.086 60.9262 223.095 60.8249C223.104 60.7235 223.132 60.6249 223.179 60.5347C227.516 52.2188 233.256 44.7136 240.146 38.3496C246.4 32.5966 251.479 29.7794 253.936 29.115C254.035 29.0864 254.138 29.0777 254.24 29.0895C254.342 29.1012 254.441 29.1332 254.53 29.1834C254.62 29.2337 254.698 29.3012 254.761 29.3822C254.824 29.4631 254.871 29.5558 254.897 29.6548C254.924 29.7538 254.931 29.8572 254.918 29.9589C254.904 30.0606 254.87 30.1585 254.819 30.2471C254.767 30.3356 254.698 30.413 254.616 30.4746C254.534 30.5362 254.44 30.5809 254.341 30.606C249.581 31.8936 234.25 42.5445 224.552 61.2506C224.486 61.3752 224.388 61.4795 224.267 61.5521C224.146 61.6247 224.008 61.6629 223.867 61.6626Z" fill="#190E8E"/>
<path d="M222.659 63.2875C218.715 61.0034 216.477 63.1948 215.215 65C215.97 62.4248 217.917 59.8342 221.938 59.5381C227.895 59.0977 232.519 69.7641 232.519 69.7641L228.851 78.3446C227.174 72.056 226.121 66.3262 222.659 63.2875Z" fill="#FFAD94"/>
<path d="M226.448 84.865C223.128 84.2547 219.396 80.3172 217.08 75.7823C221.956 84.9783 228.928 81.4477 228.851 78.3575L233.642 81.5379C233.642 81.5379 230.703 85.6453 226.448 84.865Z" fill="#FFAD94"/>
<path d="M237.652 55.3895C237.652 55.3895 237.585 55.5388 237.457 55.8144L237.217 56.3294L236.774 57.2153C236.607 57.5629 236.419 57.8616 236.215 58.2119C236.012 58.5621 235.78 58.9226 235.527 59.3037C234.969 60.1423 234.367 60.9512 233.724 61.727C232.979 62.6152 232.188 63.4644 231.355 64.2712C230.922 64.7039 230.451 65.1133 229.982 65.5408L229.25 66.1614L228.877 66.473L228.49 66.7743C227.443 67.6011 226.355 68.3746 225.23 69.092C224.091 69.8285 222.891 70.4954 221.683 71.1212C220.475 71.747 219.223 72.2903 217.986 72.7822C216.75 73.2741 215.511 73.6887 214.293 74.0183C213.693 74.2037 213.085 74.3324 212.49 74.4818C211.895 74.6312 211.323 74.7393 210.759 74.8372C209.631 75.0329 208.562 75.1797 207.57 75.2569C207.076 75.3007 206.604 75.3393 206.151 75.3496C205.698 75.3599 205.275 75.3908 204.863 75.378C204.451 75.3651 204.09 75.378 203.745 75.378L202.797 75.329C202.511 75.329 202.259 75.293 202.025 75.2698L201.466 75.2106L200.999 75.1642L201.466 75.123L202.022 75.0715C202.243 75.0535 202.493 75.0303 202.774 74.9865L203.699 74.8578C204.034 74.8037 204.394 74.729 204.781 74.6595C205.167 74.59 205.569 74.4921 205.996 74.402C206.424 74.3118 206.864 74.1831 207.325 74.0543C208.245 73.7968 209.224 73.462 210.241 73.0758C210.756 72.88 211.271 72.6586 211.787 72.4345C212.302 72.2105 212.835 71.9659 213.355 71.6877C214.414 71.1727 215.46 70.5495 216.5 69.9057C217.541 69.2619 218.561 68.5306 219.527 67.7709C220.493 67.0112 221.435 66.2258 222.303 65.376C229.567 58.5492 231.759 55.8041 235.914 50.2108C236.692 50.6356 237.307 51.3064 237.663 52.1181C238.019 52.9298 238.096 53.8367 237.882 54.6967C237.825 54.9338 237.749 55.1656 237.652 55.3895Z" fill="#2E353D"/>
<path d="M252.579 19.3525C245.998 18.7757 247.52 26.1973 249.287 28.3141C251.799 31.3219 255.956 31.6979 259.075 31.2473C258.309 29.333 257.728 27.3496 257.342 25.3244L252.579 19.3525Z" fill="#190E8E"/>
<path d="M268.464 9.58484C269.597 10.1746 272.188 11.784 271.197 19.8109L266.349 20.3259L268.464 9.58484Z" fill="#232A2B"/>
<path d="M256.909 21.0752C255.147 14.148 258.555 9.48695 261.89 8.42598C266.321 7.02251 272.335 8.82256 269.149 19.9834L262.655 21.5645L256.909 21.0752Z" fill="#2E353D"/>
<path d="M255.343 22.1182C255.172 22.118 255.005 22.0609 254.87 21.9561C254.735 21.8512 254.639 21.7044 254.596 21.5388C252.793 14.5266 255.415 10.5505 257.141 8.80458C259.474 6.4483 262.885 5.3899 265.831 6.11353C266.022 6.17007 266.183 6.29767 266.282 6.46987C266.38 6.64207 266.409 6.84565 266.362 7.0384C266.314 7.23115 266.194 7.39828 266.027 7.50513C265.86 7.61197 265.658 7.65034 265.463 7.61227C263.031 7.01741 260.198 7.91099 258.251 9.8913C256.754 11.4055 254.488 14.8794 256.103 21.1525C256.153 21.3509 256.123 21.5614 256.019 21.7377C255.915 21.9139 255.745 22.0415 255.546 22.0925C255.48 22.1109 255.411 22.1195 255.343 22.1182Z" fill="#0B61DD"/>
<path d="M280.258 22.0796C274.519 15.8992 257.313 24.6058 252.579 19.3525C249.346 19.3525 248.715 27.078 255.235 28.6463C261.754 30.2146 267.995 25.7981 274.924 27.6162C283.988 29.9854 284.256 33.1348 284.256 33.1348C284.256 33.1348 283.738 25.8342 280.258 22.0796Z" fill="#4F52FF"/>
<path d="M277.955 42.7582C267.616 55.0444 256.878 31.6515 247.726 40.5719C255.915 18.8349 270.681 44.7488 277.955 42.7582Z" fill="#2E353D"/>
<path d="M249.04 37.1521C249.04 37.1521 249.777 37.7675 250.92 38.6843C255.541 37.4997 264.737 45.8948 270.195 46.3506C265.368 45.2999 262.841 33.3794 249.04 37.1521Z" fill="#232A2B"/>
<path d="M262.156 45.3747C259.083 42.1274 257.223 38.2543 253.416 37.3093C248.136 36.0011 242.284 39.0192 240.218 45.3747C247.675 41.4192 252.556 49.5104 262.156 45.3747Z" fill="#2E353D"/>
<path d="M255.716 24.5956C255.325 23.805 255.387 22.9732 255.858 22.7389C256.329 22.5046 257.03 22.9578 257.424 23.7509C257.818 24.5441 257.754 25.3733 257.282 25.6076C256.811 25.842 256.103 25.3887 255.716 24.5956Z" fill="#2E353D"/>
<path d="M267.335 23.3775C267.078 22.5895 267.335 21.7963 267.902 21.6058C268.469 21.4152 269.154 21.8968 269.417 22.6848C269.679 23.4728 269.417 24.2634 268.85 24.4539C268.283 24.6445 267.596 24.1629 267.335 23.3775Z" fill="#2E353D"/>
<path d="M279.514 24.3535C279.514 23.5294 279.241 22.8599 278.903 22.8599C278.566 22.8599 278.293 23.5294 278.293 24.3535C278.293 25.1775 278.566 25.8471 278.903 25.8471C279.241 25.8471 279.514 25.1775 279.514 24.3535Z" fill="#2E353D"/>
<path d="M230.152 51.5139C230.036 51.514 229.921 51.488 229.816 51.4376C229.711 51.3872 229.619 51.3138 229.547 51.2229C223.012 42.9823 220.585 29.1949 222.012 20.6144C222.589 17.1482 223.777 14.7507 225.446 13.6794C225.618 13.5688 225.828 13.5312 226.028 13.5749C226.228 13.6186 226.403 13.74 226.514 13.9125C226.624 14.0849 226.662 14.2943 226.618 14.4944C226.574 14.6946 226.453 14.8692 226.28 14.9799C224.993 15.7962 224.032 17.8873 223.537 20.8667C222.195 28.9373 224.568 42.4699 230.749 50.2624C230.839 50.3762 230.895 50.513 230.911 50.6572C230.927 50.8013 230.902 50.9471 230.839 51.0776C230.776 51.2082 230.677 51.3184 230.554 51.3955C230.431 51.4727 230.289 51.5137 230.144 51.5139H230.152Z" fill="#190E8E"/>
<path d="M290.283 130.633C290.283 130.633 275.086 128.084 274.96 132.06L271.039 149.775C271.006 149.517 270.97 149.26 270.931 149.018C269.056 136.657 261.239 128.455 261.239 128.455C252.579 132.552 226.255 123.778 226.255 123.778C216.119 132.191 197.476 135.624 195.245 142.598C193.522 147.99 201.45 158.564 207.176 165.285C204.477 179.289 198.094 214.301 194.04 251.945C194.04 251.945 274.048 287.32 308.437 226.193C303.084 179.242 294.775 132.397 290.283 130.633Z" fill="#E1473D"/>
<path d="M220.926 127.417C218.631 138.933 222.571 152.164 230.286 161.445C231.733 152.448 243.937 134.792 261.239 128.455C248.762 128.568 220.926 127.417 220.926 127.417Z" fill="#D83A21"/>
<path d="M222.386 118.783C222.386 129.258 252.059 122.202 261.239 128.455C261.239 128.455 236.983 137.195 229.936 150.8C224.65 145.508 217.907 129.925 222.386 118.783Z" fill="#FE7062"/>
<path d="M275.891 227.442C276.176 226.234 275.428 225.023 274.219 224.738C273.01 224.453 271.799 225.201 271.514 226.409C271.229 227.618 271.977 228.829 273.186 229.114C274.395 229.399 275.606 228.651 275.891 227.442Z" fill="#FCD738"/>
<path d="M270.195 145.397C270.195 145.397 269.208 123.251 273.543 116.54C273.543 126.029 278.21 143.852 278.21 143.852L270.195 145.397Z" fill="#FE7062"/>
<path d="M271.464 201.865C272.706 201.865 273.713 200.859 273.713 199.617C273.713 198.376 272.706 197.369 271.464 197.369C270.222 197.369 269.216 198.376 269.216 199.617C269.216 200.859 270.222 201.865 271.464 201.865Z" fill="#FCD738"/>
<path d="M271.179 172.629C271.378 171.403 270.546 170.248 269.32 170.049C268.094 169.85 266.939 170.683 266.74 171.908C266.541 173.134 267.373 174.289 268.599 174.487C269.825 174.686 270.98 173.854 271.179 172.629Z" fill="#FCD738"/>
<path d="M278.239 131.7C278.391 132.405 279.06 136.162 279.934 141.833C280.117 141.738 280.262 141.584 280.346 141.395C281.502 139.273 281.729 134.442 282.102 131.262C280.59 127.801 279.65 121.52 279.269 119.573C276.964 121.394 277.662 128.991 278.239 131.7Z" fill="#D83A21"/>
<path d="M290.283 130.634C298.116 130.968 309.444 133.144 317.449 137.718C322.457 140.576 350.754 165.144 350.754 165.144L298.368 189.685L290.283 130.634Z" fill="#E1473D"/>
<path d="M218.368 187.344C216.134 191.034 208.693 200.089 199.377 210.945C198.122 219.279 196.87 228.227 195.719 237.498C204.677 224.365 216.637 194.75 218.999 186.27L218.368 187.344Z" fill="#D83A21"/>
<path d="M280.915 96.2498C282.231 92.3652 283.209 88.3744 283.838 84.3216L253.993 76.5961L280.915 96.2498Z" fill="#CE5F49"/>
<path d="M254.117 194.258C254.117 194.258 247.041 198.435 238.706 197.961C237.145 197.874 226.742 205.19 224.222 206.882C219.586 209.987 217.922 222.992 217.922 222.992L218.46 228.972L240.202 210.52L242.06 204.786C242.06 204.786 249.151 204.013 252.193 202.298C255.235 200.583 257.429 195.857 254.117 194.258Z" fill="#CE5F49"/>
<path d="M320.169 121.783C320.169 111.031 358.713 103.226 361.827 110.112C367.628 122.941 341.953 127.906 341.953 127.906L322.495 127.945L320.169 121.783Z" fill="#2E353D"/>
<path d="M335.789 127.028C335.789 127.028 333.775 114.861 331.889 111.196C330.004 107.532 315.986 90.8264 316.352 81.5249L344.593 78.7334C344.593 78.7334 351.89 112.499 356.544 119.573C361.199 126.647 335.789 127.028 335.789 127.028Z" fill="#FFAD94"/>
<path d="M355.007 116.539C350.842 119.565 339.436 121.783 334.643 120.933C335.33 124.239 335.791 127.028 335.791 127.028C335.791 127.028 361.201 126.65 356.547 119.56C355.949 118.599 355.433 117.588 355.007 116.539Z" fill="#CE5F49"/>
<path d="M320.169 121.783L337.862 181.045L380.507 162.452L361.837 110.112C361.199 114.884 327.402 133.101 320.169 121.783Z" fill="#E1473D"/>
<path d="M257.718 231.212C253.049 231.19 248.39 230.768 243.793 229.953C243.599 229.911 243.428 229.796 243.316 229.631C243.205 229.466 243.161 229.265 243.194 229.069C243.227 228.872 243.335 228.697 243.494 228.578C243.654 228.459 243.853 228.406 244.051 228.431C261.602 231.464 275.593 229.036 286.831 221.009C310.438 204.147 316.574 165.839 321.988 132.042C326.241 105.492 329.914 82.5601 341.286 75.1307C341.456 75.038 341.655 75.0127 341.843 75.0599C342.031 75.1071 342.195 75.2233 342.301 75.3855C342.408 75.5476 342.449 75.7438 342.417 75.9352C342.386 76.1265 342.283 76.299 342.13 76.4183C331.33 83.4691 327.706 106.084 323.513 132.274C318.052 166.369 311.863 205.015 287.73 222.253C282.098 226.249 275.659 228.963 268.866 230.205C265.189 230.887 261.457 231.224 257.718 231.212Z" fill="#2E353D"/>
<path d="M283.862 303.33L234.489 277.982V140.128L283.862 165.476V303.33Z" fill="#CCE3FF"/>
<path d="M283.862 303.33L333.231 277.982V140.128L283.862 165.476V303.33Z" fill="white"/>
<path d="M382.603 303.33L333.231 277.982V140.128L382.603 165.476V303.33Z" fill="#CCE3FF"/>
<path d="M382.603 303.33L431.976 277.982V140.128L382.603 165.476V303.33Z" fill="url(#paint0_linear)"/>
<path d="M234.507 226.814C213.072 226.281 188.801 216.771 169.299 209.145C169.114 209.071 168.908 209.071 168.722 209.145C168.959 209.72 169.202 210.291 169.454 210.861C188.945 218.488 213.026 227.818 234.469 228.351H234.489C234.591 228.352 234.691 228.333 234.786 228.296C234.88 228.258 234.966 228.202 235.038 228.131C235.111 228.06 235.169 227.976 235.209 227.882C235.249 227.789 235.27 227.689 235.271 227.587C235.272 227.486 235.253 227.385 235.216 227.291C235.178 227.197 235.122 227.111 235.051 227.039C234.98 226.966 234.896 226.908 234.802 226.868C234.709 226.828 234.609 226.807 234.507 226.806V226.814Z" fill="#2E353D"/>
<path d="M208.649 231.403C222.108 228.972 222.128 269.345 213.206 275.595C194.019 289.038 187.706 239.999 187.706 239.999L208.649 231.403Z" fill="#2E353D"/>
<path d="M204.013 237.325C204.013 237.325 217.559 221.298 220.24 213.003C222.922 204.708 227.71 206.016 229.845 205.501C231.981 204.986 242.982 201.852 243.935 201.605C244.888 201.358 256.481 201.348 257.512 201.605C258.542 201.863 268.587 204.278 268.587 204.278C268.587 204.278 269.79 208.571 265.154 208.571C261.993 208.534 258.838 208.29 255.709 207.842L245.836 209.086L237.678 212.691L234.5 220.159L239.909 236.383C239.909 236.383 226.469 252.128 220.634 254.613C209.682 259.274 191.4 263.765 191.4 263.765L185.604 239.172L204.013 237.325Z" fill="#FFAD94"/>
<path d="M231.123 211.885C231.123 211.885 245.612 211.692 247.672 211.628C249.733 211.563 274.331 214.525 274.331 214.525C274.331 214.525 274.888 218.195 272.183 219.225C269.368 220.298 261.71 219.353 261.71 219.353L233.763 220.255L231.123 211.885Z" fill="#FFAD94"/>
<path d="M233.763 220.244L272.657 223.85C272.657 223.85 273.131 227.303 271.627 228.485C269.824 229.901 265.532 229.471 265.532 229.471L235.952 228.271L233.763 220.244Z" fill="#FFAD94"/>
<path d="M236.552 228.485L265.702 231.403C265.702 231.403 266.946 233.249 266.001 234.838C264.801 236.859 261.751 236.553 259.605 236.295C257.46 236.038 241.776 236.641 238.536 237.949C235.295 239.257 236.552 228.485 236.552 228.485Z" fill="#FFAD94"/>
<path d="M188.716 238.86C191.41 244.049 198.702 257.955 201.079 261.169L201.739 260.979C200.167 254.674 199.678 243.228 204 237.326L188.716 238.86Z" fill="#CE5F49"/>
<path d="M133.185 236.128C133.185 236.128 194.034 236.128 208.655 231.403C191.345 238.551 202.643 275.595 213.211 275.595C203.32 285.739 133.19 279.074 133.19 279.074C130.35 279.105 127.531 278.573 124.898 277.508C122.265 276.443 119.869 274.866 117.85 272.869C115.83 270.872 114.227 268.494 113.133 265.873C112.039 263.253 111.475 260.441 111.475 257.601C111.475 254.761 112.039 251.95 113.133 249.329C114.227 246.708 115.83 244.331 117.85 242.334C119.869 240.337 122.265 238.76 124.898 237.695C127.531 236.629 130.35 236.097 133.19 236.128H133.185Z" fill="#E1473D"/>
<path d="M299.854 82.318C303.185 78.6355 308.385 80.2579 310.673 82.318C316.156 87.2623 323.698 86.8941 328.615 89.119L325.251 98.4721C319.951 97.8257 314.065 95.7424 314.065 95.7424L299.854 82.318Z" fill="#FFAD94"/>
<path d="M299.973 53.4811C305.567 53.0176 305.998 48.2046 307.605 47.8776C317.042 45.9719 318.485 42.601 321.578 42.9847C329.888 44.0019 332.744 53.4065 332.744 53.4065L322.41 56.9216C322.41 56.9216 320.649 52.5155 319.726 52.415C317.722 52.2013 308.808 58.0804 303.996 57.3516C299.365 56.6641 299.973 53.4811 299.973 53.4811Z" fill="#E27960"/>
<path d="M306.487 53.8134C310.972 53.4426 311.314 49.585 312.602 49.3249C320.165 47.7952 321.318 45.0939 323.799 45.3978C330.457 46.2141 332.745 53.7491 332.745 53.7491L324.466 56.5689C324.466 56.5689 323.052 53.0383 322.315 52.9636C320.708 52.7885 313.558 57.4934 309.71 56.9165C306 56.3603 306.487 53.8134 306.487 53.8134Z" fill="#FFAD94"/>
<path d="M332.335 60.2178C332.135 60.2177 331.943 60.1402 331.799 60.0015C331.766 59.9694 331.735 59.934 331.709 59.8959C331.666 59.9273 331.62 59.9549 331.572 59.9783C331.48 60.0218 331.381 60.0468 331.279 60.0517C331.178 60.0566 331.076 60.0413 330.98 60.0069C330.884 59.9724 330.796 59.9194 330.721 59.8509C330.646 59.7824 330.585 59.6996 330.542 59.6075C323.827 45.3591 326.74 36.946 331.704 33.8172C335.173 31.6308 339.431 32.169 341.814 35.1047C343.684 37.3966 344.085 40.7959 342.949 44.6792C341.6 49.2888 338.215 54.4391 332.904 59.9886C332.83 60.0637 332.741 60.1227 332.643 60.1622C332.545 60.2016 332.44 60.2205 332.335 60.2178ZM336.198 34.0283C334.896 34.0395 333.624 34.419 332.528 35.1228C330.189 36.5958 328.682 39.3255 328.281 42.8097C327.765 47.1875 329.02 52.7086 331.871 58.8066C342.725 47.4527 343.511 39.6216 340.616 36.073C340.08 35.4236 339.405 34.9027 338.641 34.5488C337.877 34.1949 337.043 34.017 336.201 34.0283H336.198Z" fill="#2E353D"/>
<path d="M284.256 106.107C284.083 106.108 283.916 106.052 283.779 105.946C283.643 105.841 283.546 105.693 283.503 105.526C283.461 105.359 283.475 105.183 283.544 105.025C283.613 104.867 283.733 104.737 283.885 104.655C295.244 98.4746 305.521 98.3458 313.854 98.3458H314.959C326.583 98.3458 334.277 98.0883 338.156 82.1222C338.205 81.9231 338.33 81.7515 338.505 81.645C338.68 81.5385 338.891 81.5059 339.09 81.5544C339.289 81.6029 339.461 81.7285 339.567 81.9036C339.674 82.0786 339.706 82.2888 339.658 82.4879C335.498 99.6231 326.429 99.8806 314.931 99.8806H313.831C305.295 99.8806 295.646 100.009 284.632 106.002C284.518 106.069 284.388 106.105 284.256 106.107Z" fill="#2E353D"/>
<path d="M295.999 59.1336L310.085 55.5309V82.3179L294.906 76.5959L295.999 59.1336Z" fill="#2E353D"/>
<path d="M330.949 48.748H321.421V87.8675H330.949V48.748Z" fill="#0B61DD"/>
<path d="M321.421 87.8649C331.075 87.8649 338.901 79.1083 338.901 68.3065C338.901 57.5046 331.075 48.748 321.421 48.748C311.768 48.748 303.942 57.5046 303.942 68.3065C303.942 79.1083 311.768 87.8649 321.421 87.8649Z" fill="#4F52FF"/>
<path d="M330.947 87.8649C340.6 87.8649 348.426 79.1083 348.426 68.3065C348.426 57.5046 340.6 48.748 330.947 48.748C321.293 48.748 313.468 57.5046 313.468 68.3065C313.468 79.1083 321.293 87.8649 330.947 87.8649Z" fill="#84B8FF"/>
<path d="M331.585 83.6571C339.266 83.6571 345.492 76.6898 345.492 68.0953C345.492 59.5008 339.266 52.5335 331.585 52.5335C323.905 52.5335 317.679 59.5008 317.679 68.0953C317.679 76.6898 323.905 83.6571 331.585 83.6571Z" fill="#CCE3FF"/>
<path d="M257.478 77.4457C262.093 77.4457 265.834 73.2594 265.834 68.0953C265.834 62.9312 262.093 58.7448 257.478 58.7448C252.863 58.7448 249.122 62.9312 249.122 68.0953C249.122 73.2594 252.863 77.4457 257.478 77.4457Z" fill="#4F52FF"/>
<path d="M255.085 59.1336L269.172 55.5309V82.3179L253.993 76.5959L255.085 59.1336Z" fill="#4F52FF"/>
<path d="M261.584 69.7536C261.566 73.548 262.569 77.2774 264.487 80.5513L269.172 82.3179V55.5361L266.434 56.2365C263.428 59.7542 261.584 64.5054 261.584 69.7536Z" fill="#2E353D"/>
<path d="M290.036 48.748H280.508V87.8675H290.036V48.748Z" fill="#0B61DD"/>
<path d="M162.286 65.9837C149.175 65.9837 139.768 62.8497 133.592 56.4555C133.457 56.3067 133.385 56.1112 133.392 55.9104C133.399 55.7096 133.483 55.5194 133.628 55.38C133.773 55.2407 133.966 55.1632 134.167 55.164C134.368 55.1648 134.561 55.2438 134.704 55.3843C141.131 62.0462 151.364 64.9845 165.99 64.3665C179.01 63.8154 193.63 60.6119 207.766 57.5114C221.32 54.5422 234.124 51.7353 244.303 51.5498C249.828 51.4494 254.142 52.1241 257.494 53.61C261.259 55.289 263.83 58.0676 265.136 61.8686C265.204 62.0622 265.193 62.275 265.104 62.4602C265.015 62.6454 264.857 62.7878 264.663 62.8561C264.469 62.9244 264.257 62.913 264.071 62.8244C263.886 62.7358 263.744 62.5772 263.675 62.3836C261.429 55.8478 255.286 52.8992 244.331 53.1001C234.304 53.2829 221.575 56.0718 208.098 59.023C193.898 62.1261 179.216 65.345 166.054 65.9013C164.766 65.9545 163.51 65.982 162.286 65.9837Z" fill="#2E353D"/>
<path d="M262.733 62.2857C262.682 62.2856 262.631 62.2804 262.581 62.2702C250.253 59.8161 240.911 56.0898 234.814 51.197C229.758 47.1385 227.167 42.3281 227.517 37.6464C227.963 31.7055 232.988 27.1732 239.471 26.8667C244.638 26.6092 249.821 29.1252 254.06 33.9201C259.212 39.7478 262.833 48.5677 264.812 60.1354C264.828 60.2355 264.825 60.338 264.803 60.4369C264.78 60.5359 264.738 60.6294 264.679 60.7121C264.56 60.8792 264.38 60.9923 264.178 61.0264C263.976 61.0606 263.768 61.013 263.601 60.8942C263.434 60.7754 263.321 60.5951 263.287 60.3929C261.36 49.1137 257.865 40.5512 252.904 34.9399C248.981 30.5055 244.239 28.1852 239.543 28.4067C233.853 28.6771 229.444 32.6094 229.057 37.7571C228.478 45.5033 237.06 55.6108 262.882 60.756C263.07 60.7941 263.236 60.9002 263.35 61.0539C263.464 61.2076 263.516 61.398 263.498 61.5882C263.479 61.7785 263.391 61.9551 263.249 62.0839C263.108 62.2127 262.924 62.2846 262.733 62.2857Z" fill="#2E353D"/>
<path d="M331.585 52.5438C330.959 52.544 330.334 52.5914 329.715 52.6855C336.51 53.7155 341.749 60.223 341.749 68.1082C341.749 75.9934 336.51 82.506 329.715 83.5283C330.334 83.6224 330.959 83.6698 331.585 83.67C339.266 83.67 345.494 76.7015 345.494 68.1082C345.494 59.5148 339.266 52.5438 331.585 52.5438Z" fill="#190E8E"/>
<path d="M264.667 61.3922C264.572 61.3578 264.47 61.3425 264.369 61.3474C264.267 61.3522 264.168 61.3769 264.076 61.4202C263.984 61.4635 263.902 61.5245 263.833 61.5997C263.765 61.6748 263.712 61.7627 263.678 61.8583C239.839 128.221 191.152 190.972 139.64 221.728C128.355 228.464 117.828 231.938 108.349 232.052C100.568 232.142 93.6933 229.814 88.9951 225.487C83.1095 220.08 81.3065 212.05 84.503 205.538C89.2707 195.837 102.971 191.889 121.153 194.979C126.864 195.95 133.357 197.66 141.005 200.202C141.131 200.244 141.266 200.252 141.396 200.225C141.293 199.688 141.195 199.149 141.103 198.608C133.551 196.112 127.104 194.426 121.414 193.457C111.309 191.737 102.706 192.075 95.8389 194.457C89.8322 196.54 85.4354 200.135 83.1172 204.853C79.6142 211.983 81.5563 220.728 87.9494 226.618C92.8433 231.127 99.9112 233.594 107.899 233.594H108.367C118.122 233.478 128.912 229.93 140.43 223.051C165.248 208.236 190.078 185.454 212.24 157.204C234.974 128.21 253.264 95.4205 265.133 62.3785C265.202 62.1858 265.191 61.9739 265.104 61.789C265.017 61.6041 264.86 61.4614 264.667 61.3922Z" fill="#2E353D"/>
<path d="M324.165 65.5922C325.362 65.5922 326.333 64.6214 326.333 63.4239C326.333 62.2264 325.362 61.2556 324.165 61.2556C322.967 61.2556 321.996 62.2264 321.996 63.4239C321.996 64.6214 322.967 65.5922 324.165 65.5922Z" fill="white"/>
<path d="M340.289 72.0937C342.186 70.197 342.186 67.1219 340.289 65.2252C338.392 63.3285 335.316 63.3285 333.419 65.2252C331.522 67.1219 331.522 70.197 333.419 72.0937C335.316 73.9904 338.392 73.9904 340.289 72.0937Z" fill="white"/>
<path d="M280.508 87.8649C290.161 87.8649 297.987 79.1083 297.987 68.3065C297.987 57.5046 290.161 48.748 280.508 48.748C270.855 48.748 263.029 57.5046 263.029 68.3065C263.029 79.1083 270.855 87.8649 280.508 87.8649Z" fill="#4F52FF"/>
<path d="M290.033 87.8649C299.687 87.8649 307.512 79.1083 307.512 68.3065C307.512 57.5046 299.687 48.748 290.033 48.748C280.38 48.748 272.554 57.5046 272.554 68.3065C272.554 79.1083 280.38 87.8649 290.033 87.8649Z" fill="#84B8FF"/>
<path d="M290.672 83.6571C298.352 83.6571 304.578 76.6898 304.578 68.0953C304.578 59.5008 298.352 52.5335 290.672 52.5335C282.992 52.5335 276.765 59.5008 276.765 68.0953C276.765 76.6898 282.992 83.6571 290.672 83.6571Z" fill="#CCE3FF"/>
<path d="M290.672 52.5438C290.046 52.544 289.421 52.5914 288.802 52.6855C295.597 53.7155 300.836 60.223 300.836 68.1082C300.836 75.9934 295.597 82.506 288.802 83.5283C289.421 83.6224 290.046 83.6698 290.672 83.67C298.353 83.67 304.581 76.7015 304.581 68.1082C304.581 59.5148 298.353 52.5438 290.672 52.5438Z" fill="#190E8E"/>
<path d="M283.274 65.5922C284.472 65.5922 285.443 64.6214 285.443 63.4239C285.443 62.2264 284.472 61.2556 283.274 61.2556C282.077 61.2556 281.106 62.2264 281.106 63.4239C281.106 64.6214 282.077 65.5922 283.274 65.5922Z" fill="white"/>
<path d="M299.401 72.0945C301.298 70.1979 301.298 67.1227 299.401 65.226C297.504 63.3293 294.428 63.3293 292.531 65.226C290.633 67.1227 290.633 70.1979 292.531 72.0945C294.428 73.9912 297.504 73.9912 299.401 72.0945Z" fill="white"/>
<path d="M430.585 289.056C417.541 289.056 406.352 284.971 396.567 276.674C395.575 275.835 394.629 274.944 393.733 274.004C391.479 275.777 389.072 277.345 386.539 278.691C379.01 282.721 370.724 284.915 363.21 284.855C354.556 284.791 342.834 281.714 336.165 267.434C336.082 267.25 336.076 267.04 336.146 266.85C336.217 266.66 336.359 266.506 336.542 266.42C336.725 266.334 336.935 266.323 337.126 266.39C337.317 266.457 337.474 266.596 337.564 266.778C343.903 280.331 355.022 283.259 363.231 283.31H363.504C374.155 283.31 385.424 278.598 392.711 272.871C389.213 268.859 387.106 264.509 387.005 260.832C386.879 256.307 388.602 252.972 391.737 251.682C394.601 250.5 398.037 251.311 400.283 253.698C401.587 255.084 404.266 259.024 401.028 265.683C399.856 268.091 397.731 270.623 394.934 273.025C395.727 273.846 396.608 274.67 397.576 275.497C423.388 297.386 454.114 284.747 478.805 274.599C489.678 270.131 499.064 266.273 506.108 266.273C506.313 266.273 506.51 266.354 506.655 266.499C506.8 266.644 506.881 266.841 506.881 267.046C506.881 267.25 506.8 267.447 506.655 267.592C506.51 267.737 506.313 267.818 506.108 267.818C499.365 267.818 490.108 271.624 479.39 276.028C467.091 281.083 453.151 286.813 438.855 288.541C436.111 288.878 433.349 289.05 430.585 289.056ZM394.436 252.699C393.709 252.696 392.988 252.836 392.314 253.109C389.808 254.139 388.432 256.943 388.538 260.791C388.615 263.523 390.117 267.607 393.885 271.9C396.518 269.652 398.522 267.283 399.627 265.006C401.612 260.927 401.43 257.19 399.147 254.757C398.541 254.114 397.812 253.601 397.002 253.247C396.192 252.894 395.32 252.707 394.436 252.699Z" fill="#CCE3FF"/>
<path d="M55.4433 263.618C46.9742 263.618 39.2443 262.552 32.0476 260.404C19.9596 256.799 9.54323 250.227 0.211247 240.318C0.139651 240.244 0.0834124 240.157 0.045813 240.062C0.00821354 239.966 -0.00999721 239.864 -0.00774912 239.762C-0.00550103 239.659 0.0171551 239.558 0.0589009 239.464C0.100647 239.371 0.160647 239.286 0.235395 239.216C0.310143 239.146 0.398141 239.091 0.49426 239.055C0.590379 239.019 0.692693 239.003 0.795227 239.007C0.89776 239.011 0.99846 239.035 1.09145 239.079C1.18445 239.122 1.26787 239.183 1.33685 239.259C18.664 257.664 40.1587 264.648 68.9866 261.238C95.0816 258.148 124.793 246.818 156.251 234.815C186.838 223.144 218.466 211.077 252.327 203.913C291.03 195.716 325.715 195.672 358.363 203.758C358.464 203.78 358.559 203.823 358.643 203.882C358.727 203.942 358.799 204.018 358.853 204.106C358.907 204.193 358.944 204.291 358.959 204.393C358.975 204.495 358.971 204.599 358.946 204.699C358.921 204.799 358.876 204.893 358.814 204.976C358.752 205.058 358.674 205.128 358.585 205.18C358.496 205.232 358.398 205.265 358.295 205.279C358.193 205.292 358.089 205.284 357.99 205.257C285.299 187.231 217.034 213.286 156.802 236.267C125.254 248.306 95.4551 259.675 69.1669 262.791C64.6126 263.336 60.0301 263.612 55.4433 263.618Z" fill="#CCE3FF"/>
<path d="M363.496 284.855C361.431 284.861 359.369 284.682 357.335 284.322C347.849 282.615 340.523 276.775 336.155 267.434C336.072 267.25 336.065 267.04 336.136 266.85C336.206 266.66 336.348 266.506 336.532 266.42C336.715 266.334 336.925 266.323 337.116 266.39C337.307 266.457 337.464 266.596 337.553 266.778C346.741 286.419 367.396 285.661 382.292 279.046C382.479 278.963 382.692 278.957 382.884 279.031C383.075 279.104 383.23 279.251 383.313 279.439C383.396 279.626 383.402 279.839 383.328 280.03C383.254 280.222 383.108 280.376 382.92 280.46C376.401 283.354 369.694 284.855 363.496 284.855Z" fill="white"/>
</g>
<defs>
<linearGradient id="paint0_linear" x1="396.695" y1="228.673" x2="460.56" y2="186.792" gradientUnits="userSpaceOnUse">
<stop stop-color="white"/>
<stop offset="1" stop-color="#CCE3FF"/>
</linearGradient>
<clipPath id="clip0">
<rect width="515" height="331" fill="white"/>
</clipPath>
</defs>
</svg>
