<svg width="150" height="160" viewBox="0 0 150 160" fill="none" xmlns="http://www.w3.org/2000/svg">
  <path d="M108.405 159.492L0.474609 148.56C23.9643 102.63 27.2374 48.9681 9.50717 0.516602L118.015 4.00973C136.867 54.8988 133.385 111.25 108.405 159.492Z" fill="white"/>
  <path fill-rule="evenodd" clip-rule="evenodd" d="M56.9797 91.0028C54.1084 93.3818 50.9692 96.2466 49.2028 98.1901C48.349 99.1283 48.508 100.268 49.8893 99.3963C51.4129 98.4498 52.6016 98.7597 53.4889 99.7984C58.8549 105.981 78.9877 133.808 83.391 140.275C84.0942 141.314 85.5675 141.934 86.8734 140.418C88.1961 138.901 92.5324 133.063 92.5324 133.063C92.5324 133.063 69.4277 98.6424 63.4674 91.5305C60.5794 88.0876 58.9135 89.4112 56.9797 91.0028Z" fill="url(#paint0_linear)"/>
  <path fill-rule="evenodd" clip-rule="evenodd" d="M148.334 68.3344C151.281 65.436 150.009 63.702 146.911 66.3156C117.737 90.9434 81.4062 137.209 81.4062 137.209C81.4062 137.209 83.2228 140.132 83.9846 140.852C84.8971 141.732 86.3453 141.196 87.2829 139.948C94.9509 129.72 120.374 95.7852 148.334 68.3344Z" fill="url(#paint1_linear)"/>
  <path d="M128.68 42.6681C128.102 39.3676 127.558 36.0588 126.938 32.7583L124.645 22.9742L121.849 13.3158L118.517 3.83321C118.442 3.62379 118.241 3.49814 118.031 3.49814C113.519 3.26359 109.007 3.08767 104.495 2.91176C99.9747 2.72747 95.4543 2.55156 90.9338 2.41753L63.811 1.54634L36.6882 0.675155C32.1677 0.515995 27.6473 0.407097 23.1268 0.298198C18.6231 0.180923 14.111 0.0636476 9.60727 0.00500997C9.53193 -0.00336684 9.45659 -0.00336684 9.38125 0.0217636C9.11337 0.105532 8.97106 0.39872 9.05477 0.658401L9.06314 0.683531L12.0014 9.72211L14.5212 18.8863L16.5721 28.1678L18.1794 37.5331C20.0127 50.0648 20.5485 62.7892 19.7783 75.4381C19.0082 88.0788 16.9237 100.644 13.5836 112.866L10.8462 121.963L7.69026 130.926L4.07389 139.713L0.0556951 148.333L0.0473238 148.358C-0.0698734 148.61 0.0389526 148.903 0.281718 149.028C0.35706 149.062 0.432401 149.079 0.49937 149.079C4.96961 149.623 9.44822 150.101 13.9268 150.586C18.4222 151.072 22.9175 151.567 27.4129 152.011L54.3934 154.741L81.3739 157.472C85.8692 157.941 90.3729 158.369 94.8683 158.779C99.3636 159.206 103.851 159.633 108.346 159.994C108.555 160.027 108.773 159.927 108.873 159.726L113.352 150.729L117.312 141.489L120.786 132.049C121.799 128.849 122.744 125.632 123.724 122.432C127.307 109.507 129.534 96.2043 130.371 82.8181C131.216 69.4152 130.639 55.937 128.68 42.6681ZM128.964 82.7176C128.144 96.0116 125.926 109.213 122.368 122.038L119.463 131.588L116.106 140.995L112.264 150.218L108.145 158.938C103.775 158.41 99.3971 157.941 95.0273 157.464C90.532 156.97 86.0366 156.484 81.5413 156.04L54.5608 153.309L27.5803 150.578C23.085 150.109 18.5812 149.69 14.0859 149.271C9.8333 148.869 5.57234 148.467 1.31138 148.115L5.204 140.208L8.93757 131.395L12.2107 122.399C13.1567 119.349 14.0524 116.292 14.9732 113.234C18.3385 100.92 20.4313 88.263 21.2098 75.5219C21.9883 62.7808 21.4442 49.9559 19.6025 37.3237C19.0584 34.1824 18.5478 31.0327 17.9701 27.8914L15.8187 18.568L13.1902 9.37028L10.2937 1.05211C14.563 1.26991 18.8324 1.43744 23.1101 1.5966C27.6305 1.77252 32.151 1.95681 36.6715 2.09083L63.7943 2.96202L90.9171 3.83321C95.4375 3.99237 99.958 4.10965 104.478 4.21854C108.882 4.32744 113.285 4.44472 117.697 4.50336L120.719 13.6676L123.406 23.2925L125.582 33.0348L127.29 42.8691C129.215 56.0542 129.785 69.4236 128.964 82.7176ZM81.6417 60.6112C81.6166 60.452 81.4911 60.3264 81.332 60.3096C76.7697 59.8573 72.199 59.6227 67.6283 59.3296C63.2083 59.0447 58.7883 58.8018 54.3683 58.5505C54.2176 55.4008 54.0502 52.2428 53.7906 49.1015C53.7739 48.9172 53.6148 48.7664 53.4307 48.7748C53.4056 48.7748 53.3888 48.7832 53.3637 48.7915C53.347 48.7915 53.3302 48.7999 53.3135 48.7999C53.2884 48.8083 53.2716 48.8167 53.2549 48.8334C53.2381 48.8418 53.2214 48.8502 53.2047 48.8585C51.7146 50.0145 50.2496 51.204 48.793 52.4019C47.3281 53.5914 45.8631 54.7726 44.4149 55.9872L35.7172 63.2248L35.7004 63.2415C35.4911 63.4258 35.4744 63.7441 35.6669 63.9536L44.0298 73.2183C45.4194 74.768 46.8258 76.3093 48.2405 77.8339C49.6553 79.3669 51.0616 80.8998 52.5015 82.4077C52.5182 82.4244 52.535 82.4328 52.5601 82.4495C52.5768 82.4663 52.5936 82.4747 52.6103 82.483C52.6187 82.4914 52.627 82.4914 52.6354 82.4914C52.6605 82.4998 52.694 82.5166 52.7191 82.5166C52.9117 82.5417 53.0958 82.3993 53.1209 82.2066C53.4977 79.2161 53.7906 76.2088 54.0585 73.2015C58.4534 73.5366 62.8483 73.8801 67.2432 74.1816C71.8055 74.4999 76.3679 74.8602 80.9386 75.0277C81.0809 75.0361 81.2064 74.9523 81.2734 74.8266C81.2985 74.7848 81.3153 74.7429 81.3236 74.6926C81.5162 73.5282 81.6083 72.3639 81.6585 71.1911C81.7171 70.0184 81.7673 68.854 81.8008 67.6812C81.8175 66.5085 81.8259 65.3357 81.8175 64.163C81.8175 62.9902 81.784 61.8175 81.6417 60.6531C81.6669 60.6363 81.6501 60.628 81.6417 60.6112ZM53.64 72.1544C53.3637 72.1377 53.1209 72.3387 53.0958 72.6236V72.6319C52.8447 75.5052 52.627 78.3868 52.468 81.2684C51.3044 79.903 50.1157 78.5627 48.9353 77.214C47.5624 75.6476 46.1812 74.0895 44.7832 72.5482L36.7636 63.652L45.0594 56.7495C46.516 55.5516 47.9475 54.3202 49.379 53.0972C50.6263 52.0417 51.8653 50.9695 53.0875 49.8973C53.1293 52.9548 53.2381 55.9956 53.3721 59.0364V59.0531C53.3805 59.3128 53.5897 59.5222 53.8492 59.539C58.4199 59.8238 62.9906 60.1254 67.5613 60.3683C72.0148 60.6112 76.4683 60.9128 80.9302 61.0133C80.8548 62.0688 80.8297 63.1159 80.8214 64.1713C80.8046 65.3357 80.7879 66.5001 80.746 67.6645C80.7293 68.8288 80.6958 69.9932 80.6539 71.1576C80.6121 72.1963 80.587 73.2351 80.6121 74.2822C76.1921 73.7963 71.7553 73.5031 67.3269 73.1513C62.773 72.7911 58.2023 72.4811 53.64 72.1544ZM97.7313 26.0317C96.0821 24.6915 94.4246 23.3679 92.7504 22.0611C91.0845 20.746 89.4186 19.4224 87.7276 18.1492C87.7193 18.1408 87.7109 18.1408 87.7025 18.1324C87.6858 18.124 87.669 18.1157 87.6523 18.1073C87.6272 18.0989 87.6104 18.0905 87.5853 18.0822C87.5518 18.0738 87.5267 18.0738 87.4932 18.0738C87.4849 18.0738 87.4765 18.0738 87.4681 18.0738C87.4598 18.0738 87.443 18.0738 87.4346 18.0738C87.4095 18.0822 87.3844 18.0989 87.3593 18.1073H87.3509C87.2086 18.1827 87.1249 18.3335 87.1584 18.4926V18.5094C87.4681 20.0088 87.8113 21.4999 88.1629 22.991C88.4559 24.2642 88.7573 25.5375 89.067 26.8108L75.2294 26.1742L67.9799 25.8475C65.5606 25.7804 63.1413 25.6632 60.722 25.6548C60.5546 25.6548 60.4207 25.7721 60.3788 25.9312C60.3704 25.948 60.3704 25.9564 60.3704 25.9731C60.3704 25.9815 60.3704 25.9815 60.3704 25.9899C60.3704 25.9982 60.3704 25.9982 60.3704 25.9982C60.3621 26.0317 60.3621 26.0569 60.3621 26.0904C60.4709 27.171 60.6634 28.2348 60.8643 29.2987L61.4252 32.4903L61.9777 35.6818C62.1535 36.7457 62.3293 37.8179 62.5972 38.8734C62.5972 38.8901 62.6139 38.8985 62.6223 38.9153C62.6558 39.0577 62.773 39.1666 62.932 39.1833C65.3597 39.4346 67.7873 39.5687 70.215 39.7613L77.5064 40.1969L91.6705 41.043C91.8212 42.3665 92.0053 43.6817 92.1728 45.0052C92.3569 46.4628 92.5578 47.912 92.7839 49.3695V49.3863C92.809 49.5622 92.968 49.6879 93.1438 49.6879C93.1522 49.6879 93.1606 49.6879 93.1689 49.6879C93.194 49.6879 93.2108 49.6711 93.2359 49.6711C93.2526 49.6627 93.2778 49.6627 93.2945 49.6543C93.3112 49.646 93.3196 49.6376 93.3364 49.6292C93.3615 49.6125 93.3782 49.6041 93.4033 49.5873C94.6255 48.3811 95.831 47.1581 97.0197 45.9267C98.2168 44.6953 99.4306 43.4806 100.603 42.2325L107.701 34.7688L107.727 34.7353C107.902 34.5175 107.869 34.1991 107.651 34.0316L97.7313 26.0317ZM99.8659 41.5288C98.6772 42.7686 97.522 44.0419 96.35 45.29C95.3622 46.3455 94.3828 47.4177 93.4201 48.49C93.3196 47.2921 93.2024 46.0942 93.0769 44.8963C92.9178 43.4304 92.7922 41.9561 92.6081 40.4985C92.5829 40.2639 92.3904 40.0797 92.1476 40.0713H92.1393L77.5566 39.2001L70.2652 38.7645C67.938 38.6724 65.6108 38.5299 63.2836 38.4797C63.2418 37.4912 63.1246 36.5111 62.9823 35.531L62.48 32.306L61.8605 29.106C61.6763 28.2013 61.4671 27.2966 61.1992 26.4087C63.4427 26.593 65.6945 26.7019 67.9464 26.8443L75.1959 27.1794L89.6949 27.8495H89.7032C89.7451 27.8495 89.7953 27.8495 89.8372 27.8328C90.1051 27.7657 90.2641 27.4977 90.2055 27.238C89.8456 25.7469 89.4521 24.2559 89.0587 22.7732C88.7657 21.6591 88.4727 20.5533 88.1629 19.4476C89.4856 20.5701 90.825 21.6758 92.1644 22.7899C93.7968 24.147 95.4459 25.4873 97.1034 26.8192L106.588 34.4756L99.8659 41.5288Z" fill="black"/>
  <defs>
    <linearGradient id="paint0_linear" x1="53.1595" y1="91.5012" x2="85.8303" y2="135.38" gradientUnits="userSpaceOnUse">
      <stop stop-color="#80DFAD"/>
      <stop offset="0.17" stop-color="#AEF8BC"/>
      <stop offset="1" stop-color="#90E7A0"/>
    </linearGradient>
    <linearGradient id="paint1_linear" x1="146.482" y1="67.095" x2="83.4631" y2="138.809" gradientUnits="userSpaceOnUse">
      <stop stop-color="#DEFFE4"/>
      <stop offset="0.8" stop-color="#A0ECAD"/>
      <stop offset="1" stop-color="#5AD08A"/>
    </linearGradient>
  </defs>
</svg>
