<svg width="288" height="239" viewBox="0 0 288 239" fill="none" xmlns="http://www.w3.org/2000/svg">
<g clip-path="url(#clip0)">
<path d="M96.762 43.7819C96.762 43.7819 96.005 13.4515 122.399 13.7795C148.818 14.1076 161.334 -0.19975 177.509 0.00211635C193.683 0.203983 218.008 11.3823 218.942 23.4186C219.901 35.4549 96.762 43.7819 96.762 43.7819Z" fill="#EBF5FF"/>
<path d="M79.3086 93.6872C79.3086 93.6872 82.8413 31.815 102.7 32.3702C122.533 32.8748 117.865 -5.02564 154.201 1.15652C169.921 3.83126 168.256 17.2554 198.662 8.70129C229.068 0.147191 254.605 9.28998 265.104 44.8438C308.992 162.844 273.492 239.344 273.492 239.344H77.9922L79.3086 93.6872Z" fill="#DCE7F9"/>
<path d="M25.377 141.263L185.47 235.273C188.17 236.837 192.888 236.635 195.992 234.844L269.544 189.75C274.544 186.75 275.303 182.895 269.544 179.25L251.493 166.092L116.924 88.3989C114.224 86.8344 109.505 87.0363 106.401 88.8278L26.134 135.181C23.0051 136.998 22.6771 139.698 25.377 141.263Z" fill="#9ABEDB"/>
<path d="M263.992 174.344H273.492V184.474L268.492 186.844L263.992 174.344Z" fill="#9ABEDB"/>
<path d="M79.1973 108.656C79.1973 108.656 82.7299 60.4858 102.589 60.8895C122.422 61.2933 116.517 21.4246 152.853 26.2441C168.574 28.3133 178.793 40.2739 198.551 42.4692C229.487 45.9261 247.989 82.7622 251.49 108.303C254.992 133.844 258.492 167.344 258.492 167.344L79.1973 108.656Z" fill="#B4C8F4"/>
<path d="M127.57 90.3614C127.57 90.3614 108.721 65.2038 110.235 47.3891C111.749 29.5743 111.774 15.4941 111.774 15.4941C111.774 15.4941 132.138 25.2847 133.248 45.2442C134.358 65.2038 141.322 97.4772 141.322 97.4772L127.57 90.3614Z" fill="#436BD1"/>
<path d="M110.893 38.76L111.069 35.9844C111.069 35.9844 118.362 38.2049 121.667 43.7815C124.973 49.358 130.12 65.6588 131.382 67.8793C132.618 70.0998 130.221 78.9063 130.221 78.9063L121.339 70.6297L110.893 38.76Z" fill="#335CBD"/>
<path d="M67.1367 204.215C67.9946 206.057 64.5629 197.352 65.9255 198.841C68.7516 201.97 75.5394 213.022 79.5515 214.309C84.3963 215.848 80.4094 212.568 80.4094 212.568C80.4094 212.568 120.808 189 119.95 187.814C113.314 178.705 107.005 175.853 94.2625 180.799C79.7281 186.476 63.0489 195.434 67.1367 204.215Z" fill="#35519C"/>
<path d="M98.3763 223.946C105.946 218.496 113.491 212.869 121.566 208.15C122.146 207.822 122.726 207.494 123.307 207.166C123.282 207.872 123.256 208.579 123.231 209.285C122.979 214.66 123.155 220.06 123.206 225.435C123.231 227.857 116.141 236.921 116.141 239.344H141.904C141.904 231.042 141.752 216.073 141.979 207.771C142.156 201.564 141.576 194.65 136.832 190.108C130.877 184.405 122.651 186.676 116.141 189.856C106.426 194.574 97.6698 201.564 88.9643 207.847C84.8765 210.799 82.883 215.998 85.6082 220.64C87.9297 224.627 94.2633 226.924 98.3763 223.946ZM125.704 205.904C125.855 205.829 125.982 205.778 126.133 205.702C126.158 205.702 126.209 205.677 126.234 205.677C125.906 205.98 125.654 206.005 125.704 205.904Z" fill="#3A5EBA"/>
<path d="M57.3223 219.557C57.3223 219.557 80.865 247.743 104.08 218.548C127.294 189.353 65.5988 212.719 65.5988 212.719L57.3223 219.557Z" fill="#3A5EBA"/>
<path d="M24.7459 221.02L24.0141 220.969C22.7777 220.868 21.844 219.758 21.945 218.521L29.5402 130.407C29.6411 129.17 30.7514 128.237 31.9878 128.338L32.7196 128.388C33.956 128.489 34.8897 129.599 34.7887 130.836L27.1935 218.95C27.0926 220.187 26.0075 221.121 24.7459 221.02Z" fill="#35519C"/>
<path d="M137.084 92.3049C137.084 92.3049 112.053 80.4452 105.568 64.8006C98.7295 48.2727 93.2539 31.2402 93.2539 31.2402C93.2539 31.2402 115.56 34.7981 122.348 53.597C129.136 72.3958 145.033 101.338 145.033 101.338L137.084 92.3049Z" fill="#5079DE"/>
<path d="M25.3761 139.794L173.764 228.178L183.492 233.844C187.183 235.511 192.64 235.609 195.992 233.844L205.835 228.178L238.492 207.344L251.492 164.598L116.923 86.9301C114.223 85.3657 109.504 85.5675 106.4 87.3591L34.3591 128.969H23.5845V136.741C23.4079 137.851 23.963 138.986 25.3761 139.794Z" fill="#9ABEDB"/>
<path d="M25.377 132.022L185.418 224.366C188.118 225.931 192.837 225.729 195.94 223.937L269.492 178.844C274.492 175.844 275.251 171.988 269.492 168.344L251.493 156.852L116.924 79.1586C114.224 77.5942 109.505 77.796 106.401 79.5876L26.134 125.941C23.0051 127.758 22.6771 130.458 25.377 132.022Z" fill="#EBF5FF"/>
<path d="M18.9089 239.344L26.5899 205.547C26.716 204.689 19.4236 203.478 18.5909 203.351C17.733 203.225 12.1564 204.689 12.0302 205.547L8.99219 239.344H18.9089Z" fill="#35519C"/>
<path d="M175.818 153.293L114.147 117.689C113.794 117.487 113.365 117.487 113.012 117.689L94.2888 128.741C93.5318 129.17 93.557 130.255 94.2888 130.684L155.732 166.162C156.085 166.364 156.514 166.364 156.867 166.162L175.792 155.236C176.549 154.807 176.549 153.722 175.818 153.293Z" fill="#A8C4E5"/>
<path d="M156.917 163.74L95.474 128.262C94.717 127.833 94.717 126.748 95.474 126.319L114.197 115.267C114.55 115.065 114.979 115.065 115.333 115.267L176.978 150.871C177.735 151.3 177.735 152.385 176.978 152.839L158.053 163.765C157.699 163.942 157.27 163.942 156.917 163.74Z" fill="white"/>
<path d="M117.226 120.792C117.125 120.843 116.924 120.818 116.772 120.742L112.634 118.345C112.483 118.269 112.432 118.143 112.533 118.093L115.283 116.503C115.384 116.452 115.586 116.478 115.738 116.553L119.876 118.95C120.027 119.026 120.078 119.152 119.977 119.203L117.226 120.792Z" fill="#A8C4E5"/>
<path d="M122.045 127.933C121.944 127.984 121.742 127.958 121.591 127.883L117.453 125.485C117.301 125.41 117.276 125.284 117.352 125.233L120.102 123.643C120.203 123.593 120.405 123.618 120.557 123.694L124.695 126.091C124.846 126.167 124.897 126.293 124.796 126.343L122.045 127.933Z" fill="#A8C4E5"/>
<path d="M119.623 130.912C119.522 130.962 119.32 130.937 119.169 130.861L115.03 128.464C114.879 128.388 114.829 128.262 114.929 128.212L117.68 126.622C117.781 126.571 117.983 126.597 118.134 126.672L122.272 129.07C122.424 129.145 122.474 129.271 122.373 129.322L119.623 130.912Z" fill="#A8C4E5"/>
<path d="M113.036 131.466C112.935 131.517 112.733 131.492 112.581 131.416L108.443 129.019C108.292 128.943 108.266 128.817 108.342 128.766L111.093 127.177C111.193 127.126 111.395 127.151 111.547 127.227L115.685 129.624C115.836 129.7 115.862 129.826 115.786 129.877L113.036 131.466Z" fill="#A8C4E5"/>
<path d="M108.772 133.939C108.671 133.99 108.444 133.939 108.242 133.838L102.817 130.709C102.615 130.608 102.539 130.457 102.64 130.407L105.87 128.539C105.971 128.489 106.198 128.539 106.4 128.64L111.825 131.769C112.027 131.895 112.103 132.022 112.002 132.072L108.772 133.939Z" fill="#A8C4E5"/>
<path d="M144.451 154.555C144.375 154.605 144.173 154.58 144.022 154.479L139.884 152.082C139.732 152.006 139.682 151.88 139.757 151.83L140.943 151.148C141.019 151.098 141.221 151.123 141.372 151.224L145.511 153.621C145.662 153.697 145.713 153.823 145.637 153.873L144.451 154.555Z" fill="#A8C4E5"/>
<path d="M149.978 157.836C149.902 157.886 149.701 157.861 149.549 157.76L145.411 155.363C145.26 155.287 145.209 155.161 145.285 155.111L146.471 154.43C146.546 154.379 146.748 154.404 146.9 154.505L151.038 156.902C151.189 156.978 151.24 157.104 151.164 157.155L149.978 157.836Z" fill="#A8C4E5"/>
<path d="M155.857 161.14C155.782 161.19 155.58 161.14 155.454 161.064L151.315 158.667C151.164 158.591 151.113 158.465 151.189 158.415L152.35 157.759C152.426 157.708 152.627 157.759 152.779 157.834L156.917 160.231C157.068 160.307 157.119 160.433 157.043 160.484L155.857 161.14Z" fill="#A8C4E5"/>
<path d="M152.25 156.573C152.174 156.624 151.972 156.573 151.846 156.498L147.708 154.101C147.556 154.025 147.506 153.899 147.582 153.848L148.742 153.192C148.818 153.142 149.02 153.192 149.171 153.268L153.31 155.665C153.461 155.741 153.512 155.867 153.436 155.917L152.25 156.573Z" fill="#A8C4E5"/>
<path d="M137.285 150.392C137.184 150.443 136.982 150.417 136.831 150.342L109.857 134.773C109.705 134.697 109.655 134.571 109.756 134.52L112.985 132.653C113.086 132.603 113.288 132.628 113.44 132.704L140.414 148.273C140.566 148.348 140.616 148.475 140.515 148.525L137.285 150.392Z" fill="#A8C4E5"/>
<path d="M134.535 148.02C134.535 148.02 134.434 147.97 134.308 147.894L112.835 135.53C112.709 135.454 112.633 135.404 112.633 135.404L112.835 135.277C112.835 135.277 112.936 135.328 113.062 135.404L134.535 147.793C134.662 147.869 134.737 147.919 134.737 147.919L134.535 148.02Z" fill="#A8C4E5"/>
<path d="M118.713 134.746C118.612 134.796 118.41 134.771 118.259 134.695L114.12 132.298C113.969 132.222 113.918 132.096 114.019 132.046L116.77 130.456C116.871 130.405 117.073 130.431 117.224 130.506L121.362 132.904C121.514 132.979 121.564 133.105 121.463 133.156L118.713 134.746Z" fill="#A8C4E5"/>
<path d="M124.416 138.052C124.315 138.103 124.113 138.077 123.962 138.002L119.823 135.605C119.672 135.529 119.621 135.403 119.722 135.352L122.473 133.763C122.574 133.712 122.776 133.737 122.927 133.813L127.065 136.21C127.217 136.286 127.242 136.412 127.166 136.463L124.416 138.052Z" fill="#A8C4E5"/>
<path d="M130.119 141.333C130.019 141.384 129.817 141.359 129.665 141.283L125.527 138.886C125.376 138.81 125.35 138.684 125.426 138.634L128.177 137.044C128.277 136.993 128.479 137.019 128.631 137.094L132.769 139.491C132.92 139.567 132.946 139.693 132.87 139.744L130.119 141.333Z" fill="#A8C4E5"/>
<path d="M135.847 144.638C135.747 144.689 135.545 144.663 135.393 144.588L131.255 142.191C131.104 142.115 131.053 141.989 131.154 141.938L133.905 140.349C134.005 140.298 134.207 140.323 134.359 140.399L138.497 142.796C138.648 142.872 138.674 142.998 138.598 143.048L135.847 144.638Z" fill="#A8C4E5"/>
<path d="M141.551 147.919C141.45 147.97 141.248 147.945 141.097 147.869L136.959 145.472C136.807 145.396 136.782 145.27 136.858 145.219L139.608 143.63C139.709 143.579 139.911 143.605 140.062 143.68L144.201 146.077C144.352 146.153 144.403 146.279 144.302 146.33L141.551 147.919Z" fill="#A8C4E5"/>
<path d="M147.254 151.224C147.153 151.275 146.951 151.249 146.8 151.174L142.661 148.776C142.51 148.701 142.459 148.575 142.56 148.524L145.311 146.934C145.412 146.884 145.614 146.909 145.765 146.985L149.903 149.382C150.055 149.458 150.105 149.584 150.004 149.634L147.254 151.224Z" fill="#A8C4E5"/>
<path d="M160.121 158.642C160.02 158.692 159.818 158.667 159.667 158.591L148.362 152.081C148.211 152.005 148.161 151.879 148.261 151.829L151.012 150.239C151.113 150.189 151.315 150.214 151.466 150.29L162.771 156.8C162.922 156.876 162.947 157.002 162.872 157.052L160.121 158.642Z" fill="#A8C4E5"/>
<path d="M125.301 134.167C125.2 134.218 124.998 134.193 124.846 134.117L120.708 131.72C120.557 131.644 120.506 131.518 120.607 131.468L123.358 129.878C123.459 129.827 123.66 129.853 123.812 129.928L127.95 132.325C128.102 132.401 128.127 132.527 128.051 132.578L125.301 134.167Z" fill="#A8C4E5"/>
<path d="M131.004 137.472C130.903 137.523 130.701 137.497 130.55 137.422L126.411 135.025C126.26 134.949 126.209 134.823 126.31 134.772L129.061 133.183C129.162 133.132 129.364 133.157 129.515 133.233L133.653 135.63C133.805 135.706 133.83 135.832 133.754 135.882L131.004 137.472Z" fill="#A8C4E5"/>
<path d="M136.705 140.753C136.604 140.804 136.402 140.779 136.251 140.703L132.112 138.306C131.961 138.23 131.911 138.104 132.011 138.053L134.762 136.464C134.863 136.413 135.065 136.439 135.216 136.514L139.354 138.911C139.506 138.987 139.556 139.113 139.455 139.164L136.705 140.753Z" fill="#A8C4E5"/>
<path d="M142.408 144.058C142.307 144.109 142.105 144.083 141.954 144.008L137.816 141.61C137.664 141.535 137.614 141.409 137.715 141.358L140.465 139.768C140.566 139.718 140.768 139.743 140.919 139.819L145.058 142.216C145.209 142.292 145.234 142.418 145.158 142.468L142.408 144.058Z" fill="#A8C4E5"/>
<path d="M148.137 147.337C148.036 147.388 147.834 147.363 147.682 147.287L143.544 144.89C143.393 144.814 143.342 144.688 143.443 144.637L146.194 143.048C146.294 142.997 146.496 143.023 146.648 143.098L150.786 145.495C150.937 145.571 150.963 145.697 150.887 145.748L148.137 147.337Z" fill="#A8C4E5"/>
<path d="M153.84 150.644C153.739 150.695 153.537 150.669 153.385 150.594L149.247 148.196C149.096 148.121 149.045 147.995 149.146 147.944L151.897 146.354C151.998 146.304 152.199 146.329 152.351 146.405L156.489 148.802C156.641 148.878 156.666 149.004 156.59 149.054L153.84 150.644Z" fill="#A8C4E5"/>
<path d="M159.543 153.923C159.442 153.974 159.241 153.949 159.089 153.873L154.951 151.476C154.799 151.4 154.774 151.274 154.85 151.223L157.6 149.634C157.701 149.583 157.903 149.608 158.055 149.684L162.193 152.081C162.344 152.157 162.369 152.283 162.294 152.334L159.543 153.923Z" fill="#A8C4E5"/>
<path d="M127.723 131.214C127.622 131.265 127.42 131.24 127.269 131.164L123.13 128.767C122.979 128.691 122.954 128.565 123.055 128.514L125.805 126.925C125.906 126.874 126.108 126.899 126.259 126.975L130.398 129.372C130.549 129.448 130.599 129.574 130.499 129.625L127.723 131.214Z" fill="#A8C4E5"/>
<path d="M133.426 134.494C133.325 134.544 133.123 134.519 132.971 134.443L128.833 132.046C128.682 131.97 128.631 131.844 128.732 131.794L131.483 130.204C131.584 130.154 131.785 130.179 131.937 130.254L136.075 132.652C136.226 132.727 136.252 132.853 136.176 132.904L133.426 134.494Z" fill="#A8C4E5"/>
<path d="M139.127 137.8C139.026 137.851 138.825 137.826 138.673 137.75L134.535 135.353C134.383 135.277 134.358 135.151 134.434 135.1L137.184 133.511C137.285 133.46 137.487 133.485 137.639 133.561L141.777 135.958C141.928 136.034 141.979 136.16 141.878 136.211L139.127 137.8Z" fill="#A8C4E5"/>
<path d="M144.855 141.08C144.754 141.13 144.552 141.105 144.401 141.029L140.263 138.632C140.111 138.556 140.061 138.43 140.162 138.38L142.912 136.79C143.013 136.739 143.215 136.765 143.367 136.84L147.505 139.238C147.656 139.313 147.681 139.439 147.606 139.49L144.855 141.08Z" fill="#A8C4E5"/>
<path d="M150.558 144.386C150.457 144.437 150.256 144.411 150.104 144.336L145.966 141.939C145.815 141.863 145.764 141.737 145.865 141.686L148.615 140.097C148.716 140.046 148.918 140.071 149.07 140.147L153.208 142.544C153.359 142.62 153.385 142.746 153.309 142.797L150.558 144.386Z" fill="#A8C4E5"/>
<path d="M156.262 147.667C156.161 147.718 155.959 147.693 155.808 147.617L151.67 145.22C151.518 145.144 151.493 145.018 151.569 144.968L154.319 143.378C154.42 143.327 154.622 143.353 154.773 143.428L158.912 145.825C159.063 145.901 159.113 146.027 159.013 146.078L156.262 147.667Z" fill="#A8C4E5"/>
<path d="M161.965 150.972C161.864 151.023 161.662 150.997 161.51 150.922L157.372 148.525C157.221 148.449 157.17 148.323 157.271 148.272L160.022 146.683C160.123 146.632 160.325 146.657 160.476 146.733L164.614 149.13C164.766 149.206 164.791 149.332 164.715 149.382L161.965 150.972Z" fill="#A8C4E5"/>
<path d="M116.343 124.653C116.242 124.704 116.04 124.678 115.889 124.603L108.849 120.54C108.697 120.464 108.647 120.338 108.748 120.288L111.498 118.698C111.599 118.648 111.801 118.673 111.952 118.749L118.993 122.811C119.144 122.887 119.194 123.013 119.093 123.063L116.343 124.653Z" fill="#A8C4E5"/>
<path d="M171.451 152.083C171.35 152.133 171.148 152.108 170.996 152.032L163.956 147.97C163.805 147.894 163.754 147.768 163.855 147.718L166.606 146.128C166.707 146.077 166.908 146.103 167.06 146.178L174.1 150.241C174.251 150.317 174.302 150.443 174.201 150.493L171.451 152.083Z" fill="#A8C4E5"/>
<path d="M113.895 127.605C113.794 127.656 113.592 127.631 113.441 127.555L105.064 122.71C104.912 122.634 104.862 122.508 104.963 122.458L107.713 120.868C107.814 120.818 108.016 120.843 108.167 120.919L116.545 125.763C116.696 125.839 116.747 125.965 116.646 126.016L113.895 127.605Z" fill="#A8C4E5"/>
<path d="M107.333 128.186C107.232 128.236 107.03 128.211 106.878 128.135L101.302 124.905C101.15 124.83 101.1 124.704 101.201 124.653L103.951 123.063C104.052 123.013 104.254 123.038 104.406 123.114L109.982 126.344C110.134 126.419 110.184 126.546 110.083 126.596L107.333 128.186Z" fill="#A8C4E5"/>
<path d="M122.953 124.099C122.852 124.15 122.65 124.124 122.499 124.049L118.36 121.651C118.209 121.576 118.159 121.45 118.26 121.399L121.01 119.809C121.111 119.759 121.313 119.784 121.464 119.86L125.602 122.257C125.754 122.333 125.804 122.459 125.703 122.509L122.953 124.099Z" fill="#A8C4E5"/>
<path d="M128.631 127.353C128.53 127.403 128.328 127.378 128.176 127.303L124.038 124.905C123.887 124.83 123.836 124.704 123.937 124.653L126.688 123.063C126.789 123.013 126.991 123.038 127.142 123.114L131.28 125.511C131.432 125.587 131.482 125.713 131.381 125.763L128.631 127.353Z" fill="#A8C4E5"/>
<path d="M134.334 130.66C134.233 130.71 134.032 130.685 133.88 130.609L129.742 128.212C129.59 128.136 129.565 128.01 129.641 127.96L132.391 126.37C132.492 126.32 132.694 126.345 132.846 126.42L136.984 128.818C137.135 128.893 137.16 129.02 137.085 129.07L134.334 130.66Z" fill="#A8C4E5"/>
<path d="M140.037 133.939C139.936 133.989 139.734 133.964 139.583 133.888L135.444 131.491C135.293 131.416 135.243 131.289 135.344 131.239L138.094 129.649C138.195 129.599 138.397 129.624 138.548 129.7L142.686 132.097C142.838 132.173 142.888 132.299 142.787 132.349L140.037 133.939Z" fill="#A8C4E5"/>
<path d="M145.74 137.246C145.639 137.296 145.437 137.271 145.286 137.195L141.148 134.798C140.996 134.722 140.946 134.596 141.047 134.546L143.797 132.956C143.898 132.905 144.1 132.931 144.251 133.006L148.39 135.404C148.541 135.479 148.566 135.605 148.49 135.656L145.74 137.246Z" fill="#A8C4E5"/>
<path d="M151.442 140.525C151.341 140.575 151.139 140.55 150.988 140.474L146.849 138.077C146.698 138.002 146.673 137.875 146.748 137.825L149.499 136.235C149.6 136.185 149.802 136.21 149.953 136.286L154.091 138.683C154.243 138.759 154.293 138.885 154.192 138.935L151.442 140.525Z" fill="#A8C4E5"/>
<path d="M157.17 143.832C157.069 143.882 156.867 143.857 156.716 143.781L152.577 141.384C152.426 141.308 152.375 141.182 152.476 141.132L155.227 139.542C155.328 139.491 155.53 139.517 155.681 139.592L159.819 141.99C159.971 142.065 160.021 142.191 159.92 142.242L157.17 143.832Z" fill="#A8C4E5"/>
<path d="M162.873 147.111C162.772 147.161 162.571 147.136 162.419 147.06L158.281 144.663C158.13 144.588 158.104 144.461 158.18 144.411L160.93 142.821C161.031 142.771 161.233 142.796 161.385 142.872L165.523 145.269C165.674 145.345 165.7 145.471 165.624 145.521L162.873 147.111Z" fill="#A8C4E5"/>
<path d="M166.177 150.013C166.102 149.963 166.026 149.938 165.925 149.938C165.849 149.938 165.774 149.938 165.723 149.963L162.973 151.552C162.922 151.578 162.897 151.628 162.922 151.679C162.948 151.729 162.998 151.78 163.049 151.83L164.134 152.461L160.525 154.53C160.475 154.555 160.45 154.606 160.475 154.656C160.5 154.707 160.55 154.757 160.626 154.808L163.427 156.422C163.503 156.473 163.578 156.498 163.679 156.498C163.755 156.498 163.831 156.498 163.881 156.473L170.417 152.713C170.467 152.688 170.492 152.637 170.467 152.587C170.442 152.537 170.391 152.486 170.316 152.436L166.177 150.013Z" fill="#A8C4E5"/>
<path d="M20.2542 204.921C16.5954 203.609 33.9812 158.34 38.3213 123.594L100.042 152.763C94.3645 182.842 93.7842 163.437 96.3075 199.294C63.7312 247.136 34.4858 233.586 20.2542 204.921Z" fill="#FFD252"/>
<path d="M113.567 170.302C116.872 174.919 120.607 178.074 126.057 179.916C133.173 182.313 159.971 181.404 168.096 179.689C171.275 179.007 169.837 171.437 166.582 171.185C158.81 170.529 136.453 170.579 129.867 168.535C129.287 168.359 124.013 164.321 123.837 164.069C123.458 163.539 109.378 164.448 113.567 170.302Z" fill="#FFB49E"/>
<path d="M125.15 177.24C121.466 175.271 117.227 168.585 114.956 165.557C113.013 166.541 111.978 168.055 113.568 170.301C116.873 174.918 120.608 178.072 126.058 179.914C132.215 181.984 153.235 181.58 163.984 180.318C150.938 180.369 131.307 180.52 125.15 177.24Z" fill="#F7A97E"/>
<path d="M187.929 173.631L180.057 179.031C177.155 181.024 172.764 180.772 170.291 178.45C167.818 176.154 168.172 172.621 171.074 170.653L178.946 165.253C181.848 163.26 186.239 163.512 188.712 165.833C191.21 168.13 190.831 171.637 187.929 173.631Z" fill="#A8C4E5"/>
<path d="M185.961 171.814L178.088 177.214C175.186 179.208 170.795 178.955 168.323 176.634C165.85 174.338 166.203 170.805 169.105 168.837L176.978 163.437C179.879 161.443 184.27 161.696 186.743 164.017C189.216 166.313 188.863 169.846 185.961 171.814Z" fill="#2F4C9C"/>
<path d="M184.12 163.461C183.161 163.688 182.328 164.168 181.597 164.799C180.84 165.455 181.925 166.54 182.682 165.884C183.212 165.43 183.842 165.127 184.524 164.95C185.508 164.698 185.104 163.234 184.12 163.461Z" fill="#A8C4E5"/>
<path d="M29.8161 94.6258C29.8161 95.4333 29.16 96.0641 28.3778 96.0641C27.5955 96.0641 26.9395 95.408 26.9395 94.6258C26.9395 93.8183 27.5955 93.1875 28.3778 93.1875C29.16 93.1875 29.8161 93.8183 29.8161 94.6258Z" fill="white"/>
<path d="M193.481 179.358L190.504 178.147V177.314H189.52V177.743V188.114H194.263L193.481 179.358Z" fill="#729CE3"/>
<path d="M248.364 183.397V182.564L223.837 168.408C223.685 168.333 223.534 168.333 223.383 168.408L189.747 187.838C189.62 187.914 189.545 188.015 189.52 188.141V189.125H189.545C189.57 189.251 189.62 189.377 189.747 189.453L214.273 203.609C214.425 203.685 214.576 203.685 214.728 203.609L248.364 184.179V183.447C248.389 183.422 248.389 183.422 248.364 183.397Z" fill="#729CE3"/>
<path d="M191.791 178.174V180.117V185.693V187.636L214.375 200.96L214.501 190.033L191.791 178.174Z" fill="#E6F0FF"/>
<path d="M214.499 190.033L214.373 200.959L245.511 183.321C245.839 183.144 245.915 182.564 245.915 182.185L245.839 179.031V176.785L245.915 172.117L214.499 190.033Z" fill="#D8E3F0"/>
<path d="M247.809 172.219L223.837 158.391C223.685 158.315 223.534 158.315 223.383 158.391L189.747 177.82C189.444 177.997 189.444 178.426 189.747 178.603L214.273 192.759C214.425 192.834 214.576 192.834 214.728 192.759L248.591 173.203V172.118L247.809 172.219Z" fill="#729CE3"/>
<path d="M214.273 191.927L189.747 177.771C189.444 177.594 189.444 177.165 189.747 176.988L223.383 157.559C223.534 157.483 223.685 157.483 223.837 157.559L248.364 171.715C248.666 171.891 248.666 172.32 248.364 172.497L214.728 191.927C214.601 192.002 214.425 192.002 214.273 191.927Z" fill="#729CE3"/>
<path d="M230.045 173.277L220.456 167.726C219.523 167.196 219.649 166.262 220.709 165.631L223.812 163.84C224.872 163.234 226.512 163.158 227.446 163.688L237.035 169.24C237.968 169.77 237.842 170.703 236.782 171.334L233.678 173.126C232.593 173.731 230.979 173.807 230.045 173.277Z" fill="white"/>
<path d="M63.9093 120.136L70.7475 100.858C72.1353 96.9216 76.5007 94.8525 80.4371 96.2403L81.5978 96.644C85.5342 98.0319 89.4959 102.523 88.108 106.46L80.1595 125.814C78.7465 129.75 62.4962 124.073 63.9093 120.136Z" fill="#FFB49E"/>
<path d="M85.9124 111.987C85.9124 111.987 82.4807 110.927 80.6387 108.277C80.6387 108.277 82.4555 113.854 84.0199 116.428C84.0199 116.453 85.1554 113.223 85.9124 111.987Z" fill="#EA8A6C"/>
<path d="M110.79 122.635C110.79 122.635 118.84 125.284 118.36 122.307C118.234 121.575 116.746 120.969 114.803 120.49C115.484 120.288 115.963 119.834 116.039 119.102C116.039 119.102 114.878 118.724 113.415 118.345C113.692 118.093 113.894 117.765 113.945 117.311C113.945 117.311 110.21 116.049 107.762 115.948C106.93 115.872 104.987 115.797 102.64 116.377C100.218 116.982 99.4355 118.017 93.8337 121.398C93.8337 121.398 94.0355 121.575 94.3636 121.853C93.329 122.357 92.6729 123.467 92.7739 124.653V124.78C92.9505 126.849 94.5402 128.489 96.5841 128.741L101 129.296L107.409 127.707C107.409 127.707 111.018 127.959 111.219 126.47C111.472 124.805 107.258 125.486 107.258 125.486L104.154 125.89C103.271 125.89 102.867 125.89 102.716 125.032C102.64 124.527 103.271 124.174 103.296 124.073C103.347 123.896 110.79 122.635 110.79 122.635Z" fill="#FFB49E"/>
<path d="M114.803 120.514L110.362 119.379L102.691 121.776" stroke="#EA986C" stroke-width="0.279838" stroke-miterlimit="10"/>
<path d="M113.44 118.345C113.187 118.118 108.923 117.033 108.923 117.033L101.252 119.405" stroke="#EA986C" stroke-width="0.279838" stroke-miterlimit="10"/>
<path d="M94.2378 121.172L66.582 127.329L76.2212 141.914L98.5022 128.515L94.2378 121.172Z" fill="#FFB49E"/>
<path d="M41.7018 117.538C37.8159 121.752 38.1439 124.199 37.6897 130.18C37.2355 136.009 38.2953 140.551 43.7962 142.393L98.603 160.712C98.603 160.712 113.945 139.39 95.9282 131.668C91.8404 129.902 88.333 127.858 85.0779 125.688C66.5819 123.518 64.5127 112.592 64.5127 112.592C55.8072 109.312 48.3382 110.372 41.7018 117.538Z" fill="#FFD252"/>
<path d="M87.8796 127.329C73.1686 124.402 62.6463 132.981 61.3594 111.483C61.3594 111.483 65.2958 110.599 66.5322 112.769C68.7023 116.554 70.6452 120.339 76.7769 120.314C79.9563 120.289 84.0189 120.138 84.9273 121.702L87.8796 127.329Z" fill="white"/>
<path d="M100.041 152.763L89.3926 148.02C88.5851 157.028 81.7469 174.691 82.5291 184.053C84.4973 207.116 82.4786 211.734 69.9629 226.748C81.6207 218.925 91.9159 212.693 97.0635 201.842C96.0289 185.668 95.2719 184.709 100.041 152.763Z" fill="#DB9D39"/>
<path d="M86.3901 150.418L108.696 173.86C116.191 179.336 128.908 163.111 123.105 158.089L100.672 134.622C96.9376 131.418 91.9162 131.443 89.0396 134.673C86.0621 138.003 82.9331 146.583 86.3901 150.418Z" fill="#FFD252"/>
<path d="M88.7109 152.865L107.939 173.077C107.939 173.077 111.522 177.392 116.695 173.557C116.695 173.557 113.086 172.522 110.815 169.872C108.519 167.248 107.661 164.649 102.589 161.344C97.5174 158.013 88.7109 152.865 88.7109 152.865Z" fill="#DB9D39"/>
<path d="M186.895 161.192C186.92 161.218 187.273 161.748 186.945 162.479C186.945 162.479 186.945 162.479 186.945 162.505C186.365 163.766 184.044 164.675 180.031 165.179C179.905 165.23 179.426 165.482 178.745 165.861C180.107 165.785 181.646 166.138 182.681 166.819C186.743 169.469 188.056 171.488 188.106 171.563L188.182 171.689L188.157 171.816C188.131 171.866 188.005 172.295 187.425 172.472C186.315 172.825 184.397 171.917 181.747 169.772C181.041 169.191 180.057 169.015 178.82 169.217C179.628 169.217 180.385 169.418 180.965 169.822C182.807 171.084 186.062 174.516 186.188 174.642L186.315 174.768L186.239 174.945C186.214 174.995 186.062 175.374 185.532 175.525C185.33 175.575 185.129 175.575 184.901 175.55C184.952 175.601 184.977 175.626 184.977 175.626L185.229 175.803L185.053 176.055C183.665 177.846 181.672 176.408 180.208 175.374C180.031 175.247 179.83 175.096 179.653 174.995C178.972 174.516 177.887 174.112 177.104 174.516C174.934 175.626 173.42 176.585 172.84 177.241C172.689 177.392 171.225 178.452 171.048 178.629C167.314 181.859 163.327 177.241 164.967 172.497C169.307 169.141 174.859 163.312 178.038 162.782L178.088 162.757L186.794 161.041L186.895 161.192Z" fill="#FFB49E"/>
<path d="M184.523 175.372L178.392 171.184L174.783 172.571" stroke="#EA986C" stroke-width="0.255311" stroke-miterlimit="10"/>
<path d="M178.82 169.189L176.246 169.972" stroke="#EA986C" stroke-width="0.255311" stroke-miterlimit="10"/>
<path d="M99.0576 101.489C98.7296 106.283 97.3922 110.018 94.5661 111.683C90.2512 114.206 80.9401 110.497 77.0542 109.362C66.9356 106.409 66.658 89.9825 66.2291 77.9209C66.1281 74.9434 79.9812 66.9444 84.3214 68.0042C93.7839 70.3257 98.881 71.6378 98.4016 94.0703C98.3511 95.8871 99.209 99.3188 99.0576 101.489Z" fill="#FFB49E"/>
<path d="M62.5706 104.669C62.5706 104.669 65.0687 113.551 74.4807 112.365C85.3058 111.002 75.4648 90.7146 90.3525 85.0118C102.212 80.4698 101.001 74.212 95.5758 69.2662C90.1506 64.3457 81.4956 68.6102 71.9321 70.6541C61.7883 72.8746 51.1146 79.6371 62.5706 104.669Z" fill="#2F4C9C"/>
<path d="M95.879 69.2925C94.0874 67.6523 91.9426 67.0467 89.5202 67.0215C95.2734 73.2289 95.5762 80.6727 81.168 86.1736L90.6557 85.0381C102.515 80.4961 101.304 74.2382 95.879 69.2925Z" fill="#3C61C7"/>
<path d="M83.5612 102.142C86.2509 101.221 87.685 98.2946 86.7645 95.6049C85.844 92.9152 82.9173 91.481 80.2276 92.4016C77.5379 93.3221 76.1037 96.2488 77.0242 98.9385C77.9448 101.628 80.8715 103.062 83.5612 102.142Z" fill="#FFB49E"/>
<path d="M84.2962 97.0468C83.3626 97.0721 82.5551 96.3151 82.5299 95.3562L80.7131 84.1526C80.6879 83.219 83.0598 84.0264 83.9934 84.0012C84.9271 83.976 87.1981 80.4685 87.2233 81.4022L85.9616 95.2805C86.0121 96.2394 85.2551 97.0216 84.2962 97.0468Z" fill="#2F4C9C"/>
<path d="M82.051 96.9227C82.051 96.9227 80.8146 97.3769 81.0417 98.3358C81.2688 99.2947 81.7735 99.3956 81.7735 99.3956C81.7735 99.3956 81.1426 100.38 80.2342 99.5975C79.3258 98.8152 78.695 97.4274 79.7548 95.8377C80.6127 94.5508 82.051 96.9227 82.051 96.9227Z" fill="#F09A82"/>
<path d="M101.757 95.5607C102.665 96.5196 101.379 97.756 100.268 98.5635C99.7384 98.942 99.1076 99.3205 98.5272 99.2448C97.9216 99.1691 97.5684 98.6392 97.3665 98.1093C96.8366 96.6962 95.3983 93.7944 97.2151 92.5832C97.9721 92.0785 97.0637 87.6879 97.2908 88.344C98.6029 92.0281 100.571 94.3243 101.757 95.5607Z" fill="#FFB49E"/>
<path d="M94.4657 92.7069C94.39 93.4134 94.6171 94.1957 94.9956 94.4732C95.3741 94.7508 95.7526 94.4228 95.8283 93.7162C95.904 93.0097 95.6769 92.2275 95.2984 91.9499C94.9199 91.6723 94.5414 92.0004 94.4657 92.7069Z" fill="#2C1F9C"/>
<path d="M95.0706 103.635C95.651 104.796 96.7108 105.275 97.9724 105.275C98.7294 105.275 98.7294 104.089 97.9724 104.089C97.0893 104.089 96.5089 103.862 96.0799 103.055C95.7519 102.373 94.7173 102.954 95.0706 103.635Z" fill="#EA986C"/>
<path d="M97.2669 88.6717C96.0052 89.025 94.8697 89.4792 93.7594 90.1352C93.3052 90.4128 92.6996 90.2109 92.4725 89.7315C92.2707 89.3278 92.4221 88.8231 92.8006 88.5708C94.0622 87.7381 95.4248 87.1829 96.8884 86.8801C97.3426 86.7792 97.7968 87.0568 97.9482 87.4857C98.0743 87.9904 97.7715 88.5455 97.2669 88.6717Z" fill="#2C1F9C"/>
<path d="M129.667 103.684L210.666 151.501C211.221 151.829 211.978 151.829 212.583 151.451L218.438 148.069C219.775 147.287 219.926 145.42 218.715 144.688L137.716 96.8709C137.161 96.5429 136.404 96.5429 135.798 96.9214L129.944 100.303C128.582 101.11 128.43 102.977 129.667 103.684Z" fill="#A8C4E5"/>
<path d="M174.101 139.516L155.832 128.969C154.369 128.111 154.419 126.748 155.933 125.941L181.747 112.264C183.185 111.507 185.406 111.533 186.769 112.34L203.195 121.828C204.583 122.635 204.634 123.922 203.296 124.755L179.325 139.491C177.912 140.324 175.565 140.349 174.101 139.516Z" fill="#8AACCE"/>
<path d="M174.101 137.044L155.832 126.496C154.369 125.638 154.419 124.276 155.933 123.468L181.747 109.792C183.185 109.035 185.406 109.06 186.769 109.867L203.195 119.355C204.583 120.163 204.634 121.449 203.296 122.282L179.325 137.018C177.912 137.851 175.565 137.876 174.101 137.044Z" fill="url(#paint0_linear)"/>
<path d="M159.818 121.373L182.856 134.822L187.525 131.945L164.688 118.799L159.818 121.373Z" fill="#A8C4E5"/>
<path d="M235.14 75.6746L230.472 72.8989L223.154 68.5083C223.028 68.3821 222.902 68.256 222.776 68.1803L137.689 17.1332C137.336 16.9314 137.008 16.9314 136.756 17.108L134.106 18.8743L136.099 21.0696L130.901 82.3362C130.876 82.6137 130.927 82.9418 131.028 83.2193L130.17 93.0099C130.094 93.8426 130.599 94.8519 131.305 95.2809L143.367 102.472C143.442 102.523 143.518 102.599 143.594 102.624L225.88 151.627L226.712 154.932L229.286 153.191C229.538 153.065 229.74 152.762 229.766 152.333L236.251 77.8951C236.351 77.1129 235.847 76.1035 235.14 75.6746Z" fill="#9BBFEB"/>
<path d="M131.33 95.3061L143.392 102.498C143.467 102.548 143.543 102.624 143.619 102.649L160.348 112.616L235.847 76.4316C235.645 76.1288 235.392 75.8512 235.115 75.6998L230.447 72.9241L223.129 68.5335C223.003 68.4074 222.877 68.2812 222.75 68.2055L137.689 17.1332C137.336 16.9314 137.008 16.9314 136.755 17.108L134.106 18.8743L136.099 21.0696L130.901 82.3362C130.876 82.6137 130.926 82.9418 131.027 83.2193L130.169 93.0099C130.119 93.8678 130.649 94.8771 131.33 95.3061Z" fill="#E6F0FF"/>
<path d="M232.439 77.4926L220.378 70.3011C220.302 70.2507 220.226 70.175 220.151 70.1497L135.392 19.6578C134.685 19.2289 134.055 19.5821 133.979 20.4148L127.494 94.8532C127.418 95.6859 127.923 96.6952 128.629 97.1242L140.691 104.316C140.767 104.366 140.842 104.442 140.918 104.467L225.677 154.959C226.383 155.388 227.014 155.035 227.09 154.202L233.575 79.7636C233.65 78.9309 233.146 77.9216 232.439 77.4926Z" fill="url(#paint1_linear)"/>
<path d="M232.413 77.5173L220.452 70.3511C220.326 70.2249 220.2 70.0987 220.074 70.023L134.987 18.9508C134.331 18.5723 133.751 18.8751 133.7 19.6825L128.225 84.1789C128.149 84.9612 128.628 85.92 129.284 86.2985L141.245 93.4648C141.371 93.591 141.497 93.7171 141.624 93.7928L226.71 144.84C227.366 145.218 227.947 144.916 227.997 144.108L233.473 79.6117C233.523 78.8547 233.069 77.8958 232.413 77.5173Z" fill="#3156B5"/>
<path d="M231.354 80.6975L146.595 29.8271V29.8523L135.871 23.3926L130.521 82.6152L215.28 133.46L226.004 139.895L231.354 80.6975Z" fill="#97CBFF"/>
<path d="M174.897 121.262C176.18 120.651 176.427 118.493 175.45 116.442C174.472 114.392 172.639 113.226 171.356 113.838C170.073 114.449 169.826 116.607 170.803 118.658C171.781 120.708 173.614 121.874 174.897 121.262Z" fill="#A8C4E5"/>
<path d="M186.264 79.4127L140.188 52.5139L141.071 43.7832L187.147 70.6567L186.264 79.4127Z" fill="#EBF5FF"/>
<path d="M185.228 89.6567L139.152 62.7579L140.036 54.002L186.112 80.9007L185.228 89.6567Z" fill="#FFD252"/>
<path d="M184.195 99.8775L138.119 73.004L139.002 64.248L185.078 91.1468L184.195 99.8775Z" fill="#EBF5FF"/>
<path d="M183.16 110.122L137.084 83.2481L137.967 74.4922L184.043 101.366L183.16 110.122Z" fill="#EBF5FF"/>
<path d="M188.358 64.0959L140.895 36.4149L141.349 31.8477L188.813 59.5539L188.358 64.0959Z" fill="#426BD4"/>
<path d="M223.533 84.6349L192.723 66.6436L193.177 62.1016L223.987 80.0677L223.533 84.6349Z" fill="#426BD4"/>
<path d="M221.413 108.128L190.275 89.96L190.73 85.418L221.868 103.586L221.413 108.128Z" fill="#426BD4"/>
<path d="M205.265 86.7806L191.412 78.6807L191.866 74.1387L205.719 82.2133L205.265 86.7806Z" fill="#EBF5FF"/>
<path d="M221.238 96.0911L207.385 88.0165L207.839 83.4492L221.692 91.5491L221.238 96.0911Z" fill="#EBF5FF"/>
<path d="M145.762 53.2521C146.761 52.7897 146.992 51.1641 146.278 49.6212C145.564 48.0782 144.175 47.2023 143.176 47.6647C142.177 48.1271 141.946 49.7527 142.66 51.2957C143.374 52.8386 144.763 53.7145 145.762 53.2521Z" fill="white"/>
<path d="M144.754 63.1955C145.753 62.7331 145.985 61.1075 145.27 59.5645C144.556 58.0216 143.168 57.1457 142.168 57.6081C141.169 58.0705 140.938 59.6961 141.652 61.239C142.366 62.7819 143.755 63.6579 144.754 63.1955Z" fill="white"/>
<path d="M144.605 72.3472C144.453 73.7855 143.343 74.3911 142.132 73.6846C140.921 72.9781 140.037 71.2117 140.189 69.7734C140.34 68.3351 141.45 67.7295 142.662 68.4361C143.873 69.1426 144.756 70.9089 144.605 72.3472Z" fill="white"/>
<path d="M143.519 83.0211C143.367 84.4594 142.257 85.065 141.046 84.3584C139.835 83.6519 138.951 81.8856 139.103 80.4473C139.254 79.009 140.365 78.4034 141.576 79.1099C142.812 79.8417 143.67 81.5828 143.519 83.0211Z" fill="white"/>
<path d="M181.772 73.1303L149.322 54.2053L149.499 52.3633L181.949 71.3135L181.772 73.1303Z" fill="#426BD4"/>
<path d="M180.739 83.2981L148.289 64.3479L148.466 62.5059L180.916 81.4561L180.739 83.2981Z" fill="#426BD4"/>
<path d="M179.704 93.4428L147.254 74.5178L147.456 72.6758L179.906 91.6008L179.704 93.4428Z" fill="#426BD4"/>
<path d="M178.694 103.585L146.244 84.6604L146.421 82.8184L178.871 101.769L178.694 103.585Z" fill="#426BD4"/>
<path d="M220.077 131.443L187.299 112.342L189.116 94.4766L221.868 113.603L220.077 131.443Z" fill="#EBF5FF"/>
<path d="M140.366 56.223C140.946 57.9137 141.526 59.6043 142.107 61.2949C142.41 62.2033 143.596 62.6323 144.302 61.8753C145.766 60.3361 147.33 58.923 148.97 57.6109C150.308 56.5511 148.415 54.709 147.103 55.7436C145.438 57.0557 143.898 58.494 142.435 60.008C143.167 60.2099 143.898 60.3865 144.63 60.5884C144.05 58.8978 143.469 57.2071 142.889 55.5165C142.359 53.9268 139.811 54.6081 140.366 56.223Z" fill="#FF4B19"/>
<path d="M118.489 239.344C122.905 235.205 131.327 222.635 131.605 217.967L131.933 212.289C132.261 206.359 127.517 204.593 121.385 208.353L83.4344 231.593C82.9045 231.921 71.6387 246.01 76.9919 239.344H118.489Z" fill="#7090E0"/>
<path d="M9.30284 216.578L44.7722 239.344H86.4922C86.3156 238.511 83.3879 231.012 83.0346 230.179L67.39 191.597C64.5638 184.607 58.2303 177.366 51.5434 173.505L14.4757 152.006C5.21504 146.631 -1.37086 149.558 0.244069 158.34L9.30284 216.578Z" fill="#7090E0"/>
<path d="M9.96332 222.635C10.0643 223.973 10.4427 225.689 11.1997 227.884C11.1997 227.884 11.654 230.71 18.4922 234.344L27.9922 239.344H70.0057L57.0955 195.988C52.8311 185.466 36.2276 177.82 26.1847 171.991L0.0429688 156.826C0.0934354 157.23 0.143905 157.659 0.219605 158.113L9.96332 222.635Z" fill="#6080D1"/>
<path d="M93.2793 31.2402C93.2793 31.2402 112.406 43.4784 117.957 60.3847C123.534 77.3163 128.682 83.2966 128.682 83.2966" stroke="#335CBD" stroke-width="0.504667" stroke-miterlimit="10" stroke-linecap="round" stroke-linejoin="round"/>
<path d="M114.701 53.2166C114.701 53.2166 103.851 46.9587 100.646 45.9746" stroke="#335CBD" stroke-width="0.504667" stroke-miterlimit="10" stroke-linecap="round" stroke-linejoin="round"/>
<path d="M112.758 43.3008C112.758 43.3008 115.306 48.7259 114.701 52.738" stroke="#335CBD" stroke-width="0.504667" stroke-miterlimit="10" stroke-linecap="round" stroke-linejoin="round"/>
<path d="M121.211 68.5603C121.211 68.5603 110.361 62.3025 107.156 61.3184" stroke="#335CBD" stroke-width="0.504667" stroke-miterlimit="10" stroke-linecap="round" stroke-linejoin="round"/>
<path d="M120.279 57.9121C120.279 57.9121 121.819 64.069 121.213 68.0811" stroke="#335CBD" stroke-width="0.504667" stroke-miterlimit="10" stroke-linecap="round" stroke-linejoin="round"/>
<path opacity="0.4" d="M240.449 56.7195C246.811 53.7747 248.389 43.6572 243.975 34.1214C239.56 24.5857 230.825 19.2426 224.464 22.1875C218.102 25.1323 216.524 35.2498 220.938 44.7856C225.352 54.3213 234.088 59.6644 240.449 56.7195Z" fill="#A8C4E5"/>
<path d="M229.564 20.0109C225.88 17.9418 222.347 17.6137 219.42 18.724L214.045 20.6165L214.853 22.4081C213.642 24.1744 212.809 26.4454 212.481 29.1706C211.32 38.8602 217.073 50.518 225.325 55.1609C227.066 56.145 228.807 56.7254 230.447 56.9778L230.901 57.9871L234.51 56.7759C234.939 56.6749 235.342 56.5235 235.746 56.3721L235.822 56.3469C239.304 54.8582 241.827 51.275 242.433 46.0517C243.594 36.3116 237.84 24.6791 229.564 20.0109Z" fill="#3D69D4"/>
<path d="M231.703 57.641C238.557 54.4679 240.255 43.5604 235.496 33.2785C230.736 22.9965 221.321 17.2337 214.466 20.4069C207.611 23.58 205.913 34.4875 210.673 44.7694C215.433 55.0514 224.848 60.8142 231.703 57.641Z" fill="#91B1FF"/>
<path d="M230.007 53.9768C235.508 51.4301 236.869 42.6708 233.046 34.4124C229.223 26.154 221.664 21.5237 216.162 24.0704C210.661 26.6171 209.3 35.3764 213.123 43.6349C216.946 51.8933 224.505 56.5235 230.007 53.9768Z" fill="white"/>
<path opacity="0.44" d="M223.886 53.0674C217.249 49.3329 212.632 39.9965 213.565 32.1994C214.171 27.2285 216.871 24.0995 220.504 23.4435C215.685 22.8379 211.774 26.1687 211.042 32.2499C210.108 40.047 214.726 49.3833 221.362 53.1179C223.759 54.4805 226.106 54.9094 228.15 54.5309C226.787 54.3795 225.349 53.9001 223.886 53.0674Z" fill="#A8C4E5"/>
<path d="M224.542 27.0268C224.517 27.6829 224.088 28.238 223.583 28.238C223.053 28.238 222.65 27.7334 222.675 27.0773C222.7 26.4212 223.129 25.8661 223.634 25.8661C224.138 25.8409 224.542 26.3708 224.542 27.0268Z" fill="#3156B5"/>
<path d="M223.433 51.4018C223.408 52.0579 222.979 52.613 222.474 52.613C221.944 52.613 221.54 52.1084 221.566 51.4523C221.591 50.7962 222.02 50.2411 222.524 50.2411C223.029 50.2159 223.433 50.7458 223.433 51.4018Z" fill="#3156B5"/>
<path d="M232.44 45.7758C231.885 45.473 231.633 44.8421 231.885 44.3879C232.137 43.9337 232.819 43.8076 233.374 44.1104C233.929 44.4132 234.181 45.044 233.929 45.4982C233.677 45.9524 233.021 46.0786 232.44 45.7758Z" fill="#3156B5"/>
<path d="M212.128 34.7484C211.573 34.4456 211.32 33.8148 211.573 33.3606C211.825 32.9064 212.506 32.7802 213.061 33.083C213.617 33.3858 213.869 34.0166 213.617 34.4708C213.364 34.9503 212.708 35.0764 212.128 34.7484Z" fill="#3156B5"/>
<path d="M227.924 48.7772L222.524 39.5166C222.474 39.4409 222.499 39.3652 222.575 39.34C222.625 39.3147 222.726 39.34 222.751 39.3904L228.151 48.6511C228.202 48.7268 228.177 48.8025 228.101 48.8277C228.05 48.8782 227.975 48.8529 227.924 48.7772Z" fill="#A8C4E5"/>
<path d="M223.053 39.6945L215.458 44.287C215.155 44.4636 214.777 44.3879 214.6 44.0851C214.424 43.7823 214.55 43.4038 214.853 43.2019L222.448 38.6095C222.751 38.4328 223.129 38.5085 223.306 38.8113C223.457 39.1141 223.356 39.5179 223.053 39.6945Z" fill="#3156B5"/>
<path d="M223.635 32.9316L223.332 38.9624C223.307 39.3157 223.029 39.5932 222.676 39.5932C222.323 39.5932 222.07 39.2904 222.07 38.9624L222.373 32.9316C222.398 32.5783 222.676 32.3008 223.029 32.3008C223.382 32.3008 223.66 32.5783 223.635 32.9316Z" fill="#DB9D39"/>
<path d="M223.786 39.4418C223.76 40.0979 223.256 40.4511 222.625 40.224C221.994 39.9969 221.489 39.2904 221.515 38.6343C221.54 37.9783 222.045 37.625 222.675 37.8521C223.306 38.054 223.811 38.7857 223.786 39.4418Z" fill="#DB9D39"/>
<path d="M223.154 39.1381C223.154 39.4409 222.901 39.5923 222.624 39.4913C222.346 39.3904 222.119 39.0624 222.119 38.7848C222.119 38.482 222.371 38.3306 222.649 38.4315C222.927 38.5325 223.154 38.8353 223.154 39.1381Z" fill="white"/>
<path d="M244.074 128.414C237.665 128.237 231.634 127.177 226.865 123.392L228.001 112.365C233.174 116.226 238.927 117.816 245.21 117.387L244.074 128.414Z" fill="#FFD252"/>
<path d="M245.715 113.879C238.624 111.986 232.821 108.933 229.137 103.886L230.272 92.8594C234.007 98.0574 239.482 101.464 246.851 102.852L245.715 113.879Z" fill="#EBF5FF"/>
</g>
<defs>
<linearGradient id="paint0_linear" x1="160.094" y1="134.574" x2="199.327" y2="111.922" gradientUnits="userSpaceOnUse">
<stop offset="0.0394089" stop-color="white"/>
<stop offset="0.3172" stop-color="#FCFDFE"/>
<stop offset="0.5068" stop-color="#F3F7FB"/>
<stop offset="0.6701" stop-color="#E4EDF7"/>
<stop offset="0.8186" stop-color="#CEDEF0"/>
<stop offset="0.9556" stop-color="#B3CBE8"/>
<stop offset="1" stop-color="#A8C4E5"/>
</linearGradient>
<linearGradient id="paint1_linear" x1="127.493" y1="87.3112" x2="233.585" y2="87.3112" gradientUnits="userSpaceOnUse">
<stop offset="0.0394089" stop-color="white"/>
<stop offset="0.3172" stop-color="#FCFDFE"/>
<stop offset="0.5068" stop-color="#F3F7FB"/>
<stop offset="0.6701" stop-color="#E4EDF7"/>
<stop offset="0.8186" stop-color="#CEDEF0"/>
<stop offset="0.9556" stop-color="#B3CBE8"/>
<stop offset="1" stop-color="#A8C4E5"/>
</linearGradient>
<clipPath id="clip0">
<rect width="288" height="239" fill="white"/>
</clipPath>
</defs>
</svg>
