<svg width="548" height="207" viewBox="0 0 548 207" fill="none" xmlns="http://www.w3.org/2000/svg">
<path d="M515.065 53.2854C488.61 46.4881 445.712 54.4576 425.816 44.3747C406.45 34.5572 438.194 22.4986 421.525 13.2488C396.79 -0.476024 283.612 2.03057 213.294 22.0956C192.148 28.1286 183.916 33.1713 160.001 35.4051C108.645 40.1995 78.098 23.3489 52.6947 26.5558C-4.49243 33.7758 -52.4823 144.828 119.39 189.388C199.666 210.198 315.581 213.314 403.613 194.719C562.698 161.116 574.428 68.5338 515.065 53.2854Z" fill="#F3F5FB"/>
<ellipse cx="275.851" cy="190.274" rx="166.622" ry="6.51149" fill="#CED9F0"/>
<path d="M213 58H237.766C245.254 58 252.435 60.9646 257.73 66.2417C263.025 71.5187 266 78.6759 266 86.1388V161.861C266 169.324 263.025 176.481 257.73 181.758C252.435 187.035 245.254 190 237.766 190H213V58Z" fill="#9DB3E1"/>
<path d="M217 58H95V190H217V58Z" fill="#E7ECF7"/>
<path d="M95 58H119.766C123.473 58 127.145 58.7278 130.57 60.1419C133.996 61.556 137.109 63.6287 139.73 66.2417C142.352 68.8546 144.432 71.9566 145.851 75.3705C147.27 78.7845 148 82.4436 148 86.1388V161.861C148 169.324 145.025 176.481 139.73 181.758C134.435 187.035 127.254 190 119.766 190H95V58Z" fill="#9DB3E1"/>
<path d="M204 177H145V188H204V177Z" fill="#9DB3E1"/>
<path d="M424.017 102.545C424.017 102.545 427.163 92.4141 429.815 90.3778C432.156 88.5462 435.073 88.5946 437.738 89.1918C438.861 89.4388 443.816 91.5217 440.134 100.471C439.259 102.577 430.912 114.316 430.912 114.316L426.749 109.952L424.017 102.545Z" fill="#CED9F0"/>
<path d="M213.176 141.094C213.176 141.094 202.844 138.689 200.62 136.192C198.624 133.99 198.461 131.077 198.863 128.376C199.028 127.237 200.747 122.145 209.94 125.169C212.104 125.888 224.416 133.363 224.416 133.363L220.366 137.831L213.176 141.094Z" fill="#CED9F0"/>
<path d="M352.5 66C352.5 66 371.15 69.7242 379.664 89.2106C386.274 104.356 389.465 106.419 393.746 110.569C398.026 114.719 403.516 116.879 411.736 113.509C419.956 110.139 425.041 101.119 425.041 101.119L433.323 111.201C433.323 111.201 421.986 135.705 405.541 139.574C400.409 140.791 395.075 140.901 389.898 139.897C384.72 138.893 379.817 136.798 375.519 133.753C366.056 127.439 348.661 107.596 348.661 107.596L353.733 75.0292L352.5 66Z" fill="#859FD9"/>
<path d="M341 64.6891C341 64.6891 320.643 103 319.85 103C319.057 103 300.434 96.6708 300.335 96.3599C300.236 96.0491 295.453 68.1335 295.453 68.1335C295.453 68.1335 298.514 66.517 302.318 64.5524C303.944 63.6465 305.465 62.5622 306.852 61.3194C307.61 60.7314 308.203 59.9558 308.573 59.0685C308.942 58.1813 309.075 57.2129 308.959 56.2585C308.959 55.985 309.033 53.5353 309.033 53.5353C306.285 53.7476 303.521 53.5506 300.831 52.9509C297.225 52.1178 294.636 49.2206 293.756 38.0295C293.297 32.5209 293.087 26.1793 293 21.1682C293 20.8325 293 20.5092 293 20.1983C293 19.8874 293 19.4398 293 19.0792C293 18.7186 293 18.5321 293 18.2709C293 15.784 293 13.894 293 12.9241V12.1904L293.892 11.8671C296.618 10.8973 304.783 8 305.551 8C306.059 8 312.093 9.55432 317.496 10.9967L319.441 11.4941L326.144 13.2847L326.962 34.1499L327.036 36.1767V37.0596C327.036 37.3331 327.036 37.6067 327.036 37.8802L327.11 39.9817C327.11 40.5288 327.11 41.0635 327.11 41.6106L327.185 43.8364C327.185 45.1544 327.272 46.4725 327.309 47.7906C327.408 50.8122 327.842 57.9745 334.817 61.7421C336.267 62.5007 340.802 64.9503 341 64.6891Z" fill="#CED9F0"/>
<path d="M313.029 27.9235C313.056 27.769 313.107 27.6212 313.18 27.4872C313.269 27.3372 313.39 27.2144 313.532 27.1294C313.674 27.0444 313.832 27 313.992 27C314.153 27 314.311 27.0444 314.452 27.1294C314.594 27.2144 314.715 27.3372 314.804 27.4872C314.943 27.7816 315.01 28.1119 314.998 28.4447C315.011 28.7776 314.956 29.1093 314.837 29.4143C314.772 29.5622 314.679 29.6915 314.563 29.7924C314.448 29.8932 314.313 29.9629 314.17 29.996C314.015 30.0112 313.859 29.9826 313.716 29.9128C313.573 29.8429 313.448 29.7341 313.352 29.5961C313.165 29.3175 313.05 28.9862 313.018 28.6386C312.991 28.401 312.994 28.16 313.029 27.9235Z" fill="#6D8CD1"/>
<path d="M296.036 28.9323C296.058 28.778 296.105 28.6293 296.174 28.4937C296.262 28.342 296.383 28.2175 296.525 28.1313C296.667 28.0451 296.826 28 296.987 28C297.148 28 297.307 28.0451 297.449 28.1313C297.591 28.2175 297.711 28.342 297.8 28.4937C297.945 28.7844 298.012 29.1157 297.995 29.4484C298.018 29.7771 297.963 30.1069 297.834 30.4031C297.771 30.5526 297.678 30.6839 297.563 30.7867C297.448 30.8896 297.314 30.9614 297.17 30.9966C297.016 31.0106 296.861 30.9814 296.719 30.9116C296.577 30.8418 296.453 30.7336 296.357 30.5966C296.174 30.3166 296.059 29.9874 296.025 29.6419C295.988 29.4067 295.992 29.1659 296.036 28.9323Z" fill="#6D8CD1"/>
<path d="M302.259 34.34C302.472 33.783 302.745 33.2454 303.073 32.7347C303.378 32.2428 303.655 31.7249 303.946 31.2201C304.091 30.9741 304.469 30.055 304.862 30.0032C305.254 29.9514 305.342 30.5469 305.443 30.7929C305.617 31.2142 305.753 31.6471 305.851 32.0874C306.05 32.9414 306.05 33.8226 305.851 34.6766C305.759 35.1351 305.55 35.5686 305.24 35.9436C304.93 36.3185 304.527 36.6248 304.062 36.8385C303.793 36.9805 303.476 37.0312 303.169 36.9813C302.861 36.9313 302.585 36.784 302.39 36.5666C302.159 36.2352 302.026 35.8574 302.004 35.4682C301.981 35.079 302.068 34.691 302.259 34.34Z" fill="#6D8CD1"/>
<path d="M301.745 45.162C301.463 44.5101 301.58 43.7179 302.07 42.9597C302.56 42.2014 303.382 41.5393 304.356 41.1189C305.33 40.6985 306.376 40.5543 307.264 40.7179C308.152 40.8816 308.808 41.3398 309.09 41.9917L301.745 45.162Z" fill="white"/>
<path d="M282.572 132.503C282.845 116.769 279.827 100.879 281.517 85.2029C282.025 80.5894 280.999 74.354 286.673 71.5179C291.274 69.1953 296.055 67.2465 300.971 65.6904C306.489 67.9169 312.39 69.0518 318.345 69.0315C327.994 68.9149 336.901 63 336.901 63C336.901 63 356.192 64.9545 358.5 69.5C369.192 70.7821 361.5 98 357.781 113C354.062 128 354.119 137.917 354.5 152C354.5 170.5 353.5 170 353.5 170L285.121 162C285.121 162 282.474 137.787 282.572 132.503Z" fill="#859FD9"/>
<path d="M327.944 7.41895C325.973 5.24572 323.366 5.10833 320.647 5.33315C320.476 4.39351 320.054 3.51782 319.426 2.79883C318.798 2.07983 317.987 1.54431 317.08 1.24898C315.565 0.967814 314.008 1.01895 312.515 1.39886C309.929 1.88971 307.301 2.11984 304.669 2.0858C301.663 1.93592 298.644 1.73608 295.638 1.39886C294.142 1.224 292.645 1.01167 291.148 0.761878C289.839 0.386897 288.499 0.131888 287.144 0C286.406 0.0127421 285.681 0.201852 285.03 0.551603C284.379 0.901355 283.821 1.40164 283.402 2.01086C280.334 6.63209 282.679 14.3883 286.795 17.5607C288.561 18.9478 290.623 19.9093 292.819 20.3709C294.103 20.6314 295.415 20.7279 296.724 20.6581C301.039 20.6334 305.331 20.0242 309.484 18.8471C310.774 18.4219 312.026 17.887 313.226 17.2484C313.962 20.9204 316.668 23.5683 319.113 26.3785C320.874 28.3888 322.432 30.5685 323.766 32.8857C324.424 34.0977 325.007 35.349 325.512 36.6326C325.923 37.6068 326.41 39.3928 327.258 39.9924C327.545 40.1922 328.368 36.4078 328.418 36.0081C328.655 34.1346 328.904 32.2612 329.154 30.4002C329.84 25.4917 331 20.5332 331 15.5748C330.983 12.5787 329.899 9.68683 327.944 7.41895Z" fill="#3C66C2"/>
<path d="M326.544 30.4071C326.327 29.8616 325.979 29.372 325.53 28.9769C325.08 28.5818 324.541 28.2919 323.954 28.1302C322.935 27.872 321.045 27.9307 320.456 28.9283C320.247 29.0809 319.977 29.1982 320.002 29.5034C320.019 29.5912 320.043 29.6776 320.075 29.7616C320.093 29.898 320.093 30.0359 320.075 30.1723C320.176 31.7297 320.503 33.2661 321.045 34.7377C321.241 35.418 321.475 36.0878 321.745 36.7446C321.884 37.0712 322.075 37.3758 322.309 37.6483C322.493 37.8478 322.948 38.0356 322.948 38.329C322.932 38.4905 322.89 38.6487 322.825 38.7984C322.778 38.9776 322.782 39.1654 322.836 39.3427C322.89 39.52 322.992 39.6805 323.132 39.8078C323.221 39.8813 323.325 39.9359 323.437 39.9677C323.55 39.9995 323.668 40.008 323.785 39.9924C323.901 39.9768 324.012 39.9376 324.112 39.8775C324.211 39.8173 324.295 39.7375 324.359 39.6435C325.967 36.9089 327.895 33.5758 326.544 30.4071Z" fill="#B6C6E8"/>
<path d="M282.114 132C282.114 132 280.039 183.257 281.554 186.051C283.068 188.846 301.211 193.504 319.666 192.956C338.121 192.408 355.611 186.49 355.841 185.503C356.759 181.481 353.408 138.97 353.408 138.97C353.408 138.97 312.449 132.899 311.467 132.899C310.484 132.899 282.114 132 282.114 132Z" fill="#859FD9"/>
<path d="M294.681 68.5693C294.681 68.5693 286.926 69.3185 277.38 78.6917C267.834 88.0649 251.977 112.044 244.815 119.208C237.652 126.373 218.484 129.395 218.484 129.395L214.274 141.814C221.634 144.74 229.528 146.081 237.444 145.748C250.394 145.135 262.519 138.786 273.049 131.601C285.407 123.172 294.214 98.0124 294.214 98.0124L294.681 68.5693Z" fill="#859FD9"/>
</svg>
