<svg width="624" height="256" viewBox="0 0 624 256" fill="none" xmlns="http://www.w3.org/2000/svg">
<path opacity="0.5" d="M156.8 255.994C192.185 255.994 220.871 252.075 220.871 247.241C220.871 242.407 192.185 238.488 156.8 238.488C121.414 238.488 92.7283 242.407 92.7283 247.241C92.7283 252.075 121.414 255.994 156.8 255.994Z" fill="#CCCCCC"/>
<path opacity="0.5" d="M510.42 255.994C545.806 255.994 574.491 252.075 574.491 247.241C574.491 242.407 545.806 238.488 510.42 238.488C475.034 238.488 446.349 242.407 446.349 247.241C446.349 252.075 475.034 255.994 510.42 255.994Z" fill="#CCCCCC"/>
<path d="M493.754 18.9441C493.754 18.9441 490.091 14.6586 494.209 8.37754C496.975 4.17614 499.93 5.94772 499.811 8.01341C499.692 10.0791 497.199 15.9891 493.754 18.9441Z" fill="#232A2B"/>
<path d="M204.451 53.3748C204.451 53.3748 201.013 54.4532 200.691 54.8313C200.579 54.9503 199.48 55.5315 200.257 57.6813C200.551 58.4865 201.118 59.2848 201.937 59.3758C202.435 59.4318 203.989 58.6756 205.088 58.2834C205.318 58.6397 205.665 58.9047 206.069 59.0327C207.123 59.4028 208.264 59.4515 209.346 59.1728C210.893 58.8997 213.022 58.7036 214.248 57.7303C215.473 56.7569 214.745 56.1687 214.745 56.1687C214.928 56.0996 215.09 55.9827 215.213 55.83C215.336 55.6773 215.416 55.4945 215.445 55.3005C215.469 55.092 215.449 54.8808 215.386 54.6806C215.324 54.4804 215.22 54.2955 215.081 54.1381C215.392 53.8307 215.606 53.4387 215.697 53.0107C215.687 52.6031 215.53 52.2128 215.256 51.9113C215.256 51.9113 216.145 51.5402 216.005 50.7489C215.865 49.9577 214.248 49.6846 213.778 49.7056L212.413 49.7826C212.413 49.7826 212.987 48.2491 212.364 48.1441C212.035 48.0881 210.41 48.9564 208.975 48.8443C207.322 48.7533 206.174 50.1257 205.803 50.6229C205.251 51.487 204.798 52.4101 204.451 53.3748Z" fill="#FFAD94"/>
<path d="M156.631 230.085L153.347 242.305C153.347 242.305 156.974 244.797 160.405 242.767L162.751 231.836C162.751 231.836 156.449 229.777 156.631 230.085Z" fill="#232A2B"/>
<path d="M160.007 236.647C160.007 236.647 158.845 240.036 160.623 241.254C162.402 242.473 164.313 242.193 167.331 241.765C171.239 241.212 177.275 246.667 169.649 246.212C168.522 246.142 162.283 245.659 159.349 243.264C157.948 242.095 158.123 239.308 158.543 238.516L160.007 236.647Z" fill="#232A2B"/>
<path d="M168.297 104.625C160.44 96.9222 151.729 92.8608 143.698 99.345L141.415 101.187C129.742 110.612 161.862 158.795 168.241 167.177C176.357 177.841 191.937 192.525 196.53 185.341C201.859 176.994 200.234 168.647 200.234 167.177C200.234 155.35 194.955 144.699 189.647 135.12C185.242 127.151 177.337 113.483 168.297 104.625Z" fill="#190E8E"/>
<path d="M162.053 237.711C168.173 231.024 180.259 215.85 187.401 202.363L187.457 202.258L196.847 185.558C200.279 177.302 197.436 173.115 193.164 170.853C193.164 170.853 176.772 176.14 176.751 176.175C169.342 189.626 157.2 224.491 155.001 233.153C155.008 233.146 159.252 237.788 162.053 237.711Z" fill="#190E8E"/>
<path d="M128.643 231.787L123.819 243.481C123.819 243.481 127.103 246.422 130.765 244.881L134.462 234.378C134.462 234.378 128.496 231.486 128.643 231.787Z" fill="#232A2B"/>
<path d="M130.401 238.278C130.401 238.278 129.441 241.73 131.283 242.844C133.125 243.957 135.029 243.544 138.012 242.963C141.877 242.186 148.222 247.255 140.589 247.269C139.455 247.269 133.195 247.143 130.128 244.924C128.636 243.845 128.678 241.044 129.049 240.232L130.401 238.278Z" fill="#232A2B"/>
<path d="M132.641 241.198C139.714 233.692 153.914 216.69 162.961 201.642C162.961 201.6 163.011 201.565 163.032 201.53L167.289 194.528C172.191 186.433 172.989 177.897 168.998 175.46L167.653 174.662C163.662 172.225 152.794 173.472 152.766 173.514C133.993 203.939 129.553 226.62 126.157 236.276C126.157 236.276 129.77 241.324 132.641 241.198Z" fill="#4F52FF"/>
<path d="M162.451 98.5537C157.409 88.7504 145.365 91.0822 135.709 94.7164L132.964 95.7528C118.96 101.033 124.197 118.622 129.645 131.584C133.77 141.387 150.484 181.062 157.115 186.419C159.741 188.52 167.101 188.562 168.473 188.037C169.846 187.511 170.98 185.705 171.561 182.379C173.361 171.994 172.604 153.725 171.491 142.836C170.56 133.789 168.249 109.806 162.451 98.5537Z" fill="#4F52FF"/>
<path d="M153.824 9.6663C156.625 14.4979 156.365 23.5309 154.524 24.3712C150.61 26.1988 142.186 22.8097 139.399 17.9781C136.612 13.1465 137.543 7.41156 141.549 5.07978C145.554 2.74801 151.037 4.82769 153.824 9.6663Z" fill="#FFAD94"/>
<path d="M149.23 31.2191H141.703V19.7703L150.393 20.2535C150.393 20.2535 148.166 26.2615 149.23 31.2191Z" fill="#FFAD94"/>
<path d="M152.599 10.3453C152.599 10.3453 156.016 12.0259 157.178 12.1519C158.34 12.2779 158.838 12.7051 157.829 13.9515C157.088 14.7661 156.139 15.3639 155.084 15.6811L152.599 10.3453Z" fill="#FFAD94"/>
<path d="M203.365 54.8804C203.282 54.5273 203.07 54.2179 202.771 54.0121C202.472 53.8064 202.107 53.7191 201.748 53.767C197.161 54.3622 184.34 56.729 183.066 57.3032C181.791 57.8774 167.051 47.787 166.197 46.6947C160.539 45.2242 166.197 57.4222 163.795 60.6993C165.651 63.8504 176.63 67.0924 176.63 67.0924C183.248 68.724 198.562 61.9247 203.316 59.3899C203.594 59.2326 203.813 58.9887 203.94 58.6954C204.066 58.4021 204.093 58.0754 204.017 57.7653L203.365 54.8804Z" fill="#E1473D"/>
<path d="M170.02 58.7358C168.928 59.9612 167.478 61.4947 166.295 62.6361C160.301 59.541 156.807 58.7008 149.623 52.6438C143.082 46.4747 136.85 44.5631 138.216 37.6798C139.616 32.414 147.13 30.7895 147.158 30.8105C154.769 34.1786 166.666 46.2156 174.019 54.5554C172.954 56.1519 171.302 57.3003 170.02 58.7358Z" fill="#E1473D"/>
<path d="M139.314 27.9701C140.449 27.2699 139.433 26.3316 140.407 26.3246L148.536 27.2559C151.071 27.1929 149.811 28.5373 150.224 28.8944C161.288 38.5156 162.569 67.3092 166.61 91.6913C166.686 92.1429 166.733 92.5991 166.75 93.0568C167.109 93.8179 167.245 94.6653 167.142 95.5006C166.497 100.619 156.925 105.304 144.993 106.004C134.343 106.613 125.254 103.903 122.873 99.541V99.4989C122.817 99.4021 122.768 99.3015 122.726 99.1979C122.176 97.9517 121.922 96.5952 121.984 95.2345C122.166 85.7323 121.76 76.6923 123.055 68.6817C126.864 31.9615 138.894 27.8931 139.314 27.9701Z" fill="#BDD0FB"/>
<path d="M141.248 19.1823C141.248 19.1823 142.382 19.0142 142.34 17.0116C142.305 15.5341 143.495 14.1686 144.189 14.0006C144.882 13.8325 146.801 13.4194 147.207 10.6394C147.354 9.63109 146.969 8.1186 147.704 7.28532C147.943 7.04553 148.239 6.87181 148.565 6.78115C150.792 6.0249 153.404 6.6201 155.434 5.24764C157.465 3.87518 157.059 0.787159 154.916 0.086926C152.774 -0.613307 150.106 3.16094 148.131 2.69878C147.13 2.4607 146.605 1.59242 145.806 1.03923C144.796 0.420469 143.62 0.127141 142.438 0.198966C139.973 0.275992 137.649 1.2353 136.458 3.49005C135.758 4.81349 135.142 6.29099 133.594 6.76015C132.782 7.01923 131.921 7.11026 131.094 7.34133C129.621 7.72669 128.348 8.65464 127.53 9.93919C125.752 12.9082 128.027 16.2413 130.772 17.6418C133.111 18.7831 132.775 20.3377 132.691 21.6401C132.53 23.9999 135.492 27.207 139.427 24.6861C140.239 25.5544 141.682 25.1623 141.682 25.1623L142.627 22.5364C142.627 22.5364 141.339 20.6178 141.248 19.1823Z" fill="#232A2B"/>
<path d="M141.465 15.45C142.018 16.9905 143.159 17.9849 144.02 17.6838C144.882 17.3827 145.134 15.8772 144.588 14.3367C144.041 12.7962 142.9 11.8018 142.032 12.1099C141.164 12.418 140.918 13.9095 141.465 15.45Z" fill="#FFAD94"/>
<path d="M552.083 223.196L556.495 232.747C556.495 232.747 555.038 236.808 551.145 237.165L547.406 227.635C547.406 227.635 552.083 222.866 552.083 223.196Z" fill="#232A2B"/>
<path d="M548.862 230.982C548.862 230.982 550.815 234.119 550.101 236.107C549.387 238.096 547.706 238.971 545.059 240.365C541.642 242.164 539.955 249.951 545.76 245.266C546.621 244.566 551.298 240.596 552.265 237.011C552.727 235.26 550.962 233.159 550.164 232.774L548.862 230.982Z" fill="#232A2B"/>
<path d="M546.558 232.802C539.262 226.843 510.769 191.167 510.769 191.167C505.336 184.416 504.964 178.961 508.298 176.28L509.411 175.376C512.744 172.701 522.715 172.575 522.764 172.575C535.661 188.21 546.574 205.379 555.255 223.692C555.494 224.171 555.606 224.704 555.581 225.238C555.555 225.773 555.392 226.292 555.108 226.745C553.666 229.035 550.522 233.076 546.558 232.802Z" fill="#4F52FF"/>
<path d="M484.728 233.118L483.461 243.565C483.461 243.565 480.092 246.261 476.591 244.525L478.405 234.448C478.405 234.448 484.861 232.831 484.728 233.118Z" fill="#232A2B"/>
<path d="M477.922 238.075C477.922 238.075 477.922 241.765 476.283 243.082C474.645 244.398 472.74 244.265 469.764 244.062C465.906 243.803 460.388 249.545 467.81 248.579C468.91 248.432 474.981 247.507 477.677 244.958C478.993 243.719 478.594 241.002 478.125 240.26L477.922 238.075Z" fill="#232A2B"/>
<path d="M476.563 236.892C470.597 223.531 469.001 183.968 470.114 176.357C470.114 176.357 491.191 174.956 491.191 174.991C491.226 188.065 489.237 222.25 487.088 233.531C486.972 234.157 486.682 234.739 486.251 235.208C485.82 235.678 485.266 236.016 484.651 236.185C482.172 236.864 478.083 237.788 476.563 236.892Z" fill="#4F52FF"/>
<path d="M418.647 62.4147C418.647 62.4147 422.19 61.7775 422.652 61.9526C422.806 62.0156 424.052 62.0226 424.354 64.2843C424.454 64.6926 424.442 65.1205 424.319 65.5225C424.196 65.9245 423.966 66.2855 423.653 66.5671C423.24 66.8472 421.511 66.8892 420.362 67.0572C420.321 67.4799 420.136 67.8756 419.837 68.1776C419.082 68.9853 418.109 69.5568 417.036 69.8232C415.538 70.2923 413.535 71.1116 412.015 70.8245C410.496 70.5374 410.846 69.6691 410.846 69.6691C410.651 69.6925 410.453 69.6632 410.274 69.5844C410.094 69.5056 409.939 69.3802 409.824 69.221C409.707 69.0473 409.627 68.851 409.591 68.6447C409.555 68.4383 409.563 68.2267 409.614 68.0236C409.196 67.8989 408.824 67.6556 408.542 67.3233C408.365 66.9575 408.323 66.5408 408.423 66.147C408.423 66.147 407.464 66.224 407.219 65.4467C406.974 64.6695 408.283 63.6892 408.71 63.4931L409.957 62.9259C409.957 62.9259 408.738 61.8335 409.256 61.4484C409.516 61.2523 411.357 61.2593 412.597 60.5241C413.997 59.6768 415.699 60.349 416.231 60.6291C417.097 61.1377 417.906 61.7362 418.647 62.4147Z" fill="#FFAD94"/>
<path d="M517.842 14.8897C516.56 11.8437 513.479 12.9781 513.479 12.9781C513.479 12.9781 515.398 9.04279 512.555 7.42525C509.712 5.80771 508.501 8.56664 506.953 8.07648C505.707 7.69135 505.791 6.67599 505.146 6.0878C504.885 6.65684 504.471 7.14182 503.949 7.48827C501.729 8.97976 499.131 9.77103 496.996 11.4096C496.566 11.7316 496.042 11.9038 495.504 11.8997C495.035 12.1636 494.509 12.3079 493.971 12.3199C494.993 13.7554 496.681 14.4206 499.832 13.7624C503.151 13.0621 504.033 14.4626 504.131 16.9134C504.229 19.3642 505.16 20.2465 505.16 20.2465C505.16 20.2465 507.401 18.8461 507.856 21.577C508.01 22.3103 507.911 23.0743 507.573 23.7435C507.236 24.4128 506.682 24.9475 506.001 25.2602C505.978 26.3155 505.868 27.3671 505.672 28.4042C505.314 30.561 505.539 30.82 507.331 30.2739C509.705 29.5736 511.687 28.4953 512.989 26.6537C514.291 24.8121 514.39 22.8794 513.318 22.3892C513.276 22.3752 519.032 17.7047 517.842 14.8897Z" fill="#232A2B"/>
<path d="M498.165 102.069C500.265 91.2293 537.539 80.2566 531.489 126.332C530.088 136.912 524.696 176.749 520.124 183.905C518.31 186.706 509.851 189.962 509.088 188.863C507.703 187.063 506.528 185.111 505.587 183.044C501.54 173.745 502.296 157.569 500.685 146.891C499.369 138.019 495.714 114.547 498.165 102.069Z" fill="#4F52FF"/>
<path d="M475.127 119.07C477.851 108.42 479.329 99.94 485.28 95.2624L518.191 100.311C521.356 113.917 508.542 124.819 499.383 149.082C497.808 153.284 493.564 170.502 491.211 180.033C488.915 189.346 480.708 192.056 476.85 190.536C470.408 188.064 470.169 181.104 470.036 179.767C468.692 165.958 472.753 128.362 475.127 119.07Z" fill="#4F52FF"/>
<path d="M514.033 52.8002C510.77 47.4925 513.571 33.5438 513.571 33.5438C521.652 29.2654 531.322 40.7352 534.795 48.2487C542.364 60.2577 545.726 71.7345 546.398 75.2777C547.098 79.087 544.199 86.8666 542.413 85.9773C539.136 84.3457 524.312 64.7532 515.539 61.7142C515.517 61.6722 514.033 52.8002 514.033 52.8002Z" fill="#E1473D"/>
<path d="M490.343 33.2148C490.343 33.2148 509.508 40.1821 505.047 43.9913L492.303 53.8366L492.233 53.8926C482.122 62.6876 464.343 69.2558 460.877 69.6129C458.986 69.8019 455.065 61.2101 460.548 57.3028C465.736 53.8856 482.927 38.1794 490.343 33.2148Z" fill="#E1473D"/>
<path d="M501.401 36.7022C503.404 36.2379 505.246 35.2411 506.73 33.8172L506.611 35.5188L502.878 42.7172L499.615 36.8212C500.213 36.8498 500.812 36.8099 501.401 36.7022Z" fill="#C080B1"/>
<path d="M421.735 64.6972L421.84 62.7296C421.921 61.7162 422.397 60.7754 423.167 60.1109C423.936 59.4464 424.936 59.1117 425.95 59.1794C452.195 60.0617 460.43 57.1207 460.43 57.1207C476.906 54.7399 466.599 70.8943 457.713 70.1801C457.713 70.1801 428.884 69.3748 424.802 68.5135C423.917 68.3538 423.119 67.8798 422.555 67.1786C421.992 66.4774 421.7 65.5962 421.735 64.6972Z" fill="#E1473D"/>
<path d="M499 30.8103C497.313 30.8103 490.597 36.3491 486.998 47.2587C483.924 56.6279 481.782 81.1571 481.144 98.2357C480.976 102.759 491.396 103.004 503.083 102.948C514.048 102.899 530.896 102.409 531.092 98.3198C531.435 89.987 521.625 45.6762 520.336 38.6739C514.174 30.3341 507.683 31.7486 506.962 31.4755L499 30.8103Z" fill="#FE7062"/>
<path d="M498.669 33.3197C498.669 33.3197 504.831 37.353 509.466 32.0943L508.213 27.8299L508.115 23.5374L497.163 27.0386C497.163 27.0386 499.04 28.6351 498.669 33.3197Z" fill="#FFAD94"/>
<path d="M504.747 28.3409C503.921 29.7414 502.807 32.3113 501.246 32.9765C500.857 33.1592 500.434 33.258 500.005 33.2664C499.575 33.2748 499.149 33.1927 498.753 33.0255C498.43 30.9834 497.907 28.978 497.191 27.0385L506.995 23.6074C506.447 25.2733 505.692 26.8636 504.747 28.3409Z" fill="#CE5F49"/>
<path d="M494.79 11.8437C491.338 23.1805 495.337 28.5162 497.164 28.9924C501.016 29.9867 508.067 25.4912 509.768 20.6666C511.47 15.842 509.635 10.7443 505.644 9.32285C501.653 7.90138 496.289 6.92804 494.79 11.8437Z" fill="#FFAD94"/>
<path d="M207.495 53.4412C204.211 67.4458 200.493 83.3691 191.67 92.1851C167.981 115.839 138 113.5 94.5 108.5C65.4997 104 54.0153 110.605 48 118.5C40 129 36.5 156 29.2441 169.615C14.2759 197.701 13 196.5 0 195V201C14.5 206 23.3048 199.504 36 171.5C53 134 42 108.105 93.4997 115.5C116.467 118.798 127.773 120.783 148.157 118.5C168.331 116.245 183.603 109.327 196.221 96.7296C206.347 86.6182 210.289 69.7636 213.727 54.8977C218.454 34.6749 239.313 37.5599 240.203 37.6929L240.686 34.5139L241.183 31.3278C231.681 29.8643 212.34 32.5812 207.495 53.4412Z" fill="#190E8E"/>
<path d="M308.344 24.1117H288.093C287.626 24.1099 287.178 23.9234 286.848 23.5928C286.517 23.2623 286.331 22.8145 286.329 22.3471C286.329 21.8791 286.515 21.4303 286.846 21.0994C287.177 20.7684 287.625 20.5825 288.093 20.5825H308.337C308.805 20.5844 309.252 20.7709 309.583 21.1014C309.913 21.4319 310.1 21.8797 310.102 22.3471C310.098 22.8128 309.912 23.2584 309.583 23.5884C309.255 23.9183 308.81 24.1062 308.344 24.1117Z" fill="#190E8E"/>
<path d="M308.344 46.0219H288.093C287.627 46.0219 287.179 45.8369 286.848 45.5075C286.517 45.1781 286.331 44.7311 286.329 44.2643C286.329 43.7963 286.515 43.3475 286.846 43.0165C287.177 42.6856 287.625 42.4997 288.093 42.4997H308.337C308.805 42.5015 309.252 42.6881 309.583 43.0186C309.913 43.3491 310.1 43.7969 310.102 44.2643C310.098 44.7293 309.912 45.1742 309.583 45.503C309.254 45.8319 308.809 46.0182 308.344 46.0219Z" fill="#190E8E"/>
<path d="M246.779 39.2999L234.609 37.6404C233.348 37.4653 232.396 35.7217 232.396 33.7471C232.396 31.7724 233.348 30.0218 234.609 29.8538L246.779 28.1872C249.657 27.7951 252.332 30.2879 252.332 33.7471C252.381 37.2202 249.671 39.6921 246.779 39.2999Z" fill="#999999"/>
<path d="M276.575 17.9849H254.853C251.005 17.9849 247.886 21.1043 247.886 24.9522V41.6598C247.886 45.5078 251.005 48.6271 254.853 48.6271H276.575C280.423 48.6271 283.542 45.5078 283.542 41.6598V24.9522C283.542 21.1043 280.423 17.9849 276.575 17.9849Z" fill="url(#paint0_linear)"/>
<path d="M289.669 14.8267H274.256C272.307 14.8267 270.727 16.4068 270.727 18.3559V48.2558C270.727 50.2049 272.307 51.785 274.256 51.785H289.669C291.618 51.785 293.198 50.2049 293.198 48.2558V18.3559C293.198 16.4068 291.618 14.8267 289.669 14.8267Z" fill="#999999"/>
<path d="M273.151 11.5776H270.175C269.15 11.5776 268.319 12.4084 268.319 13.4332V53.1784C268.319 54.2033 269.15 55.034 270.175 55.034H273.151C274.175 55.034 275.006 54.2033 275.006 53.1784V13.4332C275.006 12.4084 274.175 11.5776 273.151 11.5776Z" fill="#BBBDBF"/>
<g style="mix-blend-mode:multiply">
<path d="M268.298 17.95H264.783V48.5922H268.298V17.95Z" fill="#E6E7E8"/>
</g>
<g style="mix-blend-mode:multiply">
<path d="M247.829 28.1733C247.485 28.1314 247.137 28.1314 246.792 28.1733L243.767 28.5865V38.9219L246.792 39.3351C247.137 39.377 247.485 39.377 247.829 39.3351V28.1733Z" fill="#CCCCCC"/>
</g>
<g style="mix-blend-mode:multiply">
<path d="M276.918 14.8898H274.978V51.8481H276.918V14.8898Z" fill="#808080"/>
</g>
<path d="M531.384 94.1701C530.81 89.6886 530.11 85.2305 529.284 80.7956C528.409 76.1811 528.254 74.9277 527.183 70.3622C524.221 66.1608 521.434 61.8403 518.983 60.4819C514.012 59.2565 512.919 42.829 514.236 39.4749C514.828 37.7837 515.559 36.1443 516.421 34.5733C516.834 33.873 517.926 33.1728 517.821 32.2205C517.674 30.778 515.811 30.855 514.516 30.925H514.376C512.065 30.6239 510.581 32.0804 509.733 34.1041C509.01 35.8749 508.432 37.7015 508.004 39.5659C507.437 41.9607 507.303 44.6986 506.449 47.0094C505.637 49.1871 504.348 49.4392 502.248 49.6843C501.044 49.8233 499.833 49.8887 498.621 49.8803C496.219 49.8803 491.842 50.0974 491.821 46.7993C491.779 42.1148 493.593 36.933 495.638 32.7947C495.699 32.662 495.722 32.515 495.704 32.37C495.687 32.2249 495.63 32.0875 495.539 31.973C495.449 31.8584 495.328 31.7712 495.191 31.721C495.054 31.6707 494.905 31.6594 494.762 31.6883C494.031 31.4246 493.24 31.3712 492.48 31.5342C491.651 31.5604 490.838 31.7684 490.099 32.1434C489.592 32.5578 489.243 33.1339 489.111 33.775C489.105 33.8308 489.105 33.8872 489.111 33.9431C487.998 36.3308 487.046 37.9484 486.38 40.5042C486.044 41.8207 485.778 44.0054 485.568 45.3288C485.218 47.5486 485.89 59.2355 483.208 60.2788C481.577 60.909 480.036 65.9927 479.399 74.1504C478.993 79.3952 477.453 105.892 477.298 110.43C477.228 112.222 502.507 108.378 507.703 108.441C514.754 108.525 531.637 116.375 532.26 113.244C533.387 106.732 531.868 97.9024 531.384 94.1701Z" fill="#4F52FF"/>
<path d="M532.12 113.146C533.387 106.704 531.868 97.8742 531.419 94.142C530.845 89.6605 530.145 85.2023 529.319 80.7675C528.443 76.153 528.289 74.8995 527.218 70.334C524.256 66.1326 521.469 61.8122 519.018 60.4537C518.772 60.3872 518.536 60.2858 518.318 60.1526C518.017 67.7152 517.814 75.2777 516.273 82.7212C514.943 89.1213 512.142 94.9542 509.187 100.724C513.248 104.029 515.139 110.261 517.177 114.729C520.674 122.688 523.627 130.877 526.014 139.237C526.959 142.402 527.729 145.539 528.352 148.732C529.858 139.237 531.034 130.484 531.58 126.325C532.189 122.04 532.372 117.705 532.127 113.384C532.134 113.305 532.131 113.225 532.12 113.146Z" fill="#190E8E"/>
<path d="M623.985 213.748C609 214.5 602 215.5 595 216C579 216.5 569 208.5 563 199.5C558.84 193.26 551.933 183.097 547.816 161.782C544.316 136.782 538 132 519.639 115.394C501.034 97.6855 481.743 93.9603 471.898 93.316C470.357 93.218 468.642 93.155 466.828 93.099C452.179 92.5948 430.045 91.8316 418.757 68.2477C410.977 48.8302 400.985 36.6042 389.06 31.8986C379.656 28.1944 372.577 30.7992 372.254 30.9113L374.544 36.9333C374.754 36.8492 396.209 29.2657 412.798 70.7335L412.882 70.9226C425.836 98.1337 451.346 99.0089 466.583 99.5341C468.347 99.5901 470.021 99.6461 471.484 99.7442C480.461 100.332 498.093 103.75 515.207 120.051C534.05 137.977 536.843 138.954 541.5 163C546.156 187.046 550.571 194 554.5 199.5C559.5 206.499 565.655 213.523 569 216C576 221.183 588 223.226 595.658 222.4C602.5 221.662 611.5 221 624 220.183L623.985 213.748Z" fill="#BDD0FB"/>
<path d="M504.88 102.79C504.88 102.79 508.192 101.39 508.675 101.432C508.843 101.432 510.076 101.179 510.867 103.315C511.057 103.69 511.142 104.109 511.113 104.529C511.083 104.948 510.94 105.352 510.699 105.696C510.363 106.06 508.689 106.501 507.604 106.921C507.662 107.342 507.573 107.77 507.352 108.133C506.791 109.098 505.961 109.879 504.964 110.381C503.612 111.179 501.869 112.425 500.3 112.481C498.732 112.537 498.9 111.627 498.9 111.627C498.716 111.692 498.517 111.707 498.325 111.67C498.133 111.633 497.954 111.546 497.808 111.417C497.653 111.276 497.53 111.104 497.446 110.912C497.363 110.72 497.321 110.513 497.324 110.304C496.888 110.273 496.47 110.118 496.12 109.855C495.862 109.54 495.725 109.142 495.735 108.735C495.735 108.735 494.818 109.029 494.411 108.336C494.005 107.643 495.042 106.389 495.413 106.095L496.498 105.262C496.498 105.262 495.098 104.478 495.469 103.987C495.679 103.735 497.478 103.329 498.508 102.328C499.698 101.179 501.491 101.446 502.072 101.628C503.047 101.912 503.989 102.302 504.88 102.79Z" fill="#FFAD94"/>
<path d="M201.145 66.63C201.145 66.63 197.588 67.1902 197.21 67.5053C197.084 67.6173 195.907 68.0305 196.362 70.2642C196.4 70.6818 196.55 71.0815 196.797 71.4206C197.043 71.7597 197.377 72.0256 197.763 72.1898C198.246 72.3229 199.899 71.7977 201.04 71.5806C201.213 71.968 201.518 72.2809 201.901 72.4629C202.887 72.9849 204.005 73.2041 205.115 73.0931C206.684 73.0511 208.827 73.1772 210.192 72.3929C211.558 71.6086 210.892 70.9154 210.892 70.9154C211.084 70.8748 211.26 70.783 211.403 70.6498C211.546 70.5166 211.65 70.347 211.705 70.1591C211.759 69.9574 211.77 69.7466 211.737 69.5404C211.705 69.3341 211.629 69.137 211.516 68.9618C211.87 68.704 212.143 68.3488 212.3 67.9394C212.346 67.5333 212.247 67.124 212.02 66.784C212.02 66.784 212.958 66.546 212.937 65.7477C212.916 64.9494 211.361 64.4312 210.892 64.3472L209.527 64.2212C209.527 64.2212 210.325 62.8207 209.723 62.5966C209.408 62.4916 207.671 63.1078 206.264 62.8137C204.639 62.4706 203.274 63.654 202.861 64.0951C202.199 64.8756 201.624 65.7255 201.145 66.63Z" fill="#FFAD94"/>
<path d="M508.739 106.417L506.687 102.825C506.514 102.569 506.395 102.281 506.336 101.978C506.278 101.675 506.281 101.363 506.347 101.061C506.412 100.759 506.538 100.474 506.717 100.222C506.896 99.9704 507.124 99.7577 507.388 99.5967C511.47 97.5111 515.393 95.1262 519.123 92.4613C525.07 87.826 529.863 81.8776 533.128 75.0816C534.76 71.6364 546.51 77.4413 546.363 78.5267C545.277 86.6914 535.67 97.0619 529.788 99.9048L525.475 102.006H525.412C520.89 104.272 516.19 106.162 511.358 107.656C510.846 107.76 510.315 107.695 509.843 107.471C509.371 107.248 508.984 106.878 508.739 106.417Z" fill="#E1473D"/>
<path d="M372.218 38.8588L384.388 37.1993C385.649 37.0242 386.601 35.2806 386.601 33.306C386.601 31.3313 385.649 29.5807 384.388 29.4127L372.218 27.7181C369.34 27.326 366.666 29.8188 366.666 33.2779C366.666 36.7791 369.319 39.2509 372.218 38.8588Z" fill="#999999"/>
<g style="mix-blend-mode:multiply">
<path d="M374.69 28.0892L372.218 27.7461C369.34 27.354 366.666 29.8468 366.666 33.306C366.666 36.7651 369.34 39.2509 372.218 38.8588L374.69 38.5227V28.0892Z" fill="#CCCCCC"/>
</g>
<path d="M342.431 48.62H364.152C368 48.62 371.119 45.5007 371.119 41.6527V24.9451C371.119 21.0972 368 17.9778 364.152 17.9778L342.431 17.9778C338.583 17.9778 335.464 21.0972 335.464 24.9451V41.6527C335.464 45.5007 338.583 48.62 342.431 48.62Z" fill="url(#paint1_linear)"/>
<path d="M329.337 51.7781H344.749C346.698 51.7781 348.278 50.1981 348.278 48.249V18.349C348.278 16.3999 346.698 14.8198 344.749 14.8198H329.337C327.387 14.8198 325.807 16.3999 325.807 18.349V48.249C325.807 50.1981 327.387 51.7781 329.337 51.7781Z" fill="#999999"/>
<g style="mix-blend-mode:multiply">
<path d="M344.75 14.8267H341.039V51.785H344.75C345.675 51.7741 346.559 51.4017 347.213 50.7475C347.868 50.0932 348.24 49.209 348.251 48.2838V18.3839C348.257 17.4484 347.891 16.5489 347.235 15.8822C346.579 15.2155 345.685 14.8359 344.75 14.8267Z" fill="#808080"/>
</g>
<path d="M345.862 55.0343H348.838C349.863 55.0343 350.694 54.2035 350.694 53.1787V13.4335C350.694 12.4087 349.863 11.5779 348.838 11.5779H345.862C344.837 11.5779 344.007 12.4087 344.007 13.4335V53.1787C344.007 54.2035 344.837 55.0343 345.862 55.0343Z" fill="#BBBDBF"/>
<path d="M364.594 25.6596H353.264C353.092 25.6596 352.926 25.591 352.804 25.4689C352.682 25.3468 352.613 25.1811 352.613 25.0084C352.613 24.8357 352.682 24.6701 352.804 24.5479C352.926 24.4258 353.092 24.3572 353.264 24.3572H364.594C364.767 24.3572 364.932 24.4258 365.054 24.5479C365.177 24.6701 365.245 24.8357 365.245 25.0084C365.245 25.1811 365.177 25.3468 365.054 25.4689C364.932 25.591 364.767 25.6596 364.594 25.6596Z" fill="#999999"/>
<path d="M364.594 28.9784H353.264C353.092 28.9784 352.926 28.9099 352.804 28.7877C352.682 28.6656 352.613 28.5 352.613 28.3272C352.613 28.1545 352.682 27.9889 352.804 27.8668C352.926 27.7446 353.092 27.676 353.264 27.676H364.594C364.767 27.676 364.932 27.7446 365.054 27.8668C365.177 27.9889 365.245 28.1545 365.245 28.3272C365.245 28.5 365.177 28.6656 365.054 28.7877C364.932 28.9099 364.767 28.9784 364.594 28.9784Z" fill="#999999"/>
<path d="M364.594 32.2978H353.264C353.092 32.2978 352.926 32.2292 352.804 32.107C352.682 31.9849 352.613 31.8193 352.613 31.6465C352.613 31.561 352.63 31.4763 352.663 31.3973C352.695 31.3183 352.743 31.2465 352.804 31.1861C352.864 31.1256 352.936 31.0776 353.015 31.0449C353.094 31.0122 353.179 30.9953 353.264 30.9953H364.594C364.68 30.9953 364.764 31.0122 364.843 31.0449C364.922 31.0776 364.994 31.1256 365.054 31.1861C365.115 31.2465 365.163 31.3183 365.196 31.3973C365.228 31.4763 365.245 31.561 365.245 31.6465C365.245 31.8193 365.177 31.9849 365.054 32.107C364.932 32.2292 364.767 32.2978 364.594 32.2978Z" fill="#999999"/>
<path d="M364.594 35.6097H353.264C353.093 35.6097 352.928 35.542 352.806 35.4214C352.684 35.3008 352.615 35.1369 352.613 34.9655C352.613 34.7927 352.682 34.6271 352.804 34.505C352.926 34.3828 353.092 34.3142 353.264 34.3142H364.594C364.767 34.3142 364.932 34.3828 365.054 34.505C365.177 34.6271 365.245 34.7927 365.245 34.9655C365.243 35.1369 365.174 35.3008 365.052 35.4214C364.93 35.542 364.766 35.6097 364.594 35.6097Z" fill="#999999"/>
<path d="M364.594 38.9219H353.264C353.092 38.9219 352.926 38.8533 352.804 38.7312C352.682 38.6091 352.613 38.4434 352.613 38.2707C352.615 38.0992 352.684 37.9354 352.806 37.8148C352.928 37.6941 353.093 37.6265 353.264 37.6265H364.594C364.766 37.6265 364.93 37.6941 365.052 37.8148C365.174 37.9354 365.243 38.0992 365.245 38.2707C365.245 38.4434 365.177 38.6091 365.054 38.7312C364.932 38.8533 364.767 38.9219 364.594 38.9219Z" fill="#999999"/>
<path d="M364.594 42.248H353.264C353.092 42.248 352.926 42.1794 352.804 42.0573C352.682 41.9352 352.613 41.7695 352.613 41.5968C352.615 41.4253 352.684 41.2615 352.806 41.1409C352.928 41.0203 353.093 40.9526 353.264 40.9526H364.594C364.766 40.9526 364.93 41.0203 365.052 41.1409C365.174 41.2615 365.243 41.4253 365.245 41.5968C365.245 41.7695 365.177 41.9352 365.054 42.0573C364.932 42.1794 364.767 42.248 364.594 42.248Z" fill="#999999"/>
<path d="M413.576 68.4505C413.793 68.2613 413.964 68.0244 414.074 67.7584C414.185 67.4924 414.232 67.2044 414.213 66.917C414.195 66.6729 414.081 66.4459 413.896 66.2858C413.711 66.1256 413.47 66.0454 413.226 66.0628C413.445 65.849 413.596 65.5758 413.66 65.2771C413.725 64.9784 413.701 64.6672 413.59 64.3822C413.502 64.097 413.307 63.8572 413.046 63.7134C412.785 63.5697 412.477 63.5333 412.19 63.6119C412.345 63.3534 412.399 63.0469 412.344 62.7507C412.292 62.5076 412.164 62.2873 411.979 62.1212C411.794 61.9552 411.562 61.8519 411.314 61.8264C409.578 61.5042 408.191 63.0937 407.491 64.4592C407.46 64.5191 407.453 64.5886 407.471 64.6536C407.489 64.7186 407.531 64.7743 407.589 64.8093C407.596 64.8434 407.611 64.8753 407.633 64.9022C407.655 64.9291 407.683 64.9501 407.715 64.9634C409.291 65.7126 410.243 67.5613 411.118 68.9967C411.609 69.809 411.819 70.7963 412.883 70.5373C414.332 70.2011 414.536 68.7096 413.576 68.4505Z" fill="#FFAD94"/>
<path d="M213.869 57.9757C214.905 57.5696 214.499 56.6523 214.443 55.707C214.345 54.0264 214.072 51.9607 214.94 50.4482C214.955 50.4177 214.963 50.3842 214.963 50.3502C214.963 50.3162 214.955 50.2827 214.94 50.2521C214.967 50.1897 214.969 50.1193 214.945 50.0555C214.922 49.9917 214.875 49.9393 214.814 49.909C213.463 49.2088 211.418 48.6696 210.171 49.909C209.983 50.0724 209.852 50.2911 209.795 50.5337C209.738 50.7764 209.76 51.0307 209.856 51.2605C209.979 51.5345 210.199 51.7537 210.473 51.8767C210.201 51.9796 209.979 52.1808 209.849 52.4402C209.719 52.6997 209.692 52.9984 209.772 53.2772C209.846 53.5736 210.004 53.8422 210.228 54.0499C210.452 54.2577 210.732 54.3955 211.033 54.4466C210.822 54.572 210.669 54.7754 210.608 55.0127C210.546 55.2499 210.581 55.5019 210.704 55.714C210.853 55.9608 211.057 56.1704 211.3 56.3269C211.542 56.4834 211.817 56.5827 212.104 56.6173C211.495 57.3945 212.51 58.5289 213.869 57.9757Z" fill="#FFAD94"/>
<path d="M152.71 71.1955C147.108 65.9717 140.946 59.5436 136.451 53.2765L136.388 53.1995L132.733 48.2068C128.496 42.4159 134.329 33.803 134.329 33.803C138.419 30.799 144.665 30.5189 148.901 36.3098L152.556 41.3025L152.612 41.3865C156.454 46.6977 159.848 52.3189 162.759 58.1921C158.863 62.0753 155.485 66.446 152.71 71.1955Z" fill="#E1473D"/>
<g style="mix-blend-mode:multiply" opacity="0.5">
<path d="M166.61 91.6914C164.691 80.1235 163.395 67.5683 161.386 56.5397L155.084 55.5873C149.153 54.67 143.096 53.1646 137.081 52.5764C141.779 66.0068 148.333 79.6544 159.278 88.4773C161.673 90.4 164.242 92.0949 166.953 93.54C166.903 93.3872 166.845 93.2375 166.778 93.0918C166.753 92.6217 166.697 92.1538 166.61 91.6914Z" fill="#BDD0FB"/>
</g>
<path d="M199.225 67.9463C199.215 67.7865 199.17 67.6307 199.094 67.4896C199.018 67.3484 198.913 67.225 198.786 67.1276C198.659 67.0302 198.512 66.961 198.356 66.9247C198.2 66.8884 198.038 66.8857 197.881 66.917C192.153 68.0653 177.84 68.9056 175.137 69.5848C173.379 70.0461 171.513 69.8704 169.872 69.0886C168.23 68.3069 166.918 66.9696 166.167 65.3134C162.743 57.7089 157.905 48.5078 152.611 41.3865L152.555 41.3024L148.9 36.3098C146.337 33.8029 141.386 33.2708 137.304 36.3098C137.304 36.3098 131.002 44.7126 132.731 48.2137L136.386 53.2064L136.449 53.2834C144.691 64.7673 158.479 76.7973 164.347 80.9847C166.847 85.5642 177.112 84.1847 185.669 80.0954C185.669 80.0954 198.224 73.7933 199.547 72.6169L199.225 67.9463Z" fill="#FE7062"/>
<path d="M509.068 9.58206C508.568 10.1131 508.129 10.6978 507.758 11.3256C507.198 12.2429 506.659 11.6758 506.176 12.7261C506.351 12.8732 506.351 14.6377 506.519 14.7778C507.127 15.3076 507.677 15.9016 508.157 16.5494C508.809 12.7051 510.685 15.9332 510.853 17.1306C511.021 18.328 509.6 20.3516 510.58 20.3236C511.561 20.2956 512.492 17.1866 512.492 17.1866C512.254 12.1099 511.21 12.2289 509.964 10.3873C509.716 10.0677 509.412 9.79504 509.068 9.58206Z" fill="#0C232B"/>
<path d="M507.563 15.4499C507.269 15.5969 506.008 12.2148 505.735 12.2428C505.917 12.943 506.947 17.3265 507.192 18.2858C507.584 19.7843 508.536 19.8613 508.592 19.6863C508.669 19.3151 508.417 18.986 508.319 18.6429C508.203 17.8973 508.168 17.1414 508.214 16.3882C508.214 16.2761 507.976 15.2818 508.018 15.2608L507.563 15.4499Z" fill="#0C232B"/>
<path d="M495.056 12.5508C495.459 12.7693 495.881 12.9521 496.316 13.097H516.28C516.336 11.256 515.937 9.42964 515.119 7.77956C514.3 6.12948 513.088 4.70659 511.589 3.63686C507.744 1.12302 501.435 1.039 497.78 2.37645C495.413 3.25174 490.897 10.8073 495.056 12.5508Z" fill="#E1473D"/>
<path d="M494.663 13.0969H506.077C506 11.9835 503.773 11.4373 502.744 11.1502L488.2 7.11688C486.607 6.61288 484.963 6.28646 483.299 6.14356C482.927 6.09639 482.549 6.16744 482.22 6.34664C481.966 6.57131 481.794 6.87513 481.733 7.20919C481.672 7.54325 481.725 7.8881 481.884 8.18823C482.212 8.77571 482.697 9.26054 483.285 9.5887C486.464 11.6894 489.37 13.3 493.088 13.1529C493.611 13.1011 494.138 13.0824 494.663 13.0969Z" fill="#190E8E"/>
<defs>
<linearGradient id="paint0_linear" x1="247.886" y1="33.306" x2="283.542" y2="33.306" gradientUnits="userSpaceOnUse">
<stop offset="0.31" stop-color="#CCCCCC"/>
<stop offset="0.89" stop-color="#666666"/>
</linearGradient>
<linearGradient id="paint1_linear" x1="335.457" y1="33.3059" x2="371.119" y2="33.3059" gradientUnits="userSpaceOnUse">
<stop offset="0.2" stop-color="#666666"/>
<stop offset="0.57" stop-color="#CCCCCC"/>
</linearGradient>
</defs>
</svg>
