<svg width="548" height="207" viewBox="0 0 548 207" fill="none" xmlns="http://www.w3.org/2000/svg">
<path d="M515.065 53.2855C488.61 46.4882 445.712 54.4577 425.816 44.3748C406.45 34.5573 438.194 22.4986 421.525 13.2488C396.79 -0.476032 283.612 2.03056 213.294 22.0956C192.148 28.1286 183.916 33.1713 160.001 35.4051C108.645 40.1996 78.098 23.3489 52.6947 26.5559C-4.49243 33.7758 -52.4823 144.828 119.39 189.389C199.666 210.198 315.581 213.314 403.613 194.719C562.698 161.116 574.428 68.5339 515.065 53.2855Z" fill="#F3F5FB"/>
<ellipse cx="275.851" cy="190.275" rx="166.622" ry="6.5115" fill="#CED9F0"/>
<path fill-rule="evenodd" clip-rule="evenodd" d="M135.705 0H412.135C419.567 0 425.65 6.09896 425.65 13.5529V181.22C425.65 186.743 421.173 191.22 415.65 191.22H132.189C126.666 191.22 122.189 186.743 122.189 181.22V13.5529C122.189 6.09896 128.272 0 135.705 0Z" fill="#6D8CD1"/>
<path fill-rule="evenodd" clip-rule="evenodd" d="M134.618 179.117H413.223V12.1093H134.618V179.117Z" fill="white"/>
<path fill-rule="evenodd" clip-rule="evenodd" d="M382.468 23.9232H393.01C394.124 23.9232 395.036 24.8378 395.036 25.956V36.5266C395.036 37.6442 394.124 38.5587 393.01 38.5587H382.468C381.353 38.5587 380.441 37.6442 380.441 36.5266V25.956C380.441 24.8378 381.353 23.9232 382.468 23.9232Z" fill="#9DB3E1"/>
<path d="M151.832 38.4862C148.006 38.4862 144.906 35.3853 144.906 31.5602C144.906 27.735 148.006 24.6342 151.832 24.6342H362.844C366.669 24.6342 369.77 27.735 369.77 31.5602C369.77 35.3853 366.67 38.4862 362.844 38.4862H151.832Z" stroke="#B6C6E8"/>
<path fill-rule="evenodd" clip-rule="evenodd" d="M155.513 33.4171H326.937V29.7041H155.513V33.4171Z" fill="#CED9F0"/>
<path fill-rule="evenodd" clip-rule="evenodd" d="M183.206 56.9975H145.539C144.911 56.9975 144.406 56.4989 144.406 55.8859C144.406 55.2661 144.911 54.7676 145.539 54.7676H183.206C183.834 54.7676 184.333 55.2661 184.333 55.8859C184.333 56.4989 183.834 56.9975 183.206 56.9975ZM183.206 65.9036H145.539C144.911 65.9036 144.406 65.3983 144.406 64.7853C144.406 64.1722 144.911 63.6737 145.539 63.6737H183.206C183.834 63.6737 184.333 64.1722 184.333 64.7853C184.333 65.3983 183.834 65.9036 183.206 65.9036ZM183.206 74.8029H145.539C144.911 74.8029 144.406 74.3044 144.406 73.6846C144.406 73.0716 144.911 72.5731 145.539 72.5731H183.206C183.834 72.5731 184.333 73.0716 184.333 73.6846C184.333 74.3044 183.834 74.8029 183.206 74.8029Z" fill="#E7ECF7"/>
<path fill-rule="evenodd" clip-rule="evenodd" d="M248.929 56.9975H211.262C210.634 56.9975 210.128 56.4989 210.128 55.8859C210.128 55.2661 210.634 54.7676 211.262 54.7676H248.929C249.557 54.7676 250.056 55.2661 250.056 55.8859C250.056 56.4989 249.557 56.9975 248.929 56.9975ZM248.929 65.9036H211.262C210.634 65.9036 210.128 65.3983 210.128 64.7853C210.128 64.1722 210.634 63.6737 211.262 63.6737H248.929C249.557 63.6737 250.056 64.1722 250.056 64.7853C250.056 65.3983 249.557 65.9036 248.929 65.9036ZM248.929 74.8029H211.262C210.634 74.8029 210.128 74.3044 210.128 73.6846C210.128 73.0716 210.634 72.5731 211.262 72.5731H248.929C249.557 72.5731 250.056 73.0716 250.056 73.6846C250.056 74.3044 249.557 74.8029 248.929 74.8029Z" fill="#E7ECF7"/>
<path fill-rule="evenodd" clip-rule="evenodd" d="M314.652 56.9975H276.985C276.357 56.9975 275.851 56.4989 275.851 55.8859C275.851 55.2661 276.357 54.7676 276.985 54.7676H314.652C315.28 54.7676 315.778 55.2661 315.778 55.8859C315.778 56.4989 315.28 56.9975 314.652 56.9975ZM314.652 65.9036H276.985C276.357 65.9036 275.851 65.3983 275.851 64.7853C275.851 64.1722 276.357 63.6737 276.985 63.6737H314.652C315.28 63.6737 315.778 64.1722 315.778 64.7853C315.778 65.3983 315.28 65.9036 314.652 65.9036ZM314.652 74.8029H276.985C276.357 74.8029 275.851 74.3044 275.851 73.6846C275.851 73.0716 276.357 72.5731 276.985 72.5731H314.652C315.28 72.5731 315.778 73.0716 315.778 73.6846C315.778 74.3044 315.28 74.8029 314.652 74.8029Z" fill="#E7ECF7"/>
<path fill-rule="evenodd" clip-rule="evenodd" d="M370.192 145.18H332.525C331.897 145.18 331.392 144.682 331.392 144.069C331.392 143.449 331.897 142.951 332.525 142.951H370.192C370.82 142.951 371.319 143.449 371.319 144.069C371.319 144.682 370.82 145.18 370.192 145.18ZM370.192 154.087H332.525C331.897 154.087 331.392 153.581 331.392 152.968C331.392 152.355 331.897 151.857 332.525 151.857H370.192C370.82 151.857 371.319 152.355 371.319 152.968C371.319 153.581 370.82 154.087 370.192 154.087ZM370.192 162.986H332.525C331.897 162.986 331.392 162.487 331.392 161.868C331.392 161.255 331.897 160.756 332.525 160.756H370.192C370.82 160.756 371.319 161.255 371.319 161.868C371.319 162.487 370.82 162.986 370.192 162.986Z" fill="#E7ECF7"/>
<path fill-rule="evenodd" clip-rule="evenodd" d="M393.334 145.18H355.667C355.039 145.18 354.534 144.682 354.534 144.069C354.534 143.449 355.039 142.951 355.667 142.951H393.334C393.962 142.951 394.461 143.449 394.461 144.069C394.461 144.682 393.962 145.18 393.334 145.18ZM393.334 154.087H355.667C355.039 154.087 354.534 153.581 354.534 152.968C354.534 152.355 355.039 151.857 355.667 151.857H393.334C393.962 151.857 394.461 152.355 394.461 152.968C394.461 153.581 393.962 154.087 393.334 154.087ZM393.334 162.986H355.667C355.039 162.986 354.534 162.487 354.534 161.868C354.534 161.255 355.039 160.756 355.667 160.756H393.334C393.962 160.756 394.461 161.255 394.461 161.868C394.461 162.487 393.962 162.986 393.334 162.986Z" fill="#E7ECF7"/>
<path fill-rule="evenodd" clip-rule="evenodd" d="M144.543 125.484H315.967V88.184H144.543V125.484Z" fill="#9DB3E1"/>
<path fill-rule="evenodd" clip-rule="evenodd" d="M144.406 168.014H184.21V138.31H144.406V168.014Z" fill="#9DB3E1"/>
<path fill-rule="evenodd" clip-rule="evenodd" d="M210.128 168.014H249.932V138.31H210.128V168.014Z" fill="#9DB3E1"/>
<path fill-rule="evenodd" clip-rule="evenodd" d="M275.851 168.014H315.655V138.31H275.851V168.014Z" fill="#9DB3E1"/>
<path fill-rule="evenodd" clip-rule="evenodd" d="M331.392 89.1129H395.263V54.7676H331.392V89.1129Z" fill="#E7ECF7"/>
<path fill-rule="evenodd" clip-rule="evenodd" d="M331.392 106.75H395.263V97.467H331.392V106.75Z" fill="#E7ECF7"/>
<path fill-rule="evenodd" clip-rule="evenodd" d="M331.392 124.387H395.263V115.104H331.392V124.387Z" fill="#E7ECF7"/>
<g clip-path="url(#clip0)">
<path fill-rule="evenodd" clip-rule="evenodd" d="M338.431 36.955L348.126 20.1169C348.85 18.8592 350.204 18.0122 351.757 18.0122V18.0123L351.757 18.0122C353.309 18.0122 354.663 18.8592 355.387 20.1169L365.082 36.955C365.437 37.5725 365.642 38.2884 365.642 39.0526C365.642 41.3734 363.766 43.255 361.451 43.255H351.757H342.062C339.748 43.255 337.872 41.3734 337.872 39.0526C337.872 38.2884 338.076 37.5725 338.431 36.955Z" fill="#B6C6E8"/>
<path fill-rule="evenodd" clip-rule="evenodd" d="M360.119 41.5724H342.062C340.676 41.5724 339.548 40.4411 339.548 39.051C339.548 38.6094 339.664 38.1747 339.883 37.7936L349.578 20.9557C350.027 20.1757 350.862 19.691 351.757 19.691C351.781 19.691 351.805 19.6916 351.829 19.6927C351.865 19.6941 351.9 19.6966 351.936 19.7C352.762 19.7593 353.517 20.2297 353.936 20.9576L363.63 37.7956C363.849 38.1766 363.966 38.6114 363.966 39.0529C363.966 40.4431 362.837 41.5743 361.451 41.5743H360.12L360.119 41.5724Z" fill="#FFE799"/>
<path fill-rule="evenodd" clip-rule="evenodd" d="M351.757 23.9243H351.757C352.528 23.9243 353.154 24.5513 353.154 25.3251V32.8893C353.154 33.6626 352.528 34.2901 351.757 34.2901H351.757C350.985 34.2901 350.36 33.6626 350.36 32.8893V25.3251C350.36 24.5513 350.985 23.9243 351.757 23.9243ZM351.757 35.9698H351.757C352.528 35.9698 353.154 36.5968 353.154 37.3706C353.154 38.1435 352.53 38.77 351.759 38.7714L351.757 38.7714C350.985 38.7714 350.36 38.1444 350.36 37.3706C350.36 36.5968 350.985 35.9698 351.757 35.9698Z" fill="#6D8CD1"/>
</g>
<defs>
<clipPath id="clip0">
<rect x="337.872" y="16.7086" width="27.7703" height="27.8475" fill="white"/>
</clipPath>
</defs>
</svg>
