<svg width="48" height="48" viewBox="0 0 48 48" fill="none" xmlns="http://www.w3.org/2000/svg">
  <circle cx="24" cy="24" r="24" fill="white" fill-opacity="0.6"/>
  <path d="M22.2107 31.6062C21.705 32.1313 20.885 32.1313 20.3793 31.6062C19.8736 31.0811 19.8736 30.2297 20.3793 29.7046L26.7893 23.0492C27.295 22.5241 28.115 22.5241 28.6207 23.0492C29.1264 23.5743 29.1264 24.4257 28.6207 24.9508L22.2107 31.6062Z" fill="#0D4CD3"/>
  <path d="M20.3795 18.2954C19.8738 17.7703 19.8738 16.9189 20.3795 16.3938C20.8852 15.8687 21.7052 15.8687 22.2109 16.3938L28.6207 23.0492C29.1264 23.5743 29.1264 24.4257 28.6207 24.9508C28.115 25.4759 27.2952 25.4759 26.7895 24.9508L20.3795 18.2954Z" fill="#0D4CD3"/>
</svg>
