<svg width="7" height="12" viewBox="0 0 7 12" fill="none" xmlns="http://www.w3.org/2000/svg">
  <path d="M1.80707 11.0695C1.46991 11.4195 0.923275 11.4195 0.586119 11.0695C0.248964 10.7194 0.248964 10.1519 0.586119 9.80179L4.85944 5.36486C5.19659 5.01479 5.74323 5.01479 6.08039 5.36486C6.41754 5.71492 6.41754 6.28249 6.08039 6.63255L1.80707 11.0695Z" fill="#0D4CD3"/>
  <path d="M0.586251 2.19561C0.249095 1.84554 0.249095 1.27798 0.586251 0.927913C0.923406 0.577849 1.47004 0.577849 1.8072 0.927913L6.08039 5.36486C6.41754 5.71492 6.41754 6.28249 6.08039 6.63255C5.74323 6.98262 5.19672 6.9826 4.85957 6.63254L0.586251 2.19561Z" fill="#0D4CD3"/>
</svg>
