<svg width="24" height="24" viewBox="0 0 24 24" fill="none" xmlns="http://www.w3.org/2000/svg">
  <path d="M12 1.728C14.0316 1.728 16.0176 2.33044 17.7068 3.45914C19.396 4.58784 20.7126 6.19211 21.4901 8.06907C22.2676 9.94604 22.471 12.0114 22.0746 14.004C21.6783 15.9965 20.7 17.8268 19.2634 19.2634C17.8268 20.7 15.9965 21.6783 14.004 22.0746C12.0114 22.471 9.94604 22.2675 8.06908 21.4901C6.19212 20.7126 4.58785 19.396 3.45915 17.7068C2.33045 16.0176 1.728 14.0316 1.728 12C1.73118 9.27667 2.81443 6.66579 4.74011 4.74011C6.6658 2.81442 9.27667 1.73118 12 1.728ZM12 0C9.62663 0 7.30655 0.703788 5.33316 2.02236C3.35977 3.34094 1.8217 5.21508 0.913451 7.4078C0.00519939 9.60051 -0.232441 12.0133 0.230582 14.3411C0.693605 16.6689 1.83649 18.807 3.51472 20.4853C5.19295 22.1635 7.33115 23.3064 9.65892 23.7694C11.9867 24.2324 14.3995 23.9948 16.5922 23.0865C18.7849 22.1783 20.6591 20.6402 21.9776 18.6668C23.2962 16.6934 24 14.3734 24 12C24 8.8174 22.7357 5.76515 20.4853 3.51472C18.2348 1.26428 15.1826 0 12 0V0Z" fill="#FFC300"/>
  <path d="M12.0007 6.93894C12.5704 6.93894 13.1272 7.10785 13.6008 7.4243C14.0744 7.74076 14.4435 8.19056 14.6615 8.71681C14.8795 9.24306 14.9365 9.82213 14.8254 10.3808C14.7143 10.9395 14.44 11.4526 14.0372 11.8554C13.6344 12.2582 13.1213 12.5325 12.5626 12.6436C12.0039 12.7547 11.4249 12.6977 10.8986 12.4797C10.3724 12.2617 9.92257 11.8926 9.60611 11.419C9.28965 10.9454 9.12075 10.3885 9.12075 9.81894C9.12075 9.05511 9.42417 8.32257 9.96428 7.78247C10.5044 7.24236 11.2369 6.93894 12.0007 6.93894ZM12.0007 5.21094C11.0913 5.21094 10.2022 5.48063 9.44601 5.98591C8.68981 6.49119 8.10042 7.20936 7.75238 8.04961C7.40434 8.88985 7.31327 9.81444 7.4907 10.7064C7.66813 11.5984 8.10609 12.4178 8.74919 13.0609C9.39228 13.704 10.2116 14.1419 11.1036 14.3194C11.9956 14.4968 12.9202 14.4057 13.7605 14.0577C14.6007 13.7097 15.3189 13.1203 15.8242 12.3641C16.3295 11.6079 16.5991 10.7188 16.5991 9.80934C16.5991 8.58977 16.1147 7.42014 15.2523 6.55778C14.3899 5.69541 13.2203 5.21094 12.0007 5.21094Z" fill="#FFC300"/>
  <path d="M12.0011 14.4487C16.2155 14.4487 19.1531 16.5103 19.1531 18.3607C19.1531 20.2111 16.2155 22.2727 12.0011 22.2727C7.78669 22.2727 4.84909 20.2111 4.84909 18.3607C4.84909 16.5103 7.78669 14.4487 12.0011 14.4487ZM12.0011 12.7207C7.09789 12.7207 3.12109 15.2455 3.12109 18.3607C3.12109 21.4759 7.09789 24.0007 12.0011 24.0007C16.9043 24.0007 20.8811 21.4759 20.8811 18.3607C20.8811 15.2455 16.9043 12.7207 12.0011 12.7207Z" fill="#FFC300"/>
</svg>
