<svg width="24" height="24" viewBox="0 0 24 24" fill="none" xmlns="http://www.w3.org/2000/svg">
  <path d="M12 1.728C14.0316 1.728 16.0176 2.33044 17.7068 3.45914C19.396 4.58784 20.7126 6.19211 21.4901 8.06907C22.2676 9.94604 22.471 12.0114 22.0746 14.004C21.6783 15.9965 20.7 17.8268 19.2634 19.2634C17.8268 20.7 15.9965 21.6783 14.004 22.0746C12.0114 22.471 9.94604 22.2675 8.06908 21.4901C6.19212 20.7126 4.58785 19.396 3.45915 17.7068C2.33045 16.0176 1.728 14.0316 1.728 12C1.73118 9.27667 2.81443 6.66579 4.74011 4.74011C6.6658 2.81442 9.27667 1.73118 12 1.728ZM12 0C9.62663 0 7.30655 0.703788 5.33316 2.02236C3.35977 3.34094 1.8217 5.21508 0.913451 7.4078C0.00519939 9.60051 -0.232441 12.0133 0.230582 14.3411C0.693605 16.6689 1.83649 18.807 3.51472 20.4853C5.19295 22.1635 7.33115 23.3064 9.65892 23.7694C11.9867 24.2324 14.3995 23.9948 16.5922 23.0865C18.7849 22.1783 20.6591 20.6402 21.9776 18.6668C23.2962 16.6934 24 14.3734 24 12C24 8.8174 22.7357 5.76515 20.4853 3.51472C18.2348 1.26428 15.1826 0 12 0V0Z" fill="#317D34"/>
  <path d="M11.9998 6.93857C12.5694 6.93857 13.1262 7.10748 13.5998 7.42394C14.0734 7.7404 14.4426 8.19019 14.6605 8.71644C14.8785 9.24269 14.9356 9.82176 14.8244 10.3804C14.7133 10.9391 14.439 11.4523 14.0362 11.855C13.6335 12.2578 13.1203 12.5321 12.5616 12.6432C12.003 12.7544 11.4239 12.6973 10.8976 12.4793C10.3714 12.2614 9.92159 11.8922 9.60514 11.4186C9.28868 10.945 9.11977 10.3882 9.11977 9.81857C9.11977 9.05475 9.4232 8.32221 9.9633 7.7821C10.5034 7.242 11.2359 6.93857 11.9998 6.93857ZM11.9998 5.21057C11.0903 5.21057 10.2012 5.48026 9.44503 5.98554C8.68883 6.49082 8.09944 7.20899 7.7514 8.04924C7.40336 8.88949 7.3123 9.81407 7.48973 10.7061C7.66716 11.5981 8.10511 12.4174 8.74821 13.0605C9.39131 13.7036 10.2107 14.1416 11.1027 14.319C11.9947 14.4964 12.9193 14.4054 13.7595 14.0573C14.5997 13.7093 15.3179 13.1199 15.8232 12.3637C16.3285 11.6075 16.5982 10.7184 16.5982 9.80897C16.5982 8.5894 16.1137 7.41978 15.2513 6.55741C14.389 5.69504 13.2193 5.21057 11.9998 5.21057Z" fill="#317D34"/>
  <path d="M12.0011 14.4487C16.2155 14.4487 19.1531 16.5103 19.1531 18.3607C19.1531 20.2111 16.2155 22.2727 12.0011 22.2727C7.78669 22.2727 4.84909 20.2111 4.84909 18.3607C4.84909 16.5103 7.78669 14.4487 12.0011 14.4487ZM12.0011 12.7207C7.09789 12.7207 3.12109 15.2455 3.12109 18.3607C3.12109 21.4759 7.09789 24.0007 12.0011 24.0007C16.9043 24.0007 20.8811 21.4759 20.8811 18.3607C20.8811 15.2455 16.9043 12.7207 12.0011 12.7207Z" fill="#317D34"/>
</svg>
