<svg width="24" height="24" viewBox="0 0 24 24" fill="none" xmlns="http://www.w3.org/2000/svg">
<path fill-rule="evenodd" clip-rule="evenodd" d="M12 22.2C6.37556 22.2 1.79996 17.6244 1.79996 12C1.79996 6.37556 6.37556 1.79996 12 1.79996C17.6244 1.79996 22.2 6.37556 22.2 12C22.2 17.6244 17.6244 22.2 12 22.2ZM12 0C5.373 0 0 5.373 0 12C0 18.6276 5.373 24 12 24C18.6276 24 24 18.6276 24 12C24 5.373 18.6276 0 12 0Z" fill="#0B40B3"/>
<path d="M13.4941 9.24824C13.2184 9.24824 12.9945 9.02442 12.9945 8.74863V7.99922H10.9961V8.74863C10.9961 9.02442 10.7723 9.24824 10.4965 9.24824C10.2207 9.24824 9.99688 9.02442 9.99688 8.74863V7.99922C9.99688 7.44815 10.445 7 10.9961 7H12.9945C13.5456 7 13.9938 7.44815 13.9938 7.99922V8.74863C13.9938 9.02442 13.7699 9.24824 13.4941 9.24824ZM12.35 13.6848C12.2601 13.7198 12.1302 13.7447 11.9953 13.7447C11.8604 13.7447 11.7305 13.7197 11.6106 13.6748L6 11.8062V15.6183C6 16.3777 6.61452 16.9922 7.37393 16.9922H16.6167C17.3761 16.9922 17.9906 16.3777 17.9906 15.6183V11.8062L12.35 13.6848Z" fill="#0B40B3"/>
<path d="M17.9906 9.87295V11.0171L12.1152 12.9755C12.0753 12.9905 12.0353 12.9955 11.9953 12.9955C11.9553 12.9955 11.9154 12.9905 11.8754 12.9755L6 11.0171V9.87295C6 9.11354 6.61452 8.49902 7.37393 8.49902H16.6167C17.3761 8.49902 17.9906 9.11354 17.9906 9.87295Z" fill="#0B40B3"/>
</svg>
