<svg width="38px" height="35px" xmlns="http://www.w3.org/2000/svg" viewBox="0 0 38 35"><path id="Rectangle-6" d="M10,31.17l6.29-6.29A3,3,0,0,1,18.41,24H34a2,2,0,0,0,2-2V4a2,2,0,0,0-2-2H4A2,2,0,0,0,2,4V22a2,2,0,0,0,2,2h6ZM4,0H34a4,4,0,0,1,4,4V22a4,4,0,0,1-4,4H18.41a1,1,0,0,0-.7.29l-8,8A1,1,0,0,1,8,33.59V26H4a4,4,0,0,1-4-4V4A4,4,0,0,1,4,0Z" fill="#6ba9d2"/><path id="Rectangle-7" d="M7,6H31a1,1,0,0,1,1,1h0a1,1,0,0,1-1,1H7A1,1,0,0,1,6,7H6A1,1,0,0,1,7,6Z" fill="#6ba9d2"/><path id="Rectangle-7-Copy" d="M7,12H31a1,1,0,0,1,1,1h0a1,1,0,0,1-1,1H7a1,1,0,0,1-1-1H6A1,1,0,0,1,7,12Z" fill="#6ba9d2"/><path id="Rectangle-7-Copy-2" d="M7,18H31a1,1,0,0,1,1,1h0a1,1,0,0,1-1,1H7a1,1,0,0,1-1-1H6A1,1,0,0,1,7,18Z" fill="#6ba9d2"/></svg>
