<svg width="24" height="24" viewBox="0 0 24 24" fill="none" xmlns="http://www.w3.org/2000/svg"><path fill-rule="evenodd" clip-rule="evenodd" d="M12 22.2C6.37556 22.2 1.79996 17.6244 1.79996 12C1.79996 6.37556 6.37556 1.79996 12 1.79996C17.6244 1.79996 22.2 6.37556 22.2 12C22.2 17.6244 17.6244 22.2 12 22.2ZM12 0C5.373 0 0 5.373 0 12C0 18.6276 5.373 24 12 24C18.6276 24 24 18.6276 24 12C24 5.373 18.6276 0 12 0Z" fill="#317D34"/><path fill-rule="evenodd" clip-rule="evenodd" d="M15.9818 8.31401C15.8552 8.19221 15.65 8.19221 15.5234 8.31401L11.066 12.607L9.17003 10.7812C9.04403 10.6594 8.83823 10.6594 8.71162 10.7812L7.64183 11.812C7.51523 11.9338 7.51523 12.1318 7.64183 12.2536L10.8368 15.331C10.8998 15.3922 10.9832 15.4228 11.066 15.4228C11.1488 15.4228 11.2316 15.3922 11.2952 15.331L17.0516 9.78641C17.1128 9.72761 17.1464 9.64841 17.1464 9.56561C17.1464 9.48281 17.1128 9.40301 17.0516 9.34481L15.9818 8.31401Z" fill="#317D34"/></svg>
