<svg xmlns="http://www.w3.org/2000/svg" width="24" height="24" viewBox="0 0 36 36"><path d="M18,33.3A15.3,15.3,0,1,1,33.3,18,15.3,15.3,0,0,1,18,33.3M18,0A18,18,0,1,0,36,18,18,18,0,0,0,18,0" fill="#93ba24"/><path d="M18,15.58a1.73,1.73,0,1,1-1.73,1.73A1.73,1.73,0,0,1,18,15.58" fill="#93ba24"/><path d="M13.85,15.58a1.73,1.73,0,1,1-1.73,1.73,1.73,1.73,0,0,1,1.73-1.73" fill="#93ba24"/><path d="M22.15,15.58a1.73,1.73,0,1,1-1.73,1.73,1.73,1.73,0,0,1,1.73-1.73" fill="#93ba24"/><path d="M26.31,20.77a2.77,2.77,0,0,1-2.77,2.77H12.46a2.77,2.77,0,0,1-2.77-2.77V13.85a2.77,2.77,0,0,1,2.77-2.77H23.54a2.77,2.77,0,0,1,2.77,2.77ZM23.54,8.31H12.46a5.54,5.54,0,0,0-5.54,5.54v6.92a5.54,5.54,0,0,0,5.54,5.54h7.27l5.19,4.15V26.11a5.54,5.54,0,0,0,4.15-5.34V13.85a5.54,5.54,0,0,0-5.54-5.54Z" fill="#93ba24"/></svg>
