<svg width="24" height="24" viewBox="0 0 24 24" fill="none" xmlns="http://www.w3.org/2000/svg">
  <path d="M13.2929 1.70711L11.7071 3.29289C11.3166 3.68342 11.3166 4.31658 11.7071 4.70711L19.2929 12.2929C19.6834 12.6834 20.3166 12.6834 20.7071 12.2929L22.2929 10.7071C22.6834 10.3166 22.6834 9.68342 22.2929 9.29289L14.7071 1.70711C14.3166 1.31658 13.6834 1.31658 13.2929 1.70711Z" stroke="#EE3F58" stroke-width="1.5"/>
  <path d="M12.5 5.5L5.425 8.64445C4.2201 9.17995 3.35651 10.2748 3.11642 11.5713L1 23L12.4287 20.8836C13.7252 20.6435 14.82 19.7799 15.3556 18.575L18.5 11.5" stroke="#EE3F58" stroke-width="1.5" stroke-linejoin="round"/>
  <circle cx="8.5" cy="15.5" r="1.25" stroke="#EE3F58" stroke-width="1.5"/>
  <line x1="1.46967" y1="22.4697" x2="7.46967" y2="16.4697" stroke="#EE3F58" stroke-width="1.5"/>
</svg>
