<svg width="24" height="24" viewBox="0 0 24 24" fill="none" xmlns="http://www.w3.org/2000/svg">
<path fill-rule="evenodd" clip-rule="evenodd" d="M12 22.2C6.37564 22.2 1.80004 17.6244 1.80004 12C1.80004 6.37565 6.37564 1.80005 12 1.80005C17.6244 1.80005 22.2 6.37565 22.2 12C22.2 17.6244 17.6244 22.2 12 22.2ZM12 0C5.3724 0 0 5.373 0 12C0 18.6276 5.3724 24 12 24C18.627 24 24 18.6276 24 12C24 5.373 18.627 0 12 0Z" fill="#DF0024"/>
<path fill-rule="evenodd" clip-rule="evenodd" d="M14.548 7.84609L16.8108 10.1088L15.0872 11.8324L12.8244 9.56966L14.548 7.84609ZM11.6931 8.43829L14.5657 5.56567L19.0912 10.0912L16.2185 12.9638L16.7842 13.5295L12.7626 17.5511C11.4934 18.8204 9.45142 18.8362 8.20174 17.5865L7.07037 16.4551C5.82069 15.2055 5.83652 13.1635 7.10573 11.8943L11.1274 7.8726L11.6931 8.43829ZM8.2371 13.0257L11.1097 10.153L14.5038 13.5472L11.6312 16.4198C10.9966 17.0544 9.97563 17.0623 9.35079 16.4375L8.21942 15.3061C7.59458 14.6812 7.6025 13.6603 8.2371 13.0257Z" fill="#DF0024"/>
<path d="M11.0744 14.7139L9.94299 13.5825L9.36847 14.157L10.4998 15.2884L11.0744 14.7139Z" fill="#DF0024"/>
<path d="M14.822 9.26905L14.2563 8.70337L13.6818 9.27789L14.2474 9.84358L14.822 9.26905Z" fill="#DF0024"/>
<path d="M15.9534 10.4006L15.3877 9.83496L14.8132 10.4095L15.3789 10.9752L15.9534 10.4006Z" fill="#DF0024"/>
</svg>
