<svg width="24" height="25" viewBox="0 0 24 25" fill="none" xmlns="http://www.w3.org/2000/svg">
  <path d="M10.3081 12.2617L6.08813 16.4817L6.07812 18.4217L7.97813 18.4117L12.2181 14.1717" stroke="#0D4CD3" stroke-width="1.5" stroke-linecap="round" stroke-linejoin="round"/>
  <path d="M17.3997 9.45866L15.0397 7.09866C14.4897 6.45866 13.5297 6.37866 12.8797 6.92866C12.8197 6.97866 12.7597 7.03866 12.7097 7.09866L8.92969 10.8887L13.5997 15.5487L17.3997 11.7787C18.1297 11.0587 18.1297 10.1887 17.3997 9.45866Z" stroke="#0D4CD3" stroke-width="1.5" stroke-linecap="round" stroke-linejoin="round"/>
  <path d="M13.7094 11.6414C14.1788 11.6414 14.5594 11.2608 14.5594 10.7914C14.5594 10.322 14.1788 9.94141 13.7094 9.94141C13.2399 9.94141 12.8594 10.322 12.8594 10.7914C12.8594 11.2608 13.2399 11.6414 13.7094 11.6414Z" fill="#0D4CD3"/>
  <path d="M1.71156 9.63859C1.82156 7.85859 2.58156 6.54859 4.06156 5.55859C5.99156 4.26859 7.56156 3.36859 9.64156 2.33859C11.2416 1.54859 12.7516 1.54859 14.3516 2.33859C16.4316 3.36859 18.0016 4.26859 19.9316 5.55859C21.4216 6.54859 22.1716 7.84859 22.2816 9.62859C22.4216 11.8486 22.4416 13.8986 22.2816 16.3586C22.1616 18.1386 21.4116 19.4486 19.9216 20.4286C17.9916 21.7186 16.4216 22.6186 14.3516 23.6486C12.7516 24.4386 11.2416 24.4386 9.64156 23.6486C7.56156 22.6186 5.99156 21.7186 4.06156 20.4286C2.57156 19.4386 1.82156 18.1286 1.70156 16.3486C1.57156 14.1386 1.56156 12.0886 1.71156 9.63859Z" stroke="#0D4CD3" stroke-width="1.5" stroke-linejoin="round"/>
</svg>
