<svg width="25" height="24" viewBox="0 0 25 24" fill="none" xmlns="http://www.w3.org/2000/svg">
  <path d="M24 22.5H15.6048C12.6403 22.5 9.78075 21.4027 7.57725 19.4195L2.38295 14.7447C1.6108 14.0497 1.52606 12.8687 2.1911 12.0707V12.0707C2.90178 11.2179 4.18313 11.1376 4.99469 11.895L10.7118 17.2311C10.897 17.4039 11.1409 17.5 11.3942 17.5H16.5" stroke="#0D4CD3" stroke-width="1.5" stroke-linecap="round" stroke-linejoin="round"/>
  <path d="M24 18V17C24 15.3431 22.6569 14 21 14H12.25C11.2835 14 10.5 14.7835 10.5 15.75V15.75C10.5 16.7165 11.2835 17.5 12.25 17.5H16" stroke="#0D4CD3" stroke-width="1.5" stroke-linecap="round"/>
  <path d="M11.5 4V3.75C11.5 2.23122 12.7312 1 14.25 1V1C15.7688 1 17 2.23122 17 3.75V4.25C17 5.49264 15.9926 6.5 14.75 6.5V6.5C14.3358 6.5 14 6.83579 14 7.25V8.5" stroke="#0D4CD3" stroke-width="1.5" stroke-linecap="round"/>
  <circle cx="13.9492" cy="10.75" r="0.75" fill="#0D4CD3"/>
</svg>
