<svg width="24" height="24" viewBox="0 0 24 24" fill="none" xmlns="http://www.w3.org/2000/svg"><g clip-path="url(#clip0)"><path fill-rule="evenodd" clip-rule="evenodd" d="M16.0592 14.7302C15.443 14.7302 14.9246 15.2486 14.9246 15.8648C14.9246 16.481 15.443 16.9994 16.0592 16.9994C16.6754 16.9994 17.1944 16.481 17.1944 15.8648C17.1944 15.2486 16.6754 14.7302 16.0592 14.7302ZM16.0867 7.3623C14.8825 7.3623 13.7617 7.8525 13.0195 8.7207L14.1541 9.9957C14.5885 9.4773 15.1765 9.1269 15.8767 9.1269C16.6471 9.1269 16.9693 9.4911 16.9693 9.9255C16.9693 10.3461 16.5913 10.6119 16.1569 10.9203C15.5965 11.3259 14.9245 11.7885 14.9245 12.7551C14.9245 13.2459 15.0925 13.6653 15.3865 13.9875L16.9135 13.5393C16.7731 13.4133 16.6609 13.1751 16.6609 12.9513C16.6609 12.4329 17.0953 12.1245 17.5855 11.7603C18.2587 11.2983 19.0003 10.7379 19.0003 9.5751C19.0003 8.2725 17.8945 7.3623 16.0867 7.3623Z" fill="#135DA8"/><path fill-rule="evenodd" clip-rule="evenodd" d="M12 22.2C10.1274 22.2 8.3772 21.684 6.867 20.8002H12V20.406V19.0002V10.0002V8.2002V7.9176L12.0018 7.9152L8.1564 4.0698V4.0626H7.8H6H5.6088C7.359 2.6502 9.5808 1.8 12 1.8C17.6244 1.8 22.2 6.3756 22.2 12C22.2 17.6244 17.6244 22.2 12 22.2ZM9.825 8.2002H7.8V6.1752L9.825 8.2002ZM1.8 12C1.8 9.6948 2.5776 7.5726 3.8724 5.8626H6V8.2002V10.0002H7.8H10.2V19.0002H4.6008C2.8698 17.1714 1.8 14.7108 1.8 12ZM12 0C5.373 0 0 5.373 0 12C0 18.627 5.373 24 12 24C18.6276 24 24 18.627 24 12C24 5.373 18.6276 0 12 0Z" fill="#135DA8"/></g><defs><clipPath id="clip0"><rect width="24" height="24" fill="white"/></clipPath></defs></svg>
