<svg xmlns="http://www.w3.org/2000/svg" width="24" height="24" viewBox="0 0 24 24">
  <g fill="#F2B510" fill-rule="evenodd">
    <path d="M10,18.5 C5.3055,18.5 1.5,14.6945 1.5,10 C1.5,5.3055 5.3055,1.5 10,1.5 C14.6945,1.5 18.5,5.3055 18.5,10 C18.496,14.6925 14.6925,18.496 10,18.5 M10,0 C4.4775,0 0,4.4775 0,10 C0,15.523 4.4775,20 10,20 C15.523,20 20,15.523 20,10 C20,4.4775 15.523,0 10,0"/>
    <path d="M10 8.65385C10.531 8.65385 10.9615 9.08435 10.9615 9.61535 10.9615 10.14635 10.531 10.57685 10 10.57685 9.469 10.57685 9.0385 10.14635 9.0385 9.61535 9.0385 9.08435 9.469 8.65385 10 8.65385M7.69235 8.65385C8.22335 8.65385 8.65385 9.08435 8.65385 9.61535 8.65385 10.14635 8.22335 10.57685 7.69235 10.57685 7.16135 10.57685 6.73085 10.14635 6.73085 9.61535 6.73085 9.08435 7.16135 8.65385 7.69235 8.65385M12.3076 8.65385C12.8386 8.65385 13.2691 9.08435 13.2691 9.61535 13.2691 10.14635 12.8386 10.57685 12.3076 10.57685 11.7766 10.57685 11.3461 10.14635 11.3461 9.61535 11.3461 9.08435 11.7766 8.65385 12.3076 8.65385"/>
    <path d="M14.61545,11.5386 C14.61545,12.3881 13.92645,13.0771 13.07695,13.0771 L6.92295,13.0771 C6.07345,13.0771 5.38445,12.3881 5.38445,11.5386 L5.38445,7.6926 C5.38445,6.8426 6.07345,6.1536 6.92295,6.1536 L13.07695,6.1536 C13.92645,6.1536 14.61545,6.8426 14.61545,7.6926 L14.61545,11.5386 Z M13.07695,4.6156 L6.92295,4.6156 C5.22395,4.6156 3.84595,5.9931 3.84595,7.6926 L3.84595,11.5386 C3.84595,13.2376 5.22395,14.6156 6.92295,14.6156 L10.96145,14.6156 L13.84595,16.9231 L13.84595,14.5076 C15.20095,14.1581 16.14945,12.9381 16.15395,11.5386 L16.15395,7.6926 C16.15395,5.9931 14.77645,4.6156 13.07695,4.6156 L13.07695,4.6156 Z"/>
  </g>
</svg>
