<svg width="24" height="24" viewBox="0 0 24 24" fill="none" xmlns="http://www.w3.org/2000/svg">
  <path d="M11.9972 24L11.4711 23.4082C11.1424 23.0795 3.44922 14.0055 3.44922 8.54795C3.44922 3.8137 7.26292 0 11.9972 0C16.7314 0 20.5451 3.8137 20.5451 8.54795C20.5451 14.0055 12.852 23.0795 12.5232 23.474L11.9972 24ZM11.9972 1.31507C7.98621 1.31507 4.76429 4.53699 4.76429 8.54795C4.76429 12.7562 10.2876 19.8575 11.9972 21.9616C13.7068 19.8575 19.23 12.7562 19.23 8.54795C19.23 4.53699 16.0081 1.31507 11.9972 1.31507Z" fill="#0D4CD3"/>
  <path d="M11.9986 11.8371C10.1575 11.8371 8.71094 10.3905 8.71094 8.54939C8.71094 6.70829 10.1575 5.26172 11.9986 5.26172C13.8397 5.26172 15.2863 6.70829 15.2863 8.54939C15.2863 10.3905 13.8397 11.8371 11.9986 11.8371ZM11.9986 6.57679C10.8808 6.57679 10.026 7.43158 10.026 8.54939C10.026 9.6672 10.8808 10.522 11.9986 10.522C13.1164 10.522 13.9712 9.6672 13.9712 8.54939C13.9712 7.43158 13.1164 6.57679 11.9986 6.57679Z" fill="#0D4CD3"/>
</svg>
