<svg xmlns="http://www.w3.org/2000/svg" width="20" height="20" viewBox="0 0 20 20">
  <g fill="#135DA8" fill-rule="evenodd">
    <path d="M9.99995,18.5001 C5.31295,18.5001 1.49995,14.6871 1.49995,10.0001 C1.49995,5.3131 5.31295,1.5001 9.99995,1.5001 C14.68695,1.5001 18.49995,5.3131 18.49995,10.0001 C18.49995,14.6871 14.68695,18.5001 9.99995,18.5001 M9.99995,0.0001 C4.47745,0.0001 -5.00000001e-05,4.4776 -5.00000001e-05,10.0001 C-5.00000001e-05,15.5231 4.47745,20.0001 9.99995,20.0001 C15.52295,20.0001 19.99995,15.5231 19.99995,10.0001 C19.99995,4.4776 15.52295,0.0001 9.99995,0.0001"/>
    <path fill-rule="nonzero" d="M10,4.5 C7.8011828,4.5 6.01232258,6.28886022 6.01232258,8.48765591 C6.01232258,11.2164301 9.58090323,15.2224301 9.73283871,15.3916344 C9.87554839,15.5505806 10.1247097,15.5503011 10.2671613,15.3916344 C10.4190968,15.2224301 13.9876774,11.2164301 13.9876774,8.48765591 C13.9876774,6.28886022 12.1987957,4.5 10,4.5 Z M10,14.6016989 C8.79898925,13.1750753 6.73043011,10.3604731 6.73043011,8.48769892 C6.73043011,6.6848172 8.19713978,5.21810753 10,5.21810753 C11.8028602,5.21810753 13.2695699,6.6848172 13.2695699,8.48767742 C13.2695699,10.3605376 11.2013118,13.1746237 10,14.6016989 Z"/>
    <path fill-rule="nonzero" d="M10,6.48137634 C8.89372043,6.48137634 7.99372043,7.38139785 7.99372043,8.48767742 C7.99372043,9.59395699 8.89374194,10.4939785 10,10.4939785 C11.1062581,10.4939785 12.0062581,9.59395699 12.0062581,8.48767742 C12.0062581,7.38139785 11.1062581,6.48137634 10,6.48137634 Z M10,9.77587097 C9.28967742,9.77587097 8.71182796,9.198 8.71182796,8.48767742 C8.71182796,7.77735484 9.28969892,7.19948387 10,7.19948387 C10.7103011,7.19948387 11.288172,7.77735484 11.288172,8.48767742 C11.288172,9.198 10.7103011,9.77587097 10,9.77587097 Z"/>
  </g>
</svg>
