<svg width="24" height="24" viewBox="0 0 24 24" fill="none" xmlns="http://www.w3.org/2000/svg"><path d="M12 0C5.37258 0 0 5.37258 0 12C0 18.6274 5.37258 24 12 24C18.6274 24 24 18.6274 24 12C24 8.8174 22.7357 5.76516 20.4853 3.51472C18.2348 1.26428 15.1826 0 12 0ZM12 22.2C6.3667 22.2 1.8 17.6333 1.8 12C1.8 6.3667 6.3667 1.8 12 1.8C17.6333 1.8 22.2 6.3667 22.2 12C22.2 17.6333 17.6333 22.2 12 22.2Z" fill="#DF0024"/><path d="M12.8404 15.5579H10.2004V17.7299H8.70036V15.5579H7.06836V14.3219H8.70036V13.2419H7.06836V11.9999H8.70036V6.2639H12.9004C13.9664 6.19864 15.0187 6.53227 15.8524 7.1999C16.5789 7.83815 16.9762 8.77184 16.9324 9.7379C16.991 10.7118 16.6101 11.6608 15.8944 12.3239C15.0594 12.9787 14.0136 13.3053 12.9544 13.2419H10.2004V14.3219H12.8404V15.5579ZM10.2004 11.9999H12.9244C13.5977 12.0404 14.2616 11.8262 14.7844 11.3999C15.2316 10.9597 15.4639 10.3459 15.4204 9.7199C15.444 9.11003 15.2035 8.51959 14.7604 8.0999C14.2605 7.67472 13.6154 7.45967 12.9604 7.4999H10.2004V11.9999Z" fill="#DF0024"/></svg>
