<svg width="24" height="20" viewBox="0 0 24 20" fill="none" xmlns="http://www.w3.org/2000/svg">
  <path d="M0.75 1.5H13.75C14.44 1.5 15 2.06 15 2.75V17.25C15 17.94 14.44 18.5 13.75 18.5H0.75" stroke="#0D4CD3" stroke-width="1.5"/>
  <path d="M0.75 9.75109L3.75 12.7511L14.63 1.87109" stroke="#0D4CD3" stroke-width="1.5" stroke-linejoin="round"/>
  <path d="M14.63 18.13L6.5 10" stroke="#0D4CD3" stroke-width="1.5"/>
  <path d="M0.75 1.5H13.75C14.44 1.5 15 2.06 15 2.75V17.25C15 17.94 14.44 18.5 13.75 18.5H0.75" stroke="#0D4CD3" stroke-width="1.5" stroke-linecap="round" stroke-linejoin="round"/>
  <path d="M0.75 9.75109L3.75 12.7511L14.63 1.87109" stroke="#0D4CD3" stroke-width="1.5" stroke-linecap="round" stroke-linejoin="round"/>
  <path d="M14.63 18.13L6.5 10" stroke="#0D4CD3" stroke-width="1.5" stroke-linecap="round" stroke-linejoin="round"/>
  <path d="M17.293 10H23.263" stroke="#0D4CD3" stroke-width="1.5" stroke-linecap="round"/>
  <path d="M19.7656 13.5L23.2656 10L19.7656 6.5" stroke="#0D4CD3" stroke-width="1.5" stroke-linecap="round" stroke-linejoin="round"/>
</svg>
