<svg width="24" height="24" viewBox="0 0 24 24" fill="none" xmlns="http://www.w3.org/2000/svg"><path fill-rule="evenodd" clip-rule="evenodd" d="M12 22.2C6.37556 22.2 1.79996 17.6244 1.79996 12C1.79996 6.37556 6.37556 1.79996 12 1.79996C17.6244 1.79996 22.2 6.37556 22.2 12C22.2 17.6244 17.6244 22.2 12 22.2ZM12 0C5.373 0 0 5.373 0 12C0 18.6276 5.373 24 12 24C18.6276 24 24 18.6276 24 12C24 5.373 18.6276 0 12 0Z" fill="#E6324E"/><path fill-rule="evenodd" clip-rule="evenodd" d="M15.8642 8.65248L15.3412 8.12942C15.1257 7.91389 14.7752 7.91389 14.5569 8.12942L11.99 10.6977L9.43719 8.14554C9.22166 7.93 8.87117 7.93 8.65295 8.14554L8.1299 8.66792C7.91503 8.88345 7.91503 9.23462 8.1299 9.45217L10.6827 12.005L8.13258 14.5538C7.91772 14.7693 7.91772 15.1198 8.13258 15.338L8.65564 15.8611C8.87117 16.0766 9.22166 16.0766 9.43988 15.8611L11.99 13.3123L14.5455 15.8678C14.7604 16.0833 15.1116 16.0833 15.3298 15.8678L15.8522 15.3447C16.0677 15.1292 16.0677 14.7787 15.8522 14.5605L13.2973 12.005L15.8642 9.43672C16.0798 9.22119 16.0798 8.8707 15.8642 8.65248Z" fill="#E6324E"/></svg>
