<svg width="118" height="118" viewBox="0 0 118 118" fill="none" xmlns="http://www.w3.org/2000/svg">
<mask id="mask0" mask-type="alpha" maskUnits="userSpaceOnUse" x="0" y="0" width="118" height="118">
<circle cx="59" cy="59" r="59" fill="#5479CA"/>
</mask>
<g mask="url(#mask0)">
<path d="M44.4618 76.6747C43.517 77.0183 42.5721 77.3619 41.6702 77.7055C41.6702 80.4113 41.0689 82.6447 39.9522 84.2338C37.7618 87.3261 33.5098 88.7434 29.8162 90.3326C23.8463 92.9095 18.177 95.83 12.3788 98.364C12.3359 98.407 12.25 98.407 12.207 98.4499C24.061 110.647 40.6823 118.249 59.0216 118.249C77.3609 118.249 93.9393 110.69 105.793 98.4929C105.664 98.4499 105.536 98.364 105.407 98.3211C98.9643 95.4865 92.6508 92.1364 86.2943 89.3447C84.1039 88.3998 82.0424 87.2832 80.0667 86.1235C79.4654 85.7799 78.6923 85.5222 78.3058 84.9639C77.0173 83.2459 76.5019 80.626 76.5019 77.6196C75.7288 77.319 74.1397 77.1472 73.7102 76.5459C73.3237 75.9875 73.5384 75.0856 73.4096 74.3125C73.1089 72.5516 72.6794 70.0606 73.066 68.1708C73.3666 66.4958 74.6122 65.465 75.2564 64.0047C76.1154 62.072 76.5878 59.8816 77.4038 57.82C77.6615 57.1758 78.0051 56.145 78.5635 55.8014C78.8641 55.6296 79.1648 55.7155 79.3366 55.4578L79.852 53.7828C80.4103 52.3226 81.0975 50.8623 81.527 49.2302C81.8706 47.8129 82.0853 45.7513 81.7847 44.0763C81.6558 43.3032 81.1834 42.1007 81.4411 41.1558C82.3 37.548 84.061 33.1243 83.1161 28.314C82.1283 23.4607 79.7231 21.0556 77.232 17.8773C76.3301 16.6318 75.4711 15.4292 74.5692 14.1837C71.6916 10.6189 66.5377 9.07276 60.0094 9.15866C58.8498 9.2875 57.6902 9.41635 56.5306 9.58815C54.1684 10.1035 51.8491 10.7478 50.0452 11.8215C46.9529 13.6683 45.192 16.8895 42.0996 18.6934C40.6823 19.5094 37.8906 19.4235 36.3015 19.8959C35.5284 27.455 35.3996 36.4314 38.5349 41.7571C37.8906 42.1866 37.2034 42.616 36.5592 43.0455C36.5592 46.3526 36.4733 49.5309 37.4611 52.0219C38.3631 54.2982 39.9951 55.9303 40.94 58.1207C41.5843 59.9675 42.2714 61.8143 42.9157 63.6611C43.517 64.9926 44.7195 66.0663 45.0631 67.5266C45.2779 68.4285 45.192 69.717 45.0631 70.6618C44.7625 72.6805 44.5907 74.6991 44.4618 76.6747Z" fill="white"/>
</g>
</svg>
