<svg width="64" height="64" viewBox="0 0 64 64" fill="none" xmlns="http://www.w3.org/2000/svg">
<mask id="mask0" mask-type="alpha" maskUnits="userSpaceOnUse" x="2" y="3" width="60" height="60">
<circle cx="32" cy="33" r="30" fill="#5479CA"/>
</mask>
<g mask="url(#mask0)">
<path d="M36.3198 10.9133C34.1888 8.075 28.0543 9.02425 26.1005 9.79493C24.1467 10.5703 21.3931 12.9763 20.5072 15.9886C19.6165 19.0008 19.0897 30.6174 18.2852 32.3373C17.4855 34.0572 16.3314 35.951 15.3497 36.8956C18.017 38.5309 22.5377 39.8514 26.6225 39.5084C26.5363 41.5713 25.9137 43.3289 24.2281 44.0149C22.5424 44.7057 11.4372 47.3044 10.5465 51.1766C9.67017 55.0535 10.1107 55.0535 10.1107 55.0535C34.75 72.9331 54 55.0535 54 55.0535C53.7318 52.8167 53.7366 52.2997 52.8459 50.3167C51.9552 48.3383 43.5987 45.8712 39.4133 44.3909C37.6367 43.7612 37.4787 39.3063 37.4787 39.3063C39.2553 39.5647 46.8072 38.7894 48.4977 36.3739C46.2757 34.9971 45.7776 32.6286 45.4329 31.4726C44.6858 28.9538 44.4033 19.1747 43.7807 16.3316C43.163 13.4979 41.8317 10.7442 36.3198 10.9133Z" fill="white"/>
</g>
</svg>
