<svg width="132" height="56" viewBox="0 0 132 56" fill="none" xmlns="http://www.w3.org/2000/svg">
<path d="M0 8C0 3.58172 3.58172 0 8 0H124C128.418 0 132 3.58172 132 8V48C132 52.4183 128.418 56 124 56H8C3.58172 56 0 52.4183 0 48V8Z" fill="white"/>
<path d="M57.475 23.24V17.6H55.105C55.065 18.4167 55.0083 19.1333 54.935 19.75C54.8617 20.3667 54.775 20.9017 54.675 21.355C54.575 21.8083 54.4633 22.1883 54.34 22.495C54.2167 22.7983 54.0833 23.0467 53.94 23.24H57.475ZM59.62 23.24V25.455C59.62 25.5417 59.5917 25.6117 59.535 25.665C59.4783 25.7183 59.4033 25.745 59.31 25.745H58.735V24H52.96V25.455C52.96 25.5417 52.93 25.6117 52.87 25.665C52.8133 25.7183 52.74 25.745 52.65 25.745H52.07V23.24H52.8C52.9033 23.19 53.0067 23.11 53.11 23C53.2133 22.8867 53.3117 22.7267 53.405 22.52C53.5017 22.31 53.5917 22.0467 53.675 21.73C53.7583 21.4133 53.8333 21.0267 53.9 20.57C53.97 20.11 54.03 19.5733 54.08 18.96C54.13 18.3467 54.1683 17.6383 54.195 16.835H58.45V23.24H59.62ZM62.3986 18.855C62.7686 18.855 63.1019 18.9167 63.3986 19.04C63.6953 19.1633 63.9486 19.3383 64.1586 19.565C64.3686 19.7917 64.5286 20.0667 64.6386 20.39C64.7519 20.71 64.8086 21.0683 64.8086 21.465C64.8086 21.865 64.7519 22.225 64.6386 22.545C64.5286 22.865 64.3686 23.1383 64.1586 23.365C63.9486 23.5917 63.6953 23.7667 63.3986 23.89C63.1019 24.01 62.7686 24.07 62.3986 24.07C62.0253 24.07 61.6886 24.01 61.3886 23.89C61.0919 23.7667 60.8386 23.5917 60.6286 23.365C60.4186 23.1383 60.2569 22.865 60.1436 22.545C60.0336 22.225 59.9786 21.865 59.9786 21.465C59.9786 21.0683 60.0336 20.71 60.1436 20.39C60.2569 20.0667 60.4186 19.7917 60.6286 19.565C60.8386 19.3383 61.0919 19.1633 61.3886 19.04C61.6886 18.9167 62.0253 18.855 62.3986 18.855ZM62.3986 23.375C62.8986 23.375 63.2719 23.2083 63.5186 22.875C63.7653 22.5383 63.8886 22.07 63.8886 21.47C63.8886 20.8667 63.7653 20.3967 63.5186 20.06C63.2719 19.7233 62.8986 19.555 62.3986 19.555C62.1453 19.555 61.9236 19.5983 61.7336 19.685C61.5469 19.7717 61.3903 19.8967 61.2636 20.06C61.1403 20.2233 61.0469 20.425 60.9836 20.665C60.9236 20.9017 60.8936 21.17 60.8936 21.47C60.8936 22.07 61.0169 22.5383 61.2636 22.875C61.5136 23.2083 61.8919 23.375 62.3986 23.375ZM69.4624 19.835C69.4358 19.8717 69.4091 19.9 69.3824 19.92C69.3558 19.94 69.3191 19.95 69.2724 19.95C69.2224 19.95 69.1674 19.93 69.1074 19.89C69.0474 19.8467 68.9724 19.8 68.8824 19.75C68.7958 19.7 68.6874 19.655 68.5574 19.615C68.4308 19.5717 68.2741 19.55 68.0874 19.55C67.8374 19.55 67.6174 19.595 67.4274 19.685C67.2374 19.7717 67.0774 19.8983 66.9474 20.065C66.8208 20.2317 66.7241 20.4333 66.6574 20.67C66.5941 20.9067 66.5624 21.1717 66.5624 21.465C66.5624 21.7717 66.5974 22.045 66.6674 22.285C66.7374 22.5217 66.8358 22.7217 66.9624 22.885C67.0924 23.045 67.2474 23.1683 67.4274 23.255C67.6108 23.3383 67.8158 23.38 68.0424 23.38C68.2591 23.38 68.4374 23.355 68.5774 23.305C68.7174 23.2517 68.8324 23.1933 68.9224 23.13C69.0158 23.0667 69.0924 23.01 69.1524 22.96C69.2158 22.9067 69.2774 22.88 69.3374 22.88C69.4108 22.88 69.4674 22.9083 69.5074 22.965L69.7574 23.29C69.6474 23.4267 69.5224 23.5433 69.3824 23.64C69.2424 23.7367 69.0908 23.8183 68.9274 23.885C68.7674 23.9483 68.5991 23.995 68.4224 24.025C68.2458 24.055 68.0658 24.07 67.8824 24.07C67.5658 24.07 67.2708 24.0117 66.9974 23.895C66.7274 23.7783 66.4924 23.61 66.2924 23.39C66.0924 23.1667 65.9358 22.8933 65.8224 22.57C65.7091 22.2467 65.6524 21.8783 65.6524 21.465C65.6524 21.0883 65.7041 20.74 65.8074 20.42C65.9141 20.1 66.0674 19.825 66.2674 19.595C66.4708 19.3617 66.7191 19.18 67.0124 19.05C67.3091 18.92 67.6491 18.855 68.0324 18.855C68.3891 18.855 68.7024 18.9133 68.9724 19.03C69.2458 19.1433 69.4874 19.305 69.6974 19.515L69.4624 19.835ZM74.9228 19.615H72.9778V24H72.0878V19.615H70.1428V18.935H74.9228V19.615ZM80.1414 18.935L77.3164 25.495C77.2864 25.5617 77.2481 25.615 77.2014 25.655C77.1581 25.695 77.0897 25.715 76.9964 25.715H76.3364L77.2614 23.705L75.1714 18.935H75.9414C76.0181 18.935 76.0781 18.955 76.1214 18.995C76.1681 19.0317 76.1997 19.0733 76.2164 19.12L77.5714 22.31C77.6247 22.45 77.6697 22.5967 77.7064 22.75C77.7531 22.5933 77.8031 22.445 77.8564 22.305L79.1714 19.12C79.1914 19.0667 79.2247 19.0233 79.2714 18.99C79.3214 18.9533 79.3764 18.935 79.4364 18.935H80.1414ZM85.1477 24H84.2527V19.615H81.8227V24H80.9277V18.935H85.1477V24ZM90.7824 18.935V24H89.8874V21.63H87.4574V24H86.5624V18.935H87.4574V20.955H89.8874V18.935H90.7824ZM94.3322 18.855C94.7022 18.855 95.0355 18.9167 95.3322 19.04C95.6289 19.1633 95.8822 19.3383 96.0922 19.565C96.3022 19.7917 96.4622 20.0667 96.5722 20.39C96.6855 20.71 96.7422 21.0683 96.7422 21.465C96.7422 21.865 96.6855 22.225 96.5722 22.545C96.4622 22.865 96.3022 23.1383 96.0922 23.365C95.8822 23.5917 95.6289 23.7667 95.3322 23.89C95.0355 24.01 94.7022 24.07 94.3322 24.07C93.9589 24.07 93.6222 24.01 93.3222 23.89C93.0255 23.7667 92.7722 23.5917 92.5622 23.365C92.3522 23.1383 92.1905 22.865 92.0772 22.545C91.9672 22.225 91.9122 21.865 91.9122 21.465C91.9122 21.0683 91.9672 20.71 92.0772 20.39C92.1905 20.0667 92.3522 19.7917 92.5622 19.565C92.7722 19.3383 93.0255 19.1633 93.3222 19.04C93.6222 18.9167 93.9589 18.855 94.3322 18.855ZM94.3322 23.375C94.8322 23.375 95.2055 23.2083 95.4522 22.875C95.6989 22.5383 95.8222 22.07 95.8222 21.47C95.8222 20.8667 95.6989 20.3967 95.4522 20.06C95.2055 19.7233 94.8322 19.555 94.3322 19.555C94.0789 19.555 93.8572 19.5983 93.6672 19.685C93.4805 19.7717 93.3239 19.8967 93.1972 20.06C93.0739 20.2233 92.9805 20.425 92.9172 20.665C92.8572 20.9017 92.8272 21.17 92.8272 21.47C92.8272 22.07 92.9505 22.5383 93.1972 22.875C93.4472 23.2083 93.8255 23.375 94.3322 23.375ZM102.375 23.375C102.708 23.375 102.971 23.2983 103.165 23.145C103.358 22.9883 103.455 22.775 103.455 22.505C103.455 22.385 103.436 22.2767 103.4 22.18C103.363 22.08 103.303 21.9933 103.22 21.92C103.136 21.8467 103.025 21.79 102.885 21.75C102.748 21.71 102.58 21.69 102.38 21.69H101.285V23.375H102.375ZM101.285 19.535V21.125H102.26C102.406 21.125 102.541 21.105 102.665 21.065C102.791 21.0217 102.9 20.9633 102.99 20.89C103.08 20.8133 103.15 20.7233 103.2 20.62C103.25 20.5133 103.275 20.3967 103.275 20.27C103.275 20.1767 103.258 20.0867 103.225 20C103.191 19.91 103.135 19.8317 103.055 19.765C102.975 19.695 102.87 19.64 102.74 19.6C102.61 19.5567 102.45 19.535 102.26 19.535H101.285ZM102.285 18.935C102.598 18.935 102.866 18.9667 103.09 19.03C103.313 19.0933 103.496 19.18 103.64 19.29C103.783 19.3967 103.888 19.5233 103.955 19.67C104.021 19.8167 104.055 19.9733 104.055 20.14C104.055 20.25 104.04 20.365 104.01 20.485C103.98 20.605 103.926 20.72 103.85 20.83C103.776 20.94 103.675 21.04 103.545 21.13C103.418 21.2167 103.258 21.285 103.065 21.335C103.451 21.4017 103.75 21.5367 103.96 21.74C104.17 21.94 104.275 22.205 104.275 22.535C104.275 22.7817 104.225 22.9967 104.125 23.18C104.028 23.36 103.893 23.5117 103.72 23.635C103.55 23.7583 103.35 23.85 103.12 23.91C102.89 23.97 102.643 24 102.38 24H100.43V18.935H102.285Z" fill="#0B1F33"/>
<path d="M70.9384 33.3299C70.3532 33.3313 69.7815 33.5095 69.2957 33.842C68.8099 34.1744 68.4317 34.6462 68.2091 35.1976C67.9864 35.7491 67.9292 36.3554 68.0448 36.94C68.1602 37.5246 68.4433 38.0612 68.858 38.4818C69.2728 38.9025 69.8007 39.1884 70.3749 39.3033C70.9491 39.4183 71.5439 39.3572 72.084 39.1277C72.6241 38.8982 73.0853 38.5106 73.4093 38.014C73.7332 37.5174 73.9054 36.9341 73.9041 36.3378C73.9098 35.9401 73.8368 35.5451 73.6896 35.1767C73.5424 34.8082 73.3239 34.4737 73.0472 34.193C72.7705 33.9124 72.4412 33.6913 72.0789 33.5431C71.7166 33.3948 71.3287 33.3223 70.9384 33.3299ZM70.9384 38.1638C70.5797 38.1894 70.2218 38.1044 69.9111 37.9199C69.6004 37.7354 69.3514 37.46 69.1964 37.1294C69.0414 36.7988 68.9876 36.4283 69.042 36.0662C69.0964 35.704 69.2564 35.3669 69.5013 35.0986C69.7462 34.8303 70.0646 34.6434 70.4152 34.562C70.7658 34.4805 71.1323 34.5085 71.467 34.6421C71.8018 34.7758 72.0894 35.009 72.2924 35.3114C72.4954 35.6138 72.6044 35.9714 72.6053 36.3378C72.6165 36.57 72.5819 36.8021 72.5037 37.0204C72.4255 37.2387 72.3051 37.4389 72.1497 37.609C71.9944 37.7792 71.8071 37.916 71.5991 38.0113C71.391 38.1066 71.1664 38.1584 70.9384 38.1638ZM64.4652 33.3299C63.8799 33.3313 63.3083 33.5095 62.8225 33.842C62.3367 34.1744 61.9585 34.6462 61.7359 35.1976C61.5132 35.7491 61.456 36.3554 61.5715 36.94C61.687 37.5246 61.97 38.0612 62.3848 38.4818C62.7996 38.9025 63.3275 39.1884 63.9017 39.3033C64.4759 39.4183 65.0707 39.3572 65.6108 39.1277C66.1509 38.8982 66.6121 38.5106 66.9361 38.014C67.26 37.5174 67.4322 36.9341 67.4309 36.3378C67.4365 35.9401 67.3636 35.5451 67.2164 35.1767C67.0691 34.8082 66.8507 34.4737 66.574 34.193C66.2973 33.9124 65.9679 33.6913 65.6057 33.5431C65.2433 33.3948 64.8555 33.3223 64.4652 33.3299ZM64.4652 38.1638C64.1065 38.1894 63.7486 38.1044 63.4379 37.9199C63.1272 37.7354 62.8782 37.46 62.7232 37.1294C62.5682 36.7988 62.5144 36.4283 62.5688 36.0662C62.6232 35.704 62.7832 35.3669 63.0281 35.0986C63.273 34.8303 63.5914 34.6434 63.942 34.562C64.2926 34.4805 64.6591 34.5085 64.9938 34.6421C65.3286 34.7758 65.6162 35.009 65.8192 35.3114C66.0222 35.6138 66.1312 35.9714 66.1321 36.3378C66.1433 36.57 66.1087 36.8021 66.0304 37.0204C65.9522 37.2387 65.8319 37.4389 65.6765 37.609C65.5212 37.7792 65.3339 37.916 65.1259 38.0113C64.9178 38.1066 64.6932 38.1584 64.4652 38.1638ZM56.7695 34.2571V35.531H59.77C59.7229 36.131 59.4782 36.6972 59.0754 37.1376C58.7745 37.4501 58.4124 37.6947 58.0128 37.8556C57.6132 38.0165 57.1849 38.0902 56.7556 38.0718C55.8714 38.0718 55.0234 37.7139 54.3982 37.0768C53.773 36.4397 53.4218 35.5756 53.4218 34.6746C53.4218 33.7737 53.773 32.9096 54.3982 32.2725C55.0234 31.6354 55.8714 31.2775 56.7556 31.2775C57.6033 31.2647 58.4218 31.5926 59.0338 32.1905L59.9159 31.2916C59.5019 30.8744 59.0104 30.5456 58.4701 30.3244C57.9298 30.1033 57.3517 29.9942 56.7695 30.0035C56.1521 29.9791 55.5361 30.0819 54.9586 30.3057C54.381 30.5296 53.8538 30.87 53.4084 31.3065C52.9631 31.743 52.6088 32.2666 52.3668 32.846C52.1247 33.4253 52 34.0485 52 34.6782C52 35.3078 52.1247 35.931 52.3668 36.5104C52.6088 37.0897 52.9631 37.6133 53.4084 38.0498C53.8538 38.4863 54.381 38.8268 54.9586 39.0506C55.5361 39.2745 56.1521 39.3773 56.7695 39.3528C57.3637 39.377 57.9561 39.2728 58.5079 39.0472C59.0598 38.8215 59.5585 38.4795 59.9714 38.0435C60.7008 37.227 61.0894 36.1533 61.0549 35.0497C61.0574 34.7841 61.0365 34.5189 60.9924 34.2571H56.7695ZM88.2396 35.2479C88.0584 34.7049 87.7198 34.2308 87.2684 33.8883C86.8169 33.5457 86.274 33.351 85.7114 33.3299C85.3317 33.3292 84.9555 33.4078 84.6065 33.5611C84.2575 33.7142 83.9432 33.9388 83.6827 34.2207C83.4223 34.5026 83.2214 34.8359 83.093 35.2001C82.9639 35.5642 82.9095 35.9514 82.9332 36.3378C82.9274 36.9839 83.1265 37.6146 83.5016 38.1357C83.8761 38.6568 84.4062 39.0403 85.0128 39.2291C85.6194 39.4178 86.2694 39.4015 86.8661 39.1828C87.4623 38.9639 87.9739 38.5544 88.3229 38.0152L87.3158 37.3074C87.1659 37.5624 86.9529 37.773 86.6982 37.9183C86.4436 38.0635 86.1559 38.1384 85.8642 38.1355C85.5632 38.1482 85.2657 38.0678 85.0099 37.9048C84.7547 37.7419 84.5538 37.504 84.4334 37.2225L88.3854 35.5593L88.2396 35.2479ZM84.2112 36.2529C84.1973 36.0331 84.2262 35.8126 84.2968 35.6044C84.3675 35.3961 84.478 35.2043 84.6221 35.0402C84.7668 34.8761 84.9416 34.743 85.1367 34.6486C85.3323 34.5542 85.5441 34.5005 85.76 34.4906C85.984 34.4767 86.2069 34.5304 86.4008 34.645C86.5946 34.7596 86.7509 34.9299 86.8505 35.1347L84.2112 36.2529ZM81.0024 39.1688H82.3012V30.322H81.0024V39.1688ZM78.8771 34.0023H78.8285C78.6344 33.7772 78.395 33.5973 78.1265 33.4752C77.858 33.353 77.5667 33.2914 77.2727 33.2945C76.5136 33.332 75.7979 33.6657 75.2737 34.2263C74.7495 34.787 74.4572 35.5316 74.4572 36.306C74.4572 37.0804 74.7495 37.825 75.2737 38.3856C75.7979 38.9463 76.5136 39.2799 77.2727 39.3174C77.5671 39.3234 77.8593 39.2631 78.1282 39.1408C78.3972 39.0184 78.6363 38.8371 78.8285 38.6097H78.8771V39.0414C78.8771 40.195 78.2728 40.8107 77.3005 40.8107C76.9756 40.8035 76.6603 40.698 76.3944 40.5078C76.1285 40.3174 75.9241 40.051 75.8072 39.742L74.682 40.2162C74.89 40.7486 75.2517 41.2042 75.7192 41.5227C76.1867 41.8411 76.7381 42.0075 77.3005 41.9997C78.8215 41.9997 80.0787 41.0868 80.0787 38.8645V33.5069H78.8771V34.0023ZM77.3838 38.1638C76.9287 38.1349 76.5016 37.9303 76.1894 37.5917C75.8771 37.2531 75.7033 36.806 75.7033 36.3414C75.7033 35.8768 75.8771 35.4296 76.1894 35.091C76.5016 34.7524 76.9287 34.5479 77.3838 34.5189C77.6062 34.5287 77.8244 34.584 78.0255 34.6815C78.2265 34.779 78.4062 34.9166 78.5539 35.0863C78.7017 35.256 78.8145 35.4543 78.8855 35.6693C78.9565 35.8843 78.9843 36.1116 78.9674 36.3378C78.9863 36.5648 78.9599 36.7933 78.8897 37.0096C78.8195 37.2259 78.707 37.4254 78.5589 37.5961C78.4109 37.7667 78.2305 37.905 78.0285 38.0027C77.8265 38.1002 77.6072 38.1551 77.3838 38.1638ZM94.3238 30.322H91.2122V39.1688H92.5111V35.8141H94.3238C94.6943 35.8412 95.0658 35.7903 95.4154 35.6646C95.7656 35.5388 96.0868 35.341 96.3583 35.0833C96.6297 34.8257 96.8468 34.5138 96.995 34.1671C97.1426 33.8203 97.2195 33.4462 97.2195 33.0681C97.2195 32.6899 97.1426 32.3158 96.995 31.969C96.8468 31.6223 96.6297 31.3104 96.3583 31.0528C96.0868 30.7951 95.7656 30.5973 95.4154 30.4716C95.0658 30.3458 94.6943 30.2949 94.3238 30.322ZM94.3238 34.5685H92.5111V31.5535H94.3516C94.5467 31.5535 94.74 31.5927 94.9206 31.6688C95.1006 31.7449 95.2644 31.8565 95.4027 31.9971C95.5405 32.1377 95.6504 32.3047 95.7251 32.4885C95.7998 32.6722 95.838 32.8692 95.838 33.0681C95.838 33.267 95.7998 33.4639 95.7251 33.6477C95.6504 33.8314 95.5405 33.9984 95.4027 34.139C95.2644 34.2796 95.1006 34.3912 94.9206 34.4674C94.74 34.5435 94.5467 34.5826 94.3516 34.5826L94.3238 34.5685ZM102.339 33.3016C101.866 33.2719 101.395 33.3841 100.984 33.6244C100.572 33.8646 100.24 34.2224 100.026 34.6534L101.172 35.1417C101.288 34.929 101.462 34.755 101.673 34.6407C101.883 34.5264 102.122 34.4768 102.36 34.4977C102.525 34.4781 102.692 34.4921 102.851 34.539C103.011 34.5859 103.16 34.6646 103.289 34.7707C103.418 34.8767 103.525 35.008 103.604 35.1568C103.683 35.3055 103.733 35.4688 103.749 35.6372V35.7221C103.331 35.4984 102.866 35.3818 102.395 35.3824C101.158 35.3824 99.8941 36.0901 99.8941 37.3782C99.9063 37.652 99.9723 37.9205 100.089 38.1677C100.204 38.415 100.368 38.636 100.57 38.8175C100.771 38.999 101.007 39.1375 101.261 39.2246C101.516 39.3117 101.786 39.3457 102.054 39.3245C102.38 39.3429 102.705 39.2726 102.995 39.1209C103.286 38.9691 103.532 38.7414 103.707 38.461H103.749V39.1688H104.999V35.7645C104.999 34.2146 103.846 33.3158 102.367 33.3158L102.339 33.3016ZM102.179 38.1496C101.756 38.1496 101.165 37.9302 101.165 37.3994C101.165 36.6917 101.901 36.4511 102.554 36.4511C102.967 36.4407 103.374 36.5434 103.735 36.7483C103.692 37.1327 103.513 37.4879 103.231 37.7482C102.951 38.0084 102.587 38.1561 102.207 38.1638L102.179 38.1496ZM109.555 33.5069L108.069 37.3428H108.027L106.485 33.5069H105.096L107.409 38.8715L106.09 41.8511H107.444L111 33.5069H109.555ZM97.8869 39.1688H99.1787V30.322H97.8869V39.1688Z" fill="#4F73BE"/>
<path fill-rule="evenodd" clip-rule="evenodd" d="M35.4133 32.6247C35.2613 32.7139 35.0676 32.6852 34.948 32.5556L30.9776 28.2544C30.845 28.1107 30.845 27.8893 30.9776 27.7456L34.9463 23.4462C35.0659 23.3167 35.2595 23.2879 35.4116 23.3772L38.3315 25.0906C40.5541 26.3948 40.5541 29.6081 38.3315 30.9123L35.4133 32.6247ZM32.7651 34.1787C32.9714 34.0576 33.0131 33.7767 32.8508 33.6009L29.4873 29.9571C29.3388 29.7963 29.0847 29.7963 28.9362 29.9571L18.8178 40.9188C18.6299 41.1223 18.7222 41.4487 18.9972 41.4806C19.6837 41.5604 20.4095 41.4289 21.0831 41.0336L32.7651 34.1787ZM16.9003 39.6788C16.737 39.8558 16.4504 39.8348 16.3438 39.6189C16.1252 39.1758 16 38.6711 16 38.1227V17.8801C16 17.3309 16.1256 16.8255 16.3448 16.382C16.4515 16.1661 16.738 16.1453 16.9013 16.3222L27.446 27.7456C27.5786 27.8893 27.5786 28.1107 27.446 28.2544L16.9003 39.6788ZM18.9998 14.5219C18.7246 14.5537 18.6322 14.8802 18.8201 15.0837L28.9362 26.0429C29.0847 26.2037 29.3388 26.2037 29.4873 26.0429L32.8491 22.401C33.0114 22.2251 32.9697 21.9443 32.7633 21.8232L21.0831 14.9693C20.4103 14.5745 19.6855 14.4428 18.9998 14.5219Z" fill="#4F73BE"/>
</svg>
