<svg width="21" height="21" viewBox="0 0 21 21" fill="none" xmlns="http://www.w3.org/2000/svg">
<path d="M19.1928 1.36155C18.9165 1.08494 18.539 0.932281 18.1301 0.932281C17.6708 0.932281 17.2082 1.12583 16.8535 1.46479L15.331 2.70059L15.2717 2.75441C14.9351 3.09053 14.8026 3.56275 14.8841 4.03833L11.3348 7.48464L10.7392 6.96921C11.1661 5.29949 11.1136 3.07526 9.67362 1.63531C8.61921 0.580897 7.27008 0 5.87515 0C5.32065 0 4.77261 0.092633 4.24605 0.275053C4.00489 0.358629 3.82015 0.55528 3.7521 0.801353C3.68404 1.04743 3.74123 1.31083 3.90476 1.50671L5.81771 3.79304L5.72352 5.26352L4.13375 5.4449L1.86424 3.54619C1.66837 3.38214 1.4047 3.32495 1.15863 3.39352C0.912557 3.46183 0.715906 3.64658 0.63233 3.88774C0.0123615 5.67804 0.558586 7.60626 2.13102 9.17765C2.97817 10.0253 4.19792 10.4732 5.6578 10.4732C5.76466 10.4732 5.8723 10.4678 5.97994 10.4626C5.92587 10.5097 5.87153 10.5563 5.82029 10.6075L1.45956 14.968C0.24886 16.1787 0.24886 18.1483 1.45956 19.359L2.19105 20.0905C2.77738 20.6771 3.55726 21 4.38655 21C5.21585 21 5.99573 20.6771 6.58206 20.0905L10.9425 15.7298C11.1842 15.4883 11.3744 15.2169 11.5177 14.9268L15.391 19.4022C15.4034 19.4164 15.4163 19.4299 15.4293 19.4434C15.8635 19.8773 16.515 20.1164 17.2649 20.1164C18.1759 20.1164 19.1007 19.758 19.678 19.181C20.6928 18.1662 21.0126 16.0069 19.9398 14.9333C19.9261 14.9201 19.9129 14.9072 19.8987 14.8955L14.2592 10.016L17.5128 6.66544C17.6023 6.6807 17.6918 6.68821 17.7821 6.68821C18.1718 6.68821 18.5315 6.54253 18.7954 6.27886L20.085 4.69711C20.3802 4.38868 20.565 3.99978 20.6079 3.59716C20.6579 3.12572 20.505 2.67394 20.1885 2.35774L19.1928 1.36155ZM9.84491 14.6321L5.48444 18.9929C5.19127 19.286 4.80133 19.4475 4.38655 19.4475C3.97177 19.4475 3.5821 19.286 3.28867 18.9929L2.55718 18.2614C1.95196 17.6559 1.95196 16.6711 2.55718 16.0661L6.91792 11.7051C7.21108 11.412 7.60102 11.2505 8.01554 11.2505C8.13741 11.2505 8.2567 11.2666 8.37236 11.2932L10.297 13.5172C10.3016 13.92 10.1518 14.3253 9.84491 14.6321ZM18.5798 18.0834C18.2924 18.3708 17.7637 18.5639 17.2644 18.5639C16.951 18.5639 16.6832 18.488 16.5417 18.3597L8.31129 8.85007C8.10507 8.61176 7.7749 8.52172 7.47682 8.62237C6.89722 8.81747 6.26819 8.92045 5.65754 8.92045C4.6334 8.92045 3.77073 8.62185 3.22864 8.07951C2.73805 7.58892 2.04899 6.72107 1.94601 5.63897L3.39243 6.84915C3.55544 6.98577 3.76684 7.04916 3.97876 7.0251L6.54428 6.73219C6.91766 6.6895 7.20694 6.38573 7.23075 6.01054L7.38626 3.58241C7.39894 3.38343 7.33477 3.18756 7.20694 3.03489L5.96778 1.5538C6.91559 1.57968 7.8383 1.99601 8.57522 2.73293C9.58901 3.74698 9.56701 5.64621 9.1173 6.98189C9.01665 7.28049 9.1067 7.61039 9.34501 7.81662L18.8559 16.047C19.2008 16.4245 19.1193 17.5436 18.5798 18.0834ZM18.9563 3.63158L17.7384 5.12509C17.7257 5.12017 17.7115 5.11344 17.6959 5.10413L17.1689 4.79104L13.084 8.99834L12.5129 8.50438L16.759 4.38118L16.4462 3.85462C16.4371 3.83858 16.4299 3.82435 16.4255 3.81193L17.8592 2.6478L17.9187 2.59398C17.9961 2.51713 18.0735 2.49048 18.1216 2.48608L19.065 3.42949C19.0619 3.4683 19.0368 3.55084 18.9563 3.63158Z" fill="#66727F"/>
</svg>
