<svg width="24" height="24" viewBox="0 0 24 24" fill="none" xmlns="http://www.w3.org/2000/svg">
<path d="M23.8475 11.5332C23.6331 11.2399 18.5245 4.35168 11.9999 4.35168C5.47529 4.35168 0.366469 11.2399 0.152297 11.5329C-0.0507657 11.8112 -0.0507657 12.1886 0.152297 12.4668C0.366469 12.7601 5.47529 19.6484 11.9999 19.6484C18.5245 19.6484 23.6331 12.7601 23.8475 12.4671C24.0508 12.1889 24.0508 11.8112 23.8475 11.5332ZM11.9999 18.066C7.19383 18.066 3.03127 13.4941 1.79907 11.9995C3.02968 10.5036 7.18351 5.93409 11.9999 5.93409C16.8057 5.93409 20.968 10.5052 22.2007 12.0006C20.9701 13.4965 16.8163 18.066 11.9999 18.066Z" fill="#A8ACB1"/>
<path d="M11.9997 7.25269C9.38211 7.25269 7.25244 9.38236 7.25244 12C7.25244 14.6176 9.38211 16.7472 11.9997 16.7472C14.6173 16.7472 16.747 14.6176 16.747 12C16.747 9.38236 14.6173 7.25269 11.9997 7.25269ZM11.9997 15.1648C10.2546 15.1648 8.8349 13.7451 8.8349 12C8.8349 10.2548 10.2546 8.83514 11.9997 8.83514C13.7448 8.83514 15.1645 10.2548 15.1645 12C15.1645 13.7451 13.7449 15.1648 11.9997 15.1648Z" fill="#A8ACB1"/>
</svg>
