<svg width="24" height="24" viewBox="0 0 24 24" fill="none" xmlns="http://www.w3.org/2000/svg">
<circle cx="12" cy="12" r="11.5" fill="white" stroke="#979CA1"/>
<path d="M5.99995 13.2L9.60861 16.8087L18.4614 7.95582" stroke="white" stroke-width="2"/>
<path d="M11.068 13.7747C11.068 13.259 11.1998 12.8292 11.4635 12.4853C11.7391 12.1415 12.1406 11.7633 12.668 11.3507C13.1714 10.961 13.5489 10.6057 13.8006 10.2848C14.0642 9.95237 14.1961 9.55123 14.1961 9.08132C14.1961 8.6114 14.0403 8.17587 13.7287 7.77472C13.417 7.36212 12.8418 7.15581 12.0028 7.15581C11.0081 7.15581 10.3369 7.3965 9.98933 7.87788C9.64177 8.34779 9.46799 8.88074 9.46799 9.47673C9.46799 9.6028 9.46799 9.70596 9.46799 9.78619C9.47997 9.86641 9.48596 9.91799 9.48596 9.94091H7.88596C7.87398 9.89507 7.86199 9.81484 7.85001 9.70023C7.83802 9.58561 7.83203 9.46527 7.83203 9.33919C7.83203 8.67444 7.98784 8.07845 8.29945 7.55123C8.62304 7.02401 9.10844 6.60567 9.75563 6.29621C10.4028 5.98676 11.1938 5.83203 12.1287 5.83203C13.2193 5.83203 14.1062 6.11283 14.7893 6.67444C15.4845 7.22458 15.832 7.96384 15.832 8.8922C15.832 9.49965 15.7362 10.0154 15.5444 10.4395C15.3646 10.8521 15.1429 11.1902 14.8792 11.4538C14.6275 11.706 14.2979 11.981 13.8905 12.279C13.459 12.6114 13.1414 12.8979 12.9376 13.1386C12.7339 13.3678 12.632 13.6658 12.632 14.0326V14.7375H11.068V13.7747ZM10.9421 15.9753H12.7399V17.832H10.9421V15.9753Z" fill="#626A73"/>
</svg>
