<svg width="23" height="23" viewBox="0 0 23 23" fill="none" xmlns="http://www.w3.org/2000/svg">
  <mask id="mask0" mask-type="alpha" maskUnits="userSpaceOnUse" x="0" y="0" width="23" height="23">
    <path fill-rule="evenodd" clip-rule="evenodd" d="M11.2941 0C5.05694 0 0 5.05694 0 11.2941C0 17.5319 5.05694 22.5883 11.2941 22.5883C17.5319 22.5883 22.5882 17.5319 22.5882 11.2941C22.5882 5.05694 17.5319 0 11.2941 0Z" fill="white"/>
  </mask>
  <g mask="url(#mask0)">
    <path fill-rule="evenodd" clip-rule="evenodd" d="M-1.41211 11.2957C-1.41211 4.27886 4.2769 -1.41016 11.2938 -1.41016C18.3112 -1.41016 23.9997 4.2789 23.9997 11.2957C23.9997 18.3131 18.3112 24.0017 11.2938 24.0017C4.27695 24.0017 -1.41211 18.3133 -1.41211 11.2957ZM11.2938 1.41337C5.8363 1.41337 1.41142 5.83825 1.41142 11.2957C1.41142 16.7537 5.83625 21.1781 11.2938 21.1781C16.7518 21.1781 21.1761 16.7538 21.1761 11.2957C21.1761 5.83819 16.7518 1.41337 11.2938 1.41337Z" fill="#0B40B3"/>
  </g>
  <path d="M10.8453 13.3841C10.8453 12.8683 10.9772 12.4385 11.2408 12.0947C11.5165 11.7509 11.918 11.3726 12.4453 10.96C12.9487 10.5703 13.3262 10.215 13.5779 9.89413C13.8416 9.56175 13.9734 9.1606 13.9734 8.69069C13.9734 8.22078 13.8176 7.78525 13.506 7.3841C13.1944 6.97149 12.6191 6.76519 11.7802 6.76519C10.7854 6.76519 10.1142 7.00588 9.76668 7.48725C9.41911 7.95716 9.24533 8.49012 9.24533 9.0861C9.24533 9.21218 9.24533 9.31533 9.24533 9.39556C9.25732 9.47579 9.26331 9.52737 9.26331 9.55029H7.66331C7.65132 9.50444 7.63934 9.42421 7.62735 9.3096C7.61537 9.19499 7.60938 9.07464 7.60938 8.94857C7.60938 8.28381 7.76518 7.68782 8.07679 7.1606C8.40039 6.63338 8.88578 6.21504 9.53297 5.90559C10.1802 5.59613 10.9712 5.44141 11.906 5.44141C12.9966 5.44141 13.8835 5.72221 14.5667 6.28381C15.2618 6.83396 15.6094 7.57321 15.6094 8.50158C15.6094 9.10903 15.5135 9.62479 15.3217 10.0489C15.142 10.4615 14.9202 10.7996 14.6566 11.0632C14.4049 11.3153 14.0753 11.5904 13.6678 11.8884C13.2363 12.2208 12.9187 12.5073 12.715 12.748C12.5112 12.9772 12.4094 13.2752 12.4094 13.642V14.3469H10.8453V13.3841ZM10.7195 15.5847H12.5172V17.4414H10.7195V15.5847Z" fill="#0B40B3"/>
</svg>
