<svg width="24" height="24" viewBox="0 0 24 24" fill="none" xmlns="http://www.w3.org/2000/svg">
  <path d="M12 22C17.5228 22 22 17.5228 22 12C22 6.47715 17.5228 2 12 2C6.47715 2 2 6.47715 2 12C2 17.5228 6.47715 22 12 22Z" stroke="#99B1E6" stroke-width="4"/>
  <mask id="mask0" mask-type="alpha" maskUnits="userSpaceOnUse" x="0" y="0" width="24" height="24">
    <path d="M12 22C17.5228 22 22 17.5228 22 12C22 6.47715 17.5228 2 12 2C6.47715 2 2 6.47715 2 12C2 17.5228 6.47715 22 12 22Z" stroke="#FAFCFF" stroke-width="4"/>
  </mask>
  <g mask="url(#mask0)">
    <path d="M24.5621 -0.445973L12.0781 -0.00292969L12.9376 24.2163L25.4216 23.7733L24.5621 -0.445973Z" fill="white"/>
    <path d="M12.2578 4C13.3624 4 14.2578 3.10457 14.2578 2C14.2578 0.89543 13.3624 0 12.2578 0C11.1532 0 10.2578 0.89543 10.2578 2C10.2578 3.10457 11.1532 4 12.2578 4Z" fill="white"/>
    <path d="M12.916 23.9609C14.0206 23.9609 14.916 23.0655 14.916 21.9609C14.916 20.8564 14.0206 19.9609 12.916 19.9609C11.8114 19.9609 10.916 20.8564 10.916 21.9609C10.916 23.0655 11.8114 23.9609 12.916 23.9609Z" fill="white"/>
  </g>
</svg>
