<svg width="40" height="40" viewBox="0 0 40 40" fill="none" xmlns="http://www.w3.org/2000/svg">
  <circle cx="20" cy="20" r="20" fill="white"/>
  <path d="M25.0781 18.9844C25.5096 18.9844 25.8594 18.6346 25.8594 18.2031C25.8594 17.7717 25.5096 17.4219 25.0781 17.4219C24.6467 17.4219 24.2969 17.7717 24.2969 18.2031C24.2969 18.6346 24.6467 18.9844 25.0781 18.9844Z" fill="#0D4CD3"/>
  <path d="M26.875 11.5625H25.8594V10.7812C25.8594 10.3498 25.5096 10 25.0781 10C24.6466 10 24.2969 10.3498 24.2969 10.7812V11.5625H20.7422V10.7812C20.7422 10.3498 20.3924 10 19.9609 10C19.5295 10 19.1797 10.3498 19.1797 10.7812V11.5625H15.6641V10.7812C15.6641 10.3498 15.3143 10 14.8828 10C14.4513 10 14.1016 10.3498 14.1016 10.7812V11.5625H13.125C11.4019 11.5625 10 12.9644 10 14.6875V26.875C10 28.5981 11.4019 30 13.125 30H19.1016C19.533 30 19.8828 29.6502 19.8828 29.2188C19.8828 28.7873 19.533 28.4375 19.1016 28.4375H13.125C12.2634 28.4375 11.5625 27.7366 11.5625 26.875V14.6875C11.5625 13.8259 12.2634 13.125 13.125 13.125H14.1016V13.9062C14.1016 14.3377 14.4513 14.6875 14.8828 14.6875C15.3143 14.6875 15.6641 14.3377 15.6641 13.9062V13.125H19.1797V13.9062C19.1797 14.3377 19.5295 14.6875 19.9609 14.6875C20.3924 14.6875 20.7422 14.3377 20.7422 13.9062V13.125H24.2969V13.9062C24.2969 14.3377 24.6466 14.6875 25.0781 14.6875C25.5096 14.6875 25.8594 14.3377 25.8594 13.9062V13.125H26.875C27.7366 13.125 28.4375 13.8259 28.4375 14.6875V19.1406C28.4375 19.5721 28.7873 19.9219 29.2188 19.9219C29.6502 19.9219 30 19.5721 30 19.1406V14.6875C30 12.9644 28.5981 11.5625 26.875 11.5625Z" fill="#0D4CD3"/>
  <path d="M25.2734 20.5469C22.6672 20.5469 20.5469 22.6672 20.5469 25.2734C20.5469 27.8797 22.6672 30 25.2734 30C27.8797 30 30 27.8797 30 25.2734C30 22.6672 27.8797 20.5469 25.2734 20.5469ZM25.2734 28.4375C23.5288 28.4375 22.1094 27.0181 22.1094 25.2734C22.1094 23.5287 23.5288 22.1094 25.2734 22.1094C27.0181 22.1094 28.4375 23.5287 28.4375 25.2734C28.4375 27.0181 27.0181 28.4375 25.2734 28.4375Z" fill="#0D4CD3"/>
  <path d="M26.4062 24.4922H26.0547V23.6719C26.0547 23.2404 25.7049 22.8906 25.2734 22.8906C24.842 22.8906 24.4922 23.2404 24.4922 23.6719V25.2734C24.4922 25.7049 24.842 26.0547 25.2734 26.0547H26.4062C26.8377 26.0547 27.1875 25.7049 27.1875 25.2734C27.1875 24.842 26.8377 24.4922 26.4062 24.4922Z" fill="#0D4CD3"/>
  <path d="M21.6797 18.9844C22.1112 18.9844 22.4609 18.6346 22.4609 18.2031C22.4609 17.7717 22.1112 17.4219 21.6797 17.4219C21.2482 17.4219 20.8984 17.7717 20.8984 18.2031C20.8984 18.6346 21.2482 18.9844 21.6797 18.9844Z" fill="#0D4CD3"/>
  <path d="M18.2812 22.3828C18.7127 22.3828 19.0625 22.033 19.0625 21.6016C19.0625 21.1701 18.7127 20.8203 18.2812 20.8203C17.8498 20.8203 17.5 21.1701 17.5 21.6016C17.5 22.033 17.8498 22.3828 18.2812 22.3828Z" fill="#0D4CD3"/>
  <path d="M14.8828 18.9844C15.3143 18.9844 15.6641 18.6346 15.6641 18.2031C15.6641 17.7717 15.3143 17.4219 14.8828 17.4219C14.4513 17.4219 14.1016 17.7717 14.1016 18.2031C14.1016 18.6346 14.4513 18.9844 14.8828 18.9844Z" fill="#0D4CD3"/>
  <path d="M14.8828 22.3828C15.3143 22.3828 15.6641 22.033 15.6641 21.6016C15.6641 21.1701 15.3143 20.8203 14.8828 20.8203C14.4513 20.8203 14.1016 21.1701 14.1016 21.6016C14.1016 22.033 14.4513 22.3828 14.8828 22.3828Z" fill="#0D4CD3"/>
  <path d="M14.8828 25.7812C15.3143 25.7812 15.6641 25.4315 15.6641 25C15.6641 24.5685 15.3143 24.2188 14.8828 24.2188C14.4513 24.2188 14.1016 24.5685 14.1016 25C14.1016 25.4315 14.4513 25.7812 14.8828 25.7812Z" fill="#0D4CD3"/>
  <path d="M18.2812 25.7812C18.7127 25.7812 19.0625 25.4315 19.0625 25C19.0625 24.5685 18.7127 24.2188 18.2812 24.2188C17.8498 24.2188 17.5 24.5685 17.5 25C17.5 25.4315 17.8498 25.7812 18.2812 25.7812Z" fill="#0D4CD3"/>
  <path d="M18.2812 18.9844C18.7127 18.9844 19.0625 18.6346 19.0625 18.2031C19.0625 17.7717 18.7127 17.4219 18.2812 17.4219C17.8498 17.4219 17.5 17.7717 17.5 18.2031C17.5 18.6346 17.8498 18.9844 18.2812 18.9844Z" fill="#0D4CD3"/>
</svg>
