<svg width="40" height="40" viewBox="0 0 40 40" fill="none" xmlns="http://www.w3.org/2000/svg">
  <circle cx="20" cy="20" r="20" fill="white"/>
  <path d="M28.301 10.8986C27.1029 9.70047 25.1604 9.70047 23.9623 10.8986L11.7993 23.0616C11.716 23.1449 11.6558 23.2483 11.6243 23.3617L10.0249 29.1361C9.9591 29.3729 10.0259 29.6264 10.1996 29.8003C10.3735 29.9739 10.627 30.0408 10.8638 29.9753L16.6382 28.3755C16.7516 28.3441 16.855 28.2839 16.9383 28.2006L29.101 16.0373C30.2973 14.8384 30.2973 12.8975 29.101 11.6986L28.301 10.8986ZM13.2848 23.5047L23.2393 13.55L26.4496 16.7604L16.4949 26.7151L13.2848 23.5047ZM12.6435 24.7915L15.2084 27.3566L11.6606 28.3396L12.6435 24.7915ZM28.137 15.0733L27.4139 15.7963L24.2033 12.5857L24.9266 11.8626C25.5921 11.1971 26.6712 11.1971 27.3367 11.8626L28.137 12.6626C28.8014 13.329 28.8014 14.4073 28.137 15.0733Z" fill="#0D4CD3"/>
</svg>
