<svg width="24" height="24" viewBox="0 0 24 24" fill="none" xmlns="http://www.w3.org/2000/svg">
  <g clip-path="url(#clip0)">
    <path fill-rule="evenodd" clip-rule="evenodd" d="M16.0585 14.7304C15.4423 14.7304 14.9239 15.2488 14.9239 15.865C14.9239 16.4812 15.4423 16.9996 16.0585 16.9996C16.6747 16.9996 17.1937 16.4812 17.1937 15.865C17.1937 15.2488 16.6747 14.7304 16.0585 14.7304ZM16.086 7.36255C14.8818 7.36255 13.761 7.85275 13.0188 8.72095L14.1534 9.99595C14.5878 9.47755 15.1758 9.12715 15.876 9.12715C16.6464 9.12715 16.9686 9.49135 16.9686 9.92575C16.9686 10.3463 16.5906 10.6121 16.1562 10.9205C15.5958 11.3261 14.9238 11.7887 14.9238 12.7553C14.9238 13.2461 15.0918 13.6655 15.3858 13.9877L16.9128 13.5395C16.7724 13.4135 16.6602 13.1753 16.6602 12.9515C16.6602 12.4331 17.0946 12.1247 17.5848 11.7605C18.258 11.2985 18.9996 10.7381 18.9996 9.57535C18.9996 8.27275 17.8938 7.36255 16.086 7.36255Z" fill="#FFC300"/>
    <path fill-rule="evenodd" clip-rule="evenodd" d="M12 22.2C10.1274 22.2 8.3772 21.684 6.867 20.8002H12V20.406V19.0002V10.0002V8.2002V7.9176L12.0018 7.9152L8.1564 4.0698V4.0626H7.8H6H5.6088C7.359 2.6502 9.5808 1.8 12 1.8C17.6244 1.8 22.2 6.3756 22.2 12C22.2 17.6244 17.6244 22.2 12 22.2ZM9.825 8.2002H7.8V6.1752L9.825 8.2002ZM1.8 12C1.8 9.6948 2.5776 7.5726 3.8724 5.8626H6V8.2002V10.0002H7.8H10.2V19.0002H4.6008C2.8698 17.1714 1.8 14.7108 1.8 12ZM12 0C5.373 0 0 5.373 0 12C0 18.627 5.373 24 12 24C18.6276 24 24 18.627 24 12C24 5.373 18.6276 0 12 0Z" fill="#FFC300"/>
  </g>
  <defs>
    <clipPath id="clip0">
      <rect width="24" height="24" fill="white"/>
    </clipPath>
  </defs>
</svg>
