<svg width="24" height="24" viewBox="0 0 24 24" fill="none" xmlns="http://www.w3.org/2000/svg">
  <g clip-path="url(#clip0)">
    <path fill-rule="evenodd" clip-rule="evenodd" d="M12 22.2C6.3756 22.2 1.8 17.6244 1.8 12C1.8 6.3756 6.3756 1.8 12 1.8C17.6244 1.8 22.2 6.3756 22.2 12C22.2 17.6244 17.6244 22.2 12 22.2ZM12 0C5.373 0 0 5.373 0 12C0 18.6276 5.373 24 12 24C18.6276 24 24 18.6276 24 12C24 5.373 18.6276 0 12 0Z" fill="#A8ACB1"/>
    <path d="M16.8938 12.5981C16.8106 12.5063 16.7145 12.4271 16.6086 12.3628C17.0088 11.3411 17.1556 10.2377 17.0364 9.14692C16.8885 8.19825 16.4518 7.31824 15.7857 6.62668C15.1197 5.93513 14.2567 5.46564 13.3143 5.28215C13.0212 5.22014 12.7225 5.18907 12.423 5.18946C11.4051 5.19214 10.4234 5.56756 9.66344 6.24478C8.80238 6.26346 7.97899 6.60146 7.35314 7.19314C6.98053 7.60921 6.70022 8.09943 6.53062 8.63157C6.36102 9.16372 6.30598 9.72574 6.36912 10.2807C6.42077 11.065 6.66573 11.8245 7.08218 12.4911L6.97522 12.6052C6.78932 12.8818 6.67059 13.1979 6.6285 13.5285C6.58641 13.859 6.62212 14.1948 6.73278 14.5091C6.80513 14.8385 6.99531 15.1301 7.26757 15.3291C7.41364 15.4336 7.57472 15.5154 7.74532 15.5716C7.8678 16.5909 8.36764 17.5275 9.14635 18.1966C9.92505 18.8658 10.9261 19.219 11.9523 19.1867C12.9806 19.2242 13.9852 18.8729 14.7662 18.203C15.5471 17.533 16.0471 16.5935 16.1665 15.5716C16.3344 15.5111 16.4929 15.4271 16.6371 15.322C16.9102 15.1251 17.0987 14.8321 17.1648 14.502C17.2714 14.1855 17.3024 13.8485 17.2553 13.5179C17.2083 13.1873 17.0845 12.8723 16.8938 12.5981ZM15.2395 14.6161C15.1084 14.7277 15.0264 14.8865 15.0114 15.0582C15.004 15.4549 14.918 15.8462 14.7585 16.2094C14.5989 16.5727 14.369 16.9008 14.0819 17.1746C13.7947 17.4485 13.4562 17.6627 13.0858 17.8049C12.7154 17.9471 12.3204 18.0144 11.9238 18.0031C11.1194 18.0203 10.3409 17.7176 9.75939 17.1615C9.17785 16.6053 8.84074 15.8412 8.82203 15.0368C8.80943 14.8716 8.73479 14.7173 8.6131 14.6048C8.49141 14.4924 8.33169 14.4302 8.16602 14.4307H8.10185C8.03608 14.4084 7.9737 14.3772 7.91645 14.338C7.8835 14.3048 7.86116 14.2626 7.85228 14.2167C7.76777 13.9516 7.75303 13.6692 7.80949 13.3967C7.90669 13.4539 8.01762 13.4835 8.13037 13.4823C8.22444 13.4822 8.31721 13.4603 8.40133 13.4181C8.5302 13.3621 8.63741 13.2658 8.70685 13.1437C8.77629 13.0215 8.8042 12.8801 8.78638 12.7407C8.5582 10.6016 9.20708 9.78867 9.59926 9.47492C10.1127 9.95267 11.225 10.5802 13.5139 10.5944C13.7159 10.5904 13.9158 10.635 14.097 10.7243C14.2781 10.8137 14.4352 10.9452 14.555 11.1078C14.895 11.6399 15.0527 12.2681 15.0042 12.8976C14.9968 13.0472 15.0419 13.1946 15.1318 13.3144C15.2216 13.4342 15.3506 13.5188 15.4962 13.5536C15.5527 13.5649 15.6109 13.5649 15.6674 13.5536C15.7975 13.5542 15.9246 13.5143 16.031 13.4395C16.0826 13.7052 16.0679 13.9795 15.9882 14.2381C15.9794 14.284 15.957 14.3262 15.9241 14.3594C15.8699 14.4036 15.8066 14.4353 15.7387 14.4521H15.6745C15.5153 14.4566 15.3621 14.5143 15.2395 14.6161ZM9.87022 7.42845C10.0386 7.4248 10.2003 7.36164 10.3266 7.25019C10.8792 6.69587 11.6261 6.37871 12.4087 6.366C12.6317 6.36541 12.8541 6.38932 13.0718 6.4373C13.7794 6.57284 14.4277 6.92375 14.9281 7.44199C15.4284 7.96023 15.7564 8.62047 15.867 9.33231C15.9341 9.8768 15.91 10.4286 15.7957 10.9652C15.7198 10.8005 15.6291 10.643 15.5248 10.4946C15.2966 10.1763 14.9958 9.91711 14.6473 9.73852C14.2988 9.55993 13.9127 9.46711 13.5211 9.46779C10.9184 9.46779 10.2909 8.55508 10.2695 8.51943C10.2109 8.42494 10.1289 8.34712 10.0315 8.29342C9.93412 8.23973 9.82456 8.21197 9.71335 8.21281C9.63307 8.21372 9.55351 8.22819 9.47804 8.2556C9.19995 8.35542 7.9735 8.92587 7.64549 10.9082C7.57787 10.6857 7.53717 10.4558 7.52427 10.2236C7.47388 9.83472 7.50422 9.4396 7.61342 9.06294C7.72261 8.68629 7.9083 8.3362 8.15889 8.03455C8.59839 7.63788 9.17127 7.42146 9.76327 7.42845H9.87022Z" fill="#A8ACB1"/>
  </g>
  <defs>
    <clipPath id="clip0">
      <rect width="24" height="24" fill="white"/>
    </clipPath>
  </defs>
</svg>
