<svg width="24" height="24" viewBox="0 0 24 24" fill="none" xmlns="http://www.w3.org/2000/svg">
<path d="M1.3 12.0001C1.3 17.9006 6.09946 22.7001 12 22.7001C17.9005 22.7001 22.7 17.9006 22.7 12.0001C22.7 6.09956 17.9005 1.30011 12 1.30011C6.09946 1.30011 1.3 6.09956 1.3 12.0001ZM0.5 12.0001C0.5 5.64925 5.64914 0.500107 12 0.500107C18.3514 0.500107 23.5 5.64923 23.5 12.0001C23.5 18.3516 18.3515 23.5001 12 23.5001C5.64913 23.5001 0.5 18.3515 0.5 12.0001Z" fill="#0B40B3" stroke="#317D34"/>
<g clip-path="url(#clip0)">
<path d="M7.75 7.00011C7.75 6.86204 7.86193 6.75011 8 6.75011H13.5858C13.6521 6.75011 13.7157 6.77645 13.7626 6.82333L16.1768 9.23754C16.2237 9.28443 16.25 9.34802 16.25 9.41432V17.0001C16.25 17.1382 16.1381 17.2501 16 17.2501H8C7.86193 17.2501 7.75 17.1382 7.75 17.0001V7.00011Z" stroke="#317D34" stroke-width="1.5"/>
<path d="M13 7.00011V9.00011C13 9.55239 13.4477 10.0001 14 10.0001H16" stroke="#317D34" stroke-width="1.5"/>
</g>
<defs>
<clipPath id="clip0">
<rect width="12" height="12" fill="white" transform="translate(6 6.00011)"/>
</clipPath>
</defs>
</svg>
