<svg width="24" height="24" viewBox="0 0 24 24" fill="none" xmlns="http://www.w3.org/2000/svg"><path fill-rule="evenodd" clip-rule="evenodd" d="M12 22.2C6.37556 22.2 1.79996 17.6244 1.79996 12C1.79996 6.37556 6.37556 1.79996 12 1.79996C17.6244 1.79996 22.2 6.37556 22.2 12C22.2 17.6244 17.6244 22.2 12 22.2ZM12 0C5.373 0 0 5.373 0 12C0 18.6276 5.373 24 12 24C18.6276 24 24 18.6276 24 12C24 5.373 18.6276 0 12 0Z" fill="#135DA8"/><path fill-rule="evenodd" clip-rule="evenodd" d="M14.0074 14.2004H12.5819L7.61238 9.23086L9.03788 7.80536L14.0074 12.7754V14.2004ZM9.29487 7.03386C9.15287 6.89236 8.92237 6.89236 8.78038 7.03386L6.84087 8.97336C6.69887 9.11586 6.69887 9.34586 6.84087 9.48786L12.1744 14.8214C12.2429 14.8894 12.3354 14.9279 12.4319 14.9279H14.3709C14.5719 14.9279 14.7349 14.7649 14.7349 14.5644V12.6249C14.7349 12.5284 14.6964 12.4359 14.6284 12.3674L9.29487 7.03386Z" fill="#0B40B3"/></svg>
