<svg width="24" height="24" viewBox="0 0 24 24" fill="none" xmlns="http://www.w3.org/2000/svg">
  <path fill-rule="evenodd" clip-rule="evenodd" d="M12 22.2C6.37556 22.2 1.79996 17.6244 1.79996 12C1.79996 6.37556 6.37556 1.79996 12 1.79996C17.6244 1.79996 22.2 6.37556 22.2 12C22.2 17.6244 17.6244 22.2 12 22.2ZM12 0C5.373 0 0 5.373 0 12C0 18.6276 5.373 24 12 24C18.6276 24 24 18.6276 24 12C24 5.373 18.6276 0 12 0Z" fill="#0B40B3"/>
  <path d="M14 17L12 20L10 17H9C6.23858 17 4 14.7614 4 12V10C4 7.23858 6.23858 5 9 5H15C17.7614 5 20 7.23858 20 10V12C20 14.7614 17.7614 17 15 17H14ZM9 7C7.34315 7 6 8.34315 6 10V12C6 13.6569 7.34315 15 9 15H15C16.6569 15 18 13.6569 18 12V10C18 8.34315 16.6569 7 15 7H9Z" fill="#0B40B3"/>
  <path d="M9 12C9.55228 12 10 11.5523 10 11C10 10.4477 9.55228 10 9 10C8.44772 10 8 10.4477 8 11C8 11.5523 8.44772 12 9 12Z" fill="#0B40B3"/>
  <path d="M12 12C12.5523 12 13 11.5523 13 11C13 10.4477 12.5523 10 12 10C11.4477 10 11 10.4477 11 11C11 11.5523 11.4477 12 12 12Z" fill="#0B40B3"/>
  <path d="M15 12C15.5523 12 16 11.5523 16 11C16 10.4477 15.5523 10 15 10C14.4477 10 14 10.4477 14 11C14 11.5523 14.4477 12 15 12Z" fill="#0B40B3"/>
</svg>
