<svg width="24" height="24" viewBox="0 0 24 24" fill="none" xmlns="http://www.w3.org/2000/svg"><path fill-rule="evenodd" clip-rule="evenodd" d="M12 22.2C6.36661 22.2 1.80001 17.6334 1.80001 12C1.80001 6.36656 6.36661 1.79996 12 1.79996C17.6334 1.79996 22.2 6.36656 22.2 12C22.1952 17.631 17.631 22.1952 12 22.2ZM12 0C5.373 0 0 5.373 0 12C0 18.6276 5.373 24 12 24C18.6276 24 24 18.6276 24 12C24 5.373 18.6276 0 12 0Z" fill="#FFC300"/><path fill-rule="evenodd" clip-rule="evenodd" d="M7 10C8.10452 10 9 10.8955 9 12C9 13.1045 8.10452 14 7 14C5.89548 14 5 13.1045 5 12C5 10.8955 5.89548 10 7 10Z" fill="#FFC300"/><path fill-rule="evenodd" clip-rule="evenodd" d="M12 10C13.1045 10 14 10.8955 14 12C14 13.1045 13.1045 14 12 14C10.8955 14 10 13.1045 10 12C10 10.8955 10.8955 10 12 10Z" fill="#FFC300"/><path fill-rule="evenodd" clip-rule="evenodd" d="M17 10C18.1045 10 19 10.8955 19 12C19 13.1045 18.1045 14 17 14C15.8955 14 15 13.1045 15 12C15 10.8955 15.8955 10 17 10Z" fill="#FFC300"/></svg>
