<svg width="24" height="24" viewBox="0 0 24 24" fill="none" xmlns="http://www.w3.org/2000/svg">
<path fill-rule="evenodd" clip-rule="evenodd" d="M12 22.2C6.37556 22.2 1.79996 17.6244 1.79996 12C1.79996 6.37556 6.37556 1.79996 12 1.79996C17.6244 1.79996 22.2 6.37556 22.2 12C22.2 17.6244 17.6244 22.2 12 22.2ZM12 0C5.373 0 0 5.373 0 12C0 18.6276 5.373 24 12 24C18.6276 24 24 18.6276 24 12C24 5.373 18.6276 0 12 0Z" fill="#A8ACB1"/>
<path d="M16.89 7.88428H15.8576L14.0317 10.0754C13.9642 10.1564 13.8671 10.1983 13.7691 10.1983C13.6942 10.1983 13.6188 10.1738 13.5559 10.1235L13.0241 9.69799L12.824 10.6391L13.7215 16.7492C13.7372 16.8561 13.7015 16.964 13.6251 17.0404L12.6655 18H16.89C17.3202 18 17.6702 17.65 17.6702 17.2198V8.66448C17.6702 8.23428 17.3202 7.88428 16.89 7.88428ZM10.0567 17.0404C9.98037 16.964 9.94464 16.8561 9.96033 16.7492L10.8579 10.6391L10.6578 9.69799L10.126 10.1235C9.98074 10.2397 9.76924 10.2183 9.6502 10.0754L7.82422 7.88428H6.79192C6.36172 7.88428 6.01172 8.23428 6.01172 8.66448V17.2198C6.01172 17.65 6.36172 18 6.79192 18H11.0164L10.0567 17.0404Z" fill="#A8ACB1"/>
<path d="M11.8411 17.8592L13.0201 16.6792L12.1821 10.9702H11.4991L10.6611 16.6792L11.8411 17.8592Z" fill="#A8ACB1"/>
<path d="M11.2539 9.21998L11.4809 10.287H12.1999L12.4269 9.21998L11.8409 8.75098L11.2539 9.21998Z" fill="#A8ACB1"/>
<path d="M12.3877 8.31386L13.7217 9.38086L15.2777 7.51386L14.6477 6.50586L12.3877 8.31386Z" fill="#A8ACB1"/>
<path d="M9.96027 9.38086L11.2943 8.31386L9.03427 6.50586L8.40527 7.51386L9.96027 9.38086Z" fill="#A8ACB1"/>
<path d="M11.8411 7.877L14.1861 6H9.49512L11.8411 7.877Z" fill="#A8ACB1"/>
</svg>
