<svg width="24" height="24" viewBox="0 0 24 24" fill="none" xmlns="http://www.w3.org/2000/svg">
  <g clip-path="url(#clip0)">
    <path d="M23.7408 7.8982C23.5266 7.64512 23.212 7.5 22.8778 7.5H1.12211C0.788222 7.5 0.473928 7.64512 0.259711 7.89792C0.0597907 8.13393 -0.0305368 8.44096 0.00916606 8.74579L1.29353 22.1493C1.29466 22.1597 1.29578 22.17 1.29719 22.1801C1.41016 23.0257 2.12827 23.6633 2.96775 23.6633H21.0323C21.9149 23.6633 22.6508 22.9874 22.7065 22.1493L23.9908 8.74607C24.0305 8.44129 23.9404 8.13421 23.7408 7.8982ZM21.0367 21.9872C21.0359 21.9858 21.0317 21.9849 21.0323 21.9855L2.98256 21.988C2.9753 21.9846 2.96466 21.9721 2.96133 21.9623L1.73589 9.17811H22.264L21.0367 21.9872Z" fill="#D1D5DF"/>
    <path d="M21.8808 4.2757C21.6683 4.03101 21.3593 3.89062 21.0326 3.89062H2.99612C2.66978 3.89062 2.35937 4.03631 2.14436 4.29023C1.92822 4.54584 1.8348 4.8786 1.88739 5.19262L2.39073 8.46438L4.04925 8.20933L3.64294 5.56846H20.3862L19.9802 8.20933L21.6384 8.46438L22.1429 5.1831C22.1898 4.85263 22.0944 4.52179 21.8808 4.2757Z" fill="#D1D5DF"/>
    <path d="M19.3923 0.725481C19.1797 0.480514 18.8704 0.339844 18.5433 0.339844H5.48427C5.15793 0.339844 4.84753 0.48553 4.63251 0.73945C4.41609 0.995057 4.32295 1.32782 4.37583 1.64408L4.87917 4.85992L6.53684 4.60042L6.1325 2.01767H17.8893L17.4639 4.59339L19.1193 4.86686L19.6534 1.63368C19.701 1.30265 19.6056 0.971854 19.3923 0.725481Z" fill="#D1D5DF"/>
    <path d="M15.5244 12.7812H8.47759C8.01423 12.7812 7.63867 13.1568 7.63867 13.6202C7.63867 14.0835 8.01423 14.4591 8.47759 14.4591H15.5244C15.9878 14.4591 16.3633 14.0835 16.3633 13.6202C16.3633 13.1568 15.9878 12.7812 15.5244 12.7812Z" fill="#D1D5DF"/>
  </g>
  <defs>
    <clipPath id="clip0">
      <rect width="24" height="24" fill="white"/>
    </clipPath>
  </defs>
</svg>
