<svg width="24" height="24" viewBox="0 0 24 24" fill="none" xmlns="http://www.w3.org/2000/svg">
  <path d="M17.3072 8.45768H4.27995L6.94526 5.79237C7.32046 5.41718 7.32046 4.80897 6.94526 4.43378C6.56996 4.05848 5.96186 4.05859 5.58656 4.43378L1.28139 8.73916C0.906202 9.11435 0.906202 9.72256 1.28139 10.0978L5.58656 14.4029C5.77421 14.5906 6.02004 14.6843 6.26586 14.6843C6.51168 14.6843 6.75751 14.5905 6.94516 14.4029C7.32035 14.0277 7.32035 13.4195 6.94516 13.0443L4.27984 10.379H17.3071C19.3867 10.379 21.0787 12.071 21.0787 14.1506C21.0787 16.2302 19.3867 17.9222 17.3071 17.9222H9.38247C8.85186 17.9222 8.4218 18.3522 8.4218 18.8828C8.4218 19.4134 8.85186 19.8435 9.38247 19.8435H17.3071C20.4461 19.8435 23 17.2896 23 14.1506C23 11.0116 20.4462 8.45768 17.3072 8.45768Z" fill="#D1D5DF"/>
</svg>
