<svg width="64" height="65" viewBox="0 0 64 65" fill="none" xmlns="http://www.w3.org/2000/svg">
<path fill-rule="evenodd" clip-rule="evenodd" d="M31.9999 59.5015C17.0015 59.5015 4.79994 47.2999 4.79994 32.3015C4.79994 17.3031 17.0015 5.10154 31.9999 5.10154C46.9983 5.10154 59.1999 17.3031 59.1999 32.3015C59.1999 47.2999 46.9983 59.5015 31.9999 59.5015ZM32 0.304199C14.328 0.304199 0 14.6322 0 32.3042C0 49.9778 14.328 64.3042 32 64.3042C49.6736 64.3042 64 49.9778 64 32.3042C64 14.6322 49.6736 0.304199 32 0.304199Z" fill="#2DC36A"/>
<path fill-rule="evenodd" clip-rule="evenodd" d="M42.6182 22.475C42.2806 22.1502 41.7334 22.1502 41.3958 22.475L29.5094 33.923L24.4534 29.0542C24.1174 28.7294 23.5686 28.7294 23.231 29.0542L20.3782 31.803C20.0406 32.1278 20.0406 32.6558 20.3782 32.9806L28.8982 41.187C29.0662 41.3502 29.2886 41.4318 29.5094 41.4318C29.7302 41.4318 29.951 41.3502 30.1206 41.187L45.471 26.4014C45.6342 26.2446 45.7238 26.0334 45.7238 25.8126C45.7238 25.5918 45.6342 25.379 45.471 25.2238L42.6182 22.475Z" fill="#2DC36A"/>
</svg>
