<svg width="80" height="40" viewBox="0 0 80 40" fill="none" xmlns="http://www.w3.org/2000/svg">
<path d="M40.887 19.1348H33.9348C32.986 19.1348 32.2168 19.9039 32.2168 20.8527C32.2168 21.8015 32.986 22.5707 33.9348 22.5707H40.887C41.8358 22.5707 42.605 21.8015 42.605 20.8527C42.605 19.9039 41.8358 19.1348 40.887 19.1348Z" fill="#1D5DEB" fill-opacity="0.18"/>
<path d="M40.887 11.0933H33.9348C32.986 11.0933 32.2168 11.8624 32.2168 12.8112C32.2168 13.76 32.986 14.5292 33.9348 14.5292H40.887C41.8358 14.5292 42.605 13.76 42.605 12.8112C42.605 11.8624 41.8358 11.0933 40.887 11.0933Z" fill="#1D5DEB" fill-opacity="0.18"/>
<path d="M49.2288 12.8146C49.2288 11.7318 48.351 10.854 47.2682 10.854C46.1854 10.854 45.3076 11.7318 45.3076 12.8146C45.3076 13.8974 46.1854 14.7752 47.2682 14.7752C48.351 14.7752 49.2288 13.8974 49.2288 12.8146Z" fill="#1D5DEB" fill-opacity="0.18"/>
<path d="M47.5106 27.1748H33.9338C32.985 27.1748 32.2158 27.944 32.2158 28.8928C32.2158 29.8416 32.985 30.6107 33.9338 30.6107H47.5106C48.4594 30.6107 49.2285 29.8416 49.2285 28.8928C49.2285 27.944 48.4594 27.1748 47.5106 27.1748Z" fill="#1D5DEB" fill-opacity="0.18"/>
<path fill-rule="evenodd" clip-rule="evenodd" d="M45.296 1C46.2381 1 47.0944 1.34323 47.6939 1.94369L54.973 8.97758C55.6582 9.66379 56.0008 10.5216 56.0008 11.4652V36.1696C56.0008 38.0567 54.4592 39.6007 52.5752 39.6007H28.4255C26.5415 39.6007 25 38.0567 25 36.1696V4.43127C25 2.54415 26.5415 1 28.4255 1H45.296ZM52.5752 11.4652L45.3818 4.60275L28.4255 4.43127V36.1696H52.5752V11.4652Z" fill="#1D5DEB" fill-opacity="0.18"/>
</svg>
