<svg width="80" height="40" viewBox="0 0 80 40" fill="none" xmlns="http://www.w3.org/2000/svg">
  <path fill-rule="evenodd" clip-rule="evenodd" d="M24.4678 5.10792H29.7222V2.45742H50.7399V5.10792H55.9945C58.6431 5.10792 60.3495 7.00468 60.3495 8.82605V13.6096H63V26.3476H60.3495V31.1176C60.3495 32.939 58.6431 34.8357 55.9945 34.8357H50.7399V37.4866H55.9945C59.8637 37.4866 63.0004 34.6351 63.0004 31.1176V8.82605C63.0004 5.30854 59.8637 2.45703 55.9945 2.45703H24.4678C20.5986 2.45703 17.4619 5.30854 17.4619 8.82605V13.6096H20.1128V8.82605C20.1128 7.00468 21.8192 5.10792 24.4678 5.10792ZM24.4678 34.8357H29.7222V37.4866H24.4678C20.5986 37.4866 17.4619 34.6351 17.4619 31.1176V26.3476H20.1128V31.1176C20.1128 32.939 21.8192 34.8357 24.4678 34.8357ZM41.983 12.9654H38.48V26.9772H41.983V12.9654ZM33.2251 12.9657H29.7222V26.9776H33.2251V12.9657ZM47.2371 12.9654H50.74V26.9772H47.2371V12.9654Z" fill="#1D5DEB" fill-opacity="0.18"/>
</svg>
