<svg width="80" height="40" viewBox="0 0 80 40" fill="none" xmlns="http://www.w3.org/2000/svg">
<path fill-rule="evenodd" clip-rule="evenodd" d="M61.4005 13.2247H63.57C64.9007 13.2247 66 14.2566 66 15.5058C66 16.6191 65.1322 17.5424 64.0329 17.7597C65.4504 19.5791 64.814 35.8995 64.814 35.8995C64.814 38.1534 65.2479 40 60.4458 40C55.557 40 56.0777 38.1534 56.0777 35.8995L25.0091 35.8724C25.0091 38.1263 25.5298 39.9728 20.641 39.9728C16.2439 39.9728 16.2728 38.1263 16.2728 35.8724C16.2728 35.8724 15.6075 19.5791 17.025 17.7597C15.8678 17.5696 15 16.6463 15 15.5058C15 14.2566 16.0993 13.2247 17.4299 13.2247H19.6574C19.5128 12.5187 24.7198 0 31.1997 0H49.8871C56.3381 0 61.5451 12.5187 61.4005 13.2247ZM57.3216 21.6429C59.578 21.6429 61.4005 23.3537 61.4005 25.4718C61.4005 27.59 59.578 29.3007 57.3216 29.3007C55.0652 29.3007 53.2428 27.59 53.2428 25.4718C53.2428 23.3537 55.0652 21.6429 57.3216 21.6429ZM23.7362 21.6429C25.9926 21.6429 27.8151 23.3537 27.8151 25.4718C27.8151 27.59 25.9926 29.3007 23.7362 29.3007C21.4799 29.3007 19.6574 27.59 19.6574 25.4718C19.6574 23.3537 21.4799 21.6429 23.7362 21.6429ZM31.3732 3.15003H49.7136C54.371 3.15003 58.1605 12.7902 58.0737 13.2247H22.9841C22.9263 12.7902 26.6869 3.15003 31.3732 3.15003Z" fill="#1D5DEB" fill-opacity="0.18"/>
</svg>
