<svg width="24" height="24" viewBox="0 0 24 24" fill="none"
  xmlns="http://www.w3.org/2000/svg">
  <path fill-rule="evenodd" clip-rule="evenodd" d="M2 12C2 17.5228 6.47715 22 12 22C17.5228 22 22 17.5228 22 12C22 6.47715 17.5228 2 12 2C6.47715 2 2 6.47715 2 12ZM12 0C5.37258 0 0 5.37258 0 12C0 18.6274 5.37258 24 12 24C18.6274 24 24 18.6274 24 12C24 5.37258 18.6274 0 12 0Z" fill="#16A086"/>
  <path fill-rule="evenodd" clip-rule="evenodd" d="M17.9332 9.6832L12.2763 15.3401C11.4953 16.1211 10.229 16.1211 9.44792 15.3401L6.42893 12.3211L7.84315 10.9069L10.8621 13.9258L16.519 8.26898L17.9332 9.6832Z" fill="#16A086"/>
</svg>
