<svg xmlns="http://www.w3.org/2000/svg" width="117" height="30" viewBox="0 0 117 30" fill="none">
  <path d="M17.312 13.8535C17.3246 12.8727 17.584 11.9112 18.066 11.0582C18.548 10.2052 19.2371 9.48848 20.069 8.9748C19.5405 8.21674 18.8433 7.59288 18.0327 7.15278C17.2222 6.71269 16.3206 6.46847 15.3996 6.43953C13.435 6.23242 11.5304 7.6202 10.5293 7.6202C9.50875 7.6202 7.96735 6.46009 6.30752 6.49439C5.2339 6.52923 4.18756 6.84278 3.27047 7.4045C2.35338 7.96622 1.59681 8.75694 1.07447 9.69964C-1.1882 13.634 0.499544 19.4163 2.66699 22.5965C3.75141 24.1538 5.01878 25.8933 6.67712 25.8317C8.2999 25.7641 8.90597 24.7924 10.8648 24.7924C12.8055 24.7924 13.3741 25.8317 15.0661 25.7924C16.8074 25.764 17.9045 24.2282 18.9509 22.6562C19.73 21.5466 20.3296 20.3202 20.7273 19.0225C19.7157 18.5928 18.8524 17.8735 18.245 16.9543C17.6377 16.0351 17.3132 14.9566 17.312 13.8535Z" fill="white"/>
  <path d="M14.1162 4.34806C15.0656 3.20337 15.5333 1.73206 15.4201 0.246582C13.9695 0.399591 12.6297 1.09585 11.6674 2.19662C11.1969 2.73438 10.8366 3.35999 10.607 4.0377C10.3774 4.7154 10.283 5.43191 10.3293 6.14626C11.0548 6.15376 11.7726 5.99582 12.4286 5.68435C13.0845 5.37287 13.6615 4.91597 14.1162 4.34806Z" fill="white"/>
  <path d="M37.825 21.8895H32.2872L30.9573 25.8333H28.6117L33.857 11.2422H36.294L41.5393 25.8333H39.1537L37.825 21.8895ZM32.8607 20.0696H37.2503L35.0864 13.6691H35.0259L32.8607 20.0696Z" fill="white"/>
  <path d="M52.8674 20.5149C52.8674 23.8208 51.1057 25.9447 48.447 25.9447C47.7735 25.9801 47.1038 25.8243 46.5143 25.4951C45.9249 25.166 45.4397 24.6768 45.1143 24.0835H45.064V29.3527H42.8898V15.1953H44.9943V16.9647H45.0343C45.3747 16.3743 45.8681 15.8876 46.462 15.5564C47.0559 15.2253 47.7281 15.062 48.407 15.084C51.0953 15.084 52.8674 17.2183 52.8674 20.5149ZM50.6327 20.5149C50.6327 18.3612 49.5244 16.9452 47.8335 16.9452C46.1723 16.9452 45.0549 18.391 45.0549 20.5149C45.0549 22.6584 46.1723 24.0939 47.8335 24.0939C49.5244 24.0939 50.6327 22.6882 50.6327 20.5149Z" fill="white"/>
  <path d="M64.5258 20.5149C64.5258 23.8208 62.764 25.9447 60.1054 25.9447C59.4319 25.9801 58.7621 25.8243 58.1727 25.4951C57.5833 25.166 57.0981 24.6767 56.7726 24.0835H56.7223V29.3527H54.5481V15.1953H56.6526V16.9647H56.6926C57.033 16.3743 57.5264 15.8876 58.1203 15.5564C58.7142 15.2253 59.3864 15.062 60.0653 15.084C62.7537 15.084 64.5258 17.2183 64.5258 20.5149ZM62.291 20.5149C62.291 18.3612 61.1827 16.9452 59.4918 16.9452C57.8306 16.9452 56.7132 18.391 56.7132 20.5149C56.7132 22.6584 57.8306 24.0939 59.4918 24.0939C61.1828 24.0939 62.291 22.6882 62.291 20.5149H62.291Z" fill="white"/>
  <path d="M72.2309 21.7675C72.392 23.2145 73.7916 24.1645 75.7042 24.1645C77.5368 24.1645 78.8553 23.2144 78.8553 21.9097C78.8553 20.7772 78.0601 20.0991 76.1772 19.6343L74.2943 19.1788C71.6265 18.5316 70.388 17.2786 70.388 15.2453C70.388 12.7278 72.5725 10.9985 75.6745 10.9985C78.7444 10.9985 80.849 12.7278 80.9198 15.2453H78.725C78.5936 13.7892 77.3951 12.9102 75.6436 12.9102C73.8921 12.9102 72.6936 13.7995 72.6936 15.0938C72.6936 16.1254 73.4591 16.7324 75.3317 17.1971L76.9324 17.5918C79.9132 18.2998 81.1517 19.5024 81.1517 21.6366C81.1517 24.3664 78.9866 26.0761 75.5431 26.0761C72.3211 26.0761 70.1458 24.4066 70.0052 21.7674L72.2309 21.7675Z" fill="white"/>
  <path d="M85.8441 12.6777V15.1953H87.8584V16.9245H85.8441V22.7892C85.8441 23.7002 86.2474 24.1248 87.1329 24.1248C87.372 24.1206 87.6107 24.1038 87.8481 24.0743V25.7932C87.45 25.8679 87.0454 25.9017 86.6405 25.8942C84.496 25.8942 83.6596 25.0852 83.6596 23.0221V16.9245H82.1195V15.1953H83.6596V12.6777H85.8441Z" fill="white"/>
  <path d="M89.0249 20.5149C89.0249 17.1677 90.9877 15.0645 94.0486 15.0645C97.1197 15.0645 99.0734 17.1677 99.0734 20.5149C99.0734 23.8712 97.13 25.9653 94.0486 25.9653C90.9683 25.9653 89.0249 23.8712 89.0249 20.5149ZM96.858 20.5149C96.858 18.2188 95.8103 16.8637 94.0486 16.8637C92.2868 16.8637 91.2402 18.2292 91.2402 20.5149C91.2402 22.8201 92.2868 24.165 94.0486 24.165C95.8103 24.165 96.858 22.8201 96.858 20.5149H96.858Z" fill="white"/>
  <path d="M100.866 15.1952H102.94V17.0059H102.99C103.13 16.4404 103.46 15.9406 103.924 15.5906C104.388 15.2406 104.958 15.0616 105.538 15.0839C105.788 15.083 106.038 15.1103 106.283 15.1654V17.2078C105.966 17.1108 105.636 17.0662 105.306 17.0759C104.99 17.063 104.675 17.1189 104.383 17.2398C104.09 17.3607 103.828 17.5437 103.612 17.7762C103.397 18.0088 103.235 18.2853 103.136 18.5869C103.037 18.8885 103.004 19.208 103.04 19.5234V25.8333H100.866L100.866 15.1952Z" fill="white"/>
  <path d="M116.307 22.7088C116.015 24.64 114.142 25.9653 111.746 25.9653C108.665 25.9653 106.752 23.8919 106.752 20.5654C106.752 17.2286 108.675 15.0645 111.655 15.0645C114.585 15.0645 116.428 17.0863 116.428 20.3118V21.0599H108.947V21.1919C108.912 21.5834 108.961 21.9778 109.09 22.3489C109.219 22.72 109.425 23.0594 109.695 23.3443C109.964 23.6293 110.291 23.8535 110.653 24.0019C111.016 24.1503 111.405 24.2196 111.796 24.2051C112.31 24.2535 112.826 24.134 113.267 23.8644C113.707 23.5948 114.05 23.1895 114.243 22.7088L116.307 22.7088ZM108.957 19.5338H114.253C114.272 19.1818 114.219 18.8295 114.097 18.4991C113.974 18.1687 113.785 17.8672 113.541 17.6137C113.297 17.3602 113.004 17.16 112.679 17.0258C112.354 16.8916 112.006 16.8263 111.655 16.8338C111.301 16.8317 110.95 16.9 110.622 17.0349C110.294 17.1697 109.997 17.3683 109.746 17.6194C109.495 17.8704 109.296 18.1688 109.161 18.4974C109.026 18.826 108.956 19.1782 108.957 19.5338V19.5338Z" fill="white"/>
  <path d="M31.3155 3.22293H32.2489C32.4096 3.24302 32.5727 3.22947 32.7279 3.18313C32.8831 3.13678 33.0271 3.05864 33.1508 2.95364C33.2744 2.84864 33.3751 2.71906 33.4464 2.57305C33.5177 2.42704 33.5581 2.26778 33.5651 2.1053C33.5651 1.45871 33.0807 1.04104 32.2592 1.04104C32.0946 1.01793 31.927 1.02819 31.7664 1.07121C31.6058 1.11422 31.4554 1.18912 31.3241 1.29148C31.1928 1.39384 31.0832 1.52159 31.0019 1.66718C30.9205 1.81277 30.8691 1.97326 30.8505 2.13916H29.8256C29.8433 1.838 29.9224 1.54372 30.0582 1.27463C30.194 1.00555 30.3835 0.767414 30.6149 0.575061C30.8463 0.382709 31.1146 0.240255 31.4032 0.156571C31.6918 0.0728867 31.9945 0.0497636 32.2923 0.0886399C33.6668 0.0886399 34.6346 0.861448 34.6346 1.97391C34.6378 2.3466 34.5136 2.70912 34.2828 3.00096C34.052 3.2928 33.7285 3.4963 33.3663 3.5775V3.66011C33.7957 3.67924 34.2001 3.86831 34.491 4.18601C34.782 4.5037 34.9359 4.92417 34.919 5.35548C34.8872 5.66556 34.7942 5.96614 34.6452 6.23961C34.4963 6.51308 34.2945 6.75395 34.0517 6.94808C33.8088 7.14221 33.5298 7.2857 33.2311 7.37015C32.9323 7.45459 32.6198 7.47829 32.3118 7.43985C32.0031 7.48211 31.6892 7.46153 31.3886 7.37932C31.0881 7.29712 30.8071 7.15498 30.5624 6.96139C30.3177 6.76779 30.1143 6.52669 29.9644 6.25246C29.8145 5.97824 29.721 5.67651 29.6897 5.36525H30.7305C30.7934 6.03594 31.4069 6.46857 32.3118 6.46857C33.2167 6.46857 33.8073 5.98263 33.8073 5.29759C33.8073 4.6028 33.2509 4.1748 32.2786 4.1748H31.3155V3.22293Z" fill="white"/>
  <path d="M36.1016 5.77372C36.1016 4.82133 36.8088 4.27227 38.061 4.19424L39.488 4.11163V3.65494C39.488 3.09612 39.1212 2.78058 38.4095 2.78058C37.8291 2.78058 37.428 2.99458 37.3115 3.36865H36.3049C36.4112 2.45986 37.2635 1.87695 38.4586 1.87695C39.7793 1.87695 40.5243 2.5373 40.5243 3.65494V7.27002H39.5223V6.52646H39.44C39.273 6.79318 39.0386 7.01061 38.7606 7.15656C38.4826 7.30251 38.171 7.37174 37.8576 7.35719C37.6365 7.38029 37.4129 7.3566 37.2015 7.28763C36.99 7.21866 36.7952 7.10594 36.6298 6.95675C36.4643 6.80756 36.3319 6.62521 36.2409 6.42145C36.1499 6.21768 36.1024 5.99704 36.1016 5.77372ZM39.488 5.32162V4.87928L38.2015 4.96189C37.476 5.01066 37.1469 5.25851 37.1469 5.72495C37.1469 6.20114 37.5582 6.47825 38.1238 6.47825C38.2895 6.49511 38.4569 6.47831 38.6161 6.42886C38.7752 6.3794 38.9228 6.29831 39.0501 6.19039C39.1773 6.08248 39.2817 5.94995 39.3569 5.8007C39.4322 5.65145 39.4767 5.48852 39.488 5.32162Z" fill="white"/>
  <path d="M43.2835 2.85796V7.26995H42.2438V1.979H45.7125V2.8579L43.2835 2.85796Z" fill="white"/>
  <path d="M52.0135 4.62211C52.0135 6.30313 51.1668 7.35708 49.8369 7.35708C49.5105 7.37948 49.1845 7.30773 48.8972 7.15028C48.61 6.99283 48.3736 6.75624 48.2157 6.46837H48.1334V9.02893H47.0938V1.97893H48.0946V2.85333H48.1723C48.333 2.5554 48.5725 2.30787 48.8645 2.13808C49.1564 1.96829 49.4894 1.88284 49.8267 1.89118C51.1668 1.89115 52.0135 2.94049 52.0135 4.62211ZM50.9441 4.62211C50.9441 3.50448 50.4173 2.8292 49.5365 2.8292C48.6614 2.8292 48.114 3.51882 48.114 4.6267C48.114 5.72941 48.6613 6.41961 49.5319 6.41961C50.4173 6.4196 50.9441 5.74431 50.9441 4.62211Z" fill="white"/>
  <path d="M53.3982 9.16499V8.26595C53.5107 8.28031 53.6241 8.28682 53.7375 8.28545C53.959 8.30193 54.1788 8.23568 54.3546 8.0994C54.5305 7.96313 54.6501 7.76643 54.6904 7.54706L54.7681 7.28945L52.8612 1.979H53.9934L55.3142 6.18158H55.3965L56.7127 1.979H57.8152L55.8512 7.48854C55.4011 8.77599 54.903 9.18909 53.829 9.18909C53.7421 9.18908 53.4953 9.17932 53.3982 9.16499Z" fill="white"/>
  <path d="M58.6252 5.76832H59.6604C59.7621 6.2348 60.1974 6.47802 60.8063 6.47802C61.4987 6.47802 61.9237 6.17165 61.9237 5.69547C61.9237 5.18543 61.5421 4.94217 60.8063 4.94217H60.018V4.13091H60.7926C61.421 4.13091 61.7409 3.88823 61.7409 3.44589C61.7409 3.05747 61.4313 2.76086 60.7926 2.76086C60.2111 2.76086 59.786 3.00872 59.7186 3.42639H58.7167C58.7916 2.94645 59.051 2.51521 59.4392 2.22541C59.8275 1.93562 60.3134 1.81042 60.7926 1.87674C62.0448 1.87674 62.7612 2.44532 62.7612 3.33918C62.767 3.5881 62.6876 3.83149 62.5362 4.02866C62.3848 4.22582 62.1706 4.36481 61.9294 4.42239V4.50501C62.2166 4.54221 62.4801 4.68398 62.6701 4.90343C62.8601 5.12288 62.9632 5.40473 62.96 5.69549C62.96 6.70129 62.1077 7.36677 60.8063 7.36677C59.6558 7.36673 58.7212 6.83718 58.6252 5.76832Z" fill="white"/>
  <path d="M64.4573 7.26995V1.979H65.4878V5.61819H65.5701L67.9979 1.97902H69.0285V7.26996H67.9979V3.61129H67.9203L65.4878 7.26997L64.4573 7.26995Z" fill="white"/>
  <path d="M74.7056 2.8579H73.0466V7.26989H72.0058V2.8579H70.3468V1.979H74.7056V2.8579Z" fill="white"/>
  <path d="M80.3062 5.84153C80.1645 6.32506 79.8582 6.74325 79.4408 7.02303C79.0233 7.30281 78.5213 7.42641 78.0223 7.37224C77.6752 7.38144 77.3303 7.31467 77.0115 7.17658C76.6927 7.03848 76.4076 6.83236 76.1761 6.57252C75.9445 6.31268 75.7721 6.00535 75.6707 5.67186C75.5692 5.33837 75.5413 4.9867 75.5888 4.64128C75.5425 4.29479 75.571 3.94237 75.6722 3.60788C75.7733 3.27339 75.9449 2.96463 76.1752 2.70252C76.4056 2.44041 76.6893 2.23106 77.0071 2.08864C77.325 1.94622 77.6697 1.87406 78.0178 1.87704C79.4836 1.87704 80.3691 2.88284 80.3691 4.54429V4.90866H76.649V4.96717C76.6325 5.16138 76.6567 5.3569 76.72 5.54116C76.7832 5.72543 76.8841 5.89437 77.0163 6.03712C77.1484 6.17987 77.3088 6.29328 77.4872 6.37006C77.6656 6.44684 77.858 6.48528 78.052 6.48292C78.3006 6.51277 78.5523 6.46772 78.7753 6.35351C78.9983 6.23929 79.1824 6.06107 79.3042 5.84149L80.3062 5.84153ZM76.649 4.1364H79.3088C79.3219 3.95892 79.2979 3.78064 79.2384 3.613C79.1789 3.44537 79.0851 3.2921 78.9631 3.16303C78.8411 3.03395 78.6935 2.93193 78.5299 2.86352C78.3664 2.7951 78.1903 2.76181 78.0132 2.76576C77.8333 2.76331 77.6548 2.79709 77.4881 2.8651C77.3215 2.93312 77.1701 3.034 77.0429 3.16178C76.9157 3.28955 76.8154 3.44163 76.7477 3.60903C76.6801 3.77643 76.6465 3.95576 76.649 4.1364H76.649Z" fill="white"/>
  <path d="M84.7141 1.979H87.0894C88.12 1.979 88.7244 2.50339 88.7244 3.32438C88.726 3.58489 88.6384 3.83804 88.4764 4.04149C88.3144 4.24493 88.0877 4.38633 87.8343 4.442V4.52462C88.142 4.54414 88.4304 4.6816 88.6401 4.90859C88.8497 5.13559 88.9646 5.43478 88.9609 5.74437C88.9609 6.6675 88.2696 7.26992 87.1134 7.26992H84.7141V1.979ZM85.7447 2.78051V4.15056H86.7752C87.4036 4.15056 87.7041 3.90787 87.7041 3.46036C87.7041 3.04785 87.4425 2.78049 86.8906 2.78049L85.7447 2.78051ZM85.7447 4.91823V6.46846H86.9775C87.5922 6.46846 87.9212 6.19594 87.9212 5.69565C87.9212 5.1661 87.5488 4.91824 86.8472 4.91824L85.7447 4.91823Z" fill="white"/>
</svg>
