<?xml version="1.0" encoding="UTF-8"?>
<svg width="80px" height="80px" viewBox="0 0 80 80" version="1.1" xmlns="http://www.w3.org/2000/svg" xmlns:xlink="http://www.w3.org/1999/xlink">
    <g id="Page-1" stroke="none" stroke-width="1" fill="none" fill-rule="evenodd">
        <g id="indi">
            <circle id="Oval-Copy" stroke="#A9C9E3" stroke-width="2" cx="40" cy="40" r="39"></circle>
            <path d="M29.7378344,51.5454498 C27.4204186,52.3659457 25.0403342,53.2224179 24.0001663,54.8602596 C33.5405647,61.7662513 46.4556232,61.7703961 56.0001663,54.8721965 C54.8444427,53.0698909 52.4640266,52.2326503 50.1555636,51.4225993 C47.8064819,50.6030982 45.5804166,49.8245473 44.6926099,47.9945548 C44.0689071,46.303163 43.9503671,44.4668705 44.3510821,42.7091625 C44.3918665,42.5627697 44.4563588,42.4245007 44.542404,42.2993291 C46.9052462,38.8167396 46.9871466,37.9017434 47.1509474,36.0853457 L47.1509474,35.7574126 C47.1657027,35.601404 47.207316,35.448877 47.2737979,35.3069606 L47.6698708,34.5010543 C47.7114841,34.4068855 47.7666922,34.319514 47.8338373,34.2415926 C48.3358501,33.3217885 48.642562,32.3083128 48.7352387,31.2643318 C48.7556309,31.0323913 48.7556309,30.799456 48.7352387,30.5678471 C48.3607186,30.6127762 47.9833801,30.5098205 47.6836313,30.2808642 C47.2500899,29.9734891 47.0539601,29.4287024 47.1918975,28.9152501 C47.5644282,27.2483952 47.652297,25.5306427 47.451525,23.8347745 C47.1783027,20.8026371 43.3543512,19 39.8853566,19 C36.416362,19 32.9609621,20.6799523 32.5376997,23.8755589 C32.4161754,25.5931456 32.5496366,27.3190218 32.9336067,28.9971505 C33.0392151,29.514416 32.8371168,30.0461052 32.4146833,30.3627646 C32.1036609,30.5769655 31.7230065,30.6650001 31.3494811,30.6087972 C31.3224573,30.8400746 31.3224573,31.0738388 31.3494811,31.305282 C31.4305526,32.3494288 31.7332855,33.3645623 32.237122,34.2825428 C32.3085776,34.3601326 32.3682621,34.4473383 32.4146833,34.5420045 L32.8107562,35.3479108 C32.8772381,35.489993 32.9188514,35.6423542 32.9336067,35.7985286 L32.9336067,36.1262959 C33.0977391,37.9426936 33.1796394,38.8578556 35.5423159,42.3402793 C35.6389716,42.4744035 35.7041272,42.6285885 35.733472,42.7910629 C36.1181053,44.522576 35.9995653,46.3280315 35.3919442,47.9945548 C34.4907085,49.8383079 32.182577,50.6576432 29.7378344,51.5454498 Z M49.084919,36.1553947 C49.1158715,36.0893215 49.1351743,36.018551 49.1420615,35.9457327 L47.1509474,35.7574126 L49.1509474,35.7574126 L49.1509474,36.0211817 L49.084919,36.1553947 Z M30.4838418,35.2448362 C29.8432837,34.0777516 29.4585341,32.78734 29.3629767,31.5372306 C29.3179556,31.1516511 29.3179556,30.7621518 29.3629959,30.3766846 C29.4608815,29.5389516 30.0618837,28.8859229 30.8250456,28.6781788 C30.5208036,27.0501249 30.4256366,25.3887598 30.5426869,23.734406 C31.1032139,19.4740846 35.1803445,17 39.8853566,17 C44.6286041,17 49.0773565,19.5924398 49.4376547,23.5996388 C49.6344861,25.2622222 49.5863085,26.9434927 49.2827164,28.643622 C50.0551576,28.8637355 50.6525342,29.5406364 50.7275314,30.392434 C50.7581964,30.7407178 50.7581964,31.0909626 50.7274045,31.4411812 C50.6103968,32.7592445 50.2230757,34.0386743 49.5893865,35.1997403 C49.5451467,35.2807979 49.4953744,35.3586425 49.4404466,35.4327293 L49.1509474,36.0211817 L49.1428644,36.2649746 C49.1343591,36.359296 49.1343591,36.359296 49.1257812,36.4534687 C49.0748766,37.0094647 49.034911,37.349877 48.9676253,37.729032 C48.6850813,39.3211685 47.9891999,40.769495 46.264571,43.3229535 C46.0019742,44.6154006 46.0941862,45.955188 46.5320083,47.1996543 C46.9687712,48.0086089 47.9845398,48.5470056 50.8177856,49.5354157 C54.7603485,50.9188803 56.3834571,51.7648363 57.683755,53.7925997 C58.2566802,54.686054 58.0319156,55.8714456 57.1716963,56.4931584 C46.9271234,63.8972958 33.0668402,63.8923332 22.8274333,56.4803513 C21.9708782,55.8603182 21.7449783,54.6806637 22.3118659,53.7880461 C23.5221385,51.8823587 25.1358635,51.0531511 29.0703249,49.66013 C29.2847541,49.5822278 29.2847541,49.5822278 29.5101776,49.5001706 C32.0726299,48.5656648 33.1233512,47.9759257 33.5524469,47.1983311 C33.9740652,45.9811683 34.0657565,44.6726986 33.8063053,43.343509 C32.0937714,40.8066166 31.3994527,39.3600871 31.1171462,37.7701379 C31.0498717,37.3912482 31.0098666,37.0509855 30.9589067,36.4955147 C30.9502779,36.4009747 30.9502779,36.4009747 30.9417223,36.3062854 L30.9336067,36.1262959 L30.6683926,35.5231427 C30.5992793,35.4357494 30.5375351,35.3426643 30.4838418,35.2448362 Z" id="Page-1" fill="#0055A6" fill-rule="nonzero"></path>
        </g>
    </g>
</svg>