<svg width="24" height="24" viewBox="0 0 24 24" fill="none" xmlns="http://www.w3.org/2000/svg">
<path fill-rule="evenodd" clip-rule="evenodd" d="M15.6285 7.14065C15.903 7.38471 16.2576 7.51953 16.625 7.51953H20C20.2761 7.51953 20.5 7.74339 20.5 8.01953V17.0195C20.5 17.848 19.8284 18.5195 19 18.5195H5C4.17157 18.5195 3.5 17.848 3.5 17.0195V8.01953C3.5 7.74339 3.72386 7.51953 4 7.51953H7.375C7.74237 7.51953 8.09697 7.38471 8.37155 7.14065L9.76905 5.89842C10.0436 5.65435 10.3982 5.51953 10.7656 5.51953H13.2344C13.6018 5.51953 13.9564 5.65435 14.2309 5.89842L15.2275 4.7773L14.2309 5.89842L15.6285 7.14065ZM16.625 6.01953L15.2275 4.7773C14.6783 4.28917 13.9691 4.01953 13.2344 4.01953H10.7656C10.0309 4.01953 9.32166 4.28917 8.77251 4.7773L7.375 6.01953H4C2.89543 6.01953 2 6.91496 2 8.01953V17.0195C2 18.6764 3.34315 20.0195 5 20.0195H19C20.6569 20.0195 22 18.6764 22 17.0195V8.01953C22 6.91496 21.1046 6.01953 20 6.01953H16.625ZM12 10.5195C13.1046 10.5195 14 11.415 14 12.5195C14 13.6241 13.1046 14.5195 12 14.5195C10.8954 14.5195 10 13.6241 10 12.5195C10 11.415 10.8954 10.5195 12 10.5195ZM12 9.01953C13.933 9.01953 15.5 10.5865 15.5 12.5195C15.5 14.4525 13.933 16.0195 12 16.0195C10.067 16.0195 8.5 14.4525 8.5 12.5195C8.5 10.5865 10.067 9.01953 12 9.01953Z" fill="white"/>
</svg>
