<svg width="24" height="24" viewBox="0 0 24 24" fill="none" xmlns="http://www.w3.org/2000/svg">
<circle cx="12" cy="12" r="11.5" fill="white" stroke="#0D4CD3"/>
<path d="M12.498 13.8661C13.6026 13.8661 14.498 13.0304 14.498 11.9995C14.498 10.9685 13.6026 10.1328 12.498 10.1328C11.3935 10.1328 10.498 10.9685 10.498 11.9995C10.498 13.0304 11.3935 13.8661 12.498 13.8661Z" fill="#0D4CD3"/>
<path d="M10.625 6.16797L9.48125 7.33464H7.5C6.8125 7.33464 6.25 7.85964 6.25 8.5013V15.5013C6.25 16.143 6.8125 16.668 7.5 16.668H17.5C18.1875 16.668 18.75 16.143 18.75 15.5013V8.5013C18.75 7.85964 18.1875 7.33464 17.5 7.33464H15.5188L14.375 6.16797H10.625ZM12.5 14.918C10.775 14.918 9.375 13.6113 9.375 12.0013C9.375 10.3913 10.775 9.08464 12.5 9.08464C14.225 9.08464 15.625 10.3913 15.625 12.0013C15.625 13.6113 14.225 14.918 12.5 14.918Z" fill="#0D4CD3"/>
</svg>
