<svg width="80px" height="80px" viewBox="0 0 80 80" version="1.1" xmlns="http://www.w3.org/2000/svg" xmlns:xlink="http://www.w3.org/1999/xlink">
    <!-- Generator: Sketch 47 (45396) - http://www.bohemiancoding.com/sketch -->
    <g id="Page-1" stroke="none" stroke-width="1" fill="none" fill-rule="evenodd">
        <g id="busi">
            <path d="M31.991,19 L31.991,24.999 L19,24.999 L19,57 L61.001,57 L61.001,24.999 L47.99,24.999 L47.99,19 L31.991,19 Z M34.001,25 L46.001,25 L46.001,20.99 L34.001,20.99 L34.001,25 Z M21,38.99 L59,38.99 L59,27 L21,27 L21,38.99 Z M46,45.99 L46,40.99 L59,40.99 L59,55 L21,55 L21,40.99 L34.001,40.99 L34.001,45.99 L46,45.99 Z M36.001,43.991 L44.001,43.991 L44.001,40.99 L36.001,40.99 L36.001,43.991 Z" id="Page-1" fill="#0055A6"></path>
            <circle id="Oval" stroke="#A9C9E3" stroke-width="2" cx="40" cy="40" r="39"></circle>
        </g>
    </g>
</svg>