<svg width="24" height="24" viewBox="0 0 24 24" fill="none" xmlns="http://www.w3.org/2000/svg">
<path opacity="0.5" fill-rule="evenodd" clip-rule="evenodd" d="M0 12C0 5.37258 5.37258 0 12 0C18.6274 0 24 5.37258 24 12C24 18.6274 18.6274 24 12 24C5.37258 24 0 18.6274 0 12Z" fill="#1D5DEB" fill-opacity="0.18"/>
<path d="M10.1038 18.0903C10.1038 18.0945 10.1035 18.0987 10.1035 18.1028C10.1035 19.1505 10.9528 19.9999 12.0006 19.9999C13.0483 19.9999 13.8976 19.1505 13.8976 18.1028C13.8976 18.0987 13.8973 18.0945 13.8973 18.0903H10.1038Z" fill="#0D4CD3"/>
<path d="M18.0571 15.7192L16.3498 13.2111C16.3498 12.4434 16.3498 10.5674 16.3498 10.0821C16.3498 7.97184 14.8469 6.21284 12.8532 5.81644V4.85289C12.8532 4.38187 12.4713 4 12.0003 4C11.5292 4 11.1474 4.38187 11.1474 4.85289V5.81647C9.15365 6.21291 7.65081 7.97191 7.65081 10.0821C7.65081 10.9082 7.65081 12.7323 7.65081 13.2111L5.94347 15.7192C5.76363 15.9834 5.74461 16.3253 5.89404 16.6078C6.04348 16.8903 6.33684 17.067 6.65643 17.067H17.3441C17.6637 17.067 17.9571 16.8903 18.1065 16.6078C18.256 16.3253 18.2369 15.9833 18.0571 15.7192Z" fill="#0D4CD3"/>
</svg>
