<svg width="26" height="33" viewBox="0 0 26 33" fill="none" xmlns="http://www.w3.org/2000/svg">
  <path d="M13 30.6176L12.6405 30.9652L13 31.337L13.3595 30.9652L13 30.6176ZM13 30.6176C13.3595 30.9652 13.3596 30.9651 13.3597 30.9649L13.3602 30.9645L13.3619 30.9627L13.3684 30.956L13.3932 30.9301C13.415 30.9073 13.4471 30.8737 13.4889 30.8298C13.5723 30.7419 13.6943 30.6127 13.8493 30.4462C14.1593 30.1133 14.6014 29.6315 15.1318 29.034C16.1919 27.8397 17.6066 26.1806 19.0226 24.3239C20.4371 22.469 21.8607 20.4068 22.9328 18.407C23.9971 16.422 24.75 14.4358 24.75 12.75C24.75 6.24224 19.5078 1 13 1C6.49224 1 1.25 6.24224 1.25 12.75C1.25 14.4358 2.00292 16.422 3.06715 18.407C4.1393 20.4068 5.56289 22.469 6.97742 24.3239C8.39336 26.1806 9.8081 27.8397 10.8682 29.034C11.3986 29.6315 11.8407 30.1133 12.1507 30.4462C12.3057 30.6127 12.4277 30.7419 12.5111 30.8298C12.5529 30.8737 12.585 30.9073 12.6068 30.9301L12.6316 30.956L12.6381 30.9627L12.6398 30.9645L12.6403 30.9649C12.6404 30.9651 12.6405 30.9652 13 30.6176ZM8.26103 12.5294C8.26103 9.93791 10.4085 7.79044 13 7.79044C15.5949 7.79044 17.739 9.88618 17.739 12.5294C17.739 15.1243 15.6432 17.2684 13 17.2684C10.4085 17.2684 8.26103 15.1209 8.26103 12.5294Z" fill="#348FCD" stroke="#F2F8FC"/>
</svg>
