<svg width="24" height="24" viewBox="4 4 24 24" fill="none" xmlns="http://www.w3.org/2000/svg">
  <path d="M21.7046 18.2805C22.0985 18.6739 22.0985 19.3116 21.7046 19.705C21.3108 20.0983 20.6723 20.0983 20.2785 19.705L15.2869 14.7195C14.8931 14.3261 14.8931 13.6884 15.2869 13.295C15.6807 12.9017 16.3193 12.9017 16.7131 13.295L21.7046 18.2805Z" fill="#0D4CD3"/>
  <path d="M11.7215 19.7048C11.3277 20.0982 10.6892 20.0982 10.2954 19.7048C9.90154 19.3115 9.90154 18.6737 10.2954 18.2804L15.2869 13.295C15.6807 12.9017 16.3193 12.9017 16.7131 13.295C17.1069 13.6884 17.1069 14.326 16.7131 14.7193L11.7215 19.7048Z" fill="#0D4CD3"/>
</svg>
