<svg width="548" height="207" viewBox="0 0 548 207" fill="none" xmlns="http://www.w3.org/2000/svg">
<path d="M515.065 53.557C488.61 46.7717 445.712 54.7272 425.816 44.6621C406.45 34.8619 438.194 22.8245 421.525 13.591C396.79 -0.109574 283.612 2.3926 213.294 22.4222C192.148 28.4446 183.916 33.4784 160.001 35.7082C108.645 40.4942 78.098 23.6733 52.6947 26.8746C-4.49243 34.0818 -52.4823 144.938 119.39 189.42C199.666 210.193 315.581 213.303 403.613 194.741C562.698 161.197 574.428 68.7786 515.065 53.557Z" fill="#F3F5FB"/>
<ellipse cx="273.5" cy="189.5" rx="140.5" ry="6.5" fill="#CED9F0"/>
<path fill-rule="evenodd" clip-rule="evenodd" d="M294.1 171.6H255.1L235.6 191.1H313.6L294.1 171.6Z" fill="#6D8CD1"/>
<path fill-rule="evenodd" clip-rule="evenodd" d="M301.9 179.4L294.1 171.6H255.1L247.3 179.4H301.9Z" fill="#5479CA"/>
<path fill-rule="evenodd" clip-rule="evenodd" d="M352.6 31.1992H196.6C187.985 31.1992 181 38.1841 181 46.7992V155.999C181 164.614 187.985 171.599 196.6 171.599H352.6C361.215 171.599 368.2 164.614 368.2 155.999V46.7992C368.2 38.1841 361.215 31.1992 352.6 31.1992Z" fill="#F3F5FB"/>
<path fill-rule="evenodd" clip-rule="evenodd" d="M359 31H189C179.612 31 172 38.0147 172 46.6667V156.333C172 164.985 179.612 172 189 172H359C368.388 172 376 164.985 376 156.333V46.6667C376 38.0147 368.388 31 359 31ZM184.75 46.6667C184.75 44.5086 186.658 42.75 189 42.75H359C361.342 42.75 363.25 44.5086 363.25 46.6667V140.667C363.25 142.829 361.342 144.583 359 144.583H189C186.658 144.583 184.75 142.829 184.75 140.667V46.6667Z" fill="#6D8CD1"/>
<path d="M259.246 156H290.2" stroke="#F3F5FB"/>
<path d="M213.684 123.957C212.662 122.765 212.322 121.233 212.662 119.701L229.689 42.5682C230.2 40.1845 232.243 38.4816 234.627 38.4816H341.727V22.4763C341.727 19.5815 339.513 17.3683 336.619 17.3683H273.278L251.995 1.02172C251.143 0.340573 249.952 0 248.93 0H210.108C207.214 0.000325908 205 2.21389 205 5.10828V120.892C205 123.787 207.214 126 210.108 126H328.276V125.83H217.6C216.068 125.83 214.535 125.149 213.684 123.957Z" fill="#CED9F0"/>
<path d="M356.371 40.3593C355.349 39.1675 353.987 38.4863 352.455 38.4863H340.365H233.265C230.882 38.4863 228.838 40.1892 228.328 42.5729L211.301 119.705C210.96 121.238 211.301 122.77 212.322 123.962C213.344 125.154 214.706 125.835 216.238 125.835H326.914H335.428C337.811 125.835 339.855 124.132 340.365 121.748L357.393 44.616C357.733 43.254 357.393 41.5512 356.371 40.3593Z" fill="#9DB3E1"/>
</svg>
