<svg width="48" height="744" viewBox="0 0 48 744" fill="none" xmlns="http://www.w3.org/2000/svg">
<g clip-path="url(#clip0)">
<path d="M6.98591 24C3.89395 24 1.97109 20.6418 3.53625 17.9752L11.1813 4.9504C12.6177 2.50318 15.243 1 18.0806 1H44C46.2091 1 48 2.79086 48 5V20C48 22.2091 46.2091 24 44 24H6.98591Z" fill="#12826E"/>
<path d="M21.7714 12.7919L18.5444 7.87793H20.4204C20.5511 7.87793 20.6444 7.8966 20.7004 7.93393C20.7611 7.9666 20.8171 8.0226 20.8684 8.10193L23.1644 11.8119C23.1877 11.7559 23.2134 11.6999 23.2414 11.6439C23.2694 11.5832 23.3021 11.5226 23.3394 11.4619L25.4534 8.13693C25.5047 8.04826 25.5607 7.98293 25.6214 7.94093C25.6821 7.89893 25.7591 7.87793 25.8524 7.87793H27.6514L24.3964 12.7149L27.7424 17.9999H25.8664C25.7357 17.9999 25.6307 17.9672 25.5514 17.9019C25.4767 17.8366 25.4161 17.7619 25.3694 17.6779L23.0244 13.7999C22.9917 13.9026 22.9474 14.0006 22.8914 14.0939L20.6444 17.6779C20.5884 17.7572 20.5231 17.8319 20.4484 17.9019C20.3784 17.9672 20.2851 17.9999 20.1684 17.9999H18.4114L21.7714 12.7919Z" fill="white"/>
<path d="M31.423 16.4459H35.469V17.9999H29.54V7.87793H31.423V16.4459Z" fill="white"/>
<path d="M42.8334 9.71911C42.7774 9.81711 42.7167 9.88944 42.6514 9.93611C42.5907 9.97811 42.5137 9.99911 42.4204 9.99911C42.3224 9.99911 42.2151 9.96411 42.0984 9.89411C41.9864 9.81944 41.8511 9.73778 41.6924 9.64911C41.5337 9.56044 41.3471 9.48111 41.1324 9.41111C40.9224 9.33644 40.6727 9.29911 40.3834 9.29911C40.1221 9.29911 39.8934 9.33178 39.6974 9.39711C39.5014 9.45778 39.3357 9.54411 39.2004 9.65611C39.0697 9.76811 38.9717 9.90344 38.9064 10.0621C38.8411 10.2161 38.8084 10.3864 38.8084 10.5731C38.8084 10.8111 38.8737 11.0094 39.0044 11.1681C39.1397 11.3268 39.3171 11.4621 39.5364 11.5741C39.7557 11.6861 40.0054 11.7864 40.2854 11.8751C40.5654 11.9638 40.8524 12.0594 41.1464 12.1621C41.4404 12.2601 41.7274 12.3768 42.0074 12.5121C42.2874 12.6428 42.5371 12.8108 42.7564 13.0161C42.9757 13.2168 43.1507 13.4641 43.2814 13.7581C43.4167 14.0521 43.4844 14.4091 43.4844 14.8291C43.4844 15.2864 43.4051 15.7158 43.2464 16.1171C43.0924 16.5138 42.8637 16.8614 42.5604 17.1601C42.2617 17.4541 41.8954 17.6874 41.4614 17.8601C41.0274 18.0281 40.5304 18.1121 39.9704 18.1121C39.6484 18.1121 39.3311 18.0794 39.0184 18.0141C38.7057 17.9534 38.4047 17.8648 38.1154 17.7481C37.8307 17.6314 37.5624 17.4914 37.3104 17.3281C37.0584 17.1648 36.8344 16.9828 36.6384 16.7821L37.1914 15.8791C37.2381 15.8138 37.2987 15.7601 37.3734 15.7181C37.4481 15.6714 37.5274 15.6481 37.6114 15.6481C37.7281 15.6481 37.8541 15.6971 37.9894 15.7951C38.1247 15.8884 38.2857 15.9934 38.4724 16.1101C38.6591 16.2268 38.8761 16.3341 39.1234 16.4321C39.3754 16.5254 39.6764 16.5721 40.0264 16.5721C40.5631 16.5721 40.9784 16.4461 41.2724 16.1941C41.5664 15.9374 41.7134 15.5711 41.7134 15.0951C41.7134 14.8291 41.6457 14.6121 41.5104 14.4441C41.3797 14.2761 41.2047 14.1361 40.9854 14.0241C40.7661 13.9074 40.5164 13.8094 40.2364 13.7301C39.9564 13.6508 39.6717 13.5644 39.3824 13.4711C39.0931 13.3778 38.8084 13.2658 38.5284 13.1351C38.2484 13.0044 37.9987 12.8341 37.7794 12.6241C37.5601 12.4141 37.3827 12.1528 37.2474 11.8401C37.1167 11.5228 37.0514 11.1331 37.0514 10.6711C37.0514 10.3024 37.1237 9.94311 37.2684 9.59311C37.4177 9.24311 37.6324 8.93278 37.9124 8.66211C38.1924 8.39144 38.5377 8.17444 38.9484 8.01111C39.3591 7.84778 39.8304 7.76611 40.3624 7.76611C40.9597 7.76611 41.5104 7.85944 42.0144 8.04611C42.5184 8.23278 42.9477 8.49411 43.3024 8.83011L42.8334 9.71911Z" fill="white"/>
</g>
<g clip-path="url(#clip1)">
<path d="M6.98591 60C3.89395 60 1.97109 56.6418 3.53625 53.9752L11.1813 40.9504C12.6177 38.5032 15.243 37 18.0806 37H44C46.2091 37 48 38.7909 48 41V56C48 58.2091 46.2091 60 44 60H6.98591Z" fill="#12826E"/>
<path d="M25.6229 51.6131C25.7256 51.6131 25.8166 51.6528 25.8959 51.7321L26.6379 52.5371C26.2273 53.0458 25.7209 53.4354 25.1189 53.7061C24.5216 53.9768 23.8029 54.1121 22.9629 54.1121C22.2116 54.1121 21.5349 53.9838 20.9329 53.7271C20.3356 53.4704 19.8246 53.1134 19.3999 52.6561C18.9753 52.1988 18.6486 51.6528 18.4199 51.0181C18.1959 50.3834 18.0839 49.6904 18.0839 48.9391C18.0839 48.1784 18.2053 47.4831 18.4479 46.8531C18.6906 46.2184 19.0313 45.6724 19.4699 45.2151C19.9133 44.7578 20.4406 44.4031 21.0519 44.1511C21.6633 43.8944 22.3399 43.7661 23.0819 43.7661C23.8193 43.7661 24.4726 43.8874 25.0419 44.1301C25.6159 44.3728 26.1036 44.6901 26.5049 45.0821L25.8749 45.9571C25.8376 46.0131 25.7886 46.0621 25.7279 46.1041C25.6719 46.1461 25.5926 46.1671 25.4899 46.1671C25.4199 46.1671 25.3476 46.1484 25.2729 46.1111C25.1983 46.0691 25.1166 46.0201 25.0279 45.9641C24.9393 45.9034 24.8366 45.8381 24.7199 45.7681C24.6033 45.6981 24.4679 45.6351 24.3139 45.5791C24.1599 45.5184 23.9803 45.4694 23.7749 45.4321C23.5743 45.3901 23.3409 45.3691 23.0749 45.3691C22.6223 45.3691 22.2069 45.4508 21.8289 45.6141C21.4556 45.7728 21.1336 46.0061 20.8629 46.3141C20.5923 46.6174 20.3823 46.9908 20.2329 47.4341C20.0836 47.8728 20.0089 48.3744 20.0089 48.9391C20.0089 49.5084 20.0883 50.0148 20.2469 50.4581C20.4103 50.9014 20.6296 51.2748 20.9049 51.5781C21.1803 51.8814 21.5046 52.1148 21.8779 52.2781C22.2513 52.4368 22.6526 52.5161 23.0819 52.5161C23.3386 52.5161 23.5696 52.5021 23.7749 52.4741C23.9849 52.4461 24.1763 52.4018 24.3489 52.3411C24.5263 52.2804 24.6919 52.2034 24.8459 52.1101C25.0046 52.0121 25.1609 51.8931 25.3149 51.7531C25.3616 51.7111 25.4106 51.6784 25.4619 51.6551C25.5133 51.6271 25.5669 51.6131 25.6229 51.6131Z" fill="white"/>
<path d="M33.3178 45.7191C33.2618 45.8171 33.2011 45.8894 33.1358 45.9361C33.0751 45.9781 32.9981 45.9991 32.9048 45.9991C32.8068 45.9991 32.6994 45.9641 32.5828 45.8941C32.4708 45.8194 32.3354 45.7378 32.1768 45.6491C32.0181 45.5604 31.8314 45.4811 31.6168 45.4111C31.4068 45.3364 31.1571 45.2991 30.8678 45.2991C30.6064 45.2991 30.3778 45.3318 30.1818 45.3971C29.9858 45.4578 29.8201 45.5441 29.6848 45.6561C29.5541 45.7681 29.4561 45.9034 29.3908 46.0621C29.3254 46.2161 29.2928 46.3864 29.2928 46.5731C29.2928 46.8111 29.3581 47.0094 29.4888 47.1681C29.6241 47.3268 29.8014 47.4621 30.0208 47.5741C30.2401 47.6861 30.4898 47.7864 30.7698 47.8751C31.0498 47.9638 31.3368 48.0594 31.6308 48.1621C31.9248 48.2601 32.2118 48.3768 32.4918 48.5121C32.7718 48.6428 33.0214 48.8108 33.2408 49.0161C33.4601 49.2168 33.6351 49.4641 33.7658 49.7581C33.9011 50.0521 33.9688 50.4091 33.9688 50.8291C33.9688 51.2864 33.8894 51.7158 33.7308 52.1171C33.5768 52.5138 33.3481 52.8614 33.0448 53.1601C32.7461 53.4541 32.3798 53.6874 31.9458 53.8601C31.5118 54.0281 31.0148 54.1121 30.4548 54.1121C30.1328 54.1121 29.8154 54.0794 29.5028 54.0141C29.1901 53.9534 28.8891 53.8648 28.5998 53.7481C28.3151 53.6314 28.0468 53.4914 27.7948 53.3281C27.5428 53.1648 27.3188 52.9828 27.1228 52.7821L27.6758 51.8791C27.7224 51.8138 27.7831 51.7601 27.8578 51.7181C27.9324 51.6714 28.0118 51.6481 28.0958 51.6481C28.2124 51.6481 28.3384 51.6971 28.4738 51.7951C28.6091 51.8884 28.7701 51.9934 28.9568 52.1101C29.1434 52.2268 29.3604 52.3341 29.6078 52.4321C29.8598 52.5254 30.1608 52.5721 30.5108 52.5721C31.0474 52.5721 31.4628 52.4461 31.7568 52.1941C32.0508 51.9374 32.1978 51.5711 32.1978 51.0951C32.1978 50.8291 32.1301 50.6121 31.9948 50.4441C31.8641 50.2761 31.6891 50.1361 31.4698 50.0241C31.2504 49.9074 31.0008 49.8094 30.7208 49.7301C30.4408 49.6508 30.1561 49.5644 29.8668 49.4711C29.5774 49.3778 29.2928 49.2658 29.0128 49.1351C28.7328 49.0044 28.4831 48.8341 28.2638 48.6241C28.0444 48.4141 27.8671 48.1528 27.7318 47.8401C27.6011 47.5228 27.5358 47.1331 27.5358 46.6711C27.5358 46.3024 27.6081 45.9431 27.7528 45.5931C27.9021 45.2431 28.1168 44.9328 28.3968 44.6621C28.6768 44.3914 29.0221 44.1744 29.4328 44.0111C29.8434 43.8478 30.3148 43.7661 30.8468 43.7661C31.4441 43.7661 31.9948 43.8594 32.4988 44.0461C33.0028 44.2328 33.4321 44.4941 33.7868 44.8301L33.3178 45.7191Z" fill="white"/>
<path d="M34.2023 43.8779H35.7143C35.8776 43.8779 36.0106 43.9176 36.1133 43.9969C36.216 44.0763 36.293 44.1789 36.3443 44.3049L38.7313 50.4789C38.8106 50.6796 38.8853 50.9012 38.9553 51.1439C39.03 51.3819 39.1 51.6316 39.1653 51.8929C39.2166 51.6316 39.275 51.3819 39.3403 51.1439C39.4103 50.9012 39.485 50.6796 39.5643 50.4789L41.9373 44.3049C41.9746 44.1976 42.047 44.0996 42.1543 44.0109C42.2663 43.9223 42.4016 43.8779 42.5603 43.8779H44.0793L39.9913 53.9999H38.2903L34.2023 43.8779Z" fill="white"/>
</g>
<g clip-path="url(#clip2)">
<path d="M6.98591 96C3.89395 96 1.97109 92.6418 3.53625 89.9752L11.1813 76.9504C12.6177 74.5032 15.243 73 18.0806 73H44C46.2091 73 48 74.7909 48 77V92C48 94.2091 46.2091 96 44 96H6.98591Z" fill="#16A086"/>
<path d="M16.9767 86.4369V89.9999H15.0938V79.8779H18.3837C19.0604 79.8779 19.6461 79.9573 20.1407 80.1159C20.6354 80.2746 21.0437 80.4963 21.3657 80.7809C21.6877 81.0656 21.9258 81.4063 22.0798 81.8029C22.2385 82.1996 22.3177 82.6336 22.3177 83.1049C22.3177 83.5949 22.2362 84.0452 22.0728 84.4559C21.9095 84.8619 21.6644 85.2119 21.3377 85.5059C21.0111 85.7999 20.6004 86.0286 20.1057 86.1919C19.6157 86.3552 19.0417 86.4369 18.3837 86.4369H16.9767ZM16.9767 84.9669H18.3837C18.7291 84.9669 19.0301 84.9249 19.2867 84.8409C19.5434 84.7522 19.7557 84.6286 19.9237 84.4699C20.0964 84.3066 20.2248 84.1106 20.3088 83.8819C20.3928 83.6486 20.4347 83.3896 20.4347 83.1049C20.4347 82.8342 20.3928 82.5892 20.3088 82.3699C20.2248 82.1506 20.0988 81.9639 19.9307 81.8099C19.7627 81.6559 19.5504 81.5393 19.2937 81.4599C19.0371 81.3759 18.7337 81.3339 18.3837 81.3339H16.9767V84.9669Z" fill="white"/>
<path d="M24.9587 79.8779C25.038 79.8779 25.1057 79.8826 25.1617 79.8919C25.2224 79.8966 25.2737 79.9106 25.3157 79.9339C25.3624 79.9526 25.4067 79.9829 25.4487 80.0249C25.4907 80.0623 25.5374 80.1136 25.5887 80.1789L30.8947 86.9549C30.8807 86.7916 30.869 86.6306 30.8597 86.4719C30.8504 86.3132 30.8457 86.1662 30.8457 86.0309V79.8779H32.5047V89.9999H31.5387C31.3894 89.9999 31.2634 89.9766 31.1607 89.9299C31.0627 89.8786 30.967 89.7946 30.8737 89.6779L25.5887 82.9369C25.6027 83.0862 25.612 83.2356 25.6167 83.3849C25.626 83.5296 25.6307 83.6626 25.6307 83.7839V89.9999H23.9717V79.8779H24.9587Z" fill="white"/>
<path d="M43.3128 89.0201C42.7995 89.3981 42.2511 89.6758 41.6678 89.8531C41.0891 90.0258 40.4685 90.1121 39.8058 90.1121C38.9798 90.1121 38.2308 89.9838 37.5588 89.7271C36.8915 89.4704 36.3198 89.1134 35.8438 88.6561C35.3725 88.1988 35.0085 87.6528 34.7518 87.0181C34.4951 86.3834 34.3668 85.6904 34.3668 84.9391C34.3668 84.1784 34.4905 83.4808 34.7378 82.8461C34.9851 82.2114 35.3351 81.6654 35.7878 81.2081C36.2451 80.7508 36.7981 80.3961 37.4468 80.1441C38.0955 79.8921 38.8235 79.7661 39.6308 79.7661C40.0415 79.7661 40.4241 79.7988 40.7788 79.8641C41.1381 79.9294 41.4695 80.0204 41.7728 80.1371C42.0808 80.2491 42.3608 80.3868 42.6128 80.5501C42.8648 80.7134 43.0958 80.8931 43.3058 81.0891L42.7668 81.9431C42.6828 82.0784 42.5731 82.1624 42.4378 82.1951C42.3025 82.2231 42.1555 82.1881 41.9968 82.0901C41.8428 82.0014 41.6888 81.9128 41.5348 81.8241C41.3808 81.7354 41.2081 81.6584 41.0168 81.5931C40.8301 81.5278 40.6178 81.4741 40.3798 81.4321C40.1465 81.3901 39.8758 81.3691 39.5678 81.3691C39.0685 81.3691 38.6158 81.4531 38.2098 81.6211C37.8085 81.7891 37.4655 82.0294 37.1808 82.3421C36.8961 82.6548 36.6768 83.0304 36.5228 83.4691C36.3688 83.9078 36.2918 84.3978 36.2918 84.9391C36.2918 85.5178 36.3735 86.0358 36.5368 86.4931C36.7048 86.9458 36.9381 87.3308 37.2368 87.6481C37.5401 87.9608 37.9041 88.2011 38.3288 88.3691C38.7535 88.5324 39.2271 88.6141 39.7498 88.6141C40.1231 88.6141 40.4568 88.5768 40.7508 88.5021C41.0448 88.4228 41.3318 88.3154 41.6118 88.1801V86.3391H40.3378C40.2165 86.3391 40.1208 86.3064 40.0508 86.2411C39.9855 86.1711 39.9528 86.0871 39.9528 85.9891V84.9251H43.3128V89.0201Z" fill="white"/>
</g>
<g clip-path="url(#clip3)">
<path d="M6.98591 132C3.89395 132 1.97109 128.642 3.53625 125.975L11.1813 112.95C12.6177 110.503 15.243 109 18.0806 109H44C46.2091 109 48 110.791 48 113V128C48 130.209 46.2091 132 44 132H6.98591Z" fill="#16A086"/>
<path d="M22.8822 122.402C22.8822 122.971 22.8122 123.485 22.6722 123.942C22.5322 124.399 22.3222 124.789 22.0422 125.111C21.7669 125.433 21.4215 125.68 21.0062 125.853C20.5909 126.026 20.1079 126.112 19.5572 126.112C19.3052 126.112 19.0579 126.096 18.8152 126.063C18.5725 126.035 18.3182 125.988 18.0522 125.923C18.0662 125.736 18.0825 125.55 18.1012 125.363C18.1199 125.176 18.1362 124.99 18.1502 124.803C18.1642 124.7 18.2039 124.619 18.2692 124.558C18.3392 124.493 18.4372 124.46 18.5632 124.46C18.6425 124.46 18.7452 124.476 18.8712 124.509C19.0019 124.542 19.1652 124.558 19.3612 124.558C19.6272 124.558 19.8629 124.521 20.0682 124.446C20.2735 124.367 20.4439 124.243 20.5792 124.075C20.7192 123.907 20.8242 123.69 20.8942 123.424C20.9642 123.153 20.9992 122.827 20.9992 122.444V115.878H22.8822V122.402Z" fill="white"/>
<path d="M27.5538 122.437V126H25.6708V115.878H28.9608C29.6375 115.878 30.2232 115.957 30.7178 116.116C31.2125 116.275 31.6208 116.496 31.9428 116.781C32.2648 117.066 32.5028 117.406 32.6568 117.803C32.8155 118.2 32.8948 118.634 32.8948 119.105C32.8948 119.595 32.8132 120.045 32.6498 120.456C32.4865 120.862 32.2415 121.212 31.9148 121.506C31.5882 121.8 31.1775 122.029 30.6828 122.192C30.1928 122.355 29.6188 122.437 28.9608 122.437H27.5538ZM27.5538 120.967H28.9608C29.3062 120.967 29.6072 120.925 29.8638 120.841C30.1205 120.752 30.3328 120.629 30.5008 120.47C30.6735 120.307 30.8018 120.111 30.8858 119.882C30.9698 119.649 31.0118 119.39 31.0118 119.105C31.0118 118.834 30.9698 118.589 30.8858 118.37C30.8018 118.151 30.6758 117.964 30.5078 117.81C30.3398 117.656 30.1275 117.539 29.8708 117.46C29.6142 117.376 29.3108 117.334 28.9608 117.334H27.5538V120.967Z" fill="white"/>
<path d="M43.3128 125.02C42.7995 125.398 42.2511 125.676 41.6678 125.853C41.0891 126.026 40.4685 126.112 39.8058 126.112C38.9798 126.112 38.2308 125.984 37.5588 125.727C36.8915 125.47 36.3198 125.113 35.8438 124.656C35.3725 124.199 35.0085 123.653 34.7518 123.018C34.4951 122.383 34.3668 121.69 34.3668 120.939C34.3668 120.178 34.4905 119.481 34.7378 118.846C34.9851 118.211 35.3351 117.665 35.7878 117.208C36.2451 116.751 36.7981 116.396 37.4468 116.144C38.0955 115.892 38.8235 115.766 39.6308 115.766C40.0415 115.766 40.4241 115.799 40.7788 115.864C41.1381 115.929 41.4695 116.02 41.7728 116.137C42.0808 116.249 42.3608 116.387 42.6128 116.55C42.8648 116.713 43.0958 116.893 43.3058 117.089L42.7668 117.943C42.6828 118.078 42.5731 118.162 42.4378 118.195C42.3025 118.223 42.1555 118.188 41.9968 118.09C41.8428 118.001 41.6888 117.913 41.5348 117.824C41.3808 117.735 41.2081 117.658 41.0168 117.593C40.8301 117.528 40.6178 117.474 40.3798 117.432C40.1465 117.39 39.8758 117.369 39.5678 117.369C39.0685 117.369 38.6158 117.453 38.2098 117.621C37.8085 117.789 37.4655 118.029 37.1808 118.342C36.8961 118.655 36.6768 119.03 36.5228 119.469C36.3688 119.908 36.2918 120.398 36.2918 120.939C36.2918 121.518 36.3735 122.036 36.5368 122.493C36.7048 122.946 36.9381 123.331 37.2368 123.648C37.5401 123.961 37.9041 124.201 38.3288 124.369C38.7535 124.532 39.2271 124.614 39.7498 124.614C40.1231 124.614 40.4568 124.577 40.7508 124.502C41.0448 124.423 41.3318 124.315 41.6118 124.18V122.339H40.3378C40.2165 122.339 40.1208 122.306 40.0508 122.241C39.9855 122.171 39.9528 122.087 39.9528 121.989V120.925H43.3128V125.02Z" fill="white"/>
</g>
<g clip-path="url(#clip4)">
<path d="M6.98591 168C3.89395 168 1.97109 164.642 3.53625 161.975L11.1813 148.95C12.6177 146.503 15.243 145 18.0806 145H44C46.2091 145 48 146.791 48 149V164C48 166.209 46.2091 168 44 168H6.98591Z" fill="#0B40B3"/>
<path d="M14.9897 162V151.878H18.4757C19.1384 151.878 19.7054 151.941 20.1767 152.067C20.648 152.193 21.033 152.373 21.3317 152.606C21.635 152.839 21.8567 153.122 21.9967 153.453C22.1367 153.784 22.2067 154.158 22.2067 154.573C22.2067 154.811 22.1717 155.04 22.1017 155.259C22.0317 155.474 21.922 155.677 21.7727 155.868C21.628 156.055 21.4414 156.225 21.2127 156.379C20.9887 156.533 20.7204 156.664 20.4077 156.771C21.7984 157.084 22.4937 157.835 22.4937 159.025C22.4937 159.454 22.412 159.851 22.2487 160.215C22.0854 160.579 21.8474 160.894 21.5347 161.16C21.222 161.421 20.837 161.627 20.3797 161.776C19.9224 161.925 19.3997 162 18.8117 162H14.9897ZM16.8727 157.562V160.53H18.7767C19.1267 160.53 19.4207 160.488 19.6587 160.404C19.8967 160.32 20.0857 160.208 20.2257 160.068C20.3704 159.928 20.473 159.765 20.5337 159.578C20.599 159.391 20.6317 159.193 20.6317 158.983C20.6317 158.764 20.5967 158.568 20.5267 158.395C20.4567 158.218 20.347 158.068 20.1977 157.947C20.0484 157.821 19.8547 157.725 19.6167 157.66C19.3834 157.595 19.101 157.562 18.7697 157.562H16.8727ZM16.8727 156.26H18.3707C19.0147 156.26 19.5 156.143 19.8267 155.91C20.158 155.677 20.3237 155.306 20.3237 154.797C20.3237 154.27 20.1744 153.894 19.8757 153.67C19.577 153.446 19.1104 153.334 18.4757 153.334H16.8727V156.26Z" fill="white"/>
<path d="M28.7967 157.8C28.876 157.949 28.9483 158.106 29.0137 158.269C29.0837 158.428 29.1513 158.589 29.2167 158.752C29.282 158.579 29.3497 158.414 29.4197 158.255C29.4897 158.092 29.5643 157.935 29.6437 157.786L32.6327 152.179C32.67 152.109 32.7097 152.053 32.7517 152.011C32.7937 151.969 32.838 151.939 32.8847 151.92C32.936 151.901 32.992 151.89 33.0527 151.885C33.1133 151.88 33.1857 151.878 33.2697 151.878H34.6907V162H33.0317V155.462C33.0317 155.341 33.034 155.208 33.0387 155.063C33.048 154.918 33.0597 154.771 33.0737 154.622L30.0147 160.362C29.87 160.637 29.6483 160.775 29.3497 160.775H29.0837C28.785 160.775 28.5633 160.637 28.4187 160.362L25.3247 154.601C25.3387 154.755 25.3503 154.907 25.3597 155.056C25.369 155.201 25.3737 155.336 25.3737 155.462V162H23.7147V151.878H25.1357C25.2197 151.878 25.292 151.88 25.3527 151.885C25.4133 151.89 25.467 151.901 25.5137 151.92C25.565 151.939 25.6093 151.969 25.6467 152.011C25.6887 152.053 25.7283 152.109 25.7657 152.179L28.7967 157.8Z" fill="white"/>
<path d="M38.342 158.437V162H36.459V151.878H39.749C40.4257 151.878 41.0114 151.957 41.506 152.116C42.0007 152.275 42.409 152.496 42.731 152.781C43.053 153.066 43.291 153.406 43.445 153.803C43.6037 154.2 43.683 154.634 43.683 155.105C43.683 155.595 43.6014 156.045 43.438 156.456C43.2747 156.862 43.0297 157.212 42.703 157.506C42.3764 157.8 41.9657 158.029 41.471 158.192C40.981 158.355 40.407 158.437 39.749 158.437H38.342ZM38.342 156.967H39.749C40.0944 156.967 40.3954 156.925 40.652 156.841C40.9087 156.752 41.121 156.629 41.289 156.47C41.4617 156.307 41.59 156.111 41.674 155.882C41.758 155.649 41.8 155.39 41.8 155.105C41.8 154.834 41.758 154.589 41.674 154.37C41.59 154.151 41.464 153.964 41.296 153.81C41.128 153.656 40.9157 153.539 40.659 153.46C40.4024 153.376 40.099 153.334 39.749 153.334H38.342V156.967Z" fill="white"/>
</g>
<g clip-path="url(#clip5)">
<path d="M6.98591 204C3.89395 204 1.97109 200.642 3.53625 197.975L11.1813 184.95C12.6177 182.503 15.243 181 18.0806 181H44C46.2091 181 48 182.791 48 185V200C48 202.209 46.2091 204 44 204H6.98591Z" fill="#0B40B3"/>
<path d="M31.1566 187.878V189.425H28.1046V198H26.2216V189.425H23.1696V187.878H31.1566Z" fill="white"/>
<path d="M34.6511 198H32.7611V187.878H34.6511V198Z" fill="white"/>
<path d="M43.5813 187.878V189.376H39.0873V192.372H42.8813V193.877H39.0873V198H37.1973V187.878H43.5813Z" fill="white"/>
</g>
<g clip-path="url(#clip6)">
<path d="M6.98591 240C3.89395 240 1.97109 236.642 3.53625 233.975L11.1813 220.95C12.6177 218.503 15.243 217 18.0806 217H44C46.2091 217 48 218.791 48 221V236C48 238.209 46.2091 240 44 240H6.98591Z" fill="#0B40B3"/>
<path d="M31.927 233.02C31.4136 233.398 30.8653 233.676 30.282 233.853C29.7033 234.026 29.0826 234.112 28.42 234.112C27.594 234.112 26.845 233.984 26.173 233.727C25.5056 233.47 24.934 233.113 24.458 232.656C23.9866 232.199 23.6226 231.653 23.366 231.018C23.1093 230.383 22.981 229.69 22.981 228.939C22.981 228.178 23.1046 227.481 23.352 226.846C23.5993 226.211 23.9493 225.665 24.402 225.208C24.8593 224.751 25.4123 224.396 26.061 224.144C26.7096 223.892 27.4376 223.766 28.245 223.766C28.6556 223.766 29.0383 223.799 29.393 223.864C29.7523 223.929 30.0836 224.02 30.387 224.137C30.695 224.249 30.975 224.387 31.227 224.55C31.479 224.713 31.71 224.893 31.92 225.089L31.381 225.943C31.297 226.078 31.1873 226.162 31.052 226.195C30.9166 226.223 30.7696 226.188 30.611 226.09C30.457 226.001 30.303 225.913 30.149 225.824C29.995 225.735 29.8223 225.658 29.631 225.593C29.4443 225.528 29.232 225.474 28.994 225.432C28.7606 225.39 28.49 225.369 28.182 225.369C27.6826 225.369 27.23 225.453 26.824 225.621C26.4226 225.789 26.0796 226.029 25.795 226.342C25.5103 226.655 25.291 227.03 25.137 227.469C24.983 227.908 24.906 228.398 24.906 228.939C24.906 229.518 24.9876 230.036 25.151 230.493C25.319 230.946 25.5523 231.331 25.851 231.648C26.1543 231.961 26.5183 232.201 26.943 232.369C27.3676 232.532 27.8413 232.614 28.364 232.614C28.7373 232.614 29.071 232.577 29.365 232.502C29.659 232.423 29.946 232.315 30.226 232.18V230.339H28.952C28.8306 230.339 28.735 230.306 28.665 230.241C28.5996 230.171 28.567 230.087 28.567 229.989V228.925H31.927V233.02Z" fill="white"/>
<path d="M35.2811 234H33.3911V223.878H35.2811V234Z" fill="white"/>
<path d="M43.5813 223.878V225.376H39.0873V228.372H42.8813V229.877H39.0873V234H37.1973V223.878H43.5813Z" fill="white"/>
</g>
<g clip-path="url(#clip7)">
<path d="M6.98591 276C3.89395 276 1.97109 272.642 3.53625 269.975L11.1813 256.95C12.6177 254.503 15.243 253 18.0806 253H44C46.2091 253 48 254.791 48 257V272C48 274.209 46.2091 276 44 276H6.98591Z" fill="#851F82"/>
<path d="M20.0015 264.12H20.4425C20.6198 264.12 20.7668 264.097 20.8835 264.05C21.0002 263.999 21.1005 263.919 21.1845 263.812L23.9775 260.277C24.0942 260.128 24.2155 260.025 24.3415 259.969C24.4722 259.908 24.6355 259.878 24.8315 259.878H26.4555L23.0465 264.085C22.8458 264.342 22.6382 264.524 22.4235 264.631C22.5775 264.687 22.7152 264.766 22.8365 264.869C22.9625 264.967 23.0815 265.098 23.1935 265.261L26.7075 270H25.0485C24.8245 270 24.6565 269.97 24.5445 269.909C24.4372 269.844 24.3462 269.75 24.2715 269.629L21.4085 265.891C21.3198 265.765 21.2172 265.676 21.1005 265.625C20.9838 265.574 20.8158 265.548 20.5965 265.548H20.0015V270H18.1185V259.878H20.0015V264.12Z" fill="white"/>
<path d="M34.2401 259.878V261.376H29.7461V264.183H33.2881V265.632H29.7461V268.495H34.2401V270H27.8561V259.878H34.2401Z" fill="white"/>
<path d="M40.3959 266.08V270H38.5199V266.08L34.8309 259.878H36.4899C36.6532 259.878 36.7815 259.918 36.8749 259.997C36.9729 260.076 37.0545 260.177 37.1199 260.298L38.9679 263.679C39.0752 263.884 39.1685 264.076 39.2479 264.253C39.3319 264.43 39.4065 264.605 39.4719 264.778C39.5325 264.601 39.6025 264.423 39.6819 264.246C39.7612 264.069 39.8522 263.88 39.9549 263.679L41.7959 260.298C41.8472 260.195 41.9242 260.1 42.0269 260.011C42.1295 259.922 42.2602 259.878 42.4189 259.878H44.0849L40.3959 266.08Z" fill="white"/>
</g>
<g clip-path="url(#clip8)">
<path d="M6.98591 312C3.89395 312 1.97109 308.642 3.53625 305.975L11.1813 292.95C12.6177 290.503 15.243 289 18.0806 289H44C46.2091 289 48 290.791 48 293V308C48 310.209 46.2091 312 44 312H6.98591Z" fill="#851F82"/>
<path d="M20.0195 302.437V306H18.1365V295.878H21.4265C22.1032 295.878 22.6889 295.957 23.1835 296.116C23.6782 296.275 24.0865 296.496 24.4085 296.781C24.7305 297.066 24.9685 297.406 25.1225 297.803C25.2812 298.2 25.3605 298.634 25.3605 299.105C25.3605 299.595 25.2789 300.045 25.1155 300.456C24.9522 300.862 24.7072 301.212 24.3805 301.506C24.0539 301.8 23.6432 302.029 23.1485 302.192C22.6585 302.355 22.0845 302.437 21.4265 302.437H20.0195ZM20.0195 300.967H21.4265C21.7719 300.967 22.0729 300.925 22.3295 300.841C22.5862 300.752 22.7985 300.629 22.9665 300.47C23.1392 300.307 23.2675 300.111 23.3515 299.882C23.4355 299.649 23.4775 299.39 23.4775 299.105C23.4775 298.834 23.4355 298.589 23.3515 298.37C23.2675 298.151 23.1415 297.964 22.9735 297.81C22.8055 297.656 22.5932 297.539 22.3365 297.46C22.0799 297.376 21.7765 297.334 21.4265 297.334H20.0195V300.967Z" fill="white"/>
<path d="M29.3174 302.437V306H27.4344V295.878H30.7244C31.4011 295.878 31.9867 295.957 32.4814 296.116C32.9761 296.275 33.3844 296.496 33.7064 296.781C34.0284 297.066 34.2665 297.406 34.4205 297.803C34.5792 298.2 34.6584 298.634 34.6584 299.105C34.6584 299.595 34.5768 300.045 34.4135 300.456C34.2502 300.862 34.0051 301.212 33.6784 301.506C33.3517 301.8 32.9411 302.029 32.4464 302.192C31.9564 302.355 31.3824 302.437 30.7244 302.437H29.3174ZM29.3174 300.967H30.7244C31.0697 300.967 31.3707 300.925 31.6274 300.841C31.8841 300.752 32.0964 300.629 32.2644 300.47C32.4371 300.307 32.5655 300.111 32.6495 299.882C32.7335 299.649 32.7754 299.39 32.7754 299.105C32.7754 298.834 32.7335 298.589 32.6495 298.37C32.5655 298.151 32.4394 297.964 32.2714 297.81C32.1034 297.656 31.8911 297.539 31.6344 297.46C31.3777 297.376 31.0744 297.334 30.7244 297.334H29.3174V300.967Z" fill="white"/>
<path d="M43.8026 295.878V297.425H40.7506V306H38.8676V297.425H35.8156V295.878H43.8026Z" fill="white"/>
</g>
<g clip-path="url(#clip9)">
<path d="M6.98591 348C3.89395 348 1.97109 344.642 3.53625 341.975L11.1813 328.95C12.6177 326.503 15.243 325 18.0806 325H44C46.2091 325 48 326.791 48 329V344C48 346.209 46.2091 348 44 348H6.98591Z" fill="#FF8A00"/>
<path d="M19.902 338.437V342H18.019V331.878H21.309C21.9856 331.878 22.5713 331.957 23.066 332.116C23.5606 332.275 23.969 332.496 24.291 332.781C24.613 333.066 24.851 333.406 25.005 333.803C25.1636 334.2 25.243 334.634 25.243 335.105C25.243 335.595 25.1613 336.045 24.998 336.456C24.8346 336.862 24.5896 337.212 24.263 337.506C23.9363 337.8 23.5256 338.029 23.031 338.192C22.541 338.355 21.967 338.437 21.309 338.437H19.902ZM19.902 336.967H21.309C21.6543 336.967 21.9553 336.925 22.212 336.841C22.4686 336.752 22.681 336.629 22.849 336.47C23.0216 336.307 23.15 336.111 23.234 335.882C23.318 335.649 23.36 335.39 23.36 335.105C23.36 334.834 23.318 334.589 23.234 334.37C23.15 334.151 23.024 333.964 22.856 333.81C22.688 333.656 22.4756 333.539 22.219 333.46C21.9623 333.376 21.659 333.334 21.309 333.334H19.902V336.967Z" fill="white"/>
<path d="M35.6049 336.939C35.6049 337.681 35.4813 338.362 35.2339 338.983C34.9866 339.604 34.6389 340.138 34.1909 340.586C33.7429 341.034 33.2039 341.382 32.5739 341.629C31.9439 341.876 31.2439 342 30.4739 342H26.6169V331.878H30.4739C31.2439 331.878 31.9439 332.004 32.5739 332.256C33.2039 332.503 33.7429 332.851 34.1909 333.299C34.6389 333.742 34.9866 334.274 35.2339 334.895C35.4813 335.516 35.6049 336.197 35.6049 336.939ZM33.6729 336.939C33.6729 336.384 33.5983 335.887 33.4489 335.448C33.3043 335.005 33.0919 334.631 32.8119 334.328C32.5366 334.02 32.2006 333.784 31.8039 333.621C31.4119 333.458 30.9686 333.376 30.4739 333.376H28.5069V340.502H30.4739C30.9686 340.502 31.4119 340.42 31.8039 340.257C32.2006 340.094 32.5366 339.86 32.8119 339.557C33.0919 339.249 33.3043 338.876 33.4489 338.437C33.5983 337.994 33.6729 337.494 33.6729 336.939Z" fill="white"/>
<path d="M43.5813 331.878V333.376H39.0873V336.372H42.8813V337.877H39.0873V342H37.1973V331.878H43.5813Z" fill="white"/>
</g>
<g clip-path="url(#clip10)">
<path d="M6.98591 384C3.89395 384 1.97109 380.642 3.53625 377.975L11.1813 364.95C12.6177 362.503 15.243 361 18.0806 361H44C46.2091 361 48 362.791 48 365V380C48 382.209 46.2091 384 44 384H6.98591Z" fill="#9DACCE"/>
<path d="M19.8571 374.045V378H17.9741V367.878H21.0611C21.7471 367.878 22.3351 367.95 22.8251 368.095C23.3198 368.235 23.7234 368.433 24.0361 368.69C24.3534 368.947 24.5868 369.255 24.7361 369.614C24.8854 369.969 24.9601 370.361 24.9601 370.79C24.9601 371.131 24.9088 371.453 24.8061 371.756C24.7081 372.059 24.5634 372.335 24.3721 372.582C24.1854 372.829 23.9521 373.046 23.6721 373.233C23.3968 373.42 23.0818 373.569 22.7271 373.681C22.9651 373.816 23.1704 374.01 23.3431 374.262L25.8771 378H24.1761C23.8541 378 23.6208 377.874 23.4761 377.622L21.3481 374.381C21.2688 374.26 21.1801 374.173 21.0821 374.122C20.9888 374.071 20.8488 374.045 20.6621 374.045H19.8571ZM19.8571 372.694H21.0331C21.3878 372.694 21.6958 372.65 21.9571 372.561C22.2231 372.472 22.4401 372.351 22.6081 372.197C22.7808 372.038 22.9091 371.852 22.9931 371.637C23.0771 371.422 23.1191 371.187 23.1191 370.93C23.1191 370.417 22.9488 370.022 22.6081 369.747C22.2721 369.472 21.7564 369.334 21.0611 369.334H19.8571V372.694Z" fill="white"/>
<path d="M35.3632 378H33.9072C33.7439 378 33.6109 377.96 33.5082 377.881C33.4055 377.797 33.3285 377.694 33.2772 377.573L32.5212 375.508H28.3282L27.5722 377.573C27.5349 377.68 27.4625 377.778 27.3552 377.867C27.2479 377.956 27.1149 378 26.9562 378H25.4862L29.4692 367.878H31.3872L35.3632 378ZM28.8112 374.178H32.0382L30.8062 370.811C30.7455 370.662 30.6825 370.487 30.6172 370.286C30.5519 370.081 30.4865 369.859 30.4212 369.621C30.3559 369.859 30.2905 370.081 30.2252 370.286C30.1645 370.491 30.1039 370.671 30.0432 370.825L28.8112 374.178Z" fill="white"/>
<path d="M38.0139 374.045V378H36.1309V367.878H39.2179C39.9039 367.878 40.4919 367.95 40.9819 368.095C41.4766 368.235 41.8802 368.433 42.1929 368.69C42.5102 368.947 42.7436 369.255 42.8929 369.614C43.0422 369.969 43.1169 370.361 43.1169 370.79C43.1169 371.131 43.0656 371.453 42.9629 371.756C42.8649 372.059 42.7202 372.335 42.5289 372.582C42.3422 372.829 42.1089 373.046 41.8289 373.233C41.5536 373.42 41.2386 373.569 40.8839 373.681C41.1219 373.816 41.3272 374.01 41.4999 374.262L44.0339 378H42.3329C42.0109 378 41.7776 377.874 41.6329 377.622L39.5049 374.381C39.4256 374.26 39.3369 374.173 39.2389 374.122C39.1456 374.071 39.0056 374.045 38.8189 374.045H38.0139ZM38.0139 372.694H39.1899C39.5446 372.694 39.8526 372.65 40.1139 372.561C40.3799 372.472 40.5969 372.351 40.7649 372.197C40.9376 372.038 41.0659 371.852 41.1499 371.637C41.2339 371.422 41.2759 371.187 41.2759 370.93C41.2759 370.417 41.1056 370.022 40.7649 369.747C40.4289 369.472 39.9132 369.334 39.2179 369.334H38.0139V372.694Z" fill="white"/>
</g>
<g clip-path="url(#clip11)">
<path d="M6.98591 420C3.89395 420 1.97109 416.642 3.53625 413.975L11.1813 400.95C12.6177 398.503 15.243 397 18.0806 397H44C46.2091 397 48 398.791 48 401V416C48 418.209 46.2091 420 44 420H6.98591Z" fill="#9DACCE"/>
<path d="M30.5182 403.878V404.571C30.5182 404.786 30.4576 404.982 30.3362 405.159L25.1422 412.495H30.3992V414H22.6992V413.258C22.6992 413.165 22.7156 413.076 22.7482 412.992C22.7809 412.903 22.8229 412.822 22.8742 412.747L28.0822 405.376H23.0282V403.878H30.5182Z" fill="white"/>
<path d="M34.0528 414H32.1628V403.878H34.0528V414Z" fill="white"/>
<path d="M38.342 410.437V414H36.459V403.878H39.749C40.4257 403.878 41.0114 403.957 41.506 404.116C42.0007 404.275 42.409 404.496 42.731 404.781C43.053 405.066 43.291 405.406 43.445 405.803C43.6037 406.2 43.683 406.634 43.683 407.105C43.683 407.595 43.6014 408.045 43.438 408.456C43.2747 408.862 43.0297 409.212 42.703 409.506C42.3764 409.8 41.9657 410.029 41.471 410.192C40.981 410.355 40.407 410.437 39.749 410.437H38.342ZM38.342 408.967H39.749C40.0944 408.967 40.3954 408.925 40.652 408.841C40.9087 408.752 41.121 408.629 41.289 408.47C41.4617 408.307 41.59 408.111 41.674 407.882C41.758 407.649 41.8 407.39 41.8 407.105C41.8 406.834 41.758 406.589 41.674 406.37C41.59 406.151 41.464 405.964 41.296 405.81C41.128 405.656 40.9157 405.539 40.659 405.46C40.4024 405.376 40.099 405.334 39.749 405.334H38.342V408.967Z" fill="white"/>
</g>
<g clip-path="url(#clip12)">
<path d="M6.98591 456C3.89395 456 1.97109 452.642 3.53625 449.975L11.1813 436.95C12.6177 434.503 15.243 433 18.0806 433H44C46.2091 433 48 434.791 48 437V452C48 454.209 46.2091 456 44 456H6.98591Z" fill="#0D4CD3"/>
<path d="M24.3021 444.939C24.3021 445.681 24.1784 446.362 23.9311 446.983C23.6838 447.604 23.3361 448.138 22.8881 448.586C22.4401 449.034 21.9011 449.382 21.2711 449.629C20.6411 449.876 19.9411 450 19.1711 450H15.3141V439.878H19.1711C19.9411 439.878 20.6411 440.004 21.2711 440.256C21.9011 440.503 22.4401 440.851 22.8881 441.299C23.3361 441.742 23.6838 442.274 23.9311 442.895C24.1784 443.516 24.3021 444.197 24.3021 444.939ZM22.3701 444.939C22.3701 444.384 22.2954 443.887 22.1461 443.448C22.0014 443.005 21.7891 442.631 21.5091 442.328C21.2338 442.02 20.8978 441.784 20.5011 441.621C20.1091 441.458 19.6658 441.376 19.1711 441.376H17.2041V448.502H19.1711C19.6658 448.502 20.1091 448.42 20.5011 448.257C20.8978 448.094 21.2338 447.86 21.5091 447.557C21.7891 447.249 22.0014 446.876 22.1461 446.437C22.2954 445.994 22.3701 445.494 22.3701 444.939Z" fill="white"/>
<path d="M34.9175 444.939C34.9175 445.681 34.7938 446.369 34.5465 447.004C34.3038 447.634 33.9585 448.18 33.5105 448.642C33.0625 449.104 32.5235 449.466 31.8935 449.727C31.2635 449.984 30.5635 450.112 29.7935 450.112C29.0282 450.112 28.3305 449.984 27.7005 449.727C27.0705 449.466 26.5292 449.104 26.0765 448.642C25.6285 448.18 25.2808 447.634 25.0335 447.004C24.7862 446.369 24.6625 445.681 24.6625 444.939C24.6625 444.197 24.7862 443.511 25.0335 442.881C25.2808 442.246 25.6285 441.698 26.0765 441.236C26.5292 440.774 27.0705 440.415 27.7005 440.158C28.3305 439.897 29.0282 439.766 29.7935 439.766C30.3068 439.766 30.7898 439.827 31.2425 439.948C31.6952 440.065 32.1105 440.233 32.4885 440.452C32.8665 440.667 33.2048 440.93 33.5035 441.243C33.8068 441.551 34.0635 441.896 34.2735 442.279C34.4835 442.662 34.6422 443.077 34.7495 443.525C34.8615 443.973 34.9175 444.444 34.9175 444.939ZM32.9925 444.939C32.9925 444.384 32.9178 443.887 32.7685 443.448C32.6192 443.005 32.4068 442.629 32.1315 442.321C31.8562 442.013 31.5202 441.777 31.1235 441.614C30.7315 441.451 30.2882 441.369 29.7935 441.369C29.2988 441.369 28.8532 441.451 28.4565 441.614C28.0645 441.777 27.7285 442.013 27.4485 442.321C27.1732 442.629 26.9608 443.005 26.8115 443.448C26.6622 443.887 26.5875 444.384 26.5875 444.939C26.5875 445.494 26.6622 445.994 26.8115 446.437C26.9608 446.876 27.1732 447.249 27.4485 447.557C27.7285 447.86 28.0645 448.094 28.4565 448.257C28.8532 448.42 29.2988 448.502 29.7935 448.502C30.2882 448.502 30.7315 448.42 31.1235 448.257C31.5202 448.094 31.8562 447.86 32.1315 447.557C32.4068 447.249 32.6192 446.876 32.7685 446.437C32.9178 445.994 32.9925 445.494 32.9925 444.939Z" fill="white"/>
<path d="M42.8221 447.613C42.9248 447.613 43.0158 447.653 43.0951 447.732L43.8371 448.537C43.4265 449.046 42.9201 449.435 42.3181 449.706C41.7208 449.977 41.0021 450.112 40.1621 450.112C39.4108 450.112 38.7341 449.984 38.1321 449.727C37.5348 449.47 37.0238 449.113 36.5991 448.656C36.1745 448.199 35.8478 447.653 35.6191 447.018C35.3951 446.383 35.2831 445.69 35.2831 444.939C35.2831 444.178 35.4045 443.483 35.6471 442.853C35.8898 442.218 36.2305 441.672 36.6691 441.215C37.1125 440.758 37.6398 440.403 38.2511 440.151C38.8625 439.894 39.5391 439.766 40.2811 439.766C41.0185 439.766 41.6718 439.887 42.2411 440.13C42.8151 440.373 43.3028 440.69 43.7041 441.082L43.0741 441.957C43.0368 442.013 42.9878 442.062 42.9271 442.104C42.8711 442.146 42.7918 442.167 42.6891 442.167C42.6191 442.167 42.5468 442.148 42.4721 442.111C42.3975 442.069 42.3158 442.02 42.2271 441.964C42.1385 441.903 42.0358 441.838 41.9191 441.768C41.8025 441.698 41.6671 441.635 41.5131 441.579C41.3591 441.518 41.1795 441.469 40.9741 441.432C40.7735 441.39 40.5401 441.369 40.2741 441.369C39.8215 441.369 39.4061 441.451 39.0281 441.614C38.6548 441.773 38.3328 442.006 38.0621 442.314C37.7915 442.617 37.5815 442.991 37.4321 443.434C37.2828 443.873 37.2081 444.374 37.2081 444.939C37.2081 445.508 37.2875 446.015 37.4461 446.458C37.6095 446.901 37.8288 447.275 38.1041 447.578C38.3795 447.881 38.7038 448.115 39.0771 448.278C39.4505 448.437 39.8518 448.516 40.2811 448.516C40.5378 448.516 40.7688 448.502 40.9741 448.474C41.1841 448.446 41.3755 448.402 41.5481 448.341C41.7255 448.28 41.8911 448.203 42.0451 448.11C42.2038 448.012 42.3601 447.893 42.5141 447.753C42.5608 447.711 42.6098 447.678 42.6611 447.655C42.7125 447.627 42.7661 447.613 42.8221 447.613Z" fill="white"/>
</g>
<g clip-path="url(#clip13)">
<path d="M6.98591 492C3.89395 492 1.97109 488.642 3.53625 485.975L11.1813 472.95C12.6177 470.503 15.243 469 18.0806 469H44C46.2091 469 48 470.791 48 473V488C48 490.209 46.2091 492 44 492H6.98591Z" fill="#0D4CD3"/>
<path d="M26.0154 475.878V477.425H22.9634V486H21.0804V477.425H18.0284V475.878H26.0154Z" fill="white"/>
<path d="M29.5939 480.792L26.3669 475.878H28.2429C28.3735 475.878 28.4669 475.897 28.5229 475.934C28.5835 475.967 28.6395 476.023 28.6909 476.102L30.9869 479.812C31.0102 479.756 31.0359 479.7 31.0639 479.644C31.0919 479.583 31.1245 479.523 31.1619 479.462L33.2759 476.137C33.3272 476.048 33.3832 475.983 33.4439 475.941C33.5045 475.899 33.5815 475.878 33.6749 475.878H35.4739L32.2189 480.715L35.5649 486H33.6889C33.5582 486 33.4532 485.967 33.3739 485.902C33.2992 485.837 33.2385 485.762 33.1919 485.678L30.8469 481.8C30.8142 481.903 30.7699 482.001 30.7139 482.094L28.4669 485.678C28.4109 485.757 28.3455 485.832 28.2709 485.902C28.2009 485.967 28.1075 486 27.9909 486H26.2339L29.5939 480.792Z" fill="white"/>
<path d="M43.8026 475.878V477.425H40.7506V486H38.8676V477.425H35.8156V475.878H43.8026Z" fill="white"/>
</g>
<g clip-path="url(#clip14)">
<path d="M6.98591 528C3.89395 528 1.97109 524.642 3.53625 521.975L11.1813 508.95C12.6177 506.503 15.243 505 18.0806 505H44C46.2091 505 48 506.791 48 509V524C48 526.209 46.2091 528 44 528H6.98591Z" fill="#0D4CD3"/>
<path d="M20.2694 518.045V522H18.3864V511.878H21.4734C22.1594 511.878 22.7474 511.95 23.2374 512.095C23.7321 512.235 24.1358 512.433 24.4484 512.69C24.7658 512.947 24.9991 513.255 25.1484 513.614C25.2978 513.969 25.3724 514.361 25.3724 514.79C25.3724 515.131 25.3211 515.453 25.2184 515.756C25.1204 516.059 24.9758 516.335 24.7844 516.582C24.5978 516.829 24.3644 517.046 24.0844 517.233C23.8091 517.42 23.4941 517.569 23.1394 517.681C23.3774 517.816 23.5828 518.01 23.7554 518.262L26.2894 522H24.5884C24.2664 522 24.0331 521.874 23.8884 521.622L21.7604 518.381C21.6811 518.26 21.5924 518.173 21.4944 518.122C21.4011 518.071 21.2611 518.045 21.0744 518.045H20.2694ZM20.2694 516.694H21.4454C21.8001 516.694 22.1081 516.65 22.3694 516.561C22.6354 516.472 22.8524 516.351 23.0204 516.197C23.1931 516.038 23.3214 515.852 23.4054 515.637C23.4894 515.422 23.5314 515.187 23.5314 514.93C23.5314 514.417 23.3611 514.022 23.0204 513.747C22.6844 513.472 22.1688 513.334 21.4734 513.334H20.2694V516.694Z" fill="white"/>
<path d="M35.0328 511.878V513.425H31.9808V522H30.0978V513.425H27.0458V511.878H35.0328Z" fill="white"/>
<path d="M43.5813 511.878V513.376H39.0873V516.372H42.8813V517.877H39.0873V522H37.1973V511.878H43.5813Z" fill="white"/>
</g>
<g clip-path="url(#clip15)">
<path d="M6.98591 564C3.89395 564 1.97109 560.642 3.53625 557.975L11.1813 544.95C12.6177 542.503 15.243 541 18.0806 541H44C46.2091 541 48 542.791 48 545V560C48 562.209 46.2091 564 44 564H6.98591Z" fill="#1D5DEB"/>
<path d="M28.4903 547.878V549.376H23.9963V552.372H27.7903V553.877H23.9963V558H22.1063V547.878H28.4903Z" fill="white"/>
<path d="M31.569 556.446H35.615V558H29.686V547.878H31.569V556.446Z" fill="white"/>
<path d="M34.2023 547.878H35.7143C35.8776 547.878 36.0106 547.918 36.1133 547.997C36.216 548.076 36.293 548.179 36.3443 548.305L38.7313 554.479C38.8106 554.68 38.8853 554.901 38.9553 555.144C39.03 555.382 39.1 555.632 39.1653 555.893C39.2166 555.632 39.275 555.382 39.3403 555.144C39.4103 554.901 39.485 554.68 39.5643 554.479L41.9373 548.305C41.9746 548.198 42.047 548.1 42.1543 548.011C42.2663 547.922 42.4016 547.878 42.5603 547.878H44.0793L39.9913 558H38.2903L34.2023 547.878Z" fill="white"/>
</g>
<g clip-path="url(#clip16)">
<path d="M6.98591 600C3.89395 600 1.97109 596.642 3.53625 593.975L11.1813 580.95C12.6177 578.503 15.243 577 18.0806 577H44C46.2091 577 48 578.791 48 581V596C48 598.209 46.2091 600 44 600H6.98591Z" fill="#1D5DEB"/>
<path d="M19.9354 589.8C20.0147 589.949 20.0871 590.106 20.1524 590.269C20.2224 590.428 20.2901 590.589 20.3554 590.752C20.4207 590.579 20.4884 590.414 20.5584 590.255C20.6284 590.092 20.7031 589.935 20.7824 589.786L23.7714 584.179C23.8087 584.109 23.8484 584.053 23.8904 584.011C23.9324 583.969 23.9767 583.939 24.0234 583.92C24.0747 583.901 24.1307 583.89 24.1914 583.885C24.2521 583.88 24.3244 583.878 24.4084 583.878H25.8294V594H24.1704V587.462C24.1704 587.341 24.1727 587.208 24.1774 587.063C24.1867 586.918 24.1984 586.771 24.2124 586.622L21.1534 592.362C21.0087 592.637 20.7871 592.775 20.4884 592.775H20.2224C19.9237 592.775 19.7021 592.637 19.5574 592.362L16.4634 586.601C16.4774 586.755 16.4891 586.907 16.4984 587.056C16.5077 587.201 16.5124 587.336 16.5124 587.462V594H14.8534V583.878H16.2744C16.3584 583.878 16.4307 583.88 16.4914 583.885C16.5521 583.89 16.6057 583.901 16.6524 583.92C16.7037 583.939 16.7481 583.969 16.7854 584.011C16.8274 584.053 16.8671 584.109 16.9044 584.179L19.9354 589.8Z" fill="white"/>
<path d="M36.4108 588.939C36.4108 589.681 36.2871 590.369 36.0398 591.004C35.7971 591.634 35.4518 592.18 35.0038 592.642C34.5558 593.104 34.0168 593.466 33.3868 593.727C32.7568 593.984 32.0568 594.112 31.2868 594.112C30.5214 594.112 29.8238 593.984 29.1938 593.727C28.5638 593.466 28.0224 593.104 27.5698 592.642C27.1218 592.18 26.7741 591.634 26.5268 591.004C26.2795 590.369 26.1558 589.681 26.1558 588.939C26.1558 588.197 26.2795 587.511 26.5268 586.881C26.7741 586.246 27.1218 585.698 27.5698 585.236C28.0224 584.774 28.5638 584.415 29.1938 584.158C29.8238 583.897 30.5214 583.766 31.2868 583.766C31.8001 583.766 32.2831 583.827 32.7358 583.948C33.1885 584.065 33.6038 584.233 33.9818 584.452C34.3598 584.667 34.6981 584.93 34.9968 585.243C35.3001 585.551 35.5568 585.896 35.7668 586.279C35.9768 586.662 36.1354 587.077 36.2428 587.525C36.3548 587.973 36.4108 588.444 36.4108 588.939ZM34.4858 588.939C34.4858 588.384 34.4111 587.887 34.2618 587.448C34.1125 587.005 33.9001 586.629 33.6248 586.321C33.3495 586.013 33.0134 585.777 32.6168 585.614C32.2248 585.451 31.7814 585.369 31.2868 585.369C30.7921 585.369 30.3465 585.451 29.9498 585.614C29.5578 585.777 29.2218 586.013 28.9418 586.321C28.6665 586.629 28.4541 587.005 28.3048 587.448C28.1555 587.887 28.0808 588.384 28.0808 588.939C28.0808 589.494 28.1555 589.994 28.3048 590.437C28.4541 590.876 28.6665 591.249 28.9418 591.557C29.2218 591.86 29.5578 592.094 29.9498 592.257C30.3465 592.42 30.7921 592.502 31.2868 592.502C31.7814 592.502 32.2248 592.42 32.6168 592.257C33.0134 592.094 33.3495 591.86 33.6248 591.557C33.9001 591.249 34.1125 590.876 34.2618 590.437C34.4111 589.994 34.4858 589.494 34.4858 588.939Z" fill="white"/>
<path d="M35.2023 583.878H36.7143C36.8776 583.878 37.0106 583.918 37.1133 583.997C37.216 584.076 37.293 584.179 37.3443 584.305L39.7313 590.479C39.8106 590.68 39.8853 590.901 39.9553 591.144C40.03 591.382 40.1 591.632 40.1653 591.893C40.2166 591.632 40.275 591.382 40.3403 591.144C40.4103 590.901 40.485 590.68 40.5643 590.479L42.9373 584.305C42.9746 584.198 43.047 584.1 43.1543 584.011C43.2663 583.922 43.4016 583.878 43.5603 583.878H45.0793L40.9913 594H39.2903L35.2023 583.878Z" fill="white"/>
</g>
<g clip-path="url(#clip17)">
<path d="M6.98591 636C3.89395 636 1.97109 632.642 3.53625 629.975L11.1813 616.95C12.6177 614.503 15.243 613 18.0806 613H44C46.2091 613 48 614.791 48 617V632C48 634.209 46.2091 636 44 636H6.98591Z" fill="#1D5DEB"/>
<path d="M19.6884 625.8C19.7677 625.949 19.84 626.106 19.9054 626.269C19.9754 626.428 20.043 626.589 20.1084 626.752C20.1737 626.579 20.2414 626.414 20.3114 626.255C20.3814 626.092 20.456 625.935 20.5354 625.786L23.5244 620.179C23.5617 620.109 23.6014 620.053 23.6434 620.011C23.6854 619.969 23.7297 619.939 23.7764 619.92C23.8277 619.901 23.8837 619.89 23.9444 619.885C24.005 619.88 24.0774 619.878 24.1614 619.878H25.5824V630H23.9234V623.462C23.9234 623.341 23.9257 623.208 23.9304 623.063C23.9397 622.918 23.9514 622.771 23.9654 622.622L20.9064 628.362C20.7617 628.637 20.54 628.775 20.2414 628.775H19.9754C19.6767 628.775 19.455 628.637 19.3104 628.362L16.2164 622.601C16.2304 622.755 16.242 622.907 16.2514 623.056C16.2607 623.201 16.2654 623.336 16.2654 623.462V630H14.6064V619.878H16.0274C16.1114 619.878 16.1837 619.88 16.2444 619.885C16.305 619.89 16.3587 619.901 16.4054 619.92C16.4567 619.939 16.501 619.969 16.5384 620.011C16.5804 620.053 16.62 620.109 16.6574 620.179L19.6884 625.8Z" fill="white"/>
<path d="M28.9538 626.437V630H27.0708V619.878H30.3608C31.0375 619.878 31.6232 619.957 32.1178 620.116C32.6125 620.275 33.0208 620.496 33.3428 620.781C33.6648 621.066 33.9028 621.406 34.0568 621.803C34.2155 622.2 34.2948 622.634 34.2948 623.105C34.2948 623.595 34.2132 624.045 34.0498 624.456C33.8865 624.862 33.6415 625.212 33.3148 625.506C32.9882 625.8 32.5775 626.029 32.0828 626.192C31.5928 626.355 31.0188 626.437 30.3608 626.437H28.9538ZM28.9538 624.967H30.3608C30.7062 624.967 31.0072 624.925 31.2638 624.841C31.5205 624.752 31.7328 624.629 31.9008 624.47C32.0735 624.307 32.2018 624.111 32.2858 623.882C32.3698 623.649 32.4118 623.39 32.4118 623.105C32.4118 622.834 32.3698 622.589 32.2858 622.37C32.2018 622.151 32.0758 621.964 31.9078 621.81C31.7398 621.656 31.5275 621.539 31.2708 621.46C31.0142 621.376 30.7108 621.334 30.3608 621.334H28.9538V624.967Z" fill="white"/>
<path d="M43.3128 629.02C42.7995 629.398 42.2511 629.676 41.6678 629.853C41.0891 630.026 40.4685 630.112 39.8058 630.112C38.9798 630.112 38.2308 629.984 37.5588 629.727C36.8915 629.47 36.3198 629.113 35.8438 628.656C35.3725 628.199 35.0085 627.653 34.7518 627.018C34.4951 626.383 34.3668 625.69 34.3668 624.939C34.3668 624.178 34.4905 623.481 34.7378 622.846C34.9851 622.211 35.3351 621.665 35.7878 621.208C36.2451 620.751 36.7981 620.396 37.4468 620.144C38.0955 619.892 38.8235 619.766 39.6308 619.766C40.0415 619.766 40.4241 619.799 40.7788 619.864C41.1381 619.929 41.4695 620.02 41.7728 620.137C42.0808 620.249 42.3608 620.387 42.6128 620.55C42.8648 620.713 43.0958 620.893 43.3058 621.089L42.7668 621.943C42.6828 622.078 42.5731 622.162 42.4378 622.195C42.3025 622.223 42.1555 622.188 41.9968 622.09C41.8428 622.001 41.6888 621.913 41.5348 621.824C41.3808 621.735 41.2081 621.658 41.0168 621.593C40.8301 621.528 40.6178 621.474 40.3798 621.432C40.1465 621.39 39.8758 621.369 39.5678 621.369C39.0685 621.369 38.6158 621.453 38.2098 621.621C37.8085 621.789 37.4655 622.029 37.1808 622.342C36.8961 622.655 36.6768 623.03 36.5228 623.469C36.3688 623.908 36.2918 624.398 36.2918 624.939C36.2918 625.518 36.3735 626.036 36.5368 626.493C36.7048 626.946 36.9381 627.331 37.2368 627.648C37.5401 627.961 37.9041 628.201 38.3288 628.369C38.7535 628.532 39.2271 628.614 39.7498 628.614C40.1231 628.614 40.4568 628.577 40.7508 628.502C41.0448 628.423 41.3318 628.315 41.6118 628.18V626.339H40.3378C40.2165 626.339 40.1208 626.306 40.0508 626.241C39.9855 626.171 39.9528 626.087 39.9528 625.989V624.925H43.3128V629.02Z" fill="white"/>
</g>
<g clip-path="url(#clip18)">
<path d="M6.98591 672C3.89395 672 1.97109 668.642 3.53625 665.975L11.1813 652.95C12.6177 650.503 15.243 649 18.0806 649H44C46.2091 649 48 650.791 48 653V668C48 670.209 46.2091 672 44 672H6.98591Z" fill="#86909C"/>
<path d="M27.8189 657.719C27.7629 657.817 27.7023 657.889 27.6369 657.936C27.5763 657.978 27.4993 657.999 27.4059 657.999C27.3079 657.999 27.2006 657.964 27.0839 657.894C26.9719 657.819 26.8366 657.738 26.6779 657.649C26.5193 657.56 26.3326 657.481 26.1179 657.411C25.9079 657.336 25.6583 657.299 25.3689 657.299C25.1076 657.299 24.8789 657.332 24.6829 657.397C24.4869 657.458 24.3213 657.544 24.1859 657.656C24.0553 657.768 23.9573 657.903 23.8919 658.062C23.8266 658.216 23.7939 658.386 23.7939 658.573C23.7939 658.811 23.8593 659.009 23.9899 659.168C24.1253 659.327 24.3026 659.462 24.5219 659.574C24.7413 659.686 24.9909 659.786 25.2709 659.875C25.5509 659.964 25.8379 660.059 26.1319 660.162C26.4259 660.26 26.7129 660.377 26.9929 660.512C27.2729 660.643 27.5226 660.811 27.7419 661.016C27.9613 661.217 28.1363 661.464 28.2669 661.758C28.4023 662.052 28.4699 662.409 28.4699 662.829C28.4699 663.286 28.3906 663.716 28.2319 664.117C28.0779 664.514 27.8493 664.861 27.5459 665.16C27.2473 665.454 26.8809 665.687 26.4469 665.86C26.0129 666.028 25.5159 666.112 24.9559 666.112C24.6339 666.112 24.3166 666.079 24.0039 666.014C23.6913 665.953 23.3903 665.865 23.1009 665.748C22.8163 665.631 22.5479 665.491 22.2959 665.328C22.0439 665.165 21.8199 664.983 21.6239 664.782L22.1769 663.879C22.2236 663.814 22.2843 663.76 22.3589 663.718C22.4336 663.671 22.5129 663.648 22.5969 663.648C22.7136 663.648 22.8396 663.697 22.9749 663.795C23.1103 663.888 23.2713 663.993 23.4579 664.11C23.6446 664.227 23.8616 664.334 24.1089 664.432C24.3609 664.525 24.6619 664.572 25.0119 664.572C25.5486 664.572 25.9639 664.446 26.2579 664.194C26.5519 663.937 26.6989 663.571 26.6989 663.095C26.6989 662.829 26.6313 662.612 26.4959 662.444C26.3653 662.276 26.1903 662.136 25.9709 662.024C25.7516 661.907 25.5019 661.809 25.2219 661.73C24.9419 661.651 24.6573 661.564 24.3679 661.471C24.0786 661.378 23.7939 661.266 23.5139 661.135C23.2339 661.004 22.9843 660.834 22.7649 660.624C22.5456 660.414 22.3683 660.153 22.2329 659.84C22.1023 659.523 22.0369 659.133 22.0369 658.671C22.0369 658.302 22.1093 657.943 22.2539 657.593C22.4033 657.243 22.6179 656.933 22.8979 656.662C23.1779 656.391 23.5233 656.174 23.9339 656.011C24.3446 655.848 24.8159 655.766 25.3479 655.766C25.9453 655.766 26.4959 655.859 26.9999 656.046C27.5039 656.233 27.9333 656.494 28.2879 656.83L27.8189 657.719Z" fill="white"/>
<path d="M32.3525 666H30.4625V655.878H32.3525V666Z" fill="white"/>
<path d="M43.3128 665.02C42.7995 665.398 42.2511 665.676 41.6678 665.853C41.0891 666.026 40.4685 666.112 39.8058 666.112C38.9798 666.112 38.2308 665.984 37.5588 665.727C36.8915 665.47 36.3198 665.113 35.8438 664.656C35.3725 664.199 35.0085 663.653 34.7518 663.018C34.4951 662.383 34.3668 661.69 34.3668 660.939C34.3668 660.178 34.4905 659.481 34.7378 658.846C34.9851 658.211 35.3351 657.665 35.7878 657.208C36.2451 656.751 36.7981 656.396 37.4468 656.144C38.0955 655.892 38.8235 655.766 39.6308 655.766C40.0415 655.766 40.4241 655.799 40.7788 655.864C41.1381 655.929 41.4695 656.02 41.7728 656.137C42.0808 656.249 42.3608 656.387 42.6128 656.55C42.8648 656.713 43.0958 656.893 43.3058 657.089L42.7668 657.943C42.6828 658.078 42.5731 658.162 42.4378 658.195C42.3025 658.223 42.1555 658.188 41.9968 658.09C41.8428 658.001 41.6888 657.913 41.5348 657.824C41.3808 657.735 41.2081 657.658 41.0168 657.593C40.8301 657.528 40.6178 657.474 40.3798 657.432C40.1465 657.39 39.8758 657.369 39.5678 657.369C39.0685 657.369 38.6158 657.453 38.2098 657.621C37.8085 657.789 37.4655 658.029 37.1808 658.342C36.8961 658.655 36.6768 659.03 36.5228 659.469C36.3688 659.908 36.2918 660.398 36.2918 660.939C36.2918 661.518 36.3735 662.036 36.5368 662.493C36.7048 662.946 36.9381 663.331 37.2368 663.648C37.5401 663.961 37.9041 664.201 38.3288 664.369C38.7535 664.532 39.2271 664.614 39.7498 664.614C40.1231 664.614 40.4568 664.577 40.7508 664.502C41.0448 664.423 41.3318 664.315 41.6118 664.18V662.339H40.3378C40.2165 662.339 40.1208 662.306 40.0508 662.241C39.9855 662.171 39.9528 662.087 39.9528 661.989V660.925H43.3128V665.02Z" fill="white"/>
</g>
<g clip-path="url(#clip19)">
<path d="M6.98591 708C3.89395 708 1.97109 704.642 3.53625 701.975L11.1813 688.95C12.6177 686.503 15.243 685 18.0806 685H44C46.2091 685 48 686.791 48 689V704C48 706.209 46.2091 708 44 708H6.98591Z" fill="#86909C"/>
<path d="M18.4606 696.792L15.2336 691.878H17.1096C17.2403 691.878 17.3336 691.897 17.3896 691.934C17.4503 691.967 17.5063 692.023 17.5576 692.102L19.8536 695.812C19.877 695.756 19.9026 695.7 19.9306 695.644C19.9586 695.583 19.9913 695.523 20.0286 695.462L22.1426 692.137C22.194 692.048 22.25 691.983 22.3106 691.941C22.3713 691.899 22.4483 691.878 22.5416 691.878H24.3406L21.0856 696.715L24.4316 702H22.5556C22.425 702 22.32 701.967 22.2406 701.902C22.166 701.837 22.1053 701.762 22.0586 701.678L19.7136 697.8C19.681 697.903 19.6366 698.001 19.5806 698.094L17.3336 701.678C17.2776 701.757 17.2123 701.832 17.1376 701.902C17.0676 701.967 16.9743 702 16.8576 702H15.1006L18.4606 696.792Z" fill="white"/>
<path d="M30.1913 697.8C30.2706 697.949 30.343 698.106 30.4083 698.269C30.4783 698.428 30.546 698.589 30.6113 698.752C30.6766 698.579 30.7443 698.414 30.8143 698.255C30.8843 698.092 30.959 697.935 31.0383 697.786L34.0273 692.179C34.0646 692.109 34.1043 692.053 34.1463 692.011C34.1883 691.969 34.2326 691.939 34.2793 691.92C34.3306 691.901 34.3866 691.89 34.4473 691.885C34.508 691.88 34.5803 691.878 34.6643 691.878H36.0853V702H34.4263V695.462C34.4263 695.341 34.4286 695.208 34.4333 695.063C34.4426 694.918 34.4543 694.771 34.4683 694.622L31.4093 700.362C31.2646 700.637 31.043 700.775 30.7443 700.775H30.4783C30.1796 700.775 29.958 700.637 29.8133 700.362L26.7193 694.601C26.7333 694.755 26.745 694.907 26.7543 695.056C26.7636 695.201 26.7683 695.336 26.7683 695.462V702H25.1093V691.878H26.5303C26.6143 691.878 26.6866 691.88 26.7473 691.885C26.808 691.89 26.8616 691.901 26.9083 691.92C26.9596 691.939 27.004 691.969 27.0413 692.011C27.0833 692.053 27.123 692.109 27.1603 692.179L30.1913 697.8Z" fill="white"/>
<path d="M39.7366 700.446H43.7826V702H37.8536V691.878H39.7366V700.446Z" fill="white"/>
</g>
<g clip-path="url(#clip20)">
<path d="M6.98591 744C3.89395 744 1.97109 740.642 3.53625 737.975L11.1813 724.95C12.6177 722.503 15.243 721 18.0806 721H44C46.2091 721 48 722.791 48 725V740C48 742.209 46.2091 744 44 744H6.98591Z" fill="#EE3F58"/>
<path d="M21.3349 732.297L18.9759 728.818H20.6419C20.7679 728.818 20.8613 728.837 20.9219 728.874C20.9826 728.907 21.0363 728.963 21.0829 729.042L22.5879 731.443C22.6113 731.364 22.6393 731.284 22.6719 731.205C22.7093 731.126 22.7536 731.046 22.8049 730.967L24.0159 729.077C24.1186 728.904 24.2516 728.818 24.4149 728.818H26.0039L23.6379 732.22L26.1019 736H24.4359C24.3099 736 24.2073 735.967 24.1279 735.902C24.0533 735.837 23.9903 735.762 23.9389 735.678L22.4129 733.179C22.3709 733.347 22.3126 733.487 22.2379 733.599L20.8939 735.678C20.8426 735.757 20.7796 735.832 20.7049 735.902C20.6303 735.967 20.5369 736 20.4249 736H18.8779L21.3349 732.297Z" fill="white"/>
<path d="M32.1704 736.938V738.058H26.6544V736.938H32.1704Z" fill="white"/>
<path d="M35.1845 732.297L32.8255 728.818H34.4915C34.6175 728.818 34.7109 728.837 34.7715 728.874C34.8322 728.907 34.8859 728.963 34.9325 729.042L36.4375 731.443C36.4609 731.364 36.4889 731.284 36.5215 731.205C36.5589 731.126 36.6032 731.046 36.6545 730.967L37.8655 729.077C37.9682 728.904 38.1012 728.818 38.2645 728.818H39.8535L37.4875 732.22L39.9515 736H38.2855C38.1595 736 38.0569 735.967 37.9775 735.902C37.9029 735.837 37.8399 735.762 37.7885 735.678L36.2625 733.179C36.2205 733.347 36.1622 733.487 36.0875 733.599L34.7435 735.678C34.6922 735.757 34.6292 735.832 34.5545 735.902C34.4799 735.967 34.3865 736 34.2745 736H32.7275L35.1845 732.297Z" fill="white"/>
</g>
<defs>
<clipPath id="clip0">
<rect width="48" height="24" fill="white"/>
</clipPath>
<clipPath id="clip1">
<rect width="48" height="24" fill="white" transform="translate(0 36)"/>
</clipPath>
<clipPath id="clip2">
<rect width="48" height="24" fill="white" transform="translate(0 72)"/>
</clipPath>
<clipPath id="clip3">
<rect width="48" height="24" fill="white" transform="translate(0 108)"/>
</clipPath>
<clipPath id="clip4">
<rect width="48" height="24" fill="white" transform="translate(0 144)"/>
</clipPath>
<clipPath id="clip5">
<rect width="48" height="24" fill="white" transform="translate(0 180)"/>
</clipPath>
<clipPath id="clip6">
<rect width="48" height="24" fill="white" transform="translate(0 216)"/>
</clipPath>
<clipPath id="clip7">
<rect width="48" height="24" fill="white" transform="translate(0 252)"/>
</clipPath>
<clipPath id="clip8">
<rect width="48" height="24" fill="white" transform="translate(0 288)"/>
</clipPath>
<clipPath id="clip9">
<rect width="48" height="24" fill="white" transform="translate(0 324)"/>
</clipPath>
<clipPath id="clip10">
<rect width="48" height="24" fill="white" transform="translate(0 360)"/>
</clipPath>
<clipPath id="clip11">
<rect width="48" height="24" fill="white" transform="translate(0 396)"/>
</clipPath>
<clipPath id="clip12">
<rect width="48" height="24" fill="white" transform="translate(0 432)"/>
</clipPath>
<clipPath id="clip13">
<rect width="48" height="24" fill="white" transform="translate(0 468)"/>
</clipPath>
<clipPath id="clip14">
<rect width="48" height="24" fill="white" transform="translate(0 504)"/>
</clipPath>
<clipPath id="clip15">
<rect width="48" height="24" fill="white" transform="translate(0 540)"/>
</clipPath>
<clipPath id="clip16">
<rect width="48" height="24" fill="white" transform="translate(0 576)"/>
</clipPath>
<clipPath id="clip17">
<rect width="48" height="24" fill="white" transform="translate(0 612)"/>
</clipPath>
<clipPath id="clip18">
<rect width="48" height="24" fill="white" transform="translate(0 648)"/>
</clipPath>
<clipPath id="clip19">
<rect width="48" height="24" fill="white" transform="translate(0 684)"/>
</clipPath>
<clipPath id="clip20">
<rect width="48" height="24" fill="white" transform="translate(0 720)"/>
</clipPath>
</defs>
</svg>
