<svg width="16" height="16" viewBox="0 0 16 16" fill="none" xmlns="http://www.w3.org/2000/svg">
<path d="M8.4696 9.71966C8.1767 10.0126 8.1767 10.4874 8.4696 10.7803C8.61605 10.9268 8.808 11 8.9999 11C9.19185 11 9.3838 10.9268 9.5302 10.7803L11.7801 8.53046C11.7976 8.51291 11.8142 8.49451 11.83 8.47531C11.8368 8.46696 11.8427 8.45811 11.8492 8.44956C11.8574 8.43856 11.866 8.42781 11.8736 8.41636C11.8806 8.40591 11.8867 8.39506 11.8931 8.38436C11.8992 8.37406 11.9057 8.36401 11.9114 8.35341C11.9173 8.34241 11.9222 8.33111 11.9275 8.31991C11.9327 8.30896 11.9382 8.29816 11.9428 8.28696C11.9473 8.27601 11.9509 8.26486 11.955 8.25376C11.9593 8.24176 11.9639 8.22991 11.9676 8.21766C11.971 8.20656 11.9734 8.19531 11.9762 8.18406C11.9794 8.17161 11.9829 8.15921 11.9854 8.14651C11.9879 8.13356 11.9895 8.12046 11.9914 8.10741C11.993 8.09626 11.9951 8.08526 11.9962 8.07396C11.9986 8.04976 11.9999 8.02541 11.9999 8.00111C11.9999 8.00076 11.9999 8.00036 11.9999 8.00001C11.9999 7.99966 11.9999 7.99926 11.9999 7.99891C11.9999 7.97456 11.9986 7.95026 11.9962 7.92601C11.9951 7.91486 11.993 7.90401 11.9915 7.89296C11.9895 7.87976 11.988 7.86656 11.9854 7.85346C11.9829 7.84086 11.9795 7.82866 11.9763 7.81631C11.9735 7.80496 11.971 7.79351 11.9676 7.78226C11.9639 7.77021 11.9594 7.75856 11.9551 7.74671C11.9511 7.73541 11.9473 7.72406 11.9427 7.71296C11.9382 7.70196 11.9328 7.69141 11.9277 7.68071C11.9223 7.66926 11.9173 7.65771 11.9113 7.64646C11.9058 7.63621 11.8995 7.62646 11.8935 7.61651C11.887 7.60546 11.8807 7.59431 11.8735 7.58356C11.8663 7.57261 11.8581 7.56236 11.8503 7.55181C11.8435 7.54276 11.8372 7.53341 11.8299 7.52461C11.815 7.50641 11.7991 7.48896 11.7825 7.47221C11.7817 7.47141 11.781 7.47051 11.7802 7.46971L9.53025 5.21966C9.23735 4.92676 8.7625 4.92681 8.4696 5.21966C8.1767 5.51256 8.1767 5.98741 8.4696 6.28031L9.4393 7.25006H0.75C0.3358 7.25006 0 7.58586 0 8.00006C0 8.41426 0.3358 8.75006 0.75 8.75006H9.43925L8.4696 9.71966Z" fill="#0D4CD3"/>
<path d="M15.25 1.25H5.75C5.3358 1.25 5 1.5858 5 2V5C5 5.4142 5.3358 5.75 5.75 5.75C6.1642 5.75 6.5 5.4142 6.5 5V2.75H14.5V13.25H6.5V10.9999C6.5 10.5857 6.1642 10.2499 5.75 10.2499C5.3358 10.2499 5 10.5857 5 10.9999V14C5 14.4142 5.3358 14.75 5.75 14.75H15.25C15.6642 14.75 16 14.4142 16 14V2C16 1.58575 15.6642 1.25 15.25 1.25Z" fill="#0D4CD3"/>
</svg>
