<svg xmlns="http://www.w3.org/2000/svg" width="18px" height="14px" viewBox="336.331 249.055 127.999 97.17"><path fill="#0173C1" d="M424.94 290.992h-63.416l16.877-16.877c3.07-3.068 3.07-7.67 0-10.74-3.068-3.07-7.67-3.07-10.74 0l-29.15 28.64c-1.535 2.045-2.046 4.09-2.046 6.647-.51 2.046.51 4.604 2.046 6.138l29.15 29.15c3.07 3.068 7.672 3.068 10.74 0 3.07-3.068 3.07-7.67 0-10.74l-16.876-16.876h63.416c4.092 0 7.67-3.58 7.67-7.672 0-4.602-3.068-7.67-7.67-7.67z"/><path fill="#0173C1" d="M448.977 264.398v66.484H402.95v-66.484h46.027m10.228-15.343h-61.37c-5.627 0-10.23 4.603-10.23 10.23v76.712c0 5.626 4.603 10.23 10.23 10.23h58.3c5.626 0 8.183-4.604 8.183-10.23v-76.713c0-5.626.512-10.23-5.113-10.23z"/></svg>