<svg width="9" height="16" viewBox="0 0 9 16" fill="none" xmlns="http://www.w3.org/2000/svg">
<path d="M2.21072 0.393822C1.70499 -0.131274 0.885034 -0.131274 0.3793 0.393822C-0.126433 0.918919 -0.126433 1.77027 0.3793 2.29536L6.78928 8.95076C7.29501 9.47586 8.11497 9.47586 8.6207 8.95076C9.12643 8.42567 9.12643 7.57432 8.6207 7.04922L2.21072 0.393822Z" fill="#0D4CD3"/>
<path d="M0.379497 13.7046C-0.126237 14.2297 -0.126237 15.0811 0.379497 15.6062C0.88523 16.1313 1.70519 16.1313 2.21092 15.6062L8.6207 8.95076C9.12643 8.42567 9.12643 7.57432 8.6207 7.04922C8.11497 6.52412 7.29521 6.52414 6.78947 7.04924L0.379497 13.7046Z" fill="#0D4CD3"/>
</svg>
