<svg width="24" height="24" viewBox="0 0 24 24" fill="none" xmlns="http://www.w3.org/2000/svg">
<path d="M1.78087 8.3753C1.43586 7.94404 0.806567 7.87412 0.375305 8.21913C-0.055957 8.56414 -0.125878 9.19343 0.219131 9.6247L1.78087 8.3753ZM23.7557 9.65493C24.1174 9.23758 24.0723 8.60602 23.6549 8.24431C23.2376 7.8826 22.606 7.92771 22.2443 8.34507L23.7557 9.65493ZM0.219131 9.6247C1.31568 10.9954 3.07564 12.4509 5.12154 13.5656C7.16823 14.6808 9.58381 15.5 12 15.5V13.5C10.0162 13.5 7.93177 12.8192 6.07846 11.8094C4.22436 10.7991 2.68432 9.50462 1.78087 8.3753L0.219131 9.6247ZM12 15.5C14.419 15.5 16.7944 14.679 18.8199 13.5634C20.8476 12.4467 22.5914 10.9983 23.7557 9.65493L22.2443 8.34507C21.2419 9.50168 19.6858 10.8033 17.8551 11.8116C16.0222 12.821 13.981 13.5 12 13.5V15.5Z" fill="#A8ACB1"/>
<line x1="12" y1="15" x2="12" y2="18" stroke="#A8ACB1" stroke-width="2" stroke-linecap="round"/>
<line x1="18.116" y1="13.701" x2="19.616" y2="16.2991" stroke="#A8ACB1" stroke-width="2" stroke-linecap="round"/>
<line x1="4.38397" y1="16.299" x2="5.88397" y2="13.7009" stroke="#A8ACB1" stroke-width="2" stroke-linecap="round"/>
</svg>
