<svg width="21" height="20" viewBox="0 0 21 20" fill="none" xmlns="http://www.w3.org/2000/svg">
<g clip-path="url(#clip0)">
<path d="M10.5 6.13281C7.80762 6.13281 5.61719 8.32324 5.61719 11.0156C5.61719 13.708 7.80762 15.8984 10.5 15.8984C13.1924 15.8984 15.3828 13.708 15.3828 11.0156C15.3828 8.32324 13.1924 6.13281 10.5 6.13281ZM10.5 14.3359C8.66918 14.3359 7.17969 12.8464 7.17969 11.0156C7.17969 9.1848 8.66918 7.69531 10.5 7.69531C12.3308 7.69531 13.8203 9.1848 13.8203 11.0156C13.8203 12.8464 12.3308 14.3359 10.5 14.3359Z" fill="#0D4CD3"/>
<path d="M18.1562 3.78906H15.2822C15.1912 3.78906 15.1093 3.73941 15.0671 3.6591L14.272 1.98828C14.2698 1.98371 14.2676 1.97918 14.2653 1.97465C13.9575 1.35902 13.3387 0.976562 12.6504 0.976562H8.40531C7.71699 0.976562 7.09816 1.35902 6.79039 1.97469C6.78809 1.97922 6.7859 1.98375 6.78371 1.98832L5.98855 3.65922C5.94637 3.73941 5.86441 3.78906 5.77344 3.78906H2.84375C1.55141 3.78906 0.5 4.84047 0.5 6.13281V16.6797C0.5 17.972 1.55141 19.0234 2.84375 19.0234H18.1562C19.4486 19.0234 20.5 17.972 20.5 16.6797V6.13281C20.5 4.84047 19.4486 3.78906 18.1562 3.78906ZM18.9375 16.6796C18.9375 17.1104 18.587 17.4609 18.1562 17.4609H2.84375C2.41297 17.4609 2.0625 17.1104 2.0625 16.6796V6.13281C2.0625 5.70203 2.41297 5.35156 2.84375 5.35156H5.77344C6.46172 5.35156 7.08055 4.96914 7.38836 4.35352C7.39066 4.34898 7.39285 4.34441 7.39508 4.33984L8.19023 2.66895C8.23238 2.58871 8.31434 2.53906 8.40531 2.53906H12.6504C12.7413 2.53906 12.8233 2.58871 12.8654 2.66891L13.6606 4.3398C13.6628 4.34437 13.665 4.34895 13.6673 4.35348C13.9751 4.9691 14.5939 5.35152 15.2822 5.35152H18.1562C18.587 5.35152 18.9375 5.70199 18.9375 6.13277V16.6796Z" fill="#0D4CD3"/>
<path d="M17.375 6.91406H15.8125V8.47656H17.375V6.91406Z" fill="#0D4CD3"/>
</g>
<defs>
<clipPath id="clip0">
<rect width="20" height="20" fill="white" transform="translate(0.5)"/>
</clipPath>
</defs>
</svg>
