<svg width="205" height="102" viewBox="0 0 205 102" fill="none" xmlns="http://www.w3.org/2000/svg">
  <g opacity="0.5">
    <path d="M103 17.7734C97.4772 17.7734 93 22.1946 93 27.6484C93 33.1022 97.4772 37.5234 103 37.5234C108.52 37.517 112.994 33.0996 113 27.6484C113 22.1946 108.523 17.7734 103 17.7734ZM103 35.728C98.4814 35.728 94.8182 32.1106 94.8182 27.6484C94.8182 23.1862 98.4814 19.5689 103 19.5689C107.516 19.5743 111.176 23.1885 111.182 27.6484C111.182 32.1106 107.519 35.728 103 35.728Z" fill="#0173C1"/>
    <path d="M129.667 7.68056V5.48611C129.667 4.88017 129.189 4.38889 128.6 4.38889H122.2C121.611 4.38889 121.133 4.88017 121.133 5.48611V7.68056H118.553L115.821 2.765C114.87 1.05717 113.104 0.00246875 111.191 0H94.8091C92.8957 0.00246875 91.1296 1.05717 90.1787 2.765L87.4469 7.68056H87V4.38889C87 3.78295 86.5224 3.29167 85.9333 3.29167H77.4C76.8109 3.29167 76.3333 3.78295 76.3333 4.38889V7.68056C73.3893 7.68412 71.0035 10.1383 71 13.1667V43.8889C71.0035 46.9172 73.3893 49.3714 76.3333 49.375H129.667C132.611 49.3714 134.997 46.9172 135 43.8889V13.1667C134.997 10.1383 132.611 7.68412 129.667 7.68056ZM123.267 6.58333H127.533V7.68056H123.267V6.58333ZM78.4667 5.48611H84.8667V7.68056H78.4667V5.48611ZM132.867 43.8889C132.867 45.7068 131.434 47.1806 129.667 47.1806H76.3333C74.566 47.1806 73.1333 45.7068 73.1333 43.8889V13.1667C73.1333 11.3487 74.566 9.875 76.3333 9.875H88.0667C88.4485 9.87582 88.8016 9.66653 88.9925 9.32639L92.0304 3.85783C92.6004 2.83179 93.6601 2.19732 94.8091 2.19444H111.191C112.337 2.19842 113.394 2.83083 113.964 3.85344L117.007 9.32639C117.198 9.66653 117.551 9.87582 117.933 9.875H129.667C131.434 9.875 132.867 11.3487 132.867 13.1667V43.8889Z" fill="#0173C1"/>
    <path d="M103 13.8281C95.268 13.8281 89 20.0178 89 27.6531C89 35.2884 95.268 41.4781 103 41.4781C110.732 41.4781 117 35.2884 117 27.6531C116.991 20.0214 110.728 13.8368 103 13.8281ZM103 39.6348C96.2989 39.6348 90.8667 34.2705 90.8667 27.6531C90.8667 21.0358 96.2989 15.6715 103 15.6715C109.701 15.6715 115.133 21.0358 115.133 27.6531C115.126 34.2672 109.698 39.6272 103 39.6348Z" fill="#0173C1"/>
    <path d="M82 11.8516C81.4477 11.8516 81 12.3958 81 13.0669V42.2362C81 42.9074 81.4477 43.4516 82 43.4516C82.5523 43.4516 83 42.9074 83 42.2362V13.0669C83 12.3958 82.5523 11.8516 82 11.8516Z" fill="#0173C1"/>
    <path d="M126 9.875C124.343 9.875 123 11.2013 123 12.8375C123 14.4737 124.343 15.8 126 15.8C127.657 15.8 129 14.4737 129 12.8375C129 11.2013 127.657 9.875 126 9.875ZM126 13.825C125.448 13.825 125 13.3828 125 12.8375C125 12.2922 125.448 11.85 126 11.85C126.552 11.85 127 12.2922 127 12.8375C127 13.3828 126.552 13.825 126 13.825Z" fill="#0173C1"/>
  </g>
  <path d="M11.6562 90.2578C11.6562 89.7266 11.5755 89.2526 11.4141 88.8359C11.2526 88.4141 11.0052 88.0573 10.6719 87.7656C10.3438 87.474 9.92448 87.2526 9.41406 87.1016C8.90365 86.9453 8.30208 86.8672 7.60938 86.8672V93.6406C8.30208 93.6406 8.90365 93.5651 9.41406 93.4141C9.92448 93.2578 10.3438 93.0365 10.6719 92.75C11.0052 92.4583 11.2526 92.1042 11.4141 91.6875C11.5755 91.2656 11.6562 90.7891 11.6562 90.2578ZM6.07031 94.9531C5.20573 94.9531 4.42969 94.8542 3.74219 94.6562C3.05469 94.4531 2.47135 94.1536 1.99219 93.7578C1.51302 93.362 1.14583 92.8724 0.890625 92.2891C0.635417 91.7005 0.507812 91.0234 0.507812 90.2578C0.507812 89.4922 0.635417 88.8177 0.890625 88.2344C1.14583 87.6458 1.51302 87.1536 1.99219 86.7578C2.47135 86.362 3.05469 86.0651 3.74219 85.8672C4.42969 85.6641 5.20573 85.5625 6.07031 85.5625V84.2812H7.60938V85.5625C8.47396 85.5625 9.25 85.6641 9.9375 85.8672C10.625 86.0651 11.2083 86.362 11.6875 86.7578C12.1667 87.1536 12.5339 87.6458 12.7891 88.2344C13.0495 88.8177 13.1797 89.4922 13.1797 90.2578C13.1797 91.0234 13.0495 91.7005 12.7891 92.2891C12.5339 92.8724 12.1667 93.362 11.6875 93.7578C11.2083 94.1536 10.625 94.4531 9.9375 94.6562C9.25 94.8542 8.47396 94.9531 7.60938 94.9531V96.2344H6.07031V94.9531ZM2.02344 90.2578C2.02344 90.7891 2.10417 91.2656 2.26562 91.6875C2.42708 92.1042 2.67188 92.4583 3 92.75C3.33333 93.0365 3.7526 93.2578 4.25781 93.4141C4.76823 93.5651 5.3724 93.6406 6.07031 93.6406V86.8672C5.3724 86.8672 4.76823 86.9453 4.25781 87.1016C3.7526 87.2526 3.33333 87.474 3 87.7656C2.67188 88.0573 2.42708 88.4141 2.26562 88.8359C2.10417 89.2526 2.02344 89.7266 2.02344 90.2578ZM20.5859 91.8047C20.5859 91.3411 20.5339 90.9167 20.4297 90.5312C20.3255 90.1406 20.1693 89.8047 19.9609 89.5234C19.7526 89.2422 19.4948 89.0234 19.1875 88.8672C18.8854 88.7057 18.5339 88.625 18.1328 88.625C17.7318 88.625 17.3802 88.7057 17.0781 88.8672C16.776 89.0234 16.5208 89.2422 16.3125 89.5234C16.1042 89.8047 15.9479 90.1406 15.8438 90.5312C15.7396 90.9167 15.6875 91.3411 15.6875 91.8047C15.6875 92.2734 15.7396 92.7057 15.8438 93.1016C15.9479 93.4922 16.1042 93.8281 16.3125 94.1094C16.5208 94.3906 16.776 94.612 17.0781 94.7734C17.3802 94.9297 17.7318 95.0078 18.1328 95.0078C18.5339 95.0078 18.8854 94.9297 19.1875 94.7734C19.4948 94.612 19.7526 94.3906 19.9609 94.1094C20.1693 93.8281 20.3255 93.4922 20.4297 93.1016C20.5339 92.7057 20.5859 92.2734 20.5859 91.8047ZM22.0234 91.8047C22.0234 92.4922 21.9349 93.112 21.7578 93.6641C21.5807 94.2109 21.3255 94.6771 20.9922 95.0625C20.6589 95.4479 20.25 95.7448 19.7656 95.9531C19.2865 96.1562 18.7422 96.2578 18.1328 96.2578C17.5234 96.2578 16.9792 96.1562 16.5 95.9531C16.0208 95.7448 15.6146 95.4479 15.2812 95.0625C14.9479 94.6771 14.6927 94.2109 14.5156 93.6641C14.3385 93.112 14.25 92.4922 14.25 91.8047C14.25 91.1276 14.3385 90.5156 14.5156 89.9688C14.6927 89.4219 14.9479 88.9557 15.2812 88.5703C15.6146 88.1849 16.0208 87.8906 16.5 87.6875C16.9792 87.4792 17.5234 87.375 18.1328 87.375C18.7422 87.375 19.2865 87.4792 19.7656 87.6875C20.25 87.8906 20.6589 88.1849 20.9922 88.5703C21.3255 88.9557 21.5807 89.4219 21.7578 89.9688C21.9349 90.5156 22.0234 91.1276 22.0234 91.8047ZM25.875 88.8828H22.9922V87.6328H30.1953V88.8828H27.3125V96H25.875V88.8828ZM37.4922 91.8047C37.4922 91.3411 37.4401 90.9167 37.3359 90.5312C37.2318 90.1406 37.0755 89.8047 36.8672 89.5234C36.6589 89.2422 36.401 89.0234 36.0938 88.8672C35.7917 88.7057 35.4401 88.625 35.0391 88.625C34.638 88.625 34.2865 88.7057 33.9844 88.8672C33.6823 89.0234 33.4271 89.2422 33.2188 89.5234C33.0104 89.8047 32.8542 90.1406 32.75 90.5312C32.6458 90.9167 32.5938 91.3411 32.5938 91.8047C32.5938 92.2734 32.6458 92.7057 32.75 93.1016C32.8542 93.4922 33.0104 93.8281 33.2188 94.1094C33.4271 94.3906 33.6823 94.612 33.9844 94.7734C34.2865 94.9297 34.638 95.0078 35.0391 95.0078C35.4401 95.0078 35.7917 94.9297 36.0938 94.7734C36.401 94.612 36.6589 94.3906 36.8672 94.1094C37.0755 93.8281 37.2318 93.4922 37.3359 93.1016C37.4401 92.7057 37.4922 92.2734 37.4922 91.8047ZM38.9297 91.8047C38.9297 92.4922 38.8411 93.112 38.6641 93.6641C38.487 94.2109 38.2318 94.6771 37.8984 95.0625C37.5651 95.4479 37.1562 95.7448 36.6719 95.9531C36.1927 96.1562 35.6484 96.2578 35.0391 96.2578C34.4297 96.2578 33.8854 96.1562 33.4062 95.9531C32.9271 95.7448 32.5208 95.4479 32.1875 95.0625C31.8542 94.6771 31.599 94.2109 31.4219 93.6641C31.2448 93.112 31.1562 92.4922 31.1562 91.8047C31.1562 91.1276 31.2448 90.5156 31.4219 89.9688C31.599 89.4219 31.8542 88.9557 32.1875 88.5703C32.5208 88.1849 32.9271 87.8906 33.4062 87.6875C33.8854 87.4792 34.4297 87.375 35.0391 87.375C35.6484 87.375 36.1927 87.4792 36.6719 87.6875C37.1562 87.8906 37.5651 88.1849 37.8984 88.5703C38.2318 88.9557 38.487 89.4219 38.6641 89.9688C38.8411 90.5156 38.9297 91.1276 38.9297 91.8047ZM47.1719 91.1641H47.8984C48.0911 91.1641 48.2917 91.1406 48.5 91.0938C48.7083 91.0469 48.8984 90.974 49.0703 90.875C49.2422 90.7708 49.3828 90.638 49.4922 90.4766C49.6068 90.3151 49.6641 90.1198 49.6641 89.8906C49.6641 89.724 49.6276 89.5651 49.5547 89.4141C49.487 89.2578 49.3828 89.1224 49.2422 89.0078C49.1068 88.888 48.9349 88.7943 48.7266 88.7266C48.5182 88.6589 48.276 88.625 48 88.625C47.8542 88.625 47.6823 88.6458 47.4844 88.6875C47.2865 88.7292 47.0911 88.8073 46.8984 88.9219C46.7109 89.0312 46.5417 89.1901 46.3906 89.3984C46.2448 89.6016 46.151 89.8672 46.1094 90.1953H44.7656C44.8021 89.8203 44.8776 89.4922 44.9922 89.2109C45.1068 88.9245 45.25 88.6771 45.4219 88.4688C45.5938 88.2604 45.7865 88.0859 46 87.9453C46.2188 87.8047 46.4427 87.6927 46.6719 87.6094C46.9062 87.526 47.1406 87.4661 47.375 87.4297C47.6094 87.3932 47.8333 87.375 48.0469 87.375C48.4219 87.375 48.7917 87.4245 49.1562 87.5234C49.5208 87.6172 49.8464 87.763 50.1328 87.9609C50.4245 88.1536 50.6589 88.3984 50.8359 88.6953C51.013 88.9922 51.1016 89.3385 51.1016 89.7344C51.1016 89.9896 51.0651 90.2161 50.9922 90.4141C50.9193 90.6068 50.8229 90.776 50.7031 90.9219C50.5885 91.0677 50.4583 91.1927 50.3125 91.2969C50.1667 91.3958 50.0234 91.4792 49.8828 91.5469V91.5859C50.0286 91.612 50.1901 91.6667 50.3672 91.75C50.5443 91.8281 50.7083 91.9427 50.8594 92.0938C51.0104 92.2396 51.1354 92.4297 51.2344 92.6641C51.3385 92.8932 51.3906 93.1745 51.3906 93.5078C51.3906 93.9766 51.2891 94.3828 51.0859 94.7266C50.888 95.0703 50.6276 95.3568 50.3047 95.5859C49.9818 95.8099 49.6172 95.9766 49.2109 96.0859C48.8047 96.2005 48.3958 96.2578 47.9844 96.2578C47.4531 96.2578 46.9714 96.1901 46.5391 96.0547C46.112 95.9193 45.7422 95.7266 45.4297 95.4766C45.1172 95.2266 44.8672 94.9271 44.6797 94.5781C44.4974 94.2292 44.388 93.8438 44.3516 93.4219H45.7969C45.8333 93.7292 45.9219 93.9844 46.0625 94.1875C46.2031 94.3906 46.3724 94.5521 46.5703 94.6719C46.7682 94.7917 46.987 94.8776 47.2266 94.9297C47.4714 94.9818 47.7188 95.0078 47.9688 95.0078C48.6302 95.0078 49.125 94.875 49.4531 94.6094C49.7865 94.3438 49.9531 93.987 49.9531 93.5391C49.9531 93.3464 49.9219 93.1745 49.8594 93.0234C49.8021 92.8724 49.7031 92.7448 49.5625 92.6406C49.4219 92.5312 49.2344 92.4505 49 92.3984C48.7708 92.3411 48.4844 92.3125 48.1406 92.3125C48.0729 92.3125 47.9948 92.3151 47.9062 92.3203C47.8229 92.3203 47.737 92.3229 47.6484 92.3281C47.5651 92.3333 47.4818 92.3411 47.3984 92.3516C47.3151 92.3568 47.2396 92.362 47.1719 92.3672V91.1641ZM52.9922 90.1406C53.0078 89.6302 53.1042 89.2005 53.2812 88.8516C53.4583 88.4974 53.6979 88.2109 54 87.9922C54.3021 87.7734 54.6589 87.6172 55.0703 87.5234C55.487 87.4245 55.9401 87.375 56.4297 87.375C56.8359 87.375 57.2292 87.4167 57.6094 87.5C57.9948 87.5833 58.3359 87.7188 58.6328 87.9062C58.9297 88.0885 59.1667 88.3281 59.3438 88.625C59.526 88.9167 59.6172 89.2734 59.6172 89.6953V94.5625C59.6172 94.6979 59.6536 94.8151 59.7266 94.9141C59.7995 95.0078 59.9167 95.0547 60.0781 95.0547C60.151 95.0547 60.2266 95.0495 60.3047 95.0391C60.3828 95.0234 60.4635 95.0078 60.5469 94.9922V95.9844C60.4271 96.0156 60.3073 96.0443 60.1875 96.0703C60.0729 96.0964 59.9349 96.1094 59.7734 96.1094C59.5234 96.1094 59.3073 96.0885 59.125 96.0469C58.9479 96.0052 58.7969 95.9375 58.6719 95.8438C58.5521 95.7448 58.4583 95.6198 58.3906 95.4688C58.3229 95.3125 58.2786 95.1224 58.2578 94.8984C58.0807 95.0911 57.8932 95.2708 57.6953 95.4375C57.4974 95.599 57.276 95.7422 57.0312 95.8672C56.7865 95.987 56.513 96.0807 56.2109 96.1484C55.9089 96.2214 55.5677 96.2578 55.1875 96.2578C54.8646 96.2578 54.5495 96.2057 54.2422 96.1016C53.9401 95.9974 53.6667 95.8438 53.4219 95.6406C53.1823 95.4375 52.9896 95.1875 52.8438 94.8906C52.6979 94.5885 52.625 94.2396 52.625 93.8438C52.625 93.4115 52.6979 93.0391 52.8438 92.7266C52.9896 92.4089 53.1797 92.1458 53.4141 91.9375C53.6484 91.724 53.9167 91.5599 54.2188 91.4453C54.5208 91.3307 54.8281 91.2552 55.1406 91.2188L57.4922 90.9297C57.7161 90.9036 57.8906 90.8177 58.0156 90.6719C58.1458 90.5208 58.2109 90.2812 58.2109 89.9531C58.2109 89.4479 58.0443 89.0859 57.7109 88.8672C57.3828 88.6432 56.9089 88.5312 56.2891 88.5312C55.6536 88.5312 55.1797 88.6667 54.8672 88.9375C54.5547 89.2031 54.3776 89.6042 54.3359 90.1406H52.9922ZM58.1797 91.7422C58.0651 91.8255 57.9219 91.8958 57.75 91.9531C57.5833 92.0052 57.3984 92.0495 57.1953 92.0859C56.9922 92.1224 56.776 92.1562 56.5469 92.1875C56.3177 92.2135 56.0885 92.2422 55.8594 92.2734C55.599 92.3099 55.3594 92.362 55.1406 92.4297C54.9219 92.4974 54.7318 92.5859 54.5703 92.6953C54.4089 92.8047 54.2839 92.9375 54.1953 93.0938C54.1068 93.2448 54.0625 93.4245 54.0625 93.6328C54.0625 93.8724 54.099 94.0833 54.1719 94.2656C54.25 94.4479 54.3542 94.6016 54.4844 94.7266C54.6198 94.8516 54.7812 94.9453 54.9688 95.0078C55.1562 95.0703 55.362 95.1016 55.5859 95.1016C55.7266 95.1016 55.888 95.0859 56.0703 95.0547C56.2526 95.0182 56.4401 94.9661 56.6328 94.8984C56.8255 94.8307 57.013 94.7448 57.1953 94.6406C57.3828 94.5312 57.5495 94.401 57.6953 94.25C57.8411 94.099 57.9583 93.9271 58.0469 93.7344C58.1354 93.5417 58.1797 93.3255 58.1797 93.0859V91.7422ZM61.9141 87.6328H67.1094V88.8828H63.3516V96H61.9141V87.6328ZM68.2891 87.6328H69.7266V88.7812H69.7578C69.8516 88.5885 69.9688 88.4062 70.1094 88.2344C70.2552 88.0625 70.4271 87.9141 70.625 87.7891C70.8281 87.6589 71.0599 87.5573 71.3203 87.4844C71.5859 87.4115 71.888 87.375 72.2266 87.375C72.6745 87.375 73.1042 87.4609 73.5156 87.6328C73.9271 87.8047 74.2917 88.0625 74.6094 88.4062C74.9271 88.75 75.1797 89.1823 75.3672 89.7031C75.5547 90.2188 75.6484 90.8203 75.6484 91.5078C75.6484 92.3672 75.5599 93.099 75.3828 93.7031C75.2109 94.3021 74.9635 94.7917 74.6406 95.1719C74.3229 95.5521 73.9375 95.8281 73.4844 96C73.0312 96.1719 72.526 96.2578 71.9688 96.2578C71.6927 96.2578 71.4349 96.2214 71.1953 96.1484C70.9557 96.0755 70.7396 95.9818 70.5469 95.8672C70.3594 95.7474 70.1979 95.6172 70.0625 95.4766C69.9271 95.3307 69.8255 95.1901 69.7578 95.0547H69.7266V99.2969H68.2891V87.6328ZM69.6953 91.8594C69.6953 92.3125 69.7396 92.7318 69.8281 93.1172C69.9167 93.4974 70.0521 93.8281 70.2344 94.1094C70.4219 94.3906 70.6536 94.612 70.9297 94.7734C71.2109 94.9297 71.5417 95.0078 71.9219 95.0078C72.3177 95.0078 72.6589 94.9297 72.9453 94.7734C73.237 94.612 73.4766 94.3906 73.6641 94.1094C73.8516 93.8281 73.9896 93.4974 74.0781 93.1172C74.1667 92.7318 74.2109 92.3125 74.2109 91.8594C74.2109 91.3854 74.1667 90.9505 74.0781 90.5547C73.9896 90.1589 73.8516 89.8177 73.6641 89.5312C73.4766 89.2448 73.237 89.0234 72.9453 88.8672C72.6589 88.7057 72.3177 88.625 71.9219 88.625C71.5417 88.625 71.2109 88.7057 70.9297 88.8672C70.6536 89.0234 70.4219 89.2448 70.2344 89.5312C70.0521 89.8177 69.9167 90.1589 69.8281 90.5547C69.7396 90.9505 69.6953 91.3854 69.6953 91.8594ZM76.3984 87.6328H77.9766L80.2031 94.4453H80.2344L82.4609 87.6328H84.0391L80.8438 96.3359C80.6823 96.7734 80.5339 97.1536 80.3984 97.4766C80.263 97.7995 80.1302 98.0729 80 98.2969C79.8698 98.526 79.737 98.7109 79.6016 98.8516C79.4714 98.9922 79.3255 99.1016 79.1641 99.1797C79.0078 99.263 78.8307 99.3177 78.6328 99.3438C78.4401 99.375 78.2161 99.3906 77.9609 99.3906C77.7526 99.3906 77.5885 99.3802 77.4688 99.3594C77.3542 99.3438 77.2526 99.3229 77.1641 99.2969V98C77.2578 98.0312 77.3802 98.0625 77.5312 98.0938C77.6823 98.125 77.8411 98.1406 78.0078 98.1406C78.2734 98.1406 78.487 98.0755 78.6484 97.9453C78.8151 97.8203 78.9427 97.6406 79.0312 97.4062L79.5 96.2266L76.3984 87.6328ZM87.4375 91.1641H88.1641C88.3568 91.1641 88.5573 91.1406 88.7656 91.0938C88.974 91.0469 89.1641 90.974 89.3359 90.875C89.5078 90.7708 89.6484 90.638 89.7578 90.4766C89.8724 90.3151 89.9297 90.1198 89.9297 89.8906C89.9297 89.724 89.8932 89.5651 89.8203 89.4141C89.7526 89.2578 89.6484 89.1224 89.5078 89.0078C89.3724 88.888 89.2005 88.7943 88.9922 88.7266C88.7839 88.6589 88.5417 88.625 88.2656 88.625C88.1198 88.625 87.9479 88.6458 87.75 88.6875C87.5521 88.7292 87.3568 88.8073 87.1641 88.9219C86.9766 89.0312 86.8073 89.1901 86.6562 89.3984C86.5104 89.6016 86.4167 89.8672 86.375 90.1953H85.0312C85.0677 89.8203 85.1432 89.4922 85.2578 89.2109C85.3724 88.9245 85.5156 88.6771 85.6875 88.4688C85.8594 88.2604 86.0521 88.0859 86.2656 87.9453C86.4844 87.8047 86.7083 87.6927 86.9375 87.6094C87.1719 87.526 87.4062 87.4661 87.6406 87.4297C87.875 87.3932 88.099 87.375 88.3125 87.375C88.6875 87.375 89.0573 87.4245 89.4219 87.5234C89.7865 87.6172 90.112 87.763 90.3984 87.9609C90.6901 88.1536 90.9245 88.3984 91.1016 88.6953C91.2786 88.9922 91.3672 89.3385 91.3672 89.7344C91.3672 89.9896 91.3307 90.2161 91.2578 90.4141C91.1849 90.6068 91.0885 90.776 90.9688 90.9219C90.8542 91.0677 90.724 91.1927 90.5781 91.2969C90.4323 91.3958 90.2891 91.4792 90.1484 91.5469V91.5859C90.2943 91.612 90.4557 91.6667 90.6328 91.75C90.8099 91.8281 90.974 91.9427 91.125 92.0938C91.276 92.2396 91.401 92.4297 91.5 92.6641C91.6042 92.8932 91.6562 93.1745 91.6562 93.5078C91.6562 93.9766 91.5547 94.3828 91.3516 94.7266C91.1536 95.0703 90.8932 95.3568 90.5703 95.5859C90.2474 95.8099 89.8828 95.9766 89.4766 96.0859C89.0703 96.2005 88.6615 96.2578 88.25 96.2578C87.7188 96.2578 87.237 96.1901 86.8047 96.0547C86.3776 95.9193 86.0078 95.7266 85.6953 95.4766C85.3828 95.2266 85.1328 94.9271 84.9453 94.5781C84.763 94.2292 84.6536 93.8438 84.6172 93.4219H86.0625C86.099 93.7292 86.1875 93.9844 86.3281 94.1875C86.4688 94.3906 86.638 94.5521 86.8359 94.6719C87.0339 94.7917 87.2526 94.8776 87.4922 94.9297C87.737 94.9818 87.9844 95.0078 88.2344 95.0078C88.8958 95.0078 89.3906 94.875 89.7188 94.6094C90.0521 94.3438 90.2188 93.987 90.2188 93.5391C90.2188 93.3464 90.1875 93.1745 90.125 93.0234C90.0677 92.8724 89.9688 92.7448 89.8281 92.6406C89.6875 92.5312 89.5 92.4505 89.2656 92.3984C89.0365 92.3411 88.75 92.3125 88.4062 92.3125C88.3385 92.3125 88.2604 92.3151 88.1719 92.3203C88.0885 92.3203 88.0026 92.3229 87.9141 92.3281C87.8307 92.3333 87.7474 92.3411 87.6641 92.3516C87.5807 92.3568 87.5052 92.362 87.4375 92.3672V91.1641ZM93.2734 87.6328H94.7109V94.0469H94.7422L98.8516 87.6328H100.5V96H99.0547V89.5859H99.0234L94.9219 96H93.2734V87.6328ZM104.844 88.8828H101.961V87.6328H109.164V88.8828H106.281V96H104.844V88.8828ZM110.617 87.6328H112.055V90.7812H114.375C114.833 90.7812 115.242 90.8438 115.602 90.9688C115.961 91.0885 116.266 91.263 116.516 91.4922C116.766 91.7161 116.956 91.9896 117.086 92.3125C117.221 92.6302 117.289 92.9896 117.289 93.3906C117.289 93.7969 117.221 94.1615 117.086 94.4844C116.956 94.8021 116.766 95.0755 116.516 95.3047C116.266 95.5286 115.961 95.7005 115.602 95.8203C115.242 95.9401 114.833 96 114.375 96H110.617V87.6328ZM112.055 94.8516H114.094C114.344 94.8516 114.576 94.8255 114.789 94.7734C115.008 94.7214 115.195 94.638 115.352 94.5234C115.508 94.4036 115.63 94.2526 115.719 94.0703C115.807 93.8828 115.852 93.6562 115.852 93.3906C115.852 93.1302 115.805 92.9089 115.711 92.7266C115.622 92.5443 115.495 92.3958 115.328 92.2812C115.167 92.1615 114.969 92.0755 114.734 92.0234C114.505 91.9661 114.247 91.9375 113.961 91.9375H112.055V94.8516ZM123.07 87.6328H124.508V91.0078H128.414V87.6328H129.859V96H128.414V92.2578H124.508V96H123.07V87.6328ZM139.102 93.3281C139.044 93.6927 138.919 94.0495 138.727 94.3984C138.534 94.7474 138.281 95.0599 137.969 95.3359C137.656 95.612 137.286 95.8333 136.859 96C136.438 96.1719 135.969 96.2578 135.453 96.2578C134.891 96.2578 134.37 96.1667 133.891 95.9844C133.417 95.7969 133.005 95.5182 132.656 95.1484C132.312 94.7734 132.042 94.3047 131.844 93.7422C131.646 93.1797 131.547 92.5182 131.547 91.7578C131.547 91.2474 131.602 90.7865 131.711 90.375C131.826 89.9583 131.977 89.5885 132.164 89.2656C132.357 88.9375 132.578 88.6562 132.828 88.4219C133.078 88.1823 133.341 87.987 133.617 87.8359C133.898 87.6797 134.185 87.5651 134.477 87.4922C134.768 87.4141 135.049 87.375 135.32 87.375C135.893 87.375 136.417 87.4609 136.891 87.6328C137.365 87.8047 137.771 88.0677 138.109 88.4219C138.453 88.7708 138.719 89.2109 138.906 89.7422C139.099 90.2682 139.195 90.888 139.195 91.6016V92.3203H133.078C133.083 92.7266 133.141 93.0964 133.25 93.4297C133.359 93.7578 133.516 94.0391 133.719 94.2734C133.922 94.5078 134.167 94.6901 134.453 94.8203C134.745 94.9453 135.073 95.0078 135.438 95.0078C135.807 95.0078 136.12 94.9557 136.375 94.8516C136.63 94.7474 136.844 94.6146 137.016 94.4531C137.188 94.2917 137.326 94.112 137.43 93.9141C137.539 93.7161 137.63 93.5208 137.703 93.3281H139.102ZM137.75 91.1719C137.74 90.7656 137.677 90.4036 137.562 90.0859C137.453 89.7682 137.297 89.5026 137.094 89.2891C136.896 89.0703 136.656 88.9062 136.375 88.7969C136.094 88.6823 135.781 88.625 135.438 88.625C135.109 88.625 134.807 88.6901 134.531 88.8203C134.255 88.9453 134.013 89.1224 133.805 89.3516C133.596 89.5755 133.43 89.8438 133.305 90.1562C133.18 90.4635 133.104 90.8021 133.078 91.1719H137.75ZM144.461 87.6328H146.039L148.266 94.4453H148.297L150.523 87.6328H152.102L148.906 96.3359C148.745 96.7734 148.596 97.1536 148.461 97.4766C148.326 97.7995 148.193 98.0729 148.062 98.2969C147.932 98.526 147.799 98.7109 147.664 98.8516C147.534 98.9922 147.388 99.1016 147.227 99.1797C147.07 99.263 146.893 99.3177 146.695 99.3438C146.503 99.375 146.279 99.3906 146.023 99.3906C145.815 99.3906 145.651 99.3802 145.531 99.3594C145.417 99.3438 145.315 99.3229 145.227 99.2969V98C145.32 98.0312 145.443 98.0625 145.594 98.0938C145.745 98.125 145.904 98.1406 146.07 98.1406C146.336 98.1406 146.549 98.0755 146.711 97.9453C146.878 97.8203 147.005 97.6406 147.094 97.4062L147.562 96.2266L144.461 87.6328ZM160.312 96H153.844V98.0469H152.5V94.75H153.602C153.831 94.1875 154.013 93.6146 154.148 93.0312C154.284 92.4427 154.388 91.8516 154.461 91.2578C154.534 90.6589 154.581 90.0573 154.602 89.4531C154.622 88.849 154.633 88.2422 154.633 87.6328H160.477V94.75H161.656V98.0469H160.312V96ZM159.039 94.75V88.8828H156.008C155.971 89.3568 155.932 89.8438 155.891 90.3438C155.854 90.8438 155.802 91.3464 155.734 91.8516C155.672 92.3516 155.586 92.8464 155.477 93.3359C155.372 93.8255 155.234 94.2969 155.062 94.75H159.039ZM163.023 90.1406C163.039 89.6302 163.135 89.2005 163.312 88.8516C163.49 88.4974 163.729 88.2109 164.031 87.9922C164.333 87.7734 164.69 87.6172 165.102 87.5234C165.518 87.4245 165.971 87.375 166.461 87.375C166.867 87.375 167.26 87.4167 167.641 87.5C168.026 87.5833 168.367 87.7188 168.664 87.9062C168.961 88.0885 169.198 88.3281 169.375 88.625C169.557 88.9167 169.648 89.2734 169.648 89.6953V94.5625C169.648 94.6979 169.685 94.8151 169.758 94.9141C169.831 95.0078 169.948 95.0547 170.109 95.0547C170.182 95.0547 170.258 95.0495 170.336 95.0391C170.414 95.0234 170.495 95.0078 170.578 94.9922V95.9844C170.458 96.0156 170.339 96.0443 170.219 96.0703C170.104 96.0964 169.966 96.1094 169.805 96.1094C169.555 96.1094 169.339 96.0885 169.156 96.0469C168.979 96.0052 168.828 95.9375 168.703 95.8438C168.583 95.7448 168.49 95.6198 168.422 95.4688C168.354 95.3125 168.31 95.1224 168.289 94.8984C168.112 95.0911 167.924 95.2708 167.727 95.4375C167.529 95.599 167.307 95.7422 167.062 95.8672C166.818 95.987 166.544 96.0807 166.242 96.1484C165.94 96.2214 165.599 96.2578 165.219 96.2578C164.896 96.2578 164.581 96.2057 164.273 96.1016C163.971 95.9974 163.698 95.8438 163.453 95.6406C163.214 95.4375 163.021 95.1875 162.875 94.8906C162.729 94.5885 162.656 94.2396 162.656 93.8438C162.656 93.4115 162.729 93.0391 162.875 92.7266C163.021 92.4089 163.211 92.1458 163.445 91.9375C163.68 91.724 163.948 91.5599 164.25 91.4453C164.552 91.3307 164.859 91.2552 165.172 91.2188L167.523 90.9297C167.747 90.9036 167.922 90.8177 168.047 90.6719C168.177 90.5208 168.242 90.2812 168.242 89.9531C168.242 89.4479 168.076 89.0859 167.742 88.8672C167.414 88.6432 166.94 88.5312 166.32 88.5312C165.685 88.5312 165.211 88.6667 164.898 88.9375C164.586 89.2031 164.409 89.6042 164.367 90.1406H163.023ZM168.211 91.7422C168.096 91.8255 167.953 91.8958 167.781 91.9531C167.615 92.0052 167.43 92.0495 167.227 92.0859C167.023 92.1224 166.807 92.1562 166.578 92.1875C166.349 92.2135 166.12 92.2422 165.891 92.2734C165.63 92.3099 165.391 92.362 165.172 92.4297C164.953 92.4974 164.763 92.5859 164.602 92.6953C164.44 92.8047 164.315 92.9375 164.227 93.0938C164.138 93.2448 164.094 93.4245 164.094 93.6328C164.094 93.8724 164.13 94.0833 164.203 94.2656C164.281 94.4479 164.385 94.6016 164.516 94.7266C164.651 94.8516 164.812 94.9453 165 95.0078C165.188 95.0703 165.393 95.1016 165.617 95.1016C165.758 95.1016 165.919 95.0859 166.102 95.0547C166.284 95.0182 166.471 94.9661 166.664 94.8984C166.857 94.8307 167.044 94.7448 167.227 94.6406C167.414 94.5312 167.581 94.401 167.727 94.25C167.872 94.099 167.99 93.9271 168.078 93.7344C168.167 93.5417 168.211 93.3255 168.211 93.0859V91.7422ZM177.578 88.8828H174.375L174.312 90.8906C174.281 91.9062 174.203 92.7552 174.078 93.4375C173.953 94.1146 173.781 94.6589 173.562 95.0703C173.349 95.4818 173.089 95.7734 172.781 95.9453C172.474 96.1172 172.122 96.2031 171.727 96.2031C171.581 96.2031 171.453 96.1797 171.344 96.1328C171.24 96.0911 171.159 96.0469 171.102 96V94.7344C171.305 94.8125 171.484 94.8516 171.641 94.8516C171.75 94.8516 171.854 94.8333 171.953 94.7969C172.057 94.7604 172.154 94.6901 172.242 94.5859C172.336 94.4818 172.422 94.3359 172.5 94.1484C172.578 93.9557 172.646 93.7057 172.703 93.3984C172.766 93.0911 172.815 92.7188 172.852 92.2812C172.893 91.8438 172.922 91.3229 172.938 90.7188L173.008 87.6328H179.016V96H177.578V88.8828ZM186.977 91.8047C186.977 91.3411 186.924 90.9167 186.82 90.5312C186.716 90.1406 186.56 89.8047 186.352 89.5234C186.143 89.2422 185.885 89.0234 185.578 88.8672C185.276 88.7057 184.924 88.625 184.523 88.625C184.122 88.625 183.771 88.7057 183.469 88.8672C183.167 89.0234 182.911 89.2422 182.703 89.5234C182.495 89.8047 182.339 90.1406 182.234 90.5312C182.13 90.9167 182.078 91.3411 182.078 91.8047C182.078 92.2734 182.13 92.7057 182.234 93.1016C182.339 93.4922 182.495 93.8281 182.703 94.1094C182.911 94.3906 183.167 94.612 183.469 94.7734C183.771 94.9297 184.122 95.0078 184.523 95.0078C184.924 95.0078 185.276 94.9297 185.578 94.7734C185.885 94.612 186.143 94.3906 186.352 94.1094C186.56 93.8281 186.716 93.4922 186.82 93.1016C186.924 92.7057 186.977 92.2734 186.977 91.8047ZM188.414 91.8047C188.414 92.4922 188.326 93.112 188.148 93.6641C187.971 94.2109 187.716 94.6771 187.383 95.0625C187.049 95.4479 186.641 95.7448 186.156 95.9531C185.677 96.1562 185.133 96.2578 184.523 96.2578C183.914 96.2578 183.37 96.1562 182.891 95.9531C182.411 95.7448 182.005 95.4479 181.672 95.0625C181.339 94.6771 181.083 94.2109 180.906 93.6641C180.729 93.112 180.641 92.4922 180.641 91.8047C180.641 91.1276 180.729 90.5156 180.906 89.9688C181.083 89.4219 181.339 88.9557 181.672 88.5703C182.005 88.1849 182.411 87.8906 182.891 87.6875C183.37 87.4792 183.914 87.375 184.523 87.375C185.133 87.375 185.677 87.4792 186.156 87.6875C186.641 87.8906 187.049 88.1849 187.383 88.5703C187.716 88.9557 187.971 89.4219 188.148 89.9688C188.326 90.5156 188.414 91.1276 188.414 91.8047ZM196.617 93.0547C196.596 93.2578 196.555 93.4792 196.492 93.7188C196.435 93.9583 196.349 94.1979 196.234 94.4375C196.12 94.6719 195.971 94.8984 195.789 95.1172C195.612 95.3359 195.393 95.5312 195.133 95.7031C194.878 95.8698 194.576 96.0026 194.227 96.1016C193.878 96.2057 193.479 96.2578 193.031 96.2578C192.786 96.2578 192.529 96.2266 192.258 96.1641C191.987 96.1068 191.721 96.0078 191.461 95.8672C191.206 95.7266 190.961 95.5469 190.727 95.3281C190.497 95.1042 190.294 94.8281 190.117 94.5C189.945 94.1719 189.807 93.7917 189.703 93.3594C189.599 92.9219 189.547 92.4219 189.547 91.8594C189.547 91.1667 189.646 90.5443 189.844 89.9922C190.042 89.4349 190.305 88.9635 190.633 88.5781C190.966 88.1927 191.352 87.8958 191.789 87.6875C192.232 87.4792 192.695 87.375 193.18 87.375C193.617 87.375 194.003 87.4219 194.336 87.5156C194.674 87.6094 194.969 87.7344 195.219 87.8906C195.469 88.0469 195.68 88.2292 195.852 88.4375C196.023 88.6406 196.161 88.8568 196.266 89.0859C196.375 89.3099 196.456 89.5391 196.508 89.7734C196.565 90.0078 196.602 90.2318 196.617 90.4453H195.273C195.201 89.8776 195.003 89.4323 194.68 89.1094C194.362 88.7865 193.914 88.625 193.336 88.625C192.94 88.625 192.594 88.7057 192.297 88.8672C192.005 89.0286 191.76 89.2552 191.562 89.5469C191.37 89.8333 191.224 90.1823 191.125 90.5938C191.031 91 190.984 91.4479 190.984 91.9375C190.984 92.4896 191.036 92.9661 191.141 93.3672C191.245 93.763 191.393 94.0911 191.586 94.3516C191.779 94.6068 192.013 94.7969 192.289 94.9219C192.57 95.0417 192.888 95.1016 193.242 95.1016C193.492 95.1016 193.729 95.0573 193.953 94.9688C194.177 94.875 194.378 94.7422 194.555 94.5703C194.732 94.3932 194.883 94.1771 195.008 93.9219C195.133 93.6667 195.221 93.3776 195.273 93.0547H196.617ZM198.039 87.6328H199.477V90.7812H201.797C202.255 90.7812 202.664 90.8438 203.023 90.9688C203.383 91.0885 203.688 91.263 203.938 91.4922C204.188 91.7161 204.378 91.9896 204.508 92.3125C204.643 92.6302 204.711 92.9896 204.711 93.3906C204.711 93.7969 204.643 94.1615 204.508 94.4844C204.378 94.8021 204.188 95.0755 203.938 95.3047C203.688 95.5286 203.383 95.7005 203.023 95.8203C202.664 95.9401 202.255 96 201.797 96H198.039V87.6328ZM199.477 94.8516H201.516C201.766 94.8516 201.997 94.8255 202.211 94.7734C202.43 94.7214 202.617 94.638 202.773 94.5234C202.93 94.4036 203.052 94.2526 203.141 94.0703C203.229 93.8828 203.273 93.6562 203.273 93.3906C203.273 93.1302 203.227 92.9089 203.133 92.7266C203.044 92.5443 202.917 92.3958 202.75 92.2812C202.589 92.1615 202.391 92.0755 202.156 92.0234C201.927 91.9661 201.669 91.9375 201.383 91.9375H199.477V94.8516Z" fill="#79B6DF"/>
</svg>
