<svg width="22" height="23" viewBox="0 0 22 23" fill="none" xmlns="http://www.w3.org/2000/svg">
  <path fill-rule="evenodd" clip-rule="evenodd" d="M17.8929 4.91316H18.4697C20.2979 4.91316 21.7865 6.40175 21.7865 8.22992V13.5795C21.7865 15.4078 20.2979 16.8963 18.4697 16.8963H17.8883V21.1016C17.8883 22.0134 17.144 22.7576 16.2321 22.7576H5.94695C5.03519 22.7576 4.29089 22.0134 4.29089 21.1016V16.8963H3.76989C1.94172 16.8963 0.453125 15.4078 0.453125 13.5795V8.22992C0.453125 6.40175 1.94172 4.91316 3.76989 4.91316H4.29555V3.62926C4.29555 1.80108 5.78413 0.3125 7.61231 0.3125H14.5761C16.4043 0.3125 17.8929 1.80108 17.8929 3.62926V4.91316ZM7.60765 1.5685C6.47261 1.5685 5.54689 2.49422 5.54689 3.62926V4.91316H16.6276V3.62926C16.6276 2.49422 15.7019 1.5685 14.5668 1.5685H7.60765ZM16.6323 21.1108C16.6323 21.3295 16.4508 21.511 16.2321 21.511H5.94695C5.7283 21.511 5.54689 21.3295 5.54689 21.1108V14.175H16.6323V21.1108ZM18.4697 15.645C19.6048 15.645 20.5305 14.7192 20.5305 13.5842V8.23458C20.5305 7.09954 19.6048 6.17382 18.4697 6.17382H3.76989C2.63484 6.17382 1.70912 7.09954 1.70912 8.23458V13.5842C1.70912 14.7192 2.63484 15.645 3.76989 15.645H4.29555V14.175H3.36982C3.02095 14.175 2.74183 13.8959 2.74183 13.547C2.74183 13.198 3.02095 12.919 3.36982 12.919H18.7209C19.0697 12.919 19.3489 13.198 19.3489 13.547C19.3489 13.8959 19.0697 14.175 18.7209 14.175H17.8929V15.645H18.4697Z" fill="#0B40B3"/>
  <path d="M7.06745 17.2634H15.064C15.4128 17.2634 15.692 16.9843 15.692 16.6354C15.692 16.2866 15.4128 16.0074 15.064 16.0074H7.06745C6.71856 16.0074 6.43945 16.2866 6.43945 16.6354C6.43945 16.9843 6.72321 17.2634 7.06745 17.2634Z" fill="#0B40B3"/>
  <path d="M15.1154 18.5738H7.11433C6.76543 18.5738 6.48633 18.8529 6.48633 19.2018C6.48633 19.5508 6.76543 19.8298 7.11433 19.8298H15.1108C15.4597 19.8298 15.7388 19.5508 15.7388 19.2018C15.7388 18.8529 15.4597 18.5738 15.1154 18.5738Z" fill="#0B40B3"/>
  <path d="M18.4553 7.37852H17.1806C16.8318 7.37852 16.5527 7.65762 16.5527 8.0065C16.5527 8.3554 16.8318 8.6345 17.1806 8.6345H18.4553C18.8042 8.6345 19.0833 8.3554 19.0833 8.0065C19.0833 7.65762 18.8042 7.37852 18.4553 7.37852Z" fill="#0B40B3"/>
</svg>
