<svg width="36" height="36" viewBox="0 0 36 36" fill="none" xmlns="http://www.w3.org/2000/svg">
<rect width="36" height="36" rx="18" fill="#C2CEEC"/>
<path d="M19.5368 23.7725C19.5112 24.6864 18.8335 25.2511 17.9556 25.2254C17.1136 25.1998 16.4514 24.5991 16.477 23.6801C16.5027 22.7663 17.2009 22.1861 18.0429 22.2118C18.9259 22.2375 19.5676 22.8587 19.5368 23.7725ZM22.0371 17.237C21.8214 17.5399 21.3389 17.9301 20.733 18.4024L20.0605 18.8645C19.7319 19.1161 19.5266 19.4138 19.4188 19.7527C19.3623 19.9324 19.3212 20.3995 19.311 20.7127C19.3058 20.7743 19.2699 20.9129 19.0799 20.9129C18.89 20.9129 17.2831 20.9129 17.0726 20.9129C16.8621 20.9129 16.8364 20.7897 16.8415 20.7281C16.8723 19.8759 16.9955 19.1725 17.3498 18.6078C17.8272 17.848 19.1723 17.0471 19.1723 17.0471C19.3777 16.8931 19.5368 16.7288 19.6601 16.5491C19.886 16.2411 20.0708 15.8971 20.0708 15.5274C20.0708 15.1013 19.9681 14.6957 19.696 14.3569C19.3777 13.9616 19.0337 13.7716 18.3714 13.7716C17.7194 13.7716 17.3395 14.1002 17.0674 14.5315C16.7953 14.9627 16.8415 15.471 16.8415 15.933H14.3413C14.3413 14.1875 14.7982 13.0734 15.7634 12.4163C16.4154 11.9696 17.2471 11.7745 18.2174 11.7745C19.4906 11.7745 20.502 12.0107 21.3953 12.6884C22.2219 13.3147 22.6583 14.1978 22.6583 15.3888C22.6583 16.123 22.4016 16.739 22.0371 17.237Z" fill="white"/>
</svg>
