<svg width="48" height="48" viewBox="0 0 48 48" fill="none" xmlns="http://www.w3.org/2000/svg">
    <path fill-rule="evenodd" clip-rule="evenodd" d="M28.2838 17.9555L27.5866 16.4056L23.9985 8.42971L20.4106 16.4056L19.7134 17.9555L18.0256 18.1542L9.29323 19.1826L15.918 24.6903L17.3586 25.8879L16.9148 27.7078L14.8885 36.0179L22.5299 31.7284L23.9984 30.904L25.4669 31.7283L33.1103 36.0189L31.0854 27.7073L30.6421 25.8876L32.0823 24.6903L38.7069 19.1828L29.9717 18.1542L28.2838 17.9555ZM17.6747 15.1748L6.62829 16.4757C4.88294 16.6813 4.23224 18.8764 5.58363 19.9999L14.0002 26.9972L11.4289 37.5422C11.0147 39.241 12.8263 40.6159 14.351 39.76L23.9985 34.3444L33.6473 39.7607C35.1718 40.6165 36.9833 39.2419 36.5694 37.5433L34.0002 26.9972L42.4166 20C43.768 18.8765 43.1173 16.6813 41.3719 16.4758L30.3225 15.1748L25.8224 5.17167C25.115 3.59902 22.882 3.59903 22.1745 5.17169L17.6747 15.1748Z" fill="#4D83FA"/>
</svg>
