<svg width="16" height="16" viewBox="0 0 16 16" fill="none" xmlns="http://www.w3.org/2000/svg">
<path fill-rule="evenodd" clip-rule="evenodd" d="M10.6667 6.22222C10.6667 8.7081 8.63276 10.6667 6.22222 10.6667C3.73634 10.6667 1.77777 8.63277 1.77777 6.22222C1.77777 3.81168 3.73634 1.77778 6.22222 1.77778C8.70809 1.77778 10.6667 3.81168 10.6667 6.22222ZM11.3176 9.72354C12.0349 8.68742 12.4334 7.49191 12.4334 6.21669C12.4334 2.78954 9.64384 0 6.21669 0C2.78954 0 0 2.78954 0 6.21669C0 9.64384 2.78954 12.4334 6.21669 12.4334C7.49191 12.4334 8.76712 12.0349 9.72354 11.3176L14.3462 15.9402C14.4259 16.0199 14.5853 16.0199 14.665 15.9402L15.9402 14.665C16.0199 14.5853 16.0199 14.4259 15.9402 14.3462L11.3176 9.72354Z" fill="#ffffff"/>
</svg>
