<svg width="80" height="80" viewBox="0 0 80 80" fill="none" xmlns="http://www.w3.org/2000/svg">
<g filter="url(#filter0_d)">
<rect x="12" y="6" width="56" height="56" rx="16" fill="white"/>
<rect x="12.5" y="6.5" width="55" height="55" rx="15.5" stroke="#F0F3F7"/>
</g>
<path d="M36.43 34.4287H32.4137C32.3641 34.4287 32.3641 34.4791 32.3641 34.4791C32.265 36.3453 31.9179 38.3123 31.422 39.9767V40.0271L31.4716 40.0776H32.86C32.9096 40.0776 32.9096 40.0776 32.9096 40.0271C33.3062 38.7662 33.6037 37.1523 33.7029 35.74H35.0416V39.9767C35.0416 40.0271 35.0912 40.0271 35.0912 40.0271H36.43C36.4796 40.0271 36.4796 39.9767 36.4796 39.9767L36.43 34.4287C36.4796 34.4287 36.5292 34.4287 36.43 34.4287ZM53.4868 34.4287H52.148C52.0984 34.4287 52.0984 34.4791 52.0984 34.4791V38.7158C51.8009 38.8166 51.5034 38.8166 51.2059 38.8166C50.3134 38.8166 50.1151 38.5645 50.1151 37.354V34.4287C50.1151 34.3783 50.0655 34.3783 50.0655 34.3783H48.7267C48.6771 34.3783 48.6771 34.4287 48.6771 34.4287V37.5557C48.6771 39.4723 49.3217 40.2289 50.958 40.2289C51.9001 40.2289 52.9413 39.9767 53.5363 39.7245C53.5859 39.7245 53.5859 39.6741 53.5859 39.6741V34.4791C53.5859 34.4287 53.5363 34.4287 53.4868 34.4287ZM25.6208 34.4287H24.282C24.2324 34.4287 24.2324 34.4287 24.2324 34.4791C24.0341 35.3366 23.5878 36.7488 23.0424 38.2114L21.6541 34.4791C21.6541 34.4287 21.6045 34.4287 21.6045 34.4287H20.2161C20.2161 34.4287 20.1666 34.4287 20.1666 34.4791V34.5296L22.1995 40.128C22.0012 40.5819 21.8028 40.935 21.6045 41.2376C21.4557 41.4898 21.3566 41.7419 21.2078 41.9941V42.0446L21.2574 42.095H22.7449C22.7945 42.095 22.7945 42.095 22.7945 42.0446C23.0424 41.5402 23.3399 40.8845 23.6374 40.1784C24.4803 38.1105 25.1745 36.194 25.6208 34.4287C25.6208 34.4287 25.6703 34.4287 25.6208 34.4287ZM30.4304 38.7158C30.3808 38.7158 30.3808 38.7158 30.4304 38.7158C30.3808 38.6653 30.3312 38.6653 30.3312 38.6653C30.0337 38.7662 29.3891 38.8671 28.9924 38.8671C28.0999 38.8671 27.6537 38.6149 27.6537 37.2027C27.6537 36.0427 27.8024 35.5383 28.9924 35.5383C29.3395 35.5383 29.637 35.5887 30.0833 35.6896C30.1329 35.6896 30.1329 35.6896 30.1825 35.6392C30.3312 35.3366 30.5295 34.9835 30.7279 34.58V34.5296L30.6783 34.4791C30.1329 34.3278 29.4883 34.227 28.9429 34.227C27.0091 34.227 26.1662 35.1348 26.1662 37.2027C26.1662 39.321 27.0091 40.2289 28.9429 40.2289C29.4387 40.2289 30.3808 40.128 30.827 39.9262C30.8766 39.9262 30.8766 39.8758 30.8766 39.8254L30.4304 38.7158ZM42.9254 34.4287H41.5867C41.5371 34.4287 41.5371 34.4287 41.5371 34.4791C41.3388 35.3366 40.8925 36.7488 40.3471 38.2114L39.0083 34.4791C39.0083 34.4287 38.9588 34.4287 38.9588 34.4287H37.5208C37.5208 34.4287 37.4712 34.4287 37.4712 34.4791V34.5296L39.5042 40.128C39.3058 40.5819 39.1075 40.935 38.9092 41.2376C38.7604 41.4898 38.6613 41.7419 38.5125 41.9941V42.0446L38.5621 42.095H40.0496C40.0992 42.095 40.0992 42.095 40.0992 42.0446C40.3471 41.5402 40.6446 40.8845 40.9421 40.1784C41.785 38.161 42.4792 36.194 42.9254 34.4287C42.9254 34.4287 42.975 34.4287 42.9254 34.4287ZM47.8342 34.4287H43.9667C43.9171 34.4287 43.9171 34.4791 43.9171 34.4791V39.9767C43.9171 40.0271 43.9667 40.0271 43.9667 40.0271H45.3055C45.355 40.0271 45.355 39.9767 45.355 39.9767V35.74H47.388C47.4376 35.74 47.4376 35.74 47.4376 35.6896C47.5863 35.3366 47.7351 34.9331 47.9334 34.5296V34.4791C47.8838 34.4287 47.8838 34.4287 47.8342 34.4287Z" fill="#EF3E58"/>
<path d="M27.1579 25.9049C25.2737 25.9049 24.5299 26.7119 24.5299 28.8806C24.5299 31.0494 25.2737 31.8563 27.1579 31.8563C29.0916 31.8563 29.8354 30.9989 29.8354 28.8806C29.8354 26.7119 29.0916 25.9049 27.1579 25.9049ZM27.1579 30.5954C26.3149 30.5954 26.0174 30.3433 26.0174 28.8806C26.0174 27.2667 26.3149 27.1658 27.1579 27.1658C28.0008 27.1658 28.2983 27.3171 28.2983 28.8806C28.3479 30.3937 28.0504 30.5954 27.1579 30.5954ZM35.0912 30.3937C35.0912 30.3937 35.0417 30.3433 35.0912 30.3937C35.0417 30.3433 34.9921 30.3433 34.9921 30.3433C34.6946 30.4441 34.05 30.545 33.6533 30.545C32.7608 30.545 32.3146 30.2928 32.3146 28.8806C32.3146 27.7206 32.4633 27.2162 33.6533 27.2162C34.0004 27.2162 34.2979 27.2667 34.7441 27.3675C34.7937 27.3675 34.7937 27.3675 34.8433 27.3171C34.9921 27.0145 35.1904 26.6614 35.3887 26.2579V26.2075L35.3392 26.1571C34.7937 26.0057 34.1491 25.9049 33.6037 25.9049C31.67 25.9049 30.827 26.8127 30.827 28.8806C30.827 30.9989 31.67 31.9068 33.6037 31.9068C34.0996 31.9068 35.0417 31.8059 35.4879 31.6042C35.5375 31.6042 35.5375 31.5537 35.5375 31.5033L35.0912 30.3937ZM24.1333 26.0562H20.2161C20.1666 26.0562 20.1666 26.1066 20.1666 26.1066V31.6042C20.1666 31.6546 20.2161 31.6546 20.2161 31.6546H21.5549C21.6045 31.6546 21.6045 31.6042 21.6045 31.6042V27.3675H23.6374C23.687 27.3675 23.687 27.3675 23.687 27.3171C23.8358 26.964 23.9845 26.5605 24.1828 26.1571V26.1066C24.1828 26.0562 24.1333 26.0562 24.1333 26.0562Z" fill="#0F67B1"/>
<path d="M59.635 39.4723V39.2201C59.6846 38.4636 59.7342 37.5053 59.7838 36.4462V36.3453C59.7838 35.5887 59.8334 34.8322 59.8334 34.0252C59.8334 33.2183 59.8334 32.4113 59.7838 31.7052V31.6043C59.7342 30.5451 59.6846 29.5869 59.635 28.8303V28.2251C59.5855 27.4181 59.5359 26.9137 59.5359 26.8633C59.5359 26.7624 59.5359 26.712 59.4863 26.6111V26.5607C59.4863 26.4094 59.4367 26.2581 59.4367 26.1572V26.1068C59.0896 24.3919 58.1475 22.5258 57.0071 21.164C56.5609 20.6092 56.065 20.1553 55.5692 19.7518C55.5196 19.7014 54.9742 19.2979 54.0321 18.6422C52.9412 17.8857 51.4537 16.877 49.7183 15.8682C46.6937 14.0021 43.9666 12.7412 43.6195 12.5899H43.5699C42.7766 12.2368 41.7849 11.9847 40.7437 11.8838C40.5453 11.8838 40.347 11.8333 40.1487 11.8333H39.3057C37.9174 11.8838 36.6282 12.136 35.587 12.5899C35.4382 12.6403 32.7111 13.9012 29.5874 15.7674C29.5874 15.7674 29.5378 15.8178 29.4882 15.8178C26.3148 17.7344 23.7861 19.6005 23.6869 19.7014C22.8936 20.3066 22.1994 21.0631 21.5548 22.0214C21.4061 22.2232 21.4061 22.778 22.0507 22.778H23.6373C24.3315 22.778 24.4802 22.3745 25.224 21.8197C26.0669 21.2145 27.7032 19.9536 30.7774 18.0874C32.959 16.7761 35.0416 15.7169 36.0332 15.263C36.0332 15.263 36.0828 15.263 36.0828 15.2126H36.2316C36.4795 15.1117 36.6282 15.0108 36.6282 15.0108C37.3224 14.7082 38.3141 14.5065 39.3553 14.456H39.752C40.0495 14.456 40.347 14.5065 40.6445 14.5065C41.2891 14.6073 41.8345 14.7082 42.3304 14.9099C42.3799 14.9099 42.4295 14.9604 42.4791 14.9604C42.4791 14.9604 42.5287 14.9604 42.5783 15.0108C43.0245 15.2126 45.6029 16.423 48.3796 18.0874C50.0158 19.0457 51.5033 20.0544 52.495 20.7605C53.3875 21.3658 53.9329 21.7693 53.9329 21.8197C54.3296 22.1223 54.7263 22.5258 55.0733 22.9797C56.0154 24.1902 56.7592 25.8546 56.8584 27.1155C56.8584 27.1155 56.9079 27.6703 56.9575 28.4773V30.1921C57.0071 31.3017 57.0567 32.5626 57.0567 33.9244C57.0567 35.2861 57.0071 36.5975 56.9575 37.6566V39.3715C56.9079 40.2289 56.8584 40.7332 56.8584 40.7332C56.7096 41.9941 55.9658 43.6585 55.0733 44.869C54.7263 45.3229 54.3296 45.7768 53.9329 46.029C53.9329 46.029 53.3875 46.4325 52.495 47.0882C51.5033 47.7943 50.0158 48.803 48.3796 49.7613C45.6029 51.4257 43.0245 52.6362 42.5783 52.8379C42.5287 52.8379 42.5287 52.8883 42.4791 52.8883C42.4295 52.8883 42.3799 52.9388 42.3304 52.9388C41.8841 53.1405 41.2891 53.2918 40.6445 53.3423C40.347 53.3927 40.0495 53.3927 39.752 53.3927H39.3553C38.3141 53.3927 37.3224 53.1909 36.6282 52.8379C36.6282 52.8379 36.4795 52.7875 36.2316 52.6361C36.182 52.6361 36.182 52.5857 36.1324 52.5857C36.1324 52.5857 36.0828 52.5857 36.0828 52.5353H36.0332C36.0332 52.5353 35.9836 52.5353 35.9836 52.4848C35.9341 52.4848 35.9341 52.4848 35.8845 52.4344C34.8432 51.93 32.8599 50.9213 30.7774 49.6604C27.7032 47.8447 26.0669 46.5838 25.224 45.9282C24.4802 45.5751 24.3315 45.1716 23.6373 45.1716H22.1002C21.4556 45.1716 21.5052 45.7264 21.6044 45.9282C22.249 46.8864 22.9432 47.643 23.7365 48.2482C23.8357 48.3491 26.3644 50.2152 29.5378 52.1318C29.6865 52.2327 29.8849 52.3335 30.0336 52.4344C32.959 54.1492 35.4878 55.3093 35.6366 55.4101C36.6282 55.8641 37.967 56.1667 39.3553 56.1667H40.1983C40.3966 56.1667 40.5949 56.1667 40.7933 56.1162C41.8345 56.0154 42.8262 55.7632 43.6195 55.4101H43.6691C44.0162 55.2588 46.7433 53.9979 49.7679 52.1822C51.4537 51.1735 52.9908 50.1648 54.0321 49.4082C54.9246 48.7526 55.5196 48.3491 55.5692 48.2986C56.065 47.9456 56.5609 47.4412 57.0071 46.8864C58.1475 45.4742 59.0896 43.6081 59.4367 41.9437V41.8933C59.4863 41.742 59.4863 41.5906 59.4863 41.4898V41.4393C59.4863 41.3385 59.4863 41.288 59.5359 41.1872C59.5359 41.1367 59.5855 40.6324 59.635 39.8254V39.4723Z" fill="url(#paint0_linear)"/>
<defs>
<filter id="filter0_d" x="0" y="0" width="80" height="80" filterUnits="userSpaceOnUse" color-interpolation-filters="sRGB">
<feFlood flood-opacity="0" result="BackgroundImageFix"/>
<feColorMatrix in="SourceAlpha" type="matrix" values="0 0 0 0 0 0 0 0 0 0 0 0 0 0 0 0 0 0 127 0"/>
<feOffset dy="6"/>
<feGaussianBlur stdDeviation="6"/>
<feColorMatrix type="matrix" values="0 0 0 0 0.339844 0 0 0 0 0.442266 0 0 0 0 0.5625 0 0 0 0.12 0"/>
<feBlend mode="normal" in2="BackgroundImageFix" result="effect1_dropShadow"/>
<feBlend mode="normal" in="SourceGraphic" in2="effect1_dropShadow" result="shape"/>
</filter>
<linearGradient id="paint0_linear" x1="40.6737" y1="11.6615" x2="40.6737" y2="56.0957" gradientUnits="userSpaceOnUse">
<stop stop-color="#1466AC"/>
<stop offset="0.4" stop-color="#1466AC"/>
<stop offset="0.66" stop-color="#EF4058"/>
<stop offset="1" stop-color="#EF4058"/>
</linearGradient>
</defs>
</svg>
