<svg width="160" height="160" viewBox="0 0 160 160" fill="none" xmlns="http://www.w3.org/2000/svg">
  <path fill-rule="evenodd" clip-rule="evenodd" d="M61.1354 79.1814C67.5828 97.3651 74.7269 107.526 81.8966 108.587C91.4535 110.002 151.034 117.287 151.034 117.287C151.034 117.287 150.481 42.5559 117.193 1.80371C92.7207 19.2062 65.7959 39.5552 61.6261 42.8384C56.3478 46.9945 54.6885 60.9973 61.1354 79.1814Z" fill="url(#paint0_linear)"/>
  <path fill-rule="evenodd" clip-rule="evenodd" d="M80.0422 146.922C80.0422 146.922 76.5069 147.143 71.4602 147.47C68.9007 147.636 65.9524 147.823 62.88 148.035C57.0009 148.439 50.6679 148.907 45.7271 149.239C41.3363 149.534 38.0501 149.738 37.1767 149.733C36.4881 149.729 35.9125 150.091 35.5157 150.662C35.0442 151.341 34.836 152.323 35.0058 153.222C35.1479 153.972 35.5469 154.662 36.2462 155.089C36.7731 155.41 37.4784 155.586 38.3927 155.495C39.782 155.356 48.8158 154.318 60.0473 152.998C64.6144 152.462 69.5458 151.88 74.4734 151.289C82.1529 150.369 89.8248 149.433 96.1058 148.666C104.583 147.631 110.524 146.894 110.524 146.894C110.65 146.879 110.74 146.766 110.725 146.641C110.71 146.515 110.597 146.425 110.471 146.44C110.471 146.44 104.521 147.096 96.0328 148.045C89.7446 148.747 82.0638 149.605 74.3786 150.476C69.4472 151.034 64.5145 151.602 59.9458 152.126C48.7189 153.416 39.6924 154.46 38.3036 154.596C37.6294 154.663 37.1055 154.554 36.7172 154.317C36.247 154.03 35.9893 153.559 35.8942 153.054C35.7692 152.395 35.9121 151.674 36.2573 151.177C36.4787 150.858 36.7872 150.633 37.1716 150.635C38.7985 150.643 48.7454 149.955 58.6547 149.189C60.829 149.02 63.0016 148.847 65.0837 148.672C73.2808 147.984 80.0755 147.352 80.0755 147.352C80.1941 147.342 80.2829 147.239 80.2735 147.12C80.2645 147.001 80.1608 146.913 80.0422 146.922Z" fill="black"/>
  <path fill-rule="evenodd" clip-rule="evenodd" d="M110.67 143.362L110.971 141.55C110.992 141.429 111.07 141.326 111.181 141.274C111.291 141.222 111.42 141.226 111.527 141.287L115.179 143.335L122.124 143.39C122.309 143.391 122.467 143.522 122.503 143.703C122.539 143.885 122.443 144.066 122.273 144.138L118.988 145.527L123.78 149.135C123.92 149.24 123.969 149.427 123.898 149.587C123.828 149.747 123.657 149.838 123.485 149.806L115.371 148.245L110.848 150.465C110.758 150.512 110.649 150.502 110.567 150.442C110.486 150.381 110.446 150.279 110.465 150.179L111.107 146.987C111.129 146.87 111.242 146.793 111.358 146.814C111.475 146.836 111.553 146.949 111.531 147.066L111.08 149.741L115.172 147.595C115.238 147.561 115.313 147.55 115.386 147.564L122.047 148.779L117.987 145.742C117.876 145.659 117.818 145.523 117.835 145.385C117.851 145.248 117.94 145.13 118.068 145.076L120.242 144.153L115.073 144.11C115.007 144.11 114.943 144.092 114.886 144.06L111.617 142.203L111.327 143.798C111.296 143.978 111.134 144.106 110.952 144.095L105.803 143.727L106.948 144.265C107.063 144.316 107.114 144.452 107.062 144.567C107.01 144.682 106.875 144.734 106.76 144.682L104.248 143.599C104.129 143.545 104.065 143.413 104.096 143.285C104.127 143.158 104.245 143.07 104.376 143.078L110.67 143.362Z" fill="black"/>
  <path fill-rule="evenodd" clip-rule="evenodd" d="M81.9167 147.313L113.338 145.121C113.421 145.116 113.485 145.044 113.479 144.96C113.474 144.876 113.402 144.813 113.318 144.818L81.8783 146.725C81.7158 146.735 81.5929 146.876 81.6031 147.038C81.6138 147.2 81.7542 147.323 81.9167 147.313Z" fill="black"/>
  <path fill-rule="evenodd" clip-rule="evenodd" d="M37.6696 151.503C37.9537 151.753 38.1338 152.207 38.1581 152.691C38.1807 153.147 38.0745 153.627 37.7813 154.007C37.7272 154.07 37.7348 154.166 37.7984 154.22C37.8624 154.275 37.9584 154.267 38.0126 154.203C38.4013 153.787 38.5805 153.231 38.6044 152.69C38.6325 152.051 38.4213 151.442 38.0787 151.079C37.9618 150.966 37.7749 150.97 37.6619 151.087C37.5492 151.204 37.5527 151.39 37.6696 151.503Z" fill="black"/>
  <path fill-rule="evenodd" clip-rule="evenodd" d="M57.3318 149.363C57.6463 149.644 58.0281 150.22 58.1062 150.887C58.1668 151.409 58.0456 151.984 57.5712 152.52C57.5132 152.58 57.5153 152.677 57.5759 152.734C57.6365 152.792 57.7329 152.79 57.7905 152.73C58.3955 152.141 58.5773 151.471 58.5512 150.852C58.5167 150.036 58.0968 149.308 57.741 148.939C57.6241 148.826 57.4372 148.829 57.3241 148.946C57.2115 149.063 57.2145 149.25 57.3318 149.363Z" fill="black"/>
  <path fill-rule="evenodd" clip-rule="evenodd" d="M105.316 145.671C105.629 145.789 105.73 146.107 105.745 146.433C105.765 146.865 105.647 147.322 105.522 147.531C105.474 147.6 105.492 147.694 105.561 147.742C105.63 147.789 105.725 147.771 105.772 147.702C105.982 147.43 106.23 146.752 106.191 146.159C106.161 145.721 105.964 145.343 105.554 145.132C105.406 145.066 105.232 145.133 105.165 145.282C105.1 145.431 105.167 145.605 105.316 145.671Z" fill="black"/>
  <path fill-rule="evenodd" clip-rule="evenodd" d="M80.5249 41.1246C77.5647 36.3924 72.6333 31.1179 66.9578 28.4739C63.0653 26.6606 58.8255 26.085 54.628 27.7072C51.7868 28.811 49.3603 31.2122 47.4864 34.6281C45.4521 38.3376 44.0646 43.2498 43.4796 48.9586C42.4198 59.2967 43.9933 72.2623 49.0787 85.4258C53.7691 97.5461 60.0633 108.867 66.9548 116.433C73.761 123.904 81.1683 127.707 88.1734 125.221C92.7869 123.568 95.4506 119.208 96.9085 114.157C99.6498 104.661 98.1672 92.7691 98.1672 92.7691C98.1522 92.6437 98.0383 92.5541 97.9133 92.569C97.7879 92.5835 97.6978 92.6975 97.7128 92.8229C97.7128 92.8229 99.0235 104.593 96.2169 113.954C94.7837 118.734 92.2856 122.897 87.8939 124.43C84.2182 125.724 80.4409 125.169 76.7067 123.23C73.6176 121.625 70.5606 119.079 67.6119 115.835C60.7916 108.331 54.5635 97.1109 49.9214 85.0998C44.8838 72.0878 43.3213 59.2711 44.3517 49.0473C44.914 43.467 46.2491 38.6631 48.2211 35.0292C49.9773 31.7934 52.2331 29.4894 54.9113 28.4299C58.9023 26.8436 62.9497 27.3821 66.683 29.0721C72.2903 31.6103 77.1944 36.7393 80.161 41.3554C80.225 41.4557 80.3581 41.4855 80.4584 41.4219C80.5591 41.3584 80.5889 41.2248 80.5249 41.1246Z" fill="black"/>
  <path fill-rule="evenodd" clip-rule="evenodd" d="M72.581 48.4863C71.2417 45.9834 69.3272 43.9905 67.3283 42.8999C65.5725 41.9421 63.7485 41.6831 62.1669 42.3248C60.9833 42.8061 59.8428 43.9205 58.9025 45.6353C57.6165 47.9802 56.6876 51.4657 56.4862 55.929C56.2226 61.7586 57.2065 69.2713 60.2093 78.1029C63.2903 87.1256 66.8683 94.2407 70.3785 99.3057C73.0507 103.161 75.6871 105.839 78.0295 107.284C79.7942 108.372 81.4078 108.767 82.7565 108.495C84.8869 108.058 86.2275 106.263 87.0236 104.066C88.447 100.139 88.1607 94.9759 88.1607 94.9759C88.1551 94.85 88.0485 94.7519 87.9222 94.7574C87.7959 94.763 87.6982 94.8701 87.7037 94.9959C87.7037 94.9959 87.8659 100.034 86.3981 103.833C85.654 105.759 84.4969 107.377 82.6068 107.728C81.4177 107.953 80.0173 107.541 78.4728 106.571C76.2157 105.154 73.6839 102.544 71.1051 98.8035C67.6436 93.7829 64.1052 86.7425 61.0639 77.8115C58.0897 69.1126 57.1198 61.7121 57.3498 55.9662C57.5226 51.6551 58.3725 48.284 59.5851 46.0044C60.4073 44.4577 61.3835 43.4192 62.4361 42.9699C63.8356 42.3704 65.462 42.6094 67.0454 43.4311C68.9876 44.4389 70.8623 46.3179 72.2029 48.6936C72.2605 48.7982 72.3915 48.8361 72.4956 48.779C72.6002 48.7214 72.6381 48.5904 72.581 48.4863Z" fill="black"/>
  <path fill-rule="evenodd" clip-rule="evenodd" d="M79.6637 61.2994C79.8143 61.6723 79.9649 62.0529 80.1227 62.4408C80.2746 62.8124 80.4287 63.1913 80.5899 63.577C80.7295 63.9106 80.875 64.2486 81.0209 64.5937C81.3413 65.3523 81.6686 66.1442 81.9945 66.9767C82.4169 68.0549 82.8287 69.2047 83.2464 70.4318C83.3249 70.6614 83.4051 70.893 83.487 71.1269C83.6722 71.6546 83.8646 72.1927 84.0489 72.7512C84.066 72.8118 84.1292 72.8472 84.1902 72.8301C84.2508 72.8135 84.2862 72.7503 84.2695 72.6893C84.1364 72.1137 84.0041 71.5544 83.8561 71.0121C83.7908 70.771 83.7221 70.5342 83.65 70.3008C83.2651 69.0537 82.8398 67.8983 82.4157 66.812C82.0884 65.974 81.756 65.1787 81.4224 64.4205C81.2709 64.0762 81.1203 63.7387 80.9654 63.4102C80.7866 63.0309 80.6045 62.6635 80.4231 62.3042C80.2345 61.9296 80.0442 61.567 79.8595 61.2094C79.8347 61.1557 79.7707 61.1318 79.7166 61.1565C79.6624 61.1813 79.6389 61.2453 79.6637 61.2994Z" fill="black"/>
  <path fill-rule="evenodd" clip-rule="evenodd" d="M57.1259 115.323C57.8196 115.029 58.8722 114.646 59.9743 114.266C62.2049 113.499 64.6339 112.743 64.6339 112.743C64.7538 112.703 64.8831 112.768 64.9228 112.888C64.962 113.008 64.8967 113.137 64.7768 113.177C64.7768 113.177 62.3811 114.01 60.1799 114.838C58.981 115.29 57.8401 115.739 57.1847 116.054L56.7867 115.979C55.3454 114.494 53.9796 112.934 52.703 111.299C51.8535 110.212 51.0441 109.091 50.2702 107.948C45.6989 101.191 42.3598 93.5914 40.1616 86.1248C38.0423 78.9231 36.9774 71.8408 36.9185 65.7463C36.8997 63.7943 36.988 61.943 37.1758 60.2227C37.5235 57.0351 38.216 54.295 39.2118 52.1749C39.246 52.0998 39.3117 52.0439 39.391 52.0222C40.133 51.8289 41.058 51.5951 41.9165 51.3881C42.5526 51.2354 43.1521 51.0971 43.6129 51.0016C43.7289 50.976 43.8441 51.0489 43.8702 51.1654C43.8958 51.2815 43.8224 51.3967 43.7063 51.4223C43.2524 51.5302 42.6623 51.6847 42.0359 51.8545C41.2359 52.0717 40.3775 52.3144 39.6679 52.5205C38.777 54.5933 38.2032 57.2411 37.931 60.2974C37.7799 61.9934 37.724 63.8144 37.7599 65.7344C37.8721 71.7581 38.9281 78.752 41.0281 85.8696C43.2059 93.2514 46.4993 100.762 50.9853 107.466C51.7435 108.599 52.5362 109.709 53.3584 110.795C54.5458 112.363 55.7964 113.88 57.1259 115.323Z" fill="black"/>
  <path fill-rule="evenodd" clip-rule="evenodd" d="M56.4855 114.901C53.312 116.256 43.4359 119.617 34.1021 122.246C28.174 123.917 22.4678 125.302 18.8335 125.628C18.1632 125.689 17.2983 125.31 16.3033 124.596C14.0655 122.991 11.293 119.686 8.82428 115.108C5.77831 109.459 3.2038 101.877 2.6918 93.1241C2.14524 83.8723 2.61884 76.6659 3.57415 71.2963C4.53756 65.8836 5.98268 62.3568 7.37745 60.508C7.767 59.9917 8.14801 59.612 8.51239 59.3701C8.81233 59.1708 9.0918 59.0672 9.34865 59.0812C11.2934 59.1802 17.5654 58.7617 24.2666 57.5815C29.39 56.6791 34.7622 55.3278 38.644 53.4663C38.7584 53.4125 38.8074 53.276 38.7537 53.1617C38.6999 53.0477 38.5638 52.9982 38.4495 53.052C35.316 54.4916 31.22 55.5736 27.0779 56.3719C24.0426 56.9573 20.9821 57.3869 18.2545 57.6886C14.1021 58.1477 10.7242 58.3085 9.39644 58.2288C8.75431 58.1921 7.97948 58.5449 7.18887 59.3927C5.93319 60.7393 4.55676 63.3944 3.48625 67.5254C2.02577 73.1595 1.11441 81.5768 1.78983 93.177C2.3142 102.079 4.93393 109.79 8.03708 115.533C10.5915 120.259 13.4784 123.656 15.7935 125.308C17.0103 126.178 18.0953 126.569 18.9137 126.492C22.5821 126.14 28.346 124.738 34.3159 122.99C43.6505 120.257 53.495 116.702 56.6575 115.296C56.7667 115.248 56.8166 115.121 56.7692 115.012C56.7215 114.903 56.5943 114.853 56.4855 114.901Z" fill="black"/>
  <path fill-rule="evenodd" clip-rule="evenodd" d="M92.9201 60.8361C90.4514 56.2046 86.544 50.7949 82.8696 51.6184C79.1951 52.4419 78.2219 66.3806 73.8865 66.1771C69.5512 65.9736 70.262 46.5765 79.1243 43.0582C87.987 39.5403 93.4927 49.7475 93.4927 49.7475C89.808 41.4774 76.0595 30.358 77.9343 28.2068C85.497 19.5309 97.3831 35.3116 101.292 46.2548C105.201 57.1975 106.143 64.3796 106.143 64.3796C106.143 64.3796 113.963 71.4055 121.951 73.0366C129.939 74.6678 143.211 75.8292 149.304 82.2915C155.396 88.7542 157.785 100.135 151.992 109.219C152.291 112.742 152.074 114.822 156.607 116.004C155.95 116.984 155.233 117.734 155.233 117.734C155.233 117.734 156.937 117.89 157.917 117.702C157.283 120.182 154.928 125.075 148.383 123.98C148.148 125.16 148.263 126.082 145.189 126.204C142.114 126.325 134.504 127.011 131.08 126.704C130.141 127.485 122.212 129.29 119.311 126.597C116.147 126.356 111.559 126.604 112.43 124.563C114.617 119.445 119.135 105.722 111.146 96.4393C102.768 86.7058 87.1064 93.791 81.8225 89.6126C78.8137 87.2331 80.9231 81.023 83.9588 75.5053C87.5791 68.9244 91.7131 66.1532 91.7131 66.1532C91.1661 65.7808 90.617 65.6579 90.134 65.4876C90.8777 64.9027 91.8573 64.354 92.8216 63.9504C91.9478 62.9468 90.9348 62.6102 90.0218 62.2791C90.0218 62.2791 91.7779 61.1928 92.9201 60.8361Z" fill="white"/>
  <path fill-rule="evenodd" clip-rule="evenodd" d="M96.985 60.4451C96.49 58.3869 95.8287 55.5824 94.5078 52.2809C94.4625 52.1708 94.5154 52.0449 94.6255 51.9997C94.736 51.9549 94.8619 52.0078 94.9067 52.1179C96.3684 55.6311 97.0724 58.5874 97.61 60.6785C99.0304 61.3113 99.8535 62.4236 100.023 63.2069C100.153 63.8073 99.9414 64.2484 99.472 64.3846C98.8474 64.5659 98.3943 64.3504 98.0265 63.7458C97.7278 63.2543 97.485 62.462 97.2205 61.4098L97.1723 61.2153C96.7281 61.0455 96.2234 60.9281 95.6623 60.8914C94.3648 60.8065 92.7738 61.1547 90.9229 62.2516C91.4055 62.3937 91.7988 62.5721 92.1163 62.7547C92.9816 63.2522 93.3016 63.7928 93.3016 63.7928C93.3745 63.9118 93.3788 64.0607 93.3135 64.184C93.2482 64.3073 93.1224 64.3867 92.9828 64.3931C92.9828 64.3931 92.3864 64.4345 91.5736 64.9166C91.3602 65.0433 91.1328 65.2003 90.8981 65.3932L90.9801 65.4192C91.4643 65.5771 91.8159 65.7699 91.8159 65.7699C91.9392 65.8378 92.0203 65.9636 92.0305 66.1044C92.0408 66.2448 91.9789 66.3814 91.8667 66.4663C88.985 68.6619 86.4386 72.1896 84.4934 75.7565C82.0354 80.2642 80.5293 84.8364 80.6253 86.8878C80.6731 87.9267 81.3954 88.8407 82.4006 89.525C83.3201 90.1505 84.4819 90.581 85.6536 90.7248C86.8708 90.8754 89.6676 90.5388 93.04 90.4607C95.3803 90.4065 97.9923 90.4739 100.549 90.878C103.958 91.4164 107.266 92.5586 109.717 94.802C109.811 94.8857 109.819 95.0307 109.735 95.1246C109.651 95.2189 109.506 95.2274 109.412 95.1434C106.986 93.0365 103.753 92.0355 100.445 91.588C97.9258 91.2475 95.3619 91.2351 93.0648 91.3145C89.6327 91.4335 86.7864 91.7544 85.5465 91.6063C83.9473 91.4135 82.3661 90.7402 81.2661 89.7806C80.3578 88.9883 79.7771 88.0001 79.7272 86.9296C79.629 84.7942 81.1428 80.0146 83.7144 75.3298C85.6032 71.8888 88.0578 68.4989 90.8141 66.2363C90.7838 66.2252 90.7527 66.2145 90.7207 66.2039C90.5039 66.1313 90.2539 66.0656 90.0013 66.0404C89.8443 66.0251 89.7103 65.9218 89.6557 65.7742C89.6011 65.6261 89.6361 65.4606 89.7453 65.3471C90.2428 64.8355 90.73 64.4759 91.1657 64.2224C91.5599 63.9933 91.9145 63.8491 92.2012 63.7582C92.0181 63.6063 91.7698 63.4344 91.4443 63.2748C91.0441 63.0781 90.5333 62.9006 89.8916 62.7961C89.7385 62.7718 89.6156 62.6566 89.5823 62.5047C89.5486 62.3532 89.6113 62.1966 89.7402 62.1104C92.7938 60.0863 95.2506 59.9156 96.985 60.4451ZM97.8345 61.5297C97.9079 61.7998 97.98 62.0498 98.0521 62.279C98.2052 62.7662 98.3567 63.1553 98.5312 63.4344C98.733 63.7569 98.9639 63.9016 99.2984 63.7996C99.3871 63.7727 99.4268 63.6972 99.437 63.6037C99.452 63.474 99.4195 63.3187 99.3551 63.1489C99.1524 62.6186 98.6332 61.9905 97.8345 61.5297Z" fill="black"/>
  <path fill-rule="evenodd" clip-rule="evenodd" d="M111.129 96.8875C112.223 98.4512 113.696 100.994 114.602 104.247C115.255 106.589 115.618 109.301 115.303 112.29C115.075 114.642 114.67 116.622 114.233 118.276C113.492 121.077 112.64 122.951 112.293 124.101C112.151 124.568 112.092 124.936 112.122 125.21C112.153 125.481 112.256 125.689 112.431 125.843C112.579 125.972 112.803 126.094 113.094 126.187C113.467 126.307 113.961 126.396 114.508 126.454C116.454 126.661 119.095 126.526 119.095 126.526C119.221 126.523 119.322 126.419 119.319 126.293C119.317 126.167 119.213 126.066 119.087 126.069C119.087 126.069 117.027 126.032 115.237 125.804C114.59 125.722 113.981 125.614 113.524 125.471C113.289 125.398 113.101 125.322 112.994 125.222C112.972 125.201 112.973 125.168 112.969 125.133C112.964 125.083 112.967 125.027 112.974 124.964C112.999 124.737 113.084 124.454 113.203 124.108C113.638 122.839 114.545 120.82 115.273 117.835C115.652 116.283 115.977 114.471 116.171 112.372C116.431 109.266 116.012 106.46 115.27 104.05C114.254 100.748 112.649 98.1982 111.478 96.6349C111.408 96.5385 111.273 96.5167 111.177 96.5867C111.081 96.6562 111.059 96.7911 111.129 96.8875Z" fill="black"/>
  <path fill-rule="evenodd" clip-rule="evenodd" d="M107.295 65.7102C109.043 67.2086 112.175 69.4691 116.161 71.3354C119.12 72.7207 122.549 73.8864 126.229 74.3677C132.168 75.1374 139.814 76.3619 145.81 80.1196C149.486 82.4227 152.542 85.6829 154.169 90.4103C155.546 94.3899 155.363 98.2286 154.484 101.736C153.395 106.078 151.239 109.918 149.593 112.899C148.439 114.989 147.539 116.679 147.363 117.841C147.183 119.037 147.169 120.03 147.233 120.874C147.318 121.981 147.537 122.828 147.686 123.539C147.81 124.129 147.894 124.611 147.746 125.081C147.727 125.144 147.655 125.187 147.568 125.241C147.41 125.341 147.197 125.431 146.937 125.516C145.833 125.879 143.975 126.126 141.861 126.273C138.615 126.499 134.774 126.485 132.097 126.242C131.972 126.229 131.86 126.321 131.847 126.447C131.834 126.572 131.925 126.684 132.051 126.697C135.213 127.055 140.001 127.136 143.546 126.841C145.249 126.699 146.671 126.464 147.508 126.142C148.084 125.921 148.411 125.617 148.507 125.327C148.684 124.794 148.655 124.246 148.539 123.599C148.383 122.729 148.068 121.656 148.057 120.103C148.053 119.477 148.097 118.773 148.221 117.972C148.39 116.876 149.275 115.298 150.368 113.328C152.053 110.294 154.248 106.38 155.357 101.955C156.276 98.2896 156.451 94.2768 155.009 90.1198C153.292 85.1926 150.103 81.7891 146.253 79.4092C140.136 75.6272 132.353 74.4415 126.312 73.7102C122.692 73.2758 119.313 72.1631 116.392 70.8349C112.436 69.036 109.317 66.8408 107.573 65.3816C107.483 65.3044 107.347 65.3159 107.27 65.4068C107.193 65.4973 107.204 65.6334 107.295 65.7102Z" fill="black"/>
  <path fill-rule="evenodd" clip-rule="evenodd" d="M119.145 102.063C120.262 105.089 120.698 108.33 120.737 111.536C120.803 116.782 119.796 121.936 118.873 125.905C118.761 126.395 118.951 126.833 119.421 127.19C120.151 127.746 121.713 128.109 123.471 128.247C125.639 128.419 128.104 128.273 129.565 127.878C130.041 127.75 130.418 127.59 130.668 127.415C130.922 127.237 131.066 127.029 131.121 126.821C131.259 126.299 131.351 124.98 131.315 123.092C131.273 120.922 131.084 117.979 130.619 114.635C130.459 113.482 130.264 112.282 130.03 111.049C129.527 108.406 128.846 105.619 127.984 102.83C127.949 102.708 127.822 102.638 127.701 102.673C127.58 102.708 127.509 102.835 127.545 102.956C128.294 105.755 128.842 108.547 129.262 111.183C129.458 112.41 129.626 113.603 129.769 114.748C130.185 118.058 130.381 120.964 130.417 123.108C130.446 124.872 130.38 126.105 130.252 126.592C130.249 126.606 130.232 126.614 130.219 126.627C130.177 126.665 130.124 126.701 130.062 126.737C129.877 126.842 129.628 126.932 129.331 127.013C127.943 127.392 125.6 127.523 123.539 127.369C122.232 127.272 121.039 127.065 120.292 126.713C120.087 126.617 119.921 126.513 119.807 126.392C119.724 126.303 119.675 126.205 119.7 126.091C120.573 122.06 121.523 116.83 121.363 111.523C121.265 108.259 120.746 104.969 119.548 101.91C119.506 101.798 119.381 101.742 119.27 101.785C119.159 101.827 119.103 101.952 119.145 102.063Z" fill="black"/>
  <path fill-rule="evenodd" clip-rule="evenodd" d="M155.84 116.275C155.435 116.206 154.957 116.072 154.471 115.853C154.063 115.669 153.65 115.43 153.275 115.127C152.412 114.431 151.732 113.43 151.719 112.083C151.712 111.957 151.809 111.849 151.934 111.842C152.061 111.834 152.169 111.931 152.176 112.057C152.273 112.954 152.708 113.627 153.264 114.137C153.725 114.559 154.277 114.855 154.806 115.068C155.492 115.343 156.14 115.47 156.509 115.444C156.658 115.435 156.801 115.502 156.891 115.621C156.981 115.741 157.004 115.897 156.953 116.038C156.836 116.369 156.642 116.701 156.427 117C156.355 117.1 156.281 117.196 156.207 117.287C156.385 117.268 156.573 117.244 156.759 117.215C157.137 117.154 157.511 117.075 157.786 116.957C157.938 116.892 158.113 116.916 158.241 117.02C158.37 117.125 158.429 117.292 158.396 117.454C158.203 118.35 157.946 119.138 157.628 119.825C157.017 121.146 156.21 122.107 155.329 122.792C153.238 124.418 150.739 124.491 149.416 124.192C149.3 124.168 149.224 124.054 149.247 123.938C149.271 123.822 149.385 123.746 149.501 123.769C150.73 123.984 153.015 123.806 154.873 122.23C155.527 121.676 156.123 120.945 156.609 119.997C156.906 119.418 157.162 118.76 157.359 118.009C157.21 118.042 157.056 118.071 156.901 118.096C156.01 118.241 155.094 118.268 155.094 118.268C154.904 118.273 154.732 118.158 154.663 117.981C154.594 117.804 154.643 117.602 154.787 117.478C154.787 117.478 155.185 117.132 155.565 116.653C155.66 116.534 155.754 116.407 155.84 116.275Z" fill="black"/>
  <path fill-rule="evenodd" clip-rule="evenodd" d="M106.908 68.5686C106.795 65.6732 106.41 62.5526 105.756 59.3637C105.492 58.0799 105.182 56.7862 104.833 55.4921C103.077 48.9884 100.375 42.4656 97.2206 37.1536C94.5804 32.7064 91.6014 29.1126 88.5525 27.074C85.6405 25.1271 82.6551 24.5818 79.8062 25.9647C78.4067 26.6448 77.7283 27.4687 77.5526 28.386C77.3768 29.3042 77.7134 30.358 78.4661 31.5331C79.7431 33.5273 82.2186 35.9474 84.939 38.8163C86.5074 40.47 88.1599 42.2736 89.6981 44.2443C91.1521 46.1076 92.5098 48.1155 93.5969 50.2868C93.652 50.4003 93.7885 50.4481 93.9024 50.393C94.0159 50.338 94.0637 50.201 94.0087 50.0875C92.9638 47.8548 91.6471 45.7752 90.2156 43.8497C88.709 41.8239 87.0809 39.9653 85.5201 38.2727C82.8838 35.4136 80.4479 33.0328 79.2021 31.0646C78.603 30.1178 78.2749 29.2897 78.4178 28.5528C78.5535 27.8544 79.1261 27.2801 80.1936 26.7642C82.7575 25.5243 85.4339 26.07 88.0515 27.8232C91.0075 29.8025 93.8785 33.3037 96.4454 37.6148C99.5681 42.8598 102.21 49.3097 104.011 55.7187C104.37 56.9948 104.698 58.2689 104.994 59.5314C105.73 62.6682 106.258 65.7334 106.477 68.5934C106.484 68.712 106.586 68.8028 106.705 68.796C106.824 68.7892 106.914 68.6872 106.908 68.5686Z" fill="black"/>
  <path fill-rule="evenodd" clip-rule="evenodd" d="M90.8561 41.9132C88.9305 39.3566 87.2085 37.4759 86.3338 36.2646C86.077 35.9092 85.8948 35.616 85.8108 35.3814C85.7476 35.2039 85.7416 35.0746 85.8773 35.0072C86.1226 34.8847 86.4435 34.8886 86.8245 34.994C87.2435 35.1096 87.7273 35.3502 88.2624 35.7095C90.2097 37.0172 92.7902 39.881 95.293 44.2104C97.0841 47.308 98.8181 51.1582 100.279 55.7193C100.77 57.2532 101.236 58.8651 101.658 60.5586C101.923 61.6188 102.175 62.7094 102.405 63.8324C102.417 63.8942 102.477 63.9352 102.539 63.9232C102.601 63.9113 102.641 63.8516 102.63 63.7893C102.43 62.6565 102.213 61.554 101.972 60.4839C101.588 58.7721 101.156 57.1405 100.679 55.5934C99.2576 50.9816 97.4878 47.1062 95.6847 43.9838C93.1383 39.5755 90.4904 36.6738 88.5034 35.3494C87.921 34.9615 87.392 34.7072 86.9359 34.5848C86.4337 34.45 86.0121 34.4739 85.6909 34.6381C85.4191 34.7776 85.3162 34.9991 85.373 35.311C85.4255 35.6003 85.649 35.9979 86.022 36.4946C86.4623 37.0816 87.1112 37.8236 87.8937 38.7226C88.7078 39.6583 89.6687 40.7629 90.6854 42.0451C90.7217 42.092 90.7895 42.1005 90.8365 42.0643C90.8834 42.028 90.8923 41.9602 90.8561 41.9132Z" fill="black"/>
  <path fill-rule="evenodd" clip-rule="evenodd" d="M90.0032 46.1295C88.1403 44.221 84.7219 42.1645 81.2228 42.3868C78.519 42.5587 75.7572 44.073 73.6153 48.0529C71.4606 52.0794 70.5139 56.2812 70.5083 59.6335C70.5041 62.0438 70.9943 64.0231 71.8336 65.2211C72.4386 66.0851 73.2266 66.5673 74.1469 66.5954C75.3617 66.633 76.3562 65.6717 77.1596 64.1127C78.4768 61.5574 79.3817 57.379 80.6758 54.586C81.0696 53.7361 81.495 53.0189 81.9921 52.5393C82.3628 52.1818 82.7699 51.9616 83.2392 51.9578C84.974 51.9313 86.56 52.8926 87.9257 54.1581C90.8083 56.8286 92.7048 60.896 92.7048 60.896C92.756 61.0116 92.8913 61.0637 93.0065 61.0125C93.1221 60.9613 93.1741 60.826 93.1229 60.7104C93.1229 60.7104 91.319 56.4553 88.4335 53.6248C87.5716 52.7795 86.6124 52.0619 85.5808 51.6113C84.8345 51.2858 84.049 51.1032 83.2354 51.101C82.016 51.1023 81.0205 52.0435 80.2112 53.5428C78.8369 56.0883 77.9195 60.2675 76.663 63.0695C76.2773 63.9296 75.8643 64.6558 75.3826 65.1384C75.0233 65.4989 74.6299 65.7165 74.1734 65.7033C73.3243 65.6785 72.6703 65.0637 72.1996 64.0879C71.6684 62.9871 71.3838 61.4409 71.3736 59.6318C71.3553 56.3887 72.2269 52.3162 74.2707 48.3994C76.2124 44.6575 78.7468 43.183 81.2655 42.982C84.6016 42.7158 87.8877 44.6426 89.6972 46.4333C89.7813 46.5174 89.9178 46.5178 90.0023 46.4342C90.0864 46.3501 90.0868 46.2136 90.0032 46.1295Z" fill="black"/>
  <path fill-rule="evenodd" clip-rule="evenodd" d="M94.1662 58.9879C93.2903 57.2897 92.4412 55.8088 91.6126 54.5292C90.5186 52.8396 89.4656 51.4956 88.4591 50.4515C86.1905 48.0989 84.1485 47.252 82.397 47.3437C80.9664 47.4184 79.7146 48.1224 78.6612 49.1899C77.292 50.5774 76.2573 52.5836 75.5947 54.5812C74.9108 56.6442 74.6232 58.6964 74.7563 60.0434C74.819 60.6792 74.9803 61.1656 75.2209 61.448C75.4675 61.7369 75.6962 61.7885 75.8784 61.7245C75.974 61.6908 76.0674 61.6204 76.1515 61.5065C76.2402 61.3853 76.3243 61.2053 76.402 60.974C76.5453 60.5482 76.6776 59.9334 76.8269 59.2059C76.9856 58.4319 77.1657 57.5282 77.4089 56.5908C77.6798 55.5447 78.0284 54.4562 78.5182 53.46C79.0149 52.4492 79.654 51.5319 80.5056 50.8547C80.5556 50.8163 80.5649 50.7442 80.5261 50.6943C80.4877 50.6444 80.4156 50.6354 80.3657 50.6738C79.3681 51.4248 78.627 52.4855 78.0647 53.655C77.4422 54.9495 77.036 56.3767 76.7343 57.6554C76.4834 58.7203 76.3068 59.6816 76.1267 60.3728C76.041 60.7031 75.9569 60.9689 75.8618 61.1485C75.8332 61.2027 75.8042 61.2479 75.773 61.2812C75.7594 61.2957 75.75 61.3111 75.7342 61.3119C75.7146 61.3128 75.6971 61.2974 75.6741 61.2803C75.6361 61.2526 75.5973 61.2134 75.555 61.1639C75.279 60.8383 75.165 60.183 75.1676 59.3399C75.1714 58.0744 75.4637 56.4031 76.0226 54.7233C76.6648 52.7922 77.6589 50.8492 78.9824 49.5065C79.9535 48.5217 81.1017 47.8617 82.4209 47.7896C84.0798 47.6983 85.9874 48.5367 88.1583 50.7442C89.161 51.764 90.2183 53.0721 91.3302 54.7161C92.1797 55.9726 93.0641 57.4211 93.9759 59.089C94.0037 59.1415 94.0689 59.1615 94.1214 59.1338C94.1739 59.1056 94.194 59.0403 94.1662 58.9879Z" fill="black"/>
  <path fill-rule="evenodd" clip-rule="evenodd" d="M88.4104 73.0822C86.5416 73.3599 89.7433 79.4425 91.5404 78.8042C93.3375 78.1659 90.0355 72.8407 88.4104 73.0822Z" fill="black"/>
  <path fill-rule="evenodd" clip-rule="evenodd" d="M93.5254 72.3608C91.8305 72.4381 94.2012 77.8958 95.8613 77.5051C97.5213 77.1144 94.9994 72.2936 93.5254 72.3608Z" fill="black"/>
  <path fill-rule="evenodd" clip-rule="evenodd" d="M100.114 84.903C98.8273 86.0089 102.601 87.4043 104.254 85.9719C105.563 84.838 101.635 83.5959 100.114 84.903Z" fill="black"/>
  <defs>
    <linearGradient id="paint0_linear" x1="58.453" y1="80.0753" x2="135.693" y2="51.6765" gradientUnits="userSpaceOnUse">
      <stop stop-color="#E4E6FF"/>
      <stop offset="0.45" stop-color="#FFEAFF"/>
      <stop offset="1" stop-color="white" stop-opacity="0"/>
    </linearGradient>
  </defs>
</svg>
