<svg width="548" height="207" viewBox="0 0 548 207" fill="none" xmlns="http://www.w3.org/2000/svg">
  <path d="M515.065 53.557C488.61 46.7717 445.712 54.7272 425.816 44.6621C406.45 34.8619 438.194 22.8245 421.525 13.591C396.79 -0.109574 283.612 2.3926 213.294 22.4222C192.148 28.4446 183.916 33.4784 160.001 35.7082C108.645 40.4942 78.098 23.6733 52.6947 26.8746C-4.49243 34.0818 -52.4823 144.938 119.39 189.42C199.666 210.193 315.581 213.303 403.613 194.741C562.698 161.197 574.428 68.7786 515.065 53.557Z" fill="#F3F5FB"/>
  <ellipse cx="275.498" cy="189.5" rx="117.785" ry="6.5" fill="#CED9F0"/>
  <path fill-rule="evenodd" clip-rule="evenodd" d="M349.275 17.957H161.347C156.587 17.957 152.721 21.3096 152.721 25.4188V149.943C152.721 154.031 156.587 157.37 161.347 157.37H230.258C227.05 178.034 208.384 190 208.384 190H302.238C284.84 181.012 279.429 168.212 278.473 157.37H349.275C354.021 157.37 357.908 154.031 357.908 149.943V25.4188C357.908 21.3096 354.021 17.957 349.275 17.957Z" fill="#6D8CD1"/>
  <path fill-rule="evenodd" clip-rule="evenodd" d="M161.727 147.152H348.907V28.1738H161.727V147.152Z" fill="#E7ECF7"/>
  <path fill-rule="evenodd" clip-rule="evenodd" d="M303.105 138H208.96C205.465 138 202.63 135.921 202.63 133.354V4.64619C202.63 2.08015 205.465 0 208.96 0H303.105C306.602 0 309.435 2.08015 309.435 4.64619V133.354C309.435 135.921 306.602 138 303.105 138Z" fill="#CED9F0"/>
  <path fill-rule="evenodd" clip-rule="evenodd" d="M273.545 45.3192C273.545 55.3125 265.485 63.4137 255.544 63.4137C245.602 63.4137 237.543 55.3125 237.543 45.3192C237.543 35.3258 245.602 27.2246 255.544 27.2246C265.485 27.2246 273.545 35.3258 273.545 45.3192Z" fill="#6D8CD1"/>
  <path fill-rule="evenodd" clip-rule="evenodd" d="M268.505 55.7929C268.762 54.5276 267.183 53.5346 266.009 53.0108C263.917 52.0779 259.515 52.0348 258.749 49.6187C257.882 46.8743 261.263 43.7071 260.649 40.8781C259.44 35.3021 251.694 35.0929 250.438 40.8772C249.824 43.7063 253.205 46.874 252.336 49.6187C251.572 52.0348 247.168 52.0779 245.078 53.0108C243.904 53.5346 242.325 54.5276 242.58 55.7929C242.58 55.7929 246.985 62.2823 255.845 62.2823C264.21 62.2823 268.505 55.7929 268.505 55.7929Z" fill="white"/>
  <path d="M221.718 129.266H289.368C292.147 129.266 294.397 127.003 294.397 124.211V116.375C294.397 113.584 292.147 111.32 289.368 111.32H221.718C218.941 111.32 216.689 113.584 216.689 116.375V124.211C216.689 127.003 218.941 129.266 221.718 129.266Z" fill="#9DB3E1"/>
  <path fill-rule="evenodd" clip-rule="evenodd" d="M237.566 120C237.566 121.105 238.462 122 239.566 122H284.477C285.582 122 286.477 121.105 286.477 120C286.477 118.895 285.582 118 284.477 118H239.566C238.462 118 237.566 118.895 237.566 120Z" fill="#CED9F0"/>
  <path fill-rule="evenodd" clip-rule="evenodd" d="M223.592 120C223.592 122.756 225.826 125 228.583 125C231.339 125 233.574 122.756 233.574 120C233.574 117.244 231.339 115 228.583 115C225.826 115 223.592 117.244 223.592 120Z" fill="#CED9F0"/>
  <path fill-rule="evenodd" clip-rule="evenodd" d="M273.283 100.272H238.782C237.475 100.272 236.415 99.207 236.415 97.893V81.3634C236.415 80.0495 237.475 78.9844 238.782 78.9844H273.283C274.589 78.9844 275.65 80.0495 275.65 81.3634V97.893C275.65 99.207 274.589 100.272 273.283 100.272Z" fill="white"/>
  <path fill-rule="evenodd" clip-rule="evenodd" d="M245.552 96C245.552 96.5523 245.999 97 246.552 97H264.515C265.068 97 265.515 96.5523 265.515 96C265.515 95.4477 265.068 95 264.515 95H246.552C245.999 95 245.552 95.4477 245.552 96Z" fill="#CED9F0"/>
  <path fill-rule="evenodd" clip-rule="evenodd" d="M250.543 87C250.543 89.7564 252.777 92 255.534 92C258.29 92 260.525 89.7564 260.525 87C260.525 84.2436 258.29 82 255.534 82C252.777 82 250.543 84.2436 250.543 87Z" fill="#CED9F0"/>
  <path fill-rule="evenodd" clip-rule="evenodd" d="M322.041 100.272H287.54C286.232 100.272 285.173 99.207 285.173 97.893V81.3634C285.173 80.0495 286.232 78.9844 287.54 78.9844H322.041C323.347 78.9844 324.407 80.0495 324.407 81.3634V97.893C324.407 99.207 323.347 100.272 322.041 100.272Z" fill="white"/>
  <path fill-rule="evenodd" clip-rule="evenodd" d="M294.463 96C294.463 96.5523 294.911 97 295.463 97H313.426C313.979 97 314.426 96.5523 314.426 96C314.426 95.4477 313.979 95 313.426 95H295.463C294.911 95 294.463 95.4477 294.463 96Z" fill="#CED9F0"/>
  <path fill-rule="evenodd" clip-rule="evenodd" d="M299.453 87C299.453 89.7564 301.688 92 304.444 92C307.2 92 309.435 89.7564 309.435 87C309.435 84.2436 307.2 82 304.444 82C301.688 82 299.453 84.2436 299.453 87Z" fill="#CED9F0"/>
  <path fill-rule="evenodd" clip-rule="evenodd" d="M224.525 100.272H190.024C188.717 100.272 187.657 99.207 187.657 97.893V81.3634C187.657 80.0495 188.717 78.9844 190.024 78.9844H224.525C225.833 78.9844 226.891 80.0495 226.891 81.3634V97.893C226.891 99.207 225.833 100.272 224.525 100.272Z" fill="white"/>
  <path fill-rule="evenodd" clip-rule="evenodd" d="M196.641 96C196.641 96.5523 197.088 97 197.641 97H215.604C216.156 97 216.604 96.5523 216.604 96C216.604 95.4477 216.156 95 215.604 95H197.641C197.088 95 196.641 95.4477 196.641 96Z" fill="#CED9F0"/>
  <path fill-rule="evenodd" clip-rule="evenodd" d="M201.632 87C201.632 89.7564 203.866 92 206.623 92C209.379 92 211.614 89.7564 211.614 87C211.614 84.2436 209.379 82 206.623 82C203.866 82 201.632 84.2436 201.632 87Z" fill="#CED9F0"/>
  <path d="M393.324 142.014C393.324 167.442 372.748 188.056 347.366 188.056C321.983 188.056 301.407 167.442 301.407 142.014C301.407 116.584 321.983 95.9707 347.366 95.9707C372.748 95.9707 393.324 116.584 393.324 142.014Z" fill="#E7ECF7"/>
  <path d="M347.365 190C320.946 190 299.453 168.468 299.453 142C299.453 115.532 320.946 94 347.365 94C373.783 94 395.276 115.532 395.276 142C395.276 168.468 373.783 190 347.365 190ZM347.365 97.9134C323.1 97.9134 303.359 117.691 303.359 142C303.359 166.308 323.1 186.087 347.365 186.087C371.629 186.087 391.369 166.308 391.369 142C391.369 117.691 371.629 97.9134 347.365 97.9134Z" fill="#B6C6E8"/>
  <path d="M338.04 161.707C337.54 161.707 337.04 161.516 336.659 161.134L319.855 144.301C319.093 143.536 319.093 142.298 319.855 141.533C320.619 140.769 321.855 140.769 322.617 141.533L338.04 156.983L372.107 122.854C372.87 122.09 374.107 122.09 374.869 122.854C375.632 123.618 375.632 124.857 374.869 125.622L339.421 161.134C339.039 161.516 338.54 161.707 338.04 161.707Z" fill="#6D8CD1"/>
</svg>
