<svg width="548" height="207" viewBox="0 0 548 207" fill="none" xmlns="http://www.w3.org/2000/svg">
<path d="M515.065 53.2857C488.61 46.4884 445.712 54.4579 425.816 44.375C406.45 34.5575 438.194 22.4988 421.525 13.249C396.79 -0.47578 283.612 2.03081 213.294 22.0958C192.148 28.1288 183.916 33.1715 160.001 35.4053C108.645 40.1998 78.098 23.3491 52.6947 26.5561C-4.49243 33.776 -52.4823 144.828 119.39 189.389C199.666 210.198 315.581 213.314 403.613 194.719C562.698 161.116 574.428 68.5341 515.065 53.2857Z" fill="#F3F5FB"/>
<ellipse cx="275.851" cy="190.274" rx="166.622" ry="6.51149" fill="#CED9F0"/>
<path fill-rule="evenodd" clip-rule="evenodd" d="M223.962 187.208C224.499 187.208 224.939 186.765 224.939 186.225V106.804C224.939 106.263 224.499 105.821 223.962 105.821H158.342C157.804 105.821 157.365 106.263 157.365 106.804V186.225C157.365 186.765 157.804 187.208 158.342 187.208H223.962Z" fill="#859FD9"/>
<path fill-rule="evenodd" clip-rule="evenodd" d="M220.543 147.293C221.057 147.293 221.477 146.87 221.477 146.354V133.996C221.477 133.479 221.057 133.056 220.543 133.056H162.285C161.771 133.056 161.351 133.479 161.351 133.996V146.354C161.351 146.87 161.771 147.293 162.285 147.293H220.543ZM220.543 165.347C221.057 165.347 221.477 164.924 221.477 164.407V152.049C221.477 151.533 221.057 151.11 220.543 151.11H162.285C161.771 151.11 161.351 151.533 161.351 152.049V164.407C161.351 164.924 161.771 165.347 162.285 165.347H220.543ZM220.543 183.401C221.057 183.401 221.477 182.978 221.477 182.461V170.103C221.477 169.586 221.057 169.163 220.543 169.163H162.285C161.771 169.163 161.351 169.586 161.351 170.103V182.461C161.351 182.978 161.771 183.401 162.285 183.401H220.543Z" fill="#CED9F0"/>
<path fill-rule="evenodd" clip-rule="evenodd" d="M164.346 144.891H173.207V135.974H164.346V144.891Z" fill="#9DB3E1"/>
<path fill-rule="evenodd" clip-rule="evenodd" d="M215.296 138.947H218.249V135.974H215.296V138.947Z" fill="#9DB3E1"/>
<path fill-rule="evenodd" clip-rule="evenodd" d="M176.16 144.891H177.637V135.974H176.16V144.891Z" fill="#E7ECF7"/>
<path fill-rule="evenodd" clip-rule="evenodd" d="M164.346 162.725H173.207V153.809H164.346V162.725Z" fill="#9DB3E1"/>
<path fill-rule="evenodd" clip-rule="evenodd" d="M176.16 162.725H177.637V153.809H176.16V162.725Z" fill="#E7ECF7"/>
<path fill-rule="evenodd" clip-rule="evenodd" d="M164.346 180.558H173.207V171.642H164.346V180.558Z" fill="#9DB3E1"/>
<path fill-rule="evenodd" clip-rule="evenodd" d="M176.16 180.558H177.637V171.642H176.16V180.558Z" fill="#E7ECF7"/>
<path fill-rule="evenodd" clip-rule="evenodd" d="M310.945 191.219C311.666 191.219 312.256 190.626 312.256 189.9V83.3997C312.256 82.6745 311.666 82.0811 310.945 82.0811H222.951C222.23 82.0811 221.64 82.6745 221.64 83.3997V189.9C221.64 190.626 222.23 191.219 222.951 191.219H310.945Z" fill="#6D8CD1"/>
<path fill-rule="evenodd" clip-rule="evenodd" d="M306.36 137.693C307.049 137.693 307.612 137.126 307.612 136.433V119.862C307.612 119.168 307.049 118.601 306.36 118.601H228.237C227.548 118.601 226.985 119.168 226.985 119.862V136.433C226.985 137.126 227.548 137.693 228.237 137.693H306.36ZM306.36 161.903C307.049 161.903 307.612 161.336 307.612 160.642V144.071C307.612 143.378 307.049 142.811 306.36 142.811H228.237C227.548 142.811 226.985 143.378 226.985 144.071V160.642C226.985 161.336 227.548 161.903 228.237 161.903H306.36ZM306.36 186.113C307.049 186.113 307.612 185.546 307.612 184.852V168.281C307.612 167.587 307.049 167.02 306.36 167.02H228.237C227.548 167.02 226.985 167.587 226.985 168.281V184.852C226.985 185.546 227.548 186.113 228.237 186.113H306.36Z" fill="#E7ECF7"/>
<path fill-rule="evenodd" clip-rule="evenodd" d="M231.002 134.476H242.884V122.519H231.002V134.476Z" fill="#B6C6E8"/>
<path fill-rule="evenodd" clip-rule="evenodd" d="M299.324 126.504H303.285V122.519H299.324V126.504Z" fill="#6D8CD1"/>
<path fill-rule="evenodd" clip-rule="evenodd" d="M246.845 134.476H248.825V122.519H246.845V134.476Z" fill="#F3F5FB"/>
<path fill-rule="evenodd" clip-rule="evenodd" d="M231.002 158.391H242.884V146.434H231.002V158.391Z" fill="#B6C6E8"/>
<path fill-rule="evenodd" clip-rule="evenodd" d="M246.845 158.391H248.825V146.434H246.845V158.391Z" fill="#F3F5FB"/>
<path fill-rule="evenodd" clip-rule="evenodd" d="M231.002 182.303H242.884V170.346H231.002V182.303Z" fill="#B6C6E8"/>
<path fill-rule="evenodd" clip-rule="evenodd" d="M246.845 182.303H248.825V170.346H246.845V182.303Z" fill="#F3F5FB"/>
<path fill-rule="evenodd" clip-rule="evenodd" d="M288.797 22.9265C286.043 22.9265 283.441 23.5727 281.13 24.7243C276.305 10.3638 262.369 0 245.928 0C227.306 0 211.898 13.3034 209.301 30.6661H199.409C187.461 30.6661 177.73 40.4848 177.73 52.508V52.5256C177.73 64.397 187.217 74.1536 198.958 74.3979V111.705H192.735L202.449 124.411L212.164 111.705H205.943V74.4026H309.193C317.714 74.4026 324.716 67.3619 324.716 58.7882V58.7849C324.716 50.2113 317.714 43.1936 309.193 43.1936H305.867C306.018 42.2046 306.097 41.309 306.097 40.3409C306.097 30.7265 298.352 22.9265 288.797 22.9265Z" fill="#CED9F0"/>
<path fill-rule="evenodd" clip-rule="evenodd" d="M285.813 116.913H292.799V60.8533H285.813V116.913Z" fill="#6D8CD1"/>
<path fill-rule="evenodd" clip-rule="evenodd" d="M279.591 65.7414H299.021L289.306 53.0369L279.591 65.7414Z" fill="#6D8CD1"/>
<g clip-path="url(#clip0)">
<path fill-rule="evenodd" clip-rule="evenodd" d="M299.008 170.521L331.323 114.393C333.737 110.201 338.251 107.378 343.426 107.378C348.6 107.378 353.114 110.201 355.528 114.393L387.843 170.521C389.028 172.579 389.709 174.965 389.709 177.512C389.709 185.248 383.455 191.52 375.74 191.52H343.426H311.111C303.396 191.52 297.142 185.248 297.142 177.512C297.142 174.965 297.823 172.579 299.008 170.521Z" fill="#B6C6E8"/>
<path fill-rule="evenodd" clip-rule="evenodd" d="M371.358 185.918C371.34 185.918 371.322 185.918 371.304 185.918H311.111C306.49 185.918 302.729 182.147 302.729 177.513C302.729 176.041 303.117 174.592 303.847 173.322L336.162 117.196C337.659 114.596 340.442 112.98 343.426 112.98C343.506 112.98 343.586 112.982 343.666 112.986L343.666 112.986C346.558 113.068 349.233 114.665 350.689 117.195L383.004 173.322C383.734 174.592 384.122 176.041 384.122 177.513C384.122 182.147 380.361 185.918 375.74 185.918H371.358Z" fill="#FFE799"/>
<path fill-rule="evenodd" clip-rule="evenodd" d="M343.426 161.638C340.854 161.638 338.769 159.546 338.769 156.968V131.755C338.769 129.175 340.854 127.085 343.426 127.085C345.998 127.085 348.082 129.175 348.082 131.755V156.968C348.082 159.546 345.998 161.638 343.426 161.638ZM343.434 176.578L343.426 176.578C340.854 176.578 338.769 174.488 338.769 171.909C338.769 169.329 340.854 167.239 343.426 167.239C345.998 167.239 348.082 169.329 348.082 171.908C348.082 174.485 346.002 176.573 343.434 176.578Z" fill="#6D8CD1"/>
</g>
<defs>
<clipPath id="clip0">
<rect width="92.5676" height="92.825" fill="white" transform="translate(297.142 103.036)"/>
</clipPath>
</defs>
</svg>
