<svg width="64" height="64" viewBox="0 0 64 64" fill="none" xmlns="http://www.w3.org/2000/svg">
<path fill-rule="evenodd" clip-rule="evenodd" d="M31.9999 59.1973C17.0015 59.1973 4.79994 46.9957 4.79994 31.9973C4.79994 16.9989 17.0015 4.79734 31.9999 4.79734C46.9983 4.79734 59.1999 16.9989 59.1999 31.9973C59.1999 46.9957 46.9983 59.1973 31.9999 59.1973ZM32 0C14.328 0 0 14.328 0 32C0 49.6736 14.328 64 32 64C49.6736 64 64 49.6736 64 32C64 14.328 49.6736 0 32 0Z" fill="#317D34"/>
<rect x="29" y="14" width="6" height="24" rx="1" fill="#317D34"/>
<rect x="29" y="43" width="6" height="6" rx="1" fill="#317D34"/>
</svg>
