<svg width="16" height="24" viewBox="0 0 16 24" fill="none" xmlns="http://www.w3.org/2000/svg">
<path fill-rule="evenodd" clip-rule="evenodd" d="M7.58267 5.99947C9.25749 5.99947 10.6146 4.65606 10.6146 2.99944C10.6146 1.34222 9.25749 0 7.58267 0C5.90846 0 4.55078 1.34222 4.55078 2.99944C4.55078 4.65606 5.90846 5.99947 7.58267 5.99947Z" fill="#859FD9"/>
<path fill-rule="evenodd" clip-rule="evenodd" d="M14.8591 12.402L10.0081 7.00315C9.7231 6.68454 9.30531 6.55434 8.91055 6.61674C8.87114 6.60654 6.29463 6.60654 6.25461 6.61674C5.85986 6.55434 5.44327 6.68454 5.15767 7.00315L0.306023 12.402C-0.13906 12.8976 -0.0929748 13.656 0.407289 14.0964C0.907552 14.5368 1.67402 14.4924 2.11971 13.9974L4.55129 11.2896V22.8001C4.55129 23.4631 5.094 24.0001 5.76344 24.0001C6.4341 24.0001 6.9762 23.4631 6.9762 22.8001V16.1994H8.18896V22.8001C8.18896 23.4631 8.73167 24.0001 9.40172 24.0001C10.0718 24.0001 10.6145 23.4631 10.6145 22.8001V11.2896L13.0461 13.9974C13.4918 14.4924 14.2576 14.5368 14.7585 14.0964C15.2587 13.656 15.3048 12.8976 14.8591 12.402Z" fill="#859FD9"/>
</svg>
