<svg width="18" height="19" viewBox="0 0 18 19" fill="none" xmlns="http://www.w3.org/2000/svg">
  <path d="M15.91 3.00004H12.53V1.42004C12.53 1.28744 12.4773 1.16026 12.3835 1.06649C12.2898 0.972722 12.1626 0.920044 12.03 0.920044C11.8982 0.922604 11.7725 0.976104 11.6793 1.06932C11.5861 1.16254 11.5326 1.28824 11.53 1.42004V3.00004H6.45V1.42004C6.45 1.28744 6.39732 1.16026 6.30355 1.06649C6.20978 0.972722 6.0826 0.920044 5.95 0.920044C5.81819 0.922604 5.69249 0.976104 5.59928 1.06932C5.50606 1.16254 5.45256 1.28824 5.45 1.42004V3.00004H2.09C1.55956 3.00004 1.05086 3.21076 0.675783 3.58583C0.30071 3.9609 0.0899963 4.46961 0.0899963 5.00004V17C0.0899963 17.5305 0.30071 18.0392 0.675783 18.4143C1.05086 18.7893 1.55956 19 2.09 19H15.91C16.4404 19 16.9491 18.7893 17.3242 18.4143C17.6993 18.0392 17.91 17.5305 17.91 17V5.00004C17.91 4.46961 17.6993 3.9609 17.3242 3.58583C16.9491 3.21076 16.4404 3.00004 15.91 3.00004V3.00004ZM2.09 4.00004H5.45V5.42004C5.45 5.55265 5.50267 5.67983 5.59644 5.7736C5.69021 5.86737 5.81739 5.92004 5.95 5.92004C6.0826 5.92004 6.20978 5.86737 6.30355 5.7736C6.39732 5.67983 6.45 5.55265 6.45 5.42004V4.00004H11.53V5.42004C11.53 5.55265 11.5827 5.67983 11.6764 5.7736C11.7702 5.86737 11.8974 5.92004 12.03 5.92004C12.1626 5.92004 12.2898 5.86737 12.3835 5.7736C12.4773 5.67983 12.53 5.55265 12.53 5.42004V4.00004H15.91C16.1752 4.00004 16.4296 4.1054 16.6171 4.29294C16.8046 4.48047 16.91 4.73483 16.91 5.00004V8.50004H1.09V5.00004C1.09 4.73483 1.19535 4.48047 1.38289 4.29294C1.57043 4.1054 1.82478 4.00004 2.09 4.00004V4.00004ZM15.91 18H2.09C1.82478 18 1.57043 17.8947 1.38289 17.7072C1.19535 17.5196 1.09 17.2653 1.09 17V9.50004H16.91V17C16.91 17.2653 16.8046 17.5196 16.6171 17.7072C16.4296 17.8947 16.1752 18 15.91 18Z" fill="#0B40B3"/>
</svg>
