<svg width="16" height="24" viewBox="0 0 16 24" fill="none" xmlns="http://www.w3.org/2000/svg">
<path d="M7.99966 6.32961C9.76664 6.32961 11.1984 4.91227 11.1984 3.16449C11.1984 1.41607 9.76664 0 7.99966 0C6.23268 0 4.80029 1.41607 4.80029 3.16449C4.80029 4.91227 6.23268 6.32961 7.99966 6.32961Z" fill="#859FD9"/>
<path d="M15.6771 13.0832L10.5592 7.38677C10.2317 7.02216 9.27975 6.96075 9.27975 6.96075L6.70419 7.00317C6.25766 6.89429 5.76762 7.02216 5.44136 7.38677L0.322855 13.0832C-0.146708 13.6054 -0.0980887 14.4062 0.429691 14.8702C0.95747 15.3354 1.76609 15.2879 2.2363 14.7657L4.75556 11.9609L2.24205 18.3561H4.80162V22.734C4.80162 23.4335 5.37419 24 6.08109 24C6.78799 24 7.36056 23.4335 7.36056 22.734V18.3561H8.64002V22.734C8.64002 23.4335 9.21258 24 9.91949 24C10.6258 24 11.199 23.4335 11.199 22.734V18.3561H13.7579L11.245 11.9609L13.7643 14.7657C14.2338 15.2879 15.0425 15.3354 15.5709 14.8702C16.098 14.4062 16.1466 13.6054 15.6771 13.0832Z" fill="#859FD9"/>
</svg>
