<svg xmlns="http://www.w3.org/2000/svg" width="140" height="33" viewBox="0 0 140 33" fill="none">
  <path d="M70.7681 18.0996C69.757 18.102 68.7694 18.4041 67.93 18.9678C67.0907 19.5315 66.4373 20.3314 66.0526 21.2664C65.6679 22.2014 65.5691 23.2295 65.7687 24.2207C65.9682 25.2118 66.4572 26.1216 67.1738 26.8348C67.8904 27.5481 68.8025 28.0328 69.7945 28.2277C70.7866 28.4226 71.8143 28.319 72.7474 27.9299C73.6806 27.5408 74.4775 26.8837 75.0372 26.0417C75.5969 25.1997 75.8944 24.2107 75.8921 23.1996C75.9019 22.5251 75.7758 21.8556 75.5215 21.2308C75.2671 20.6061 74.8897 20.0389 74.4116 19.563C73.9335 19.0872 73.3645 18.7124 72.7386 18.461C72.1126 18.2096 71.4425 18.0867 70.7681 18.0996ZM70.7681 26.2956C70.1484 26.339 69.53 26.1949 68.9932 25.8821C68.4565 25.5693 68.0263 25.1023 67.7585 24.5417C67.4907 23.9812 67.3977 23.3531 67.4917 22.739C67.5856 22.1249 67.8621 21.5533 68.2852 21.0985C68.7083 20.6436 69.2585 20.3266 69.8642 20.1885C70.4699 20.0505 71.1031 20.0979 71.6815 20.3245C72.2599 20.5511 72.7568 20.9465 73.1075 21.4593C73.4582 21.972 73.6466 22.5784 73.6481 23.1996C73.6674 23.5932 73.6077 23.9867 73.4725 24.3569C73.3374 24.7271 73.1295 25.0665 72.861 25.355C72.5926 25.6436 72.2691 25.8755 71.9097 26.037C71.5502 26.1985 71.1621 26.2865 70.7681 26.2956ZM59.5841 18.0996C58.573 18.102 57.5854 18.4041 56.746 18.9678C55.9067 19.5315 55.2533 20.3314 54.8686 21.2664C54.4839 22.2014 54.3851 23.2295 54.5847 24.2207C54.7842 25.2118 55.2732 26.1216 55.9898 26.8348C56.7064 27.5481 57.6185 28.0328 58.6106 28.2277C59.6026 28.4226 60.6303 28.319 61.5634 27.9299C62.4966 27.5408 63.2935 26.8837 63.8532 26.0417C64.4129 25.1997 64.7104 24.2107 64.7081 23.1996C64.7178 22.5251 64.5918 21.8556 64.3375 21.2308C64.0831 20.6061 63.7057 20.0389 63.2276 19.563C62.7495 19.0872 62.1805 18.7124 61.5546 18.461C60.9286 18.2096 60.2585 18.0867 59.5841 18.0996ZM59.5841 26.2956C58.9644 26.339 58.346 26.1949 57.8092 25.8821C57.2725 25.5693 56.8423 25.1023 56.5745 24.5417C56.3067 23.9812 56.2137 23.3531 56.3077 22.739C56.4016 22.1249 56.6781 21.5533 57.1012 21.0985C57.5243 20.6436 58.0745 20.3266 58.6802 20.1885C59.2859 20.0505 59.9191 20.0979 60.4975 20.3245C61.0759 20.5511 61.5728 20.9465 61.9235 21.4593C62.2742 21.972 62.4626 22.5784 62.4641 23.1996C62.4834 23.5932 62.4237 23.9867 62.2885 24.3569C62.1534 24.7271 61.9455 25.0665 61.677 25.355C61.4086 25.6436 61.0851 25.8755 60.7257 26.037C60.3662 26.1985 59.9781 26.2865 59.5841 26.2956ZM46.2881 19.6716V21.8316H51.4721C51.3908 22.849 50.9679 23.809 50.2721 24.5556C49.7521 25.0854 49.1266 25.5002 48.4362 25.773C47.7458 26.0459 47.0058 26.1708 46.2641 26.1396C44.7364 26.1396 43.2713 25.5328 42.1911 24.4526C41.1109 23.3723 40.5041 21.9073 40.5041 20.3796C40.5041 18.852 41.1109 17.3869 42.1911 16.3067C43.2713 15.2265 44.7364 14.6196 46.2641 14.6196C47.7286 14.5978 49.1427 15.154 50.2001 16.1676L51.7241 14.6436C51.0089 13.9362 50.1597 13.3787 49.2262 13.0037C48.2928 12.6286 47.2939 12.4437 46.2881 12.4596C45.2213 12.4181 44.1571 12.5924 43.1592 12.972C42.1614 13.3516 41.2504 13.9287 40.481 14.6688C39.7115 15.4089 39.0994 16.2967 38.6813 17.2791C38.2631 18.2614 38.0476 19.318 38.0476 20.3856C38.0476 21.4532 38.2631 22.5099 38.6813 23.4922C39.0994 24.4745 39.7115 25.3623 40.481 26.1024C41.2504 26.8425 42.1614 27.4196 43.1592 27.7993C44.1571 28.1789 45.2213 28.3531 46.2881 28.3116C47.3146 28.3526 48.3381 28.176 49.2916 27.7934C50.245 27.4108 51.1067 26.8308 51.8201 26.0916C53.0802 24.7073 53.7517 22.8866 53.6921 21.0156C53.6964 20.5653 53.6602 20.1155 53.5841 19.6716H46.2881ZM100.66 21.3516C100.347 20.4309 99.7619 19.627 98.9819 19.0462C98.2019 18.4655 97.2639 18.1354 96.2921 18.0996C95.6357 18.0983 94.986 18.2317 94.3832 18.4915C93.7803 18.7512 93.2372 19.1319 92.7873 19.6099C92.3374 20.0878 91.9904 20.653 91.7676 21.2705C91.5448 21.8879 91.451 22.5445 91.4921 23.1996C91.4818 24.295 91.8262 25.3644 92.4738 26.2479C93.1214 27.1315 94.0375 27.7818 95.0852 28.1018C96.1329 28.4218 97.256 28.3942 98.2867 28.0233C99.3175 27.6523 100.201 26.9578 100.804 26.0436L99.0641 24.8436C98.8047 25.276 98.4368 25.633 97.9968 25.8792C97.5569 26.1255 97.0602 26.2525 96.5561 26.2476C96.036 26.2691 95.5215 26.1327 95.0803 25.8565C94.6391 25.5802 94.2918 25.1769 94.0841 24.6996L100.912 21.8796L100.66 21.3516ZM93.7001 23.0556C93.6757 22.6829 93.726 22.309 93.848 21.956C93.97 21.6029 94.1611 21.2777 94.4104 20.9994C94.6596 20.7212 94.9618 20.4954 95.2993 20.3354C95.6368 20.1754 96.0029 20.0844 96.3761 20.0676C96.7627 20.044 97.1477 20.135 97.4829 20.3293C97.818 20.5235 98.0884 20.8124 98.2601 21.1596L93.7001 23.0556ZM88.1561 27.9996H90.4001V12.9996H88.1561V27.9996ZM84.4841 19.2396H84.4001C84.0648 18.8578 83.6511 18.553 83.1872 18.3459C82.7233 18.1388 82.2201 18.0343 81.7121 18.0396C80.4007 18.1032 79.164 18.6689 78.2584 19.6195C77.3528 20.5701 76.8477 21.8327 76.8477 23.1456C76.8477 24.4585 77.3528 25.7211 78.2584 26.6717C79.164 27.6223 80.4007 28.188 81.7121 28.2516C82.2208 28.2618 82.7256 28.1595 83.1902 27.9521C83.6549 27.7447 84.068 27.4372 84.4001 27.0516H84.4841V27.7836C84.4841 29.7396 83.4401 30.7836 81.7601 30.7836C81.1989 30.7713 80.654 30.5925 80.1946 30.2698C79.7352 29.9472 79.3821 29.4953 79.1801 28.9716L77.2361 29.7756C77.5955 30.6783 78.2204 31.4507 79.0281 31.9906C79.8359 32.5306 80.7885 32.8127 81.7601 32.7996C84.3881 32.7996 86.5601 31.2516 86.5601 27.4836V18.3996H84.4841V19.2396ZM81.9041 26.2956C81.1178 26.2466 80.3799 25.8997 79.8404 25.3256C79.301 24.7515 79.0007 23.9934 79.0007 23.2056C79.0007 22.4179 79.301 21.6597 79.8404 21.0856C80.3799 20.5115 81.1178 20.1646 81.9041 20.1156C82.2883 20.1322 82.6654 20.2259 83.0127 20.3912C83.36 20.5564 83.6706 20.7899 83.9258 21.0776C84.1811 21.3654 84.3759 21.7015 84.4986 22.066C84.6213 22.4306 84.6694 22.8161 84.6401 23.1996C84.6728 23.5844 84.6272 23.9719 84.5059 24.3386C84.3846 24.7053 84.1902 25.0436 83.9344 25.333C83.6787 25.6224 83.3669 25.8569 83.0179 26.0224C82.6689 26.1878 82.29 26.2808 81.9041 26.2956ZM111.172 12.9996H105.796V27.9996H108.04V22.3116H111.172C111.812 22.3576 112.454 22.2713 113.058 22.0581C113.663 21.8449 114.218 21.5095 114.687 21.0726C115.156 20.6358 115.531 20.1069 115.787 19.519C116.042 18.9311 116.175 18.2968 116.175 17.6556C116.175 17.0144 116.042 16.3801 115.787 15.7922C115.531 15.2043 115.156 14.6755 114.687 14.2386C114.218 13.8018 113.663 13.4663 113.058 13.2531C112.454 13.04 111.812 12.9537 111.172 12.9996ZM111.172 20.1996H108.04V15.0876H111.22C111.557 15.0876 111.891 15.154 112.203 15.2831C112.514 15.4121 112.797 15.6013 113.036 15.8398C113.274 16.0782 113.464 16.3613 113.593 16.6729C113.722 16.9844 113.788 17.3184 113.788 17.6556C113.788 17.9928 113.722 18.3268 113.593 18.6383C113.464 18.9499 113.274 19.233 113.036 19.4715C112.797 19.7099 112.514 19.8991 112.203 20.0281C111.891 20.1572 111.557 20.2236 111.22 20.2236L111.172 20.1996ZM125.02 18.0516C124.203 18.0012 123.389 18.1915 122.679 18.5988C121.968 19.0062 121.393 19.6128 121.024 20.3436L123.004 21.1716C123.204 20.8109 123.504 20.5158 123.869 20.322C124.233 20.1283 124.645 20.0441 125.056 20.0796C125.341 20.0463 125.63 20.0701 125.905 20.1496C126.181 20.2291 126.438 20.3626 126.661 20.5425C126.885 20.7223 127.07 20.9448 127.206 21.1971C127.343 21.4493 127.428 21.7262 127.456 22.0116V22.1556C126.734 21.7763 125.931 21.5786 125.116 21.5796C122.98 21.5796 120.796 22.7796 120.796 24.9636C120.817 25.4278 120.931 25.8831 121.132 26.3023C121.332 26.7215 121.615 27.0961 121.963 27.4039C122.311 27.7118 122.718 27.9465 123.158 28.0942C123.599 28.2418 124.065 28.2995 124.528 28.2636C125.091 28.2948 125.652 28.1756 126.154 27.9183C126.656 27.6611 127.081 27.275 127.384 26.7996H127.456V27.9996H129.616V22.2276C129.616 19.5996 127.624 18.0756 125.068 18.0756L125.02 18.0516ZM124.744 26.2716C124.012 26.2716 122.992 25.8996 122.992 24.9996C122.992 23.7996 124.264 23.3916 125.392 23.3916C126.105 23.374 126.809 23.5481 127.432 23.8956C127.357 24.5473 127.048 25.1496 126.562 25.5909C126.077 26.0322 125.448 26.2825 124.792 26.2956L124.744 26.2716ZM137.488 18.3996L134.92 24.9036H134.848L132.184 18.3996H129.784L133.78 27.4956L131.5 32.5476H133.84L139.984 18.3996H137.488ZM117.328 27.9996H119.56V12.9996H117.328V27.9996Z" fill="white"/>
  <path d="M1.52802 1.04787C1.13259 1.51541 0.930818 2.11642 0.964023 2.72787V29.2719C0.923192 29.8843 1.1259 30.4881 1.52802 30.9519L1.61202 31.0479L16.48 16.1799V15.8199L1.61202 0.963867L1.52802 1.04787Z" fill="url(#paint0_linear)"/>
  <path d="M21.4 21.1363L16.48 16.1803V15.8203L21.4 10.8643L21.508 10.9363L27.4 14.2723C29.08 15.2203 29.08 16.7803 27.4 17.7403L21.532 21.0763L21.4 21.1363Z" fill="url(#paint1_linear)"/>
  <path d="M21.5441 21.064L16.4801 16L1.52808 30.952C1.86717 31.2538 2.30119 31.4275 2.7549 31.4428C3.2086 31.4582 3.65337 31.3142 4.01208 31.036L21.5441 21.064Z" fill="url(#paint2_linear)"/>
  <path d="M21.5441 10.9358L4.01208 0.975767C3.65571 0.693664 3.21129 0.546237 2.75696 0.559405C2.30264 0.572574 1.86751 0.745497 1.52808 1.04777L16.4801 15.9998L21.5441 10.9358Z" fill="url(#paint3_linear)"/>
  <path opacity="0.2" d="M21.4001 20.9556L4.01208 30.8556C3.66641 31.1164 3.24514 31.2576 2.81208 31.2576C2.37901 31.2576 1.95774 31.1164 1.61208 30.8556L1.52808 30.9396L1.61208 31.0356C1.95774 31.2964 2.37901 31.4376 2.81208 31.4376C3.24514 31.4376 3.66641 31.2964 4.01208 31.0356L21.5441 21.0636L21.4001 20.9556Z" fill="black"/>
  <path opacity="0.12" d="M1.52805 30.7838C1.1426 30.3078 0.953707 29.7025 1.00005 29.0918V29.2718C0.959217 29.8843 1.16192 30.488 1.56405 30.9518L1.64805 30.8678L1.52805 30.7838Z" fill="black"/>
  <path opacity="0.12" d="M27.4 17.56L21.4 20.956L21.508 21.064L27.4 17.728C27.7478 17.5809 28.0495 17.3428 28.2734 17.0387C28.4972 16.7346 28.6349 16.3758 28.672 16C28.597 16.3415 28.4428 16.6606 28.2219 16.9315C28.0009 17.2025 27.7194 17.4178 27.4 17.56Z" fill="black"/>
  <path opacity="0.25" d="M4.01199 1.14378L27.4 14.4398C27.7194 14.582 28.0009 14.7973 28.2218 15.0683C28.4428 15.3392 28.597 15.6583 28.672 15.9998C28.6349 15.624 28.4972 15.2652 28.2733 14.9611C28.0495 14.657 27.7478 14.4188 27.4 14.2718L4.01199 0.975778C2.34399 0.0157781 0.963989 0.807779 0.963989 2.72778V2.90778C0.999989 0.987779 2.34399 0.19578 4.01199 1.14378Z" fill="white"/>
  <path d="M39.532 9.1239H38.656V6.7239H39.4C39.7348 6.3605 39.9865 5.92865 40.1377 5.45829C40.289 4.98793 40.3362 4.49031 40.276 3.9999V0.399902H45.076V6.7119H45.88V9.1119H44.992V7.5999H39.532V9.1239ZM41.2 3.9999C41.2535 4.96385 41.0152 5.92153 40.516 6.7479H44.116V1.2879H41.2V3.9999Z" fill="white" stroke="white" stroke-width="0.2" stroke-miterlimit="10"/>
  <path d="M53.092 6.66381C52.7464 7.01031 52.3359 7.28522 51.8839 7.4728C51.4319 7.66038 50.9474 7.75694 50.458 7.75694C49.9686 7.75694 49.4841 7.66038 49.0321 7.4728C48.5801 7.28522 48.1696 7.01031 47.824 6.66381C47.1375 5.94681 46.7543 4.99247 46.7543 3.99981C46.7543 3.00714 47.1375 2.0528 47.824 1.33581C48.1696 0.989304 48.5801 0.714388 49.0321 0.52681C49.4841 0.339231 49.9686 0.242676 50.458 0.242676C50.9474 0.242676 51.4319 0.339231 51.8839 0.52681C52.3359 0.714388 52.7464 0.989304 53.092 1.33581C53.4387 1.6862 53.7117 2.1024 53.8952 2.5599C54.0786 3.01741 54.1686 3.50698 54.16 3.99981C54.1742 4.49335 54.0867 4.98455 53.903 5.44284C53.7192 5.90114 53.4432 6.31674 53.092 6.66381ZM48.496 6.0638C48.7489 6.32641 49.0529 6.53433 49.3894 6.67469C49.7258 6.81505 50.0875 6.88486 50.452 6.87981C50.8168 6.88704 51.1792 6.81822 51.5159 6.67773C51.8527 6.53724 52.1565 6.32816 52.408 6.0638C52.9258 5.50116 53.2132 4.76445 53.2132 3.99981C53.2132 3.23516 52.9258 2.49845 52.408 1.93581C52.1565 1.67145 51.8527 1.46237 51.5159 1.32188C51.1792 1.18139 50.8168 1.11257 50.452 1.11981C50.0875 1.11475 49.7258 1.18456 49.3894 1.32492C49.0529 1.46528 48.7489 1.6732 48.496 1.93581C47.9858 2.50222 47.7035 3.23751 47.7035 3.99981C47.7035 4.76211 47.9858 5.49739 48.496 6.0638Z" fill="white" stroke="white" stroke-width="0.2" stroke-miterlimit="10"/>
  <path d="M58.816 7.75567C58.3304 7.76329 57.8484 7.6726 57.3988 7.48906C56.9492 7.30552 56.5414 7.03292 56.2 6.68767C55.5076 5.96407 55.1211 5.00118 55.1211 3.99967C55.1211 2.99816 55.5076 2.03528 56.2 1.31167C56.547 0.960482 56.9626 0.684441 57.4209 0.50071C57.8792 0.316979 58.3704 0.229488 58.864 0.243674C59.3663 0.229461 59.8653 0.330178 60.3228 0.538144C60.7804 0.74611 61.1844 1.05583 61.504 1.44367L60.868 2.06767C60.6322 1.76457 60.3272 1.52247 59.9785 1.36169C59.6298 1.2009 59.2476 1.12614 58.864 1.14367C58.4946 1.13425 58.1272 1.20075 57.7846 1.33904C57.4419 1.47734 57.1313 1.68449 56.872 1.94767C56.3551 2.51553 56.0686 3.25579 56.0686 4.02367C56.0686 4.79156 56.3551 5.53182 56.872 6.09967C57.1313 6.36286 57.4419 6.57001 57.7846 6.7083C58.1272 6.8466 58.4946 6.91309 58.864 6.90367C59.2763 6.89196 59.6811 6.79031 60.05 6.60583C60.419 6.42136 60.7432 6.15851 61 5.83567L61.648 6.47167C61.3192 6.86562 60.9101 7.18475 60.448 7.40767C59.9375 7.64616 59.3793 7.76517 58.816 7.75567Z" fill="white" stroke="white" stroke-width="0.2" stroke-miterlimit="10"/>
  <path d="M65.4161 7.5999H64.4921V1.2879H62.4761V0.399902H67.4201V1.2879H65.4161V7.5999Z" fill="white" stroke="white" stroke-width="0.2" stroke-miterlimit="10"/>
  <path d="M73.78 0.399902L71.056 6.4719C70.9899 6.71535 70.8717 6.94153 70.7096 7.13475C70.5474 7.32798 70.3452 7.48363 70.1169 7.59093C69.8886 7.69823 69.6397 7.75461 69.3874 7.75616C69.1352 7.75771 68.8856 7.70439 68.656 7.5999L68.896 6.7479C69.0428 6.83041 69.2076 6.87573 69.376 6.8799C69.5536 6.88881 69.7296 6.84271 69.88 6.7479C70.0258 6.62661 70.1374 6.46946 70.204 6.2919L70.468 5.7159L68.068 0.399902H69.16L70.936 4.5279L72.688 0.399902H73.78Z" fill="white" stroke="white" stroke-width="0.2" stroke-miterlimit="10"/>
  <path d="M74.824 7.5999V0.399902H80.032V7.5999H79.108V1.2879H75.748V7.5999H74.824Z" fill="white" stroke="white" stroke-width="0.2" stroke-miterlimit="10"/>
  <path d="M81.676 7.5999V0.399902H82.6V3.4839H86.2V0.399902H87.136V7.5999H86.2V4.3479H82.6V7.5999H81.676Z" fill="white" stroke="white" stroke-width="0.2" stroke-miterlimit="10"/>
  <path d="M94.672 6.6638C94.3254 7.01068 93.9139 7.28585 93.4609 7.47359C93.0079 7.66133 92.5224 7.75796 92.032 7.75796C91.5417 7.75796 91.0561 7.66133 90.6031 7.47359C90.1501 7.28585 89.7386 7.01068 89.392 6.6638C88.7055 5.94681 88.3223 4.99247 88.3223 3.99981C88.3223 3.00714 88.7055 2.0528 89.392 1.33581C89.7376 0.989304 90.1481 0.714388 90.6001 0.52681C91.0521 0.339231 91.5366 0.242676 92.026 0.242676C92.5154 0.242676 92.9999 0.339231 93.4519 0.52681C93.9039 0.714388 94.3144 0.989304 94.66 1.33581C95.3411 2.05558 95.7206 3.00888 95.7206 3.99981C95.7206 4.99073 95.3411 5.94403 94.66 6.6638H94.672ZM90.076 6.0638C90.3275 6.32816 90.6313 6.53724 90.9681 6.67773C91.3049 6.81822 91.6672 6.88704 92.032 6.8798C92.3965 6.88486 92.7582 6.81505 93.0946 6.67469C93.4311 6.53433 93.7351 6.32641 93.988 6.0638C94.4982 5.49739 94.7805 4.76211 94.7805 3.99981C94.7805 3.2375 94.4982 2.50222 93.988 1.93581C93.7351 1.6732 93.4311 1.46528 93.0946 1.32492C92.7582 1.18456 92.3965 1.11475 92.032 1.11981C91.6672 1.11257 91.3049 1.18139 90.9681 1.32188C90.6313 1.46237 90.3275 1.67145 90.076 1.93581C89.5582 2.49845 89.2708 3.23516 89.2708 3.99981C89.2708 4.76445 89.5582 5.50116 90.076 6.0638Z" fill="white" stroke="white" stroke-width="0.2" stroke-miterlimit="10"/>
  <path d="M99.5081 7.60001V0.400011H102.112C102.652 0.394593 103.174 0.591522 103.576 0.95201C103.777 1.12603 103.936 1.34198 104.044 1.5846C104.152 1.82722 104.205 2.09056 104.2 2.35601C104.203 2.67926 104.111 2.99629 103.936 3.26801C103.759 3.52566 103.514 3.72919 103.228 3.85601C103.574 3.97447 103.879 4.19131 104.104 4.48001C104.325 4.77409 104.443 5.13241 104.44 5.50001C104.446 5.77665 104.391 6.05124 104.279 6.30427C104.167 6.55729 104.001 6.78254 103.792 6.96401C103.376 7.35158 102.825 7.56238 102.256 7.55201L99.5081 7.60001ZM100.432 3.48401H102.112C102.269 3.4931 102.426 3.46652 102.572 3.40626C102.717 3.34599 102.847 3.25361 102.952 3.13601C103.156 2.93661 103.272 2.66488 103.276 2.38001C103.287 2.09425 103.189 1.81504 103 1.60001C102.899 1.4881 102.775 1.39993 102.636 1.34183C102.497 1.28374 102.347 1.25716 102.196 1.26401H100.468L100.432 3.48401ZM100.432 6.71201H102.304C102.467 6.71746 102.628 6.68694 102.778 6.62264C102.927 6.55833 103.06 6.46182 103.168 6.34001C103.375 6.1187 103.491 5.82717 103.492 5.52401C103.485 5.22338 103.365 4.93644 103.156 4.72001C103.04 4.59855 102.901 4.50268 102.745 4.43861C102.59 4.37453 102.424 4.34367 102.256 4.34801H100.432V6.71201Z" fill="white" stroke="white" stroke-width="0.2" stroke-miterlimit="10"/>
  <defs>
    <linearGradient id="paint0_linear" x1="15.16" y1="2.45187" x2="-4.97598" y2="22.5879" gradientUnits="userSpaceOnUse">
      <stop stop-color="#00A0FF"/>
      <stop offset="0.01" stop-color="#00A1FF"/>
      <stop offset="0.26" stop-color="#00BEFF"/>
      <stop offset="0.51" stop-color="#00D2FF"/>
      <stop offset="0.76" stop-color="#00DFFF"/>
      <stop offset="1" stop-color="#00E3FF"/>
    </linearGradient>
    <linearGradient id="paint1_linear" x1="29.596" y1="16.0003" x2="0.567983" y2="16.0003" gradientUnits="userSpaceOnUse">
      <stop stop-color="#FFE000"/>
      <stop offset="0.41" stop-color="#FFBD00"/>
      <stop offset="0.78" stop-color="#FFA500"/>
      <stop offset="1" stop-color="#FF9C00"/>
    </linearGradient>
    <linearGradient id="paint2_linear" x1="18.7961" y1="18.76" x2="-8.51593" y2="46.06" gradientUnits="userSpaceOnUse">
      <stop stop-color="#FF3A44"/>
      <stop offset="1" stop-color="#C31162"/>
    </linearGradient>
    <linearGradient id="paint3_linear" x1="-2.23992" y1="-7.78423" x2="9.95208" y2="4.40777" gradientUnits="userSpaceOnUse">
      <stop stop-color="#32A071"/>
      <stop offset="0.07" stop-color="#2DA771"/>
      <stop offset="0.48" stop-color="#15CF74"/>
      <stop offset="0.8" stop-color="#06E775"/>
      <stop offset="1" stop-color="#00F076"/>
    </linearGradient>
  </defs>
</svg>
