<svg width="24" height="24" viewBox="0 0 24 24" fill="none" xmlns="http://www.w3.org/2000/svg">
<path d="M16.9763 14.5853C18.0523 13.0311 18.6501 11.2378 18.6501 9.32502C18.6501 4.18429 14.4658 0 9.32503 0C4.18431 0 0 4.18429 0 9.32502C0 14.4657 4.18431 18.6501 9.32503 18.6501C11.2379 18.6501 13.1507 18.0523 14.5853 16.9764L21.5193 23.9103C21.6389 24.0299 21.878 24.0299 21.9975 23.9103L23.9103 21.9975C24.0299 21.878 24.0299 21.6389 23.9103 21.5193L16.9763 14.5853ZM9.32503 2.15192C13.2702 2.15192 16.3786 5.37984 16.3786 9.20549C16.3786 13.1507 13.1507 16.2591 9.32503 16.2591C5.37983 16.2591 2.27148 13.0311 2.27148 9.20549C2.27148 5.37984 5.37983 2.15192 9.32503 2.15192Z" fill="#082D7D"/>
</svg>
