<?xml version="1.0" encoding="UTF-8" standalone="no"?>
<svg width="24" height="24" viewBox="0 0 20 20" fill="none" xmlns="http://www.w3.org/2000/svg" xmlns:xlink="http://www.w3.org/1999/xlink">
  <path d="M14.2 12.2C15.1 10.9 15.6 9.4 15.6 7.8C15.6 3.5 12.1 0 7.8 0C3.5 0 0 3.5 0 7.8C0 12.1 3.5 15.6 7.8 15.6C9.4 15.6 11 15.1 12.2 14.2L18 20C18.1 20.1 18.3 20.1 18.4 20L20 18.4C20.1 18.3 20.1 18.1 20 18L14.2 12.2ZM7.8 1.8C11.1 1.8 13.7 4.5 13.7 7.7C13.7 11 11 13.6 7.8 13.6C4.5 13.6 1.9 10.9 1.9 7.7C1.9 4.5 4.5 1.8 7.8 1.8Z" fill="#0B40B3" fill-opacity="1"/>
</svg>
