<svg width="38" height="40" viewBox="0 0 38 40" fill="none" xmlns="http://www.w3.org/2000/svg">
<path d="M26.0199 13.4321C25.4258 12.8863 24.5714 12.8988 24.0812 13.0572C24.4022 12.6442 25.1504 12.3054 25.3706 12.2643C25.5383 12.3302 26.0199 12.8485 26.0199 13.4321ZM27.9167 11.1721C27.526 8.98216 22.6691 10.4334 20.223 9.50321C20.1763 10.1417 20.9761 11.1645 21.7412 11.5429C20.4335 12.7324 19.2594 15.1287 19.0222 18.0562C18.7861 15.1287 17.6119 12.7324 16.3042 11.5431C17.0692 11.1647 17.8698 10.1418 17.8222 9.50349C15.3763 10.4337 10.5193 8.98257 10.1279 11.1725C10.0456 11.6362 10.2584 12.3423 10.4882 12.5455C10.5294 12.3986 10.7441 11.918 11.4212 11.8104C14.843 11.2686 17.7 16.7947 15.1211 19.0289C15.0818 19.0633 15.104 19.1257 15.1571 19.1257H22.8889C22.9413 19.1257 22.9636 19.0631 22.9248 19.0291C20.3453 16.7949 23.2022 11.2689 26.6242 11.8107C27.3016 11.9183 27.5159 12.3987 27.5572 12.5456C27.787 12.3424 27.9998 11.6363 27.9168 11.1726L27.9167 11.1721ZM28.749 6.14623C28.6875 5.93932 30.694 5.9341 30.694 7.25012C30.694 8.13186 29.4937 8.54953 29.4937 9.46477C29.4937 9.89095 29.9314 10.2034 30.0657 10.2034C29.7564 8.73433 31.0347 9.50321 31.3799 9.77781C30.694 7.80207 32.238 7.81442 32.086 6.90852C31.9802 6.27557 30.638 6.46669 30.1524 6.14623C29.2905 5.57781 28.2708 3.3655 27.5988 5.57781C28.8515 6.79635 28.1226 8.59017 26.5322 8.59017C26.5322 8.59017 26.5234 8.8531 26.538 8.87397C28.4348 8.77676 29.096 7.31589 28.749 6.14623ZM6.61905 9.77781C6.96419 9.50321 8.2423 8.73433 7.93385 10.2034C8.0675 10.2034 8.50516 9.89095 8.50516 9.46477C8.50516 8.54953 7.30488 8.13186 7.30488 7.25012C7.30488 5.9341 9.31128 5.93932 9.24982 6.14623C8.90337 7.31603 9.56457 8.7769 11.4614 8.87397C11.4754 8.8531 11.4667 8.59003 11.4667 8.59003C9.87696 8.59003 9.14801 6.79635 10.4 5.57767C9.7281 3.3655 8.70839 5.57767 7.84645 6.14609C7.3607 6.46669 6.01852 6.27543 5.9129 6.90852C5.76156 7.8147 7.30501 7.80234 6.61918 9.77809L6.61905 9.77781ZM12.005 13.4321C12.5996 12.8863 13.4542 12.8988 13.9436 13.0572C13.6239 12.6442 12.8744 12.3054 12.6548 12.2643C12.487 12.3302 12.0048 12.8485 12.0048 13.4321H12.005ZM19.9247 1.18215L18.9996 0L18.0742 1.18215L18.9993 2.42609L19.9248 1.18215H19.9247ZM25.2067 4.75648L24.5489 3.91648L23.8913 4.75648L24.5487 5.57753L25.2068 4.75648H25.2067ZM30.5437 29.0396L29.7098 28.1148L28.8756 29.0395L29.7098 29.8509L30.5438 29.0395L30.5437 29.0396ZM14.1081 4.75648L13.4503 3.91648L12.7929 4.75648L13.4504 5.57753L14.1082 4.75648H14.1081ZM12.2234 8.87411H14.6777C16.7411 8.87411 17.6694 7.54696 17.95 6.39612H20.0495C20.3302 7.54696 21.2581 8.87397 23.3221 8.87397H25.7764C25.7764 8.87397 26.2057 8.26367 26.3134 7.96147C26.701 6.87406 26.2057 6.36673 25.483 6.36673L24.5487 7.25397L23.6147 6.36701C22.8921 6.36701 22.3968 6.87406 22.7844 7.96161C22.8339 8.10056 22.9523 8.30486 23.0645 8.48445C22.1937 8.35909 21.082 7.73438 20.8382 6.39612C20.8382 6.39612 21.4816 5.32518 21.6433 4.89172C22.2234 3.33296 21.4824 2.69588 20.3988 2.69588L18.9997 4.419L17.6006 2.69588C16.517 2.69588 15.7761 3.33296 16.3569 4.89172C16.5176 5.32518 17.1618 6.39625 17.1618 6.39625C16.9174 7.73438 15.806 8.35909 14.9351 8.48459C15.0478 8.30472 15.1658 8.10056 15.215 7.96147C15.602 6.87406 15.108 6.36687 14.3848 6.36687L13.4505 7.2541L12.5162 6.36715C11.7932 6.36715 11.2992 6.8742 11.6861 7.96175C11.7939 8.26381 12.2238 8.87424 12.2238 8.87424L12.2234 8.87411ZM37.5966 16.8452C37.1229 17.0964 34.3438 18.4605 30.7839 17.9559C30.8208 17.778 30.8521 17.5989 30.8777 17.4188C33.2471 17.1218 35.173 16.7008 36.4004 15.9854C37.7995 15.1694 38.4113 13.2216 37.7051 11.7726C37.6868 11.7361 37.6361 11.7295 37.6108 11.7603C37.2237 12.2271 34.7905 15.0006 30.9568 15.8628C30.9471 15.6547 30.9289 15.4471 30.9025 15.2406C32.7645 14.1342 34.5822 12.8594 35.448 11.6937C36.7563 9.93131 36.636 7.68317 35.3909 6.53699C35.378 6.52533 35.3609 6.52008 35.344 6.52257C35.3271 6.52507 35.3121 6.53508 35.3027 6.55003C34.9088 7.23104 31.2215 13.4754 27.1734 16.1715C27.124 16.2045 27.0742 16.2369 27.024 16.2687C26.9079 16.3425 26.8952 16.5007 26.9938 16.5945C27.4608 17.0377 27.7508 17.6544 27.7508 18.3393C27.7508 19.5301 26.875 20.5203 25.7172 20.7352C25.1288 20.8546 24.2797 20.8199 23.4638 20.5372C23.4271 20.5248 23.3891 20.5502 23.3891 20.5888V24.3596C23.3891 24.4203 23.4771 24.4354 23.4978 24.3775C23.9939 23.0006 25.4784 22.7082 26.1277 22.7082C26.3613 24.1795 26.7787 25.3982 27.3208 26.0542C28.2037 27.12 29.6453 27.1051 30.2704 26.3682C30.2806 26.3559 30.285 26.3395 30.2823 26.3235C30.2795 26.3074 30.27 26.2936 30.2563 26.2858C29.889 26.0647 27.7876 24.7127 27.367 22.4974C27.5321 22.4387 27.6935 22.3691 27.8503 22.2891C28.5286 23.4654 29.516 24.513 30.3108 24.9132C31.6461 25.5842 32.8684 25.2578 33.4105 24.2754C33.4301 24.2409 33.406 24.1977 33.3662 24.1939C32.5403 24.1248 30.0057 23.3636 28.9265 21.5093C29.0513 21.3905 29.1705 21.2654 29.2837 21.1344C30.4132 22.0354 32.0097 22.8317 33.1528 22.9943C34.4904 23.1849 36.006 22.7376 36.0427 21.1078C36.0433 21.0753 36.0154 21.0485 35.9824 21.0504C35.5067 21.0806 32.3587 21.2241 30.1153 19.8748C30.1933 19.7196 30.266 19.5615 30.3333 19.4009C30.3333 19.4009 33.7228 20.2405 35.3289 19.9624C36.9249 19.6865 37.8597 18.4398 37.6793 16.8887C37.6741 16.8503 37.6311 16.8273 37.5967 16.8456L37.5966 16.8452ZM7.66601 19.4003C7.73347 19.561 7.80633 19.7192 7.88445 19.8744C5.64179 21.223 2.495 21.0806 2.01725 21.05C1.98371 21.0481 1.95567 21.0761 1.95645 21.1081C1.9938 22.7373 3.50882 23.1845 4.84642 22.9939C5.98904 22.8313 7.58634 22.035 8.71547 21.1342C8.82881 21.265 8.94801 21.39 9.07267 21.509C7.99294 23.3632 5.45874 24.1246 4.63296 24.1936C4.593 24.1977 4.56967 24.2407 4.58867 24.2753C5.13076 25.2577 6.35305 25.5841 7.68894 24.9131C8.48301 24.5128 9.47036 23.4652 10.1485 22.289C10.3054 22.3688 10.4669 22.4383 10.632 22.4973C10.2114 24.7126 8.10996 26.0643 7.74267 26.2858C7.72909 26.2936 7.71962 26.3075 7.7169 26.3235C7.71418 26.3395 7.71849 26.3559 7.72865 26.3682C8.35368 27.1049 9.79584 27.1199 10.6788 26.054C11.2208 25.398 11.6377 24.1793 11.8712 22.708C12.5211 22.708 14.0051 23.0005 14.501 24.3772C14.5224 24.4353 14.6104 24.4202 14.6104 24.3593V20.5887C14.6104 20.5502 14.5718 20.5247 14.5351 20.537C13.7194 20.8199 12.87 20.8542 12.2824 20.7348C11.124 20.5202 10.248 19.53 10.248 18.3393C10.248 17.6547 10.5389 17.0373 11.0049 16.5942C11.1045 16.5008 11.091 16.3427 10.9758 16.2688C10.9252 16.2371 10.875 16.2047 10.8251 16.1717C6.7793 13.4772 3.09409 7.23708 2.6968 6.55168C2.68736 6.53634 2.67206 6.52603 2.65483 6.5234C2.6376 6.52077 2.62013 6.52607 2.60691 6.53795C1.36365 7.68481 1.24284 9.932 2.55122 11.694C3.41709 12.8596 5.2348 14.1345 7.09614 15.2408C7.06991 15.4473 7.05199 15.6548 7.04242 15.8628C3.21189 15.0014 0.780551 12.2326 0.389807 11.7625C0.3636 11.7304 0.311841 11.7368 0.294152 11.7735C-0.410813 13.2234 0.201117 15.1696 1.59873 15.9856C2.82626 16.7009 4.75233 17.122 7.12156 17.419C7.14716 17.599 7.17841 17.7782 7.21525 17.9561C3.65898 18.46 0.881317 17.0991 0.403827 16.8459C0.368448 16.8269 0.325469 16.8504 0.321014 16.8895C0.141104 18.4405 1.07525 19.6859 2.67125 19.962C4.27681 20.2401 7.66627 19.4005 7.66627 19.4005L7.66601 19.4003ZM29.7099 31.042L28.4748 30.0238C27.9818 30.3313 27.6197 30.8196 27.4789 31.392C26.736 31.5009 24.7107 31.0295 24.9076 30.7169C27.1274 27.4454 25.4296 25.4976 23.389 25.606V27.8028C23.389 28.5085 22.8013 29.0804 22.0773 29.0804H20.6682C19.6574 29.0804 18.9993 30.145 18.9993 30.145C18.9993 30.145 18.3412 29.0803 17.3305 29.0803H15.9214C15.1968 29.0803 14.6104 28.5084 14.6104 27.8028V25.606C12.5698 25.4976 10.8707 27.4453 13.0911 30.7167C13.2863 31.0262 11.2045 31.5216 10.228 31.3964C9.97064 31.1168 9.59956 30.9405 9.18404 30.9405C9.00737 30.9406 8.83211 30.9736 8.66646 31.038C8.66646 31.038 4.82925 27.2311 4.75902 27.1939L4.79046 27.117C5.00929 26.6886 4.67476 26.2218 4.46327 26.2548C4.70896 25.9458 4.72036 24.5941 3.35734 24.2814C3.39731 24.5529 3.41762 25.1071 3.41762 25.1071C3.41762 25.1071 2.36567 24.5112 1.83734 25.0255C1.37322 25.6012 2.01725 26.6457 2.01725 26.6457C2.01725 26.6457 1.47896 26.6594 1.21362 26.6358C1.60371 28.0184 2.91222 27.9205 3.19525 27.6477C3.17691 27.8674 3.64994 28.1808 4.05091 27.9296L4.22702 27.8403C4.25807 27.8838 7.9953 31.5837 7.9953 31.5837C7.82365 31.8506 7.74201 32.1782 7.79836 32.5275C7.88707 33.0732 8.32079 33.5256 8.87507 33.6431C9.26647 33.7255 9.63441 33.6459 9.9295 33.4649L10.9188 34.427C11.0066 34.5107 11.1258 34.5629 11.2587 34.553C11.5007 34.536 11.682 34.3306 11.6636 34.0949C11.6557 33.9885 11.6039 33.8972 11.5323 33.8278C11.5166 33.8097 10.5247 32.8447 10.5247 32.8447C11.343 32.2438 12.8676 31.8202 14.1328 31.8202C14.3551 31.8202 14.4596 31.6231 14.3831 31.4299C13.8098 29.9855 15.0422 28.939 16.3172 29.7908C16.8733 30.1622 17.4382 30.8939 17.8638 32.1146C15.7721 32.6453 13.1456 34.1074 12.6143 35.7033C12.4096 36.3195 13.0855 37.1595 13.9063 37.3286C13.9208 37.3319 13.936 37.329 13.9484 37.3205C13.9609 37.3121 13.9696 37.2988 13.9727 37.2835C14.4014 34.901 16.8468 33.1255 18.1191 32.824C18.183 33.0035 18.1621 32.9454 18.2261 33.1242C16.8403 33.8109 15.4964 35.2592 15.1127 36.9812C14.9365 37.7697 15.7757 38.4805 16.4685 38.6751C16.5034 38.6847 16.5376 38.6594 16.5395 38.6243C16.6712 36.4467 17.5889 34.5972 18.411 33.756C18.4335 33.9205 18.4504 34.0859 18.4617 34.2517C18.4617 34.2517 17.6199 36.7091 17.6199 38.5021C17.6199 39.3363 18.8031 39.9186 18.9778 40C19.1962 39.9186 20.3786 39.3363 20.3786 38.5021C20.3786 36.7089 19.5371 34.2515 19.5371 34.2515C19.5486 34.0857 19.5657 33.9204 19.5884 33.7559C20.41 34.5975 21.3282 36.446 21.4593 38.6236C21.4609 38.6409 21.4697 38.6566 21.4833 38.6665C21.4969 38.6765 21.5141 38.6796 21.5301 38.6751C22.2238 38.4805 23.0623 37.7697 22.8868 36.9812C22.5024 35.2594 21.1591 33.8109 19.7735 33.1242C19.8367 32.9454 19.8158 33.0033 19.8799 32.8239C21.1529 33.1254 23.5973 34.9008 24.0262 37.2834C24.0327 37.315 24.0624 37.3351 24.0926 37.3283C24.9129 37.1594 25.5898 36.3191 25.384 35.7031C24.8539 34.1071 22.2268 32.645 20.1347 32.1143C20.5611 30.8937 21.1261 30.1619 21.6822 29.7905C22.9564 28.9387 24.1889 29.9851 23.6156 31.4296C23.5391 31.6228 23.6429 31.8199 23.8659 31.8199C25.2972 31.8199 27.0605 32.3616 27.7583 33.0882C28.2042 33.7892 29.028 34.2377 29.9578 34.1417C31.0142 34.0332 31.8757 33.2017 31.9946 32.1736C32.0985 31.2729 31.6539 30.4642 30.9453 30.0235L29.7097 31.0419L29.7099 31.042ZM20.607 24.4802C21.047 24.3091 21.7367 24.4475 21.7133 25.1131C21.7077 25.2641 21.9096 25.2641 21.9243 25.11C22.0559 24.1132 21.4132 23.8262 20.7405 23.9429C20.6569 23.6002 20.5885 23.3006 20.5107 23.0038C20.4485 22.7635 20.4257 22.3123 20.6911 22.3123C20.8342 22.3123 20.7767 22.7319 20.7632 22.9127C20.7514 23.0713 20.8057 23.1673 20.9287 23.1718C21.0052 23.1751 21.1008 23.0727 21.158 23.0047C21.5429 22.5485 21.6323 21.8422 21.1813 21.5016C20.8039 21.2156 19.8589 21.4284 19.5992 21.8358C19.5599 21.6823 19.3725 21.4289 19.2826 21.3187C19.1952 21.2109 19.1725 21.1372 19.2933 21.0427C19.3503 20.9969 19.5227 20.8173 19.5227 20.6319C19.5227 20.5224 19.4414 20.32 19.1838 20.32C18.9804 20.32 18.7544 20.4674 18.7544 20.7964C18.7544 20.8696 18.7714 20.9478 18.8164 21.0322C18.688 21.0099 18.3389 21.019 18.1596 21.0654L20.6379 28.1912C21.3473 27.8244 21.8674 27.2435 21.8674 26.62C21.8674 26.0886 21.1205 26.2649 20.7578 26.6794C20.6412 26.0057 20.5374 25.3836 20.4239 24.7635C20.393 24.5925 20.4759 24.5311 20.607 24.4796V24.4802ZM17.1026 19.6394L17.6233 21.1552C17.1775 21.2664 16.4605 21.6069 16.4605 22.0579C16.4605 22.6585 17.4747 23.0495 18.061 23.0025C18.0319 23.1396 18.0654 23.2616 18.1566 23.3733C17.9438 23.3733 17.5423 23.477 17.4105 23.6259C17.0996 23.3225 16.6132 23.2119 16.3819 23.3966C16.1496 23.5828 16.1426 23.898 16.3852 24.2544C16.5542 24.5012 16.6176 24.7446 16.4276 25.0305C17.1343 25.0305 16.8741 24.0677 17.1509 24.0677C17.1146 24.2544 17.1368 24.4704 17.2172 24.71C17.2704 24.8693 17.2704 24.9824 17.1792 25.1356C16.9512 25.5176 16.5967 26.3947 16.6446 27.188C16.4129 27.1866 16.2951 27.1273 16.3768 26.7956C16.4072 26.6723 16.3345 26.5841 16.2381 26.7363C16.1317 26.9041 16.0804 27.1907 16.0804 27.3132C16.0804 28.0195 16.8836 28.1617 17.19 28.0123C18.0767 28.9117 19.8185 28.6717 20.4016 28.37L17.335 19.5536C17.2724 19.387 17.0475 19.4667 17.1026 19.6397V19.6394ZM16.9964 26.9019C16.933 26.539 17.415 25.8902 18.0281 25.2641C17.8976 25.6722 17.9787 26.3752 18.2346 26.6174C17.7899 26.6174 17.2617 26.7048 16.9963 26.9019H16.9964Z" fill="#86909C"/>
</svg>
