<svg width="26" height="25" viewBox="0 0 26 25" fill="none" xmlns="http://www.w3.org/2000/svg">
<path opacity="0.5" fill-rule="evenodd" clip-rule="evenodd" d="M0 13C0 6.37258 5.37258 1 12 1C18.6274 1 24 6.37258 24 13C24 19.6274 18.6274 25 12 25C5.37258 25 0 19.6274 0 13Z" fill="#1D5DEB" fill-opacity="0.18"/>
<path d="M10.1038 19.0903C10.1038 19.0945 10.1035 19.0987 10.1035 19.1028C10.1035 20.1505 10.9528 20.9999 12.0006 20.9999C13.0483 20.9999 13.8976 20.1505 13.8976 19.1028C13.8976 19.0987 13.8973 19.0945 13.8973 19.0903H10.1038Z" fill="#0D4CD3"/>
<path d="M18.0571 16.7192L16.3498 14.2111C16.3498 13.4434 16.3498 11.5674 16.3498 11.0821C16.3498 8.97184 14.8469 7.21284 12.8532 6.81644V5.85289C12.8532 5.38187 12.4713 5 12.0003 5C11.5292 5 11.1474 5.38187 11.1474 5.85289V6.81647C9.15365 7.21291 7.65081 8.97191 7.65081 11.0821C7.65081 11.9082 7.65081 13.7323 7.65081 14.2111L5.94347 16.7192C5.76363 16.9834 5.74461 17.3253 5.89404 17.6078C6.04348 17.8903 6.33684 18.067 6.65643 18.067H17.3441C17.6637 18.067 17.9571 17.8903 18.1065 17.6078C18.256 17.3253 18.2369 16.9833 18.0571 16.7192Z" fill="#0D4CD3"/>
<path d="M21 1C18.7909 1 17 2.79086 17 5C17 7.20914 18.7909 9 21 9C23.2091 9 25 7.20914 25 5C25 2.79086 23.2091 1 21 1Z" fill="#EE3F58" stroke="white" stroke-width="2"/>
</svg>
