<svg width="24" height="24" viewBox="0 0 24 24" fill="none" xmlns="http://www.w3.org/2000/svg">
<path d="M12 24C5.38364 24 0 18.6164 0 12C0 5.38364 5.38364 0 12 0C18.6164 0 24 5.38364 24 12C24 18.6164 18.6164 24 12 24Z" fill="#E5EAF5"/>
<path d="M11.9999 1.09094C5.98355 1.09094 1.09082 5.98476 1.09082 12C1.09082 18.0153 5.98355 22.9091 11.9999 22.9091C18.0152 22.9091 22.909 18.0153 22.909 12C22.909 5.98476 18.0152 1.09094 11.9999 1.09094Z" fill="#E5EAF5"/>
<path fill-rule="evenodd" clip-rule="evenodd" d="M8.99414 10.5524H10.7898C10.7898 10.332 10.8127 10.1258 10.8618 9.936C10.9109 9.744 10.9861 9.57709 11.0876 9.43418C11.1901 9.29237 11.32 9.17891 11.4792 9.09273C11.6374 9.00764 11.8261 8.96509 12.0465 8.96509C12.3727 8.96509 12.628 9.05455 12.8112 9.23346C12.9945 9.41237 13.0861 9.68946 13.0861 10.0647C13.0938 10.284 13.0556 10.4684 12.9694 10.6145C12.8843 10.7618 12.772 10.896 12.6334 11.0182C12.4949 11.1393 12.3443 11.2625 12.1818 11.3847C12.0192 11.5058 11.8632 11.6509 11.717 11.8178C11.5709 11.9847 11.4421 12.1865 11.332 12.4233C11.2207 12.6589 11.1552 12.9513 11.129 13.3025V13.8524H12.7796V13.3887C12.8123 13.1433 12.892 12.9404 13.0174 12.7767C13.144 12.6142 13.288 12.4691 13.4516 12.3436C13.613 12.2171 13.7876 12.0916 13.9709 11.964C14.1541 11.8385 14.321 11.6858 14.4727 11.5058C14.6221 11.3269 14.7487 11.112 14.8512 10.8589C14.9527 10.6058 15.004 10.284 15.004 9.89237C15.004 9.65673 14.9527 9.40255 14.8512 9.12982C14.7487 8.85709 14.5796 8.60291 14.344 8.36618C14.1072 8.12946 13.7952 7.93309 13.4101 7.77382C13.0229 7.61455 12.5407 7.53491 11.9614 7.53491C11.5141 7.53491 11.1094 7.61018 10.7472 7.76073C10.385 7.91128 10.0741 8.12073 9.81887 8.38909C9.5625 8.65855 9.36287 8.976 9.21996 9.34146C9.07705 9.70691 9.00178 10.1127 8.99414 10.5524ZM10.961 14.5833V16.4651H12.8789V14.5833H10.961Z" fill="#0D4CD3"/>
</svg>
