<svg width="24" height="24" viewBox="0 0 24 24" fill="none" xmlns="http://www.w3.org/2000/svg">
  <circle cx="12" cy="12" r="12" fill="#E4ECFD"/>
  <path d="M9.51199 6.96016C8.53599 7.58416 8.02399 8.64016 7.95999 10.1122H10.216C10.216 9.68016 10.344 9.26416 10.6 8.86416C10.856 8.46416 11.288 8.27216 11.88 8.27216C12.504 8.27216 12.92 8.43216 13.16 8.75216C13.384 9.07216 13.496 9.44016 13.496 9.84016C13.496 10.1762 13.4 10.4962 13.192 10.7842C13.064 10.9442 12.92 11.1042 12.728 11.2482L12.168 11.6802C11.608 12.1282 11.256 12.5122 11.112 12.8482C10.984 13.1842 10.904 13.7922 10.872 14.6722H12.984C12.984 14.2562 13.016 13.9522 13.08 13.7442C13.176 13.4402 13.368 13.1682 13.672 12.9282L14.232 12.4962C14.792 12.0642 15.176 11.6962 15.368 11.4242C15.704 10.9602 15.88 10.3842 15.88 9.71216C15.88 8.60816 15.496 7.77616 14.712 7.21616C13.944 6.65616 12.968 6.36816 11.784 6.36816C10.888 6.36816 10.136 6.56016 9.51199 6.96016ZM13.144 18.0002V15.7442H10.808V18.0002H13.144Z" fill="#0D4CD3"/>
</svg>
