<svg width="23" height="21" viewBox="0 0 23 21" fill="none" xmlns="http://www.w3.org/2000/svg">
<g opacity="0.5">
<path d="M21.8519 19.4604H19.6296V5.75673C19.6296 5.55219 19.4638 5.38636 19.2593 5.38636H12.963V0.571542C12.963 0.367005 12.7971 0.201172 12.5926 0.201172H2.96296C2.75843 0.201172 2.59259 0.367005 2.59259 0.571542V19.4604H0.37037C0.165833 19.4604 0 19.6263 0 19.8308C0 20.0353 0.165833 20.2012 0.37037 20.2012H21.8519C22.0564 20.2012 22.2222 20.0353 22.2222 19.8308C22.2222 19.6263 22.0564 19.4604 21.8519 19.4604ZM12.2222 19.4604H3.33333V1.94191C3.33333 1.38963 3.78105 0.941913 4.33333 0.941913H11.2222C11.7745 0.941913 12.2222 1.38963 12.2222 1.94191V19.4604ZM18.8889 19.4604H12.963V6.1271H17.8889C18.4412 6.1271 18.8889 6.57481 18.8889 7.1271V19.4604Z" fill="#99B1E6"/>
<rect x="6.4" y="2.4" width="3.2" height="3.2" rx="0.6" stroke="#99B1E6" stroke-width="0.8"/>
<rect x="6.4" y="8.4" width="3.2" height="3.2" rx="0.6" stroke="#99B1E6" stroke-width="0.8"/>
<rect x="6.4" y="14.4" width="3.2" height="3.2" rx="0.6" stroke="#99B1E6" stroke-width="0.8"/>
<rect x="14.4" y="14.4" width="3.2" height="3.2" rx="0.6" stroke="#99B1E6" stroke-width="0.8"/>
<rect x="14.4" y="8.4" width="3.2" height="3.2" rx="0.6" stroke="#99B1E6" stroke-width="0.8"/>
</g>
</svg>
