<svg width="20" height="20" viewBox="0 0 20 20" fill="none" xmlns="http://www.w3.org/2000/svg">
<path fill-rule="evenodd" clip-rule="evenodd" d="M8.3 0C3.7 0 0 3.6 0 8.1C0 12.6 3.7 16.2 8.3 16.2C10 16.2 11.7 15.7 13.1 14.7L13.2 14.6L18.3 19.7C18.7 20.1 19.3 20.1 19.7 19.7C19.9 19.5 20 19.3 20 19C20 18.7 19.9 18.5 19.7 18.3L14.6 13.2L14.7 13.1C16 11.7 16.7 9.8 16.7 7.9C16.7 3.6 12.9 0 8.3 0ZM8.3 14.2C4.8 14.2 2 11.5 2 8.1C2 4.7 4.9 1.9 8.4 1.9C11.9 1.9 14.8 4.7 14.8 8.1C14.8 11.5 11.9 14.2 8.3 14.2Z" fill="#99B1E6"/>
</svg>
