<svg width="25" height="24" viewBox="0 0 25 24" fill="none" xmlns="http://www.w3.org/2000/svg">
  <path fill-rule="evenodd" clip-rule="evenodd" d="M11.1149 2C6.51494 2 2.81494 5.6 2.81494 10.1C2.81494 14.6 6.51494 18.2 11.1149 18.2C12.8149 18.2 14.5149 17.7 15.9149 16.7L16.0149 16.6L21.1149 21.7C21.5149 22.1 22.1149 22.1 22.5149 21.7C22.7149 21.5 22.8149 21.3 22.8149 21C22.8149 20.7 22.7149 20.5 22.5149 20.3L17.4149 15.2L17.5149 15.1C18.8149 13.7 19.5149 11.8 19.5149 9.9C19.5149 5.6 15.7149 2 11.1149 2ZM11.1149 16.2C7.61494 16.2 4.81494 13.5 4.81494 10.1C4.81494 6.7 7.71494 3.9 11.2149 3.9C14.7149 3.9 17.6149 6.7 17.6149 10.1C17.6149 13.5 14.7149 16.2 11.1149 16.2Z" fill="#EE3F58"/>
</svg>
