<svg width="64" height="64" viewBox="0 0 64 64" fill="none" xmlns="http://www.w3.org/2000/svg">
<mask id="mask0" mask-type="alpha" maskUnits="userSpaceOnUse" x="0" y="0" width="64" height="64">
<path d="M32 0C14.306 0 0 14.306 0 32C0 49.694 14.306 64 32 64C49.694 64 64 49.694 64 32C64 14.306 49.694 0 32 0Z" fill="white"/>
</mask>
<g mask="url(#mask0)">
<circle cx="32" cy="32" r="32" fill="white"/>
<path fill-rule="evenodd" clip-rule="evenodd" d="M29.9197 70.0499C16.2672 68.9357 16.7657 42.5754 17.665 31.0154C18.5131 20.0498 23.2565 9.44619 30.0315 10.514C40.0868 7.42669 45.7482 18.7684 46.4984 30.5976C47.2346 42.3061 50.7386 71.2477 29.9197 70.0592V70.0499Z" fill="#545A71"/>
<path fill-rule="evenodd" clip-rule="evenodd" d="M25.8836 33.4762C25.8836 33.4762 27.1324 42.1484 25.6786 44.5811C23.2789 47.622 19.295 48.4902 13.6104 51.2478C25.8836 79.7484 42.0336 73.3045 50.7377 51.6053C41.9311 46.6239 41.4838 46.9628 39.2845 44.6043C38.073 43.3137 37.6257 40.0268 37.4207 32.998L25.865 33.4947L25.8836 33.4762Z" fill="#FED9BF"/>
<path fill-rule="evenodd" clip-rule="evenodd" d="M26.0283 34.6043L37.5607 36.2245C37.7984 41.0713 38.2783 43.5226 39.2848 44.5811L39.3686 44.6693C31.4101 47.1623 27.524 41.8838 26.2939 37.5383C26.2194 36.387 26.1122 35.3378 26.0283 34.5903V34.6043Z" fill="#EFC2A2"/>
<path fill-rule="evenodd" clip-rule="evenodd" d="M22.3902 25.0639C21.5189 25.0639 20.9923 27.0138 21.4909 28.9033C21.9895 30.7928 22.2504 32.4873 23.1218 32.492C23.9931 32.4966 23.5877 31.271 23.6157 29.0611C23.6436 26.8513 23.2616 25.0639 22.3902 25.0639Z" fill="#FED9BF"/>
<path fill-rule="evenodd" clip-rule="evenodd" d="M42.0711 25.0869C42.9425 25.0869 43.469 27.0461 42.9518 28.931C42.4346 30.8158 42.1737 32.515 41.3023 32.5104C40.431 32.5057 40.8364 31.2847 40.8364 29.0795C40.8364 26.8743 41.2091 25.0823 42.0805 25.0869H42.0711Z" fill="#FED9BF"/>
<path fill-rule="evenodd" clip-rule="evenodd" d="M32.1839 13.6522C42.118 13.6522 41.2607 19.5389 41.2374 27.5798C41.2141 35.6207 35.6925 41.0199 32.0254 40.695C28.7032 40.5789 23.1723 35.9039 23.1723 27.8444C23.1723 21.6838 22.4687 16.6652 26.7602 14.641C28.0835 14.0143 29.8448 13.6707 32.1839 13.6707V13.6522Z" fill="#FED9BF"/>
<path fill-rule="evenodd" clip-rule="evenodd" d="M23.1122 26.0759C24.333 21.243 24.2771 19.7156 28.7643 16.1269C34.0901 21.8651 40.2594 19.9106 41.3451 26.9254C42.6591 25.9644 42.2397 23.555 42.1745 22.45C41.9881 17.1297 37.0583 11.3544 32.1145 11.9672C25.0599 13.3646 23.8018 15.4537 21.6025 23.9264L23.1122 26.0805V26.0759Z" fill="#545A71"/>
<path fill-rule="evenodd" clip-rule="evenodd" d="M58.2308 65.3518L56.5953 56.6517C56.1573 54.3304 53.5572 51.8745 51.1249 50.9089C47.9005 49.349 45.5754 48.8104 42.6213 47.102C39.0427 61.8142 22.9579 57.4781 22.3196 47.1716C18.0794 48.7176 17.4503 49.1911 13.0657 50.8857C13.0657 50.8857 8.35488 52.4084 7.16669 57.0881L5 65.9553C8.514 69.4361 12.6884 72.185 17.2798 74.0417C21.8711 75.8984 26.7876 76.8257 31.7423 76.7695C36.6971 76.7133 41.5911 75.6748 46.1389 73.7145C50.6867 71.7542 54.7972 68.9114 58.2308 65.3518Z" fill="#DAACB1"/>
</g>
<path d="M32 0C14.306 0 0 14.306 0 32C0 49.694 14.306 64 32 64C49.694 64 64 49.694 64 32C64 14.306 49.694 0 32 0ZM32 62.118C15.341 62.118 1.882 48.658 1.882 32C1.882 15.341 15.342 1.882 32 1.882C48.659 1.882 62.118 15.342 62.118 32C62.118 48.659 48.658 62.118 32 62.118V62.118Z" fill="#E7ECF7"/>
<path d="M32 0C14.306 0 0 14.306 0 32C0 49.694 14.306 64 32 64C49.694 64 64 49.694 64 32C64 14.306 49.694 0 32 0ZM32 62.118C15.341 62.118 1.882 48.658 1.882 32C1.882 15.341 15.342 1.882 32 1.882C48.659 1.882 62.118 15.342 62.118 32C62.118 48.659 48.658 62.118 32 62.118V62.118Z" fill="#F3F5FB"/>
</svg>
