<svg width="36" height="36" viewBox="0 0 36 36" fill="none" xmlns="http://www.w3.org/2000/svg">
  <path d="M36 18C36 27.9563 27.9563 36 18 36C8.04368 36 0 27.9563 0 18C0 9.51004 5.85478 2.41204 13.7497 0.510035C15.1098 0.170012 16.5336 0 18 0C19.4664 0 20.8902 0.170012 22.2503 0.510035C30.1452 2.41204 36 9.51004 36 18Z" fill="#FF8A00"/>
  <path d="M29.2954 12.1762V24.874C29.2954 26.4466 28.0203 27.7323 26.4371 27.7323H9.5634C7.99079 27.7323 6.70508 26.4572 6.70508 24.874V12.1762C6.70508 10.6036 7.98017 9.31787 9.5634 9.31787H26.4477C28.0203 9.3285 29.2954 10.6036 29.2954 12.1762Z" stroke="white" stroke-width="1.35" stroke-miterlimit="10" stroke-linecap="round" stroke-linejoin="round"/>
  <path d="M6.70508 17.6904C17.894 21.5688 18.1277 21.5688 29.2954 17.6904" stroke="white" stroke-width="1.35" stroke-miterlimit="10" stroke-linecap="round" stroke-linejoin="round"/>
  <path d="M13.8027 9.3286L14.3765 7.09719C14.5572 6.39589 15.1947 5.89648 15.9173 5.89648H20.0719C20.8051 5.89648 21.432 6.38527 21.6127 7.09719L22.1864 9.3286" stroke="white" stroke-width="1.35" stroke-miterlimit="10" stroke-linecap="round" stroke-linejoin="round"/>
  <path d="M19.5928 22.3232H16.405C16.15 22.3232 15.9375 22.1213 15.9375 21.8557V19.178C15.9375 18.923 16.1394 18.7104 16.405 18.7104H19.5928C19.8478 18.7104 20.0603 18.9123 20.0603 19.178V21.8663C20.0603 22.1213 19.8478 22.3232 19.5928 22.3232Z" fill="#FD8C00" stroke="white" stroke-width="1.35" stroke-miterlimit="10" stroke-linecap="round" stroke-linejoin="round"/>
</svg>
