<svg width="36" height="36" viewBox="0 0 36 36" fill="none" xmlns="http://www.w3.org/2000/svg">
  <path d="M18 36C8.04 36 0 27.96 0 18C0 8.04 8.04 0 18 0C27.96 0 36 8.04 36 18C36 27.95 27.96 36 18 36Z" fill="#FF8A00"/>
  <path d="M14.339 6.9598L11.249 26.5798C11.219 26.7998 11.289 27.0198 11.449 27.1698L16.419 31.9798C16.869 32.4098 17.439 32.6298 18.009 32.6298C18.579 32.6298 19.149 32.4098 19.599 31.9798L24.569 27.1698C24.729 27.0198 24.799 26.7998 24.769 26.5798L22.299 10.9098L21.679 6.9498C21.529 6.0298 21.119 5.1698 20.509 4.4598L22.659 0.609805C22.209 0.489805 21.749 0.379805 21.289 0.299805L19.269 3.9198C18.439 4.0298 17.599 4.0298 16.769 3.9198L14.729 0.309805C14.269 0.399805 13.809 0.499805 13.359 0.619805L15.509 4.4598C14.899 5.1698 14.489 6.0398 14.339 6.9598ZM21.759 16.2798L23.359 26.4498L18.649 31.0198C18.289 31.3698 17.709 31.3698 17.349 31.0198L12.639 26.4498L13.379 21.7398L21.759 16.2798ZM21.529 14.8198L13.659 19.9398L14.169 16.6798L21.109 12.1598L21.529 14.8198ZM16.599 5.2598C17.059 5.3198 17.529 5.3598 17.989 5.3598C18.459 5.3598 18.919 5.3198 19.379 5.2598C19.869 5.7898 20.199 6.4598 20.309 7.1698L20.869 10.7098L14.439 14.8898L15.659 7.1698C15.789 6.4598 16.119 5.7898 16.599 5.2598Z" fill="white"/>
</svg>
