<svg width="64" height="64" viewBox="0 0 64 64" fill="none" xmlns="http://www.w3.org/2000/svg">
<mask id="mask0" mask-type="alpha" maskUnits="userSpaceOnUse" x="0" y="0" width="64" height="64">
<path d="M32 0C14.306 0 0 14.306 0 32C0 49.694 14.306 64 32 64C49.694 64 64 49.694 64 32C64 14.306 49.694 0 32 0Z" fill="white"/>
</mask>
<g mask="url(#mask0)">
<circle cx="32" cy="32" r="32" fill="white"/>
<path fill-rule="evenodd" clip-rule="evenodd" d="M29.9192 70.0499C16.2667 68.9357 16.7653 42.5754 17.6646 31.0154C18.5126 20.0498 23.256 9.44619 30.031 10.514C40.0863 7.42669 45.7477 18.7684 46.4979 30.5976C47.2341 42.3061 50.7381 71.2477 29.9192 70.0592V70.0499Z" fill="#545A71"/>
<path fill-rule="evenodd" clip-rule="evenodd" d="M25.8831 33.4762C25.8831 33.4762 27.1319 42.1484 25.6781 44.5811C23.2784 47.622 19.2945 48.4902 13.6099 51.2478C25.8831 79.7484 42.0332 73.3045 50.7372 51.6053C41.9306 46.6239 41.4833 46.9628 39.284 44.6043C38.0725 43.3137 37.6252 40.0268 37.4202 32.998L25.8645 33.4947L25.8831 33.4762Z" fill="#FED9BF"/>
<path fill-rule="evenodd" clip-rule="evenodd" d="M26.0278 34.6042L37.5602 36.2244C37.7979 41.0713 38.2778 43.5225 39.2843 44.581L39.3681 44.6692C31.4096 47.1623 27.5235 41.8837 26.2934 37.5383C26.2189 36.3869 26.1117 35.3377 26.0278 34.5903V34.6042Z" fill="#EFC2A2"/>
<path fill-rule="evenodd" clip-rule="evenodd" d="M22.3897 25.0638C21.5184 25.0638 20.9919 27.0137 21.4904 28.9032C21.989 30.7927 22.2499 32.4873 23.1213 32.4919C23.9926 32.4966 23.5872 31.2709 23.6152 29.0611C23.6431 26.8512 23.2611 25.0638 22.3897 25.0638Z" fill="#FED9BF"/>
<path fill-rule="evenodd" clip-rule="evenodd" d="M42.0711 25.0869C42.9425 25.0869 43.469 27.0461 42.9518 28.931C42.4346 30.8158 42.1737 32.515 41.3023 32.5104C40.431 32.5057 40.8364 31.2847 40.8364 29.0795C40.8364 26.8743 41.2091 25.0823 42.0805 25.0869H42.0711Z" fill="#FED9BF"/>
<path fill-rule="evenodd" clip-rule="evenodd" d="M32.1834 13.6522C42.1176 13.6522 41.2602 19.5389 41.2369 27.5798C41.2136 35.6207 35.692 41.0199 32.025 40.695C28.7027 40.5789 23.1718 35.9039 23.1718 27.8444C23.1718 21.6838 22.4682 16.6652 26.7597 14.641C28.083 14.0143 29.8443 13.6707 32.1834 13.6707V13.6522Z" fill="#FED9BF"/>
<path fill-rule="evenodd" clip-rule="evenodd" d="M23.1117 26.0758C24.3325 21.2429 24.2766 19.7155 28.7638 16.1268C34.0897 21.865 40.2589 19.9105 41.3446 26.9254C42.6586 25.9644 42.2392 23.5549 42.174 22.45C41.9876 17.1296 37.0578 11.3543 32.114 11.9671C25.0594 13.3645 23.8014 15.4537 21.6021 23.9263L23.1117 26.0804V26.0758Z" fill="#545A71"/>
<path fill-rule="evenodd" clip-rule="evenodd" d="M58.2303 65.3518L56.5948 56.6517C56.1568 54.3304 53.5568 51.8745 51.1245 50.9089C47.9 49.349 45.5749 48.8104 42.6208 47.102C39.0422 61.8142 22.9574 57.4781 22.3191 47.1716C18.0789 48.7176 17.4498 49.1911 13.0652 50.8857C13.0652 50.8857 8.35439 52.4084 7.16621 57.0881L4.99951 65.9553C8.51351 69.4361 12.6879 72.185 17.2793 74.0417C21.8706 75.8984 26.7871 76.8257 31.7419 76.7695C36.6966 76.7133 41.5906 75.6748 46.1384 73.7145C50.6862 71.7542 54.7967 68.9114 58.2303 65.3518V65.3518Z" fill="#DAACB1"/>
<path d="M51.5591 49.3688L41.3119 47.3995C39.6941 50.0306 35.1967 51.7855 31.878 51.7855C28.5593 51.7855 25.6511 50.0306 24.0332 47.3995L13.7861 49.3688C9.8837 50.1187 7.06348 53.5286 7.06348 57.4967V60.6786C12.5513 66.1251 19.8276 69.7754 27.9351 70.6777C28.5431 70.7454 29.1584 70.7082 29.7559 70.5766L32.3623 70.0027C32.9808 69.8665 33.6228 69.8787 34.2357 70.0384C35.086 70.2599 37.575 70.1961 38.3857 69.8574C46.3668 66.523 52.9028 60.4285 56.7942 52.7658C55.5928 51.045 53.746 49.7891 51.5591 49.3688Z" fill="#496A9A"/>
<path d="M33.2857 75.3507C35.0033 70.3782 38.5689 59.1312 39.4171 49.2303C37.4322 50.6692 34.9922 51.5189 32.3531 51.5189C29.714 51.5189 27.274 50.6692 25.2891 49.2303C26.1596 59.3927 29.8936 70.9749 31.553 75.7327L33.2857 75.3507Z" fill="#F8FDFF"/>
<path d="M19.2942 48.116C18.8165 48.4087 18.7215 49.0632 19.0964 49.4796L21.4235 52.0644C21.7562 52.434 21.7244 53.0037 21.3527 53.3339L19.8183 54.6972C19.4961 54.9835 19.3368 55.4159 19.4128 55.8401C20.2701 60.6296 27.9328 69.7773 30.705 72.961C30.9004 72.9657 31.0961 72.9691 31.2922 72.9712C29.9512 69.2147 25.7654 56.7313 25.7654 47.2566V44.1501L19.2942 48.116Z" fill="#36527D"/>
<path d="M45.6224 48.1159L39.1513 44.1502V47.2567C39.1513 56.7314 34.9655 69.2148 33.6245 72.9713C33.8207 72.9694 34.0164 72.966 34.2118 72.9611C36.9839 69.7775 44.6467 60.6297 45.504 55.8402C45.5799 55.4159 45.4205 54.9836 45.0984 54.6974L43.564 53.3341C43.1923 53.0039 43.1605 52.4341 43.4933 52.0646L45.8203 49.4797C46.1951 49.0632 46.1001 48.4087 45.6224 48.1159V48.1159Z" fill="#36527D"/>
</g>
<path d="M32 0C14.306 0 0 14.306 0 32C0 49.694 14.306 64 32 64C49.694 64 64 49.694 64 32C64 14.306 49.694 0 32 0ZM32 62.118C15.341 62.118 1.882 48.658 1.882 32C1.882 15.341 15.342 1.882 32 1.882C48.659 1.882 62.118 15.342 62.118 32C62.118 48.659 48.658 62.118 32 62.118V62.118Z" fill="#E7ECF7"/>
<path d="M32 0C14.306 0 0 14.306 0 32C0 49.694 14.306 64 32 64C49.694 64 64 49.694 64 32C64 14.306 49.694 0 32 0ZM32 62.118C15.341 62.118 1.882 48.658 1.882 32C1.882 15.341 15.342 1.882 32 1.882C48.659 1.882 62.118 15.342 62.118 32C62.118 48.659 48.658 62.118 32 62.118V62.118Z" fill="#F3F5FB"/>
</svg>
