<svg width="32" height="32" viewBox="0 0 32 32" fill="none" xmlns="http://www.w3.org/2000/svg">
  <path fill-rule="evenodd" clip-rule="evenodd" d="M13.7337 2.66699C7.60033 2.66699 2.66699 7.46699 2.66699 13.467C2.66699 19.467 7.60033 24.267 13.7337 24.267C16.0003 24.267 18.267 23.6003 20.1337 22.267L20.267 22.1337L27.067 28.9337C27.6003 29.467 28.4003 29.467 28.9337 28.9337C29.2003 28.667 29.3337 28.4003 29.3337 28.0003C29.3337 27.6003 29.2003 27.3337 28.9337 27.067L22.1337 20.267L22.267 20.1337C24.0003 18.267 24.9337 15.7337 24.9337 13.2003C24.9337 7.46699 19.867 2.66699 13.7337 2.66699ZM13.7337 21.6003C9.06699 21.6003 5.33366 18.0003 5.33366 13.467C5.33366 8.93366 9.20033 5.20033 13.867 5.20033C18.5337 5.20033 22.4003 8.93366 22.4003 13.467C22.4003 18.0003 18.5337 21.6003 13.7337 21.6003Z" fill="#9DACCE"/>
</svg>
