<svg width="80" height="40" viewBox="0 0 80 40" fill="none" xmlns="http://www.w3.org/2000/svg">
<path fill-rule="evenodd" clip-rule="evenodd" d="M41.375 8.00488C42.1083 8.00488 42.777 8.27078 43.2444 8.73813L48.917 14.2254C49.4488 14.7572 49.7147 15.426 49.7147 16.1673V35.425C49.7147 36.8996 48.5141 38.1002 47.0476 38.1002H28.2169C26.7504 38.1002 25.5498 36.8996 25.5498 35.425V10.68C25.5498 9.20547 26.7504 8.00488 28.2169 8.00488H41.375ZM47.0557 16.1592L41.4475 10.8089L28.2169 10.68V35.425H47.0476V16.1592H47.0557Z" fill="#1D5DEB" fill-opacity="0.18"/>
<path fill-rule="evenodd" clip-rule="evenodd" d="M49.6901 31.2342H52.333C53.7995 31.2342 55.0001 30.0336 55.0001 28.5671V9.50271C55.0001 8.77753 54.7342 8.10874 54.2024 7.585L48.5217 2.14609C48.0544 1.6868 47.3856 1.4209 46.6524 1.4209H33.5023C32.0277 1.4209 30.8271 2.62149 30.8271 4.09604V8.00098H33.2444V3.70121L46.2575 3.83819L51.777 9.26904V28.8169H49.6901" fill="#1D5DEB" fill-opacity="0.18"/>
<g opacity="0.9">
<path opacity="0.9" d="M38.2893 23.1216C38.7028 23.1216 39.0632 23.0711 39.3706 22.9701C39.6779 22.8634 39.9322 22.7147 40.1334 22.5239C40.3401 22.3274 40.4938 22.0917 40.5944 21.8167C40.695 21.536 40.7453 21.2245 40.7453 20.8821C40.7453 20.5566 40.695 20.2619 40.5944 19.9982C40.4938 19.7344 40.3429 19.5098 40.1418 19.3246C39.9406 19.1394 39.6863 18.9991 39.379 18.9037C39.0716 18.8026 38.7084 18.7521 38.2893 18.7521H36.6044V23.1216H38.2893ZM38.2893 17.001C39.0996 17.001 39.8009 17.0964 40.3932 17.2872C40.9856 17.4781 41.4745 17.7447 41.8601 18.087C42.2457 18.4294 42.5307 18.8391 42.7151 19.3162C42.9051 19.7933 43.0001 20.3153 43.0001 20.8821C43.0001 21.4715 42.9023 22.0131 42.7067 22.507C42.5111 22.9953 42.2178 23.4163 41.8266 23.7699C41.4354 24.1235 40.9437 24.3985 40.3513 24.5949C39.7646 24.7914 39.0772 24.8896 38.2893 24.8896H36.6044V29.1749H34.3496V17.001H38.2893Z" fill="#1D5DEB" fill-opacity="0.18"/>
<g opacity="0.9">
<path fill-rule="evenodd" clip-rule="evenodd" d="M33 25.7549H34.3461V27.3335H33V25.7549Z" fill="#1D5DEB" fill-opacity="0.18"/>
<path fill-rule="evenodd" clip-rule="evenodd" d="M36.607 25.7549H40.4314V27.3335H36.607V25.7549Z" fill="#1D5DEB" fill-opacity="0.18"/>
</g>
</g>
</svg>
