<svg width="34" height="40" viewBox="0 0 34 40" fill="none" xmlns="http://www.w3.org/2000/svg">
  <g opacity="0.6">
    <path fill-rule="evenodd" clip-rule="evenodd" d="M0 28.7622H24.9372V33.9489H0V28.7622Z" fill="#FF8A00"/>
    <path d="M17.9837 20.1107C19.3897 20.1107 20.6152 19.9447 21.6602 19.6127C22.7052 19.2623 23.5697 18.7736 24.2537 18.1466C24.9566 17.5012 25.4791 16.7266 25.8211 15.823C26.1631 14.9009 26.3341 13.8774 26.3341 12.7524C26.3341 11.6828 26.1631 10.7146 25.8211 9.84786C25.4791 8.9811 24.9661 8.24343 24.2822 7.63485C23.5982 7.02628 22.7337 6.56524 21.6887 6.25173C20.6437 5.91978 19.4087 5.75381 17.9837 5.75381H12.2553V20.1107H17.9837ZM17.9837 0C20.7387 0 23.1232 0.313509 25.1371 0.940527C27.1511 1.56754 28.8136 2.44352 30.1246 3.56847C31.4356 4.69341 32.4046 6.03965 33.0316 7.60719C33.6776 9.17474 34.0005 10.8898 34.0005 12.7524C34.0005 14.6888 33.6681 16.4684 33.0031 18.0913C32.3381 19.6957 31.3406 21.0788 30.0106 22.2407C28.6806 23.4025 27.0086 24.3061 24.9946 24.9516C22.9997 25.597 20.6627 25.9198 17.9837 25.9198H12.2553V40H4.58887V0H17.9837Z" fill="#FF8A00"/>
  </g>
</svg>
