<svg width="80" height="40" viewBox="0 0 80 40" fill="none" xmlns="http://www.w3.org/2000/svg">
<path fill-rule="evenodd" clip-rule="evenodd" d="M54.6075 1.96652C54.728 2.60956 54.3045 3.22858 53.6614 3.34915L45.9856 4.78838C45.5729 7.58589 43.7284 10.4627 40.0649 11.347V36.6613H48.8713C49.5256 36.6613 50.0559 37.1917 50.0559 37.8459C50.0559 38.5002 49.5256 39.0305 48.8713 39.0305L28.7548 39.0305C28.1006 39.0305 27.5702 38.5002 27.5702 37.8459C27.5702 37.1917 28.1006 36.6613 28.7548 36.6613H37.6956V11.5948C34.6841 11.4845 32.4456 9.68709 31.2329 7.55451L24.4011 8.83548C23.758 8.95605 23.139 8.5325 23.0184 7.88946C22.8979 7.24642 23.3214 6.6274 23.9644 6.50682L30.3596 5.30772C30.3438 5.2355 30.3292 5.1634 30.3157 5.0915L32.6446 4.65626L43.621 2.60498L45.9499 2.16975C45.9628 2.23858 45.9747 2.30797 45.9856 2.37786L53.2248 1.0205C53.8679 0.899933 54.4869 1.32348 54.6075 1.96652ZM43.4747 5.25918L33.7437 7.08373C34.8742 8.55509 36.7601 9.567 39.1585 9.1188C41.5596 8.67006 42.9533 7.04201 43.4747 5.25918ZM55.8634 21.7814C55.0612 23.5343 53.3556 24.9953 50.809 24.9953C48.2624 24.9953 46.5567 23.5343 45.7546 21.7814H55.8634ZM42.8566 19.4122C42.8566 20.1765 42.982 20.9847 43.2329 21.7814C44.1354 24.647 46.6607 27.3646 50.809 27.3646C54.9573 27.3646 57.4826 24.647 58.385 21.7814C58.6359 20.9847 58.7614 20.1766 58.7614 19.4122H58.768L52.1798 7.8837L52.1625 7.85335L51.8383 7.28611L51.3348 6.40504C51.1051 6.00306 50.5254 6.00314 50.2958 6.40519L49.7925 7.28639L49.4685 7.85372L49.4512 7.88408L42.8675 19.4122H42.8566ZM45.5959 19.4122L50.8158 10.272L56.0392 19.4122H45.5959ZM32.02 27.7452C31.2209 29.536 29.5046 31.0256 26.9524 31.0256C24.4002 31.0256 22.684 29.536 21.8849 27.7452H32.02ZM19 25.376C19 26.1404 19.1234 26.9483 19.3702 27.7452C20.2673 30.642 22.7947 33.3948 26.9524 33.3948C31.1102 33.3948 33.6376 30.642 34.5346 27.7452C34.7814 26.9483 34.9048 26.1404 34.9048 25.376H34.9078L28.3196 13.8475L28.3022 13.8171L27.9781 13.2499L27.4746 12.3688C27.2448 11.9669 26.6652 11.9669 26.4356 12.369L25.9323 13.2502L25.6083 13.8175L25.591 13.8479L19.0072 25.376H19ZM21.7356 25.376H32.1789L26.9556 16.2358L21.7356 25.376ZM36.8949 28.8598H36.8986L36.8949 28.8532V28.8598ZM60.7589 22.896H60.7552V22.8894L60.7589 22.896Z" fill="#1D5DEB" fill-opacity="0.18"/>
</svg>
