<svg width="32" height="32" viewBox="0 0 32 32" fill="none" xmlns="http://www.w3.org/2000/svg">
  <path fill-rule="evenodd" clip-rule="evenodd" d="M16 26.2C10.3756 26.2 5.8 21.6244 5.8 16C5.8 10.3756 10.3756 5.8 16 5.8C21.6244 5.8 26.2 10.3756 26.2 16C26.2 21.6244 21.6244 26.2 16 26.2ZM16 4C9.373 4 4 9.373 4 16C4 22.6276 9.373 28 16 28C22.6276 28 28 22.6276 28 16C28 9.373 22.6276 4 16 4Z" fill="#FF8A00"/>
  <rect x="15" y="10" width="2" height="8" rx="0.5" fill="#FF8A00"/>
  <rect x="15" y="20" width="2" height="2" rx="0.5" fill="#FF8A00"/>
</svg>
