<svg width="32" height="32" viewBox="0 0 32 32" fill="none" xmlns="http://www.w3.org/2000/svg">
  <path fill-rule="evenodd" clip-rule="evenodd" d="M6 16C6 21.5228 10.4772 26 16 26C21.5228 26 26 21.5228 26 16C26 10.4772 21.5228 6 16 6C10.4772 6 6 10.4772 6 16ZM16 4C9.37258 4 4 9.37258 4 16C4 22.6274 9.37258 28 16 28C22.6274 28 28 22.6274 28 16C28 9.37258 22.6274 4 16 4Z" fill="#16A086"/>
  <path fill-rule="evenodd" clip-rule="evenodd" d="M21.9332 13.6832L16.2763 19.3401C15.4953 20.1211 14.229 20.1211 13.4479 19.3401L10.4289 16.3211L11.8431 14.9069L14.8621 17.9258L20.519 12.269L21.9332 13.6832Z" fill="#16A086"/>
</svg>
