<svg width="80" height="40" viewBox="0 0 80 40" fill="none" xmlns="http://www.w3.org/2000/svg">
<path fill-rule="evenodd" clip-rule="evenodd" d="M44.9503 0.0146484C45.9227 0.0146484 46.8066 0.368827 47.4254 0.988638L54.9392 8.24928C55.6464 8.95764 56 9.84308 56 10.8171V36.3179C56 38.2658 54.4088 39.8596 52.4641 39.8596H27.5359C25.5912 39.8596 24 38.2658 24 36.3179V3.55643C24 1.60845 25.5912 0.0146484 27.5359 0.0146484H44.9503ZM46.1878 10.8171H52.4641L45.0387 3.73351V9.66599C45.0387 10.2858 45.5691 10.8171 46.1878 10.8171ZM27.5359 3.55643V36.3179H52.4641V14.3588H46.1878C43.6243 14.3588 41.5028 12.2338 41.5028 9.66599V3.55643H27.5359ZM43.5368 17.4583C44.244 16.75 45.3048 16.75 46.012 17.4583C46.6308 18.1667 46.6308 19.2292 45.9236 19.9376L35.8462 30.0316C35.4926 30.3858 35.0507 30.5629 34.6087 30.5629C34.1667 30.5629 33.7247 30.3858 33.3711 30.0316C32.6639 29.3233 32.6639 28.2607 33.3711 27.5524L43.5368 17.4583ZM44.8617 30.6493C46.1311 30.6493 47.1601 29.6186 47.1601 28.3471C47.1601 27.0757 46.1311 26.045 44.8617 26.045C43.5924 26.045 42.5634 27.0757 42.5634 28.3471C42.5634 29.6186 43.5924 30.6493 44.8617 30.6493ZM37.4374 18.8741C37.4374 20.1456 36.4084 21.1763 35.139 21.1763C33.8697 21.1763 32.8407 20.1456 32.8407 18.8741C32.8407 17.6027 33.8697 16.572 35.139 16.572C36.4084 16.572 37.4374 17.6027 37.4374 18.8741Z" fill="#1D5DEB" fill-opacity="0.18"/>
</svg>
