<svg width="21" height="20" viewBox="0 0 21 20" fill="none" xmlns="http://www.w3.org/2000/svg">
<path fill-rule="evenodd" clip-rule="evenodd" d="M19.2705 10C19.2705 14.6944 15.4649 18.5 10.7705 18.5C6.07609 18.5 2.27051 14.6944 2.27051 10C2.27051 5.30558 6.07609 1.5 10.7705 1.5C15.4649 1.5 19.2705 5.30558 19.2705 10ZM20.7705 10C20.7705 15.5228 16.2934 20 10.7705 20C5.24766 20 0.770508 15.5228 0.770508 10C0.770508 4.47715 5.24766 0 10.7705 0C16.2934 0 20.7705 4.47715 20.7705 10ZM11.4682 11.5781H10.0682L9.84424 8.60195V5.19995H11.6922V8.60195L11.4682 11.5781ZM11.6922 15H9.84424V13.068H11.6922V15Z" fill="#FF8A00"/>
</svg>
