<svg width="40" height="40" viewBox="0 0 40 40" fill="none" xmlns="http://www.w3.org/2000/svg">
<rect width="40" height="40" rx="12" fill="#489AE9"/>
<g clip-path="url(#clip0)">
<path d="M31 14.2741L28.9387 14.6701L30.9464 13.1258C29.9906 13.2965 29.0329 13.4688 28.0771 13.6395C24.7032 9.98081 17.8906 12.9551 19.0165 17.5898C17.6965 16.7397 15.404 16.4663 13.742 15.782C11.4718 14.8474 11.7084 13.8317 11.579 14.3155C10.5899 18.0338 14.1691 20.7397 15.1323 20.7861C14.2245 20.9054 12.4608 20.3553 12.4608 20.3553C12.4608 20.3553 12.4608 22.3901 16.5706 24.1399C14.2227 25.1258 11.5476 25.4274 9 25.0082C17.0864 32.1034 30.9242 25.613 29.1697 15.6676L31 14.2741Z" fill="white"/>
</g>
<defs>
<clipPath id="clip0">
<rect width="22" height="16" fill="white" transform="translate(9 12)"/>
</clipPath>
</defs>
</svg>
