<svg width="64" height="65" viewBox="0 0 64 65" fill="none" xmlns="http://www.w3.org/2000/svg">
<path fill-rule="evenodd" clip-rule="evenodd" d="M31.9999 59.5015C17.0015 59.5015 4.79994 47.2999 4.79994 32.3015C4.79994 17.3031 17.0015 5.10154 31.9999 5.10154C46.9983 5.10154 59.1999 17.3031 59.1999 32.3015C59.1999 47.2999 46.9983 59.5015 31.9999 59.5015ZM32 0.304199C14.328 0.304199 0 14.6322 0 32.3042C0 49.9778 14.328 64.3042 32 64.3042C49.6736 64.3042 64 49.9778 64 32.3042C64 14.6322 49.6736 0.304199 32 0.304199Z" fill="#FED13E"/>
<rect x="29" y="14.3042" width="6" height="24" rx="1" fill="#FED13E"/>
<rect x="29" y="43.3042" width="6" height="6" rx="1" fill="#FED13E"/>
</svg>
