<svg width="80" height="80" viewBox="0 0 80 80" fill="none" xmlns="http://www.w3.org/2000/svg">
<path fill-rule="evenodd" clip-rule="evenodd" d="M40 74C21.252 74 6 58.748 6 40C6 21.252 21.252 6 40 6C58.748 6 74 21.252 74 40C74 58.748 58.748 74 40 74ZM40 0C17.91 0 0 17.91 0 40C0 62.092 17.91 80 40 80C62.092 80 80 62.092 80 40C80 17.91 62.092 0 40 0Z" fill="#C9D8FA"/>
<path fill-rule="evenodd" clip-rule="evenodd" d="M31.4892 26.0881C30.0441 24.6373 27.7013 24.6373 26.2562 26.0881C24.8112 27.5389 24.8112 29.8912 26.2562 31.342L34.7937 39.9135L26.0838 48.6581C24.6387 50.1089 24.6387 52.4611 26.0838 53.912C27.5288 55.3628 29.8717 55.3628 31.3168 53.9119L40.0266 45.1673L48.6833 53.8585C50.1284 55.3094 52.4712 55.3094 53.9163 53.8585C55.3614 52.4077 55.3613 50.0555 53.9163 48.6047L45.2596 39.9135L53.7439 31.3954C55.1889 29.9446 55.1889 27.5923 53.7439 26.1415C52.2988 24.6907 49.9559 24.6907 48.5109 26.1415L40.0266 34.6596L31.4892 26.0881Z" fill="#C9D8FA"/>
</svg>
