<svg viewBox="0 0 24 21" fill="none" xmlns="http://www.w3.org/2000/svg">
<path fill-rule="evenodd" clip-rule="evenodd" d="M20.2012 20.1234L24 0.743049C24 -0.54736 22.2479 0.23495 22.2559 0.23495L0.936256 8.70325C0.936256 8.70325 -0.0751721 9.05005 0.00446787 9.69526C0.0841079 10.3405 0.9044 10.6389 0.9044 10.6389L6.26417 12.4696L6.27355 12.4742C6.27267 12.4713 6.27222 12.4698 6.27222 12.4698L19.15 4.18698C19.15 4.18698 19.8907 3.72727 19.8668 4.18698C19.8668 4.18698 20.0022 4.26763 19.604 4.64669C19.2058 5.02575 9.48968 13.865 9.48968 13.865L9.46904 14.0411L18.2102 20.825C19.6676 21.4702 20.2012 20.1234 20.2012 20.1234Z" fill="#0D4CD3"/>
</svg>
