<svg viewBox="0 0 33 20" fill="none" xmlns="http://www.w3.org/2000/svg">
  <path
    d="M16.1576 19.0526H18.0698C18.0698 19.0526 18.6478 18.9886 18.9418 18.6706C19.2138 18.3786 19.2038 17.8305 19.2038 17.8305C19.2038 17.8305 19.1658 15.2643 20.3579 14.8863C21.532 14.5143 23.0401 17.3665 24.6382 18.4646C25.8463 19.2947 26.7644 19.1127 26.7644 19.1127L31.0387 19.0526C31.0387 19.0526 33.2749 18.9146 32.2148 17.1565C32.1288 17.0125 31.5967 15.8564 29.0366 13.4802C26.3563 10.992 26.7164 11.396 29.9446 7.09369C31.9107 4.47354 32.6968 2.87337 32.4508 2.18937C32.2168 1.53732 30.7706 1.70933 30.7706 1.70933L25.9623 1.73733C25.9623 1.73733 25.6063 1.68933 25.3402 1.84733C25.0822 2.00337 24.9162 2.36337 24.9162 2.36337C24.9162 2.36337 24.1542 4.39153 23.1381 6.11561C20.9959 9.75393 20.1379 9.94593 19.7878 9.71993C18.9738 9.19385 19.1778 7.60377 19.1778 6.47569C19.1778 2.94945 19.7118 1.47931 18.1358 1.09929C17.6117 0.973271 17.2277 0.889271 15.8896 0.875263C14.1734 0.857263 12.7194 0.881263 11.8973 1.2833C11.3493 1.55132 10.9272 2.14937 11.1852 2.18338C11.5033 2.22537 12.2233 2.37737 12.6054 2.89745C13.0994 3.56745 13.0814 5.07561 13.0814 5.07561C13.0814 5.07561 13.3654 9.22585 12.4194 9.74193C11.7693 10.0959 10.8792 9.37393 8.96904 6.07161C7.991 4.38153 7.25094 2.51137 7.25094 2.51137C7.25094 2.51137 7.10893 2.16337 6.85491 1.97735C6.54689 1.75133 6.11486 1.67933 6.11486 1.67933L1.54252 1.70733C1.54252 1.70733 0.856473 1.72733 0.604454 2.02538C0.380438 2.29138 0.586453 2.83937 0.586453 2.83937C0.586453 2.83937 4.16672 11.214 8.21902 15.4363C11.9373 19.3067 16.1576 19.0526 16.1576 19.0526Z"
    fill="#0D4CD3"/>
</svg>
