<svg width="80" height="80" viewBox="0 0 80 80" fill="none" xmlns="http://www.w3.org/2000/svg">
  <path d="M51.324 58.3136C47.1502 60.7692 44.6392 62.2332 42.6438 63.1549C40.8466 63.9852 40.2305 64 40 64C39.7694 64 39.1533 63.9852 37.3561 63.1549C35.3607 62.2332 32.8497 60.7692 28.6759 58.3136C24.7614 56.0106 22.4236 54.6233 20.7562 53.4182C19.497 52.5081 19.0885 52.0234 18.9351 51.7987C18.9039 51.7124 18.8288 51.4919 18.737 51.0968C18.5686 50.3715 18.4186 49.387 18.3069 48.1379C18.0798 45.5989 18.0731 42.7763 18.0731 40C18.0731 37.2237 18.0798 34.4011 18.3069 31.8621C18.4186 30.613 18.5686 29.6285 18.737 28.9032C18.8288 28.5081 18.9039 28.2876 18.9351 28.2013C19.0885 27.9766 19.497 27.4919 20.7562 26.5818C22.4236 25.3767 24.7614 23.9894 28.6759 21.6864C32.8498 19.2308 35.3607 17.7668 37.3561 16.8451C39.1533 16.0148 39.7694 16 39.9999 16C40.2305 16 40.8466 16.0148 42.6438 16.8451C44.6392 17.7668 47.1502 19.2308 51.324 21.6864C55.2385 23.9894 57.5763 25.3767 59.2437 26.5818C60.5029 27.4919 60.9114 27.9766 61.0648 28.2013C61.096 28.2876 61.1712 28.5081 61.2629 28.9032C61.4313 29.6285 61.5813 30.613 61.693 31.8621C61.9201 34.4011 61.9268 37.2237 61.9268 40C61.9268 42.7763 61.9201 45.5989 61.693 48.1379C61.5813 49.387 61.4313 50.3715 61.2629 51.0968C61.1712 51.4919 61.096 51.7124 61.0648 51.7987C60.9114 52.0234 60.5029 52.5081 59.2437 53.4182C57.5763 54.6233 55.2385 56.0106 51.324 58.3136Z" stroke="url(#paint0_radial)" stroke-opacity="0.6" stroke-width="20"/>
  <path d="M49.1257 54.5621C46.4362 56.1187 44.6229 57.1639 43.128 57.8433C41.6986 58.4928 40.8029 58.69 40 58.69C39.1971 58.69 38.3014 58.4928 36.872 57.8433C35.3771 57.1639 33.5638 56.1187 30.8743 54.5621C28.352 53.1023 26.6579 52.118 25.4075 51.229C24.2098 50.3774 23.6416 49.763 23.2766 49.1554C22.9737 48.6512 22.6518 47.472 22.4763 45.5424C22.3123 43.7383 22.31 41.7728 22.31 40C22.31 38.2272 22.3123 36.2617 22.4763 34.4576C22.6518 32.528 22.9737 31.3488 23.2766 30.8446C23.6416 30.237 24.2098 29.6226 25.4075 28.771C26.6579 27.882 28.352 26.8977 30.8743 25.4379C33.5638 23.8813 35.3771 22.8361 36.872 22.1567C38.3014 21.5072 39.1971 21.31 40 21.31C40.8029 21.31 41.6986 21.5072 43.128 22.1567C44.6229 22.8361 46.4362 23.8813 49.1257 25.4379C51.648 26.8977 53.3421 27.882 54.5925 28.771C55.7902 29.6226 56.3584 30.237 56.7234 30.8446C57.0263 31.3488 57.3482 32.528 57.5237 34.4576C57.6877 36.2617 57.69 38.2272 57.69 40C57.69 41.7728 57.6877 43.7383 57.5237 45.5424C57.3482 47.472 57.0263 48.6512 56.7234 49.1554C56.3584 49.763 55.7902 50.3774 54.5925 51.229C53.3421 52.118 51.648 53.1023 49.1257 54.5621Z" stroke="url(#paint1_radial)" stroke-width="6.62005"/>
  <path d="M50.5333 56.9942C47.8911 58.5234 45.9402 59.6519 44.2905 60.4015C42.6508 61.1467 41.3447 61.5 40 61.5C38.6553 61.5 37.3492 61.1467 35.7095 60.4015C34.0598 59.6519 32.1089 58.5234 29.4667 56.9942C26.9895 55.5605 25.1615 54.5019 23.7792 53.5191C22.4048 52.542 21.5043 51.662 20.8678 50.6025C20.2111 49.5094 19.8571 47.7681 19.6778 45.7968C19.5003 43.8445 19.5 41.7512 19.5 40C19.5 38.2488 19.5003 36.1555 19.6778 34.2032C19.8571 32.2319 20.2111 30.4906 20.8678 29.3975C21.5043 28.338 22.4048 27.458 23.7792 26.4809C25.1615 25.4981 26.9895 24.4395 29.4667 23.0058C32.1089 21.4766 34.0598 20.3481 35.7095 19.5985C37.3492 18.8533 38.6553 18.5 40 18.5C41.3447 18.5 42.6508 18.8533 44.2905 19.5985C45.9402 20.3481 47.8911 21.4766 50.5333 23.0058C53.0105 24.4395 54.8385 25.4981 56.2208 26.4809C57.5952 27.458 58.4957 28.338 59.1322 29.3975C59.7889 30.4906 60.1429 32.2319 60.3222 34.2032C60.4997 36.1555 60.5 38.2488 60.5 40C60.5 41.7512 60.4997 43.8445 60.3222 45.7968C60.1429 47.7681 59.7889 49.5094 59.1322 50.6025C58.4957 51.662 57.5952 52.542 56.2208 53.5191C54.8385 54.5019 53.0105 55.5605 50.5333 56.9942Z" stroke="url(#paint2_radial)"/>
  <defs>
    <radialGradient id="paint0_radial" cx="0" cy="0" r="1" gradientUnits="userSpaceOnUse" gradientTransform="translate(40.0421 40) rotate(89.5393) scale(49.1992 51.2108)">
      <stop offset="0.23663" stop-color="white" stop-opacity="0"/>
      <stop offset="1" stop-color="white"/>
    </radialGradient>
    <radialGradient id="paint1_radial" cx="0" cy="0" r="1" gradientUnits="userSpaceOnUse" gradientTransform="translate(40.0277 40) rotate(90.0721) scale(22 28.9395)">
      <stop offset="0.182292" stop-color="white" stop-opacity="0"/>
      <stop offset="1" stop-color="white"/>
    </radialGradient>
    <radialGradient id="paint2_radial" cx="0" cy="0" r="1" gradientUnits="userSpaceOnUse" gradientTransform="translate(40.0277 40) rotate(90.0721) scale(22 28.9395)">
      <stop offset="0.182292" stop-color="white" stop-opacity="0"/>
      <stop offset="1" stop-color="white"/>
    </radialGradient>
  </defs>
</svg>
