<svg width="40" height="40" viewBox="0 0 40 40" fill="none" xmlns="http://www.w3.org/2000/svg">
  <circle cx="20" cy="20" r="20" fill="#F3F5FB"/>
  <path d="M27.5668 18.681C27.1653 17.0228 26.2203 15.544 24.8801 14.4767C23.5399 13.4094 21.8805 12.8141 20.1624 12.7844V12.16C20.1592 12.0085 20.2123 11.8611 20.3116 11.746C20.4109 11.6308 20.5495 11.556 20.7008 11.5357C20.8332 11.5232 20.966 11.5545 21.0787 11.6246C21.1914 11.6947 21.2776 11.7997 21.324 11.9234C21.3592 12.0249 21.4252 12.1131 21.513 12.1757C21.6008 12.2384 21.706 12.2725 21.8142 12.2733C21.8973 12.2738 21.9793 12.2541 22.053 12.2159C22.1267 12.1776 22.1899 12.1221 22.237 12.054C22.2855 11.9859 22.3167 11.9072 22.3279 11.8245C22.3391 11.7418 22.33 11.6577 22.3013 11.5792C22.1806 11.2465 21.9543 10.9617 21.6564 10.7676C21.3585 10.5736 21.0052 10.4808 20.6496 10.5033C20.2283 10.5389 19.8364 10.7318 19.5529 11.0431C19.2694 11.3544 19.1155 11.7608 19.1222 12.1804V12.8265C17.5366 13.0031 16.0442 13.6596 14.8475 14.707C13.6509 15.7543 12.808 17.1418 12.4332 18.681C11.7433 18.7522 11.1069 19.083 10.655 19.6053C10.2031 20.1276 9.9698 20.8018 10.0031 21.4895C10.0365 22.1772 10.3339 22.8261 10.8342 23.3029C11.3346 23.7797 12 24.0483 12.6936 24.0535C13.2454 25.5356 14.2415 26.8143 15.5479 27.7174C16.8542 28.6205 18.408 29.1047 20 29.1047C21.592 29.1047 23.1458 28.6205 24.4521 27.7174C25.7585 26.8143 26.7546 25.5356 27.3064 24.0535C28 24.0483 28.6654 23.7797 29.1658 23.3029C29.6661 22.8261 29.9635 22.1772 29.9969 21.4895C30.0302 20.8018 29.7969 20.1276 29.345 19.6053C28.8931 19.083 28.2568 18.7522 27.5668 18.681ZM27.754 19.7744C28.0996 19.8881 28.3984 20.1104 28.6053 20.4076C28.8122 20.7049 28.9159 21.061 28.9007 21.422C28.8855 21.783 28.7522 22.1292 28.521 22.4083C28.2899 22.6874 27.9734 22.8842 27.6194 22.9688C27.7332 22.4395 27.7905 21.8998 27.7906 21.3585V20.5222C27.7906 20.2753 27.7789 20.027 27.754 19.7744ZM19.5904 14.7141C19.6626 14.7214 19.7356 14.7136 19.8046 14.6912C19.8736 14.6688 19.9372 14.6322 19.9911 14.5839C20.045 14.5356 20.0881 14.4766 20.1176 14.4108C20.1471 14.3449 20.1624 14.2737 20.1624 14.2016V13.8153C21.9251 13.86 23.6006 14.5861 24.8317 15.8389C26.0629 17.0917 26.7524 18.7722 26.7533 20.5222V21.3643C26.7533 23.142 26.0418 24.8468 24.7753 26.1037C23.5088 27.3607 21.7911 28.0668 20 28.0668C18.2089 28.0668 16.4912 27.3607 15.2247 26.1037C13.9582 24.8468 13.2467 23.142 13.2467 21.3643V20.5222C13.2398 18.8928 13.8333 17.3171 14.9154 16.0918C15.9976 14.8664 17.4937 14.0759 19.1222 13.8691V14.1812C19.1208 14.3116 19.1677 14.4379 19.254 14.5362C19.3404 14.6344 19.46 14.6978 19.5904 14.7141ZM12.3806 22.9746C12.024 22.8917 11.7045 22.6953 11.471 22.4152C11.2376 22.1352 11.1029 21.787 11.0877 21.4238C11.0724 21.0606 11.1774 20.7025 11.3865 20.4041C11.5957 20.1057 11.8976 19.8835 12.246 19.7715C12.2211 20.0256 12.2079 20.2753 12.2079 20.5149V21.3643C12.2085 21.9056 12.2664 22.4453 12.3806 22.9746Z" fill="#4D9DD4"/>
  <path d="M17.81 20.9459C17.8042 20.7231 17.7327 20.5068 17.6043 20.3243C17.4759 20.1418 17.2964 20.0011 17.0882 19.9198C16.88 19.8385 16.6523 19.8203 16.4338 19.8673C16.2152 19.9144 16.0154 20.0247 15.8594 20.1844C15.7034 20.3441 15.5981 20.5462 15.5567 20.7653C15.5154 20.9844 15.5397 21.2107 15.6268 21.4161C15.7138 21.6214 15.8597 21.7966 16.0461 21.9197C16.2325 22.0428 16.4512 22.1084 16.6748 22.1082C16.9796 22.1032 17.2701 21.9782 17.4828 21.7604C17.6955 21.5427 17.8131 21.2499 17.81 20.9459Z" fill="#4D9DD4"/>
  <path d="M23.2466 22.1097C23.4783 22.1158 23.7067 22.0528 23.9024 21.9289C24.098 21.8049 24.2522 21.6256 24.3452 21.4138C24.4381 21.202 24.4656 20.9675 24.4241 20.74C24.3827 20.5126 24.2741 20.3027 24.1124 20.1371C23.9506 19.9715 23.743 19.8577 23.5161 19.8103C23.2892 19.7629 23.0532 19.7841 22.8384 19.8711C22.6236 19.9581 22.4397 20.107 22.3102 20.2987C22.1807 20.4905 22.1115 20.7163 22.1114 20.9475C22.1079 21.2515 22.2254 21.5446 22.4382 21.7624C22.6509 21.9802 22.9416 22.1051 23.2466 22.1097Z" fill="#4D9DD4"/>
  <path d="M18.1357 23.5786C18.09 23.4504 17.9954 23.3454 17.8724 23.2864C17.7494 23.2275 17.6081 23.2193 17.4791 23.2638C17.3502 23.3082 17.244 23.4017 17.1839 23.5238C17.1237 23.6459 17.1144 23.7867 17.1579 23.9157C17.3592 24.4967 17.7373 25.0006 18.2394 25.3573C18.7416 25.714 19.3428 25.9057 19.9593 25.9057C20.5759 25.9057 21.1771 25.714 21.6793 25.3573C22.1814 25.0006 22.5595 24.4967 22.7608 23.9157C22.7837 23.8511 22.7935 23.7827 22.7896 23.7143C22.7857 23.646 22.7681 23.5791 22.738 23.5176C22.7079 23.456 22.6658 23.4011 22.6142 23.356C22.5626 23.3108 22.5024 23.2764 22.4373 23.2546C22.3077 23.2114 22.1661 23.2212 22.0436 23.2819C21.9212 23.3427 21.828 23.4494 21.7845 23.5786C21.6526 23.9554 21.4063 24.2819 21.08 24.5129C20.7536 24.744 20.3633 24.8681 19.963 24.8681C19.5627 24.8681 19.1724 24.744 18.846 24.5129C18.5196 24.2819 18.2734 23.9554 18.1415 23.5786H18.1357Z" fill="#4D9DD4"/>
</svg>
