<svg width="40" height="40" viewBox="0 0 40 40" fill="none" xmlns="http://www.w3.org/2000/svg">
  <circle cx="20" cy="20" r="20" fill="#F3F5FB"/>
  <path d="M26.25 10H14.1667C13.7067 10 13.3333 10.3733 13.3333 10.8333V12.9167H12.5C12.04 12.9167 11.6667 13.29 11.6667 13.75V15.8333H10.8333C10.3733 15.8333 10 16.2067 10 16.6667V29.1667C10 29.6267 10.3733 30 10.8333 30H26.6667C28.5046 30 30 28.5046 30 26.6667V13.75C30 11.6825 28.3175 10 26.25 10ZM13.3333 14.5833H25V15.8333H13.3333V14.5833ZM11.6667 22.0833H14.1667C14.6263 22.0833 15 22.4571 15 22.9167C15 23.3763 14.6263 23.75 14.1667 23.75H11.6667V22.0833ZM28.3333 26.6667C28.3333 27.5859 27.5859 28.3333 26.6667 28.3333H11.6667V25.4167H14.1667C15.5455 25.4167 16.6667 24.2955 16.6667 22.9167C16.6667 21.5379 15.5455 20.4167 14.1667 20.4167H11.6667V17.5H26.25C27.0205 17.5 27.737 17.2662 28.3333 16.8667V26.6667ZM26.6667 15.7912V13.75C26.6667 13.29 26.2933 12.9167 25.8333 12.9167H15V11.6667H26.25C27.3987 11.6667 28.3333 12.6013 28.3333 13.75C28.3333 14.7559 27.6162 15.5975 26.6667 15.7912Z" fill="#4D9DD4"/>
</svg>
