<svg width="132" height="56" viewBox="0 0 132 56" fill="none" xmlns="http://www.w3.org/2000/svg">
<path d="M0 8C0 3.58172 3.58172 0 8 0H124C128.418 0 132 3.58172 132 8V48C132 52.4183 128.418 56 124 56H8C3.58172 56 0 52.4183 0 48V8Z" fill="white"/>
<path d="M57.475 23.24V17.6H55.105C55.065 18.4167 55.0083 19.1333 54.935 19.75C54.8617 20.3667 54.775 20.9017 54.675 21.355C54.575 21.8083 54.4633 22.1883 54.34 22.495C54.2167 22.7983 54.0833 23.0467 53.94 23.24H57.475ZM59.62 23.24V25.455C59.62 25.5417 59.5917 25.6117 59.535 25.665C59.4783 25.7183 59.4033 25.745 59.31 25.745H58.735V24H52.96V25.455C52.96 25.5417 52.93 25.6117 52.87 25.665C52.8133 25.7183 52.74 25.745 52.65 25.745H52.07V23.24H52.8C52.9033 23.19 53.0067 23.11 53.11 23C53.2133 22.8867 53.3117 22.7267 53.405 22.52C53.5017 22.31 53.5917 22.0467 53.675 21.73C53.7583 21.4133 53.8333 21.0267 53.9 20.57C53.97 20.11 54.03 19.5733 54.08 18.96C54.13 18.3467 54.1683 17.6383 54.195 16.835H58.45V23.24H59.62ZM62.3986 18.855C62.7686 18.855 63.1019 18.9167 63.3986 19.04C63.6953 19.1633 63.9486 19.3383 64.1586 19.565C64.3686 19.7917 64.5286 20.0667 64.6386 20.39C64.7519 20.71 64.8086 21.0683 64.8086 21.465C64.8086 21.865 64.7519 22.225 64.6386 22.545C64.5286 22.865 64.3686 23.1383 64.1586 23.365C63.9486 23.5917 63.6953 23.7667 63.3986 23.89C63.1019 24.01 62.7686 24.07 62.3986 24.07C62.0253 24.07 61.6886 24.01 61.3886 23.89C61.0919 23.7667 60.8386 23.5917 60.6286 23.365C60.4186 23.1383 60.2569 22.865 60.1436 22.545C60.0336 22.225 59.9786 21.865 59.9786 21.465C59.9786 21.0683 60.0336 20.71 60.1436 20.39C60.2569 20.0667 60.4186 19.7917 60.6286 19.565C60.8386 19.3383 61.0919 19.1633 61.3886 19.04C61.6886 18.9167 62.0253 18.855 62.3986 18.855ZM62.3986 23.375C62.8986 23.375 63.2719 23.2083 63.5186 22.875C63.7653 22.5383 63.8886 22.07 63.8886 21.47C63.8886 20.8667 63.7653 20.3967 63.5186 20.06C63.2719 19.7233 62.8986 19.555 62.3986 19.555C62.1453 19.555 61.9236 19.5983 61.7336 19.685C61.5469 19.7717 61.3903 19.8967 61.2636 20.06C61.1403 20.2233 61.0469 20.425 60.9836 20.665C60.9236 20.9017 60.8936 21.17 60.8936 21.47C60.8936 22.07 61.0169 22.5383 61.2636 22.875C61.5136 23.2083 61.8919 23.375 62.3986 23.375ZM69.4624 19.835C69.4358 19.8717 69.4091 19.9 69.3824 19.92C69.3558 19.94 69.3191 19.95 69.2724 19.95C69.2224 19.95 69.1674 19.93 69.1074 19.89C69.0474 19.8467 68.9724 19.8 68.8824 19.75C68.7958 19.7 68.6874 19.655 68.5574 19.615C68.4308 19.5717 68.2741 19.55 68.0874 19.55C67.8374 19.55 67.6174 19.595 67.4274 19.685C67.2374 19.7717 67.0774 19.8983 66.9474 20.065C66.8208 20.2317 66.7241 20.4333 66.6574 20.67C66.5941 20.9067 66.5624 21.1717 66.5624 21.465C66.5624 21.7717 66.5974 22.045 66.6674 22.285C66.7374 22.5217 66.8358 22.7217 66.9624 22.885C67.0924 23.045 67.2474 23.1683 67.4274 23.255C67.6108 23.3383 67.8158 23.38 68.0424 23.38C68.2591 23.38 68.4374 23.355 68.5774 23.305C68.7174 23.2517 68.8324 23.1933 68.9224 23.13C69.0158 23.0667 69.0924 23.01 69.1524 22.96C69.2158 22.9067 69.2774 22.88 69.3374 22.88C69.4108 22.88 69.4674 22.9083 69.5074 22.965L69.7574 23.29C69.6474 23.4267 69.5224 23.5433 69.3824 23.64C69.2424 23.7367 69.0908 23.8183 68.9274 23.885C68.7674 23.9483 68.5991 23.995 68.4224 24.025C68.2458 24.055 68.0658 24.07 67.8824 24.07C67.5658 24.07 67.2708 24.0117 66.9974 23.895C66.7274 23.7783 66.4924 23.61 66.2924 23.39C66.0924 23.1667 65.9358 22.8933 65.8224 22.57C65.7091 22.2467 65.6524 21.8783 65.6524 21.465C65.6524 21.0883 65.7041 20.74 65.8074 20.42C65.9141 20.1 66.0674 19.825 66.2674 19.595C66.4708 19.3617 66.7191 19.18 67.0124 19.05C67.3091 18.92 67.6491 18.855 68.0324 18.855C68.3891 18.855 68.7024 18.9133 68.9724 19.03C69.2458 19.1433 69.4874 19.305 69.6974 19.515L69.4624 19.835ZM74.9228 19.615H72.9778V24H72.0878V19.615H70.1428V18.935H74.9228V19.615ZM80.1414 18.935L77.3164 25.495C77.2864 25.5617 77.2481 25.615 77.2014 25.655C77.1581 25.695 77.0897 25.715 76.9964 25.715H76.3364L77.2614 23.705L75.1714 18.935H75.9414C76.0181 18.935 76.0781 18.955 76.1214 18.995C76.1681 19.0317 76.1997 19.0733 76.2164 19.12L77.5714 22.31C77.6247 22.45 77.6697 22.5967 77.7064 22.75C77.7531 22.5933 77.8031 22.445 77.8564 22.305L79.1714 19.12C79.1914 19.0667 79.2247 19.0233 79.2714 18.99C79.3214 18.9533 79.3764 18.935 79.4364 18.935H80.1414ZM85.1477 24H84.2527V19.615H81.8227V24H80.9277V18.935H85.1477V24ZM90.7824 18.935V24H89.8874V21.63H87.4574V24H86.5624V18.935H87.4574V20.955H89.8874V18.935H90.7824ZM94.3322 18.855C94.7022 18.855 95.0355 18.9167 95.3322 19.04C95.6289 19.1633 95.8822 19.3383 96.0922 19.565C96.3022 19.7917 96.4622 20.0667 96.5722 20.39C96.6855 20.71 96.7422 21.0683 96.7422 21.465C96.7422 21.865 96.6855 22.225 96.5722 22.545C96.4622 22.865 96.3022 23.1383 96.0922 23.365C95.8822 23.5917 95.6289 23.7667 95.3322 23.89C95.0355 24.01 94.7022 24.07 94.3322 24.07C93.9589 24.07 93.6222 24.01 93.3222 23.89C93.0255 23.7667 92.7722 23.5917 92.5622 23.365C92.3522 23.1383 92.1905 22.865 92.0772 22.545C91.9672 22.225 91.9122 21.865 91.9122 21.465C91.9122 21.0683 91.9672 20.71 92.0772 20.39C92.1905 20.0667 92.3522 19.7917 92.5622 19.565C92.7722 19.3383 93.0255 19.1633 93.3222 19.04C93.6222 18.9167 93.9589 18.855 94.3322 18.855ZM94.3322 23.375C94.8322 23.375 95.2055 23.2083 95.4522 22.875C95.6989 22.5383 95.8222 22.07 95.8222 21.47C95.8222 20.8667 95.6989 20.3967 95.4522 20.06C95.2055 19.7233 94.8322 19.555 94.3322 19.555C94.0789 19.555 93.8572 19.5983 93.6672 19.685C93.4805 19.7717 93.3239 19.8967 93.1972 20.06C93.0739 20.2233 92.9805 20.425 92.9172 20.665C92.8572 20.9017 92.8272 21.17 92.8272 21.47C92.8272 22.07 92.9505 22.5383 93.1972 22.875C93.4472 23.2083 93.8255 23.375 94.3322 23.375ZM102.375 23.375C102.708 23.375 102.971 23.2983 103.165 23.145C103.358 22.9883 103.455 22.775 103.455 22.505C103.455 22.385 103.436 22.2767 103.4 22.18C103.363 22.08 103.303 21.9933 103.22 21.92C103.136 21.8467 103.025 21.79 102.885 21.75C102.748 21.71 102.58 21.69 102.38 21.69H101.285V23.375H102.375ZM101.285 19.535V21.125H102.26C102.406 21.125 102.541 21.105 102.665 21.065C102.791 21.0217 102.9 20.9633 102.99 20.89C103.08 20.8133 103.15 20.7233 103.2 20.62C103.25 20.5133 103.275 20.3967 103.275 20.27C103.275 20.1767 103.258 20.0867 103.225 20C103.191 19.91 103.135 19.8317 103.055 19.765C102.975 19.695 102.87 19.64 102.74 19.6C102.61 19.5567 102.45 19.535 102.26 19.535H101.285ZM102.285 18.935C102.598 18.935 102.866 18.9667 103.09 19.03C103.313 19.0933 103.496 19.18 103.64 19.29C103.783 19.3967 103.888 19.5233 103.955 19.67C104.021 19.8167 104.055 19.9733 104.055 20.14C104.055 20.25 104.04 20.365 104.01 20.485C103.98 20.605 103.926 20.72 103.85 20.83C103.776 20.94 103.675 21.04 103.545 21.13C103.418 21.2167 103.258 21.285 103.065 21.335C103.451 21.4017 103.75 21.5367 103.96 21.74C104.17 21.94 104.275 22.205 104.275 22.535C104.275 22.7817 104.225 22.9967 104.125 23.18C104.028 23.36 103.893 23.5117 103.72 23.635C103.55 23.7583 103.35 23.85 103.12 23.91C102.89 23.97 102.643 24 102.38 24H100.43V18.935H102.285Z" fill="#0B1F33"/>
<path fill-rule="evenodd" clip-rule="evenodd" d="M80.8634 39.0768C79.6911 39.0768 78.8332 38.494 78.7345 37.6064L77.3703 37.6063C77.4565 39.2253 78.7898 40.2495 80.7646 40.2495C82.8752 40.2495 84.2024 39.2007 84.2024 37.5261C84.2024 36.2168 83.4431 35.4791 81.6161 35.0447L80.635 34.8026C79.4873 34.5175 79.0181 34.1452 79.0181 33.5123C79.0181 32.7183 79.7527 32.1728 80.8262 32.1728C81.8997 32.1728 82.6343 32.712 82.7149 33.6052H84.0601C84.0167 32.0609 82.7268 31 80.8451 31C78.9439 31 77.6049 32.0609 77.6049 33.6052C77.6049 34.8526 78.364 35.6213 79.9992 36.0183L81.1533 36.2977C82.3073 36.5829 82.7947 36.9988 82.7947 37.6936C82.7947 38.494 81.9866 39.0768 80.8634 39.0768ZM54.2528 37.6811H57.647L58.4614 40.1005H59.9236L56.7086 31.1494H55.215L52 40.1005H53.4377L54.2528 37.6811ZM57.2948 36.5647H54.6043L55.9314 32.6383H55.9685L57.2948 36.5647ZM64.1563 40.1693C65.7859 40.1693 66.8656 38.8664 66.8656 36.8383C66.8656 34.816 65.7795 33.5067 64.1318 33.5067C63.7157 33.4932 63.3037 33.5934 62.9396 33.7965C62.5756 33.9997 62.2732 34.2982 62.0646 34.6604H62.0401V33.575H60.7502V42.26H62.0828V39.0275H62.1136C62.3131 39.3915 62.6104 39.6916 62.9717 39.8935C63.333 40.0955 63.7435 40.191 64.1563 40.1693ZM63.7803 34.6485C64.8166 34.6485 65.4959 35.5171 65.4959 36.8383C65.4959 38.1716 64.8166 39.0339 63.7803 39.0339C62.7621 39.0339 62.0772 38.1533 62.0772 36.8383C62.0772 35.5354 62.7621 34.6485 63.7803 34.6485ZM74.0122 36.8383C74.0122 38.8664 72.9323 40.1693 71.3028 40.1693C70.89 40.191 70.4795 40.0955 70.1182 39.8935C69.757 39.6916 69.4596 39.3914 69.2601 39.0275H69.2293V42.26H67.8966V33.575H69.1865V34.6604H69.211C69.4197 34.2982 69.7221 33.9997 70.0861 33.7965C70.4501 33.5934 70.8621 33.4932 71.2782 33.5067C72.926 33.5067 74.0122 34.816 74.0122 36.8383ZM72.6424 36.8383C72.6424 35.5171 71.9631 34.6485 70.9267 34.6485C69.9086 34.6485 69.2237 35.5354 69.2237 36.8383C69.2237 38.1533 69.9086 39.0339 70.9267 39.0339C71.9632 39.0339 72.6424 38.1716 72.6424 36.8383ZM87.0776 32.0296V33.5741H88.312V34.6349H87.0776V38.2326C87.0776 38.7915 87.3246 39.052 87.8676 39.052C88.0141 39.0494 88.1606 39.0391 88.3059 39.021V40.0755C88.0619 40.1213 87.8137 40.142 87.5655 40.1374C86.2514 40.1374 85.739 39.6411 85.739 38.3755V34.6349H84.7951V33.5741H85.739V32.0296H87.0776ZM92.1083 33.4942C90.2321 33.4942 89.029 34.7844 89.029 36.8378C89.029 38.8967 90.2199 40.1814 92.1083 40.1814C93.9967 40.1814 95.1876 38.8967 95.1876 36.8378C95.1876 34.7844 93.9906 33.4942 92.1083 33.4942ZM92.1083 34.5979C93.1876 34.5979 93.83 35.4292 93.83 36.8378C93.83 38.2519 93.1876 39.077 92.1083 39.077C91.0283 39.077 90.3866 38.2519 90.3866 36.8378C90.3866 35.4356 91.0283 34.5979 92.1083 34.5979ZM96.2868 33.5749H97.558V34.6857H97.5886C97.6744 34.3388 97.8767 34.0322 98.1611 33.8175C98.4455 33.6028 98.7948 33.493 99.1503 33.5066C99.3036 33.5061 99.4568 33.5228 99.6069 33.5566V34.8096C99.4126 34.7501 99.2104 34.7227 99.0081 34.7286C98.8144 34.7207 98.6214 34.755 98.4424 34.8292C98.2628 34.9034 98.1022 35.0156 97.9698 35.1583C97.8381 35.3009 97.7388 35.4706 97.6781 35.6556C97.6174 35.8406 97.5972 36.0366 97.6192 36.2301V40.101H96.2868V33.5749ZM102.955 40.1814C104.423 40.1814 105.571 39.3684 105.75 38.1836H104.485C104.367 38.4785 104.157 38.7272 103.887 38.8926C103.617 39.0579 103.301 39.1313 102.986 39.1016C102.746 39.1105 102.507 39.0679 102.285 38.9769C102.063 38.8859 101.863 38.7483 101.698 38.5735C101.532 38.3987 101.406 38.1905 101.327 37.9629C101.248 37.7352 101.218 37.4932 101.239 37.2531V37.1721H105.825V36.7132C105.825 34.7345 104.695 33.4942 102.899 33.4942C101.073 33.4942 99.894 34.8217 99.894 36.8687C99.894 38.9094 101.067 40.1814 102.955 40.1814ZM104.492 36.2359H101.245C101.245 36.0178 101.288 35.8017 101.371 35.6001C101.453 35.3985 101.575 35.2155 101.729 35.0615C101.883 34.9074 102.065 34.7856 102.266 34.7029C102.467 34.6202 102.682 34.5783 102.899 34.5796C103.114 34.575 103.328 34.615 103.527 34.6973C103.726 34.7797 103.906 34.9025 104.055 35.058C104.205 35.2135 104.321 35.3985 104.396 35.6011C104.471 35.8038 104.503 36.02 104.492 36.2359Z" fill="#0B40B3"/>
<path d="M36.5458 27.4415C36.5904 31.9832 40.7108 33.4877 40.75 33.5148C40.7184 33.6221 40.1026 35.6726 38.5913 37.7784C37.2824 39.6028 35.9322 41.424 33.7974 41.4626C31.6921 41.498 31.0251 40.2675 28.6292 40.2727C26.2268 40.2727 25.4804 41.4324 23.4969 41.5001C21.4307 41.5772 19.8607 39.5288 18.5518 37.7096C15.8567 33.991 13.8014 27.1935 16.5552 22.5913C17.9305 20.3085 20.3797 18.8717 23.0356 18.83C25.0637 18.7967 26.9732 20.1293 28.2038 20.1293C29.442 20.1293 31.7639 18.5279 34.2065 18.7581C35.2228 18.7977 38.0897 19.1499 39.934 21.7265C39.7849 21.812 36.5099 23.6395 36.5458 27.4415ZM32.6027 16.2971C31.5136 17.562 29.7205 18.5539 27.9677 18.4185C27.7251 16.7014 28.6031 14.903 29.6183 13.7777C30.7455 12.5139 32.6528 11.571 34.2283 11.5022C34.4307 13.2641 33.6908 15.027 32.6027 16.2971Z" fill="#0B40B3"/>
</svg>
